<svg xmlns="http://www.w3.org/2000/svg" viewBox="-16 -32 820 370"><defs><style>.cls-1{fill:#f4edcd}.cls-2{fill:#f2e8c2}.cls-3{fill:#6b3d28}.cls-4{fill:#e6d9a3}.cls-5{fill:#895035}.cls-6{fill:#5e3724}.cls-7{fill:#4d3224}.cls-8{fill:#e6e6d4}.cls-9{fill:#874e34}.cls-10{fill:#c4bf8b}.cls-11{fill:none;stroke:#4d3224;stroke-linecap:round;stroke-linejoin:round;stroke-width:9.58px}.hand-left,.hand-right{-webkit-animation:hand-An 2s linear infinite;animation:hand-An 2s linear infinite}.hand-right{-webkit-animation-delay:1s;animation-delay:1s}@keyframes hand-An{0%{transform-origin:right bottom;transform:rotate(-3deg);-webkit-transform-origin:right bottom;-webkit-transform:rotate(-3deg)}50%{transform-origin:right bottom;transform:rotate(3.4deg);-webkit-transform-origin:right bottom;-webkit-transform:rotate(3.4deg)}100%{transform-origin:right bottom;transform:rotate(-3deg);-webkit-transform-origin:right bottom;-webkit-transform:rotate(-3deg)}}</style></defs><title>test</title><path class="cls-1" d="M300.83 128.37c-43 15-72.46 36.54-90.22 52.85q-5.64 2.25-10.43 4.22c-23.33 8.41-43.55 16.61-64 23.86-31 11-49.6 52.56-50.86 62.87S98.5 315.25 102 324.79s34.12 14.93 35.31 14.67 19.08-29.3 23.65-33.37 44.1-17.29 57.32-26c6.86-4.54 17.56-12.1 26.29-18.35 4.59-2.91 9.68-6.25 14.89-9.76 61.67-10.12 201.38-41.32 264.66-62.27 79.69-26.39 79.51-42 79.51-42l19.21-35S378.69 101.28 300.83 128.37z"/><g class="hand-left"><path class="cls-2" d="M252.92 213.45c-65.13-24.39-95.3-14.9-181.9-43.53S8.21 5.65 8.21 5.65 42.86-1.39 67 23.5c38.41 39.64 97.85 93.78 177.83 116.5 63.54 18.07 38.44 23 38.44 23z"/><path class="cls-3" d="M137.53 187.61s-17.32-15.19-9.27-23.53 50.2.53 57.14 2.33 7.92 5.64 7.92 5.64l-9.57 18.15-6.42 3.7z"/><path class="cls-3" d="M82.92 172.3c11.16 2 27.57-.72 29.37-6.27s-9.17-30.34-20.81-33.22-34.7 5.33-35 8.67 3.23 15.29 6.46 21S82.92 172.3 82.92 172.3z"/><path class="cls-3" d="M46.52 127.5c.39-2.48 8.07-30.62 1.5-39.06S23.23 72.87 17.22 72.67s-7.3 20.66-6.68 23.2a165.07 165.07.0 0 0 12.64 33.7c8 15.52 19 10.94 19 10.94S45.15 136.43 46.52 127.5z"/><path class="cls-3" d="M8.71 42.59C5.22 44.25 8 67.33 9.14 66.94S23 62.19 22.24 56.84 20.26 45 15.81 43 8.71 42.59 8.71 42.59z"/><path class="cls-3" d="M53.18 114c-1.54 2.56-1.69 13-.58 14.73s23.47-.39 24.06-3.2-3.22-10.19-5.35-11.08S53.18 114 53.18 114z"/><path class="cls-3" d="M111.05 140.71c-.38 1.72 7 15.12 8.57 15.71s20-1.11 20.13-2.77-1.37-6.42-5-8.17-16.89-8.61-18.72-8.81S111.05 140.71 111.05 140.71z"/><path class="cls-3" d="M175.88 156s13.9 9.14 15.85 8.58 11.57-6.5 10.07-9.31-14.21-3.88-17.53-3.66S175.88 156 175.88 156z"/><path class="cls-3" d="M27.94 57.93c-1.46.54-6.35 6.95-5.22 8.05S33.19 71 34.1 69s-6.16-11.07-6.16-11.07z"/><path class="cls-11" d="M225.86 133.45S117.1 89.43 72.92 30.68c0 0-20-31.43-64.71-25-4.72.67-3.25 50.11-3 53.92 2.24 39.25 13.56 79.29 48.19 101.54 32.91 21.15 73.59 29.25 112 32.39"/></g><path class="cls-4" d="M145.73 329.58s23.41-2.34 33.93-7.24 57.83-57.66 57.83-57.66-31.57 20-55 32.56A113.62 113.62.0 0 0 145.73 329.58z"/><path class="cls-4" d="M270.12 59c-13.51 12.86-58.35 112.1-75.73 140 0 0 37.21-39.54 98.42-45.09s82.34 9.48 117.77-8.82c67.92-35.07 57.34-7.3 104.67 2.95S642 102.28 641.93 96.79 546.38 41.23 501.23 20.6 307.29 23.63 270.12 59z"/><path class="cls-3" d="M277.33 57.78C273.23 59.2 234 132 234 132s-2 7.31 6.14 5.57 20.78-9.67 60-12.82 48.66 2.27 53.23.47-21-72.32-25-75.6S277.33 57.78 277.33 57.78z"/><path class="cls-3" d="M338.06 47.28c.28 1 26.57 74.7 28.46 79.25s16.41 5.49 21.7 3.62 28.7-16.19 53.9-23.84c0 0 3.55-2.06 1.69-6.89S399 37.85 394.19 35.7 337.17 44 338.06 47.28z"/><path class="cls-3" d="M409.36 32.19c.05 4.11 46.51 68.91 48.95 70.67s40 3.49 65.83 8.57 25.55-.22 25.3-1.41S480 41.88 467.9 33.72 409.36 32.19 409.36 32.19z"/><path class="cls-3" d="M472.5 22.41c.71 5.22 86.84 85.64 93.29 88.8s56-22.77 56-22.77c1.36-5.45-104.13-57.51-118.63-63.5S472.5 22.41 472.5 22.41z"/><path class="cls-3" d="M283.9 49.08c1.21-6.45 49.45-23.73 53.35-24.38s8.41-.14 9.85 2.3 5.65 10.17 4.36 11-4.33 2-34.92 7.47S283.9 49.08 283.9 49.08z"/><path class="cls-3" d="M357.79 35.63c-1.81-.44-5-11-5-11s-.57-2.66 5.52-4.46 40.39-6.79 43.82-6.84a6.76 6.76.0 0 1 5.16 2.07s6 10.27 5.37 11.79S362.3 36.74 357.79 35.63z"/><path class="cls-3" d="M419.57 27.17c-1.29-.88-9.22-11.57-6.86-13.45s52.09-2.89 57.82-.53 3.06 5.28 3.06 5.28L420.23 27z"/><path class="cls-5" d="M277 62.18c-1.79 2.41-29.45 51.9-29.45 51.9l51.37-52.56L286.74 88.25l32.17-35s-6-1.06-20.26 2L280.9 59A19.9 19.9.0 0 0 277 62.18z"/><path class="cls-5" d="M343.19 49.68l28 65.41s-16.66-68.57-17.62-69.41S343.19 49.68 343.19 49.68z"/><path class="cls-5" d="M366.32 80.53s-8.21-34.95-8.29-36 24.66-5.27 24.66-5.27l-10 8.47.15-4.2s-6.28 5.51-6.69 7.09S366.32 80.53 366.32 80.53z"/><path class="cls-5" d="M451.46 87.65s-36.56-50.93-37-52.84 38.29-1.69 38.29-1.69L439 41.67l1-6.92-9.76.3z"/><path class="cls-5" d="M562.92 99.74s-75.54-70-77.71-71.76a51.32 51.32.0 0 1-4.82-4.78s15-.75 22.05 3.79l25.42 16.47-31.35-17z"/><path class="cls-5" d="M521.6 46.25l14 16.69s-3.8-10.48-5.26-12.07S521.6 46.25 521.6 46.25z"/><path class="cls-5" d="M535.77 56.42s3.7 11.55 4.31 12.29 14.5 15.55 14.5 15.55S540.53 61.1 538.53 59A13.63 13.63.0 0 0 535.77 56.42z"/><path class="cls-6" d="M402.38 117.37c12.46-7.88 32.29-12.71 33.93-14.11s-17.67-33.18-17.67-33.18 1.21 14.12 2.49 17.31 3.3 15.43 3.3 15.43-8.46-2.66-9.88-2.36S402.38 117.37 402.38 117.37z"/><path class="cls-6" d="M280.24 122.11c20-4.09 38.9-2.91 48.49-2s17.34 1.66 18.2 1.47S340 97 336.25 87.68l-3.78-9.33L332 102s-3.45 13.86-5.54 13.86-7.12-2.65-9.59-3-18.33 4.81-18.33 4.81z"/><path class="cls-6" d="M495.62 63.47s46.22 45.42 45.65 45.54-26.84-4.25-28.61-4.17-3.12-16.7-3.12-16.7l10.84 7.15z"/><path class="cls-6" d="M565 57.44s50.41 28.73 51.36 29.72-19.57 11.63-25.92 13.29-13 2.77-13 2.77-.56-12.4 4.67-12.33 15.37 1.47 15.37 1.47z"/><path class="cls-4" d="M145.21 263s-12.8-13-.38-27.76 28-6.77 28-6.77 15.39 18.54 2.29 31.77C158.65 276.91 145.21 263 145.21 263z"/><path class="cls-7" d="M165.2 262.05c-12.28 7.39-20 .95-20 .95s-4.61-10.17 4.81-20.72a17.46 17.46.0 0 1 20.87-4.56S178.38 254.13 165.2 262.05z"/><path class="cls-7" d="M145.21 263s-4.28-12.08 4.86-25.54S175.13 229 175.13 229s-.44 7.1-4.24 8.74-11.37 2-16.22 7.26S145.21 263 145.21 263z"/><path class="cls-8" d="M149.52 256.58a5 5 0 0 0 6.54-2.17c3-5.08-2.5-8.09-2.5-8.09S149.88 248.23 149.52 256.58z"/><path class="cls-9" d="M134.21 243.38c-1.07-.35-7.85 8.53-6.93 10s6.25 3.15 7.92 1S134.21 243.38 134.21 243.38z"/><path class="cls-9" d="M108.91 235.33c-3.36 1-18.09 26.21-19.93 31.52s24.34 14.91 27.74 12.69 4-26 1.91-32.87S108.91 235.33 108.91 235.33z"/><path class="cls-9" d="M91.36 280c-2.06 1-.6 5.79 2.42 15.72a155.77 155.77.0 0 0 7.57 19.4s12.73-6 9.31-16.44S91.36 280 91.36 280z"/><path class="cls-9" d="M109.81 285.38c-.22 1.94 7.44 13.41 8.73 13.88s9.41-6.88 8.23-9.63S109.81 285.38 109.81 285.38z"/><path class="cls-9" d="M116 227.27c-.41-1.25 12.41-11.44 18.7-13.82s18.55-4.26 19.85-3-5.77 17.62-6.59 17.94-6.2.58-16.33 2.15a55.33 55.33.0 0 1-17.41.14z"/><path class="cls-9" d="M118.57 235.25c-.79 1.17 1.81 8.47 3.21 8s6.59-5.43 5.46-6.52S118.57 235.25 118.57 235.25z"/><path class="cls-9" d="M164.16 203.42c-3.25 2-8.61 16-6.89 16.37s20.71 1.39 25-.87 10.7-18.22 4.8-22.18S164.16 203.42 164.16 203.42z"/><path class="cls-9" d="M235.49 182.23c-5.9-8.13-28.33.54-34.27 3.44a15.72 15.72.0 0 0-8.36 13.86c.17 4.28 20.26 9.07 29.63 6.18S235.49 182.23 235.49 182.23z"/><path class="cls-9" d="M259.45 166.09c-3.27 1.44-15.49 10.46-16.13 12.68s29.76 9.28 41.56 5.27 27-27.27 27-27.27-8.31.34-19.58 1.33S259.45 166.09 259.45 166.09z"/><path class="cls-9" d="M242 188.19c-2.56 2-7.11 16.21-6.28 18.72s15.45 1.91 19.78.54 18-7.26 18-7.26-10.06-4.86-14.16-6.81S242 188.19 242 188.19z"/><path class="cls-9" d="M195.52 212.07c-3.53 1.49-8.21 17.22-8.21 17.22s11.76 3.47 15.16 3.34 9.09-3.44 9.09-3.44.53-12.17-3.33-15.59S195.52 212.07 195.52 212.07z"/><path class="cls-9" d="M215.72 214.5 217 225.67s3.47.46 4.94-1.06 2.73-6 2.73-6z"/><path class="cls-9" d="M314.82 162.75c-3.51 1-4.81 7.28-4.81 7.28s11.51 2.12 17.42.52a15.89 15.89.0 0 0 8.57-5.4S322.93 160.46 314.82 162.75z"/><path class="cls-7" d="M143.16 331.31s14.22-21.63 17.82-25.22 24.73-12.24 25.46-11.28-.54 3.35-1.51 4.06S166.24 308 164 309.1s-14.91 20.84-14.91 20.84z"/><path class="cls-7" d="M127.69 309c-.61-.76 1.05-9.73 3.4-12.35s3.49-2 3.49-2A21.09 21.09.0 0 0 132 3e2c-.75 2.74 3 2 1.48 6.9S127.69 309 127.69 309z"/><path class="cls-4" d="M252.74 254c-1.45 9 37.61 14.24 106.21 13s161.68-43.53 183.3-53.82 63.53-57.37 62-60.2-6.58-2.49-6.58-2.49-31.29 16-96.67 33.14-97.19 9.61-118.71 10.64S329.26 212.46 317 224.79 253.86 247.17 252.74 254z"/><path class="cls-10" d="M367.88 2e2c-16.42 5.58-23 13.47-44.54 29.07a527 527 0 0 1-47.67 30.17c.21-.23 43.48 12 113.62 2.21s137.38-44.11 137.38-44.11L466 205.94s3 3.24 5.21 3.8 34.89 9.38 34.89 9.38-16.8-1.07-19.49-1.53-50.19-19.22-50.19-19.22-17.58 1.33-21.24 2.37S395 254 395 254s8.77-51.07 7.36-52.84S367.88 2e2 367.88 2e2z"/><path class="cls-11" d="M183.06 192.07c-42.55 14.74-97.79 27.11-96.35 84.75.33 13.52 7.81 56.25 26.17 56.56l24.45 6.08 17.45-8.53s19.86 4.92 47.46-27.21L252.74 254S276.15 275.86 382.27 266c0 0 96.57-15.62 160-52.72"/><path class="cls-3" d="M212.92 152.56c-12 7.21-21.72 16.76-26.21 29.44-4.63 13.1 3.55 12.73 6.44 12.11S223.7 171 284.27 159.44s79.76 18.5 108.16 13.85c24.74-4 31.05-37.6 102.67-28.87 27.54 3.35 37.09 14.63 90.75-3.45s67.2-41 66.3-45.26-11-9.2-15-9.73a14.82 14.82.0 0 0-7.73 1.4S613 101.6 570.85 115.83s-57.86-3.77-96.29-3.65c-57.48.18-78.47 29.51-90.59 29.86-9.94.29-44.31-19.26-108.8-9.35C256.77 135.52 232 141.08 212.92 152.56z"/><path class="cls-11" d="M190.87 195.36S299 140.62 352.41 164.55c0 0 41.37 24.13 61.35-1.09.0.0 23.65-20.08 52.49-19.56"/><path class="cls-11" d="M555.94 121.64c-7 2-32.66-1-32.66-1C453.09 97.42 402 134.69 402 134.69c-16.73 11.59-38.06 4.42-38.06 4.42-53.4-23.93-130.87 4.35-130.87 4.35s-59.48 23.25-46 53.28"/><g class="hand-right"><path class="cls-1" d="M416.09 187.39c12.15-5.83 72.43 33.81 157.35 23.92S729 122.46 751.19 88.54s23.25-45.73 23.25-45.73-59.21-4.13-82.9 8.74S558.82 123.2 519.57 135s-53.32 8.89-53.32 8.89-3.49-1.72-41.06 23.43C406.62 179.77 406.85 191.82 416.09 187.39z"/><path class="cls-9" d="M433.74 183.62c.35 5.63 27.08 16 32.5 16.29s45.39 11.82 61.3 9.65 6.06-20 .89-22.87S481.94 177.79 459 172C439.63 167.1 433.59 181.11 433.74 183.62z"/><path class="cls-9" d="M548.07 193.71c-.36 7 8.55 14.48 19.06 14.29s33.82-5.77 57.22-17.28 13.35-25.95 6.76-28.69-38 3.39-61.6 13.79S548.07 193.71 548.07 193.71z"/><path class="cls-9" d="M648.37 150.28c-.47 1-1.22 18.1 2.59 21.62s10.84-1.15 10.84-1.15a176.74 176.74.0 0 0 20-14.9c11.5-9.74 10.6-15.06 9.28-18.86s-13.84-7.53-20.51-6S650 146.87 648.37 150.28z"/><path class="cls-9" d="M697.53 127.28c1.54 3.65 7.86 5 13.22.89s14.66-14.07 19.46-19.94 7.61-13 5.43-14.79-11.37-2.55-18.21.0-17.38 13.35-19.68 16.65S696 123.66 697.53 127.28z"/><path class="cls-9" d="M474.5 167c-.66 1.08 6.07 8.42 11.13 10.7s22.89 1.09 26-.49 1.31-12.46-5.78-16.27S475.87 164.69 474.5 167z"/><path class="cls-9" d="M522.71 175.61c.62 1.43 13.38 8.54 17.64 8.42s24.33-13.95 23.28-19.32-16.84-6.18-23.06-5.22S520.25 169.94 522.71 175.61z"/><path class="cls-9" d="M576.9 160.28c2.33 2.3 9.86 3.75 18.93 1.49s18.26-22.12 17.93-23.79-21.74-2.56-26.3-.81S570.24 153.69 576.9 160.28z"/><path class="cls-9" d="M619.15 151.48c1.18 2.69 10.27 3.14 12.42 2.1s8.95-13.92 4.42-17.45-8.37-3-9.78-2.31S617.43 147.58 619.15 151.48z"/><path class="cls-9" d="M645.68 142.5c-1.11.22-6.47-9.36-5.48-13.23s16.14-18.23 23.35-18.38 11.91 8 10.82 9.38-7.17 7.78-17.28 15.84S645.68 142.5 645.68 142.5z"/><path class="cls-9" d="M679.7 117.39c3 2.21 7.92 1 9.11-.34s5.41-11.88.63-15.58-9.11-.63-11 .52S675.4 114.17 679.7 117.39z"/><path class="cls-9" d="M705.29 92.59c2.44.18 18.08-3.85 20.46-5s3.57-16.83-4.2-18-15.87 14.7-17.55 17S705.29 92.59 705.29 92.59z"/><path class="cls-9" d="M696.39 92.09c-1.49-.19-2.38 8.1-2.32 8.86s6.46 1.44 7.3.79 2.83-5.77.07-8S696.39 92.09 696.39 92.09z"/><path class="cls-9" d="M748.92 69.25c-4-1.93-12 5.26-13 7.48s.07 8.77 1.53 10.08 5.56-.46 8.23-3.59S749.78 69.67 748.92 69.25z"/><path class="cls-11" d="M466.25 143.9l9.15.35c43.06 3.13 93.65-27.8 130.54-46.38C650.53 75.42 692.56 42 743.39 41.37c2.19.0 30.65 2.33 31.05 1.44-60.35 135.54-159.93 157.6-159.93 157.6C523.32 235.1 417 181.16 417 181.16"/></g><path class="cls-11" d="M221.16 144.84l35.77-65.62S270.57 30.63 362 18.81c0 0 105.29-17 147.43 3.37L623.85 83.62"/><path class="cls-11" d="M137.33 339.46 161 306.09s24.84-8.9 31.92-20.57"/></svg>