<svg xmlns="http://www.w3.org/2000/svg" viewBox="0 0 406.5 258.79"><defs><style>.cls-1{fill:#5596ca;opacity:.4}</style></defs><title>skills-fishs</title><g id="圖層_2" data-name="圖層 2"><g id="技能"><path class="cls-1" d="M325 208.82c.61-.49 1.28-.91 1.88-1.4 1.54-1.25 3.11-2.45 4.67-3.71 1.25-1 2.78-2 3.52-3.53 1.66-3.42-3.26-7.65-5.49-9.56-1.78-1.52-3.08-2.16-5.55-1.81-1.49.19-4 1.27-4.67 2.77-.25-.81 1-2.07 1.56-2.58a10.69 10.69.0 0 1 3.13-1.7c3-1.16 6-.35 8.69 1 4.11 2 7.6 4.63 11.74 6.62.19.1.4.17.59.27.79-.23 1.65-.56 2.24-.79 1.51-.61 3-1.25 4.47-1.89a45.61 45.61.0 0 1 14.5-3.5 35.61 35.61.0 0 1 9.34-.1c1.46.24 2.92.37 4.38.53.7.09 2.66.05 3.06.77a26.61 26.61.0 0 1 5 .86 27.3 27.3.0 0 1 9.62 5.35 42.05 42.05.0 0 1 8 7.63c.36.47.8.87.74 1.5s-.6.78-.75 1.24.12.76-.14 1.25c-.41.74-1.43 1.15-2.07 1.67a18.82 18.82.0 0 1-8.56 3.72 67.16 67.16.0 0 1-12.09.9 38.83 38.83.0 0 1-5.6-.13c-1.95-.29-3.88-.83-5.79-1.15a34.72 34.72.0 0 1-4.65-1.15l-.36.11a29.08 29.08.0 0 1-5.8.83 47.44 47.44.0 0 1-7.05-.25 26.54 26.54.0 0 1-6.49-1.32c-.5-.2-2.23-.77-1.88-1.57s1.87.0 2.43-.18c1.27-.35.36-.73.34-1.6a1.83 1.83.0 0 1 1.06-1.53 3.62 3.62.0 0 1 1.31-.47 18 18 0 0 0-10 .16c-4.05 1.38-7.47 4.19-11.84 4.74a37.34 37.34.0 0 1-7.65.59A31.47 31.47.0 0 0 325 208.82zm-68.91-31.36a37.9 37.9.0 0 0 7.64-.59c4.37-.55 7.8-3.37 11.85-4.74a18 18 0 0 1 10-.17 3.94 3.94.0 0 0-1.32.47 1.89 1.89.0 0 0-1.06 1.53c0 .87.93 1.26-.33 1.6-.56.15-2.11-.6-2.44.18s1.39 1.37 1.88 1.57a27.13 27.13.0 0 0 6.49 1.33 49 49 0 0 0 7.06.24 29.27 29.27.0 0 0 5.8-.82L302 178a35.08 35.08.0 0 0 4.65 1.14c1.92.33 3.84.86 5.79 1.15a36.29 36.29.0 0 0 5.61.13 67 67 0 0 0 12.08-.89 18.74 18.74.0 0 0 8.56-3.73c.65-.51 1.66-.92 2.07-1.67.27-.49.0-.86.14-1.24s.7-.66.75-1.25-.38-1-.74-1.5c-2.18-3-5.14-5.32-8-7.62a27.36 27.36.0 0 0-9.63-5.35 26.09 26.09.0 0 0-5-.87c-.4-.71-2.36-.67-3.05-.76-1.46-.16-2.93-.29-4.39-.53-3.23-.55-6.12-.19-9.34.1A45.27 45.27.0 0 0 287 158.55c-1.49.64-3 1.29-4.48 1.9-.58.23-1.45.56-2.23.78l-.6-.26c-4.13-2-7.62-4.61-11.73-6.62-2.73-1.36-5.74-2.18-8.7-1a10.82 10.82.0 0 0-3.13 1.7c-.54.51-1.8 1.78-1.56 2.58.67-1.49 3.18-2.58 4.68-2.77 2.47-.34 3.76.29 5.54 1.81 2.23 1.92 7.16 6.14 5.5 9.56-.74 1.51-2.27 2.51-3.52 3.53-1.56 1.26-3.13 2.47-4.67 3.71-.61.5-1.27.92-1.88 1.41A34.07 34.07.0 0 1 256.11 177.46zm-21 51a36.65 36.65.0 0 0 7.65-.59c4.37-.54 7.79-3.36 11.85-4.73a18 18 0 0 1 10-.17 3.7 3.7.0 0 0-1.31.48 1.81 1.81.0 0 0-1.06 1.52c0 .87.93 1.26-.34 1.6-.56.15-2.1-.6-2.43.18s1.39 1.37 1.87 1.57a26.81 26.81.0 0 0 6.5 1.32 46.17 46.17.0 0 0 7.06.25 30 30 0 0 0 5.8-.82L281 229a36.29 36.29.0 0 0 4.65 1.14c1.91.32 3.84.86 5.79 1.15a36.16 36.16.0 0 0 5.6.13 67.22 67.22.0 0 0 12.09-.89 18.78 18.78.0 0 0 8.56-3.73c.64-.51 1.66-.92 2.07-1.67.26-.49.0-.86.14-1.24s.69-.67.75-1.25-.38-1-.74-1.51c-2.18-3-5.14-5.31-8-7.61a27.12 27.12.0 0 0-9.63-5.35 25.86 25.86.0 0 0-5-.87c-.4-.71-2.36-.67-3.06-.77-1.46-.16-2.92-.28-4.38-.53a35.62 35.62.0 0 0-9.34.1 45.67 45.67.0 0 0-14.5 3.5c-1.49.64-3 1.28-4.47 1.9-.59.22-1.45.56-2.24.78-.19-.09-.4-.17-.59-.27-4.14-2-7.63-4.6-11.74-6.62-2.72-1.35-5.73-2.17-8.7-1a10.77 10.77.0 0 0-3.12 1.7c-.55.51-1.8 1.77-1.57 2.58.68-1.5 3.18-2.58 4.68-2.77 2.48-.34 3.77.29 5.55 1.81 2.23 1.91 7.16 6.14 5.49 9.56-.73 1.51-2.27 2.51-3.52 3.53-1.56 1.26-3.13 2.46-4.66 3.71-.61.5-1.28.92-1.88 1.41A32.18 32.18.0 0 1 235.12 228.5zm-84.18-45.72a37.1 37.1.0 0 0 7.61.81c4.4.25 8.28-1.9 12.52-2.52a18.1 18.1.0 0 1 9.86 1.65 3.66 3.66.0 0 0-1.39.23 1.82 1.82.0 0 0-1.31 1.3c-.13.86.68 1.41-.63 1.52-.57.0-1.95-1-2.42-.27s1.11 1.6 1.57 1.88a26.46 26.46.0 0 0 6.14 2.49 47.26 47.26.0 0 0 6.89 1.51 29.44 29.44.0 0 0 5.86.24c.12.0.25.0.37.0a35.93 35.93.0 0 0 4.36 2c1.82.66 3.61 1.54 5.48 2.17a37.34 37.34.0 0 0 5.5 1.15 66.42 66.42.0 0 0 12 1.31 18.71 18.71.0 0 0 9.1-2.13c.71-.38 1.79-.6 2.33-1.26.36-.43.16-.85.37-1.2s.79-.52 1-1.09-.19-1.07-.46-1.6c-1.6-3.34-4.1-6.17-6.49-9a27.22 27.22.0 0 0-8.5-7 26.91 26.91.0 0 0-4.8-1.76c-.27-.78-2.2-1.09-2.87-1.31-1.4-.42-2.82-.81-4.21-1.31-3.08-1.12-6-1.29-9.2-1.6a45.76 45.76.0 0 0-14.9.82c-1.58.36-3.14.73-4.73 1.06-.63.12-1.53.29-2.35.36-.18-.12-.37-.24-.53-.37-3.71-2.71-6.67-5.91-10.35-8.63-2.44-1.83-5.24-3.17-8.37-2.58a11.17 11.17.0 0 0-3.38 1.1c-.63.42-2.09 1.43-2 2.27.92-1.35 3.59-2 5.1-1.87 2.48.1 3.65 1 5.12 2.78 1.85 2.28 5.94 7.33 3.67 10.39-1 1.35-2.68 2.06-4.11 2.83-1.75 1-3.52 1.86-5.24 2.81-.69.38-1.43.67-2.11 1A31.81 31.81.0 0 1 150.94 182.78zm19.42 51.38a26.85 26.85.0 0 0 5.19 1.31c3 .61 5.91-.49 8.89-.5a12.64 12.64.0 0 1 6.64 2.12 2.64 2.64.0 0 0-1 0 1.25 1.25.0 0 0-1 .78c-.18.57.33 1-.59 1-.39.0-1.25-.86-1.64-.41s.61 1.22.9 1.45a18.69 18.69.0 0 0 4 2.33 37.57 37.57.0 0 0 4.61 1.73 20.07 20.07.0 0 0 4 .74 1 1 0 0 0 .25.0 25.62 25.62.0 0 0 2.83 1.8c1.19.64 2.35 1.42 3.57 2.05a25.67 25.67.0 0 0 3.68 1.33 46.54 46.54.0 0 0 8.18 2.1 13.05 13.05.0 0 0 6.5-.56 5.28 5.28.0 0 0 1.74-.64c.28-.27.2-.57.36-.8s.61-.27.78-.66.0-.76-.15-1.14a29 29 0 0 0-3.61-6.83 18.74 18.74.0 0 0-5.17-5.68 18.34 18.34.0 0 0-3.14-1.69c-.1-.57-1.41-1-1.84-1.2-.93-.43-1.88-.84-2.78-1.31a24.07 24.07.0 0 0-6.2-2 31.78 31.78.0 0 0-10.37-.92c-1.13.1-2.25.2-3.37.27-.45.0-1.09.0-1.67.0l-.32-.31c-2.29-2.24-4-4.74-6.28-7-1.51-1.49-3.32-2.7-5.53-2.6a7.6 7.6.0 0 0-2.45.42c-.48.22-1.59.77-1.6 1.36.77-.83 2.67-1 3.7-.79a4.27 4.27.0 0 1 3.26 2.44c1.06 1.75 3.37 5.65 1.5 7.54a8 8 0 0 1-3.12 1.55c-1.3.48-2.61.92-3.89 1.42-.52.19-1.06.32-1.56.51A24.38 24.38.0 0 1 170.36 234.16zm80.7 24.63a18.8 18.8.0 0 0 3.71-.86c2.1-.56 3.58-2.18 5.47-3.15a8.9 8.9.0 0 1 4.88-.8 1.92 1.92.0 0 0-.61.33.88.88.0 0 0-.4.82c.08.42.53.55-.06.82-.27.09-1.07-.15-1.18.25s.77.59 1 .64a13.23 13.23.0 0 0 3.27.19 25.35 25.35.0 0 0 3.49-.39 13.45 13.45.0 0 0 2.78-.82.53.53.0 0 0 .17-.08A15.11 15.11.0 0 0 276 256c.95.0 1.93.16 2.91.16a21 21 0 0 0 2.76-.34 34.22 34.22.0 0 0 5.86-1.29 9.6 9.6.0 0 0 3.94-2.44c.28-.31.74-.59.9-1s-.06-.43.0-.62.31-.36.29-.67-.27-.47-.46-.68a21.26 21.26.0 0 0-4.48-3.17 13.67 13.67.0 0 0-5.12-1.93 12.62 12.62.0 0 0-2.53-.07c-.24-.32-1.2-.17-1.55-.17-.73.0-1.45.08-2.18.07a17.31 17.31.0 0 0-4.59.71 23.14 23.14.0 0 0-6.86 2.74l-2.05 1.27c-.27.14-.68.37-1.05.54l-.3-.1c-2.18-.68-4.07-1.72-6.23-2.4a5.36 5.36.0 0 0-4.35.12 5.3 5.3.0 0 0-1.4 1.05c-.24.3-.76 1-.59 1.39a3.35 3.35.0 0 1 2.09-1.7 3.06 3.06.0 0 1 2.86.5c1.23.77 3.95 2.5 3.38 4.29a5.78 5.78.0 0 1-1.49 2c-.67.73-1.36 1.43-2 2.16-.26.29-.56.54-.81.82A19.15 19.15.0 0 1 251.06 258.79zM122 133a18.83 18.83.0 0 0 3.77.54c2.16.23 4.14-.76 6.24-1a8.9 8.9.0 0 1 4.85 1 2.26 2.26.0 0 0-.68.08.91.91.0 0 0-.68.63c-.07.42.31.71-.35.74-.28.0-.94-.52-1.19-.18s.51.82.74 1a13.75 13.75.0 0 0 3 1.37 27.64 27.64.0 0 0 3.39.88 14.61 14.61.0 0 0 2.88.24 1 1 0 0 0 .19.0 16.82 16.82.0 0 0 2.12 1.07c.89.37 1.77.84 2.67 1.19a20.38 20.38.0 0 0 2.69.68 34.35 34.35.0 0 0 6 .9 9.47 9.47.0 0 0 4.55-.86 4.3 4.3.0 0 0 1.19-.6c.17-.21.1-.41.19-.58s.42-.23.52-.52-.08-.53-.19-.8a21.26 21.26.0 0 0-3-4.57 13.45 13.45.0 0 0-4.09-3.64 11.62 11.62.0 0 0-2.33-1c-.11-.38-1.06-.58-1.38-.71-.69-.23-1.39-.44-2.06-.73a17.38 17.38.0 0 0-4.54-1 22.91 22.91.0 0 0-7.39.09c-.78.17-1.57.31-2.37.46-.3.0-.76.09-1.18.12a2.29 2.29.0 0 0-.23-.21c-1.8-1.42-3.19-3.06-5-4.47a5.29 5.29.0 0 0-4.09-1.46 5.53 5.53.0 0 0-1.69.47c-.34.2-1.08.68-1.06 1.09a3.29 3.29.0 0 1 2.57-.82 3 3 0 0 1 2.49 1.48c.88 1.17 2.77 3.76 1.61 5.23a6 6 0 0 1-2.1 1.31c-.89.45-1.79.84-2.67 1.27-.35.19-.71.32-1 .48A16.85 16.85.0 0 1 122 133zm-75.7-1.21a18 18 0 0 0 3.4 1.7c2 .9 4.18.58 6.24 1A8.85 8.85.0 0 1 60.23 137a1.91 1.91.0 0 0-.68-.13.86.86.0 0 0-.83.38c-.2.37.08.77-.57.58-.26-.08-.73-.78-1.07-.54s.23.95.41 1.14a12.82 12.82.0 0 0 2.41 2.24 26.31 26.31.0 0 0 2.93 1.91 15.6 15.6.0 0 0 2.67 1.13.62.62.0 0 0 .18.0 16.75 16.75.0 0 0 1.68 1.69c.73.63 1.41 1.34 2.16 2a18.92 18.92.0 0 0 2.35 1.49 34.21 34.21.0 0 0 5.36 2.73 9.73 9.73.0 0 0 4.59.61 4.38 4.38.0 0 0 1.31-.2c.23-.15.24-.36.38-.49s.46-.09.64-.34.1-.53.07-.82a21.62 21.62.0 0 0-1.45-5.29A13.37 13.37.0 0 0 80 140.34a11.9 11.9.0 0 0-1.9-1.66c0-.4-.83-.88-1.1-1.11-.58-.45-1.17-.85-1.73-1.34a16.81 16.81.0 0 0-4-2.35 22.52 22.52.0 0 0-7-2.24c-.79-.08-1.57-.19-2.37-.31-.31-.07-.77-.15-1.17-.26.0-.08-.1-.18-.15-.26-1.27-1.91-2.07-3.91-3.31-5.81a5.29 5.29.0 0 0-3.43-2.66 5.46 5.46.0 0 0-1.76-.08c-.37.08-1.22.3-1.33.69a3.36 3.36.0 0 1 2.69.0 3 3 0 0 1 1.9 2.19c.47 1.39 1.46 4.44-.11 5.47a5.88 5.88.0 0 1-2.4.58c-1 .15-2 .25-2.93.38-.4.07-.79.08-1.16.12A15 15 0 0 1 46.31 131.78zm57.85 91.82a19.37 19.37.0 0 0 3.41 1.7c2 .9 4.18.57 6.23 1a8.94 8.94.0 0 1 4.29 2.47 1.91 1.91.0 0 0-.68-.13.87.87.0 0 0-.83.38c-.2.38.07.77-.57.59-.27-.09-.73-.79-1.07-.54s.23 1 .4 1.14a13.49 13.49.0 0 0 2.41 2.24 26.37 26.37.0 0 0 2.94 1.9 14.55 14.55.0 0 0 2.67 1.13c.06.0.13.0.18.0a15.58 15.58.0 0 0 1.67 1.68c.74.64 1.42 1.35 2.17 2a20.93 20.93.0 0 0 2.34 1.49 35.14 35.14.0 0 0 5.37 2.72 9.6 9.6.0 0 0 4.59.61 4.37 4.37.0 0 0 1.31-.19c.23-.16.24-.37.37-.5s.47-.08.65-.33.09-.53.07-.83a21.43 21.43.0 0 0-1.45-5.28 13.65 13.65.0 0 0-2.74-4.74 12.57 12.57.0 0 0-1.91-1.66c0-.39-.82-.88-1.09-1.11-.58-.44-1.18-.85-1.73-1.33a17.19 17.19.0 0 0-4-2.36 22.85 22.85.0 0 0-7-2.23c-.79-.09-1.58-.2-2.37-.31-.32-.08-.77-.16-1.17-.26.0-.08-.11-.18-.16-.27-1.26-1.9-2.06-3.91-3.3-5.8a5.31 5.31.0 0 0-3.43-2.66 5.76 5.76.0 0 0-1.76-.09c-.38.09-1.22.3-1.33.7a3.29 3.29.0 0 1 2.68.0 3 3 0 0 1 1.91 2.19c.47 1.39 1.46 4.43-.11 5.47a5.73 5.73.0 0 1-2.41.57c-1 .15-2 .25-2.93.39-.39.07-.78.07-1.15.12A16.47 16.47.0 0 1 104.16 223.6zM60.81 71.79A13.72 13.72.0 0 0 63.33 73c1.46.67 3.07.43 4.59.77a6.59 6.59.0 0 1 3.16 1.82 1.35 1.35.0 0 0-.5-.09.64.64.0 0 0-.61.29c-.15.27.0.55-.42.41-.2.0-.54-.57-.8-.39s.18.71.31.84a9 9 0 0 0 1.78 1.65A18.64 18.64.0 0 0 73 79.74a12 12 0 0 0 2 .83c.05.0.1.0.13.0a12.1 12.1.0 0 0 1.24 1.24c.55.47 1 1 1.6 1.44a12.28 12.28.0 0 0 1.73 1.1 23.3 23.3.0 0 0 4 2 7.24 7.24.0 0 0 3.38.45 3.12 3.12.0 0 0 1-.14c.17-.11.18-.27.27-.36s.35-.07.48-.26.07-.39.05-.61a15.49 15.49.0 0 0-1.07-3.89 9.8 9.8.0 0 0-2-3.49 9.14 9.14.0 0 0-1.4-1.23c0-.28-.61-.64-.81-.81-.42-.32-.86-.62-1.27-1a12.72 12.72.0 0 0-2.94-1.74 16.69 16.69.0 0 0-5.2-1.64l-1.76-.23c-.22-.06-.56-.12-.85-.2l-.13-.19c-.92-1.41-1.52-2.88-2.43-4.28a3.85 3.85.0 0 0-2.53-2 3.93 3.93.0 0 0-1.28-.07c-.29.07-.91.23-1 .51a2.48 2.48.0 0 1 2 0 2.22 2.22.0 0 1 1.41 1.62c.34 1 1.07 3.26-.08 4a4.21 4.21.0 0 1-1.78.44l-2.15.28c-.29.0-.58.0-.85.08A10.8 10.8.0 0 1 60.81 71.79zM22.2 29.41A14.25 14.25.0 0 0 24.51 31c1.35.89 3 .88 4.43 1.44a6.69 6.69.0 0 1 2.85 2.27 1.24 1.24.0 0 0-.48-.16.65.65.0 0 0-.65.19c-.18.25.0.57-.47.35-.19-.08-.46-.65-.73-.5s.06.72.18.87a9.81 9.81.0 0 0 1.5 1.9 19.76 19.76.0 0 0 1.94 1.71 10.9 10.9.0 0 0 1.81 1.12s.09.0.13.0a9.49 9.49.0 0 0 1 1.41c.47.55.87 1.15 1.36 1.68A13.06 13.06.0 0 0 39 44.68a23.42 23.42.0 0 0 3.61 2.57 7 7 0 0 0 3.28 1 2.88 2.88.0 0 0 1 0c.19-.09.21-.25.32-.32s.35.0.52-.19.12-.36.14-.58a16.3 16.3.0 0 0-.48-4 9.77 9.77.0 0 0-1.48-3.75 9.1 9.1.0 0 0-1.2-1.43c0-.28-.5-.72-.68-.92-.38-.39-.77-.75-1.11-1.17a12.18 12.18.0 0 0-2.66-2.15 16 16 0 0 0-4.9-2.4c-.55-.17-1.12-.32-1.68-.48-.22-.1-.55-.21-.83-.34.0.0.0-.14-.09-.21-.7-1.52-1.07-3.06-1.76-4.58a3.92 3.92.0 0 0-2.21-2.32 4.29 4.29.0 0 0-1.26-.26c-.29.0-.94.09-1.06.36a2.49 2.49.0 0 1 1.95.32 2.22 2.22.0 0 1 1.15 1.8c.19 1.08.57 3.4-.68 4a4.05 4.05.0 0 1-1.83.17h-2.16c-.29.0-.59.0-.85.0A11.37 11.37.0 0 1 22.2 29.41zM95 59a14.9 14.9.0 0 0 2.31 1.61c1.34.89 3 .88 4.43 1.44a6.77 6.77.0 0 1 2.86 2.27 1.36 1.36.0 0 0-.48-.16.63.63.0 0 0-.65.19c-.19.24.0.56-.48.35-.19-.08-.45-.65-.72-.5s0 .72.17.87A10.2 10.2.0 0 0 104 67a19.76 19.76.0 0 0 1.94 1.71 11.7 11.7.0 0 0 1.82 1.12s.09.0.12.0a9.49 9.49.0 0 0 1 1.41c.47.55.87 1.15 1.36 1.68a13.06 13.06.0 0 0 1.55 1.34 24.18 24.18.0 0 0 3.61 2.58 7.15 7.15.0 0 0 3.28.94 2.64 2.64.0 0 0 1 0c.19-.08.22-.24.32-.31s.36.0.52-.19.12-.36.14-.58a15.84 15.84.0 0 0-.48-4A9.7 9.7.0 0 0 118.68 69a9 9 0 0 0-1.19-1.43c0-.28-.51-.73-.69-.92-.37-.39-.76-.75-1.11-1.17A12.07 12.07.0 0 0 113 63.32a16.31 16.31.0 0 0-4.9-2.4c-.56-.17-1.13-.33-1.69-.48-.22-.11-.55-.21-.83-.34.0.0-.05-.14-.08-.21-.71-1.52-1.08-3.06-1.77-4.58A3.87 3.87.0 0 0 101.56 53a4.22 4.22.0 0 0-1.26-.26c-.29.0-.94.09-1.06.36a2.52 2.52.0 0 1 2 .32 2.23 2.23.0 0 1 1.14 1.8c.19 1.07.57 3.4-.68 4a4 4 0 0 1-1.83.16h-2.16c-.29.0-.59.0-.85-.05A10.55 10.55.0 0 1 95 59zM87.41 104.9a15.62 15.62.0 0 0 2.31 1.61c1.34.89 3 .88 4.43 1.44A6.69 6.69.0 0 1 97 110.22a1.36 1.36.0 0 0-.48-.16.66.66.0 0 0-.65.18c-.19.25.0.58-.48.36-.19-.08-.45-.65-.72-.5s.06.72.17.87a9.86 9.86.0 0 0 1.51 1.9 19.65 19.65.0 0 0 1.93 1.71 11 11 0 0 0 1.82 1.12c.05.0.09.0.12.0a9.56 9.56.0 0 0 1 1.41c.46.55.87 1.14 1.36 1.68a12.31 12.31.0 0 0 1.55 1.34 24 24 0 0 0 3.6 2.57 7.11 7.11.0 0 0 3.28 1 2.69 2.69.0 0 0 1 0c.18-.08.21-.24.32-.31s.35.0.51-.19.13-.36.14-.58a15.83 15.83.0 0 0-.47-4 9.93 9.93.0 0 0-1.48-3.75 8.66 8.66.0 0 0-1.2-1.43c0-.28-.51-.72-.68-.92a15.48 15.48.0 0 1-1.11-1.18 12.62 12.62.0 0 0-2.66-2.14 16 16 0 0 0-4.9-2.4c-.56-.17-1.12-.33-1.69-.48-.21-.1-.55-.21-.82-.34a1.46 1.46.0 0 1-.09-.21c-.71-1.52-1.08-3.06-1.76-4.58a3.89 3.89.0 0 0-2.22-2.32 4.16 4.16.0 0 0-1.26-.26c-.29.0-.93.09-1 .35a2.5 2.5.0 0 1 1.95.33 2.24 2.24.0 0 1 1.15 1.8c.19 1.07.56 3.39-.69 4a4 4 0 0 1-1.82.16c-.73.0-1.45.0-2.16.0-.3.0-.6.0-.86.0A10.31 10.31.0 0 1 87.41 104.9zM69.48 45.7a9.17 9.17.0 0 0 1.4 1 12.7 12.7.0 0 0 2.66.86 4 4 0 0 1 1.72 1.37.84.84.0 0 0-.28-.09.39.39.0 0 0-.4.11c-.1.15.0.35-.29.21-.11-.05-.27-.4-.43-.31s0 .44.11.53a5.58 5.58.0 0 0 .9 1.15 10.3 10.3.0 0 0 1.17 1 6.9 6.9.0 0 0 1.09.69c.26.32.47.6.71.88s.52.68.81 1a8.13 8.13.0 0 0 .95.81 13.73 13.73.0 0 0 2.16 1.55 4.39 4.39.0 0 0 2 .57 1.67 1.67.0 0 0 .59.0c.11.0.13-.14.2-.19s.2.0.31-.11.07-.21.08-.35A9.64 9.64.0 0 0 84.63 54a5.9 5.9.0 0 0-.89-2.27 4.91 4.91.0 0 0-.72-.85c0-.19-.31-.44-.41-.56s-.46-.46-.68-.71a7.3 7.3.0 0 0-1.59-1.3 10 10 0 0 0-3-1.44l-1-.3-.51-.19a.5.5.0 0 1 0-.13c-.43-.92-.65-1.85-1.07-2.77a2.33 2.33.0 0 0-2.09-1.55c-.18.0-.56.06-.64.22a1.47 1.47.0 0 1 1.17.19 1.36 1.36.0 0 1 .7 1.09c.11.65.34 2-.41 2.4a2.73 2.73.0 0 1-1.1.09h-1.31a4.06 4.06.0 0 1-.51.0A7.43 7.43.0 0 1 69.48 45.7zM33.93 67.21a10.12 10.12.0 0 0 1.37 1 11.71 11.71.0 0 0 2.63.85 4 4 0 0 1 1.68 1.35.58.58.0 0 0-.27-.09.4.4.0 0 0-.39.11c-.1.15.0.34-.28.21s-.28-.39-.43-.31.0.43.11.53a5.63 5.63.0 0 0 .88 1.13 12.4 12.4.0 0 0 1.15 1 8 8 0 0 0 1.08.66c.26.32.46.59.7.87s.51.67.8 1a8.74 8.74.0 0 0 .93.8A14.68 14.68.0 0 0 46 77.79a4.14 4.14.0 0 0 1.95.56c.18.0.42.08.57.0s.14-.13.2-.18.21.0.31-.11.07-.2.08-.34a8.92 8.92.0 0 0-.29-2.38A5.59 5.59.0 0 0 48 73.11a5.82 5.82.0 0 0-.71-.85c0-.17-.3-.42-.4-.55a7.44 7.44.0 0 1-.67-.7 7.06 7.06.0 0 0-1.57-1.27 9.37 9.37.0 0 0-2.91-1.42c-.33-.11-.67-.2-1-.29l-.49-.2s0-.08.0-.12c-.43-.9-.64-1.83-1.06-2.73a2.27 2.27.0 0 0-1.31-1.37 3.31 3.31.0 0 0-.73-.16c-.19.0-.57.06-.65.22a1.44 1.44.0 0 1 1.16.19 1.35 1.35.0 0 1 .69 1.06c.11.66.33 2-.42 2.37a2.56 2.56.0 0 1-1.07.1h-1.29a2.75 2.75.0 0 1-.5.0C34.6 67.32 34.29 67.25 33.93 67.21zM24.27 3.81a9.12 9.12.0 0 0 1.4 1 11.84 11.84.0 0 0 2.66.87A4.12 4.12.0 0 1 30.05 7a.75.75.0 0 0-.29-.09.39.39.0 0 0-.39.1c-.1.16.0.36-.29.22-.11.0-.27-.4-.43-.31s0 .44.1.53a6.31 6.31.0 0 0 .91 1.15 11.28 11.28.0 0 0 1.16 1 7 7 0 0 0 1.1.69c.26.32.47.6.71.87s.51.69.81 1a8.94 8.94.0 0 0 .94.81 13.36 13.36.0 0 0 2.17 1.55 4.31 4.31.0 0 0 2 .57 1.73 1.73.0 0 0 .6.0c.11.0.12-.14.19-.19s.21.0.31-.11.07-.21.08-.36a9.75 9.75.0 0 0-.28-2.41 5.91 5.91.0 0 0-.89-2.26 5.47 5.47.0 0 0-.72-.86c0-.18-.31-.44-.42-.55s-.45-.46-.67-.71a7.36 7.36.0 0 0-1.6-1.3 9.86 9.86.0 0 0-2.95-1.44l-1-.3-.51-.2a.35.35.0 0 1 0-.12c-.44-.92-.65-1.85-1.07-2.77A2.38 2.38.0 0 0 28.2.16 2.46 2.46.0 0 0 27.45.0c-.18.0-.57.06-.64.22A1.47 1.47.0 0 1 28 .41a1.4 1.4.0 0 1 .7 1.08c.11.66.34 2.05-.42 2.4a2.51 2.51.0 0 1-1.09.1L25.85 4c-.17.0-.35.0-.5.0A7.43 7.43.0 0 1 24.27 3.81zm11.37 84.6a14.17 14.17.0 0 0 2.18 1.48c1.24.84 2.76.83 4.12 1.36a6.14 6.14.0 0 1 2.66 2.12 1.26 1.26.0 0 0-.44-.14.61.61.0 0 0-.61.16c-.16.24.0.54-.45.33-.18-.08-.41-.61-.66-.47s0 .67.16.82A8.6 8.6.0 0 0 44 95.84a18.57 18.57.0 0 0 1.81 1.61 11.37 11.37.0 0 0 1.7 1c.05.0.08.0.1.05a13.1 13.1.0 0 0 1 1.32c.43.49.8 1.06 1.26 1.56a14.49 14.49.0 0 0 1.46 1.26 22.85 22.85.0 0 0 3.36 2.41 6.7 6.7.0 0 0 3.07.87 2.37 2.37.0 0 0 .92.0c.17-.06.19-.21.3-.29s.32.0.48-.16.1-.34.12-.56a14.18 14.18.0 0 0-.44-3.74 9.18 9.18.0 0 0-1.39-3.52 7.4 7.4.0 0 0-1.11-1.32c0-.28-.48-.68-.63-.87-.36-.36-.72-.7-1-1.09a11.38 11.38.0 0 0-2.48-2 15 15 0 0 0-4.59-2.23c-.51-.17-1-.31-1.57-.46-.2-.08-.51-.19-.79-.32a1.08 1.08.0 0 1-.06-.19c-.67-1.43-1-2.87-1.65-4.3a3.77 3.77.0 0 0-2.07-2.15 4.37 4.37.0 0 0-1.17-.25c-.29.0-.89.09-1 .34a2.3 2.3.0 0 1 1.82.3 2.14 2.14.0 0 1 1.08 1.68c.16 1 .53 3.17-.65 3.72a4.19 4.19.0 0 1-1.69.16h-2a6.63 6.63.0 0 1-.79.0A14.69 14.69.0 0 1 35.64 88.41zm74.09 88.07a14 14 0 0 0 2.52.74c1.44.41 2.9-.06 4.35.0a6.23 6.23.0 0 1 3.18 1.22 1.41 1.41.0 0 0-.46.0c-.22.05-.45.12-.53.35s.13.52-.33.45c-.19.0-.58-.45-.77-.25s.24.62.4.73A8.77 8.77.0 0 0 120 181a17.6 17.6.0 0 0 2.22 1 12.06 12.06.0 0 0 1.93.47c.06.0.09.0.12.0a14.75 14.75.0 0 0 1.36.95c.55.33 1.07.77 1.66 1.1s1.18.51 1.78.76a23.55 23.55.0 0 0 3.95 1.25 6.71 6.71.0 0 0 3.18-.1 2.45 2.45.0 0 0 .88-.28c.14-.12.11-.26.19-.37s.3-.11.4-.31.0-.34.0-.55a14.1 14.1.0 0 0-1.58-3.43 8.68 8.68.0 0 0-2.39-2.93 6.77 6.77.0 0 0-1.46-.92c-.06-.28-.67-.5-.87-.64-.44-.23-.9-.44-1.33-.72a12.13 12.13.0 0 0-3-1.16 15.21 15.21.0 0 0-5-.72c-.55.0-1.1.0-1.64.0a7.32 7.32.0 0 1-.86-.06l-.11-.15c-1.07-1.16-1.83-2.43-2.89-3.59a3.7 3.7.0 0 0-2.62-1.42 3.89 3.89.0 0 0-1.19.12c-.28.1-.82.36-.86.62a2.35 2.35.0 0 1 1.83-.27 2.17 2.17.0 0 1 1.54 1.27c.47.92 1.48 2.85.53 3.75a4.42 4.42.0 0 1-1.58.66c-.64.2-1.3.4-1.94.58-.26.1-.53.13-.77.2A14.67 14.67.0 0 1 109.73 176.48zm23.07 29.23a13.75 13.75.0 0 0 2.52.74c1.44.41 2.89-.06 4.34.0a6.38 6.38.0 0 1 3.19 1.22 1.48 1.48.0 0 0-.47.0.6.6.0 0 0-.52.34c-.09.28.12.52-.34.45-.19.0-.58-.46-.77-.25s.25.62.4.73a8.25 8.25.0 0 0 1.88 1.26 16.85 16.85.0 0 0 2.21 1 12.06 12.06.0 0 0 1.93.47c.07.0.09.0.12.0a14.79 14.79.0 0 0 1.36 1c.56.33 1.08.76 1.67 1.09a18.13 18.13.0 0 0 1.77.76 23.55 23.55.0 0 0 3.95 1.25 6.71 6.71.0 0 0 3.18-.1 2.37 2.37.0 0 0 .89-.28c.13-.12.1-.26.18-.37s.3-.11.41-.31.0-.34.0-.55a14 14 0 0 0-1.59-3.43 8.68 8.68.0 0 0-2.39-2.93 6.84 6.84.0 0 0-1.45-.92c-.06-.28-.68-.5-.88-.64-.43-.23-.89-.44-1.32-.72a12.32 12.32.0 0 0-3-1.15 15 15 0 0 0-5.05-.73c-.55.0-1.1.0-1.64.0a5.45 5.45.0 0 1-.85-.06.7.7.0 0 1-.12-.15c-1.06-1.16-1.82-2.43-2.89-3.59a3.68 3.68.0 0 0-2.62-1.42 4.3 4.3.0 0 0-1.19.12c-.28.11-.82.36-.86.63a2.31 2.31.0 0 1 1.83-.27 2.11 2.11.0 0 1 1.54 1.27c.47.92 1.48 2.85.53 3.74a4.37 4.37.0 0 1-1.58.67l-1.94.57a6.13 6.13.0 0 1-.76.2A13.09 13.09.0 0 1 132.8 205.71zM69.8 171a14.11 14.11.0 0 0 2 1.72c1.13 1 2.65 1.15 3.94 1.84A6.31 6.31.0 0 1 78.1 177a2 2 0 0 0-.42-.2.65.65.0 0 0-.62.09c-.2.23-.1.53-.49.28-.16-.11-.34-.66-.6-.56s0 .67.06.84a9.29 9.29.0 0 0 1.17 1.93 18.42 18.42.0 0 0 1.61 1.81 11.39 11.39.0 0 0 1.55 1.24c0 .05.09.0.1.07.25.47.52.94.84 1.43s.65 1.15 1 1.69a14.94 14.94.0 0 0 1.3 1.43 23.77 23.77.0 0 0 3 2.8 6.79 6.79.0 0 0 2.94 1.24 2.35 2.35.0 0 0 .92.11c.17-.05.22-.19.32-.24s.32.0.5-.12.14-.32.2-.53a14.07 14.07.0 0 0 0-3.78 8.85 8.85.0 0 0-.93-3.65 7.44 7.44.0 0 0-1-1.45c.08-.27-.39-.74-.52-.94-.29-.39-.62-.79-.89-1.21A11.87 11.87.0 0 0 86 177a15.14 15.14.0 0 0-4.27-2.77c-.5-.24-1-.44-1.51-.65-.2-.1-.49-.25-.75-.41a1.67 1.67.0 0 1-.05-.19c-.47-1.5-.64-3-1.11-4.47a3.71 3.71.0 0 0-1.79-2.38 4.13 4.13.0 0 0-1.13-.4c-.3.0-.9.0-1 .2a2.39 2.39.0 0 1 1.77.54 2.08 2.08.0 0 1 .86 1.79c0 1 .16 3.21-1.08 3.62a4.48 4.48.0 0 1-1.71-.05l-2-.3a5.88 5.88.0 0 1-.77-.13C70.84 171.31 70.35 171.13 69.8 171zm17.78-38.1a13 13 0 0 0 2 1.73c1.13 1 2.65 1.14 3.94 1.84a6.22 6.22.0 0 1 2.37 2.43 1.48 1.48.0 0 0-.42-.19.6.6.0 0 0-.62.09c-.2.22-.1.52-.49.28-.15-.11-.33-.67-.59-.56s0 .67.06.83A8.61 8.61.0 0 0 95 141.29a19.76 19.76.0 0 0 1.61 1.82 11.63 11.63.0 0 0 1.56 1.24s.08.0.1.07c.24.47.51.93.83 1.43s.65 1.14 1.05 1.69a16.25 16.25.0 0 0 1.3 1.43 22.47 22.47.0 0 0 3.06 2.79 6.58 6.58.0 0 0 2.94 1.24 2.33 2.33.0 0 0 .92.12c.17-.05.21-.2.32-.25s.32.0.49-.12.14-.32.2-.53a14.42 14.42.0 0 0 0-3.77 9 9 0 0 0-.94-3.66 7.71 7.71.0 0 0-1-1.45c.07-.27-.4-.74-.53-.94-.29-.39-.61-.78-.89-1.2a11.64 11.64.0 0 0-2.23-2.31 14.76 14.76.0 0 0-4.27-2.76c-.5-.24-1-.45-1.51-.66-.2-.1-.49-.25-.75-.41.0.0.0-.12.0-.18-.47-1.5-.63-3-1.11-4.48A3.71 3.71.0 0 0 94.33 128a3.91 3.91.0 0 0-1.13-.4c-.29.0-.9.0-1 .21a2.37 2.37.0 0 1 1.77.53 2.11 2.11.0 0 1 .87 1.8c0 1 .15 3.2-1.09 3.61a4.68 4.68.0 0 1-1.71.0c-.66-.11-1.34-.2-2-.3a5.86 5.86.0 0 1-.77-.14A15.18 15.18.0 0 1 87.58 132.91zM0 4.12a7.35 7.35.0 0 0 1.07 1 11.07 11.07.0 0 0 2.15 1A3.48 3.48.0 0 1 4.51 7.39a1.08 1.08.0 0 0-.24-.1.35.35.0 0 0-.33.0c-.1.12.0.3-.26.16s-.19-.36-.33-.3.0.35.0.45a5.18 5.18.0 0 0 .64 1 10 10 0 0 0 .87 1 6.66 6.66.0 0 0 .85.68c.19.29.33.54.5.81s.37.62.58.92a6.65 6.65.0 0 0 .71.78 13.3 13.3.0 0 0 1.66 1.52 3.52 3.52.0 0 0 1.59.67 1.4 1.4.0 0 0 .5.06c.1.0.11-.1.17-.14s.18.0.27-.06.08-.18.11-.27a8 8 0 0 0 0-2.07 5.07 5.07.0 0 0-.52-2 3.54 3.54.0 0 0-.52-.78c0-.15-.21-.4-.29-.51s-.33-.43-.48-.65a6.2 6.2.0 0 0-1.2-1.25A8.11 8.11.0 0 0 6.5 5.88c-.26-.13-.55-.24-.82-.36a2.73 2.73.0 0 1-.4-.22C5 4.39 4.91 3.59 4.65 2.76a2.06 2.06.0 0 0-1-1.29 2 2 0 0 0-.61-.21c-.16.0-.49.0-.57.11a1.27 1.27.0 0 1 1 .29 1.18 1.18.0 0 1 .47 1c0 .56.08 1.73-.59 2a2.71 2.71.0 0 1-.94.0L1.32 4.41A2.45 2.45.0 0 1 .9 4.34 6.23 6.23.0 0 1 0 4.12zM3.6 45.41a16.37 16.37.0 0 0 2.12.92c1.2.51 2.54.25 3.79.46a5.47 5.47.0 0 1 2.63 1.42 1.12 1.12.0 0 0-.41-.07.62.62.0 0 0-.48.23c-.11.25.07.5-.33.38-.18.0-.47-.45-.66-.3s.15.55.29.69a7.23 7.23.0 0 0 1.5 1.28 15 15 0 0 0 1.82 1.08 10.58 10.58.0 0 0 1.63.64c.43.36.79.68 1.18 1s.86.78 1.35 1.13a11.31 11.31.0 0 0 1.46.85 19.89 19.89.0 0 0 3.32 1.51 5.64 5.64.0 0 0 2.77.25 1.91 1.91.0 0 0 .78-.16c.15-.08.15-.2.22-.28s.28-.08.39-.25.0-.31.0-.48a12.72 12.72.0 0 0-1-3.16 7.36 7.36.0 0 0-1.77-2.8 5.71 5.71.0 0 0-1.19-1c0-.25-.52-.53-.7-.65-.34-.25-.7-.49-1-.76a9.54 9.54.0 0 0-2.47-1.33 13.64 13.64.0 0 0-4.34-1.17c-.45-.07-1-.1-1.43-.16a4.64 4.64.0 0 1-.73-.11.48.48.0 0 0-.08-.16c-.79-1.12-1.33-2.3-2.13-3.45a3.32 3.32.0 0 0-2.15-1.5 3.63 3.63.0 0 0-1 0c-.26.07-.77.22-.82.45a2.07 2.07.0 0 1 1.62.0 1.91 1.91.0 0 1 1.22 1.27c.3.85 1 2.64.07 3.32a4.85 4.85.0 0 1-1.47.4c-.55.1-1.16.21-1.74.3a6.59 6.59.0 0 1-.68.1C4.55 45.39 4.09 45.36 3.6 45.41zM48.08 19.82a11.52 11.52.0 0 0 1.16 1.33 13.41 13.41.0 0 0 2.48 1.52 4.13 4.13.0 0 1 1.37 1.81.9.9.0 0 0-.25-.16.5.5.0 0 0-.43.0c-.15.13-.09.35-.34.15s-.18-.45-.36-.41-.07.43.0.56A5.61 5.61.0 0 0 52.31 26a10.62 10.62.0 0 0 .93 1.33 10.5 10.5.0 0 0 .93 1c.18.37.32.71.49 1.05s.35.82.57 1.22A10.26 10.26.0 0 0 56 31.61a15.15 15.15.0 0 0 1.82 2.1 4.37 4.37.0 0 0 1.84 1.07 2 2 0 0 0 .59.15c.14.0.17-.12.25-.15s.21.0.34.0.11-.19.17-.32a9.79 9.79.0 0 0 .3-2.51 5.49 5.49.0 0 0-.34-2.5 3.73 3.73.0 0 0-.51-1c.09-.17-.18-.54-.28-.67-.15-.29-.32-.57-.48-.87a7.9 7.9.0 0 0-1.28-1.7 10.35 10.35.0 0 0-2.64-2.2c-.28-.2-.63-.38-.93-.56a3.1 3.1.0 0 1-.46-.31s0-.1.0-.14c-.2-1-.2-2-.37-3.05a2.42 2.42.0 0 0-1-1.72 1.91 1.91.0 0 0-.71-.36c-.19-.05-.59-.1-.69.05a1.51 1.51.0 0 1 1.12.49 1.41 1.41.0 0 1 .42 1.27c-.05.68-.17 2.14-1 2.31a3.46 3.46.0 0 1-1.15-.18l-1.29-.36a4.39 4.39.0 0 1-.5-.14A8.85 8.85.0 0 1 48.08 19.82zm135.16 138a27.39 27.39.0 0 0 5.59.56c3.21.17 6-1.43 9.14-1.9a13.21 13.21.0 0 1 7.21 1.15 3.51 3.51.0 0 0-1 .17 1.35 1.35.0 0 0-1 1c-.09.63.51 1-.45 1.11-.42.0-1.43-.72-1.77-.18s.83 1.16 1.15 1.36a19.6 19.6.0 0 0 4.5 1.8 34.46 34.46.0 0 0 5.06 1.07 21.07 21.07.0 0 0 4.28.15 1.09 1.09.0 0 0 .26.0 27.41 27.41.0 0 0 3.21 1.43c1.33.47 2.65 1.11 4 1.57a32.89 32.89.0 0 0 4 .81 50.05 50.05.0 0 0 8.82.89 13.59 13.59.0 0 0 6.64-1.59c.53-.29 1.31-.46 1.69-.94.26-.32.12-.63.26-.89s.6-.38.71-.78-.13-.79-.35-1.18a30.18 30.18.0 0 0-4.79-6.52 20.2 20.2.0 0 0-6.24-5.09 19.06 19.06.0 0 0-3.51-1.24c-.19-.57-1.61-.81-2.1-1-1-.3-2.07-.57-3.09-.93a25.29 25.29.0 0 0-6.74-1.12 33.77 33.77.0 0 0-10.89.65c-1.16.28-2.29.55-3.45.8a16.51 16.51.0 0 1-1.71.28l-.4-.25c-2.72-2-4.9-4.3-7.61-6.28-1.79-1.33-3.84-2.3-6.12-1.84a7.82 7.82.0 0 0-2.47.82c-.46.3-1.53 1.05-1.46 1.66.67-1 2.62-1.45 3.72-1.39a4.45 4.45.0 0 1 3.77 2c1.35 1.67 4.36 5.33 2.73 7.58a8.73 8.73.0 0 1-3 2.09c-1.28.7-2.56 1.38-3.83 2.09-.5.26-1 .48-1.54.77A24.08 24.08.0 0 1 183.24 157.83z"/></g></g></svg>