<svg xmlns="http://www.w3.org/2000/svg" viewBox="0 0 1922.02 263.82"><defs><style>.cls-1{fill:#e7bc87}.cls-2{opacity:.67}.cls-11,.cls-3{fill:#dcb180}.cls-4{fill:#ea2e2a}.cls-5{fill:#f17b31}.cls-6{fill:#ffb01f}.cls-7{fill:#fff}.cls-8{fill:#4d3224}.cls-9{fill:#f1ca9e;fill-rule:evenodd}.cls-10{opacity:.63}.cls-11{opacity:.46}.cls-12,.cls-15,.cls-16,.cls-17,.cls-18{fill:none;stroke:#4d3224;stroke-linecap:round;stroke-linejoin:round}.cls-12{stroke-width:1.5px}.cls-13{fill:#b9a4ba}.cls-14{fill:#a78fa9}.cls-15{stroke-width:.83px}.cls-16{stroke-width:1.23px}.cls-17{stroke-width:.9px}.cls-18{stroke-width:1.1px}</style></defs><title>資產 194</title><g id="圖層_2" data-name="圖層 2"><g id="技能"><path class="cls-1" d="M85 23.72c42.19 14.8 62.9 31.22 109.32 34 4.49.28 9.22.42 14.24.43 70.71.06 123.28 26.68 192.41 31.1 59.93 3.83 116.62-20.71 176.64-16.71 53.88 3.59 101.06 28.19 153.66 35.52 83 11.57 177.26-29.4 261-29.33 52.44.0 78.07-11.86 127-20.86 26.29-4.84 48.35 6 74.85 3.66h0c49.89-4.5 75.25-9.79 126.57.19 44.61 8.68 86.26 15.2 131.65 5.14 75.6-16.75 146.1 25.24 223.86 1.6 43.21-13.14 93.08 2.45 137.91-5.18C1824.91 61.49 1922 24.59 1922 28.8V261.87H.75V.21C.75 22.32 69.16 18.18 85 23.72z"/><g class="cls-2"><path class="cls-3" d="M436.39 129.91c-7.23 3.37 9.13 4.73 20.74 4.19 8.95-.42 18.79-1.42 27.94-1.06 10.24.42 14.66 2.51 22.81 3.84 16.18 2.65 22.42.0 24.26-4.38 2.44-5.7 32.18-8.73 30.58-14.15-3.21-10.81-69.49 1.2-52.84-13.35a33 33 0 0 1 2.74-2.11c2.3-1.61 4.24-3.15 6.87-4.72 13.14-7.84-35.16-1.6-43 0-8.61 1.78-16.47 4.49-19 7.35-5 5.63-24.39 8.2-43.63 5.43-9.82-1.41-22.59-5.28-32-1-11.19 5.08 5.58 10.23 24 10.32 9.13.0 27.83-1.85 35.74-.54 7.24 1.2 6.49 3.57 5.24 5.5C445.21 127.77 440.21 128.12 436.39 129.91z"/><path class="cls-3" d="M240.69 81.06c-14.1-1.94-27.75-3.1-32.27-3.9C193.87 74.59 181.07 69.68 167 66c-22.49-5.85-41.38-.42-63.54-4.42C86.47 58.52 70 53.87 53 51c-8.6-1.46-24.65-7-30.5-3.61-6.91 4 24.25 16.29 29.05 18.62 12.75 6.19 10.84 6.3 10.05 15.35-1.33 15.28 26.89 19.39 44.75 14.92 19.43-4.86 25.09-12.12 50.69-8.46 9.08 1.3 24.7 4.16 32.73 8.08 7.43 3.63 10.73 8.88 18.41 12.81 16.38 8.39 22.86 6.81 31.9-.72 3.91-3.25 6.34-7 13-8.41 8-1.69 21.67 2.64 25.33-3.85C282.63 88.32 261.18 83.87 240.69 81.06z"/><path class="cls-3" d="M790.81 126.4c-44.18-.68-84-2.1-106.17 5.31a14.11 14.11.0 0 0-2.11.75c-10 4.86 43.87 3.94 55.56 4 16.92.09 28.31-.37 40 2.22 20.66 4.59 11.75 12.82 46.15 15.23 22.31 1.57 67.22 1.1 68.43-4.93.37-1.85-11.54-4.14-16.81-5.51-.48-.12-1-.24-1.39-.37-13.86-4-11.17-5.83-5.24-10.16C882 123.55 814.38 126.76 790.81 126.4z"/><path class="cls-3" d="M1372.5 118.2c18.87-5.37 48.44-7.07 71.47-10.53 62.68-9.41-57.86-12.32-77.27-16.56-2.84-.62-5.71-1.34-8.64-2.18-15.07-4.33-38-10-62.08-8.26-22.76 1.64-39.26 9.16-65 10.89-14.51 1-33.82-.8-44.41 3.27-8.64 3.32-4.17 8.26-12.17 11.49-24.9 10.05-56.81 5.69-82 16.4-9.46 4-60.33 19.26-64.56 27.13-7.75 14.4 14.32 17.62 29.12 16.72 20.77-1.26 39.8-9.34 60.14-10.84s41.37 2.16 62-.07c13-1.4 21.11-4.77 31.08-7.22a197.1 197.1.0 0 1 37-5.81c20.71-1.3 42 .72 62.95 1 17.61.24 42.37.46 52.74-3.47 11.21-4.24-6.76-8.54-6.85-12.66C1355.9 124.2 1364.67 120.42 1372.5 118.2z"/><path class="cls-3" d="M1908.1 77.37c-60.19.84-263.56 10.12-297.91 19.63-38.92 10.79-87.24 28.69-42.71 46.22 9.67 3.81 23.61 6 39.51 7.28 21.68 1.69 30.72 6.65 55.15 6.88 21.17.2 39.41-.93 62.41.29 32.3 1.72 59.82 3.53 91.42 2 26-1.23 48.68-4.73 75.43-5.33 9.81-.23 19.22.0 28.61.42V77.43C1915.74 77.34 1911.71 77.32 1908.1 77.37z"/></g><path class="cls-4" d="M653.54 142.34a2.72 2.72.0 0 1 1.53-.44c.28-.13 4.65-1.45 5.7-1.72.89-.23 2.94-.62 3.76-1.32.35-.82.09-2.59-.2-4.29-.08-.88-.09-1.77-.12-2.65.0-.45-.14-1.86-.16-2.13a1.27 1.27.0 0 1 .08-1 1.2 1.2.0 0 1 1-.61 5.34 5.34.0 0 1 2.53 1.63c1 1 4.76 5.46 5 5.58a8.25 8.25.0 0 0 2.33.0c.74-.16 1.46-.35 2.18-.57a27.76 27.76.0 0 0 3.22-1.1 11.86 11.86.0 0 1 2.57-.89 2.61 2.61.0 0 1 1.18.0 2.06 2.06.0 0 1 .89 2.67 9.77 9.77.0 0 1-1.84 2.62 40.21 40.21.0 0 0-2.87 2.82 6.15 6.15.0 0 0-1.23 1.79c-.09.35-.26 1.33 1.89 3.43.64.75 1.45 1.35 2 2.16s1.5 1.66 2.11 2.59 1 2.25.0 3a2.22 2.22.0 0 1-2.15.13c-.88-.29-1.72-.69-2.58-1-.67-.27-3.59-2.85-7-2.91-1 .5-1.35 1.5-1.66 1.84a9.37 9.37.0 0 0-1.34 2.59 24.41 24.41.0 0 1-1.2 2.72 13 13 0 0 1-1.65 2.39c-.57.66-1.88 1.53-2.67.89-.76-.15-.89-1.58-.9-2.17a16.55 16.55.0 0 1 .4-3c.21-1.23.32-2.48.44-3.72l.24-2.49a2.61 2.61.0 0 0-.69-1.93 2.85 2.85.0 0 0-1.12-.47l-1.61-.39c-.72-.19-3.77-.6-4.52-.71s-1.43-.24-2.14-.36a4.23 4.23.0 0 1-1.48-.44 1.52 1.52.0 0 1-.67-1.31A1.46 1.46.0 0 1 653.54 142.34z"/><path class="cls-5" d="M653.07 143.53a.48.48.0 0 1 0-.12 1.15 1.15.0 0 1 .54-.86 3.68 3.68.0 0 1 1.38-.79 9.83 9.83.0 0 1 3.09-.53 7.36 7.36.0 0 1 .8.06l1.62-.16c.82-.08 1.65-.2 2.47-.34a.66.66.0 0 1 0-.14.9.9.0 0 1 0-.16.54.54.0 0 1 .13-.22.56.56.0 0 1 .22-.13.52.52.0 0 1 .37.05.31.31.0 0 1 .09.07h.06a.41.41.0 0 1 .2.31l.61-.11a8.32 8.32.0 0 0 1.48-.41 5.05 5.05.0 0 0 .75-.53 1.66 1.66.0 0 0 .49-1.24 1 1 0 0 1-.6-.07 1 1 0 0 1-.46-.78.86.86.0 0 1 .37-.77.6.6.0 0 1 .39-.11l-.34-1a1.19 1.19.0 0 1-.18.15.52.52.0 0 1-.56.0.64.64.0 0 1-.27-.5 1 1 0 0 1 .22-.66.43.43.0 0 1 .23-.14h.14c-.27-.7-.56-1.39-.88-2.07a17.4 17.4.0 0 1-.87-1.9 1.92 1.92.0 0 1-.46-1.11 1.16 1.16.0 0 1 1-1.18 2.08 2.08.0 0 1 1.56.68 3.25 3.25.0 0 1 .55.73c.05.09.11.18.16.29.54.75 1 1.59 1.43 2.38.56 1 1.12 2 1.6 3 .17.36.32.72.49 1.08a2.48 2.48.0 0 1 .36.55 3.54 3.54.0 0 0 .53.68 2.08 2.08.0 0 0 1.52.62 4.3 4.3.0 0 0 1.64-.51q.47-.22.93-.48a.69.69.0 0 1-.33-.59 1.06 1.06.0 0 1 .37-.72.79.79.0 0 1 .9-.14.75.75.0 0 1 .33.43.57.57.0 0 1 0 .29c.26-.16.51-.33.76-.5a.81.81.0 0 1 .34-1.26.69.69.0 0 1 .47.0.34.34.0 0 1 .27.12.68.68.0 0 1 .14.23l.55-.45c.44-.37.87-.73 1.35-1.06a3.64 3.64.0 0 1 .67-.38 2 2 0 0 1 1.16-.58 2 2 0 0 1 1.69.43 1.75 1.75.0 0 1 .35 2c-.07.56-.57.87-1 1.21a19.11 19.11.0 0 1-2.34 1.41c-.71.39-1.43.8-2.13 1.22a.58.58.0 0 1 .39.57 1 1 0 0 1 0 .48.93.93.0 0 1-1 .64.77.77.0 0 1-.68-.86.17.17.0 0 1 0-.07l-.63.4h.07a.68.68.0 0 1 .28.42.6.6.0 0 1-.6.81.86.86.0 0 1-.74-.54s0 0 0 0a1.52 1.52.0 0 0-.54 1.49 3 3 0 0 0 .54 1.13c.4.43.81.85 1.24 1.25.71.63 1.44 1.24 2.17 1.85 1.44 1.2 3.06 2.18 4.39 3.52a5.15 5.15.0 0 1 1.4 2.08 1.73 1.73.0 0 1-.54 2.09c-.68.42-1.6.0-2.21-.36a15.48 15.48.0 0 1-2.23-1.62 75.13 75.13.0 0 1-5.19-5.52.83.83.0 0 1-.49.46.88.88.0 0 1-.75-.15 1 1 0 0 1-.41-.76.79.79.0 0 1 .41-.67 4 4 0 0 0-1.33-.64h-.19a1.44 1.44.0 0 0-.8.41 3.48 3.48.0 0 0-.85 1.37c-.14.35-.27.71-.4 1.07h0a.42.42.0 0 1 .39.23.72.72.0 0 1 .07.48 1.19 1.19.0 0 1-.08.16.77.77.0 0 1-.11.3.46.46.0 0 1-.39.21.43.43.0 0 1-.32-.14l-.15.81c-.17.93-.34 1.85-.54 2.77s-.43 1.73-.65 2.59-.42 1.6-.7 2.38c-.46 1.27-1.3 2.94-2.83 3a1.27 1.27.0 0 1-1.15-.67 2 2 0 0 1-.39-1.59 9.65 9.65.0 0 1 .6-2.18c.21-.58.41-1.15.64-1.72s.55-1.2.78-1.82.32-1.13.54-1.67a.77.77.0 0 1-.67-.35.9.9.0 0 1 .3-1.28.79.79.0 0 1 .84.12c.11-.46.22-.93.32-1.41a.78.78.0 0 0 0-.16.75.75.0 0 1-.42.0.63.63.0 0 1-.43-.64c0-.38.28-.94.7-1a.61.61.0 0 1 .36.05c0-.07.0-.14.0-.22.0-.33.0-.67.0-1 0-.06.0-.12.0-.18a1.18 1.18.0 0 0-1.23-1 .61.61.0 0 1 0 .56.81.81.0 0 1-1.44-.21.37.37.0 0 1 0-.18h-.07c-.25.0-.5.08-.75.11a.36.36.0 0 1 0 .09.61.61.0 0 1-.06.46h0v.1a.52.52.0 0 1-.06.13v0a.61.61.0 0 1-1 .09.71.71.0 0 1-.13-.81c-1 .1-2.05.21-3.08.38a29.25 29.25.0 0 1-3.24.4c-.48.0-1 0-1.45.0a7.31 7.31.0 0 1-1-.07A1.16 1.16.0 0 1 653.07 143.53z"/><path class="cls-5" d="M680.16 138.93a.52.52.0 0 1 .17-.16.29.29.0 0 1 .13-.05l.08-.05a.4.4.0 0 1 .54.13.5.5.0 0 1-.14.6.53.53.0 0 1-.73.0A.41.41.0 0 1 680.16 138.93z"/><path class="cls-5" d="M665.82 136.19a.41.41.0 0 1 .19-.05.33.33.0 0 1 .25.11v0a.37.37.0 0 1-.46.57.33.33.0 0 1-.13-.13.32.32.0 0 1-.05-.19v0A.37.37.0 0 1 665.82 136.19z"/><path class="cls-5" d="M664.53 139.91a.32.32.0 0 1 .08-.12.53.53.0 0 1 .1-.06h.12.09a.3.3.0 0 1 .33.45.42.42.0 0 1-.26.23h-.15a.34.34.0 0 1-.26-.12h0a.31.31.0 0 1-.09-.22A.21.21.0 0 1 664.53 139.91z"/><path class="cls-5" d="M666.07 148.11s0 0 0 0v0h0a.3.3.0 0 1 .26-.11h.1a.43.43.0 0 1 .22.18.48.48.0 0 1 0 .35.46.46.0 0 1-.58.37.42.42.0 0 1-.18-.11.46.46.0 0 1-.11-.28A.43.43.0 0 1 666.07 148.11z"/><path class="cls-5" d="M670.55 150a.41.41.0 0 1 .45-.24.36.36.0 0 1 .24.19.61.61.0 0 1 .08.27.69.69.0 0 1 0 .2.52.52.0 0 1-.23.3.43.43.0 0 1-.61-.26A.62.62.0 0 1 670.55 150z"/><path class="cls-5" d="M675.73 148.33a.63.63.0 0 1 .59-.45.66.66.0 0 1 .63.38.87.87.0 0 1 .07.55.64.64.0 0 1-.6.47.68.68.0 0 1-.63-.34A.81.81.0 0 1 675.73 148.33z"/><path class="cls-5" d="M675.05 147.74a.25.25.0 0 1 .05-.16s0-.05.0-.07a.26.26.0 0 1 .2-.08.27.27.0 0 1 .19.08l.07.09a.33.33.0 0 1 .07.13.32.32.0 0 1-.15.35.28.28.0 0 1-.25.0h-.07a.25.25.0 0 1-.11-.12A.28.28.0 0 1 675.05 147.74z"/><path class="cls-5" d="M678.24 140.88a.39.39.0 0 1 .25-.1.39.39.0 0 1 .2.06.31.31.0 0 1 0 .49.33.33.0 0 1-.25.1.33.33.0 0 1-.25-.55z"/><path class="cls-5" d="M664.65 144.87h0a.17.17.0 0 1 .1.0h0a.28.28.0 0 1 .13.0.47.47.0 0 1 .1.1.3.3.0 0 1 0 .21.34.34.0 0 1-.1.16.35.35.0 0 1-.41.0.29.29.0 0 1-.14-.25A.3.3.0 0 1 664.65 144.87z"/><path class="cls-6" d="M664.18 128.83a.29.29.0 0 1 0-.22c.41-.75 1.46-.61 2-.18a4.56 4.56.0 0 1 1.39 2.06c.19.48.35 1 .5 1.46s.53 1.2.81 1.8.59 1.25.84 1.9a3.34 3.34.0 0 1 .26 2 .41.41.0 0 1-.4.29 1.44 1.44.0 0 1-1-.62 4.25 4.25.0 0 1-1.09-1.69c-.24-.45-.56-.87-.84-1.31s-.59-1-.89-1.5c-.42-.73-.93-1.41-1.31-2.16A2.62 2.62.0 0 1 664.18 128.83z"/><path class="cls-6" d="M676.72 138a3.73 3.73.0 0 1 1-1c.44-.35.89-.69 1.34-1 .9-.68 1.81-1.36 2.67-2.08a3.2 3.2.0 0 1 1.9-1c.8-.31 1.5.69 1.49 1.42.0.93-.88 1.53-1.6 1.92-1 .54-2 1.08-3 1.53a7.94 7.94.0 0 1-3.2.79h-.1C676.81 138.72 676.56 138.25 676.72 138z"/><path class="cls-6" d="M679 147.32a.17.17.0 0 1 .12.0 21.51 21.51.0 0 1 2.25 1.45c.69.47 1.33 1 2 1.49a6.59 6.59.0 0 1 1.5 1.48 1.52 1.52.0 0 1 0 1.78c-.38.42-1 .17-1.42-.05a7 7 0 0 1-1.43-1.12 16.16 16.16.0 0 1-1.85-2.11c-.26-.36-.49-.75-.72-1.13-.12-.21-.25-.42-.36-.64a3.4 3.4.0 0 0-.36-.68C678.6 147.61 678.73 147.27 679 147.32z"/><path class="cls-6" d="M664.81 159.05a5 5 0 0 1 .49-1.63c.34-.8.61-1.63 1-2.43.19-.44.4-.87.6-1.3s.5-.92.71-1.4v0A.32.32.0 0 1 668 152a.18.18.0 0 1 .32.11 6.19 6.19.0 0 1-.11 1.42c-.06.49-.11 1-.16 1.45a21.56 21.56.0 0 1-.49 3c-.22.89-.81 2.61-2 2.36A1.12 1.12.0 0 1 664.81 159.05z"/><path class="cls-6" d="M653.59 143.36c.12-.61.79-.83 1.32-1a6.37 6.37.0 0 1 2-.11c.63.05 1.26.15 1.9.21s1.25.0 1.87.06a.18.18.0 0 1 .17.17.38.38.0 0 1-.08.68c-.71.18-1.42.31-2.12.51s-1.4.42-2.12.56a5.68 5.68.0 0 1-1.79.1C654.1 144.5 653.45 144 653.59 143.36z"/><path class="cls-7" d="M683.56 134.39a.43.43.0 0 0 .42.43.42.42.0 0 0 .42-.42A.41.41.0 0 0 684 134 .42.42.0 0 0 683.56 134.39z"/><path class="cls-7" d="M681.79 135.38a.59.59.0 0 0 .59.6.58.58.0 0 0 .6-.58.59.59.0 0 0-.58-.61A.61.61.0 0 0 681.79 135.38z"/><path class="cls-7" d="M679.84 136.55a.63.63.0 0 0 .61.63.62.62.0 0 0 0-1.23A.63.63.0 0 0 679.84 136.55z"/><path class="cls-7" d="M677.82 137.76a.64.64.0 1 0 .65-.62A.65.65.0 0 0 677.82 137.76z"/><path class="cls-7" d="M675.85 138.68a.63.63.0 0 0 .6.62.61.61.0 0 0 .62-.6.6.6.0 0 0-.6-.62A.61.61.0 0 0 675.85 138.68z"/><path class="cls-7" d="M683.68 152.42a.46.46.0 0 0 .45.46.46.46.0 0 0 .46-.45.45.45.0 0 0-.45-.46A.44.44.0 0 0 683.68 152.42z"/><path class="cls-7" d="M682.23 150.88a.54.54.0 0 0 .52.54.52.52.0 0 0 .53-.52.51.51.0 0 0-.51-.53A.53.53.0 0 0 682.23 150.88z"/><path class="cls-7" d="M680.58 149.45a.59.59.0 0 0 .58.61.6.6.0 1 0 0-1.19A.59.59.0 0 0 680.58 149.45z"/><path class="cls-7" d="M678.67 147.79a.66.66.0 0 0 .64.66.65.65.0 0 0 0-1.3A.66.66.0 0 0 678.67 147.79z"/><path class="cls-7" d="M676.94 146.57a.67.67.0 0 0 .67.69.68.68.0 1 0-.67-.69z"/><path class="cls-7" d="M675.46 145.18a.55.55.0 0 0 .53.55.54.54.0 0 0 0-1.08A.54.54.0 0 0 675.46 145.18z"/><path class="cls-7" d="M674.16 143.85a.42.42.0 0 0 .83.0.42.42.0 0 0-.83.0z"/><path class="cls-7" d="M669.14 144.38a.46.46.0 0 0 .45.46.45.45.0 1 0-.45-.46z"/><path class="cls-7" d="M668.78 146.23a.62.62.0 1 0 1.23.0.62.62.0 1 0-1.23.0z"/><path class="cls-7" d="M668.32 148.22a.61.61.0 1 0 1.21.0.61.61.0 0 0-1.21.0z"/><path class="cls-7" d="M667.82 150.26a.62.62.0 1 0 1.24.0.62.62.0 0 0-.61-.64A.63.63.0 0 0 667.82 150.26z"/><path class="cls-7" d="M667.32 152.41a.55.55.0 1 0 .55-.54A.55.55.0 0 0 667.32 152.41z"/><path class="cls-7" d="M666.63 154.74a.52.52.0 0 0 .5.51.51.51.0 0 0 0-1A.52.52.0 0 0 666.63 154.74z"/><path class="cls-7" d="M669.73 139.64a.46.46.0 1 0 .46-.45A.45.45.0 0 0 669.73 139.64z"/><path class="cls-7" d="M668.5 137.61a.63.63.0 1 0 .64-.62A.63.63.0 0 0 668.5 137.61z"/><path class="cls-7" d="M667.57 135.51a.62.62.0 0 0 .61.62.62.62.0 0 0 0-1.23A.63.63.0 0 0 667.57 135.51z"/><path class="cls-7" d="M666.66 133.55a.56.56.0 1 0 1.12.0.56.56.0 0 0-.55-.57A.57.57.0 0 0 666.66 133.55z"/><path class="cls-7" d="M665.68 131.58a.51.51.0 1 0 1 0 .51.51.0 0 0-.5-.52A.5.5.0 0 0 665.68 131.58z"/><path class="cls-7" d="M665.11 129.91a.41.41.0 0 0 .41.43.43.43.0 0 0 .43-.41.42.42.0 0 0-.42-.43A.41.41.0 0 0 665.11 129.91z"/><path class="cls-7" d="M664.42 142.47a.66.66.0 1 0 1.32.0.67.67.0 0 0-.65-.67A.65.65.0 0 0 664.42 142.47z"/><path class="cls-7" d="M662.24 142.79a.58.58.0 0 0 .57.59.58.58.0 1 0-.57-.59z"/><path class="cls-7" d="M660.3 142.92a.51.51.0 0 0 .5.52.52.52.0 0 0 .53-.51.51.51.0 0 0-.51-.52A.51.51.0 0 0 660.3 142.92z"/><path class="cls-7" d="M658.5 143.16a.43.43.0 0 0 .42.43.42.42.0 0 0 .44-.42.43.43.0 0 0-.42-.44A.44.44.0 0 0 658.5 143.16z"/><path class="cls-7" d="M656.7 143.29a.44.44.0 0 0 .43.44.44.44.0 0 0 .44-.43.44.44.0 0 0-.43-.44A.45.45.0 0 0 656.7 143.29z"/><path class="cls-7" d="M684.19 135.4a.23.23.0 0 0 .23.23.23.23.0 0 0 .23-.22.23.23.0 0 0-.46.0z"/><path class="cls-7" d="M681.75 136.81a.23.23.0 1 0 .46.0.23.23.0 0 0-.46.0z"/><path class="cls-7" d="M679.25 138.64a.24.24.0 0 0 .22.24.23.23.0 0 0 .23-.23.22.22.0 0 0-.22-.23A.22.22.0 0 0 679.25 138.64z"/><path class="cls-7" d="M676 140.43a.24.24.0 0 0 .22.24.23.23.0 0 0 .23-.23.22.22.0 0 0-.22-.23A.22.22.0 0 0 676 140.43z"/><path class="cls-7" d="M674.09 145.39a.24.24.0 0 0 .23.23.23.23.0 0 0 0-.46A.24.24.0 0 0 674.09 145.39z"/><path class="cls-7" d="M676.09 147.47a.23.23.0 0 0 .22.23.23.23.0 1 0-.22-.23z"/><path class="cls-7" d="M678.66 149.42a.23.23.0 0 0 .23.23.22.22.0 0 0 .23-.22.23.23.0 0 0-.23-.23A.24.24.0 0 0 678.66 149.42z"/><path class="cls-7" d="M681.28 151.39a.22.22.0 0 0 .22.23.21.21.0 0 0 .23-.22.23.23.0 1 0-.45.0z"/><path class="cls-7" d="M683.43 153.45a.23.23.0 1 0 .24-.23A.24.24.0 0 0 683.43 153.45z"/><path class="cls-7" d="M683.31 136a.23.23.0 0 0 .45.0.23.23.0 0 0-.22-.24A.23.23.0 0 0 683.31 136z"/><path class="cls-7" d="M680.55 137.79a.23.23.0 0 0 .45.0.24.24.0 0 0-.22-.24A.23.23.0 0 0 680.55 137.79z"/><path class="cls-7" d="M677.57 139.66a.22.22.0 0 0 .22.23.23.23.0 0 0 .23-.22.24.24.0 0 0-.22-.24A.23.23.0 0 0 677.57 139.66z"/><path class="cls-7" d="M673.15 144.24a.23.23.0 0 0 .23.23.22.22.0 0 0 .23-.22.23.23.0 0 0-.22-.23A.24.24.0 0 0 673.15 144.24z"/><path class="cls-7" d="M670.21 138.26a.24.24.0 0 0 .23.24.23.23.0 1 0-.23-.24z"/><path class="cls-7" d="M668.74 134.91a.22.22.0 0 0 .22.23.23.23.0 1 0 0-.45A.22.22.0 0 0 668.74 134.91z"/><path class="cls-7" d="M667.21 131.89a.23.23.0 0 0 .46.0.23.23.0 1 0-.46.0z"/><path class="cls-7" d="M671.07 140.12a.24.24.0 0 0 .22.24.23.23.0 0 0 .23-.23.22.22.0 0 0-.22-.23A.22.22.0 0 0 671.07 140.12z"/><path class="cls-7" d="M667.92 146.64a.24.24.0 0 0 .23.24.23.23.0 0 0 0-.46A.24.24.0 0 0 667.92 146.64z"/><path class="cls-7" d="M667.14 149.86a.23.23.0 0 0 .22.23.23.23.0 1 0-.22-.23z"/><path class="cls-7" d="M666.43 153.39a.23.23.0 0 0 .22.23.23.23.0 0 0 .23-.23.22.22.0 0 0-.22-.23A.23.23.0 0 0 666.43 153.39z"/><path class="cls-7" d="M668.18 145.06a.23.23.0 0 0 .22.23.23.23.0 1 0 0-.46A.23.23.0 0 0 668.18 145.06z"/><path class="cls-7" d="M663.68 143.72a.23.23.0 1 0 .23-.23A.23.23.0 0 0 663.68 143.72z"/><path class="cls-7" d="M659.82 143.88a.23.23.0 0 0 .23.23.23.23.0 0 0 .23-.22.23.23.0 0 0-.46.0z"/><path class="cls-7" d="M665.75 143.52a.23.23.0 0 0 .23.23.21.21.0 0 0 .23-.22.22.22.0 0 0-.22-.23A.24.24.0 0 0 665.75 143.52z"/><path class="cls-7" d="M661.58 143.8a.23.23.0 1 0 .45.0.23.23.0 0 0-.22-.23A.22.22.0 0 0 661.58 143.8z"/><path class="cls-7" d="M658 144a.23.23.0 0 0 .46.0.23.23.0 0 0-.23-.23A.22.22.0 0 0 658 144z"/><path class="cls-7" d="M667.52 148.21a.23.23.0 0 0 .46.0.23.23.0 1 0-.46.0z"/><path class="cls-7" d="M666.81 151.63a.23.23.0 0 0 .22.23.23.23.0 1 0 0-.46A.23.23.0 0 0 666.81 151.63z"/><path class="cls-7" d="M665.88 155a.21.21.0 0 0 .22.23.22.22.0 0 0 .23-.22.22.22.0 0 0-.22-.23A.22.22.0 0 0 665.88 155z"/><path class="cls-7" d="M669.5 136.61a.23.23.0 1 0 .23-.23A.22.22.0 0 0 669.5 136.61z"/><path class="cls-7" d="M668 133.34a.21.21.0 0 0 .22.23.23.23.0 0 0 .23-.22.22.22.0 0 0-.22-.23A.21.21.0 0 0 668 133.34z"/><path class="cls-7" d="M666.49 130.36a.22.22.0 0 0 .22.23.23.23.0 0 0 .23-.23.24.24.0 0 0-.22-.23A.23.23.0 0 0 666.49 130.36z"/><path class="cls-7" d="M675 146.54a.22.22.0 0 0 .22.23.23.23.0 0 0 .23-.23.23.23.0 0 0-.22-.23A.23.23.0 0 0 675 146.54z"/><path class="cls-7" d="M677.37 148.42a.22.22.0 0 0 .22.23.23.23.0 0 0 .23-.23.23.23.0 0 0-.22-.23A.23.23.0 0 0 677.37 148.42z"/><path class="cls-7" d="M679.88 150.47a.23.23.0 0 0 .22.23.23.23.0 1 0-.22-.23z"/><path class="cls-7" d="M682.47 152.4a.24.24.0 0 0 .22.23.24.24.0 0 0 .24-.23.23.23.0 1 0-.46.0z"/><path class="cls-8" d="M652.57 143.41a1.86 1.86.0 0 1 1.52-1.58 57.44 57.44.0 0 1 6.14-1.73 25.9 25.9.0 0 0 3.13-.87c.51-.19 1.12-.33 1.13-.9-.08-1.64-.19-3.27-.42-4.89a20.2 20.2.0 0 1-.31-4.18 1.52 1.52.0 0 1 .5-1.17 1.37 1.37.0 0 1 1.23-.13 4.4 4.4.0 0 1 1.83 1.19 10.12 10.12.0 0 1 1.06 1c.75.8 1.43 1.66 2.12 2.51a21.91 21.91.0 0 0 1.87 2.1c.37.33.92.74 2.6.2.58-.15 1.15-.31 1.72-.48 1.24-.36 2.47-.77 3.71-1.13a21.71 21.71.0 0 1 2.27-.62v0c1.61-.36 2.18.31 2.49.77.72 1.08.1 2.41-.6 3.32-.82 1.07-1.9 1.93-2.81 2.93a11.51 11.51.0 0 0-2.34 3.1 2.75 2.75.0 0 0 0 .81 2.62 2.62.0 0 0 .5 1 18.9 18.9.0 0 0 1.54 1.7c1 1.1 2.16 2.1 3.14 3.25.82 1 1.74 2.32 1.46 3.66a1.88 1.88.0 0 1-2.59 1.16 6.35 6.35.0 0 1-1.4-.45c-.91-.39-1.81-.87-2.68-1.35a31 31 0 0 0-3.53-1.82 4.89 4.89.0 0 0-1.77-.43 1.81 1.81.0 0 0-1.27.55c-1.55 2.13-2.57 4.76-3.83 7.07a6.55 6.55.0 0 1-2.53 2.83 1.77 1.77.0 0 1-1.55.11c-1.56-.69-1.07-2.75-1-3.57.11-1.26.32-2.51.5-3.76.15-1.07.29-2.13.41-3.2a8.55 8.55.0 0 0 0-1.89 2.65 2.65.0 0 0-.31-.76 1.57 1.57.0 0 0-.68-.51 6.74 6.74.0 0 0-1.15-.38c-.56-.16-1.12-.29-1.69-.4-1.86-.38-3.74-.66-5.62-.86C654.2 145.47 652.47 145 652.57 143.41zm.56.56c.56 1.31 2.49 1.13 3.65 1.29a49.52 49.52.0 0 1 5.81 1.08 5.43 5.43.0 0 1 2.06.71 1.69 1.69.0 0 1 .51.77 5.28 5.28.0 0 1 .07 2.17c-.05 1-.17 2.06-.3 3.07-.16 1.26-.36 2.51-.5 3.77q-.09.88-.15 1.77a4.77 4.77.0 0 0 .06 1h0c.21.49.48.93 1.06 1a2.34 2.34.0 0 0 1.58-.69 9 9 0 0 0 2-3c.53-1.06 1.06-2.12 1.58-3.19a10.72 10.72.0 0 1 1.82-3.1A2.09 2.09.0 0 1 675 150a13.89 13.89.0 0 1 3.58 1.61c1 .55 2 1.08 3 1.6a13 13 0 0 0 1.57.71 4.69 4.69.0 0 0 1 .2 1.93 1.93.0 0 0 1-.26 1.39 1.39.0 0 0 .51-1.47 7.19 7.19.0 0 0-2.3-3.52L680.49 146a7.29 7.29.0 0 1-1.26-1.61 2.27 2.27.0 0 1-.23-.71.16.16.0 0 1 0-.07c-.12-1.3.89-2.42 1.69-3.32s1.72-1.81 2.62-2.7A4.66 4.66.0 0 0 685 134.4a1.8 1.8.0 0 0-2.56-1.22c-.87.24-1.74.53-2.6.8-1.14.36-2.28.72-3.44 1.06-.52.15-1 .29-1.58.42a4.35 4.35.0 0 1-1 .17 2 2 0 0 1-1.39-.23 7.89 7.89.0 0 1-1.78-1.82c-.75-.86-1.45-1.76-2.18-2.63-.35-.41-.72-.82-1.1-1.2a10.79 10.79.0 0 0-1.33-1.1s0 0 0 0a5 5 0 0 0-.59-.25.88.88.0 0 0-1.05.23 2.57 2.57.0 0 0-.18 1.48c0 1.34.27 2.64.4 4a29.3 29.3.0 0 1 .28 4.77c0 .84-3 1.34-4 1.59-1.19.29-2.39.55-3.57.89-.64.18-1.27.44-1.92.65C655.35 142 652.59 142.7 653.13 144z"/><path class="cls-9" d="M1726.42 145.13c36-9.1 140.9-8.68 193.67-1.62V262.14H1.87v-141C34.65 136.43 40 133.4 107.67 133.93c33.89.27 138.81-60.78 192.17-39.86 71.4 28 186.45 55.62 266.81 55.62 85.08.0 173.2 6.21 259.49 6.64 43.09.21 87.5.63 130.29-5.17 41.53-5.64 81.51-19.51 123.47-22.76 39.49-3 86.95 10.31 124.33-6.4 67.73-30.28 152.91-21.55 223.13-5.59 38.87 8.83 74.81 24.08 114.34 30.44C1600.05 156.24 1668.48 159.75 1726.42 145.13z"/><g class="cls-10"><path class="cls-11" d="M1190.77 196.41c-26.32 7.13-16.35 16.61 28.19 20.9 33 3.17 124.26 4.26 156.29.79C1421 213.15 1398 204 1450.86 2e2c40.67-3.07 91.73.22 129.94-4 80-8.77-42.16-11.81-65.1-15.68-21.86-3.68-18.42-10-43.53-13.38-28.94-3.84-68.69.12-98.44-1-40-1.45-63.37-8.17-108.78-7.67-24 .27-97.2 1.12-113.93 3.84-41 6.67 81.24 9.52 91.45 14.15C1259.39 184.05 1214.88 189.87 1190.77 196.41z"/><path class="cls-11" d="M546.46 221.34c3.26 2.32 15.69 4.36 21.39 6.6 4.57 1.8-.35 4.34 17.16 5.21 22.12 1.1 46.51-.09 68-.81 9.05-.31 17.73-.86 27.09-.78 9.59.07 18 .85 27.55 1 35.88.58 69.49-3.1 38.13-7.57-28.18-4-60.72-9.09-52.45-15.56 8.08-6.34 39.3-7.7 76.92-9 14.5-.51 32.27-1.51 44.82-2.77 2.17-.22 25.66-3.28 17.54-3.31-20.48-.08-40.47.0-60.84-.42-23.77-.56-49.14-2-71.55-3.33-11-.63-27.86-2.51-40.07-2-20.46.88-20.46 5.95-41.23 7.18-24.66 1.46-59.61.55-86.56 1-27.11.44-55.47 2.21-69.57 5.07h0c-22.17 4.4 36.65 5.47 52.16 6.55s28 3 33 5.44C553.35 216.48 543 218.83 546.46 221.34z"/><path class="cls-11" d="M1495.52 230.68c-10 3.86-14 8.61-21.29 12.7a73.68 73.68.0 0 1-7.75 4.23c-4.77 2.06-11.17 3.88-6.16 6.09 7.25 3.19 38.23 4.43 55.63 3.74 24.48-1 23.28-5.78 48.93-6.27 30.88-.58 69.16-.81 96.38 2.13 26.12 2.83 45 7.72 73.48 9.95 21.93 1.72 59.34-.64 62.81-5.05s-20.63-12.61-30-16.82c-11.44-5.12 1.48-8.62 2.71-13.72 1.33-5.56-26.84-5.86-55.12-7.9-9.18-.66-16.45-1.45-27.41-1.35-10.27.1-19.19 1.21-29.28 1.46-12.58.32-26.45.34-39.22.47C1567.21 220.85 1519.77 221.32 1495.52 230.68z"/><path class="cls-11" d="M2.41 183.79c14.1 2.48 29.84 2.57 41.57 3.77 32.09 3.26 52.66 6.7 78.1 28.13 17.64 14.86 21.45 20.82 46.9 22.35 20.93 1.26 44.78 4.29 65.61.8s34.61-12.75 55.62-10.63c24.16 2.44 49.05 8.34 73.52 11.13 51.88 5.9 86.15 2.26 88.7-5.1 2.84-8.16-51-15.15-80.45-22.79-49.67-12.88-60.45-22.71 4.51-23.61 11.28-.16 27.37 1.65 37.45.83 28.54-2.32-19.43-10.69-29.17-15.87-15.25-8.1 1.66-13.89-42.79-21.32-34.1-5.7-79.13-4.85-113.54-7.14-61.29-4.1-141.9-21.49-196-15.32C15.3 131 52.77 149.35 47.13 154.68c-6.06 5.73-26.38 9.06-44.72 12.76z"/></g><path class="cls-12" d="M.75.75c0 22.06 68.27 17.93 84 23.46 42.1 14.76 62.77 31.15 109.09 34 4.48.27 9.21.42 14.22.42 70.56.07 123 26.63 192 31C459.91 93.46 516.48 69 576.38 73c53.77 3.58 100.85 28.12 153.35 35.44 82.8 11.55 176.89-29.34 260.5-29.27 52.33.0 77.91-11.83 126.74-20.82 26.24-4.83 48.25 6 74.69 3.66h0c49.79-4.49 75.1-9.77 126.31.19 44.53 8.66 86.09 15.16 131.39 5.13 75.44-16.72 145.8 25.18 223.4 1.59 43.13-13.11 92.89 2.45 137.63-5.16 10.74-1.83 107.66-38.65 107.66-34.45"/><path class="cls-4" d="M1413.12 177.32a4.06 4.06.0 0 0-2.33-.66c-.42-.2-7.12-2.22-8.71-2.64-1.37-.35-4.5-.94-5.76-2-.54-1.25-.13-4 .31-6.56.13-1.35.13-2.71.18-4.06.0-.68.21-2.85.25-3.25a2 2 0 0 0-.13-1.55 1.83 1.83.0 0 0-1.59-.93c-1.4.21-2.9 1.52-3.87 2.49-1.56 1.58-7.27 8.35-7.72 8.54a12.47 12.47.0 0 1-3.56.0c-1.13-.24-2.24-.53-3.34-.87a42.51 42.51.0 0 1-4.92-1.67 17.13 17.13.0 0 0-3.93-1.37 3.91 3.91.0 0 0-1.8.0c-.32.09-2.24 1.29-1.37 4.08a14.76 14.76.0 0 0 2.82 4c1.41 1.49 3.13 2.67 4.38 4.31a9 9 0 0 1 1.89 2.74c.14.53.39 2-2.89 5.24-1 1.15-2.21 2.08-3.11 3.31s-2.28 2.53-3.22 4-1.55 3.44.0 4.65a3.39 3.39.0 0 0 3.3.2c1.33-.44 2.62-1.05 3.94-1.56 1-.4 5.49-4.36 10.7-4.44 1.55.76 2.07 2.28 2.53 2.8a13.6 13.6.0 0 1 2 4 44.14 44.14.0 0 0 1.84 4.16 20 20 0 0 0 2.53 3.65c.87 1 2.87 2.34 4.08 1.37 1.16-.24 1.36-2.42 1.37-3.33a25.3 25.3.0 0 0-.6-4.66c-.33-1.87-.49-3.79-.67-5.68-.11-1.12-.36-3.66-.37-3.82.12-1.09.16-2.25 1-3a4.34 4.34.0 0 1 1.72-.71l2.46-.61c1.11-.28 5.77-.92 6.92-1.08s2.18-.36 3.27-.55a6.11 6.11.0 0 0 2.26-.68 2.28 2.28.0 0 0 1-2A2.21 2.21.0 0 0 1413.12 177.32z"/><path class="cls-5" d="M1413.84 179.14a.47.47.0 0 0 0-.17 1.81 1.81.0 0 0-.83-1.32 5.31 5.31.0 0 0-2.11-1.2 15.15 15.15.0 0 0-4.72-.82 10.33 10.33.0 0 0-1.23.09c-.82-.09-1.65-.16-2.47-.24-1.26-.12-2.52-.31-3.78-.52a.74.74.0 0 0 0-.21 2.17 2.17.0 0 0 0-.25.81.81.0 0 0-.21-.34.65.65.0 0 0-.33-.19.75.75.0 0 0-.57.08.6.6.0 0 0-.13.09l-.1.05a.67.67.0 0 0-.3.48l-.93-.18a11.92 11.92.0 0 1-2.27-.62 6.11 6.11.0 0 1-1.13-.81 2.49 2.49.0 0 1-.75-1.9 1.3 1.3.0 0 0 1.61-1.29 1.29 1.29.0 0 0-.57-1.18.9.9.0 0 0-.6-.17c.17-.51.36-1 .53-1.51a1.56 1.56.0 0 0 .28.23.79.79.0 0 0 .86.0 1 1 0 0 0 .4-.77 1.54 1.54.0 0 0-.33-1 .8.8.0 0 0-.36-.2.75.75.0 0 0-.21.0c.41-1.07.86-2.12 1.35-3.16a29.86 29.86.0 0 0 1.33-2.91 3 3 0 0 0 .7-1.7 1.77 1.77.0 0 0-1.61-1.8 3.19 3.19.0 0 0-2.38 1 5.87 5.87.0 0 0-.85 1.13l-.24.43c-.82 1.16-1.49 2.44-2.18 3.65-.86 1.51-1.72 3.06-2.45 4.64-.26.55-.5 1.11-.74 1.66a3.48 3.48.0 0 0-.56.85 5.38 5.38.0 0 1-.82 1 3.11 3.11.0 0 1-2.32.94 6.18 6.18.0 0 1-2.5-.77c-.48-.23-1-.48-1.43-.73a1.08 1.08.0 0 0 .5-.91 1.5 1.5.0 0 0-.56-1.09 1.09 1.09.0 0 0-1.88.44.9.9.0 0 0 0 .43c-.39-.24-.78-.49-1.16-.75a.87.87.0 0 0 .17-.22 1.16 1.16.0 0 0 .08-.82 1.13 1.13.0 0 0-.77-.89 1 1 0 0 0-.71.0.53.53.0 0 0-.42.18.94.94.0 0 0-.2.35c-.29-.22-.57-.45-.85-.68A24.43 24.43.0 0 0 1371 164a5.5 5.5.0 0 0-1-.59 3.05 3.05.0 0 0-1.77-.88 3 3 0 0 0-2.58.65 2.67 2.67.0 0 0-.54 3.08c.1.86.87 1.33 1.56 1.85a28.64 28.64.0 0 0 3.57 2.15q1.63.9 3.27 1.86a.93.93.0 0 0-.61.89 1.46 1.46.0 0 0 0 .72 1.42 1.42.0 0 0 1.48 1 1.18 1.18.0 0 0 1.05-1.31s0-.07.0-.11l1 .61-.12.06a1.08 1.08.0 0 0-.43.63.93.93.0 0 0 .93 1.24 1.31 1.31.0 0 0 1.12-.83.14.14.0 0 0 0-.06 2.36 2.36.0 0 1 .83 2.28 4.81 4.81.0 0 1-.83 1.74c-.61.65-1.23 1.3-1.9 1.9-1.08 1-2.2 1.9-3.32 2.83-2.2 1.84-4.67 3.34-6.71 5.38a8.1 8.1.0 0 0-2.14 3.19 2.64 2.64.0 0 0 .83 3.19c1 .64 2.44.0 3.37-.55a23.3 23.3.0 0 0 3.42-2.48c3-2.52 5.25-5.66 7.94-8.44a1.17 1.17.0 0 0 .74.7 1.31 1.31.0 0 0 1.15-.22 1.44 1.44.0 0 0 .62-1.17 1.19 1.19.0 0 0-.61-1 6 6 0 0 1 2-1l.3.05a2.2 2.2.0 0 1 1.22.62 5.42 5.42.0 0 1 1.3 2.09c.21.54.41 1.09.6 1.64h-.06a.67.67.0 0 0-.59.35 1.12 1.12.0 0 0-.1.74 1.36 1.36.0 0 0 .11.25 1.18 1.18.0 0 0 .18.45.73.73.0 0 0 .6.33.68.68.0 0 0 .49-.22c.07.42.15.83.22 1.24.26 1.42.52 2.83.82 4.24s.66 2.65 1 4 .65 2.45 1.08 3.64c.7 1.94 2 4.5 4.32 4.66a2 2 0 0 0 1.76-1 3.07 3.07.0 0 0 .59-2.44 14.32 14.32.0 0 0-.92-3.33c-.31-.88-.62-1.76-1-2.64s-.85-1.83-1.19-2.78-.5-1.72-.83-2.55a1.21 1.21.0 0 0 1-.53 1.37 1.37.0 0 0-.46-2 1.19 1.19.0 0 0-1.27.2c-.19-.72-.35-1.44-.49-2.16.0-.08.0-.16.0-.24a1.19 1.19.0 0 0 .65.0 1 1 0 0 0 .66-1c0-.58-.43-1.44-1.07-1.52a.92.92.0 0 0-.55.08c0-.12.0-.23.0-.34.0-.5.0-1 0-1.54.0-.1.05-.19.07-.28a1.79 1.79.0 0 1 1.88-1.54.92.92.0 0 0 0 .84 1.25 1.25.0 0 0 2.22-.31.89.89.0 0 0 0-.28h.1c.38.07.76.12 1.15.16a.47.47.0 0 0-.06.15 1 1 0 0 0 .09.7v0a.83.83.0 0 0 0 .15 1.11 1.11.0 0 0 .09.19c0 .07.2.26.06.07a1 1 0 0 0 .78.43.92.92.0 0 0 .68-.29 1.09 1.09.0 0 0 .21-1.23c1.57.15 3.14.32 4.7.57a43.66 43.66.0 0 0 5 .63c.74.0 1.48.0 2.23.0a14.32 14.32.0 0 0 1.6-.1A1.77 1.77.0 0 0 1413.84 179.14z"/><path class="cls-5" d="M1372.43 172.12a.77.77.0 0 0-.26-.25.54.54.0 0 0-.21-.08l-.13-.07a.6.6.0 0 0-.81.19.76.76.0 0 0 .2.92.8.8.0 0 0 1.12.0A.64.64.0 0 0 1372.43 172.12z"/><path class="cls-5" d="M1394.34 167.92a.53.53.0 0 0-.28-.07.5.5.0 0 0-.38.17v0a.57.57.0 0 0 .7.88.51.51.0 0 0 .2-.21.57.57.0 0 0 .08-.28v0A.57.57.0 0 0 1394.34 167.92z"/><path class="cls-5" d="M1396.32 173.61a.5.5.0 0 0-.11-.17.42.42.0 0 0-.17-.1.51.51.0 0 0-.17-.07h-.09.0a.47.47.0 0 0-.51.7.62.62.0 0 0 .4.34.82.82.0 0 0 .22.0.49.49.0 0 0 .41-.19v0h0a.51.51.0 0 0 .13-.33A.36.36.0 0 0 1396.32 173.61z"/><path class="cls-5" d="M1394 186.15l-.08-.05v0h0v0h0a.5.5.0 0 0-.4-.18.9.9.0 0 0-.16.0.67.67.0 0 0-.33.27.74.74.0 0 0 .81 1.09.63.63.0 0 0 .27-.16.68.68.0 0 0 .17-.43A.7.7.0 0 0 1394 186.15z"/><path class="cls-5" d="M1387.12 189.08a.65.65.0 0 0-.69-.36.64.64.0 0 0-.37.29.77.77.0 0 0-.11.41.8.8.0 0 0 0 .31.83.83.0 0 0 .35.45.64.64.0 0 0 .93-.39A.89.89.0 0 0 1387.12 189.08z"/><path class="cls-5" d="M1379.2 186.5a1 1 0 0 0-.91-.7 1 1 0 0 0-1 .58 1.22 1.22.0 0 0-.1.84 1 1 0 0 0 .92.73 1 1 0 0 0 .95-.53A1.19 1.19.0 0 0 1379.2 186.5z"/><path class="cls-5" d="M1380.24 185.59a.57.57.0 0 0-.08-.25 1 1 0 0 0-.08-.11.42.42.0 0 0-.3-.12.39.39.0 0 0-.29.13.45.45.0 0 0-.11.13.38.38.0 0 0-.1.21.49.49.0 0 0 .6.58h.11a.48.48.0 0 0 .17-.18A.5.5.0 0 0 1380.24 185.59z"/><path class="cls-5" d="M1375.35 175.1a.57.57.0 0 0-.37-.16.8.8.0 0 0-.31.09.48.48.0 0 0-.08.75.55.55.0 0 0 .39.16.52.52.0 0 0 .38-.17A.47.47.0 0 0 1375.35 175.1z"/><path class="cls-5" d="M1396.14 181.2h-.06a.3.3.0 0 0-.16.0h-.05a.42.42.0 0 0-.21.06.4.4.0 0 0-.14.15.45.45.0 0 0 0 .32.58.58.0 0 0 .15.25.54.54.0 0 0 .63.06.44.44.0 0 0-.12-.81z"/><path class="cls-6" d="M1396.85 156.66a.37.37.0 0 0 0-.32c-.63-1.15-2.24-.94-3.13-.28a6.89 6.89.0 0 0-2.13 3.14c-.29.74-.54 1.49-.76 2.24-.41.92-.82 1.84-1.24 2.75s-.91 1.92-1.3 2.91a5.14 5.14.0 0 0-.39 3 .62.62.0 0 0 .61.44 2.16 2.16.0 0 0 1.53-.94 6.67 6.67.0 0 0 1.68-2.58 23.41 23.41.0 0 1 1.27-2c.48-.75.91-1.53 1.36-2.3.64-1.12 1.43-2.15 2-3.3A4 4 0 0 0 1396.85 156.66z"/><path class="cls-6" d="M1377.68 170.62a5.6 5.6.0 0 0-1.5-1.53c-.67-.54-1.36-1.07-2-1.58-1.38-1-2.77-2.07-4.1-3.18a4.93 4.93.0 0 0-2.89-1.46c-1.23-.46-2.3 1.06-2.29 2.18.0 1.43 1.34 2.34 2.46 2.94 1.51.82 3 1.64 4.6 2.33a12.12 12.12.0 0 0 4.9 1.21l.15.05C1377.54 171.8 1377.93 171.07 1377.68 170.62z"/><path class="cls-6" d="M1374.21 184.94a.28.28.0 0 0-.18.0 32 32 0 0 0-3.44 2.22c-1.06.71-2 1.49-3 2.28a10.28 10.28.0 0 0-2.3 2.26 2.33 2.33.0 0 0 0 2.72c.57.64 1.56.26 2.18-.07a11.25 11.25.0 0 0 2.17-1.72 24.23 24.23.0 0 0 2.84-3.23 19.35 19.35.0 0 0 1.09-1.73c.19-.32.38-.64.55-1a6.44 6.44.0 0 1 .55-1C1374.81 185.39 1374.6 184.86 1374.21 184.94z"/><path class="cls-6" d="M1395.9 202.89a7.85 7.85.0 0 0-.75-2.5c-.53-1.22-.93-2.49-1.46-3.71-.29-.67-.6-1.34-.92-2s-.75-1.42-1.07-2.14v-.07a.49.49.0 0 0-.7-.42.28.28.0 0 0-.49.18 10 10 0 0 0 .17 2.18c.09.74.16 1.47.24 2.21a33.64 33.64.0 0 0 .75 4.58c.34 1.37 1.25 4 3.08 3.62A1.71 1.71.0 0 0 1395.9 202.89z"/><path class="cls-6" d="M1413.06 178.89c-.19-.93-1.22-1.27-2-1.47a9.26 9.26.0 0 0-3-.16c-1 .07-1.94.22-2.91.31s-1.91.0-2.87.1a.27.27.0 0 0-.25.25.57.57.0 0 0 .13 1c1.07.28 2.16.49 3.23.79s2.14.64 3.25.85a8.69 8.69.0 0 0 2.74.16C1412.28 180.63 1413.27 179.94 1413.06 178.89z"/><path class="cls-7" d="M1367.22 165.17a.65.65.0 1 1-.66-.63A.65.65.0 0 1 1367.22 165.17z"/><path class="cls-7" d="M1369.92 166.68a.91.91.0 0 1-.89.93.92.92.0 0 1-.93-.9.91.91.0 0 1 1.82.0z"/><path class="cls-7" d="M1372.9 168.48a.94.94.0 1 1-1-.92A.92.92.0 0 1 1372.9 168.48z"/><path class="cls-7" d="M1376 170.33a1 1 0 0 1-1 1 1 1 0 0 1-1-.94 1 1 0 1 1 1.93.0z"/><path class="cls-7" d="M1379 171.73a.94.94.0 0 1-.92 1 1 1 0 0 1-.95-.92.94.94.0 1 1 1.87.0z"/><path class="cls-7" d="M1367 192.74a.7.7.0 1 1-.71-.69A.71.71.0 0 1 1367 192.74z"/><path class="cls-7" d="M1369.25 190.39a.81.81.0 1 1-1.61.0.81.81.0 0 1 1.61.0z"/><path class="cls-7" d="M1371.78 188.21a.91.91.0 1 1-.92-.89A.9.9.0 0 1 1371.78 188.21z"/><path class="cls-7" d="M1374.69 185.66a1 1 0 1 1-1-1 1 1 0 0 1 1 1z"/><path class="cls-7" d="M1377.34 183.8a1 1 0 1 1-1.06-1A1 1 0 0 1 1377.34 183.8z"/><path class="cls-7" d="M1379.6 181.67a.83.83.0 0 1-1.65.0.83.83.0 0 1 1.65.0z"/><path class="cls-7" d="M1381.59 179.64a.63.63.0 0 1-1.26.0.63.63.0 0 1 1.26.0z"/><path class="cls-7" d="M1389.27 180.45a.69.69.0 1 1-.7-.68A.7.7.0 0 1 1389.27 180.45z"/><path class="cls-7" d="M1389.83 183.27a.95.95.0 1 1-1-.93A.95.95.0 0 1 1389.83 183.27z"/><path class="cls-7" d="M1390.53 186.32a.93.93.0 1 1-.94-.91A.93.93.0 0 1 1390.53 186.32z"/><path class="cls-7" d="M1391.29 189.45a1 1 0 0 1-1.9.0 1 1 0 1 1 1.9.0z"/><path class="cls-7" d="M1392.05 192.72a.83.83.0 1 1-.84-.81A.82.82.0 0 1 1392.05 192.72z"/><path class="cls-7" d="M1393.11 196.29a.78.78.0 0 1-.76.78.77.77.0 0 1-.79-.76.78.78.0 0 1 .76-.78A.77.77.0 0 1 1393.11 196.29z"/><path class="cls-7" d="M1388.38 173.2a.71.71.0 1 1-.72-.69A.72.72.0 0 1 1388.38 173.2z"/><path class="cls-7" d="M1390.25 170.09a1 1 0 0 1-1.92.0 1 1 0 1 1 1.92.0z"/><path class="cls-7" d="M1391.67 166.88a.94.94.0 1 1-1-.92A.93.93.0 0 1 1391.67 166.88z"/><path class="cls-7" d="M1393.07 163.88a.86.86.0 0 1-1.72.0.85.85.0 0 1 .84-.87A.86.86.0 0 1 1393.07 163.88z"/><path class="cls-7" d="M1394.57 160.88a.77.77.0 0 1-.76.79.78.78.0 1 1 .76-.79z"/><path class="cls-7" d="M1395.44 158.32a.64.64.0 1 1-.65-.63A.64.64.0 0 1 1395.44 158.32z"/><path class="cls-7" d="M1396.5 177.53a1 1 0 1 1-1-1 1 1 0 0 1 1 1z"/><path class="cls-7" d="M1399.83 178a.9.9.0 0 1-.88.9.89.89.0 1 1 .88-.9z"/><path class="cls-7" d="M1402.8 178.21a.79.79.0 1 1-.8-.78A.79.79.0 0 1 1402.8 178.21z"/><path class="cls-7" d="M1405.54 178.58a.66.66.0 0 1-.64.67.67.67.0 0 1-.67-.65.66.66.0 1 1 1.31.0z"/><path class="cls-7" d="M1408.29 178.78a.66.66.0 1 1-.67-.65A.65.65.0 0 1 1408.29 178.78z"/><path class="cls-7" d="M1366.25 166.72a.34.34.0 0 1-.34.35.35.35.0 1 1 .34-.35z"/><path class="cls-7" d="M1370 168.88a.35.35.0 0 1-.34.35.34.34.0 0 1-.36-.34.35.35.0 0 1 .34-.35A.34.34.0 0 1 1370 168.88z"/><path class="cls-7" d="M1373.82 171.68a.35.35.0 0 1-.7.0.35.35.0 1 1 .7.0z"/><path class="cls-7" d="M1378.82 174.41a.35.35.0 0 1-.35.36.35.35.0 0 1-.35-.34.35.35.0 1 1 .7.0z"/><path class="cls-7" d="M1381.7 182a.35.35.0 0 1-.35.35.34.34.0 0 1-.35-.34.36.36.0 0 1 .34-.36A.37.37.0 0 1 1381.7 182z"/><path class="cls-7" d="M1378.65 185.17a.35.35.0 1 1-.36-.34A.34.34.0 0 1 1378.65 185.17z"/><path class="cls-7" d="M1374.71 188.16a.36.36.0 0 1-.34.36.36.36.0 0 1-.36-.35.35.35.0 0 1 .7.0z"/><path class="cls-7" d="M1370.71 191.17a.34.34.0 0 1-.34.36.36.36.0 0 1-.36-.34.36.36.0 0 1 .35-.36A.35.35.0 0 1 1370.71 191.17z"/><path class="cls-7" d="M1367.41 194.31a.35.35.0 1 1-.69.0.34.34.0 0 1 .34-.35A.35.35.0 0 1 1367.41 194.31z"/><path class="cls-7" d="M1367.61 167.63a.35.35.0 0 1-.34.36.35.35.0 0 1-.36-.35.35.35.0 0 1 .34-.35A.35.35.0 0 1 1367.61 167.63z"/><path class="cls-7" d="M1371.83 170.37a.35.35.0 0 1-.7.0.36.36.0 0 1 .34-.36A.36.36.0 0 1 1371.83 170.37z"/><path class="cls-7" d="M1376.39 173.23a.35.35.0 1 1-.36-.34A.34.34.0 0 1 1376.39 173.23z"/><path class="cls-7" d="M1383.14 180.24a.35.35.0 0 1-.35.35.35.35.0 0 1 0-.69A.35.35.0 0 1 1383.14 180.24z"/><path class="cls-7" d="M1387.63 171.1a.34.34.0 0 1-.34.35.35.35.0 0 1-.35-.34.35.35.0 0 1 .34-.36A.35.35.0 0 1 1387.63 171.1z"/><path class="cls-7" d="M1389.89 166a.36.36.0 0 1-.34.36.36.36.0 0 1-.36-.35.35.35.0 0 1 .34-.35A.35.35.0 0 1 1389.89 166z"/><path class="cls-7" d="M1392.22 161.35a.35.35.0 0 1-.34.35.35.35.0 0 1-.36-.34.36.36.0 0 1 .35-.36A.35.35.0 0 1 1392.22 161.35z"/><path class="cls-7" d="M1386.32 173.94a.35.35.0 1 1-.35-.34A.34.34.0 0 1 1386.32 173.94z"/><path class="cls-7" d="M1391.13 183.91a.35.35.0 1 1-.69.0.34.34.0 0 1 .34-.35A.35.35.0 0 1 1391.13 183.91z"/><path class="cls-7" d="M1392.33 188.83a.34.34.0 0 1-.34.35.35.35.0 0 1-.35-.34.35.35.0 0 1 .34-.36A.35.35.0 0 1 1392.33 188.83z"/><path class="cls-7" d="M1393.42 194.22a.35.35.0 0 1-.34.36.35.35.0 0 1-.36-.34.35.35.0 1 1 .7.0z"/><path class="cls-7" d="M1390.74 181.49a.34.34.0 0 1-.34.35.35.35.0 0 1-.35-.34.35.35.0 0 1 .34-.36A.35.35.0 0 1 1390.74 181.49z"/><path class="cls-7" d="M1397.62 179.43a.35.35.0 0 1-.34.36.36.36.0 0 1-.36-.34.35.35.0 0 1 .35-.36A.35.35.0 0 1 1397.62 179.43z"/><path class="cls-7" d="M1403.52 179.68a.35.35.0 1 1-.7.0.35.35.0 0 1 .7.0z"/><path class="cls-7" d="M1394.45 179.14a.35.35.0 1 1-.35-.34A.34.34.0 0 1 1394.45 179.14z"/><path class="cls-7" d="M1400.84 179.57a.35.35.0 0 1-.34.35.35.35.0 1 1 0-.7A.35.35.0 0 1 1400.84 179.57z"/><path class="cls-7" d="M1406.26 179.85a.35.35.0 1 1-.7.0.35.35.0 0 1 .7.0z"/><path class="cls-7" d="M1391.75 186.3a.36.36.0 0 1-.35.36.35.35.0 0 1-.35-.35.34.34.0 0 1 .34-.35A.36.36.0 0 1 1391.75 186.3z"/><path class="cls-7" d="M1392.84 191.53a.35.35.0 0 1-.34.36.35.35.0 0 1 0-.7A.35.35.0 0 1 1392.84 191.53z"/><path class="cls-7" d="M1394.26 196.62a.34.34.0 0 1-.34.35.35.35.0 0 1-.35-.34.35.35.0 0 1 .34-.36A.35.35.0 0 1 1394.26 196.62z"/><path class="cls-7" d="M1388.73 168.56a.36.36.0 0 1-.35.36.35.35.0 0 1 0-.7A.35.35.0 0 1 1388.73 168.56z"/><path class="cls-7" d="M1391 163.57a.34.34.0 0 1-.34.35.35.35.0 1 1 .34-.35z"/><path class="cls-7" d="M1393.33 159a.35.35.0 1 1-.69.0.34.34.0 0 1 .34-.35A.35.35.0 0 1 1393.33 159z"/><path class="cls-7" d="M1380.33 183.75a.34.34.0 0 1-.34.35.35.35.0 0 1-.35-.34.35.35.0 0 1 .34-.36A.35.35.0 0 1 1380.33 183.75z"/><path class="cls-7" d="M1376.69 186.62a.34.34.0 0 1-.34.36.35.35.0 0 1-.35-.35.34.34.0 0 1 .34-.35A.35.35.0 0 1 1376.69 186.62z"/><path class="cls-7" d="M1372.85 189.76a.35.35.0 1 1-.69.0.35.35.0 0 1 .34-.36A.35.35.0 0 1 1372.85 189.76z"/><path class="cls-7" d="M1368.89 192.71a.35.35.0 0 1-.7.0.36.36.0 0 1 .34-.36A.36.36.0 0 1 1368.89 192.71z"/><path class="cls-8" d="M1414.61 179a2.83 2.83.0 0 0-2.32-2.42 85.19 85.19.0 0 0-9.4-2.64 44 44 0 0 1-4.78-1.33c-.78-.29-1.71-.51-1.73-1.39.12-2.49.3-5 .64-7.47a31.17 31.17.0 0 0 .48-6.39 2.32 2.32.0 0 0-.77-1.79 2.06 2.06.0 0 0-1.87-.21 6.74 6.74.0 0 0-2.8 1.82 16 16 0 0 0-1.63 1.55c-1.14 1.22-2.17 2.55-3.24 3.84a31.08 31.08.0 0 1-2.86 3.21c-.55.51-1.41 1.14-4 .3-.88-.22-1.75-.47-2.62-.73-1.9-.55-3.78-1.17-5.67-1.72-1.14-.34-2.3-.73-3.48-1h0c-2.46-.57-3.34.46-3.81 1.17-1.1 1.65-.15 3.68.92 5.07 1.26 1.64 2.91 2.95 4.3 4.48a17.78 17.78.0 0 1 3.58 4.75 3.43 3.43.0 0 1-.78 2.76 26.36 26.36.0 0 1-2.36 2.6c-1.56 1.69-3.31 3.21-4.8 5-1.26 1.48-2.67 3.56-2.24 5.61.38 1.78 2.44 2.34 4 1.76a10.16 10.16.0 0 0 2.13-.68c1.4-.6 2.77-1.34 4.11-2.07a47.31 47.31.0 0 1 5.39-2.78 7.49 7.49.0 0 1 2.7-.66 2.78 2.78.0 0 1 2 .84c2.37 3.27 3.92 7.29 5.85 10.82a9.94 9.94.0 0 0 3.87 4.32 2.68 2.68.0 0 0 2.37.17c2.38-1 1.63-4.2 1.52-5.46-.17-1.93-.48-3.84-.75-5.76-.24-1.62-.45-3.25-.64-4.88a12.8 12.8.0 0 1 0-2.9 4.35 4.35.0 0 1 .47-1.16 2.46 2.46.0 0 1 1-.78 10.88 10.88.0 0 1 1.75-.58c.86-.24 1.72-.44 2.59-.61 2.83-.58 5.71-1 8.59-1.32C1412.13 182.11 1414.77 181.36 1414.61 179zm-.85.85c-.85 2-3.82 1.73-5.59 2a72.28 72.28.0 0 0-8.88 1.65 8.37 8.37.0 0 0-3.15 1.08 2.55 2.55.0 0 0-.78 1.18 7.89 7.89.0 0 0-.1 3.32c.07 1.56.25 3.14.45 4.7.25 1.92.55 3.84.76 5.76.1.9.18 1.81.24 2.71a6.39 6.39.0 0 1-.1 1.53v0c-.31.75-.73 1.42-1.61 1.5a3.61 3.61.0 0 1-2.42-1 14 14 0 0 1-3.13-4.56c-.82-1.62-1.63-3.25-2.43-4.87s-1.49-3.54-2.77-4.75c-1.3-1.63-2.54-1.31-3.94-1a21.7 21.7.0 0 0-5.47 2.46c-1.5.84-3 1.65-4.53 2.45a19 19 0 0 1-2.39 1.08 6.54 6.54.0 0 1-1.47.31 2.93 2.93.0 0 1-1.61-.4 2.12 2.12.0 0 1-.78-2.25c.35-2.12 2.07-3.92 3.51-5.38s2.92-3 4.37-4.48a10.66 10.66.0 0 0 1.92-2.46 3.78 3.78.0 0 0 .36-1.09.28.28.0 0 0 0-.11c.19-2-1.36-3.7-2.57-5.08s-2.64-2.76-4-4.12-2.7-2.86-2.69-4.8a2.77 2.77.0 0 1 3.93-1.87c1.33.36 2.65.81 4 1.22 1.75.55 3.49 1.11 5.26 1.62.8.23 1.6.46 2.41.65a6.35 6.35.0 0 0 1.57.25 3 3 0 0 0 2.13-.34 12.59 12.59.0 0 0 2.72-2.78c1.14-1.32 2.2-2.7 3.33-4 .54-.63 1.1-1.25 1.68-1.84a18.1 18.1.0 0 1 2-1.68v0a8.54 8.54.0 0 1 .9-.37 1.35 1.35.0 0 1 1.62.33 4.09 4.09.0 0 1 .26 2.28c-.08 2-.41 4-.61 6.06a44.77 44.77.0 0 0-.43 7.31c0 1.27 4.64 2.05 6.16 2.42 1.83.44 3.66.84 5.47 1.36 1 .28 1.94.68 2.93 1C1410.35 176.8 1414.58 177.88 1413.76 179.82z"/><path class="cls-13" d="M515.8 181a5.94 5.94.0 0 0-3-.46 8.46 8.46.0 0 0-3.8 1 11 11 0 0 0-4.15 3.85c-1.05 1.64-1.64 3.7-.62 5.47a6.06 6.06.0 0 0 4.53 2.75c3.57.56 8.71.37 10.92-3S519.4 182.52 515.8 181z"/><path class="cls-14" d="M520 185.89a7.12 7.12.0 0 0-1.83-3.25 4.86 4.86.0 0 0-2.68-1.69 2.22 2.22.0 0 0-.39-.12.12.12.0 0 0-.09.22 4.72 4.72.0 0 1 1.65 1.7 3.38 3.38.0 0 1 .28.83c-.86-.44-1.8 1-1.27 1.81a.94.94.0 0 0 1.28.14 6.09 6.09.0 0 1-.27 1.1h0a1.42 1.42.0 0 0-1.53.45 1.31 1.31.0 0 0 0 1.53.78.78.0 0 0 .33.28c-.16.2-.32.39-.49.57l-.17.16c-.11-.6-.94-.93-1.53-1a2.2 2.2.0 0 0-2 1.46 1 1 0 0 0 .28 1.29 10.75 10.75.0 0 1-2.76.33c-1.65.0-4.11-.15-5-1.77.0-.08-.18.0-.15.06a3.14 3.14.0 0 0 .37.68.12.12.0 0 0 0 .1 5.82 5.82.0 0 0 2.07 1.73 6.9 6.9.0 0 0 3.71 1.17 13.15 13.15.0 0 0 5-.22 8.92 8.92.0 0 0 4-1.83 5.22 5.22.0 0 0 1.42-3.78A7.16 7.16.0 0 0 520 185.89z"/><path class="cls-14" d="M515.54 186a.45.45.0 0 0-.31-.3.48.48.0 0 0-.5.2.77.77.0 0 0-.11.59c0 .13.16.2.27.21a.64.64.0 0 0 .54-.2A.56.56.0 0 0 515.54 186z"/><path class="cls-14" d="M513.88 186.62c-.58-.33-1.8.13-1.44.92v0a.82.82.0 0 0 .87.68 1.11 1.11.0 0 0 1-.69A.82.82.0 0 0 513.88 186.62z"/><path class="cls-14" d="M514.22 185.51a.27.27.0 0 0-.27-.08h0a.22.22.0 0 0-.22.19.24.24.0 0 0 0 .15.26.26.0 0 0 .13.23.29.29.0 0 0 .27.0h0v0A.3.3.0 0 0 514.22 185.51z"/><path class="cls-14" d="M511.2 188.51s0-.08.0-.12a.29.29.0 0 0-.49.0.28.28.0 0 0 0 .12.3.3.0 1 0 .57.0z"/><path class="cls-14" d="M510.24 190.2h0a.3.3.0 1 0 0 .3h0A.28.28.0 0 0 510.24 190.2z"/><path class="cls-14" d="M512.13 185.61a.21.21.0 0 0-.19-.15.2.2.0 0 0-.19.25.21.21.0 0 0 .21.17.19.19.0 0 0 .16-.09A.19.19.0 0 0 512.13 185.61z"/><path class="cls-14" d="M515.22 183.84h0c-.12-.16-.37.0-.37.15s.25.31.37.15h0A.21.21.0 0 0 515.22 183.84z"/><path class="cls-15" d="M515.8 181a5.94 5.94.0 0 0-3-.46 8.46 8.46.0 0 0-3.8 1 11 11 0 0 0-4.15 3.85c-1.05 1.64-1.64 3.7-.62 5.47a6.06 6.06.0 0 0 4.53 2.75c3.57.56 8.71.37 10.92-3S519.4 182.52 515.8 181z"/><path class="cls-13" d="M787.24 191.62a8.58 8.58.0 0 0-4.52-.69 12.42 12.42.0 0 0-5.62 1.53 16.31 16.31.0 0 0-6.16 5.7c-1.55 2.43-2.43 5.48-.92 8.11a9 9 0 0 0 6.71 4.08c5.31.83 12.92.54 16.2-4.43S792.58 193.83 787.24 191.62z"/><path class="cls-14" d="M793.46 198.82a10.56 10.56.0 0 0-2.71-4.8c-1-1.06-2.43-2.36-4-2.52a5.58 5.58.0 0 0-.58-.18.18.18.0 0 0-.14.33 6.84 6.84.0 0 1 2.45 2.53 4.28 4.28.0 0 1 .41 1.22c-1.26-.65-2.66 1.54-1.88 2.68a1.4 1.4.0 0 0 1.9.22 9.69 9.69.0 0 1-.4 1.63h0a2.11 2.11.0 0 0-2.26.67 2 2 0 0 0 0 2.27 1.27 1.27.0 0 0 .49.42c-.23.29-.48.57-.73.84l-.25.24c-.16-.9-1.39-1.39-2.26-1.48a3.26 3.26.0 0 0-3 2.15 1.52 1.52.0 0 0 .41 1.92 15.66 15.66.0 0 1-4.08.49c-2.46.0-6.09-.22-7.44-2.63-.07-.11-.27.0-.22.1a3.82 3.82.0 0 0 .54 1 .16.16.0 0 0 0 .15 8.68 8.68.0 0 0 3.06 2.56c1.49 1.28 3.62 1.51 5.5 1.74a19.27 19.27.0 0 0 7.41-.33 13.22 13.22.0 0 0 5.95-2.71 7.68 7.68.0 0 0 2.1-5.6A11 11 0 0 0 793.46 198.82z"/><path class="cls-14" d="M786.86 199a.66.66.0 0 0-.45-.45.71.71.0 0 0-.75.31 1.17 1.17.0 0 0-.17.86.43.43.0 0 0 .41.31.92.92.0 0 0 .8-.29A.79.79.0 0 0 786.86 199z"/><path class="cls-14" d="M784.4 199.91c-.85-.49-2.67.2-2.13 1.37v0a1.19 1.19.0 0 0 1.28 1 1.63 1.63.0 0 0 1.43-1A1.19 1.19.0 0 0 784.4 199.91z"/><path class="cls-14" d="M784.91 198.26a.42.42.0 0 0-.4-.11h0a.34.34.0 0 0-.32.28.4.4.0 0 0-.06.22.36.36.0 0 0 .19.34.38.38.0 0 0 .4.0h0 .07A.46.46.0 0 0 784.91 198.26z"/><path class="cls-14" d="M780.43 202.72a1 1 0 0 0-.06-.18.41.41.0 0 0-.72.0.56.56.0 0 0-.07.18.45.45.0 0 0 .43.56A.44.44.0 0 0 780.43 202.72z"/><path class="cls-14" d="M779 205.21h0a.43.43.0 1 0 0 .44h0A.4.4.0 0 0 779 205.21z"/><path class="cls-14" d="M781.8 198.42a.28.28.0 0 0-.27-.22.29.29.0 0 0-.28.37.33.33.0 0 0 .31.25.29.29.0 0 0 .24-.14A.27.27.0 0 0 781.8 198.42z"/><path class="cls-14" d="M786.39 195.79v0c-.18-.23-.54.0-.54.23s.36.45.54.22v0A.3.3.0 0 0 786.39 195.79z"/><path class="cls-16" d="M787.24 191.62a8.58 8.58.0 0 0-4.52-.69 12.42 12.42.0 0 0-5.62 1.53 16.31 16.31.0 0 0-6.16 5.7c-1.55 2.43-2.43 5.48-.92 8.11a9 9 0 0 0 6.71 4.08c5.31.83 12.92.54 16.2-4.43S792.58 193.83 787.24 191.62z"/><path class="cls-13" d="M1300.15 144.06a6.39 6.39.0 0 0-3.31-.5 9.07 9.07.0 0 0-4.12 1.12 12 12 0 0 0-4.52 4.18c-1.13 1.78-1.78 4-.67 5.95a6.64 6.64.0 0 0 4.92 3c3.89.6 9.47.39 11.87-3.25S1304.07 145.69 1300.15 144.06z"/><path class="cls-14" d="M1304.71 149.35a7.8 7.8.0 0 0-2-3.53 5.43 5.43.0 0 0-2.91-1.84 3.06 3.06.0 0 0-.43-.13.13.13.0 0 0-.1.24 5 5 0 0 1 1.79 1.85 3.08 3.08.0 0 1 .3.9c-.92-.48-1.94 1.12-1.37 2a1 1 0 0 0 1.39.16 7.48 7.48.0 0 1-.29 1.2h0a1.56 1.56.0 0 0-1.66.49 1.43 1.43.0 0 0 0 1.67 1 1 0 0 0 .36.3 8 8 0 0 1-.54.62l-.18.17c-.12-.65-1-1-1.65-1.08a2.4 2.4.0 0 0-2.19 1.58 1.13 1.13.0 0 0 .31 1.4 11.28 11.28.0 0 1-3 .36c-1.8.0-4.47-.16-5.46-1.92.0-.09-.2.0-.16.07a2.85 2.85.0 0 0 .4.73.14.14.0 0 0 0 .11 6.25 6.25.0 0 0 2.25 1.88 7.48 7.48.0 0 0 4 1.28 14.23 14.23.0 0 0 5.44-.25 9.81 9.81.0 0 0 4.36-2 5.65 5.65.0 0 0 1.54-4.11A8 8 0 0 0 1304.71 149.35z"/><path class="cls-14" d="M1299.87 149.46a.46.46.0 0 0-.33-.33.52.52.0 0 0-.54.23.82.82.0 0 0-.13.63.32.32.0 0 0 .3.23.71.71.0 0 0 .59-.21A.58.58.0 0 0 1299.87 149.46z"/><path class="cls-14" d="M1298.07 150.14c-.62-.36-2 .15-1.56 1 0 0 0 0 0 0a.87.87.0 0 0 .94.73 1.2 1.2.0 0 0 1-.75A.89.89.0 0 0 1298.07 150.14z"/><path class="cls-14" d="M1298.44 148.93a.28.28.0 0 0-.29-.07h0a.26.26.0 0 0-.24.21.38.38.0 0 0-.05.16.29.29.0 0 0 .15.25.28.28.0 0 0 .29.0h0v0A.34.34.0 0 0 1298.44 148.93z"/><path class="cls-14" d="M1295.16 152.2a.69.69.0 0 0-.05-.13.3.3.0 0 0-.52.0.69.69.0 0 0 0 .13.32.32.0 1 0 .62.0z"/><path class="cls-14" d="M1294.12 154h0a.32.32.0 1 0 0 .32h0A.29.29.0 0 0 1294.12 154z"/><path class="cls-14" d="M1296.17 149.05a.23.23.0 0 0-.21-.16.21.21.0 0 0-.2.27.25.25.0 0 0 .23.18.22.22.0 0 0 .18-.1A.21.21.0 0 0 1296.17 149.05z"/><path class="cls-14" d="M1299.53 147.12h0c-.13-.17-.4.0-.4.16s.27.34.4.17h0A.23.23.0 0 0 1299.53 147.12z"/><path class="cls-17" d="M1300.15 144.06a6.39 6.39.0 0 0-3.31-.5 9.07 9.07.0 0 0-4.12 1.12 12 12 0 0 0-4.52 4.18c-1.13 1.78-1.78 4-.67 5.95a6.64 6.64.0 0 0 4.92 3c3.89.6 9.47.39 11.87-3.25S1304.07 145.69 1300.15 144.06z"/><path class="cls-13" d="M1480.15 179.13a7.74 7.74.0 0 0-4.05-.61 11 11 0 0 0-5 1.37 14.57 14.57.0 0 0-5.52 5.11c-1.39 2.17-2.18 4.91-.82 7.26a8.08 8.08.0 0 0 6 3.66c4.75.74 11.57.48 14.51-4S1484.93 181.12 1480.15 179.13z"/><path class="cls-14" d="M1485.72 185.59a9.51 9.51.0 0 0-2.43-4.31c-.91-.95-2.18-2.11-3.56-2.25a4.48 4.48.0 0 0-.52-.16.16.16.0 0 0-.13.29 6.06 6.06.0 0 1 2.2 2.27 4.13 4.13.0 0 1 .37 1.09c-1.13-.58-2.38 1.38-1.69 2.41a1.27 1.27.0 0 0 1.71.19 9.43 9.43.0 0 1-.36 1.46h0a1.87 1.87.0 0 0-2 .6 1.73 1.73.0 0 0 0 2 1 1 0 0 0 .44.38 9.56 9.56.0 0 1-.66.75c-.07.08-.15.15-.22.22-.15-.8-1.25-1.24-2-1.33a3 3 0 0 0-2.67 1.93 1.38 1.38.0 0 0 .37 1.72 14.13 14.13.0 0 1-3.65.44c-2.2.0-5.46-.2-6.67-2.35a.11.11.0 0 0-.2.08 3.53 3.53.0 0 0 .49.9.12.12.0 0 0 0 .13 7.81 7.81.0 0 0 2.75 2.3c1.33 1.14 3.24 1.34 4.92 1.56a17.32 17.32.0 0 0 6.65-.3 11.89 11.89.0 0 0 5.32-2.43 6.86 6.86.0 0 0 1.88-5A9.88 9.88.0 0 0 1485.72 185.59z"/><path class="cls-14" d="M1479.8 185.73a.58.58.0 0 0-.4-.4.63.63.0 0 0-.67.27 1 1 0 0 0-.15.77.38.38.0 0 0 .37.28.82.82.0 0 0 .71-.26A.69.69.0 0 0 1479.8 185.73z"/><path class="cls-14" d="M1477.6 186.56c-.77-.44-2.39.18-1.9 1.23.0.0.0.0.0.0a1.06 1.06.0 0 0 1.15.9 1.48 1.48.0 0 0 1.28-.91A1.09 1.09.0 0 0 1477.6 186.56z"/><path class="cls-14" d="M1478.06 185.08a.37.37.0 0 0-.36-.09h0a.32.32.0 0 0-.29.25.66.66.0 0 0-.06.2.37.37.0 0 0 .18.31.36.36.0 0 0 .36.0h0 .06A.42.42.0 0 0 1478.06 185.08z"/><path class="cls-14" d="M1474.05 189.08a1.22 1.22.0 0 0-.07-.17.37.37.0 0 0-.64.0 1.15 1.15.0 0 0-.06.17.4.4.0 0 0 .38.5A.41.41.0 0 0 1474.05 189.08z"/><path class="cls-14" d="M1472.77 191.31h0a.39.39.0 1 0 0 .4h0A.37.37.0 0 0 1472.77 191.31z"/><path class="cls-14" d="M1475.27 185.23a.25.25.0 0 0-.24-.2.27.27.0 0 0-.26.33.31.31.0 0 0 .29.22.24.24.0 0 0 .21-.12A.21.21.0 0 0 1475.27 185.23z"/><path class="cls-14" d="M1479.38 182.87v0c-.16-.2-.49.0-.49.21s.33.4.49.2v0A.27.27.0 0 0 1479.38 182.87z"/><path class="cls-18" d="M1480.15 179.13a7.74 7.74.0 0 0-4.05-.61 11 11 0 0 0-5 1.37 14.57 14.57.0 0 0-5.52 5.11c-1.39 2.17-2.18 4.91-.82 7.26a8.08 8.08.0 0 0 6 3.66c4.75.74 11.57.48 14.51-4S1484.93 181.12 1480.15 179.13z"/></g></g></svg>