<svg xmlns="http://www.w3.org/2000/svg" viewBox="0 0 274.66 359.06"><defs><style>.cls-1{fill:#b9a4ba}.cls-2{fill:#a78fa9}.cls-11,.cls-20,.cls-3{fill:none}.cls-11,.cls-14,.cls-20,.cls-21,.cls-3{stroke:#4d3224}.cls-11,.cls-14,.cls-21,.cls-3{stroke-linecap:round;stroke-linejoin:round}.cls-14,.cls-20,.cls-21,.cls-3{stroke-width:1.6px}.cls-4{fill:#9695a4}.cls-5{fill:#787686}.cls-6{fill:#a4a3b4}.cls-7{opacity:.37}.cls-8{fill:#acabbc}.cls-9{fill:#a5a5b4}.cls-10{fill:#bebecf}.cls-11{stroke-width:1.57px}.cls-12{fill:#818094}.cls-13{opacity:.56}.cls-14,.cls-23{fill:#b2d152}.cls-15{fill:#93bc3e}.cls-16{fill:#f5b8be}.cls-17{fill:#f08792}.cls-18{fill:#dd5865}.cls-19{fill:#df5d67}.cls-20{stroke-miterlimit:10}.cls-21{fill:#9ebc40}.cls-22{fill:#dd5e69}</style></defs><title>資產 255</title><g id="圖層_2" data-name="圖層 2"><g id="技能"><path class="cls-1" d="M106.93 327.23a11.29 11.29.0 0 0-5.9-.89 16 16 0 0 0-7.33 2 21.07 21.07.0 0 0-8 7.44c-2 3.16-3.17 7.15-1.2 10.58 1.85 3.21 5.26 4.78 8.76 5.32 6.92 1.08 16.86.71 21.13-5.78C118.76 339.22 113.9 330.13 106.93 327.23z"/><path class="cls-2" d="M115.05 336.64a13.78 13.78.0 0 0-3.54-6.27c-1.32-1.39-3.17-3.08-5.18-3.29a6.1 6.1.0 0 0-.76-.23.24.24.0 0 0-.18.43 9 9 0 0 1 3.2 3.29 6.27 6.27.0 0 1 .53 1.6c-1.65-.85-3.46 2-2.45 3.5a1.82 1.82.0 0 0 2.48.28 12.25 12.25.0 0 1-.52 2.13h0a2.73 2.73.0 0 0-3 .87 2.54 2.54.0 0 0 0 3 1.66 1.66.0 0 0 .63.54 14.42 14.42.0 0 1-1 1.1c-.1.11-.22.21-.33.31-.21-1.17-1.81-1.81-2.94-1.93-1.61-.18-3.38 1.38-3.89 2.81a2 2 0 0 0 .55 2.5 20.1 20.1.0 0 1-5.33.64c-3.2.0-8-.28-9.71-3.42a.16.16.0 0 0-.29.12 5.65 5.65.0 0 0 .71 1.31.21.21.0 0 0 0 .2 11.13 11.13.0 0 0 4 3.34c2 1.66 4.73 2 7.17 2.27a25.43 25.43.0 0 0 9.68-.43c2.71-.69 5.69-1.59 7.76-3.54a10 10 0 0 0 2.74-7.31A14.22 14.22.0 0 0 115.05 336.64z"/><path class="cls-2" d="M106.44 336.84a.89.89.0 0 0-.59-.59 1 1 0 0 0-1 .4 1.55 1.55.0 0 0-.22 1.13.57.57.0 0 0 .54.41 1.26 1.26.0 0 0 1-.38A1.06 1.06.0 0 0 106.44 336.84z"/><path class="cls-2" d="M103.23 338.05c-1.12-.64-3.49.26-2.78 1.79v.05a1.57 1.57.0 0 0 1.68 1.31 2.16 2.16.0 0 0 1.87-1.33A1.59 1.59.0 0 0 103.23 338.05z"/><path class="cls-2" d="M103.89 335.9a.55.55.0 0 0-.53-.14h0a.45.45.0 0 0-.42.37.55.55.0 0 0-.09.29.53.53.0 0 0 .26.44.51.51.0 0 0 .52.0h0 .1A.61.61.0 0 0 103.89 335.9z"/><path class="cls-2" d="M98.05 341.72a2.34 2.34.0 0 0-.09-.24.55.55.0 0 0-.94.0 2.34 2.34.0 0 0-.09.24.58.58.0 1 0 1.12.0z"/><path class="cls-2" d="M96.19 345h0a.57.57.0 1 0 0 .58v0A.54.54.0 0 0 96.19 345z"/><path class="cls-2" d="M99.83 336.11a.37.37.0 1 0-.72.19.44.44.0 0 0 .41.33.37.37.0 0 0 .31-.18A.32.32.0 0 0 99.83 336.11z"/><path class="cls-2" d="M105.82 332.68v0c-.23-.3-.71.0-.71.3s.48.59.71.29v0A.4.4.0 0 0 105.82 332.68z"/><path class="cls-3" d="M106.93 327.23a11.29 11.29.0 0 0-5.9-.89 16 16 0 0 0-7.33 2 21.07 21.07.0 0 0-8 7.44c-2 3.16-3.17 7.15-1.2 10.58 1.85 3.21 5.26 4.78 8.76 5.32 6.92 1.08 16.86.71 21.13-5.78C118.76 339.22 113.9 330.13 106.93 327.23z"/><path class="cls-4" d="M76.21 4.29l42.14 1.82s31.49 1.58 37.78 11.81L165.63 30l-17.37.87-29.12-6.69-17.71 3.54L86.47 23l-26-12.2L37.27 3.36l-5.9-1.58z"/><path class="cls-5" d="M0 11.47C9 1.07 23 .66 35 2.16 51.39 4.22 65.41 13.37 80.22 20.23c7.54 3.49 15.91 7 24.35 7 3.92.0 7.68-1.74 11.56-2.11 4.41-.43 8 .56 12.07 2.26 6.52 2.71 12.38 6.66 19.46 7.82 5.13.83 14.61 1.62 17-4.3.0-.2.0-.4.0-.59a.53.53.0 0 1 1-.3.7.7.0 0 1 .56.82c0 .12-.05.23-.07.35 3.7 9.22 3 16.53-.43 26-2.27 6.32-2.46 11.67.56 17.74 1.93 3.87 4.47 7.21 5.1 11.59 1 7-6.32 10.55-12 11.78a46.91 46.91.0 0 1-17 .06c-12.1.69-26.33-7.78-31.3 8.86-2.2 7.37-2.1 15.77-3.68 23.36-1.48 7.15-3.69 14.17-8.42 19.88-5.14 6.21-11.68 10.89-16.48 17.43-5.05 6.88-7.37 14.65-9.55 22.76-3.5 13-7.07 26.88-14.77 38.13a.75.75.0 0 1-.48 1l-.29.11c-.92 1.28-1.88 2.53-2.92 3.73a1 1 0 0 1-1.49.0c-3.55 5.49-4 15-4.39 20-.92 11.27.88 21.67 2.24 32.86C51.33 291.12 54 299.34 49 3e2c-11.84 1.68-25.09.86-36.82-1.14-7.71-1.32-8.6-3.47-12.2-7.28V11.47"/><path class="cls-6" d="M114.13 99.68c3.66-6.22 15.13-4.16 20.76-3.6 6.23.62 12.49 1.4 18.75 1.72S168.2 96.45 171.82 90c.41-.73.51-3.22 1.74-.52 5.36 7.88 31.93 13.44 42.25 27.24a1.3 1.3.0 0 1-.2 1.58c-5.83 6-23.94-4-31.51-7.48-9.31-4.25-21.06 2.16-30.69 2.83-4.55.32-8.54-1.43-12.69-3-5.84-2.24-16.39-1.45-22.36-2.55C113.9 107.25 110.77 105.38 114.13 99.68z"/><g class="cls-7"><path class="cls-8" d="M99.07 47a8.29 8.29.0 0 1 1.25-4.87 1.38 1.38.0 0 1 1.57-.43c.81-5.08 1.9-10.48 3.93-14.87a.77.77.0 0 1 1.39.19c.05.3.1.62.13.93 6.93-1.49 13.59-3.94 20.17-.42a1 1 0 0 1 .08-.14c.38-.64 1.53-.21 1.23.52l-.21.53a1.1 1.1.0 0 1-.52 1.26C124 39.61 120.09 49 120.26 60c.18 11.73 7 22.71 6.44 34.41a1.16 1.16.0 0 1-1.94.77 2.79 2.79.0 0 1-1.37.58 2.39 2.39.0 0 1-1.34-.27 1.23 1.23.0 0 1-1.86-1.08c.37-10.29-7.57-17.51-13.5-25.44A1.44 1.44.0 0 1 104.54 70c-1.78-1.31-1.76-4-1.23-5.91a1 1 0 0 1 .08-.18c-.3-.54-.59-1.08-.86-1.64a22.69 22.69.0 0 1-1.82-11.92C99.21 50.29 99.09 48.09 99.07 47z"/><path class="cls-8" d="M95.7 46.3a1.13 1.13.0 0 1 2.09.56c-.13 2 .06 4.74-1.08 6.44a1.26 1.26.0 0 1-2.15.0C93.4 51.2 94.51 48.2 95.7 46.3z"/><path class="cls-8" d="M96.64 55.35a1.1 1.1.0 0 1 2.11.0c.24 1.28.48 2.59.62 3.89.1 1 0 2.34-1.25 2.44a1.17 1.17.0 0 1-1-.58C96 59.41 96.29 57.28 96.64 55.35z"/><path class="cls-8" d="M100.74 66.44c.89 1.29 2 3.1 1.65 4.72a1.24 1.24.0 0 1-2 .54c-1.23-1-1.63-3.22-1.71-4.69C98.57 65.8 100.15 65.58 100.74 66.44z"/><path class="cls-8" d="M107.53 74.87a5.3 5.3.0 0 1 2.13 2.54c.51 1.22 1.24 2.94.15 4a1.2 1.2.0 0 1-1.16.3c-2-.6-1.75-3.82-2.58-5.41C105.61 75.42 106.58 74.27 107.53 74.87z"/></g><path class="cls-9" d="M101 23.94a26.15 26.15.0 0 0 9.54-1c1.56-.94 3.1-2.06 4.8-3 6.05-3.2 16 .59 22 2.21 4.49 1.2 14 6.54 18.24 3 4.87-4.08-11.1-11.19-13.35-12.86a.53.53.0 0 1-.13-.13l-1.53-.95a.23.23.0 0 1 .11-.42c7.07-.13 14.82 5.55 19.57 10.34 4.38 4.42 10.39 13.28-1.94 14.31a41.27 41.27.0 0 1-26.5-6.79 37.13 37.13.0 0 0-9.13-5.12c-3.74-1.27-7.83.84-11.27 2.09-.17.06-1.12.56-1.41.72a10.38 10.38.0 0 1-5.91 1c-.35.0-.7-.08-1.05-.14-3.3.0-17.31-4.12-18.49-4.84C83.9 21.93 97.59 22.53 101 23.94z"/><path class="cls-10" d="M139.19 107.9c4.78.69 9.31 1.8 14.2 1.69 5.16-.11 8-3 11.89-5.79 4.51-3.23 10.71-.65 15.47.47 2.17.51 4.29 1.43 6.41 2.1 1.56.49 10.05 5.23 12.12 3.17s-7.64-6.3-7.92-6.55c-4.86-4.15-5.76-5.85-1.23-2.85 9.58 3.51 20.81 7.34 25.3 16.87a1.56 1.56.0 0 1-.56 2.13c-9.41 4.13-19.73-2.47-28.08-6.4-6.62-3.11-12.68-4-19.87-2.14-6.12 1.62-11.64 4.08-18.07 2.6a104.7 104.7.0 0 1-10.15-4.15C138 108.69 138.53 107.8 139.19 107.9z"/><g class="cls-7"><path class="cls-8" d="M142.75 43.81a1.14 1.14.0 0 1 2.18.0l.09.43A46.29 46.29.0 0 1 147.68 35a.66.66.0 0 1 1.24.0 1.62 1.62.0 0 1 .41.06c.42.14.83.31 1.24.48 1.7-.33 4.1.15 5.51-.09 4.06-.67 6.27-3.12 9.24-5.63a.8.8.0 0 1 1.32.77c0 .23-.12.46-.19.68 2.83 5.91 1.89 12.27.31 18.44-2.51 9.81-4.16 17.86.76 27.31 1.73 3.34 10.84 15.84 1.63 15.62A1.34 1.34.0 0 1 167 92c-1.41-5.49-6.67-9.54-11.87-11.32a1.47 1.47.0 0 1-1.08-1.42c.59-5.18 3.28-12.06-.54-16.44-2.23-2.56-5.33-3.58-7.22-6.55a13.34 13.34.0 0 1-1.73-7.17 1.39 1.39.0 0 1-2.08-.78A9.86 9.86.0 0 1 142.75 43.81z"/><path class="cls-8" d="M151.6 68.75a1 1 0 0 1 1.7.0c.68 1 .55 2.53.59 3.67.0.91-.12 3-1.44 3s-1.37-1.8-1.43-2.66C150.93 71.62 150.9 69.74 151.6 68.75z"/><path class="cls-8" d="M152.41 62.4c.29.25.64.43.93.7a3.66 3.66.0 0 1 .8 1.34 2.62 2.62.0 0 1-.54 2.92 1.09 1.09.0 0 1-1.68-.21c-.66-1.08-.19-2.62-1-3.64S151.67 61.77 152.41 62.4z"/><path class="cls-8" d="M147.59 65.85a1.12 1.12.0 0 1 2.14.0 7.17 7.17.0 0 1 0 4.75 1.27 1.27.0 0 1-2.18.0A7.17 7.17.0 0 1 147.59 65.85z"/><path class="cls-8" d="M148.61 77.9a1.13 1.13.0 0 1 2.16.0c.17 1 .44 2.48-.15 3.39a1.09 1.09.0 0 1-1.85.0C148.18 80.38 148.45 78.92 148.61 77.9z"/><path class="cls-8" d="M137.15 44.13a1.23 1.23.0 0 1 2.36.0c.32 1.59.67 3.89-.41 5.23a1.08 1.08.0 0 1-1.54.0C136.48 48 136.83 45.72 137.15 44.13z"/><path class="cls-8" d="M140.29 52.06a1.19 1.19.0 0 1 2.28.0c.19 1 .53 2.6-.34 3.38a1.15 1.15.0 0 1-1.6.0C139.76 54.66 140.1 53.07 140.29 52.06z"/></g><path class="cls-11" d="M.84 11.47C12.58-4.67 35.35 2.16 51 7.14c16.45 5.24 41.41 25.63 59.07 19.24.0.0 11.71-4.24 21.81 2.31.0.0 16.15 15.27 34.77 1.86.0.0-6.32-19.66-37.54-23.62C102.38 5.59 76.21 4.29 49.55 2.14 34.63.94 11.25-2.83.84 11.47z"/><path class="cls-11" d="M166.64 30.55s3.66 10.2-1.06 23.58c0 0-4.11 10.35 1.94 22.85.0.0 4.24 7.16 4.3 13"/><path class="cls-12" d="M122.61 311.28c12.67-.76 25.28-1.94 38.18-2.31 16.57-.47 32.78 2.13 49.27 2.11 17.55.0 35.1-2.9 52.62-2.34a11.62 11.62.0 0 0 4.92-.51c5.5-2.29 2.14-13.63 1.55-18-.88-6.52-1.65-13.31-4.51-19.32-3.28-6.88-8.52-13-11-20.2-2.71-7.78-.61-15.27-.7-23.26-.09-7.21-1-15.18-5.6-21-2.38-3-5.44-5.49-8.3-8.11a56.94 56.94.0 0 1-4.74-6.66c-2.85-5.18-2.72-10.67-4.2-16.23-1.63-6.09-5.76-10.56-9.83-15.15a61.17 61.17.0 0 1-3.87-5.18c-7.21-11.28 3.36-22.86-.44-34.93a2.14 2.14.0 0 0-3.64-.72c-6.21 2.33-15.55-2.9-20.8-5.3-7.44-3.4-15.06-3.85-23-2.37-6 1.12-11.78 2.91-17.94 1.51-5.09-1.15-10-3.2-15.13-4.11-5.74-1-16.12 2.25-20.57-2.2a1.49 1.49.0 0 0-.82-.46c-.16-.7-1.29-.67-1.55.0-4.64 12.59-7.56 25.56-16.56 36-7 8.14-15.76 15-21.66 24a94.72 94.72.0 0 0-13.09 31.68c-.94 4.57-1.57 9.23-2.64 13.78a20.67 20.67.0 0 1-4 8.17c-1.89 2.24-4 4.29-5.85 6.57a31.06 31.06.0 0 0-7 17.82 89.2 89.2.0 0 0 1.73 23.6c.43 13.61 4.61 30.11 16.3 37.37 8.85 5.5 19.87 5.14 29.92 5.85A255.36 255.36.0 0 0 122.61 311.28z"/><g class="cls-13"><path class="cls-8" d="M143.1 137c1.78-6.05 5.92-15.28 1.62-21-1-1.37.78-3.07 2.13-2.6 1.74-.79 3.92-.16 5.79-.14 2.27.0 4.46-.82 6.69-.76a1.26 1.26.0 0 1 .72.24.69.69.0 0 1 1 .58c2.2 15.14-9.61 29.17-5 44.32 3.62 11.9 14.23 19.51 13.7 32.88a1.29 1.29.0 0 1-2.58.0c-1.69-16.28-23.07-18.92-26.73-33.89C138.89 150.24 141.33 143 143.1 137z"/><path class="cls-8" d="M138.73 132.35a1.07 1.07.0 0 1 2.13.0c.14 1.44.15 3.14-.77 4.32a1.07 1.07.0 0 1-1.78-.46C138 135 138.57 133.59 138.73 132.35z"/><path class="cls-8" d="M133.34 136.11a4.24 4.24.0 0 1 1.6-3 .91.91.0 0 1 1.37.79c-.07 1.06-.44 2.08-.53 3.15-.07.84-.38 2.09-1.45 1.86S133.22 136.9 133.34 136.11z"/><path class="cls-8" d="M135.19 140.81c.49-1.17 2-.41 2.13.58a9.12 9.12.0 0 1-.39 4.7 1.18 1.18.0 0 1-2 0A6.71 6.71.0 0 1 135.19 140.81z"/><path class="cls-8" d="M130.63 148.88a1.16 1.16.0 0 1 2.31.0 15.35 15.35.0 0 1 .13 4.17 1.12 1.12.0 0 1-2 .26C130.29 152 130.52 150.31 130.63 148.88z"/><path class="cls-8" d="M136.86 154.74c.29 1.42.63 2.82.89 4.25.34 1.82-2.49 2.55-2.75.76-.23-1.56-.38-3.12-.58-4.68C134.24 153.68 136.58 153.38 136.86 154.74z"/><path class="cls-8" d="M137.32 124.6a1 1 0 0 1 1.88.26c0 .82-.07 1.66-.09 2.49s-.09 1.79-.8 2.21a.7.7.0 0 1-.66.0c-.73-.44-.73-1.45-.76-2.21A7.14 7.14.0 0 1 137.32 124.6z"/></g><g class="cls-13"><path class="cls-8" d="M182.94 111.67a1.06 1.06.0 0 1 1.95-.15 1.82 1.82.0 0 1 1.19.23c4.51 2.56 9 5.16 13.93 6.86 5.41 1.87 10.72 1 16.17 2a1.43 1.43.0 0 1 .95 1.85c2.17 5 .09 10.83-1.39 15.86-4.41 10.5 3.84 19.92 7.41 24.59 4 5.25 7.46 10.56 8.2 17.27.47 4.26.48 8.65 2.33 12.6 1.56 3.33 5.32 5.61 8.18 7.67 5.76 4.13 9.15 6.82 10.79 13.8s1 16.54.0 23.41c-1.3 8.61-2.14 14.8 3.56 21.75 4.53 5.53 8.08 10.82 9.66 17.92 1.73 7.79 2.59 16.43 1.13 24.29a1 1 0 0 1-1.84.0c-.3-1.53-.55-3-.78-4.57a.76.76.0 0 1-.57-.68c-.59-4.46-.83-9-2.17-13.32-1.53-5-5.4-9-8.17-13.31-6.18-9.53-10.56-19.93-19.06-27.73-6.95-6.39-11.49-11.51-12-21.29-.53-9.33.53-19.29-3.31-28.08-3.6-8.23-11.74-11-19.26-14.54-6.52-3.06-12.22-7.19-15.74-13.59-4-7.28-4.07-16.6-4.36-24.68C179.36 130.52 179.73 120.48 182.94 111.67z"/><path class="cls-8" d="M216.43 203.43a4.74 4.74.0 0 1 1.78 3c.3 1.2.73 2.95.0 4a1.44 1.44.0 0 1-2.22.29c-.88-.85-.79-2.06-.89-3.19s-.2-2.12-.28-3.18A1.09 1.09.0 0 1 216.43 203.43z"/><path class="cls-8" d="M208.44 208a1.38 1.38.0 0 1 1-1.29 1.34 1.34.0 0 1 1.52.61 18.46 18.46.0 0 1 .93 3.67c.17.81.19 2.58-.86 2.87s-1.78-.93-2.06-1.68A9.59 9.59.0 0 1 208.44 208z"/><path class="cls-8" d="M213.16 214.71a1.06 1.06.0 0 1 1.92-.25 17.72 17.72.0 0 1 1.56 4.51c.39 1.68-2.12 2.93-2.9 1.22A9.44 9.44.0 0 1 213.16 214.71z"/><path class="cls-8" d="M211.55 194.52c.48 1.1 2.08 4.63.43 5.39-1 .44-1.58-.63-1.8-1.42-.3-1-.4-2.07-.74-3.08C209 194.18 211 193.32 211.55 194.52z"/><path class="cls-8" d="M217 226.76c.37-1 2-1.55 2.52-.33a21.16 21.16.0 0 1 .92 3.43 20.29 20.29.0 0 1 .85 4.21c.09 2.18-2.78 2.19-3.5.47C216.9 232.47 216.14 228.92 217 226.76z"/><path class="cls-8" d="M225.86 238.08c1.92.58 3 2.94 3.77 4.59a2 2 0 0 1-.69 2.62 1.91 1.91.0 0 1-2.61-.69c-.45-.9-.86-1.82-1.24-2.76a7.66 7.66.0 0 1-.79-2.57A1.24 1.24.0 0 1 225.86 238.08z"/><path class="cls-8" d="M217.72 242.94c0-.07.0-.1.0-.15a1.12 1.12.0 0 1 1.39-1.24 2.85 2.85.0 0 1 1.3.65 5.21 5.21.0 0 1 1 1.54c.24.53.49 1.06.68 1.6a3.55 3.55.0 0 1 .23.92c0 .06.17 1.38.0.53.14.75-.52 1.76-1.4 1.4a3.71 3.71.0 0 1-1.44-.76 5 5 0 0 1-1.06-1.88 14.46 14.46.0 0 1-.48-1.4c-.06-.22-.14-.43-.2-.64A1.11 1.11.0 0 1 217.72 242.94z"/><path class="cls-8" d="M228.49 249.55c1.66.85 3.26 2.62 2.89 4.61a1.34 1.34.0 0 1-2.23.59c-.76-.93-.92-2.27-1.92-3A1.25 1.25.0 0 1 228.49 249.55z"/><path class="cls-8" d="M211.77 229.11a1.23 1.23.0 0 1 1.71.0 3.9 3.9.0 0 1 .81 2.37 5.17 5.17.0 0 1 .12 2.67 1.18 1.18.0 0 1-1.7.69 3.42 3.42.0 0 1-1.41-2.53C211.12 231.23 210.91 230 211.77 229.11z"/><path class="cls-8" d="M207.44 221.42a1.1 1.1.0 0 1 2.1.0 3.67 3.67.0 0 1 .11 2.05 1.21 1.21.0 0 1-2.32.0A3.67 3.67.0 0 1 207.44 221.42z"/><path class="cls-8" d="M237 251.29c2.09 2.13 4.91 5.9 4.27 9.06-.29 1.46-2.21 1.44-2.92.38s-.85-2.74-1.24-4.06c-.45-1.52-1-3-1.6-4.51C235.17 251.3 236.42 250.68 237 251.29z"/></g><path class="cls-11" d="M114.13 99.68s-6 16.63-9.16 27.65c0 0-12.59 22-21.25 27.55.0.0-18.11 14.17-21.26 32.28a153.43 153.43.0 0 1-4.93 24.13c-3.61 12.05-13.74 20.4-16.39 33-2.79 13.2-.44 27.16 4 39.72"/><path class="cls-11" d="M214.87 119.14a30.87 30.87.0 0 1 2.55 11.41c.82 14.37-5.69 20.26 5.73 32.33.0.0 9.34 14 7 21.91.0.0 3.62 15 17.16 21.65.0.0 10.39 10.63 4.88 25.58.0.0-.79 22.83 9.44 32.28.0.0 13.62 25.27 6.81 44.12"/><path class="cls-11" d="M138 96.63S106.51 89 114.79 107c0 0 2.77 4.6 16.94 3.81.0.0 11.34-.43 15.12 2.54.0.0 1 3.17 14.19-.08.0.0 21-5.66 25.75-.52.0.0 16.76 12.38 28.08 6.4.0.0 3.45-8.34-14.65-15.42.0.0-26-17.32-35.43-8.66C164.79 95.06 156.13 102.14 138 96.63z"/><path class="cls-14" d="M160.14 266.92c2.6 5.75 7.28 8.62 12.16 12.24a17.37 17.37.0 0 1 3.76 3.45c.71.95 4.11 6.44 4.93 7.32 1.08 1.15-.18-2.79 1.19-3.88s2.15-5.08 1.27-7.24c-.77-6.25-7.43-9.59-12.17-12.74a28.27 28.27.0 0 1-7.95-7.5 25.46 25.46.0 0 1-2.94-5.37c-.3-.8-.52-1.67-.79-2.51a11.87 11.87.0 0 0-.77-3.4.26.26.0 0 0-.49.0 14.66 14.66.0 0 0-.35 5.08c0 1.92.1 3.84.29 5.74A27.42 27.42.0 0 0 160.14 266.92z"/><path class="cls-14" d="M170 251c2.15 4.32 5.24 7.67 8.32 11.33A28.35 28.35.0 0 1 184.6 275a1.36 1.36.0 0 0 1.07 1.14 2.85 2.85.0 0 0 1.09.05 1.26 1.26.0 0 0 1.12-1 12.54 12.54.0 0 0 .06-1.48c.48-1.86 1.4-2.91 1.39-4.83a34.27 34.27.0 0 0-.71-7.29c-1.07-4.49-4.37-8.64-7.29-12.16a51.5 51.5.0 0 1-7.47-11.09 31.26 31.26.0 0 1-2.38-6.7 36 36 0 0 1-.47-4.38 7.62 7.62.0 0 0 .47-3.43.23.23.0 0 0-.36-.16 3.52 3.52.0 0 0-.76.78.31.31.0 0 0-.16.19v.1a8.15 8.15.0 0 0-.83 1.93 19.1 19.1.0 0 0-1.85 4.28 27.24 27.24.0 0 0-.75 6.36A32.17 32.17.0 0 0 170 251z"/><path class="cls-14" d="M184 248.12c.32 1.38.6 3.42 1.73 4.41.82.73 2 8.53 2.35 7.46.0-.12.06-8.25.0-8.37a30.37 30.37.0 0 0 2.15-4.88 21.36 21.36.0 0 1 3.36-5.42c3-3.41 6.71-6 9.39-9.73a20.56 20.56.0 0 0 4.32-11.53 24.17 24.17.0 0 0-3.59-13.12 13.87 13.87.0 0 0-1.25-2.88c-.34-.58-1.22-.16-1.16.44.34 3.27 1.44 6.37.5 9.68s-3.26 6-5.74 8.26c-3.81 3.47-8.59 6.69-10.82 11.51A22.38 22.38.0 0 0 184 248.12z"/><path class="cls-15" d="M177.45 255.48c.38 2.7 2.15 4.54 3.57 6.77a26.91 26.91.0 0 1 3.92 10.28 49 49 0 0 1 .3 5.28 5.42 5.42.0 0 0 .69 3.31.52.52.0 0 0 .87-.09 7 7 0 0 0 .75-3.64 20.89 20.89.0 0 0 1-6.82 30.59 30.59.0 0 0-1.79-9.22c-1.14-3.09-3.47-8.26-7.39-8.67C177.84 252.51 177.26 254.18 177.45 255.48z"/><path class="cls-15" d="M166.94 271.43c.35 1.78 2.3 2.78 3.72 3.6a18.12 18.12.0 0 1 8.85 12 1.05 1.05.0 0 0 1.11.68 15.92 15.92.0 0 0 2.92-.5s.05.0.08.0a.67.67.0 0 0 .78-.48c1-4.13-1-9.34-3.44-12.66a15.11 15.11.0 0 0-5.74-4.72c-1.53-.71-4.12-1.94-5.87-1.55A3 3 0 0 0 166.94 271.43z"/><path class="cls-15" d="M186.69 256.77c.22.43 1 .62 1.17.0.64-2 .23-4.2.0-6.28a22.74 22.74.0 0 1 2.59-7.93c1.78-3.22 4.6-5.41 6.64-8.4 1-1.51 2.72-4.16 1.66-6.05-.8-1.41-2.7-1.12-4-.57a16.48 16.48.0 0 0-9.07 11.68 30.88 30.88.0 0 0-.37 8.64C185.56 250.64 185.45 254.28 186.69 256.77z"/><path class="cls-3" d="M185.7 255.73s7.44 4.67 1.1 25.3l-2.4 5.67"/><path class="cls-3" d="M184 248.12c.32 1.38.6 3.42 1.73 4.41.82.73 2 8.53 2.35 7.46.0-.12.06-8.25.0-8.37a30.37 30.37.0 0 0 2.15-4.88 21.36 21.36.0 0 1 3.36-5.42c3-3.41 6.71-6 9.39-9.73a20.56 20.56.0 0 0 4.32-11.53 24.17 24.17.0 0 0-3.59-13.12 13.87 13.87.0 0 0-1.25-2.88c-.34-.58-1.22-.16-1.16.44.34 3.27 1.44 6.37.5 9.68s-3.26 6-5.74 8.26c-3.81 3.47-8.59 6.69-10.82 11.51A22.38 22.38.0 0 0 184 248.12z"/><path class="cls-3" d="M160.14 266.92c2.6 5.75 7.28 8.62 12.16 12.24a17.37 17.37.0 0 1 3.76 3.45c.71.95 4.11 6.44 4.93 7.32 1.08 1.15-.18-2.79 1.19-3.88s2.15-5.08 1.27-7.24c-.77-6.25-7.43-9.59-12.17-12.74a28.27 28.27.0 0 1-7.95-7.5 25.46 25.46.0 0 1-2.94-5.37c-.3-.8-.52-1.67-.79-2.51a11.87 11.87.0 0 0-.77-3.4.26.26.0 0 0-.49.0 14.66 14.66.0 0 0-.35 5.08c0 1.92.1 3.84.29 5.74A27.42 27.42.0 0 0 160.14 266.92z"/><path class="cls-16" d="M191.85 285.6a9.28 9.28.0 0 0 .92 2.5 13.57 13.57.0 0 0 2.37 5.45 16.31 16.31.0 0 0 7.62 5.76c5.78 2.12 12.81 2.62 18.59.16a21.84 21.84.0 0 0 12.11-13 23.23 23.23.0 0 0 .78-10.42c-.4-3.07-.69-6.91-2.19-9.76-.1-.57-.18-1.15-.24-1.73a34.68 34.68.0 0 1 .24-7.55c.48-4.44-.36-8.48-5-10.08a42 42 0 0 0-9.16-1.71 42.31 42.31.0 0 0-8.71-.36 6.89 6.89.0 0 0-1.86.08 9.31 9.31.0 0 0-4.95 2.43c-3.85 3.71-3.39 10.24-4.26 15.12-1 5.39-3.75 10.06-5.3 15.28C192.06 280.1 191.28 283.11 191.85 285.6z"/><path class="cls-17" d="M202.59 291.29c-.84-.89.07-2.17 1-2.34 6.12-1 10.53-5.15 13.92-10.17a25.86 25.86.0 0 0 3.77-9.28 41.1 41.1.0 0 0 .71-5.74c.09-1.57.38-4.25-.24-5.72a1.79 1.79.0 0 1 1-2.32c2.06-.68 3.37-1.12 3.29-3.56a5.84 5.84.0 0 0-.94-3c-.59-.92-1.71-1.25-2.19-2.23a.39.39.0 0 1 .06-.41.33.33.0 0 1 .46-.39l.16.07a3 3 0 0 1 2.61.76 9.32 9.32.0 0 1 3.42 1.37c2.13 1.51 2.78 4.07 2.68 6.53a24.19 24.19.0 0 1-.9 4c-.38 1.81.22 4 .67 5.7.77 3 1.08 6.19 2.07 9.14a2 2 0 0 1-3.3 2 16.45 16.45.0 0 0-3.86 1 8.5 8.5.0 0 0-3.62 3.92c-.84 1.6-.42 3.69-.32 5.41a12.75 12.75.0 0 1-.61 5.06c-1 3-4.52 5.3-6.52 7.64a14.21 14.21.0 0 0-2.54 4.2c-.24.66-.48 1.33-.74 2a2.62 2.62.0 0 0-.11.4 1.62 1.62.0 0 1 0 1.61 3.8 3.8.0 0 1 0 .9 1.18 1.18.0 0 1-1.9.71c-.11-.11-.22-.24-.32-.36a1.64 1.64.0 0 1-.86-.45 28.52 28.52.0 0 1-5.12-7 12.07 12.07.0 0 1-.81-8.64A5.82 5.82.0 0 1 202.59 291.29z"/><path class="cls-18" d="M213.58 266.69a3.93 3.93.0 0 0 1.12 1.69 3.24 3.24.0 0 0 4.73-.48 4.19 4.19.0 0 0 .76-1.66 4.26 4.26.0 0 0 .11-1.33 3.31 3.31.0 0 0-2-2.82 2.88 2.88.0 0 0-.76-.17 1.88 1.88.0 0 0-.48-.12 3.85 3.85.0 0 0-.83.0 2.73 2.73.0 0 0-1.53.54 3.51 3.51.0 0 0-1 1.29 3.25 3.25.0 0 0-.3 1A4.66 4.66.0 0 0 213.58 266.69z"/><path class="cls-18" d="M222.17 262.23a4 4 0 0 1 .81-3.16 3.67 3.67.0 0 1 4.31-1 3.12 3.12.0 0 1 1.86 4.16 4 4 0 0 1-.66 1.69 3.52 3.52.0 0 1-3.51 1.36A3.77 3.77.0 0 1 222.17 262.23z"/><path class="cls-18" d="M218.22 272.08a3.65 3.65.0 0 1 1.33-2.36 3 3 0 0 1 2.3-.66h.08a3 3 0 0 1 2.14.59 3.66 3.66.0 0 1 1.21 3.29 3.75 3.75.0 0 1-4.31 3.33 3.58 3.58.0 0 1-2.48-2A4.23 4.23.0 0 1 218.22 272.08z"/><path class="cls-18" d="M216.14 281.32a2.61 2.61.0 0 1-3.62-.56 6.79 6.79.0 0 1-.67-1.21 2.67 2.67.0 0 1 2.2-3.59 2.8 2.8.0 0 1 2.12.6 2.76 2.76.0 0 1 .94 1.75c0 .1.0.2.0.3A2.61 2.61.0 0 1 216.14 281.32z"/><path class="cls-18" d="M218.35 283.61a2.45 2.45.0 0 1 1.56.95 2.66 2.66.0 0 1 .46 2 2.42 2.42.0 0 1-2.14 2 2.47 2.47.0 0 1-1.77-.53l-.42-.45a2.28 2.28.0 0 1-.45-1.17 2.47 2.47.0 0 1 .54-2A2.35 2.35.0 0 1 218.35 283.61z"/><path class="cls-18" d="M211.79 289.66c.09-.15.18-.3.28-.45a2 2 0 0 1 .86-.63 1.41 1.41.0 0 1 .59-.16h.06a1.71 1.71.0 0 1 .88.15h.14.0a3.28 3.28.0 0 1 .44.25 1.18 1.18.0 0 1 .41.42 2.06 2.06.0 0 1 .39 1 5.33 5.33.0 0 1 0 .57 2 2 0 0 1-.83 1.35 2.27 2.27.0 0 1-1.58.37h0a2 2 0 0 1-1-.44 2.07 2.07.0 0 1-.58-2.48z"/><path class="cls-19" d="M209 252.16c-.47-3.15 4.61-3.67 6.71-3.82 2.61-.2 6.74-.27 8.74 1.79 3 3.15-.67 5.64-3.76 5.92s-7.06.12-9.91-1.38A2.7 2.7.0 0 1 209.3 253 1.59 1.59.0 0 1 209 252.16z"/><path class="cls-20" d="M191.47 301.68c1.05 6.07 4.26 11.06 11.29 13.64 5.78 2.11 12.81 2.61 18.59.15 8.74-3.72 12.21-11.44 13.1-20.55 1-10-.83-19.09-2.4-28.67-.1-.57-.18-1.15-.24-1.73a34.68 34.68.0 0 1 .24-7.55c.48-4.44-.36-8.48-5-10.08a42 42 0 0 0-9.16-1.71 42.31 42.31.0 0 0-8.71-.36 6.89 6.89.0 0 0-1.86.08 9.31 9.31.0 0 0-4.95 2.43c-3.85 3.71-3.39 10.24-4.26 15.11C196.32 272.22 189.32 289.21 191.47 301.68z"/><path class="cls-20" d="M209 252.16c-.47-3.15 4.61-3.67 6.71-3.82 2.61-.2 6.74-.27 8.74 1.79 3 3.15-.67 5.64-3.76 5.92s-7.06.12-9.91-1.38A2.7 2.7.0 0 1 209.3 253 1.59 1.59.0 0 1 209 252.16z"/><path class="cls-21" d="M263.62 235.2c-5 .06-9.51 2.36-13.17 5.66.85-2.11 1.64-4.24 2.3-6.41a58.31 58.31.0 0 0 1.61-6.88c.39-.59.62-1.26 1-1.92A7.91 7.91.0 0 1 258 223c2.76-1.63 6.15-1.5 9.21-2.19 4.1-.93 8.23-5 6.06-9.52-4.83-10.1-14.25 2.59-18.15 10.46a74.91 74.91.0 0 0-.11-13.64.33.33.0 0 0 .12-.23c0-.26.0-.52.07-.78a14 14 0 0 1 .79-2.83 9.91 9.91.0 0 1 2.53-3.22c1.8-1.53 3.83-2.79 5.53-4.44s3.48-3.75 3.37-6.23c-.08-2-1.14-4.61-3.07-5.51-4.11-1.91-7.68 3.25-8.92 6.5a30.35 30.35.0 0 0-1.79 7.84q-.52-2.48-1.2-4.87c.06-3.42.06-7-.17-10.36a30.35 30.35.0 0 0-1.31-7.63c-1.06-3.14-4.38-7.53-8.24-5.4s-2.31 7.55-.63 10.52a56.83 56.83.0 0 0 5.13 7c.88 1.13 1.76 2.26 2.59 3.43a9 9 0 0 0 1.34 1.67 84.73 84.73.0 0 1 2.44 17.71c-.24-.51-.49-1-.7-1.51-.72-1.64-1.39-3.3-2.15-4.92a28.12 28.12.0 0 0-4.82-7.58c-2.94-3.1-8.34-4.51-10.69.15-2.47 4.9 1.68 8.41 6 9.87a71.17 71.17.0 0 1 7.36 2.42 9.81 9.81.0 0 1 3.7 2.62 22.78 22.78.0 0 1 1.35 2.06 71 71 0 0 1-1.77 15.31c-.13-1.18-.36-2.35-.54-3.32a20.43 20.43.0 0 0-2.38-7.09c-2.15-3.54-7.53-7.37-11.65-4.31-1.65 1.23-2.84 3.56-2.11 5.63s2.72 3.34 4.76 4c2.6.85 5.49 1.22 7.73 2.92a8.41 8.41.0 0 1 2.74 3.86 7.35 7.35.0 0 0 .54 1.72c-.41 1.38-.85 2.75-1.36 4.09s-1.1 2.76-1.67 4.13a14.41 14.41.0 0 0-3.49-7.75c-2-2.18-5.9-4.64-8.84-2.48-2.63 1.94-1.89 6.19.88 7.67 1.84 1 3.89 1 5.8 1.73a8.39 8.39.0 0 1 3.14 2 6.82 6.82.0 0 1 1.18 1.94 95.26 95.26.0 0 0-4.24 11.36 25.24 25.24.0 0 0-1.26-3.9c-.59-1.41-1.36-2.92-2.83-3.55a3 3 0 0 0-3.31.87c-1.88 2.64 1.4 6.4 2.94 8.37a36.82 36.82.0 0 0 3.2 4.21 49.36 49.36.0 0 0-.46 6.32v.09a6.1 6.1.0 0 0-.76-.88c-.9-.86-3-1.7-3.78-.22-.63 1.21 1.29 2.71 2 3.36a19.94 19.94.0 0 0 2.56 2 21.49 21.49.0 0 0 1.19 6.78.33.33.0 0 0 .63-.06 34.58 34.58.0 0 0 .19-7.49 1.1 1.1.0 0 1 .62-.52 4 4 0 0 1 1.89-.08c1.26.22 2.5.62 3.77.74 1.58.15 4.58-.59 4.08-2.82-.44-1.89-3.63-2.14-5.15-2.18a6.52 6.52.0 0 0-5.28 2.64c0-1 0-1.94.0-2.89.09-1.37.24-2.75.43-4.11a.32.32.0 0 0 .18-.13c3-3.83 8.6-2.25 12.4-.49 2 .9 4.08 1.84 6.27 1.47s3.27-2.56 3.45-4.56c.53-5.82-7-6.73-11-5.91-2.46.49-5.37 1.17-7.38 2.77a15.6 15.6.0 0 0-2.69 3.28 4.71 4.71.0 0 0-.64.42 40.61 40.61.0 0 1 1.24-4.57c1.22-3.64 2.76-7.17 4.25-10.72a9 9 0 0 1 3.3-1.31 12.23 12.23.0 0 1 4.08.41c2.77.74 4.92 2.45 7.57 3.43 2 .74 4.27 1 6.13-.32 1.51-1.07 2.93-2.75 2.75-4.74C272.51 237.08 267.59 235.15 263.62 235.2z"/><path class="cls-16" d="M212.36 315.85a75 75 0 0 0 3.51 12.58 2.2 2.2.0 0 0 1.43 2.51c2.29.79 5.08-.18 7.43-.44a73 73 0 0 1 13.3.0 46.69 46.69.0 0 1 5.42.53 17.08 17.08.0 0 0 4.33.49 7.2 7.2.0 0 0 2.67-.78 2.8 2.8.0 0 0 1-.36c6.67-3.92 7.28-13.82 4.45-20.22-1.84-4.13-4-8.16-5.64-12.36a19.09 19.09.0 0 1-1.75-6.82c0-1.77.92-3.21 1.08-4.92.81-8.59-9.72-10.1-16.12-9.87-2.94.1-6.22.14-8.68 2a3.26 3.26.0 0 0-.75.81c-1.17 1.18-1.35 3.32-1.21 5 .27 3.06 1.47 5.77-1 8.23a34.7 34.7.0 0 0-5.62 6.52 13.55 13.55.0 0 0-3.44 7.21C211.32 308.86 211.72 312.73 212.36 315.85z"/><path class="cls-17" d="M216 321.15a7 7 0 0 1-.91-2.35 1.68 1.68.0 0 1 .68-1.52c1.28-1 3.89.77 5.14 1.23a11.74 11.74.0 0 0 7.76-.19 16.85 16.85.0 0 0 10.94-10.79c1.89-5.46-1-11.61 1.5-16.79 1-2.18 6.1-7.12 2.17-12.66 2.54-.47 5.62 2.93 6.56 4.65a6.45 6.45.0 0 1-.78 7.28c.23 1.54-.08 3.15.42 4.71a55.39 55.39.0 0 0 3.45 7.36c2.28 4.67 4.68 9.53 4.4 14.87-.17 3.25-4 16.14-9 12.91-1.77.29-4-.45-5.65-.61a63 63 0 0 0-7.77-.3c-5.25.12-10.24 1.42-15.41 1.95a1.91 1.91.0 0 1-1.14-.25 1.66 1.66.0 0 1-2-1.67c0-1.79.0-3.57-.2-5.36A14.78 14.78.0 0 1 216 321.15z"/><path class="cls-22" d="M243.65 304.4a4 4 0 0 1 .8-2.72 3 3 0 0 1 3.57-.94 3.6 3.6.0 0 1 2.32 2.26 4 4 0 0 1 0 3.12 3.56 3.56.0 0 1-2.85 2A3.81 3.81.0 0 1 243.65 304.4z"/><path class="cls-22" d="M240.88 292a3.94 3.94.0 0 1 .66-1.56 2.42 2.42.0 0 1 1.79-1 2.59 2.59.0 0 1 1.77.52l.08.07a2.43 2.43.0 0 1 .7.39 2.53 2.53.0 0 1 .76 1 2.76 2.76.0 0 1 .16 1.45 2.91 2.91.0 0 1-.58 1.29 3 3 0 0 1-1.49 1 3.38 3.38.0 0 1-1.52.15 2.76 2.76.0 0 1-1.33-.59A2.91 2.91.0 0 1 240.88 292z"/><path class="cls-22" d="M235.72 297.79a2.58 2.58.0 0 1 1.06-1.8 3.2 3.2.0 0 1 1.33-.54l.11-.05a2.73 2.73.0 0 1 2.24.05 3.68 3.68.0 0 1 1.63 4.65 2.84 2.84.0 0 1-1 1.18 3.24 3.24.0 0 1-.7.36 3.13 3.13.0 0 1-1.43.14 3.69 3.69.0 0 1-1-.27 4.32 4.32.0 0 1-1.59-1.25 3.37 3.37.0 0 1-.51-.88A3.19 3.19.0 0 1 235.72 297.79z"/><path class="cls-22" d="M235.41 306.81v0-.15z"/><path class="cls-22" d="M235.41 306.83c.05.19.09.37.14.55C235.5 307.2 235.45 307 235.41 306.83z"/><path class="cls-22" d="M235.37 305.6a2.8 2.8.0 0 1 .54-1.22 2.46 2.46.0 0 1 1-.73 2.81 2.81.0 0 1 3.2 1 3.66 3.66.0 0 1 .72 1.4l.18.71a2.77 2.77.0 0 1-1.74 2.84 2.81 2.81.0 0 1-2.13-.06 2.77 2.77.0 0 1-1.07-.88 2.69 2.69.0 0 1-.5-1.24l-.15-.61A2.59 2.59.0 0 1 235.37 305.6z"/><path class="cls-22" d="M239.94 313.75a3 3 0 0 1 1.51-1.46 2 2 0 0 1 .9-.62 3.09 3.09.0 0 1 2.16.09 3.21 3.21.0 0 1 1.55 1.71 3.94 3.94.0 0 1 .19 2.6 4 4 0 0 1-.34 1.06 3.47 3.47.0 0 1-1 1.26 3.19 3.19.0 0 1-1.48.59 3.11 3.11.0 0 1-1.59-.25 3.37 3.37.0 0 1-1.46-1.18 4.52 4.52.0 0 1-.7-1.88A3.43 3.43.0 0 1 239.94 313.75z"/><path class="cls-22" d="M227.48 313.12a3.11 3.11.0 0 1 2.65-2.53 3.06 3.06.0 0 1 2 .32h.06a3.64 3.64.0 0 1 2.69 3.26 5.32 5.32.0 0 1-.94 3.31 3 3 0 0 1-3.07 1.15 4.22 4.22.0 0 1-2.34-1.58 4.75 4.75.0 0 1-.85-1.64A4.5 4.5.0 0 1 227.48 313.12z"/><path class="cls-22" d="M233.19 321.56a2.89 2.89.0 0 1 1.51-1.47 2 2 0 0 1 .52-.18 2.64 2.64.0 0 1 1.73-.27 2.94 2.94.0 0 1 1.87 1.11 3.7 3.7.0 0 1 .74 1.68 3.48 3.48.0 0 1-.75 2.84 3.14 3.14.0 0 1-2.9 1.09 3.63 3.63.0 0 1-3-3.23A3.35 3.35.0 0 1 233.19 321.56z"/><path class="cls-22" d="M248.29 315.51a4.39 4.39.0 0 1 1.13-.93l.57-.31a2.51 2.51.0 0 1 1.33-.14l.42.12h0a2 2 0 0 1 .73.24 2.85 2.85.0 0 1 .29 5 4.89 4.89.0 0 1-1.69.64 2.53 2.53.0 0 1-1.13.0 2.93 2.93.0 0 1-1.33-.6 2.71 2.71.0 0 1-.86-1.15A2.86 2.86.0 0 1 248.29 315.51z"/><path class="cls-22" d="M243.58 323.11a3 3 0 0 1 .44-.64 2 2 0 0 1 1.36-.73 1.89 1.89.0 0 1 1.48.44 2.5 2.5.0 0 1 .92 1.62 2.38 2.38.0 0 1-1 2.17 2.17 2.17.0 0 1-3.43-1.53A2.91 2.91.0 0 1 243.58 323.11z"/><path class="cls-19" d="M229.41 281.32c1.48-1.93 5.13-1.87 7.28-1.86 2.52.0 6.59.4 7.36 3.4a2.43 2.43.0 0 1-.82 2.79c-3.92 2.31-10 2.24-13.71-.54A2.5 2.5.0 0 1 229.41 281.32z"/><path class="cls-3" d="M250.45 330.73a2.8 2.8.0 0 0 1-.36c6.67-3.92 7.28-13.82 4.45-20.22-1.84-4.13-4-8.16-5.64-12.36a19.09 19.09.0 0 1-1.75-6.82c0-1.77.92-3.21 1.08-4.92.81-8.59-9.72-10.1-16.12-9.87-2.94.1-6.22.14-8.68 2a3.26 3.26.0 0 0-.75.81c-1.17 1.18-1.35 3.32-1.21 5 .27 3.06 1.47 5.77-1 8.23a34.7 34.7.0 0 0-5.62 6.52 13.55 13.55.0 0 0-3.44 7.21c-1.46 3-1.06 6.84-.42 10a75 75 0 0 0 3.51 12.58 2.2 2.2.0 0 0 1.43 2.51"/><path class="cls-3" d="M229.41 281.32c1.48-1.93 5.13-1.87 7.28-1.86 2.52.0 6.59.4 7.36 3.4a2.43 2.43.0 0 1-.82 2.79c-3.92 2.31-10 2.24-13.71-.54A2.5 2.5.0 0 1 229.41 281.32z"/><path class="cls-16" d="M166.61 335.57c.89 2.46 2.51 5.58 4.57 7.26a2.48 2.48.0 0 0 2.57.44l.22.05c2.9.61 5.7-1.59 8.74-.79 1.48.39 3 1.32 4.54 1.16a7.56 7.56.0 0 0 3.23-1.6c2.79-1.89 7.12-2.55 10.41-3a33 33 0 0 1 5.06-.3 17.77 17.77.0 0 0 3.42.0 2.29 2.29.0 0 0 3.53-.37c6-8.27 4.5-18.55-1.11-26.57-1.48-2.11-3.18-4-4.7-6.13-1.26-1.71-3.2-3.84-3.53-6-.54-3.66.3-8.2-3-10.78-4.57-3.53-12.08-2.29-17.37-1.18-2.55.53-5.75 1.23-7.41 3.46a5.69 5.69.0 0 0-1.14 4.63c-.14 1.6.08 3.22.08 4.93a16.65 16.65.0 0 1-1.76 7.4c-2.06 4.26-4.89 8.09-6.27 12.67S165 331.14 166.61 335.57z"/><path class="cls-17" d="M165.57 327.06c-.06-.17-.13-.33-.18-.5-.32-1.07-.21-4 1.62-3.74 1.32.22 1.76 2.59 2.5 3.5 1.36 1.69 3.6 2.44 5.59 3a16.41 16.41.0 0 0 14.12-2.86c6.64-4.73 8.56-12.17 8.05-19.93-.23-3.53-1.16-7.47.23-10.89.68-1.7 1.82-3.48.66-5.23-.9-1.36-2.74-1.89-3.91-3a.53.53.0 0 1 .28-.93c4.91-.8 10.12 2.62 9.09 8a10.9 10.9.0 0 1-.67 2.1 24 24 0 0 0 .82 2.85 24.63 24.63.0 0 0 3.56 6c2.51 3.34 5.22 6.44 7.13 10.18 1.81 3.53 2 7.67 1.83 11.55-.14 3.6-1.1 7.64-3.5 10.43a2.58 2.58.0 0 1-3.39.62c-3 .55-6.27.0-9.32.39a31.42 31.42.0 0 0-9.88 3 15.34 15.34.0 0 1-3.74 1.56c-1.6.33-3.42-.56-4.94-.93-2.76-.66-6 1-8.72 1.11a2.49 2.49.0 0 1-2.26-1c-2.24-1-3.3-3.53-4.09-5.82A21.61 21.61.0 0 1 165.57 327.06z"/><path class="cls-22" d="M195.55 301.48a3.4 3.4.0 0 1 3.66-2.05 3.86 3.86.0 0 1 2.78 2.41 3.51 3.51.0 0 1 .32 1.43 3.86 3.86.0 0 1-.75 2.51 2.72 2.72.0 0 1-3.55.58 3.57 3.57.0 0 1-1.89-1.22A3.72 3.72.0 0 1 195.55 301.48z"/><path class="cls-22" d="M202.71 311.94a4.52 4.52.0 0 1 5.46.09 4.29 4.29.0 0 1 1.54 2.09 3.37 3.37.0 0 1-.38 3.05c-.05.1-.1.2-.16.3a5 5 0 0 1-2.3 2.1 3.71 3.71.0 0 1-2.35.17 4.6 4.6.0 0 1-3.23-3A4.31 4.31.0 0 1 202.71 311.94z"/><path class="cls-22" d="M190.67 311.82a3.06 3.06.0 0 1 1.74-1.68 2.85 2.85.0 0 1 2.53.21 4.52 4.52.0 0 1 1.07.55 3.66 3.66.0 0 1 1.11 1.49 3.74 3.74.0 0 1 .3 2 2.4 2.4.0 0 1-.3 1.05 3.26 3.26.0 0 1-.92 1.13 3 3 0 0 1-.74.42 3.32 3.32.0 0 1-2.77-.17 4 4 0 0 1-1.66-1.47 4.45 4.45.0 0 1-.64-1.68A3.4 3.4.0 0 1 190.67 311.82z"/><path class="cls-22" d="M194.32 320a3.2 3.2.0 0 1 2.05-1.15 3 3 0 0 1 .89.0h.11a2.44 2.44.0 0 1 .81.0 4.44 4.44.0 0 1 2.33 7.26 3.6 3.6.0 0 1-4.07 1c-1.7-.58-2.63-2.53-2.89-4.17A3.9 3.9.0 0 1 194.32 320z"/><path class="cls-22" d="M204.08 324.8a3.46 3.46.0 0 1 3.38-.31l.2.13a3.57 3.57.0 0 1 1.59.7 4 4 0 0 1 .79 4.76 4.22 4.22.0 0 1-7.62-.47A4.21 4.21.0 0 1 204.08 324.8z"/><path class="cls-22" d="M196.27 332.19c0 .05.0.11-.05.16q.08-.3.18-.6a.06.06.0 0 0 0 0 .08.08.0 0 1 0 0c0-.11.08-.22.13-.33a3.16 3.16.0 0 1 .47-.69h0s0 0 0 0a3.83 3.83.0 0 1 .41-.39 2.16 2.16.0 0 1 1.67-.39 2.58 2.58.0 0 1 2.06 1.77 2.75 2.75.0 0 1 .15 1.42c-.07.25-.15.51-.24.76a2.58 2.58.0 0 1-4.45.58 2.64 2.64.0 0 1-.49-1.28A2.33 2.33.0 0 1 196.27 332.19z"/><path class="cls-22" d="M185.8 329.49a3.78 3.78.0 0 1 .79-2.58 2.72 2.72.0 0 1 1.1-.8l.69-.16a2.17 2.17.0 0 1 .36.0l.31-.06a3 3 0 0 1 2.44.73 3.08 3.08.0 0 1 .9 1.24 3.19 3.19.0 0 1 .15 1.62 3.58 3.58.0 0 1-.75 1.6 4 4 0 0 1-1.47 1.09 2.34 2.34.0 0 1-1.09.27 3.23 3.23.0 0 1-1.57-.25 3.08 3.08.0 0 1-1.23-1A3 3 0 0 1 185.8 329.49z"/><path class="cls-22" d="M188 334.6h0a2.4 2.4.0 0 1 .4-.38l-.06.06a2.27 2.27.0 0 1 1.12-.48 3.53 3.53.0 0 1 .65.0 2.28 2.28.0 0 1 1.06.48 2.19 2.19.0 0 1 .82 1.53.0.0.0 0 0 0 0 2.41 2.41.0 0 1-.5 1.66 2.27 2.27.0 0 1-4-1.2A2.36 2.36.0 0 1 188 334.6z"/><path class="cls-19" d="M183.26 292.48h.54A21.16 21.16.0 0 1 195 291a2.17 2.17.0 0 1 .91 3.86c-3.54 2.3-8.07 2.33-12.12 2.85C180.42 298.16 179.87 292.82 183.26 292.48z"/><path class="cls-3" d="M212.9 338.47c6-8.27 4.5-18.55-1.11-26.57-1.48-2.11-3.18-4-4.7-6.13-1.26-1.71-3.2-3.84-3.53-6-.54-3.66.3-8.2-3-10.78-4.57-3.53-12.08-2.29-17.37-1.18-2.55.53-5.75 1.23-7.41 3.46a5.69 5.69.0 0 0-1.14 4.63c-.14 1.6.08 3.22.08 4.93a16.65 16.65.0 0 1-1.76 7.4c-2.06 4.26-4.89 8.09-6.27 12.67s-1.65 10.25.0 14.68c.89 2.46 2.51 5.58 4.57 7.26a2.48 2.48.0 0 0 2.57.44"/><path class="cls-3" d="M183.26 292.48h.54A21.16 21.16.0 0 1 195 291a2.17 2.17.0 0 1 .91 3.86c-3.54 2.3-8.07 2.33-12.12 2.85C180.42 298.16 179.87 292.82 183.26 292.48z"/><path class="cls-23" d="M116.3 224.67c.74-3.18 1.59-6.34 2.35-9.52a20.29 20.29.0 0 0 0-10.35 6.58 6.58.0 0 1-.34-.83.3.3.0 0 1 0-.31v-.11c-.11-.35.4-.69.64-.37a9.05 9.05.0 0 1 1.26 2.13 14.77 14.77.0 0 1 2.93 8.15c.16 4.93-1.79 9.52-1 14.52.91 5.6 3.47 10.64 6.42 15.46 1.44 1.72 2.67 3.73 4 5.33 3.1 3.74 6.55 7.11 9.87 10.66a41.12 41.12.0 0 1 10.41 21c1.36 8.14-2.28 15.1-5 22.52a25.46 25.46.0 0 0-1.51 12.92c1.12 6.18 5.46 11.39 5.69 11.76a.88.88.0 0 1-.51 1.33 1.18 1.18.0 0 1-1.44.89c-5.91-1.09-8.44-8-9.54-13.17-1.84-8.63 2.78-16.2 3.12-24.66.35-8.82-4.1-15.53-10-21.55-5-5.16-10.71-10.89-14.4-17.12a27.08 27.08.0 0 1-4.12-9.14C113.46 237.87 114.85 230.92 116.3 224.67z"/><path class="cls-15" d="M119 225.18c.08-.39.62-.26.65.09a56 56 0 0 1 0 5.94c1.57 9.28 6.86 17.67 13.25 24.42 6.22 6.57 13 12 16.22 20.8 2.93 8 1.91 17-.43 25-1.53 5.25-2.73 10.26-2.64 15.78a10.22 10.22.0 0 0 3.66 7.55 7.75 7.75.0 0 1 2.52 3.33.73.73.0 0 1-.19.85 1.21 1.21.0 0 1-.9 1c-1.39.49-3.24-1.17-4.2-1.93-3-2.37-5.49-5.56-6-9.27-2.26-5.71-.15-13.28 1.53-18.66 1.5-4.8 3-9.35 3-14.46.0-5.78-3.49-10.72-7-15-5.34-6.53-11.33-12.59-16-19.62C117.19 243.1 117.18 234.19 119 225.18z"/><path class="cls-20" d="M116.3 224.67c.74-3.18 1.59-6.34 2.35-9.52a20.29 20.29.0 0 0 0-10.35 6.58 6.58.0 0 1-.34-.83.3.3.0 0 1 0-.31v-.11c-.11-.35.4-.69.64-.37a9.05 9.05.0 0 1 1.26 2.13 14.77 14.77.0 0 1 2.93 8.15c.16 4.93-1.79 9.52-1 14.52.91 5.6 3.47 10.64 6.42 15.46 1.44 1.72 2.67 3.73 4 5.33 3.1 3.74 6.55 7.11 9.87 10.66a41.12 41.12.0 0 1 10.41 21c1.36 8.14-2.28 15.1-5 22.52a25.46 25.46.0 0 0-1.51 12.92c1.12 6.18 5.46 11.39 5.69 11.76a.88.88.0 0 1-.51 1.33 1.18 1.18.0 0 1-1.44.89c-5.91-1.09-8.44-8-9.54-13.17-1.84-8.63 2.78-16.2 3.12-24.66.35-8.82-4.1-15.53-10-21.55-5-5.16-10.71-10.89-14.4-17.12a27.08 27.08.0 0 1-4.12-9.14C113.46 237.87 114.85 230.92 116.3 224.67z"/><path class="cls-23" d="M115.27 283.11c-2.77-8.4-2-16.69 1.24-24.81A56.2 56.2.0 0 1 122.38 248c2.27-3.39 7.2-8.63 5.68-16.22-.15-.53.65-.89.9-.38 3.42 7.24.43 15-2.41 21.94a69.58 69.58.0 0 0-4.24 12.3c-1.06 5.12.3 9.62 2.77 14.1s5.54 8.28 8 12.63a32.71 32.71.0 0 1 3.87 13.56c.77 9.12-1.23 20.69-9.39 26.14-.87.58-1.66-.52-1.3-1.31 4.16-9.15 6.56-18.48 1.34-27.72C123.7 296.16 117.8 290.75 115.27 283.11z"/><path class="cls-15" d="M116.45 263.4a114.79 114.79.0 0 1 8.32-14.88c0-.12 1.62-1.8.2 1.41-3.43 7.44-6.15 13.19-5.94 21.07.11 4.07 2.36 8.89 4.6 12.26s5.43 6.13 7.81 9.43c8.09 11.24 6.69 30.28-4 39.63-1 .86-2.43-.56-1.44-1.44.41-.37.8-.76 1.18-1.16a.93.93.0 0 1 .09-.41c1.55-3.52 3.5-6.49 4.27-10.34a29.44 29.44.0 0 0-.26-11.53c-1.51-7.37-6.71-13.14-10.49-19.4C113.08 279 115 266.64 116.45 263.4z"/><path class="cls-3" d="M115.27 283.11c-2.77-8.4-2-16.69 1.24-24.81A56.2 56.2.0 0 1 122.38 248c2.27-3.39 7.2-8.63 5.68-16.22-.15-.53.65-.89.9-.38 3.42 7.24.43 15-2.41 21.94a69.58 69.58.0 0 0-4.24 12.3c-1.06 5.12.3 9.62 2.77 14.1s5.54 8.28 8 12.63a32.71 32.71.0 0 1 3.87 13.56c.77 9.12-1.23 20.69-9.39 26.14-.87.58-1.66-.52-1.3-1.31 4.16-9.15 6.56-18.48 1.34-27.72C123.7 296.16 117.8 290.75 115.27 283.11z"/><path class="cls-23" d="M139.76 193.19a.45.45.0 0 1 .32-.05l.25-.23a.74.74.0 0 1 1 1c-4 4.52-6.8 9.73-7.13 15.82-.3 5.61 2.6 10.45 6.39 14.31 6.6 6.7 15.56 10.52 22.17 17.27a29.1 29.1.0 0 1 7.95 25.43c-.9 5.25-3.44 10.23-6.37 14.62-1.5 2.25-3.17 4.4-4.74 6.61a64.41 64.41.0 0 0-3.87 6.86c-1.07 6.33 2.48 11.24 5.53 16.88s3.81 11.16-.19 16.42a1 1 0 0 1-1.78-.75c1.29-8.3-2.35-14.86-8.45-20.19a25.21 25.21.0 0 1-6.72-8.3 7.86 7.86.0 0 1-2.08-4.65c-.35-5.56 2.78-11.24 6.1-15.51 3.46-4.44 7.72-8.53 9.4-14 2-6.75-1.93-13.52-6.37-18.28-7.79-8.32-19.25-12.61-22.44-24.52C126.15 212.13 130.73 198.32 139.76 193.19z"/><path class="cls-15" d="M131.91 212.62c.08-.55.82-.33.88.12.81 13 8.78 16.35 12.64 20.41 6.39 5.16 13.41 9.6 18.8 15.82 6.55 7.55 6.89 17.45 3.25 26.4-1.92 4.71-4.92 8.68-7.93 12.72-3.62 4.86-4.73 9.84-2.58 15.53 1.86 4.93 5.94 9.2 6.55 14.57a12.25 12.25.0 0 1-.68 5.57c-.1 1.83-4.89 5.47-4.56 4.87a33.64 33.64.0 0 0 2.74-5.91c-.59-4.78-4.22-9-7.39-12.67-3.61-4.14-7.37-9.55-6.57-15.25 2.2-15.51 14-18.35 14.41-30.38.31-8.27-4.23-17.07-12.37-22.86-3.45-3-7.67-5.92-10.34-8.93C133.88 227.11 130.85 220.15 131.91 212.62z"/><path class="cls-3" d="M139.76 193.19a.45.45.0 0 1 .32-.05l.25-.23a.74.74.0 0 1 1 1c-4 4.52-6.8 9.73-7.13 15.82-.3 5.61 2.6 10.45 6.39 14.31 6.6 6.7 15.56 10.52 22.17 17.27a29.1 29.1.0 0 1 7.95 25.43c-.9 5.25-3.44 10.23-6.37 14.62-1.5 2.25-3.17 4.4-4.74 6.61a64.41 64.41.0 0 0-3.87 6.86c-1.07 6.33 2.48 11.24 5.53 16.88s3.81 11.16-.19 16.42a1 1 0 0 1-1.78-.75c1.29-8.3-2.35-14.86-8.45-20.19a25.21 25.21.0 0 1-6.72-8.3 7.86 7.86.0 0 1-2.08-4.65c-.35-5.56 2.78-11.24 6.1-15.51 3.46-4.44 7.72-8.53 9.4-14 2-6.75-1.93-13.52-6.37-18.28-7.79-8.32-19.25-12.61-22.44-24.52C126.15 212.13 130.73 198.32 139.76 193.19z"/><path class="cls-1" d="M174.31 338c-2.77-3.68-6.48-6.37-8.79-10.42-2-3.46-4.43-7.06-7.68-9.53a23.8 23.8.0 0 0-8.18-4.59C142.12 311 133 312.29 125.77 316c-4.81 1.95-8.54 6.17-11.19 10.51a35.22 35.22.0 0 0-5.07 17.78c-.05 6.3 3.3 11.56 9.53 13.21a34.91 34.91.0 0 0 10.2.62q1 0 2.1-.12c9.81 1 19.7-1.38 29.48-1.64 2.38-.06 4.76.11 7.14.18 1.88.05 4.16.26 5.92-.57a5.45 5.45.0 0 0 3-4.65c.2-.77.34-1.48.44-1.92C178.19 345.43 176.69 341.15 174.31 338z"/><path class="cls-2" d="M177.13 345.2a.39.39.0 0 0-.21-.31.42.42.0 0 0-.81-.06c-.5 1.31-2.17 2.54-3.29 3.28a15.45 15.45.0 0 1-4.92 2.06 28.11 28.11.0 0 1-11.73-.06 46.29 46.29.0 0 1-9.16-2.6 1 1 0 0 0 .1-.21 2.29 2.29.0 0 0-1.05-2.61 1.1 1.1.0 0 0-1.23-.21 1.23 1.23.0 0 0-.55 1.21 2.55 2.55.0 0 0 .15.62 19.87 19.87.0 0 1-6-4.64 26.74 26.74.0 0 1-3.3-5.1 1.79 1.79.0 0 0 1.72-1.19 2.06 2.06.0 0 0-.82-1.88 3.06 3.06.0 0 0-1.41-.78.39.39.0 0 0-.42-.15 1.8 1.8.0 0 0-.68.33c-.27-.74-.52-1.49-.74-2.25a2.31 2.31.0 0 0 3.51-1.23c.77-2-.94-5.35-3.34-5a1.82 1.82.0 0 0-1.17.66c-.34-5.8 1.84-10.88 8.86-11.93.36-.05.27-.65-.08-.62a14.67 14.67.0 0 0-2.22.31.24.24.0 0 0-.21-.06c-6.72.85-13.35 2.9-18.56 7.39a23 23 0 0 0-5.69 8.06v.09c-.17.26-.34.52-.5.78a24 24 0 0 0-2.13 5.1 32.91 32.91.0 0 0-1.52 10 15.82 15.82.0 0 0 2.13 8.49c1.49 2.36 4.09 3.58 6.72 4.21a45 45 0 0 0 9.2.71c4.08.13 8.1.24 12.18.09 4.46-.16 8.91-.15 13.36-.54 2.24-.19 4.48-.44 6.72-.68 1.17-.12 2.37-.18 3.55-.31 1.62.07 3.23.18 4.88.38 1.86.23 4.52.38 6-.95C177.09 353.29 177.39 348.41 177.13 345.2z"/><path class="cls-2" d="M140.06 328.65a2.61 2.61.0 0 0-2.05.0l-.14.08a.44.44.0 0 0-.3.13c-2.8 2.51 2.2 7.3 4.11 3.73A2.82 2.82.0 0 0 140.06 328.65z"/><path class="cls-2" d="M139.29 325.4c-.14-.68-.7-1.54-1.49-1.36a.49.49.0 0 0-.37.35c-1 .95-.15 3.5 1.38 2.77C139.44 326.86 139.4 326 139.29 325.4z"/><path class="cls-2" d="M135.8 318.85a1.45 1.45.0 0 0-1.76.0 1.75 1.75.0 0 0-.42 1.42 4.7 4.7.0 0 0 .49 2.65 2 2 0 0 0 3.67-.52C138 321.05 136.93 319.54 135.8 318.85z"/><path class="cls-2" d="M144.37 337.6c-.5-1-3.26-4-4.32-2.3-1.05.65-1.54 3.05-1.54 3.93.0 2.65 2 4.87 4.73 4.24S145.24 339.37 144.37 337.6z"/><path class="cls-2" d="M145.38 332.14a1.5 1.5.0 0 0-1.7 1 1.55 1.55.0 0 0-.21 1.57 2.49 2.49.0 0 0 2.19 1.54.71.71.0 0 0 .61-.35C146.84 334.83 146.81 332.48 145.38 332.14z"/><path class="cls-2" d="M143.46 329.64a.16.16.0 0 1 0-.07l-.07-.11-.06-.08a.52.52.0 0 0-.88.0v0a.68.68.0 0 0-.15.26c.07-.19.0.1-.06.17a1.14 1.14.0 0 0 .12.7.7.7.0 1 0 1.11-.83z"/><path class="cls-2" d="M149.1 342.05a1.81 1.81.0 0 0-.91-.92.73.73.0 0 0-1.06.43v.11a1 1 0 0 0-.16.55 2.2 2.2.0 0 0 .76 1.32.73.73.0 0 0 1.14-.14A1.8 1.8.0 0 0 149.1 342.05z"/><path class="cls-3" d="M174.31 338c-2.77-3.68-6.48-6.37-8.79-10.42-2-3.46-4.43-7.06-7.68-9.53a23.8 23.8.0 0 0-8.18-4.59C142.12 311 133 312.29 125.77 316c-4.81 1.95-8.54 6.17-11.19 10.51a35.22 35.22.0 0 0-5.07 17.78c-.05 6.3 3.3 11.56 9.53 13.21a34.91 34.91.0 0 0 10.2.62q1 0 2.1-.12c9.81 1 19.7-1.38 29.48-1.64 2.38-.06 4.76.11 7.14.18 1.88.05 4.16.26 5.92-.57a5.45 5.45.0 0 0 3-4.65c.2-.77.34-1.48.44-1.92C178.19 345.43 176.69 341.15 174.31 338z"/></g></g></svg>