<svg xmlns="http://www.w3.org/2000/svg" xmlns:xlink="http://www.w3.org/1999/xlink" viewBox="0 0 322.97 329.59"><defs><style>.cls-1,.cls-10,.cls-2,.cls-7,.cls-9{fill:#fff}.cls-1{opacity:.5}.cls-11,.cls-3,.cls-4,.cls-5{fill:none;stroke:#fff}.cls-3,.cls-4,.cls-5{stroke-miterlimit:10}.cls-3{stroke-width:.33px}.cls-4{stroke-width:.74px}.cls-5{stroke-width:.6px}.cls-6{opacity:.85}.cls-7{opacity:.33}.cls-8{opacity:.48;fill:url(#未命名漸層_149)}.cls-9{opacity:.4}.cls-10{opacity:.62}.cls-11{stroke-linecap:round;stroke-linejoin:round;stroke-width:2.46px}</style><radialGradient id="未命名漸層_149" cx="201.03" cy="36.29" r="97.5" gradientUnits="userSpaceOnUse"><stop offset="0" stop-color="#fff"/><stop offset=".1" stop-color="#fff" stop-opacity=".94"/><stop offset=".29" stop-color="#fff" stop-opacity=".77"/><stop offset=".55" stop-color="#fff" stop-opacity=".51"/><stop offset=".88" stop-color="#fff" stop-opacity=".15"/><stop offset="1" stop-color="#fff" stop-opacity="0"/></radialGradient></defs><title>skills-bubble01</title><g id="圖層_2" data-name="圖層 2"><g id="技能"><path class="cls-1" d="M79.28 315.12a7.22 7.22.0 0 1 8 6.54 7.43 7.43.0 0 1-7 7.74 7.25 7.25.0 0 1-8-6.54A7.45 7.45.0 0 1 79.28 315.12z"/><path class="cls-2" d="M76.57 317.3a1.07 1.07.0 0 1 1.18 1 1.1 1.1.0 0 1-1 1.15 1.07 1.07.0 0 1-1.18-1A1.11 1.11.0 0 1 76.57 317.3z"/><path class="cls-2" d="M78.84 327.66l-.43-.09c-.14.0-.31-.06-.5-.12l-.61-.25a5.1 5.1.0 0 1-1.36-.92 5.31 5.31.0 0 1-.63-.7 8.77 8.77.0 0 1-.49-.84 7.64 7.64.0 0 1-.28-.93 5 5 0 0 1-.11-.92 6.13 6.13.0 0 1 .06-.89 5.18 5.18.0 0 1 .17-.75c.08-.23.16-.44.23-.63s.17-.32.23-.45l.22-.4v0l-.27.36a3 3 0 0 0-.29.44c-.09.18-.19.39-.29.62a5.42 5.42.0 0 0-.23.8 4.54 4.54.0 0 0-.07.91 4.2 4.2.0 0 0 .13 1 9.34 9.34.0 0 0 .34 1 8.17 8.17.0 0 0 .54.85 5 5 0 0 0 .66.71 4 4 0 0 0 .73.53 3.65 3.65.0 0 0 .71.36l.63.23c.19.05.36.07.5.1l.44.07z"/><path class="cls-3" d="M79.28 315.12a7.22 7.22.0 0 1 8 6.54 7.43 7.43.0 0 1-7 7.74 7.25 7.25.0 0 1-8-6.54A7.45 7.45.0 0 1 79.28 315.12z"/><path class="cls-1" d="M25.49 250.28c8.34 4.68 11.5 14.55 7.06 22.06s-14.78 9.85-23.1 5.17S-2.06 263 2.37 255.44 17.17 245.61 25.49 250.28z"/><path class="cls-2" d="M17.59 250.8a2.39 2.39.0 0 1 1 3.26 2.5 2.5.0 0 1-3.42.76 2.38 2.38.0 0 1-1.05-3.26A2.55 2.55.0 0 1 17.59 250.8z"/><path class="cls-2" d="M8.94 272.56l-.74-.69c-.22-.24-.49-.53-.77-.87a12.34 12.34.0 0 1-.88-1.23 7.23 7.23.0 0 1-.43-.74 6.88 6.88.0 0 1-.39-.82 6.46 6.46.0 0 1-.35-.9 6.26 6.26.0 0 1-.29-1 9.49 9.49.0 0 1-.3-2.08 11 11 0 0 1 .12-2.14 10.2 10.2.0 0 1 .61-2.06 6.36 6.36.0 0 1 .45-.95 6.45 6.45.0 0 1 .52-.87 5.09 5.09.0 0 1 .58-.81 7 7 0 0 1 .61-.72A10.64 10.64.0 0 1 9 255.54a13.52 13.52.0 0 1 1.22-.84c.38-.23.73-.39 1-.56l.93-.41v-.06l-1 .27c-.3.12-.69.24-1.1.44a9.91 9.91.0 0 0-1.34.76 10.45 10.45.0 0 0-1.42 1.17 5.38 5.38.0 0 0-.68.74 6.05 6.05.0 0 0-.62.84 7.31 7.31.0 0 0-.54.95 7.13 7.13.0 0 0-.44 1 10.81 10.81.0 0 0-.55 2.19 10.95 10.95.0 0 0 .32 4.39 7.51 7.51.0 0 0 .33 1 6.73 6.73.0 0 0 .39.91 8.08 8.08.0 0 0 .44.83 6.54 6.54.0 0 0 .47.73 13.51 13.51.0 0 0 .94 1.21c.3.33.59.61.82.84l.77.67z"/><path class="cls-4" d="M25.49 250.28c8.34 4.68 11.5 14.55 7.06 22.06s-14.78 9.85-23.1 5.17S-2.06 263 2.37 255.44 17.17 245.61 25.49 250.28z"/><path class="cls-1" d="M49.28 300.89C57 302.08 62.23 308.73 61 315.75S52.46 327.5 44.75 326.3s-12.95-7.87-11.7-14.88S41.57 299.68 49.28 300.89z"/><path class="cls-2" d="M43.37 303.53a2 2 0 0 1 1.73 2.2 2.06 2.06.0 0 1-2.41 1.56A2 2 0 0 1 41 305.08 2.08 2.08.0 0 1 43.37 303.53z"/><path class="cls-2" d="M43 322.66l-.77-.33c-.23-.12-.52-.26-.83-.44a11.51 11.51.0 0 1-1-.69 5.36 5.36.0 0 1-.54-.45 5.12 5.12.0 0 1-.54-.51 7.31 7.31.0 0 1-.52-.59 5.65 5.65.0 0 1-.49-.66 8 8 0 0 1-.83-1.5 8.6 8.6.0 0 1-.51-1.68 7.84 7.84.0 0 1-.12-1.74 6 6 0 0 1 .07-.85 7.4 7.4.0 0 1 .15-.82 5.66 5.66.0 0 1 .22-.79 5.59 5.59.0 0 1 .26-.72 7.93 7.93.0 0 1 .64-1.27 9.42 9.42.0 0 1 .7-1c.22-.29.45-.51.61-.71l.59-.58v0l-.68.49a7.68 7.68.0 0 0-.71.65 7.41 7.41.0 0 0-.81 1 7.67 7.67.0 0 0-.76 1.3 5.24 5.24.0 0 0-.31.76 5 5 0 0 0-.23.82 6.21 6.21.0 0 0-.15.88 6.7 6.7.0 0 0 0 .9 8.86 8.86.0 0 0 .2 1.84 9.38 9.38.0 0 0 .59 1.74 8.86 8.86.0 0 0 .91 1.52 5.82 5.82.0 0 0 .52.66 6.34 6.34.0 0 0 .56.59 5.31 5.31.0 0 0 .58.5 4.48 4.48.0 0 0 .57.43c.37.27.74.47 1.06.66s.62.3.86.41l.78.3z"/><path class="cls-5" d="M49.28 300.89C57 302.08 62.23 308.73 61 315.75S52.46 327.5 44.75 326.3s-12.95-7.87-11.7-14.88S41.57 299.68 49.28 300.89z"/><g class="cls-6"><path class="cls-7" d="M291.47 240c-49.61 65.46-143 78.25-208.4 28.63A148.79 148.79.0 1 1 291.47 240z"/><path class="cls-8" d="M291.83 104.83C283.37 142.66 231.93 163.31 177 151S84.49 97.87 92.94 60.07s60-58.46 114.9-46.08S300.36 67 291.83 104.83z"/><path class="cls-9" d="M138.41 288.87a159.13 159.13.0 0 1-71.27-39.33c-20.89-20.06-29.92-41.1-36-68.27-1.5-6.7-1.94-14.13-2.57-20.92C27.7 151 26.34 129.8 31.19 122c-6.12 9.89 8.81 55 12.89 65.65 6.83 17.9 16.16 37.49 30.23 50.85 23.7 22.47 45.34 32.45 77.35 37.45 32.27 5 65.51-2.66 94.14-17.82 21.46-11.35 40.6-29.5 54.17-49.66C307 197.9 311.67 187.61 313.5 175c-1.32 35.77-32 76-61 95.48C218.17 293.53 176.7 298.46 138.41 288.87z"/><path class="cls-10" d="M87.45 44.45c69.22-49.34 134.79-40.13 197.6 13C219.08 20.44 153.19 13.05 87.45 44.45z"/><path class="cls-2" d="M140.37 24.33c-14.43-.83-28.27-.58-39.52 9.66-8.77 8-13.84 18.33-2 25.58 13.88 8.49 53.58-.45 53.65-21.42.05-15-20.55-14.23-30.8-13.32z"/><path class="cls-2" d="M79.15 58.14c-14.27 4.65-12.31 25.12 3.42 18.75 14-5.65 4.47-26.74-7.09-17z"/><path class="cls-11" d="M291.47 240c-49.61 65.46-143 78.25-208.4 28.63A148.79 148.79.0 1 1 291.47 240z"/></g></g></g></svg>