<svg xmlns="http://www.w3.org/2000/svg" viewBox="0 0 251.3 264.83"><defs><style>.cls-1{fill:#cb896f}.cls-2{fill:#f2a0b6}.cls-12,.cls-13,.cls-2,.cls-6,.cls-8{stroke:#4d3224;stroke-linecap:round;stroke-linejoin:round}.cls-2,.cls-6{stroke-width:1.43px}.cls-3{fill:#fff}.cls-4{fill:#e8b96b}.cls-5{fill:#f3e4a4}.cls-12,.cls-6{fill:none}.cls-7,.cls-8{fill:#7c5fc3}.cls-8{stroke-width:1.63px}.cls-9{fill:#a16ab9}.cls-10{fill:#cb8fe2}.cls-11{fill:#5f8b53}.cls-12,.cls-13{stroke-width:1.4px}.cls-13{fill:#98c858}.cls-14{fill:#b9a4ba}.cls-15{fill:#a78fa9}</style></defs><title>資產 254</title><g id="圖層_2" data-name="圖層 2"><g id="技能"><path class="cls-1" d="M251.24 73.24c-3.62.49-7.21 1.06-10.66 1.45-5 .57-9.3 2.91-14.1 3.44-5 .55-7.35-1.09-12.25-1.81-9.4-1.39-21.53.69-30.85 1.12-10.08.46-20.7.85-30.66.31s-19.71-1-29.59-1.1c-7.2.0-19.92-1.7-26.45 1 .85-.35 16.5 16.66 18.23 18.14 6.84 5.85 14.06 9.32 24 11.2 3.64.69 7.46.44 10.81 1.92a40.78 40.78.0 0 1 10.06 6.85 50.26 50.26.0 0 1 8.8 10 48.84 48.84.0 0 1 5.06 9.76 5 5 0 0 0 1.3 2.22 4.79 4.79.0 0 0 2.37.8l15.17 2.27A3.52 3.52.0 0 0 197 138.2c4.92-9.71 11.85-5.09 20.7-11.52 9.9-7.2 8.59 2.66 19.8-.92.64-.21 13.09-10.61 13.75-10.79"/><path class="cls-1" d="M251.24 73.24c-3.62.49-7.21 1.06-10.66 1.45-5 .57-9.3 2.91-14.1 3.44-5 .55-7.35-1.09-12.25-1.81-9.4-1.39-21.53.69-30.85 1.12-10.08.46-20.7.85-30.66.31s-19.71-1-29.59-1.1c-7.2.0-19.92-1.7-26.45 1 .85-.35 16.5 16.66 18.23 18.14 6.84 5.85 14.06 9.32 24 11.2 3.64.69 7.46.44 10.81 1.92a40.78 40.78.0 0 1 10.06 6.85 50.26 50.26.0 0 1 8.8 10 48.84 48.84.0 0 1 5.06 9.76 5 5 0 0 0 1.3 2.22 4.79 4.79.0 0 0 2.37.8l15.17 2.27A3.52 3.52.0 0 0 197 138.2c4.92-9.71 11.85-5.09 20.7-11.52 9.9-7.2 8.59 2.66 19.8-.92.64-.21 13.09-10.61 13.75-10.79"/><path class="cls-2" d="M204.21 39.32c-1.1-.54-1.84-1-2.16-2.24a2.42 2.42.0 0 1 1.47-2.95c2.58-.75 4.7 2 5.24 4.15a14.33 14.33.0 0 1 .2 5.26 47.57 47.57.0 0 0 4.11-8 13.6 13.6.0 0 0 .63-2.67 2.06 2.06.0 0 0-1.12-1.47c-.77-.42-1.63-.64-2.42-1a10.14 10.14.0 0 1-4.2-3.72c-1.4-2.25-2.06-5.78.0-7.89 2.31-2.36 3.65 2.42 4 3.93A25.49 25.49.0 0 0 211 27.3a4.08 4.08.0 0 0 2.85 2.55 46 46 0 0 0-.57-5.13 44.42 44.42.0 0 1-.68-9.71 13.56 13.56.0 0 1-.33-2.3 19.35 19.35.0 0 1 .29-6.53c.6-2.27 2.66-6.74 5.71-5.12 3.36 1.79 1 5.37-.6 7.45a16 16 0 0 0-2.49 4.94 23.22 23.22.0 0 0-1 4.46c.09 1.34.2 2.67.35 4 1.16-.1 1.82-1.18 2.43-2.19a20 20 0 0 0 2-4.64c.34-1.14.49-2.33.79-3.48s.78-3 2-3.62c1.48-.71 2.85 1 3.29 2.22.69 1.95-.32 4.14-1.3 5.8a15.89 15.89.0 0 1-4.16 4.41 16.34 16.34.0 0 0-4.28 4.13 28 28 0 0 1 .49 8.12 16.56 16.56.0 0 1-1.23 5.84A15 15 0 0 1 216 37.27a31.93 31.93.0 0 1 4.73-2.85c.2-.26.41-.5.6-.74a5.06 5.06.0 0 0 1-2.87 3.93 3.93.0 0 0-.77-2.89 8.39 8.39.0 0 1-1.43-2.26c-.74-2.15.9-4.08 3.09-3.3 2.66.95 2.46 4.46 2.08 6.68a11.24 11.24.0 0 1-1.19 3.45 24 24 0 0 0 6.71-6.26c-.26-.49-.36-1.13-.56-1.58a23.84 23.84.0 0 0-1.57-2.78 8.3 8.3.0 0 1-1.32-4.16c0-1.93.0-5 1.43-6.43a1.72 1.72.0 0 1 2.35-.06c1.06.74 1.15 2 1.08 3.24a42.06 42.06.0 0 1-.72 4.16 9.09 9.09.0 0 0 .83 5l.27-.58c1.24-2.76 1.13-5.64 1.07-8.6a6.44 6.44.0 0 1 1.52-4.91 1.93 1.93.0 0 1 3-.08c1.29 1.48 1 4.15.49 5.86a19.09 19.09.0 0 1-2.58 5.44 32.11 32.11.0 0 1-3.67 6.33c-.13.19-.26.38-.4.56a12.36 12.36.0 0 0 1.24-.15 8.65 8.65.0 0 0 1.28-.8A25.16 25.16.0 0 0 238.51 23c1.74-1.95 3.22-4.55 6-5 1.44-.25 2.1 1.06 2 2.31a5.94 5.94.0 0 1-3.08 4.64 34.84 34.84.0 0 1-5.55 2.55c-2.11.87-4.43 1.83-6.76 1.59L231 29a22.81 22.81.0 0 1-1.72 1.82v0c2.28.2 8-1.22 7.3 2.16-.77 3.62-6.63.89-8.5-1.12a32.36 32.36.0 0 1-3.72 2.77c-1.33.85-2.69 1.64-4.06 2.44l.72-.08a15.27 15.27.0 0 1 3.31-.07c2 .2 3.68 1.46 3.3 3.67-.41 2.37-2.87 1.43-4.22.59-.88-.55-1.67-1.2-2.51-1.8-1.26-.88-2.93-.24-4.3-.06a0 0 0 0 1 0 0c-.56.36-1.1.73-1.64 1.12s-1.31 1-1.33 1c-.14.2-1.63 1.35-2 1.73-.45.65-.9 1.3-1.33 2a7.54 7.54.0 0 1 1.26-1 8.34 8.34.0 0 1 3.85-.85 51.52 51.52.0 0 1 8.21.71c1.16.15 2.34.27 3.51.35a.43.43.0 0 1 0 0 4.06 4.06.0 0 1 .72-1.14c.34-.69.75-1.35 1.14-2a18 18 0 0 1 2.81-3.79c1.86-1.82 5.08-3.3 7.53-1.67 1.09.72.78 2 .16 2.93-.78 1.14-2.8 1-4 1.14a10.33 10.33.0 0 0-4.92 2.37 19.28 19.28.0 0 0-2 2 2 2 0 0 1-.29.29 25.5 25.5.0 0 0 3.81-.14 14 14 0 0 0 7.28-2.84c2.36-2 4.59-8.64 8.74-5.83 3.11 2.1-1.25 6.67-3.13 7.9a15.3 15.3.0 0 1-4.62 1.79 49.41 49.41.0 0 1-5.36 1.09 45.32 45.32.0 0 1-8.15.14 2.35 2.35.0 0 1 .19.25c.87.81 2.35.73 3.54 1.06 1.43.41 1.79 1.7.49 2.57s-2.86.34-3.93-.83a22.54 22.54.0 0 1-1.47-1.91 4.09 4.09.0 0 1-.81-1.28c-.7.0-1.3-.11-1.73-.15-1.57-.17-3.5-.48-5.47-.62a11.15 11.15.0 0 1 1.27.43c2.07.8 4.46 2.82 3.74 5.33a3.53 3.53.0 0 1-2.57 2.4 2.5 2.5.0 0 1-2.91-1.94 12.54 12.54.0 0 0-1.72-4.05 4.59 4.59.0 0 0-1.69-1.2c-.34-.16-.67-.3-1-.43a2.14 2.14.0 0 1-.43-.26 7 7 0 0 0-3.58 1.94 10.77 10.77.0 0 0-.7 2.37c-.2 5.79 2.89 7.45 3.13 8.53.1.44-2.35-.06-2.58-.24-2.28-1.94-2.54-7.53-2.3-8.86a14.24 14.24.0 0 1 .36-1.43 12.58 12.58.0 0 1 0-1.84 11.48 11.48.0 0 0 0-2.62C206.56 42.07 205.89 40.15 204.21 39.32z"/><path class="cls-2" d="M157.76 35.9c1.85-2 5.39.86 7 2a10.13 10.13.0 0 0 5.52 1.92 10.57 10.57.0 0 0 3-.53c.67-.18 1.46-.43 1.73-1.05-3.93.06-7.78-2.54-10.6-5.06A19.85 19.85.0 0 1 159.72 27c-.92-1.92-1.65-4.6-.77-6.65a2.22 2.22.0 0 1 3.15-1c1.77.85 2.59 3 3.24 4.74.78 2.06 1.31 4.21 2.25 6.22a9 9 0 0 0 4.09 4.19c.51-1.4-.16-3.17-.68-4.44a23.89 23.89.0 0 0-2.45-4.46c-1.09-1.59-3.8-5.08-1.75-6.86 1.15-1 2.77-.34 3.66.6a11.5 11.5.0 0 1 2.22 4.66c.66 2.32.4 4.7.57 7.08a6.49 6.49.0 0 0 1.3 3.67 1.19 1.19.0 0 0 .15.18c2.53 2.25 6 2 9.4 2.07a24.71 24.71.0 0 1 5 .55c-.31-.31-.61-.61-.91-.88a12.65 12.65.0 0 0-5.43-3c-2.6-.65-7.23-.32-8.15-3.64a2.49 2.49.0 0 1 1-2.88c.78-.4 1.81.23 2.44.63 1 .67 2 1.51 3 2.23a9.85 9.85.0 0 0 1.35.89c-2.12-2.62-2-7-4.77-9.38a33.6 33.6.0 0 1-5.27-4.91 10.39 10.39.0 0 1-2.08-6.62c.07-1.25.89-3 2.38-2.83 1.88.18 2.46 2.54 2.81 4 .66 2.84.59 6 2.59 8.36.22.26.68.7 1.07.57s.49-1.16.53-1.51v0c-.24-2.64-.69-5.26-.12-7.9A7.19 7.19.0 0 1 182 6.55c1.46-1.16 3-.36 3.85 1.1.92 1.66-.64 4-1.31 5.49a34.47 34.47.0 0 0-2.63 6.75c-.74 3.41.45 6.77 2.18 9.7.37-.46.29-1.52.3-2 .06-1.53-.06-3.05.0-4.58a7.14 7.14.0 0 1 .54-3.52 2.2 2.2.0 0 1 3-.59c1.17.86 1.21 2.56 1.14 3.88a10.58 10.58.0 0 1-1.21 4.36c-.85 1.65-2.37 3.41-1.5 5.35.66 1.46 2.32 2.74 3.52 3.73a19.31 19.31.0 0 0 5.08 3.24 1.85 1.85.0 0 0 .31-1.39 3.47 3.47.0 0 0-1.53-2.85c-1.44-1-5.1-2.76-3.25-4.94 2.19-2.58 4.46 1.07 5.24 4.09A24.61 24.61.0 0 1 197 31.15a18.8 18.8.0 0 0 .92-2.38c0-.11.0-.22.0-.33-.67-1.78-3.2-2.2-4.54-3.38-2.06-1.81-3-4.69-3.56-7.26-.48-2-1.78-6.41.75-7.6 1.45-.67 2.85.57 3.43 1.78.75 1.59.69 3.53.75 5.25a17.55 17.55.0 0 0 .89 5.23A9.07 9.07.0 0 0 197 25.05a4.06 4.06.0 0 0 1.15 1c.11-.65.22-1.29.28-1.92a13.72 13.72.0 0 0-.66-6.73c-.69-1.67-2-3.11-2.52-4.82a8.76 8.76.0 0 1-.37-3.37 3.24 3.24.0 0 1 1-2.4c.87-.68 2 0 2.7.57 1.11.94 1.19 2.36 1.17 3.72a12.93 12.93.0 0 0 .05 2.41 2.25 2.25.0 0 0 1.26 1.66 5.71 5.71.0 0 0 .7-1c.11-.19.22-.4.33-.62.05-.52.07-1 .08-1.52.0-1.49.0-3 .07-4.49.11-1.75.81-5.85 3.42-4.8 1 .39 1.35 1.62 1.57 2.53a7.76 7.76.0 0 1-.21 4 16.48 16.48.0 0 1-2.26 4.54c-.91 1.34-2.2 2.4-3.14 3.7-.34 1.38-.71 2.74-.95 4.15-.29 1.7-.48 3.42-.79 5.13a19.85 19.85.0 0 1-.73 2.85 11.41 11.41.0 0 1 1.48-1.2c1.11-.76 3-1.55 3.9-.11a2.72 2.72.0 0 1 .26 2.4c-.37.83-1.42 1-2.21 1-1 0-2-.22-3-.13A2.92 2.92.0 0 0 197.77 33a12.09 12.09.0 0 0-1 3.13A5.19 5.19.0 0 0 196.8 38a5 5 0 0 1 .6-1.34 2.37 2.37.0 0 1 1.28-1 1.69 1.69.0 0 1 1.68.54.85.85.0 0 1-.07 1.19c-.52.46-1 .91-1.53 1.41s-.67 1-1.2 1.3a17.71 17.71.0 0 0 1.07 1.77c.55.82 1.09 1.64 1.59 2.47-.11-2 .53-4.3 2.53-4 1.48.19 2.63 1.62 1.56 2.93a12 12 0 0 1-1.75 1.51c-.75.63-.65 1.72-.75 2.64a18.45 18.45.0 0 1 1.12 3.39c.28 1.27.59 8.85-.43 9.82-.15.14-1.81.0-1.79-.78.12-4.85 1.32-14.17-7.52-18.58-.29-.15-.59-.28-.89-.42A2.86 2.86.0 0 0 190.13 42c-.51.55-.95 1.14-1.5 1.65-1.1 1-2.51.79-2.73-.81s1.38-2.31 2.61-2.63c.36-.09.84-.2 1.36-.28a20.91 20.91.0 0 0-11.56-.38c-5 1.41-9.79 5.53-15.32 4a10.66 10.66.0 0 1-4.92-3A3.48 3.48.0 0 1 157.76 35.9z"/><path class="cls-2" d="M184.13 45.37c1-1.19 3-1.14 4.43-1A10.73 10.73.0 0 1 193.43 46a14 14 0 0 1 5.31 7.52 10.24 10.24.0 0 1 .36 6.5.67.67.0 0 1-1.31-.24c.28-6.13-2.18-8.61-4.14-9.49-1.71-.77-3.78-.13-5.55.06a4.44 4.44.0 0 1-4-1.19A2.94 2.94.0 0 1 184.13 45.37z"/><path class="cls-3" d="M217.37.93a1 1 0 0 1 1-.81.67.67.0 0 1 .55.36.64.64.0 0 1 0 .54.28.28.0 1 1 0 .05h0a1.09 1.09.0 0 1-.1.32.74.74.0 0 1-.93.46A.75.75.0 0 1 217.37.93z"/><path class="cls-3" d="M218.9 2.3a1.07 1.07.0 0 1 .46-.41.59.59.0 0 1 .84.56.93.93.0 0 1-.53.89.55.55.0 0 1-.83-.35v-.07h0A.68.68.0 0 1 218.9 2.3z"/><path class="cls-3" d="M216.59 2.84a1 1 0 0 1 .47-.27.48.48.0 0 1 .64.48c0-.2.0.23.0.23-.07.15-.07.16-.14.29a1 1 0 0 1-.12.16.58.58.0 0 1-.23.21c-.16.0-.2.06-.1.0a.5.5.0 0 1-.72-.35A.8.8.0 0 1 216.59 2.84z"/><path class="cls-3" d="M215.49.71a.63.63.0 0 1 .67.33.62.62.0 0 1-.27.83h0a.7.7.0 0 1-.06.09.51.51.0 0 1-.67.12A.75.75.0 0 1 215.49.71z"/><path class="cls-3" d="M215.82 2v0C215.81 2 215.81 2 215.82 2z"/><path class="cls-3" d="M214 3.89a.6.6.0 0 1 .66-.22.57.57.0 0 1 .36.73 1.22 1.22.0 0 0-.13.31.59.59.0 0 1-.46.52.58.58.0 0 1-.67-.45A1 1 0 0 1 214 3.89z"/><path class="cls-3" d="M214.48 6.88a1.33 1.33.0 0 1 .45-.62.47.47.0 0 1 .5-.14.48.48.0 0 1 .3.58 1.29 1.29.0 0 1-.19.7A.6.6.0 0 1 214.48 6.88z"/><path class="cls-3" d="M217.77 5.6c.33-.53 1.09.0.79.52a2.89 2.89.0 0 1-.27.56.41.41.0 0 1-.74-.15A1.29 1.29.0 0 1 217.77 5.6z"/><path class="cls-3" d="M214 9.84c.33-.52 1.22-.1 1 .48.0.06.0.08.0.18a1.12 1.12.0 0 1-.15.51.55.55.0 0 1-1-.19A1.45 1.45.0 0 1 214 9.84z"/><path class="cls-3" d="M198.06 8.91c0-.13.0-.25.07-.37v0c0-.08.06-.29.0-.18.0-.12.05-.24.06-.3a.53.53.0 0 1 0-.17v0a.31.31.0 0 1 .51-.27h.12a1.09 1.09.0 0 1 .17.13 1.74 1.74.0 0 1 .24.36 1.38 1.38.0 0 1 0 1.09.67.67.0 0 1-1.3-.26z"/><path class="cls-3" d="M196.11 6.29a.43.43.0 0 1 0 0 .52.52.0 0 1 1-.2h0a1.26 1.26.0 0 1 .24 1.36.65.65.0 0 1-.47.41.64.64.0 0 1-.68-.33A1.69 1.69.0 0 1 196.11 6.29z"/><path class="cls-3" d="M194.35 8.59a.61.61.0 0 1 1.21-.08 1.75 1.75.0 0 1-.05 1.35.59.59.0 0 1-.92.07C194.24 9.56 194.37 9 194.35 8.59z"/><path class="cls-3" d="M196.34 11.51a.58.58.0 0 1 1.14-.23 1.6 1.6.0 0 1 .12.68.59.59.0 0 1-1.11.23A1.77 1.77.0 0 1 196.34 11.51z"/><path class="cls-3" d="M192.3 11.14a.59.59.0 0 1 1-.2 1.68 1.68.0 0 1 .32 1.38.64.64.0 0 1-1.07.22A1.65 1.65.0 0 1 192.3 11.14z"/><path class="cls-3" d="M190.27 11.14a3.88 3.88.0 0 1 .11-.49s0-.05.0-.06a1.48 1.48.0 0 1 0-.2.6.6.0 0 1 1.13-.23 1.78 1.78.0 0 1 .11 1.26A.72.72.0 0 1 190.27 11.14z"/><path class="cls-3" d="M188.54 12.29a.6.6.0 0 1 1.13-.23c.19.52.57 1.26.06 1.72a.58.58.0 0 1-.58.11C188.5 13.67 188.57 12.84 188.54 12.29z"/><path class="cls-3" d="M190.89 14.76a.62.62.0 0 1 1.21-.25 3.13 3.13.0 0 1 .2 1.08.63.63.0 0 1-1.18.24A3.25 3.25.0 0 1 190.89 14.76z"/><path class="cls-3" d="M193 16.35a.48.48.0 0 1 .91-.18 1.4 1.4.0 0 1 .22 1.15.53.53.0 0 1-.89.18A1.44 1.44.0 0 1 193 16.35z"/><path class="cls-3" d="M192.05 19.08a2.56 2.56.0 0 1 0 .27.53.53.0 0 1-1 .21 2.56 2.56.0 0 1-.05-.27A.53.53.0 0 1 192.05 19.08z"/><path class="cls-3" d="M185 8.51a1.93 1.93.0 0 1 .2-.67 1.29 1.29.0 0 1 .17-.33.79.79.0 0 1 .14-.17l.09-.06a.52.52.0 0 1 .81.15 1.41 1.41.0 0 1-.29 1.62A.68.68.0 0 1 185 8.51z"/><path class="cls-3" d="M183.21 6.8A1.32 1.32.0 0 1 183.6 6a1.61 1.61.0 0 1 .6-.53A.55.55.0 0 1 185 6a1.56 1.56.0 0 1-1 1.52A.67.67.0 0 1 183.21 6.8z"/><path class="cls-3" d="M182 10a.53.53.0 0 1 .95.19 1.39 1.39.0 0 1-.28 1.3.66.66.0 0 1-1.06-.36A1.28 1.28.0 0 1 182 10z"/><path class="cls-3" d="M180.75 7.17a1.62 1.62.0 0 1 .36-.57.59.59.0 0 1 1 .32 1.31 1.31.0 0 1-.32 1.23.66.66.0 0 1-1-.19A1 1 0 0 1 180.75 7.17z"/><path class="cls-3" d="M183.82 11.89V11.8a.5.5.0 0 1 .2-.38.39.39.0 0 1 .5-.1.51.51.0 0 1 .32.27.36.36.0 0 1 0 .09.56.56.0 1 1-1.06.21z"/><path class="cls-3" d="M179.27 12a.61.61.0 0 1 .85-.17 1 1 0 0 1 .35 1.31.56.56.0 0 1-.77.16.72.72.0 0 1-.28-.34l-.06-.2A.61.61.0 0 1 179.27 12z"/><path class="cls-3" d="M181.16 14.82c-.1-.64.9-.84 1-.2a2.2 2.2.0 0 1-.06.92.45.45.0 0 1-.82.05A2.87 2.87.0 0 1 181.16 14.82z"/><path class="cls-3" d="M245.12 19.82a1.14 1.14.0 0 1 .36-.75l.22-.22c0-.05.16-.1.19-.13a.55.55.0 0 1 .91.61s0 .17-.05.22a1.78 1.78.0 0 1-.19.36 1.07 1.07.0 0 1-.74.53A.6.6.0 0 1 245.12 19.82z"/><path class="cls-3" d="M244.16 19.38v0S244.21 19.33 244.16 19.38z"/><path class="cls-3" d="M243.93 18.17a.6.6.0 0 1 .45.92 1.78 1.78.0 0 1-.21.27l-.18.2c.15-.14-.14.15-.18.19a.9.9.0 0 1-.42.22.64.64.0 0 1-.77-.51C242.47 18.69 243.27 18.2 243.93 18.17z"/><path class="cls-3" d="M243.26 21.28a.63.63.0 0 1 .25 1.23h-.06v0a.77.77.0 0 1-.21.14.59.59.0 0 1-.83-.4C242.24 21.71 242.79 21.37 243.26 21.28z"/><path class="cls-3" d="M244.45 22.88a1.31 1.31.0 0 1 .4-.26.31.31.0 0 1 .13-.06c-.11.0.38-.15.15.0.35-.16.89.1.8.54a1.21 1.21.0 0 1-.38.72.91.91.0 0 1-1.1.21.61.61.0 0 1-.26-.41A.78.78.0 0 1 244.45 22.88z"/><path class="cls-3" d="M241.1 24.62a1 1 0 0 1 .25-.25l.2-.14a.27.27.0 0 0-.07.08.7.7.0 0 1 1-.19.68.68.0 0 1 .19.95 2.09 2.09.0 0 1-.67.51A.67.67.0 0 1 241.1 24.62z"/><path class="cls-3" d="M239.93 21.17a2 2 0 0 1 .41-.36.35.35.0 0 1 .55.37 2.26 2.26.0 0 1-.17.52C240.39 22.22 239.57 21.67 239.93 21.17z"/><path class="cls-3" d="M224.44 22.9h0v0z"/><path class="cls-3" d="M223.1 23.17a.72.72.0 0 1 .57-.65.74.74.0 0 1 .77.37l.13.19.1.21a1.42 1.42.0 0 1 .2.7.77.77.0 0 1-1.2.59A1.56 1.56.0 0 1 223.1 23.17z"/><path class="cls-3" d="M221.21 22.69a.48.48.0 0 1 .9-.18.87.87.0 0 1 .14.78.51.51.0 0 1-.86.17A.84.84.0 0 1 221.21 22.69z"/><path class="cls-3" d="M222.26 24.33c.5-.14.81.37.9.78.2.81-1.11 1.08-1.27.25C221.82 25 221.81 24.45 222.26 24.33z"/><path class="cls-3" d="M219.93 24a.48.48.0 0 1 .8-.16A1 1 0 0 1 221 25a.56.56.0 0 1-.77.15A.94.94.0 0 1 219.93 24z"/><path class="cls-3" d="M220.76 26.76a.4.4.0 0 1 .74-.15 1.4 1.4.0 0 1 .34 1.13.5.5.0 0 1-.73.24C220.68 27.77 220.7 27.17 220.76 26.76z"/><path class="cls-3" d="M224.36 26.3a.66.66.0 0 1 1-.33 1.05 1.05.0 0 1 .38 1.31.79.79.0 0 1-.75.5.77.77.0 0 1-.68-.59A1.51 1.51.0 0 1 224.36 26.3z"/><path class="cls-3" d="M222.74 27.83a.58.58.0 0 1 1.09-.22 1.56 1.56.0 0 1 .16 1.14.63.63.0 0 1-.63.43.66.66.0 0 1-.57-.51A2.16 2.16.0 0 1 222.74 27.83z"/><path class="cls-3" d="M234.89 31.49a1.32 1.32.0 0 1 1-.8.76.76.0 0 1 .87 1 1.18 1.18.0 0 1-.93.84A.81.81.0 0 1 234.89 31.49z"/><path class="cls-3" d="M236.21 33.38c0 .12.0.1.0-.07a.51.51.0 0 1 .16-.25 1.44 1.44.0 0 1 .3-.21 1.69 1.69.0 0 1 .36-.12h.12s.46.0.23.0a.5.5.0 0 1 .43.66c0-.11.0-.09.0.08a1 1 0 0 1-.1.17 1.1 1.1.0 0 1-.39.32.89.89.0 0 1-.53.11.55.55.0 0 1-.22.0l-.22-.16A.45.45.0 0 1 236.21 33.38z"/><path class="cls-3" d="M236.36 33.88v0S236.34 33.87 236.36 33.88z"/><path class="cls-3" d="M234.72 33.69a.87.87.0 0 1 .65.1.58.58.0 0 1 .07.91.71.71.0 0 1-1 0A.6.6.0 0 1 234.72 33.69z"/><path class="cls-3" d="M233.62 32.54a.67.67.0 0 1 .85.17.48.48.0 0 1-.36.79h0a1.13 1.13.0 0 1-.26.0C233.34 33.49 233.13 32.72 233.62 32.54z"/><path class="cls-3" d="M237.2 35.41a1.09 1.09.0 0 1 1.45-.33.56.56.0 0 1 .16.78 2 2 0 0 1-.74.53C237.47 36.75 236.85 36 237.2 35.41z"/><path class="cls-3" d="M238.68 36.51a1.36 1.36.0 0 1 1.23-.48.71.71.0 0 1 .41 1.22 1.21 1.21.0 0 1-1.45.2A.68.68.0 0 1 238.68 36.51z"/><path class="cls-3" d="M237.85 38.57a1 1 0 0 1 1.09.08.56.56.0 0 1-.2 1 1.8 1.8.0 0 1-.65.09A.63.63.0 0 1 237.85 38.57z"/><path class="cls-3" d="M236.14 37.29a.78.78.0 0 1 .55-.18.55.55.0 0 1 .21 1 .78.78.0 0 1-.58.0A.53.53.0 0 1 236.14 37.29z"/><path class="cls-3" d="M234.7 36.46a.66.66.0 0 1 .59-.33c.44.0.51.54.27.8l-.14.16C235 37.5 234.41 36.91 234.7 36.46z"/><path class="cls-3" d="M234.76 39.16h.05a.43.43.0 0 1 .6.29.42.42.0 0 1-.44.5h-.06A.41.41.0 0 1 234.76 39.16z"/><path class="cls-3" d="M226.31 38.93a.7.7.0 0 1 .12-.35.71.71.0 0 1 .66-.33 1.14 1.14.0 0 1 .93.66.55.55.0 0 1-.13.66 1 1 0 0 1-1.09.09A.74.74.0 0 1 226.31 38.93z"/><path class="cls-3" d="M226.18 41.3a.7.7.0 0 1 .57-.64 1 1 0 0 1 .65.08l.17.06c-.25-.1.06.0.16.0a.72.72.0 0 1 .48.72c0 .56-.52.79-1 .8a1.19 1.19.0 0 1-.73-.34A1 1 0 0 1 226.18 41.3z"/><path class="cls-3" d="M224.1 41a.6.6.0 0 1 .84.0 3.07 3.07.0 0 1 .41.47.54.54.0 0 1-.58.87 1.35 1.35.0 0 1-.8-.68A.59.59.0 0 1 224.1 41z"/><path class="cls-3" d="M224.91 39.62c.06-.23.28-.26.47-.21.47.05.43.79.0.72a.72.72.0 0 1-.29-.1A.34.34.0 0 1 224.91 39.62z"/><path class="cls-3" d="M224.59 37.69a.73.73.0 0 1 .8.0.39.39.0 0 1-.15.76c-.26.0-.51.0-.68-.2A.38.38.0 0 1 224.59 37.69z"/><path class="cls-3" d="M223.48 39.15c.07.0.11.09.17.13a.32.32.0 1 1-.42.48.51.51.0 0 1-.17-.24A.29.29.0 0 1 223.48 39.15z"/><path class="cls-3" d="M206.25 18.59a1.8 1.8.0 0 1 0-.95.68.68.0 0 1 1-.34 1.36 1.36.0 0 1 .57.74 3.65 3.65.0 0 1 .18.56 1.15 1.15.0 0 1-.18.78.75.75.0 0 1-1.06.21 1.33 1.33.0 0 1-.39-.43A1.63 1.63.0 0 1 206.25 18.59z"/><path class="cls-3" d="M204.6 20.26a1 1 0 0 1 .53-.85.65.65.0 0 1 .87.29 1.34 1.34.0 0 1 .16 1.13.74.74.0 0 1-.93.46A1 1 0 0 1 204.6 20.26z"/><path class="cls-3" d="M207.15 21.37l.15-.11v0h.07a.64.64.0 0 1 .45.0h.06a.67.67.0 0 1 .3.19.92.92.0 0 1 .21.47.72.72.0 1 1-1.41.28A.77.77.0 0 1 207.15 21.37z"/><path class="cls-3" d="M207.78 21.21z"/><path class="cls-3" d="M207.26 21.29z"/><path class="cls-3" d="M208.66 19.53a.57.57.0 0 1 .81-.17 1.25 1.25.0 0 1 .4 1.33.64.64.0 0 1-1.07.22A1.23 1.23.0 0 1 208.66 19.53z"/><path class="cls-3" d="M209.16 22.69a.62.62.0 0 1 .72-.05.82.82.0 0 1 .37 1 .59.59.0 0 1-1 .19.74.74.0 0 1-.17-.25.75.75.0 0 1-.05-.16c0-.08.0-.09.0.0A.6.6.0 0 1 209.16 22.69z"/><path class="cls-3" d="M208.77 25A1.38 1.38.0 0 1 209 26a.4.4.0 0 1-.68.14 4.28 4.28.0 0 1-.31-.69A.45.45.0 0 1 208.77 25z"/><path class="cls-3" d="M206.16 23.23a1.37 1.37.0 0 1 .05.53.46.46.0 0 1-.7.35.84.84.0 0 1-.41-.67A.54.54.0 0 1 206.16 23.23z"/><path class="cls-3" d="M205.56 1.52a.54.54.0 0 1 .91.05 2.21 2.21.0 0 1 .09 1.52.73.73.0 0 1-.74.49.72.72.0 0 1-.67-.58A2.17 2.17.0 0 1 205.56 1.52z"/><path class="cls-3" d="M202.73 3a.61.61.0 0 1 1.12-.08 1.41 1.41.0 0 1-.06 1.64.68.68.0 0 1-.78.0C202.45 4.35 202.62 3.51 202.73 3z"/><path class="cls-3" d="M206.56 5.19a1.27 1.27.0 0 1 .36-.73.51.51.0 0 1 .91.19c0-.12.0.15.0.19s0 .25.0.37c0 .31.0.59-.26.8a.56.56.0 0 1-.59.12A.81.81.0 0 1 206.56 5.19z"/><path class="cls-3" d="M204.35 5.76a4.67 4.67.0 0 1 .3-1 .6.6.0 0 1 .45-.39.61.61.0 0 1 .65.32 1.51 1.51.0 0 1 0 1.39.73.73.0 0 1-1.41-.29z"/><path class="cls-3" d="M202.07 5.41l-.23.21v-.06a.59.59.0 0 1 1.06.21h0a1.85 1.85.0 0 1 .12.62 1 1 0 0 1-.27.79.58.58.0 0 1-.55.11 1 1 0 0 1-.59-.81A1 1 0 0 1 202.07 5.41z"/><path class="cls-3" d="M203.62 8.07a.57.57.0 0 1 1 .63l-.06.1h0a.37.37.0 0 1-.06.21.55.55.0 0 1-1 .07A1 1 0 0 1 203.62 8.07z"/><path class="cls-3" d="M206.49 8.52a2.56 2.56.0 0 1 0 .27.49.49.0 0 1-1 .19 2 2 0 0 1-.06-.26A.5.5.0 0 1 206.49 8.52z"/><path class="cls-3" d="M204 10.39s0-.28.0-.2c-.09-.55.79-.69.82-.17a.62.62.0 0 1-.24.65A.35.35.0 0 1 204 10.39z"/><path class="cls-3" d="M223.52 7.43a.52.52.0 0 1 .76.5c-.06.46.05.93-.24 1.34a.66.66.0 0 1-1.12-.07A1.42 1.42.0 0 1 223.52 7.43z"/><path class="cls-3" d="M224.69 9.54c.42-.21 1 .23.81.7a5.49 5.49.0 0 0-.2.57.57.57.0 0 0 0 .14s-.06.23.0.09a1.88 1.88.0 0 1-.2.56.69.69.0 0 1-.63.31.71.71.0 0 1-.63-.56A1.65 1.65.0 0 1 224.69 9.54z"/><path class="cls-3" d="M220.07 9a1.13 1.13.0 0 1 .59-.68.58.58.0 0 1 .74.84c0-.07.0.0.0.05s0 .14.0.13a2.27 2.27.0 0 1-.11.53c-.14.38-.74.59-1 .21A1.14 1.14.0 0 1 220.07 9z"/><path class="cls-3" d="M221.34 11.23a.61.61.0 0 1 1.1.22c0 .47.12 1.07-.41 1.32a.59.59.0 0 1-.69-.13C221 12.28 221.11 11.62 221.34 11.23z"/><path class="cls-3" d="M222.84 13.7a.62.62.0 0 1 1 .68c0-.06.0.11.0.12a.75.75.0 0 1-.15.44.6.6.0 0 1-.93.07A1.08 1.08.0 0 1 222.84 13.7z"/><path class="cls-3" d="M219.26 13.53a.63.63.0 0 1 .87-.17.59.59.0 0 1 .23.7 1.18 1.18.0 0 1 0 .16.81.81.0 0 1-.15.4.57.57.0 0 1-.77.15A.89.89.0 0 1 219.26 13.53z"/><path class="cls-3" d="M220.43 16.29a.78.78.0 0 1 .56-.78.51.51.0 0 1 .56.27.52.52.0 0 1-.22.69c.14-.08.1-.13.06.0C221.25 17.05 220.41 16.84 220.43 16.29z"/><path class="cls-3" d="M219.27 17.89v-.06a.43.43.0 0 1 .24-.35.62.62.0 0 1 .19-.07.4.4.0 0 1 .41.62 1.16 1.16.0 0 1-.25.24A.4.4.0 0 1 219.27 17.89z"/><path class="cls-3" d="M230.37 14a1.34 1.34.0 0 1 .21-.76.64.64.0 0 1 1.14.22s0 .14.0.2h0a2 2 0 0 0 .05.26c0 .21.0.26.0.16a2.26 2.26.0 0 1 0 .26.72.72.0 0 1-.26.49.58.58.0 0 1-.6.13A1 1 0 0 1 230.37 14z"/><path class="cls-3" d="M229.57 11.13a.56.56.0 0 1 1 .49c0-.08.0.15.0.17a1.28 1.28.0 0 1-.08.35.5.5.0 0 1-.83.17A.92.92.0 0 1 229.57 11.13z"/><path class="cls-3" d="M227.74 13.38h0S227.7 13.4 227.74 13.38z"/><path class="cls-3" d="M227.52 13.58a.51.51.0 0 1 .21-.2 1.3 1.3.0 0 0 .21-.09h.14a.34.34.0 0 1 .44.33 1.91 1.91.0 0 1 0 .26 1.14 1.14.0 0 1-.12.81.57.57.0 0 1-.9.06A.92.92.0 0 1 227.52 13.58z"/><path class="cls-3" d="M229 16a.49.49.0 0 1 1-.09 1.85 1.85.0 0 1 .08 1.18.55.55.0 0 1-.91.19A1.47 1.47.0 0 1 229 16z"/><path class="cls-3" d="M229.9 19.05a.52.52.0 0 1 1-.21 1.23 1.23.0 0 1 0 1.06c-.23.42-.84.22-.94-.19A4.87 4.87.0 0 1 229.9 19.05z"/><path class="cls-3" d="M228.87 19.63v.18a.58.58.0 0 1-1.13.22v-.16C227.51 19.13 228.77 18.88 228.87 19.63z"/><path class="cls-3" d="M230.57 21.8v.1a.38.38.0 0 1-.71.15.69.69.0 0 1 0-.1A.39.39.0 1 1 230.57 21.8z"/><path class="cls-3" d="M237.05 10.88c0-.56.91-.79 1.11-.23a1.42 1.42.0 0 1-.21 1.51.56.56.0 0 1-.86-.16A3 3 0 0 1 237.05 10.88z"/><path class="cls-3" d="M235.55 9.17a.55.55.0 0 1 .54-.36.54.54.0 0 1 .5.57 1.3 1.3.0 0 1-.41 1 .49.49.0 0 1-.75-.15A1.23 1.23.0 0 1 235.55 9.17z"/><path class="cls-3" d="M233.84 12.2a5.2 5.2.0 0 0 .08-.69.55.55.0 0 1 .45-.5.56.56.0 0 1 .66.43 1.54 1.54.0 0 1-.09 1 .57.57.0 0 1-1.1-.23z"/><path class="cls-3" d="M235.49 13.11c.12-.46.71-.4.92-.06a1.4 1.4.0 0 1 .17.94.61.61.0 0 1-1.2.08A2 2 0 0 1 235.49 13.11z"/><path class="cls-3" d="M237.19 14.62a.6.6.0 0 1 .69-.23.62.62.0 0 1 .41.6 1.55 1.55.0 0 1-.38 1 .59.59.0 0 1-1-.32A1.56 1.56.0 0 1 237.19 14.62z"/><path class="cls-3" d="M233.65 16.4a.65.65.0 0 1 1.28-.26 1.21 1.21.0 0 1-.08 1.05.53.53.0 0 1-.72.15A1.23 1.23.0 0 1 233.65 16.4z"/><path class="cls-3" d="M234.94 18.67a1.42 1.42.0 0 0 .08-.4.55.55.0 0 1 .43-.64.54.54.0 0 1 .64.42 2.09 2.09.0 0 1-.07 1 .57.57.0 0 1-.72.35A.58.58.0 0 1 234.94 18.67z"/><path class="cls-3" d="M234.15 20.84c-.21.0.08.0.13.0a.29.29.0 0 1 .11.55.38.38.0 0 1-.46-.09A.27.27.0 0 1 234.15 20.84z"/><path class="cls-3" d="M185.8 18.18a.59.59.0 0 1 1-.2 1.16 1.16.0 0 1 .25 1.4.65.65.0 0 1-.92.18A1.15 1.15.0 0 1 185.8 18.18z"/><path class="cls-3" d="M187.83 19.8a.63.63.0 0 1 .88.05A1.61 1.61.0 0 1 189 21a.79.79.0 0 1-.6.68.76.76.0 0 1-.88-.58A1.4 1.4.0 0 1 187.83 19.8z"/><path class="cls-3" d="M184.6 19.87a.72.72.0 0 1 1 .69.49.49.0 0 1 0 .12v.14.0a1 1 0 0 1-.35.69.76.76.0 0 1-1.17-.22A1.11 1.11.0 0 1 184.6 19.87z"/><path class="cls-3" d="M186 22.35c0 .21.0-.1.0-.17s.05-.23.0-.13a.61.61.0 0 1 1.15-.23c-.05-.08.0.0.08.11a1.36 1.36.0 0 1 .11.28.88.88.0 0 1 0 .6.72.72.0 1 1-1.36-.46z"/><path class="cls-3" d="M184 23.4a.65.65.0 0 1 1.21-.25c.2.46.24 1-.27 1.3a.55.55.0 0 1-.58.0A1 1 0 0 1 184 23.4z"/><path class="cls-3" d="M187.74 24.41c.36-.38.88.09.77.51a1.89 1.89.0 0 1-.17.45.46.46.0 0 1-.78.0A.78.78.0 0 1 187.74 24.41z"/><path class="cls-3" d="M185.84 26.18a.34.34.0 0 1 .27-.22.36.36.0 0 1 .43.29.67.67.0 0 1-.08.48.42.42.0 0 1-.67.0A.41.41.0 0 1 185.84 26.18z"/><path class="cls-3" d="M172 7.17a1.65 1.65.0 0 1 .14-.68v0a.55.55.0 0 1 .92-.19v0a1.41 1.41.0 0 1 .35.5 1.19 1.19.0 0 1 0 1.17.72.72.0 0 1-1 .21A1.16 1.16.0 0 1 172 7.17z"/><path class="cls-3" d="M174.26 8.64c0-.15.0-.29.0-.43l.06-.26s.11-.31.08-.21a.57.57.0 0 1 1-.19 1.54 1.54.0 0 1 .33.65 1.25 1.25.0 0 1-.19 1 .68.68.0 0 1-.62.3A.77.77.0 0 1 174.26 8.64z"/><path class="cls-3" d="M170.23 8.64c.06-.5.5-1 1-.72a1.1 1.1.0 0 1 .39.69 1 1 0 0 1-.23 1 .62.62.0 0 1-.62.13A1 1 0 0 1 170.23 8.64z"/><path class="cls-3" d="M172.6 10.33a.69.69.0 0 1 1.29-.26 1.51 1.51.0 0 1 .18.72c-.07.33-.21.62-.56.69a.74.74.0 0 1-.79-.42A1.4 1.4.0 0 1 172.6 10.33z"/><path class="cls-3" d="M170.19 11.61a.57.57.0 0 1 1.07-.22 2.39 2.39.0 0 1 .21.77.57.57.0 0 1-.87.42A1.11 1.11.0 0 1 170.19 11.61z"/><path class="cls-3" d="M174.78 12.74a.5.5.0 0 1 .82-.56.84.84.0 0 1 .28.54.55.55.0 0 1-.42.64.56.56.0 0 1-.65-.42A1.38 1.38.0 0 0 174.78 12.74z"/><path class="cls-3" d="M173 14.31a.53.53.0 0 1 1-.21c0 .05.0.11.0.16a.53.53.0 0 1-1 .21z"/><path class="cls-3" d="M168.44 18.56c-.26-.45.34-.92.75-.65a.43.43.0 0 0 .12.05 1.55 1.55.0 0 1 .39.28 1 1 0 0 1 .29.83.72.72.0 0 1-1.23.42 1.09 1.09.0 0 1-.27-.56 1.43 1.43.0 0 1 0-.22A.76.76.0 0 1 168.44 18.56z"/><path class="cls-3" d="M169.31 18h0z"/><path class="cls-3" d="M166.62 18.78a.61.61.0 0 1 .83-.17 1.35 1.35.0 0 1 .28.25l.17.23a1.09 1.09.0 0 1 .21 1 .66.66.0 0 1-.67.44A1.16 1.16.0 0 1 166.62 18.78z"/><path class="cls-3" d="M167.92 19.13v0h0z"/><path class="cls-3" d="M167.92 19.13z"/><path class="cls-3" d="M169.58 20.81a1 1 0 0 1 .54.55.75.75.0 0 1-.16.85v0a.63.63.0 0 1-.63.12.71.71.0 0 1-.45-.36c-.07-.19-.09-.24.0-.14-.06-.2-.08-.24-.05-.11C168.48 21.27 169.05 20.56 169.58 20.81z"/><path class="cls-3" d="M171.09 21c-.17-.51.6-.86.92-.46s.63 1 .17 1.44a.5.5.0 0 1-.51.11C171.15 21.92 171.23 21.44 171.09 21z"/><path class="cls-3" d="M166.5 22.49a.64.64.0 0 1 .88-.18 1.12 1.12.0 0 1 .47.71.57.57.0 0 1-.74.65 1 1 0 0 1-.33-.2s-.2-.17-.11-.1A.65.65.0 0 1 166.5 22.49z"/><path class="cls-3" d="M171.15 23.93A.6.6.0 0 1 172 24a.76.76.0 0 1 .11 1 .58.58.0 0 1-1-.06v-.13A.6.6.0 0 1 171.15 23.93z"/><path class="cls-3" d="M171.4 26.85v.1a.44.44.0 0 1-.86.18v-.11C170.39 26.47 171.32 26.29 171.4 26.85z"/><path class="cls-3" d="M160.68 18.9c-.05-.33.28-.72.64-.56a1.83 1.83.0 0 1 .6.39 1.71 1.71.0 0 1 .41.76.77.77.0 0 1-1.44.49A6.23 6.23.0 0 1 160.68 18.9z"/><path class="cls-3" d="M159.33 20.37a.63.63.0 0 1 1-.22 1.06 1.06.0 0 1 0 1.48.69.69.0 0 1-.82.05A1 1 0 0 1 159.33 20.37z"/><path class="cls-3" d="M162.27 22.28h0v0z"/><path class="cls-3" d="M161.1 23.08c0 .14.0.09.0-.14v-.13a.66.66.0 0 1 1.14-.53l.16.14a.9.9.0 0 1 .2.28 1.06 1.06.0 0 1 .07.9.82.82.0 0 1-.6.53.8.8.0 0 1-.88-.43A1.19 1.19.0 0 1 161.1 23.08z"/><path class="cls-3" d="M159.59 23.25c-.17-.3.13.15.0.0z"/><path class="cls-3" d="M158.07 22.78a.72.72.0 0 1 1.13-.08 1.66 1.66.0 0 1 .16.21c-.13-.19.08.12.12.19v0l.1.13.08.13a.94.94.0 0 1-.31 1.41C158.2 25.35 157.41 23.61 158.07 22.78z"/><path class="cls-3" d="M163.24 20.42a.35.35.0 0 1 .46-.34 1.26 1.26.0 0 1 1.13 1.1.79.79.0 0 1-.4.81.74.74.0 0 1-1-.33A1.73 1.73.0 0 1 163.24 20.42z"/><path class="cls-3" d="M163.63 25.22c0-.17.0-.33.06-.46a.71.71.0 0 1 1.33-.27 1.83 1.83.0 0 1 .19 1 .79.79.0 0 1-.62.7.77.77.0 0 1-.84-.41A1.36 1.36.0 0 1 163.63 25.22z"/><path class="cls-3" d="M161 26.07a.47.47.0 0 1 .82.05v0q-.12-.08.09.09l.12.16a1.09 1.09.0 0 1 .24.69.63.63.0 0 1-.83.55 1 1 0 0 1-.61-.72A1.1 1.1.0 0 1 161 26.07z"/><path class="cls-3" d="M164.7 28.7c.06.33.05.78-.37.86s-.59-.32-.67-.65A.53.53.0 0 1 164.7 28.7z"/><path class="cls-3" d="M160.07 34.65h0C160 34.58 160 34.59 160.07 34.65z"/><path class="cls-3" d="M158.9 34.89a.69.69.0 0 1 1.16-.25l.11.09c0 .06.09.11.13.16a1.24 1.24.0 0 1 .34.65.81.81.0 0 1-.26.76.79.79.0 0 1-.8.17A1.28 1.28.0 0 1 158.9 34.89z"/><path class="cls-3" d="M157.49 35.4h.08a.59.59.0 0 1 .23.05 1.41 1.41.0 0 1 .34.19 1.19 1.19.0 0 1 .5 1 .77.77.0 0 1-.43.65.82.82.0 0 1-.79-.05C156.77 36.87 156.49 35.46 157.49 35.4z"/><path class="cls-3" d="M160.7 38a1.26 1.26.0 0 1 .78.84.65.65.0 0 1-.36.74.68.68.0 0 1-.91-.3l-.09-.16v0L160 39C159.59 38.56 160.13 37.69 160.7 38z"/><path class="cls-3" d="M157 38.18c-.11.0.16.0.2.0a1 1 0 0 1 .48.16 1.68 1.68.0 0 1 .6.64.76.76.0 0 1-.17.91.75.75.0 0 1-.92.06 1.81 1.81.0 0 1-.49-.54 1.55 1.55.0 0 1-.14-.32 1.41 1.41.0 0 1-.05-.18A.51.51.0 0 1 157 38.18z"/><path class="cls-3" d="M159.22 40.48a.56.56.0 0 1 .67-.35.81.81.0 0 1 .6.28.62.62.0 0 1-.66 1 1 1 0 0 1-.48-.37A.56.56.0 0 1 159.22 40.48z"/><path class="cls-3" d="M162.26 35.87c-.13-.06.35.08.19.0a1.15 1.15.0 0 1 .33.17.89.89.0 0 1 .39.79.63.63.0 0 1-.67.58 1 1 0 0 1-.88-.75C161.36 36.28 161.77 35.66 162.26 35.87z"/><path class="cls-3" d="M162.88 39.21a.61.61.0 0 1 .76-.37 1.46 1.46.0 0 1 1 .64.56.56.0 0 1-.39.79 1.52 1.52.0 0 1-1.1-.37A.61.61.0 0 1 162.88 39.21z"/><path class="cls-3" d="M164 42c0-.57.88-.73 1.09-.22.0.06.15.29.05.14.33.5-.37 1-.82.73A.75.75.0 0 1 164 42z"/><path class="cls-3" d="M183.24 45.55a1.15 1.15.0 0 1 1.8-.16.81.81.0 0 1 .07 1 1.22 1.22.0 0 1-1.65.31A.81.81.0 0 1 183.24 45.55z"/><path class="cls-3" d="M185.85 45.19a1 1 0 0 1 .81-.85 1.08 1.08.0 0 1 1.26.59.82.82.0 0 1 0 .79.77.77.0 0 1-.72.35 2.57 2.57.0 0 1-1-.35A.58.58.0 0 1 185.85 45.19z"/><path class="cls-3" d="M183.31 47.88a1.83 1.83.0 0 1 .89-.18 1.33 1.33.0 0 1 1 .36.81.81.0 0 1-.06 1.14 1.67 1.67.0 0 1-1.88.0A.78.78.0 0 1 183.31 47.88z"/><path class="cls-3" d="M186.13 47.9a.67.67.0 0 1 .52-.78 1.14 1.14.0 0 1 .66.05.7.7.0 0 1 .45.69.72.72.0 0 1-.37.55.63.63.0 0 1-.52.0h0A.67.67.0 0 1 186.13 47.9z"/><path class="cls-3" d="M186.03 50.06v0V50.07 50.06z"/><path class="cls-3" d="M186 50.06s.1-.12.0.0z"/><path class="cls-3" d="M186.06 50.06h0a1.25 1.25.0 0 1 1.26-.44.73.73.0 0 1 .5.75 1.05 1.05.0 0 1-.63.86 1 1 0 0 1-.57.11l-.29-.05A.66.66.0 0 1 186.06 50.06z"/><path class="cls-3" d="M189.36 47.57h.49a.78.78.0 0 1 .71.82.76.76.0 0 1-.81.71 1.51 1.51.0 0 0-.3.0.76.76.0 0 1-.09-1.51z"/><path class="cls-3" d="M189 45.91A.67.67.0 0 1 190 46a.48.48.0 0 1-.11.59.75.75.0 0 1-.82.1A.47.47.0 0 1 189 45.91z"/><path class="cls-3" d="M192.48 47.55a.56.56.0 0 1 .45-.66 1 1 0 0 1 1 .5.52.52.0 0 1-.12.64.56.56.0 0 1-.66.0c-.09-.06-.21-.07.0-.09A.58.58.0 0 1 192.48 47.55z"/><path class="cls-3" d="M175.86 26.52a1.51 1.51.0 0 1 .9.22 1.15 1.15.0 0 1 .55 1 .81.81.0 0 1-.63.72 1.37 1.37.0 0 1-1.38-.78A.81.81.0 0 1 175.86 26.52z"/><path class="cls-3" d="M174.64 29.12a.78.78.0 0 1 .9-.32 1.57 1.57.0 0 1 .84 1.07.72.72.0 0 1-.56.86 1.11 1.11.0 0 1-1.23-.67A1 1 0 0 1 174.64 29.12z"/><path class="cls-3" d="M178.12 28.39a.59.59.0 0 1 .77-.52 1.18 1.18.0 0 1 .85 1.08.7.7.0 0 1-.75.66 1 1 0 0 1-.74-.54A1.09 1.09.0 0 1 178.12 28.39z"/><path class="cls-3" d="M177.22 30.66v0 0z"/><path class="cls-3" d="M177.25 30.68h0c-.07-.11-.07-.07.0.0a.58.58.0 0 1 .43-1 1.11 1.11.0 0 1 .61.2.83.83.0 0 1 .32.93.63.63.0 0 1-.63.41.73.73.0 0 1-.54-.27c-.06-.08-.1-.15-.15-.23v0z"/><path class="cls-3" d="M180.48 31.09a1.09 1.09.0 0 1 .29.35c.19.38-.28.84-.64.57l-.25-.22C179.49 31.43 180.07 30.77 180.48 31.09z"/><path class="cls-3" d="M178 32.32a.81.81.0 0 1 .35.22.48.48.0 0 1 0 .66v0a.52.52.0 0 1-.52.1 1 1 0 0 1-.33-.16A.52.52.0 0 1 178 32.32z"/><path class="cls-3" d="M191.61 30.19a.69.69.0 0 1 .48-1 1.12 1.12.0 0 1 1.25.93.76.76.0 0 1-.4.81.75.75.0 0 1-.89-.17l-.15-.22h0v0c-.05-.06.0-.06.0.0h0A1.48 1.48.0 0 1 191.61 30.19z"/><path class="cls-3" d="M190.89 29.56a.88.88.0 0 1 .28 1.25.67.67.0 0 1-.75.26 1.17 1.17.0 0 1-.58-.58A.73.73.0 0 1 190.89 29.56z"/><path class="cls-3" d="M192.5 31.59a1 1 0 0 1 .49.95.64.64.0 0 1-.84.55 1 1 0 0 1-.62-.85A.64.64.0 0 1 192.5 31.59z"/><path class="cls-3" d="M189.89 32.76a.54.54.0 0 1 1-.21.66.66.0 0 1 .05.58.52.52.0 0 1-.89.18A.65.65.0 0 1 189.89 32.76z"/><path class="cls-3" d="M194.44 32s0 .07.0.11a.44.44.0 0 1-.87.17v-.1C193.39 31.61 194.37 31.41 194.44 32z"/><path class="cls-3" d="M193.71 34.5a.34.34.0 0 1 .67-.14.19.19.0 0 1 0 .1.35.35.0 0 1-.69.14A.17.17.0 0 1 193.71 34.5z"/><path class="cls-3" d="M203.24 27.55a1.16 1.16.0 0 1 1.4.17.68.68.0 0 1 .06.82 1.28 1.28.0 0 1-1.37.39.74.74.0 0 1-.49-.56A.76.76.0 0 1 203.24 27.55z"/><path class="cls-3" d="M204.51 29.71a1 1 0 0 1 1.67-.48.63.63.0 0 1-.18 1 1.35 1.35.0 0 1-1.25.0A.55.55.0 0 1 204.51 29.71z"/><path class="cls-3" d="M203.18 30.91a1 1 0 0 1 1-.14.6.6.0 0 1-.24 1.17.91.91.0 0 1-.77-.3A.53.53.0 0 1 203.18 30.91z"/><path class="cls-3" d="M202.3 29.28a.55.55.0 1 1 .21 1 .53.53.0 0 1-.21-1z"/><path class="cls-3" d="M200.75 29a.22.22.0 0 1 0-.08c0 .09.0.0.0-.07-.16-.56.81-.75.88-.17a.69.69.0 0 1-.09.54.43.43.0 0 1-.49.16h0A.38.38.0 0 1 200.75 29z"/><path class="cls-3" d="M2e2 31.17a.48.48.0 0 1 .49-.43.54.54.0 0 1 .5.32c.26.45-.36.84-.7.57A.48.48.0 0 1 2e2 31.17z"/><path class="cls-3" d="M203.37 34.55v0C203.29 34.35 203.32 34.44 203.37 34.55z"/><path class="cls-3" d="M203.41 33.91a.78.78.0 0 1 .77-.34 1.09 1.09.0 0 1 .92.84.82.82.0 0 1-1.25.83 1.47 1.47.0 0 1-.44-.58s0-.07.0-.11A.69.69.0 0 1 203.41 33.91z"/><path class="cls-3" d="M202 36.19a.7.7.0 0 1 1.33-.27c-.06-.11.0-.07.08.11l.1.22a1 1 0 0 1 0 .67.63.63.0 0 1-.64.42A1 1 0 0 1 202 36.19z"/><path class="cls-3" d="M204.64 36.55a.88.88.0 0 1 1 .46.75.75.0 0 1-1.23.83c-.06-.06-.24-.32-.09-.12-.06-.08-.1-.15-.15-.23A.67.67.0 0 1 204.64 36.55z"/><path class="cls-3" d="M206.71 34.47c.4.22.82.55.78 1a.56.56.0 0 1-.6.52c-.54.0-.7-.51-.89-.92A.5.5.0 0 1 206.71 34.47z"/><path class="cls-3" d="M206.75 38a.56.56.0 0 1-.15-.76.55.55.0 0 1 .76-.15.7.7.0 0 1 .23.95.47.47.0 0 1-.67.14.53.53.0 0 1-.14-.12C206.71 38 206.54 37.83 206.75 38z"/><path class="cls-3" d="M207.82 40.25a.77.77.0 0 1 0 .65.42.42.0 0 1-.56.11c-.22-.12-.25-.35-.29-.57A.46.46.0 0 1 207.82 40.25z"/><path class="cls-3" d="M246.43 34.52a1.13 1.13.0 0 1 .74-.29.81.81.0 0 1 .65.41 1 1 0 0 1-.09 1 .61.61.0 0 1-.19.24c.1-.11.06-.07-.1.12a1.25 1.25.0 0 1-.37.21.75.75.0 0 1-1.07-.52A1.14 1.14.0 0 1 246.43 34.52z"/><path class="cls-3" d="M247.81 37.19c.05-.06.29-.34.13-.14.08-.1.17-.19.25-.28h.05l.06-.08v0a.49.49.0 0 1 .57-.19.93.93.0 0 1 .66.72 1.22 1.22.0 0 1-.66 1.23C248.18 38.8 247.29 37.85 247.81 37.19z"/><path class="cls-3" d="M243.38 35.58a1.08 1.08.0 0 1 .48-.37.89.89.0 0 1 .48-.08h.19.09a.69.69.0 0 1 .42.86c0-.18.0-.16.0.08a1.51 1.51.0 0 1-.15.28c.07-.16.06-.13-.05.1v0c.07-.15.06-.11-.06.12a.87.87.0 0 1-1.36.17A1 1 0 0 1 243.38 35.58z"/><path class="cls-3" d="M244.68 37.53a1.2 1.2.0 0 1 1.26-.45.82.82.0 0 1 .41 1.22c0 .07-.11.13-.17.2.08-.1.09-.11.0.0a2.1 2.1.0 0 1-.31.41.88.88.0 0 1-1.24.0A1.07 1.07.0 0 1 244.68 37.53z"/><path class="cls-3" d="M246.63 40.81a1.44 1.44.0 0 1 .4-.57 1.42 1.42.0 0 1 1.09-.47.88.88.0 0 1 .75 1.14 1.62 1.62.0 0 1-.5.72 1.39 1.39.0 0 1-1.05.46.8.8.0 0 1-.74-.66A1.31 1.31.0 0 1 246.63 40.81z"/><path class="cls-3" d="M244.52 40.86a.62.62.0 0 1 1.12.38c0 .5-.51 1.06-1.07.85a.56.56.0 0 1-.37-.42C244.14 41.3 244.35 41.13 244.52 40.86z"/><path class="cls-3" d="M242.11 39.11a.67.67.0 0 1 1.11.74s-.23.27-.1.11a.73.73.0 0 1-.17.18A.61.61.0 0 1 242 40 .75.75.0 0 1 242.11 39.11z"/><path class="cls-3" d="M242.41 43v0 0 0z"/><path class="cls-3" d="M242.41 43c.08.0.0.0.0.0z"/><path class="cls-3" d="M241.55 42.41a.91.91.0 0 1 .74-.59c.74-.2 1 1 .24 1.16h-.12v0A.54.54.0 0 1 241.55 42.41z"/><path class="cls-3" d="M241.51 44.57a4.24 4.24.0 0 1 .65-.38c.42-.25.77.43.34.67a1.53 1.53.0 0 1-.8.27A.32.32.0 0 1 241.51 44.57z"/><path class="cls-3" d="M238.51 43.13l.09-.06c.38-.25.55.59.1.51h-.1A.23.23.0 0 1 238.51 43.13z"/><path class="cls-3" d="M232.05 48.21a.67.67.0 0 1 .25 1.26c-.46.21-1.16.15-1.28-.45S231.58 48.19 232.05 48.21z"/><path class="cls-3" d="M230.81 50.09c.06-.05.06.0.0.0a.61.61.0 0 1 1 .07v0a.64.64.0 0 1-.15.75.58.58.0 0 1-.37.19.64.64.0 0 1-.67-.33A.61.61.0 0 1 230.81 50.09z"/><path class="cls-3" d="M228.78 49.47a.75.75.0 0 1 .71.8.51.51.0 0 1-.88.3c.16.16-.15-.12.0.0a1 1 0 0 1-.16-.12l-.07-.11A.52.52.0 0 1 228.78 49.47z"/><path class="cls-3" d="M228.36 50.33s0 0 0 0z"/><path class="cls-3" d="M229.27 48.29a.67.67.0 0 1 .49.19c.26.23-.06.6-.34.52a1.28 1.28.0 0 1-.28-.07A.33.33.0 0 1 229.27 48.29z"/><path class="cls-3" d="M220.79 51.05a.83.83.0 0 1 .27-.57.89.89.0 0 1 .83-.16 1.49 1.49.0 0 1 .91 1.73.79.79.0 0 1-1 .49A1.71 1.71.0 0 1 220.79 51.05z"/><path class="cls-3" d="M220 53.37a.82.82.0 0 1 1.11-.22.93.93.0 0 1 .51.69.79.79.0 0 1-1.2.8 2.52 2.52.0 0 1-.35-.3A.81.81.0 0 1 220 53.37z"/><path class="cls-3" d="M217.92 52.07a.67.67.0 0 1 .89.29 1.2 1.2.0 0 1 .11.23c0 .11.05.25.09.35a.53.53.0 0 1-.86.59 2 2 0 0 0-.27-.23 1.46 1.46.0 0 1-.26-.34A.67.67.0 0 1 217.92 52.07z"/><path class="cls-3" d="M219 51.05a.56.56.0 0 1 .94-.19 1.28 1.28.0 0 1 .22.57.58.58.0 0 1-1.14.23A1.26 1.26.0 0 1 219 51.05z"/><path class="cls-3" d="M222.07 48.12a.83.83.0 0 1 .47 1.19.55.55.0 0 1-.75.15 1.07 1.07.0 0 1-.44-.52A.6.6.0 0 1 222.07 48.12z"/><path class="cls-3" d="M219.35 48.9v0S219.34 48.9 219.35 48.9z"/><path class="cls-3" d="M219.47 49.09h0S219.5 49.14 219.47 49.09z"/><path class="cls-3" d="M219.8 47.94a.78.78.0 0 1 .68 1 .54.54.0 0 1-1 .21 1.58 1.58.0 0 0-.1-.16v0a.42.42.0 0 1-.09-.14A.57.57.0 0 1 219.8 47.94z"/><path class="cls-3" d="M216.68 49.68a.62.62.0 0 1 .95-.47.86.86.0 0 1 .34 1 .6.6.0 0 1-1 .21A1.25 1.25.0 0 1 216.68 49.68z"/><path class="cls-3" d="M199.49 35.85a1 1 0 0 1 .65-.44c.5-.16.81.48.58.87a1.42 1.42.0 0 1-.36.41c-.23.15-.63.25-.82.0A.69.69.0 0 1 199.49 35.85z"/><path class="cls-3" d="M197.56 35.93a.45.45.0 0 1 .62-.13c.44.28.47 1.17-.12 1.29S197.3 36.3 197.56 35.93z"/><path class="cls-3" d="M198.43 37.57a1 1 0 0 1 .22-.5.43.43.0 0 1 .71.47 2.69 2.69.0 0 1-.16.29C199 38.16 198.37 38 198.43 37.57z"/><path class="cls-3" d="M202.21 40.16a.62.62.0 0 1 .75.0.63.63.0 0 1 .25.72c0-.15-.05.18-.06.21a.81.81.0 0 1-.17.28.64.64.0 0 1-.54.27.61.61.0 0 1-.54-.48A1 1 0 0 1 202.21 40.16z"/><path class="cls-3" d="M203.15 42.36a.75.75.0 0 1 .9-.81.43.43.0 0 1 .29.33c0 .46-.42 1.2-1 .9A.48.48.0 0 1 203.15 42.36z"/><path class="cls-3" d="M201.74 43.07a.61.61.0 0 1 .39-.26.52.52.0 0 1 .21 1h-.22A.5.5.0 0 1 201.74 43.07z"/><path class="cls-3" d="M185.58 41.84a.72.72.0 0 1 .76-.19.56.56.0 0 1 .28.82s-.08.14.0.0a1.08 1.08.0 0 1-.24.36.59.59.0 0 1-.84.0A.74.74.0 0 1 185.58 41.84z"/><path class="cls-3" d="M186.77 42.82a.78.78.0 0 1 .26-.41 1.36 1.36.0 0 1 .37-.18c.41-.14.85.24.58.66l-.1.19a2.42 2.42.0 0 1-.25.31A.54.54.0 0 1 186.77 42.82z"/><path class="cls-3" d="M187.59 41.27a.6.6.0 0 1 .43-.36c.54-.18.76.81.18.88.0.0.0.0.0.0C187.89 42 187.43 41.61 187.59 41.27z"/><path class="cls-4" d="M251.2 60.91c-20-2.4-39.32-3.85-59.82-2.21-10.91.87-22 1.36-32.57 3.3-6.81 1.25-12.44 1.94-19.64 3.55-7.53 1.67-14.87 2.33-22.28 4.12C110.32 71.27 84 75.12 99.5 80.59c5.8 2 13.19 1.8 19 3.41 7.18 2 12.4.49 19.28 1.37 4.92.62 7.92 2 12.65 2.35 5.21.37 11.13-.29 16.53.0 11 .54 21.82.35 32.5 2.6 12 2.52 21.5 3.74 34.08 1.54 4.4-.77 11.11-1.91 17.66-3.57z"/><path class="cls-5" d="M251.2 76.06a2.93 2.93.0 0 1-2-1.57 3.17 3.17.0 0 1 .23-2.79c.44-.89 1.09-1.71 1.55-2.6l.2-.38V65.85A.59.59.0 0 0 251 66a32.37 32.37.0 0 1-11.46 6.7 68.91 68.91.0 0 1-12.37 3.1 72.77 72.77.0 0 1-12.79.75q-3.25-.09-6.48-.41c-1-.09-2-.12-2.93-.2a9.14 9.14.0 0 0-1.83-.2c-1.75.54 1.25 1.29 1.75 1.42 9.2 2.43 19.28 1 29 .17a31.68 31.68.0 0 1 7 0 5.88 5.88.0 0 1 2.67.89c3.51 2.66-4.83 4.56-7 4.91a59.88 59.88.0 0 1-11.9.42c-2.27-.11-4.55-.23-6.81-.39-11.34-.75-22.61-2.06-33.72-3.92-10.49-1.76-20.59-5-31.52-3.88-3.61.35-7.15 1.07-10.77 1.35a45.19 45.19.0 0 1-11.21-.56 8.37 8.37.0 0 1-2.78-.86 1.87 1.87.0 0 1-1.11-2c.22-.74 1.13-1.25 2-1.64a53.52 53.52.0 0 1 11.72-3.19l23.38-4.52c7.26-1.41 14.66-2.46 22-3.69q6.17-1 12.36-1.93c-2.26.11-4.52.25-6.8.44-10.91.87-22 1.36-32.57 3.3-6.81 1.25-12.44 1.94-19.64 3.55-7.53 1.67-14.87 2.33-22.28 4.12-.38.1-.83.2-1.33.3-3.31.59-6.62 1.32-10 2.13h-.07c-8.24 2-15.83 4.79-6.54 8.28l.53.19c5.8 2 13.19 1.8 19 3.41l.65.17.27.06.36.09.36.07.26.06.41.08h.19l.46.08h.13l.5.07h.07l.54.07h0l.56.06c4.93.51 9.23-.2 14.49.48 4.92.62 7.92 2 12.65 2.35 5.21.37 11.13-.29 16.53.0 11 .54 21.82.35 32.5 2.6 12 2.52 21.5 3.74 34.08 1.54 4.4-.77 11.11-1.91 17.66-3.57z"/><path class="cls-6" d="M250.38 60.91c-19.95-2.4-38.5-3.85-59-2.21-10.91.87-22 1.36-32.57 3.3-6.81 1.25-12.44 1.94-19.64 3.55-7.53 1.67-14.87 2.33-22.28 4.12C110.32 71.27 84 75.12 99.5 80.59c5.8 2 13.19 1.8 19 3.41 7.18 2 12.4.49 19.28 1.37 4.92.62 7.92 2 12.65 2.35 5.21.37 11.13-.29 16.53.0 11 .54 21.82.35 32.5 2.6 12 2.52 21.5 3.74 34.08 1.54 4.4-.77 10.29-1.91 16.84-3.57"/><path class="cls-2" d="M86 86.27c1.25-1 2.07-1.72 2.15-3.37a3.11 3.11.0 0 0-2.6-3.34c-3.43-.29-5.41 3.71-5.53 6.56a18.06 18.06.0 0 0 1.08 6.67c-2.54-2.91-5.23-5.67-7.21-9a18.7 18.7.0 0 1-1.47-3.2 2.62 2.62.0 0 1 1-2.14c.85-.72 1.88-1.22 2.78-1.89a12.84 12.84.0 0 0 4.34-5.74c1.2-3.18 1.13-7.79-2-9.92-3.51-2.38-4 4-4 5.94a32.17 32.17.0 0 1-.17 6 5.26 5.26.0 0 1-2.94 3.92 58.69 58.69.0 0 1-.58-6.59 57.27 57.27.0 0 0-1.61-12.4 16.45 16.45.0 0 0-.17-3 24.59 24.59.0 0 0-2-8.15c-1.32-2.71-5-7.81-8.48-5-3.77 3.1.14 7 2.65 9.22a20.69 20.69.0 0 1 4.38 5.58A30.72 30.72.0 0 1 68 61.84c.23 1.7.42 3.42.57 5.14-1.48.17-2.58-1-3.61-2.14a26.08 26.08.0 0 1-3.65-5.35c-.72-1.34-1.21-2.8-1.88-4.17s-1.74-3.62-3.46-4c-2-.52-3.34 2-3.57 3.62-.37 2.64 1.45 5.14 3.1 7a20.15 20.15.0 0 0 6.35 4.49c2.32 1.14 4.65 2.21 6.43 4.12a36.17 36.17.0 0 0 1.44 10.34 21.32 21.32.0 0 0 3 7 22.49 22.49.0 0 0-2.17-1.19 43.64 43.64.0 0 0-6.69-2.39c-.3-.27-.64-.52-.94-.78a6.43 6.43.0 0 1-2-3.35 5 5 0 0 1 .23-3.82 10.88 10.88.0 0 0 1.23-3.22c.39-2.89-2.17-4.9-4.72-3.37-3.11 1.87-2 6.24-.93 8.94a14.19 14.19.0 0 0 2.37 4 30.65 30.65.0 0 1-10-6.19c.2-.67.17-1.5.3-2.12a32.77 32.77.0 0 1 1.28-3.89 10.66 10.66.0 0 0 .61-5.58c-.47-2.44-1.22-6.24-3.43-7.73a2.22 2.22.0 0 0-3 .52c-1.15 1.2-.93 2.88-.55 4.35.47 1.75 1.34 3.36 2 5a11.61 11.61.0 0 1 .24 6.56L46.08 73c-2.26-3.16-2.85-6.82-3.52-10.56-.41-2.24-1.18-4.46-3.16-5.79-1.35-.92-3-.84-3.81.66-1.25 2.19-.15 5.46.87 7.5A24.34 24.34.0 0 0 41.08 71a40.92 40.92.0 0 0 6.22 7c.21.21.43.41.65.6a12.48 12.48.0 0 1-1.61.13 10.17 10.17.0 0 1-1.8-.69 31.8 31.8.0 0 1-5.87-3.72c-2.68-2-5.21-4.9-8.87-4.79-1.88.07-2.38 1.87-2 3.42.69 2.58 2.64 4.12 5.05 5.06a44.34 44.34.0 0 0 7.63 1.81c2.88.57 6 1.19 8.91.3l.23-.09c.85.67 1.73 1.28 2.63 1.86h-.06c-2.81.82-10.4.49-8.64 4.57C45.48 90.92 52.16 86 54 83a42.69 42.69.0 0 0 5.37 2.54c1.89.74 3.81 1.38 5.73 2l-.92.08a19.6 19.6.0 0 0-4.18.75c-2.5.77-4.27 2.78-3.24 5.46 1.12 2.88 4 1.08 5.47-.33 1-.91 1.8-1.94 2.71-2.89 1.36-1.43 3.62-1.06 5.4-1.17h0q1.18.47 2.34 1c.61.27 1.91 1 2 1 .21.23 2.38 1.29 3 1.68.73.7 1.47 1.4 2.17 2.13A9.6 9.6.0 0 0 78 94.32a10.73 10.73.0 0 0-5.07-.11 67 67 0 0 0-10.15 3c-1.43.48-2.87.93-4.33 1.33v-.07a5.2 5.2.0 0 0-1.19-1.25c-.6-.78-1.29-1.5-1.93-2.22a23.47 23.47.0 0 0-4.51-4c-2.8-1.82-7.22-2.86-9.9-.19-1.19 1.18-.47 2.76.54 3.73 1.28 1.23 3.77.48 5.3.43a13 13 0 0 1 6.8 1.73 24.73 24.73.0 0 1 3 2 3.7 3.7.0 0 0 .44.29 32.86 32.86.0 0 1-4.83.79A18 18 0 0 1 42.19 98c-3.48-1.92-8-9.71-12.48-5.12C26.33 96.25 33 100.9 35.65 102a19.62 19.62.0 0 0 6.27 1.08 58.73 58.73.0 0 0 7 0 57.55 57.55.0 0 0 10.29-1.89c-.06.12-.12.24-.17.37-.88 1.23-2.77 1.51-4.19 2.23-1.7.87-1.82 2.59.0 3.35 2.06.84 3.68-.29 4.74-2 .53-.89.91-1.86 1.36-2.78a5.26 5.26.0 0 0 .69-1.81c.87-.25 1.61-.47 2.14-.64 1.94-.61 4.29-1.48 6.73-2.15a16.84 16.84.0 0 0-1.49.85c-2.4 1.53-4.9 4.68-3.36 7.66a4.54 4.54.0 0 0 3.85 2.37c1.9.0 2.93-1.42 3.17-3.18s.23-3.79 1.14-5.53A5.92 5.92.0 0 1 75.7 98c.38-.28.77-.55 1.17-.8a2.48 2.48.0 0 0 .48-.44 8.84 8.84.0 0 1 5 1.54 13.5 13.5.0 0 1 1.49 2.81c1.72 7.23-1.76 10.11-1.78 11.52.0.58 2.94-.67 3.18-1 2.38-3 1.29-10.12.65-11.73a16.63 16.63.0 0 0-.81-1.71 15 15 0 0 0-.48-2.32 15.36 15.36.0 0 1-.66-3.29C83.71 90.32 84.07 87.74 86 86.27z"/><path class="cls-2" d="M143.57 70.21c-2.84-2-6.57 2.44-8.26 4.21a13.17 13.17.0 0 1-6.47 3.82 13.48 13.48.0 0 1-3.91.09 3.14 3.14.0 0 1-2.44-.88c5-.92 9.14-5.17 12-9a25.67 25.67.0 0 0 4.3-9c.67-2.64.91-6.2-.72-8.56a2.85 2.85.0 0 0-4.23-.49c-2 1.51-2.49 4.47-2.87 6.78-.46 2.8-.58 5.64-1.26 8.39a11.56 11.56.0 0 1-4.09 6.32c-1-1.64-.6-4-.27-5.77a31 31 0 0 1 2-6.22c1-2.28 3.49-7.35.47-9.09-1.71-1-3.57.27-4.46 1.7a14.53 14.53.0 0 0-1.61 6.42c-.24 3.09.68 6 1.07 9a8.34 8.34.0 0 1-.7 5c0 .09-.09.18-.14.26-2.62 3.48-7 4.06-11.32 5a31.1 31.1.0 0 0-6.12 2c.31-.46.61-.92.92-1.33a16.19 16.19.0 0 1 6.08-5.12c3.11-1.48 9-2.23 9.34-6.64a3.2 3.2.0 0 0-2-3.37c-1.08-.3-2.21.75-2.91 1.41-1.14 1.1-2.09 2.39-3.16 3.56a11.37 11.37.0 0 1-1.48 1.46c2-3.84.79-9.34 3.64-13 1.89-2.43 4-4.7 5.39-7.51a13.41 13.41.0 0 0 .94-8.86c-.41-1.55-1.87-3.51-3.72-3-2.32.7-2.45 3.83-2.51 5.79-.1 3.74.78 7.73-1.14 11.18-.22.38-.69 1-1.2 1s-.91-1.34-1.06-1.78v0c-.35-3.38-.45-6.79-1.84-10a9.27 9.27.0 0 0-4.13-4.52c-2.13-1.09-3.91.32-4.57 2.37-.74 2.32 1.83 4.9 3 6.57a43.87 43.87.0 0 1 5 7.84c1.8 4.1 1.15 8.62-.29 12.74-.58-.48-.74-1.83-.88-2.38-.45-1.91-.69-3.86-1.08-5.77-.3-1.45-.57-3.15-1.58-4.3a2.82 2.82.0 0 0-4 0c-1.26 1.39-.88 3.53-.45 5.18a13.52 13.52.0 0 0 2.62 5.18c1.49 1.85 3.85 3.69 3.24 6.35-.46 2-2.23 4-3.48 5.58a24.9 24.9.0 0 1-5.58 5.37A2.4 2.4.0 0 1 97 82.47a4.42 4.42.0 0 1 1.21-4c1.57-1.57 5.72-4.76 2.83-7-3.4-2.69-5.34 2.48-5.56 6.47a32.09 32.09.0 0 0-2.53-3.76 26.29 26.29.0 0 1-1.77-2.76c0-.14.0-.28-.07-.42.4-2.41 3.48-3.58 4.87-5.4 2.13-2.79 2.53-6.65 2.64-10 .09-2.67.62-8.51-2.87-9.37-2-.49-3.45 1.43-3.87 3.1-.54 2.19.0 4.62.39 6.8a22.54 22.54.0 0 1 .2 6.81 11.6 11.6.0 0 1-1.07 3.6A5 5 0 0 1 90.18 68c-.3-.8-.6-1.58-.84-2.35A17.84 17.84.0 0 1 88.47 57c.45-2.27 1.68-4.4 2-6.7A11.17 11.17.0 0 0 90 46a4.12 4.12.0 0 0-1.9-2.75c-1.27-.64-2.52.47-3.24 1.39-1.16 1.47-.92 3.28-.53 5a17.45 17.45.0 0 1 .54 3 2.92 2.92.0 0 1-1.17 2.41 7.38 7.38.0 0 1-1.13-1c-.19-.21-.38-.45-.57-.7-.19-.64-.34-1.28-.48-1.89-.42-1.87-.72-3.78-1.22-5.63-.59-2.18-2.51-7.16-5.53-5.18-1.12.74-1.29 2.38-1.33 3.58a10 10 0 0 0 1.27 5 21.68 21.68.0 0 0 4 5.14c1.48 1.46 3.37 2.47 4.89 3.86.77 1.65 1.58 3.28 2.24 5 .79 2.07 1.47 4.19 2.29 6.25a24.83 24.83.0 0 0 1.65 3.4 14.46 14.46.0 0 0-2.17-1.14c-1.6-.66-4.14-1.18-4.94.86A3.45 3.45.0 0 0 83 75.63c.68 1 2 .85 3 .65 1.26-.26 2.47-.8 3.76-.94a3.77 3.77.0 0 1 2.7 1.31 15.8 15.8.0 0 1 2.08 3.67A6.8 6.8.0 0 1 95 82.77a6.7 6.7.0 0 0-1.1-1.54 3.06 3.06.0 0 0-1.87-1 2.17 2.17.0 0 0-2 1.12 1.08 1.08.0 0 0 .38 1.47c.77.45 1.55.88 2.29 1.39s1.1 1.15 1.84 1.33a24.9 24.9.0 0 1-.91 2.5c-.48 1.18-.95 2.34-1.38 3.51-.36-2.57-1.75-5.27-4.2-4.43-1.81.62-2.89 2.7-1.22 4.08a15.67 15.67.0 0 0 2.59 1.46c1.1.6 1.26 2 1.61 3.14a23.87 23.87.0 0 0-.55 4.54c0 1.67 1.5 11.29 3 12.25.22.14 2.29-.46 2.07-1.43-1.39-6.08-5.25-17.5 4.75-25.29q.5-.39 1-.75a3.61 3.61.0 0 1 3 .93c.77.56 1.48 1.19 2.3 1.68 1.64 1 3.35.36 3.22-1.7s-2.31-2.56-3.94-2.65c-.48.0-1.11.0-1.78.0A26.94 26.94.0 0 1 118.62 80c6.67.5 13.72 4.48 20.3 1.16a13.47 13.47.0 0 0 5.42-5C145.44 74.26 145.45 71.57 143.57 70.21z"/><path class="cls-2" d="M112.77 88.8c-1.6-1.23-4.06-.67-5.82-.17a13.66 13.66.0 0 0-5.72 3.3c-2.81 2.69-4.36 6.9-4.78 10.79-.09.36-.88 3.67 1.18 8.28a.87.87.0 0 0 1.6-.64c-1.91-7.63.56-11.38 2.81-13 2-1.4 4.72-1.12 7-1.34 1.89-.17 3.75-.78 4.74-2.5A3.78 3.78.0 0 0 112.77 88.8z"/><path class="cls-3" d="M59.69 41.28a1.24 1.24.0 0 0-1.41-.77.83.83.0 0 0-.6.59.81.81.0 0 0 .12.68s.08.16.05.06h0a1.76 1.76.0 0 0 .21.38 1 1 0 0 0 1.29.34A1 1 0 0 0 59.69 41.28z"/><path class="cls-3" d="M58.11 43.39a1.32 1.32.0 0 0-.68-.4.76.76.0 0 0-.92.92 1.27 1.27.0 0 0 .89 1 .72.72.0 0 0 1-.66v-.09h0A.87.87.0 0 0 58.11 43.39z"/><path class="cls-3" d="M61.16 43.49a1.37 1.37.0 0 0-.67-.22.61.61.0 0 0-.67.77c-.1-.25.09.28.09.28.12.16.13.18.25.32a1.62 1.62.0 0 0 .19.18.73.73.0 0 0 .34.2c.22.0.27.0.14.0a.65.65.0 0 0 .82-.62A1 1 0 0 0 61.16 43.49z"/><path class="cls-3" d="M62 40.53a.82.82.0 0 0-.76.59.79.79.0 0 0 .55 1h0l.1.1a.66.66.0 0 0 .88.0A1 1 0 0 0 62 40.53z"/><path class="cls-3" d="M61.9 42.2v0z"/><path class="cls-3" d="M64.75 44.15a.74.74.0 0 0-1.16.89 3 3 0 0 1 .25.36.73.73.0 0 0 1.43-.2A1.25 1.25.0 0 0 64.75 44.15z"/><path class="cls-3" d="M64.84 48a1.69 1.69.0 0 0-.72-.66.6.6.0 0 0-.9.75 1.53 1.53.0 0 0 .42.84A.77.77.0 0 0 64.84 48z"/><path class="cls-3" d="M60.37 47.26c-.55-.58-1.37.27-.87.86a3.79 3.79.0 0 0 .49.63.53.53.0 0 0 .89-.37A1.71 1.71.0 0 0 60.37 47.26z"/><path class="cls-3" d="M66.16 51.65c-.54-.57-1.56.19-1.1.85.0.07.0.1.07.22a1.19 1.19.0 0 0 .31.6.69.69.0 0 0 1.18-.49A1.73 1.73.0 0 0 66.16 51.65z"/><path class="cls-3" d="M86 46.44a2.82 2.82.0 0 0-.18-.45v-.06c0-.1-.14-.35-.08-.21l-.14-.37a.75.75.0 0 0-.1-.2s0 0 0 0a.4.4.0 0 0-.72-.2.29.29.0 0 0-.13.08.9.9.0 0 0-.19.2 1.83 1.83.0 0 0-.21.52 1.8 1.8.0 0 0 .22 1.38.87.87.0 0 0 1 .39A.85.85.0 0 0 86 46.44z"/><path class="cls-3" d="M87.81 42.65v-.07a.68.68.0 0 0-1.29.0h0a1.62 1.62.0 0 0 .05 1.77.83.83.0 0 0 .69.39.8.8.0 0 0 .77-.59A2.13 2.13.0 0 0 87.81 42.65z"/><path class="cls-3" d="M90.6 45.1a.79.79.0 0 0-.76-.58.81.81.0 0 0-.79.78A2.29 2.29.0 0 0 89.47 47a.74.74.0 0 0 1.17-.15C91 46.29 90.69 45.67 90.6 45.1z"/><path class="cls-3" d="M88.84 49.28a.75.75.0 0 0-1.5.0 2.17 2.17.0 0 0 0 .88.76.76.0 0 0 1.46.0A2.17 2.17.0 0 0 88.84 49.28z"/><path class="cls-3" d="M93.83 47.79a.75.75.0 0 0-1.3.0 2.11 2.11.0 0 0 0 1.82.82.82.0 0 0 1.41.0A2.15 2.15.0 0 0 93.83 47.79z"/><path class="cls-3" d="M96.38 47.27a4.41 4.41.0 0 0-.26-.59v-.07c0-.11-.15-.38-.1-.24a.78.78.0 0 0-1.48.0A2.33 2.33.0 0 0 94.69 48 .93.93.0 0 0 96.38 47.27z"/><path class="cls-3" d="M98.85 48.28a.77.77.0 0 0-1.48.0c-.11.71-.4 1.73.36 2.18a.81.81.0 0 0 .77.0C99.25 50 99 49 98.85 48.28z"/><path class="cls-3" d="M96.52 52a.8.8.0 0 0-1.59.0 4.11 4.11.0 0 0 0 1.4.81.81.0 0 0 1.55.0A4.11 4.11.0 0 0 96.52 52z"/><path class="cls-3" d="M94.25 54.53a.62.62.0 0 0-1.19.0 1.86 1.86.0 0 0 0 1.5.69.69.0 0 0 1.17.0A1.79 1.79.0 0 0 94.25 54.53z"/><path class="cls-3" d="M96.16 57.71a2.16 2.16.0 0 0 0 .36.68.68.0 0 0 1.36.0c0-.12.0-.24.0-.36A.68.68.0 0 0 96.16 57.71z"/><path class="cls-3" d="M102.38 42.62a3 3 0 0 0-.42-.79 2.24 2.24.0 0 0-.31-.38 1.2 1.2.0 0 0-.21-.17c-.21-.09-.25-.11-.13-.05a.67.67.0 0 0-1 .4 1.8 1.8.0 0 0 .78 2A.87.87.0 0 0 102.38 42.62z"/><path class="cls-3" d="M104.17 40a1.8 1.8.0 0 0-.69-.92 2.21 2.21.0 0 0-.89-.51.7.7.0 0 0-.85.86c.16.74.78 1.64 1.61 1.65A.86.86.0 0 0 104.17 40z"/><path class="cls-3" d="M106.54 43.72c-.41-.35-1.19-.16-1.15.47a1.76 1.76.0 0 0 .68 1.56.84.84.0 0 0 1.25-.71A1.66 1.66.0 0 0 106.54 43.72z"/><path class="cls-3" d="M107.36 39.87a2.09 2.09.0 0 0-.59-.63.77.77.0 0 0-1.15.66 1.62 1.62.0 0 0 .72 1.45.83.83.0 0 0 1.21-.49A1.29 1.29.0 0 0 107.36 39.87z"/><path class="cls-3" d="M104.69 46.59a.5.5.0 0 1 0-.12.71.71.0 0 0-.35-.43.5.5.0 0 0-.65.0.69.69.0 0 0-.34.43.5.5.0 0 0 0 .12.72.72.0 0 0 .69.9A.73.73.0 0 0 104.69 46.59z"/><path class="cls-3" d="M110.43 45.55a.78.78.0 0 0-1.1.0 1.32 1.32.0 0 0-.1 1.74.71.71.0 0 0 1 0 .83.83.0 0 0 .27-.5 1.24 1.24.0 0 0 0-.27A.75.75.0 0 0 110.43 45.55z"/><path class="cls-3" d="M108.78 49.6c0-.83-1.34-.83-1.29.0a2.84 2.84.0 0 0 .3 1.14.58.58.0 0 0 1-.14A3.72 3.72.0 0 0 108.78 49.6z"/><path class="cls-3" d="M29.55 72.08a1.48 1.48.0 0 0-.64-.85L28.58 71c-.07-.05-.24-.08-.28-.12a.71.71.0 0 0-1 1 2.38 2.38.0 0 1 .12.27 3.26 3.26.0 0 0 .34.4 1.36 1.36.0 0 0 1.06.48A.77.77.0 0 0 29.55 72.08z"/><path class="cls-3" d="M30.64 71.28h0S30.57 71.23 30.64 71.28z"/><path class="cls-3" d="M30.63 69.71A.76.76.0 0 0 30.29 71a3.08 3.08.0 0 0 .33.3l.29.2c-.22-.14.21.16.26.19a1.23 1.23.0 0 0 .59.18A.85.85.0 0 0 32.6 71C32.59 70 31.47 69.57 30.63 69.71z"/><path class="cls-3" d="M32.26 73.45a.81.81.0 0 0 0 1.61h.07v0a1.3 1.3.0 0 0 .3.13.75.75.0 0 0 .94-.72C33.65 73.74 32.87 73.45 32.26 73.45z"/><path class="cls-3" d="M31.16 75.77a1.69 1.69.0 0 0-.57-.24h-.17c.14.0-.52-.09-.2.0-.48-.11-1.09.35-.88.88a1.57 1.57.0 0 0 .67.81 1.14 1.14.0 0 0 1.43.0.74.74.0 0 0 .23-.58A1 1 0 0 0 31.16 75.77z"/><path class="cls-3" d="M35.82 77.11a1.18 1.18.0 0 0-.37-.26l-.29-.12.11.08a.91.91.0 0 0-1.25.0.89.89.0 0 0 0 1.25 2.53 2.53.0 0 0 1 .46A.85.85.0 0 0 35.82 77.11z"/><path class="cls-3" d="M36.43 72.47a2.84 2.84.0 0 0-.61-.35.44.44.0 0 0-.6.61 2.73 2.73.0 0 0 .34.6C36.1 73.91 37 73 36.43 72.47z"/><path class="cls-3" d="M56.35 70.72h0a.08.08.0 0 1 0 0z"/><path class="cls-3" d="M58.11 70.72a.92.92.0 0 0-.88-.67.93.93.0 0 0-.87.66l-.12.27a2.45 2.45.0 0 1-.08.29 1.84 1.84.0 0 0-.07.93 1 1 0 0 0 1.66.44A2 2 0 0 0 58.11 70.72z"/><path class="cls-3" d="M60.37 69.64a.62.62.0 0 0-1.18.0 1.11 1.11.0 0 0 0 1 .66.66.0 0 0 1.13.0A1.08 1.08.0 0 0 60.37 69.64z"/><path class="cls-3" d="M59.46 72c-.66.0-.92.68-.94 1.21a.83.83.0 0 0 1.66.0C60.18 72.69 60.06 72 59.46 72z"/><path class="cls-3" d="M62.32 71a.62.62.0 0 0-1 0 1.21 1.21.0 0 0 0 1.54.72.72.0 0 0 1 0A1.22 1.22.0 0 0 62.32 71z"/><path class="cls-3" d="M62 74.65a.51.51.0 0 0-1 0 1.77 1.77.0 0 0-.13 1.5.63.63.0 0 0 1 .13C62.32 75.9 62.14 75.14 62 74.65z"/><path class="cls-3" d="M57.32 75A.85.85.0 0 0 56 74.81a1.35 1.35.0 0 0-.14 1.75.94.94.0 0 0 1.76-.48A1.89 1.89.0 0 0 57.32 75z"/><path class="cls-3" d="M59.75 76.5a.75.75.0 0 0-1.43.0A2 2 0 0 0 58.4 78a.8.8.0 0 0 .91.37.84.84.0 0 0 .59-.78A3.26 3.26.0 0 0 59.75 76.5z"/><path class="cls-3" d="M45.37 84.18A1.69 1.69.0 0 0 44 83.42a1 1 0 0 0-.85 1.46 1.55 1.55.0 0 0 1.39.83A1 1 0 0 0 45.37 84.18z"/><path class="cls-3" d="M44.19 86.89c.06.15.05.12.0-.09a.72.72.0 0 0-.26-.26 1.64 1.64.0 0 0-.92-.25h-.15s-.58.1-.29.06a.64.64.0 0 0-.38.94c0-.14.0-.1.0.1a1 1 0 0 0 .17.19 1.51 1.51.0 0 0 .57.31 1.19 1.19.0 0 0 .7.0.51.51.0 0 0 .26-.09s.19-.2.24-.24A.6.6.0 0 0 44.19 86.89z"/><path class="cls-3" d="M44.13 87.57v0z"/><path class="cls-3" d="M46.15 86.91a1.07 1.07.0 0 0-.8.29.74.74.0 0 0 .15 1.16A.92.92.0 0 0 46.8 88 .76.76.0 0 0 46.15 86.91z"/><path class="cls-3" d="M47.24 85.18a.89.89.0 0 0-1 .43.62.62.0 0 0 .66.9h0a1.35 1.35.0 0 0 .34-.06C47.84 86.31 47.9 85.28 47.24 85.18z"/><path class="cls-3" d="M43.46 89.7a1.43 1.43.0 0 0-1.91-.06.75.75.0 0 0 0 1 2.66 2.66.0 0 0 1.07.47C43.46 91.45 44 90.29 43.46 89.7z"/><path class="cls-3" d="M41.88 91.46a1.73 1.73.0 0 0-1.67-.29A.91.91.0 0 0 40 92.81a1.58 1.58.0 0 0 1.88-.13A.87.87.0 0 0 41.88 91.46z"/><path class="cls-3" d="M43.44 93.84a1.33 1.33.0 0 0-1.35.37.73.73.0 0 0 .51 1.23 2.64 2.64.0 0 0 .84.0A.81.81.0 0 0 43.44 93.84z"/><path class="cls-3" d="M45.28 91.8a1 1 0 0 0-.75-.09.7.7.0 0 0 0 1.35 1 1 0 0 0 .75-.08A.69.69.0 0 0 45.28 91.8z"/><path class="cls-3" d="M46.88 90.39a.82.82.0 0 0-.83-.26c-.56.1-.51.8-.14 1.07l.22.16C46.72 91.77 47.35 90.88 46.88 90.39z"/><path class="cls-3" d="M47.48 93.8h-.07a.54.54.0 0 0-.68.52.55.55.0 0 0 .68.52s.05.0.07.0A.52.52.0 0 0 47.48 93.8z"/><path class="cls-3" d="M58.06 91.37a1.06 1.06.0 0 0-.24-.41.91.91.0 0 0-.91-.24 1.45 1.45.0 0 0-1 1 .73.73.0 0 0 .33.81 1.37 1.37.0 0 0 1.4-.16A1 1 0 0 0 58.06 91.37z"/><path class="cls-3" d="M58.82 94.33a.9.9.0 0 0-.87-.67 1.26 1.26.0 0 0-.81.27l-.2.12c.3-.19-.07.0-.18.08a.92.92.0 0 0-.42 1 1.16 1.16.0 0 0 1.47.75 1.54 1.54.0 0 0 .82-.62A1.2 1.2.0 0 0 58.82 94.33z"/><path class="cls-3" d="M61.36 93.4a.79.79.0 0 0-1 .28 5.83 5.83.0 0 0-.39.69.7.7.0 0 0 .95.95 1.76 1.76.0 0 0 .84-1A.77.77.0 0 0 61.36 93.4z"/><path class="cls-3" d="M60 91.88a.46.46.0 0 0-.65-.14c-.58.18-.35 1.11.24.9a1 1 0 0 0 .34-.21A.45.45.0 0 0 60 91.88z"/><path class="cls-3" d="M59.9 89.38a.9.9.0 0 0-1 .14.5.5.0 0 0 .38.91c.32-.05.65-.07.8-.41A.47.47.0 0 0 59.9 89.38z"/><path class="cls-3" d="M61.67 90.93a1.73 1.73.0 0 0-.17.21.41.41.0 1 0 .65.5.89.89.0 0 0 .16-.34A.39.39.0 0 0 61.67 90.93z"/><path class="cls-3" d="M78.16 60.69a2.31 2.31.0 0 0-.24-1.19.9.9.0 0 0-1.37-.18A1.9 1.9.0 0 0 76 60.4a4.78 4.78.0 0 0-.08.75 1.52 1.52.0 0 0 .41.94 1 1 0 0 0 1.4.0 1.64 1.64.0 0 0 .38-.65A2.35 2.35.0 0 0 78.16 60.69z"/><path class="cls-3" d="M80.66 62.39a1.26 1.26.0 0 0-.89-1 .83.83.0 0 0-1 .58 1.81 1.81.0 0 0 .09 1.48 1 1 0 0 0 1.29.33A1.32 1.32.0 0 0 80.66 62.39z"/><path class="cls-3" d="M77.73 64.42l-.22-.09h.06-.1a.8.8.0 0 0-.57.07h-.08a1 1 0 0 0-.32.32 1.1 1.1.0 0 0-.15.64.93.93.0 0 0 1.85.0A1 1 0 0 0 77.73 64.42z"/><path class="cls-3" d="M76.9 64.39h0C77.07 64.31 77.08 64.31 76.9 64.39z"/><path class="cls-3" d="M77.57 64.35z"/><path class="cls-3" d="M75.37 62.48a.77.77.0 0 0-1.07.0 1.59 1.59.0 0 0-.16 1.78.81.81.0 0 0 1.39.0A1.59 1.59.0 0 0 75.37 62.48z"/><path class="cls-3" d="M75.54 66.59a.82.82.0 0 0-.93.12 1.07 1.07.0 0 0-.21 1.35.76.76.0 0 0 1.29.0 1.17 1.17.0 0 0 .16-.36c0-.07.0-.15.0-.22s0-.12.0.0A.78.78.0 0 0 75.54 66.59z"/><path class="cls-3" d="M76.62 69.44a1.66 1.66.0 0 0 0 1.24.52.52.0 0 0 .89.0 5.83 5.83.0 0 0 .21-.94A.57.57.0 0 0 76.62 69.44z"/><path class="cls-3" d="M79.44 66.51a1.79 1.79.0 0 0 .08.69.58.58.0 0 0 1 .25 1 1 0 0 0 .35-.94A.7.7.0 0 0 79.44 66.51z"/><path class="cls-3" d="M74.7 39a.68.68.0 0 0-1.12.3 2.78 2.78.0 0 0 .26 1.94 1 1 0 0 0 1.06.43.93.93.0 0 0 .69-.91A2.73 2.73.0 0 0 74.7 39z"/><path class="cls-3" d="M78.64 40.21a.75.75.0 0 0-.67-.39.79.79.0 0 0-.75.57 1.8 1.8.0 0 0 .49 2 .87.87.0 0 0 1-.13C79.34 41.81 78.91 40.8 78.64 40.21z"/><path class="cls-3" d="M74.38 43.91a1.55 1.55.0 0 0-.64-.82c-.39-.33-1.13-.14-1.09.46.0-.16.0.2.0.25a4 4 0 0 0 .07.48c.07.39.12.74.52.94a.75.75.0 0 0 .78.0A1.07 1.07.0 0 0 74.38 43.91z"/><path class="cls-3" d="M77.3 44.07a6.7 6.7.0 0 0-.63-1.22.78.78.0 0 0-.67-.38.79.79.0 0 0-.74.56 1.92 1.92.0 0 0 .34 1.75.93.93.0 0 0 1.7-.71z"/><path class="cls-3" d="M80.08 43.05l.34.2v-.06a.75.75.0 0 0-1.28.53h0a2.45 2.45.0 0 0 0 .81 1.21 1.21.0 0 0 .54.93.72.72.0 0 0 .71.0 1.28 1.28.0 0 0 .54-1.18A1.32 1.32.0 0 0 80.08 43.05z"/><path class="cls-3" d="M78.8 46.78a.74.74.0 0 0-1 1 .94.94.0 0 0 .1.1s0 0 0 0a.55.55.0 0 0 .12.24A.71.71.0 0 0 79.26 48 1.25 1.25.0 0 0 78.8 46.78z"/><path class="cls-3" d="M75.31 48.08a2.16 2.16.0 0 0 0 .36.63.63.0 0 0 1.26.0 2.16 2.16.0 0 0 0-.36A.63.63.0 0 0 75.31 48.08z"/><path class="cls-3" d="M78.93 49.8s-.06-.35-.06-.25c0-.71-1.16-.67-1.07.0a.79.79.0 0 0 .47.75A.45.45.0 0 0 78.93 49.8z"/><path class="cls-3" d="M53.59 51a.67.67.0 0 0-.82.83c.19.56.17 1.18.64 1.62a.83.83.0 0 0 1.38-.37A1.82 1.82.0 0 0 53.59 51z"/><path class="cls-3" d="M52.66 54c-.59-.16-1.24.55-.84 1.09.15.21.27.44.4.66l.08.17s.13.28.06.11a2.42 2.42.0 0 0 .4.65.86.86.0 0 0 .86.23.92.92.0 0 0 .66-.86A2.13 2.13.0 0 0 52.66 54z"/><path class="cls-3" d="M58.34 52.14a1.47 1.47.0 0 0-.91-.71.75.75.0 0 0-.73 1.24c-.07-.07.0.0.0.07a1 1 0 0 0 .05.16 2.8 2.8.0 0 0 .27.64c.27.44 1.08.55 1.31.0A1.48 1.48.0 0 0 58.34 52.14z"/><path class="cls-3" d="M57.31 55.25c-.42-.48-1.43-.12-1.34.55s.13 1.38.86 1.56a.76.76.0 0 0 .83-.34C58.06 56.48 57.69 55.69 57.31 55.25z"/><path class="cls-3" d="M56 58.74a.81.81.0 0 0-1.12.0.82.82.0 0 0 0 1.12c-.06-.08.0.13.0.14a1 1 0 0 0 .3.52.75.75.0 0 0 1.18-.15A1.36 1.36.0 0 0 56 58.74z"/><path class="cls-3" d="M60.5 57.62a.8.8.0 0 0-1.13.0.77.77.0 0 0-.12 1v.2a1.06 1.06.0 0 0 .29.46.73.73.0 0 0 1 0A1.13 1.13.0 0 0 60.5 57.62z"/><path class="cls-3" d="M59.73 61.39a1 1 0 0 0-.91-.83.64.64.0 0 0-.63.48.66.66.0 0 0 .46.8c-.21-.06-.17-.13-.08.0C58.9 62.56 59.9 62.07 59.73 61.39z"/><path class="cls-3" d="M61.6 63.11V63a.55.55.0 0 0-.39-.39.77.77.0 0 0-.26.0.51.51.0 0 0-.36.87 1.24 1.24.0 0 0 .39.25A.52.52.0 0 0 61.6 63.11z"/><path class="cls-3" d="M46.65 61.08a1.72 1.72.0 0 0-.46-.91.81.81.0 0 0-1.37.56s0 .18.0.26h0a1.93 1.93.0 0 1 0 .34v.2c0 .11.0.22.0.33a1 1 0 0 0 .45.56.77.77.0 0 0 .79.0A1.25 1.25.0 0 0 46.65 61.08z"/><path class="cls-3" d="M46.92 57.21a.72.72.0 0 0-1.12.86c0-.09.0.19.0.22a2.08 2.08.0 0 0 .19.43.64.64.0 0 0 1.08.0A1.17 1.17.0 0 0 46.92 57.21z"/><path class="cls-3" d="M49.8 59.58z"/><path class="cls-3" d="M50.12 59.77a.7.7.0 0 0-.32-.19l-.29-.06a.54.54.0 0 0-.18.0.42.42.0 0 0-.46.52 2.06 2.06.0 0 0 0 .34 1.5 1.5.0 0 0 .37 1 .74.74.0 0 0 1.15-.15A1.19 1.19.0 0 0 50.12 59.77z"/><path class="cls-3" d="M48.93 63.15a.63.63.0 0 0-1.25.13 2.33 2.33.0 0 0 .2 1.5.7.7.0 0 0 1.2.0A1.89 1.89.0 0 0 48.93 63.15z"/><path class="cls-3" d="M48.5 67.26a.66.66.0 0 0-1.31.0 1.6 1.6.0 0 0 .29 1.32.68.68.0 0 0 1.15-.48A4.88 4.88.0 0 0 48.5 67.26z"/><path class="cls-3" d="M50 67.73V68a.74.74.0 0 0 1.48.0v-.23C51.54 66.76 49.88 66.76 50 67.73z"/><path class="cls-3" d="M48.36 70.89a.59.59.0 0 1 0 .13.49.49.0 0 0 .94.0v-.13A.51.51.0 1 0 48.36 70.89z"/><path class="cls-3" d="M37.44 58.78c-.16-.69-1.35-.75-1.46.0a1.83 1.83.0 0 0 .65 1.84.71.71.0 0 0 1-.42A3.85 3.85.0 0 0 37.44 58.78z"/><path class="cls-3" d="M38.89 56.25a.7.7.0 0 0-.77-.31.69.69.0 0 0-.48.84 1.67 1.67.0 0 0 .77 1.2.63.63.0 0 0 .92-.37A1.61 1.61.0 0 0 38.89 56.25z"/><path class="cls-3" d="M41.82 59.64a5 5 0 0 1-.28-.85.71.71.0 0 0-.69-.52.73.73.0 0 0-.72.71 2 2 0 0 0 .35 1.22.73.73.0 0 0 1.34-.56z"/><path class="cls-3" d="M40 61.2c-.27-.54-1-.32-1.18.16a1.86 1.86.0 0 0 0 1.23.78.78.0 0 0 1.53-.21A2.39 2.39.0 0 0 40 61.2z"/><path class="cls-3" d="M38.21 63.53a.77.77.0 0 0-.93-.12.79.79.0 0 0-.35.87 1.87 1.87.0 0 0 .73 1.18c.47.35 1.12-.13 1.12-.64A2 2 0 0 0 38.21 63.53z"/><path class="cls-3" d="M43.11 64.87a.84.84.0 0 0-1.67.0 1.55 1.55.0 0 0 .37 1.31.68.68.0 0 0 .94.0A1.58 1.58.0 0 0 43.11 64.87z"/><path class="cls-3" d="M42.06 68.05a1.42 1.42.0 0 1-.19-.48.71.71.0 0 0-1.41.0 2.72 2.72.0 0 0 .34 1.22.72.72.0 0 0 1 .26A.74.74.0 0 0 42.06 68.05z"/><path class="cls-3" d="M43.61 70.59c.26-.06-.1.0-.16.0a.38.38.0 0 0 0 .72A.49.49.0 0 0 44 71.1.35.35.0 0 0 43.61 70.59z"/><path class="cls-3" d="M103.79 55a.75.75.0 0 0-1.28.0 1.47 1.47.0 0 0 0 1.81.86.86.0 0 0 1.22.0A1.47 1.47.0 0 0 103.79 55z"/><path class="cls-3" d="M101.64 57.56a.81.81.0 0 0-1.09.28 2 2 0 0 0-.07 1.5 1 1 0 0 0 .92.7 1 1 0 0 0 1-1A1.74 1.74.0 0 0 101.64 57.56z"/><path class="cls-3" d="M105.73 56.83A.93.93.0 0 0 104.6 58a.33.33.0 0 0 0 .14 1.22 1.22.0 0 1 .07.17v0a1.31 1.31.0 0 0 .63.79 1 1 0 0 0 1.41-.58A1.42 1.42.0 0 0 105.73 56.83z"/><path class="cls-3" d="M104.59 60.3c.11.25.0-.12-.08-.21s-.13-.27-.08-.15a.79.79.0 0 0-1.5.0c0-.11.0-.06-.07.16a1.69 1.69.0 0 0-.08.39 1.15 1.15.0 0 0 .21.74.93.93.0 1 0 1.6-.93z"/><path class="cls-3" d="M107.43 61.1a.82.82.0 0 0-1.57.0c-.14.63.0 1.34.66 1.56a.74.74.0 0 0 .73-.19A1.35 1.35.0 0 0 107.43 61.1z"/><path class="cls-3" d="M102.93 63.33c-.55-.38-1.09.34-.84.84a2.2 2.2.0 0 0 .32.53.58.58.0 0 0 1-.26A1 1 0 0 0 102.93 63.33z"/><path class="cls-3" d="M105.76 65.08a.44.44.0 0 0-.38-.21.48.48.0 0 0-.48.48 1 1 0 0 0 .22.58.56.56.0 0 0 .86-.11A.53.53.0 0 0 105.76 65.08z"/><path class="cls-3" d="M118.34 37.67a2.23 2.23.0 0 0-.36-.83s0 0 0-.05a.69.69.0 0 0-1.2.0v.06a2 2 0 0 0-.32.71A1.57 1.57.0 0 0 116.7 39 .92.92.0 0 0 118 39 1.54 1.54.0 0 0 118.34 37.67z"/><path class="cls-3" d="M115.9 40.07c-.05-.18-.1-.35-.16-.53s-.09-.2-.13-.31-.22-.37-.16-.24a.74.74.0 0 0-1.28.0 2.06 2.06.0 0 0-.24.91 1.59 1.59.0 0 0 .48 1.15.89.89.0 0 0 .86.23A1 1 0 0 0 115.9 40.07z"/><path class="cls-3" d="M121 39.05c-.21-.61-.9-1.18-1.49-.63a1.41 1.41.0 0 0-.33 1 1.29 1.29.0 0 0 .55 1.19.74.74.0 0 0 .81.0A1.32 1.32.0 0 0 121 39.05z"/><path class="cls-3" d="M118.41 41.78a.88.88.0 0 0-1.68.0 1.81 1.81.0 0 0 0 .95.9.9.0 0 0 1.76.0A1.81 1.81.0 0 0 118.41 41.78z"/><path class="cls-3" d="M121.77 42.78a.73.73.0 0 0-1.4.0 2.9 2.9.0 0 0-.06 1 .71.71.0 0 0 1.19.32A1.39 1.39.0 0 0 121.77 42.78z"/><path class="cls-3" d="M116.29 45.37a.66.66.0 0 0-1.19-.5 1.13 1.13.0 0 0-.21.75.72.72.0 0 0 .7.7.7.7.0 0 0 .7-.7A1 1 0 0 1 116.29 45.37z"/><path class="cls-3" d="M118.88 46.9a.68.68.0 0 0-1.35.0v.21a.68.68.0 0 0 1.36.0C118.89 47 118.88 47 118.88 46.9z"/><path class="cls-3" d="M125.74 51.09a.67.67.0 0 0-1.11-.63l-.14.09a1.69 1.69.0 0 0-.42.46 1.33 1.33.0 0 0-.15 1.11.91.91.0 0 0 1.65.22 1.31 1.31.0 0 0 .2-.77c0-.1.0-.19.0-.3A1.1 1.1.0 0 0 125.74 51.09z"/><path class="cls-3" d="M124.49 50.55h0S124.47 50.57 124.49 50.55z"/><path class="cls-3" d="M128.09 50.91a.78.78.0 0 0-1.1.0 2.16 2.16.0 0 0-.29.37s-.1.24-.15.34a1.43 1.43.0 0 0 0 1.32.86.86.0 0 0 1 .39A1.5 1.5.0 0 0 128.09 50.91z"/><path class="cls-3" d="M126.53 51.67v-.05h0A.17.17.0 0 0 126.53 51.67z"/><path class="cls-3" d="M126.53 51.67z"/><path class="cls-3" d="M124.88 54.21a1.2 1.2.0 0 0-.55.82 1 1 0 0 0 .42 1v0a.82.82.0 0 0 .83.0 1 1 0 0 0 .47-.57c0-.26.0-.32.0-.19q0-.4.0-.15C126.38 54.51 125.48 53.76 124.88 54.21z"/><path class="cls-3" d="M123 54.85c.09-.68-1-.92-1.26-.34s-.55 1.44.14 1.86a.67.67.0 0 0 .67.0C123.17 56 123 55.41 123 54.85z"/><path class="cls-3" d="M129.18 55.54a.84.84.0 0 0-1.16.0 1.48 1.48.0 0 0-.42 1 .74.74.0 0 0 1.1.63 1.2 1.2.0 0 0 .37-.34l.11-.14A.84.84.0 0 0 129.18 55.54z"/><path class="cls-3" d="M123.69 58.53a.78.78.0 0 0-1.06.28 1 1 0 0 0 .11 1.26c.37.32 1.11.27 1.21-.32v-.18A.78.78.0 0 0 123.69 58.53z"/><path class="cls-3" d="M124.11 62.27a.66.66.0 0 0 0 .14.56.56.0 0 0 1.12.0v-.14C125.28 61.54 124.07 61.54 124.11 62.27z"/><path class="cls-3" d="M135.58 49.55c0-.43-.53-.84-.93-.54a2 2 0 0 0-.66.65 1.93 1.93.0 0 0-.32 1 1 1 0 0 0 .72.95A1 1 0 0 0 135.6 51 6.69 6.69.0 0 0 135.58 49.55z"/><path class="cls-3" d="M137.66 51.05a.8.8.0 0 0-1.37.0 1.35 1.35.0 0 0 .34 1.86.87.87.0 0 0 1-.13A1.32 1.32.0 0 0 137.66 51.05z"/><path class="cls-3" d="M134.44 54.21h0v0z"/><path class="cls-3" d="M136.11 54.92q0 .27.0-.18l-.06-.16a.86.86.0 0 0-1.58-.38 1.84 1.84.0 0 1-.17.22 1.05 1.05.0 0 0-.17.41 1.36 1.36.0 0 0 .13 1.15 1.1 1.1.0 0 0 .9.51 1 1 0 0 0 1-.76A1.59 1.59.0 0 0 136.11 54.92z"/><path class="cls-3" d="M138.06 54.75c.14-.42-.12.22.0.0z"/><path class="cls-3" d="M139.86 53.77a.94.94.0 0 0-1.45.19 1.73 1.73.0 0 0-.14.31c.11-.28-.07.17-.11.26v0a1.16 1.16.0 0 1-.09.19l-.07.19a1.21 1.21.0 0 0 .75 1.69C140.35 57 140.89 54.66 139.86 53.77z"/><path class="cls-3" d="M132.75 52.11a.45.45.0 0 0-.66-.31A1.62 1.62.0 0 0 131 53.47a1 1 0 0 0 1.87.25A2.29 2.29.0 0 0 132.75 52.11z"/><path class="cls-3" d="M133.48 58.25c0-.21-.14-.41-.19-.57a.92.92.0 0 0-1.75.0 2.35 2.35.0 0 0 0 1.34 1 1 0 0 0 1 .73 1 1 0 0 0 1-.73A1.82 1.82.0 0 0 133.48 58.25z"/><path class="cls-3" d="M137 58.66a.62.62.0 0 0-1 .27v0c.08-.09.06.0-.09.12l-.12.24a1.41 1.41.0 0 0-.12.93.82.82.0 0 0 1.19.48 1.21 1.21.0 0 0 .58-1.06A1.39 1.39.0 0 0 137 58.66z"/><path class="cls-3" d="M133 62.91c0 .43.13 1 .68 1s.66-.56.68-1A.68.68.0 0 0 133 62.91z"/><path class="cls-3" d="M140.34 69.22h0C140.42 69.12 140.42 69.12 140.34 69.22z"/><path class="cls-3" d="M141.88 69.22a.9.9.0 0 0-1.53.0l-.11.14-.13.23a1.62 1.62.0 0 0-.26.9 1.07 1.07.0 0 0 .52.9 1 1 0 0 0 1 0A1.64 1.64.0 0 0 141.88 69.22z"/><path class="cls-3" d="M143.78 69.52c.21.0.18.0-.1.0a.84.84.0 0 0-.27.13A2.47 2.47.0 0 0 143 70a1.55 1.55.0 0 0-.38 1.38 1 1 0 0 0 .7.7 1.05 1.05.0 0 0 1-.25C145.05 71.18 145.05 69.34 143.78 69.52z"/><path class="cls-3" d="M140.39 73.56a1.62 1.62.0 0 0-.77 1.26.87.87.0 0 0 1.71.23c0-.08.0-.15.07-.23v0l.08-.14C141.93 74 141 73.06 140.39 73.56z"/><path class="cls-3" d="M145.08 72.88l-.26.06a1.26 1.26.0 0 0-.56.32 2 2 0 0 0-.59 1 1 1 0 0 0 1.62.94 2.36 2.36.0 0 0 .47-.81 1.49 1.49.0 0 0 .1-.44c0 .23.0-.29.0-.23A.66.66.0 0 0 145.08 72.88z"/><path class="cls-3" d="M142.88 76.34a.69.69.0 0 0-.92-.27 1 1 0 0 0-.69.51.79.79.0 0 0 1.08 1.08 1.22 1.22.0 0 0 .51-.59A.69.69.0 0 0 142.88 76.34z"/><path class="cls-3" d="M137.89 71.3c.15-.1-.42.19-.23.1a1.43 1.43.0 0 0-.36.29 1.15 1.15.0 0 0-.3 1.1.82.82.0 0 0 1 .56 1.28 1.28.0 0 0 .91-1.17C139.13 71.6 138.46 70.92 137.89 71.3z"/><path class="cls-3" d="M138 75.67a.78.78.0 0 0-1.05-.27 1.9 1.9.0 0 0-1.06 1 .73.73.0 0 0 .69.9c.53.0.93-.41 1.3-.74A.79.79.0 0 0 138 75.67z"/><path class="cls-3" d="M137.29 79.44c-.1-.72-1.29-.69-1.42.0.0.08-.12.4.0.2-.28.7.74 1.19 1.22.71A1 1 0 0 0 137.29 79.44z"/><path class="cls-3" d="M114 88.8a1.5 1.5.0 0 0-2.32.26 1.06 1.06.0 0 0 .16 1.23 1.58 1.58.0 0 0 2.16.0A1.05 1.05.0 0 0 114 88.8z"/><path class="cls-3" d="M110.56 89a1.3 1.3.0 0 0-1.23-.86 1.38 1.38.0 0 0-1.44 1.06 1 1 0 0 0 .26 1 1 1 0 0 0 1 .26 3.45 3.45.0 0 0 1.23-.71A.74.74.0 0 0 110.56 89z"/><path class="cls-3" d="M114.44 91.76a2.28 2.28.0 0 0-1.16.0 1.71 1.71.0 0 0-1.14.7 1 1 0 0 0 .37 1.42 2.11 2.11.0 0 0 2.36-.47A1 1 0 0 0 114.44 91.76z"/><path class="cls-3" d="M110.9 92.5a.86.86.0 0 0-.86-.86 1.42 1.42.0 0 0-.8.24.86.86.0 0 0-.4 1 .88.88.0 0 0 .6.6.81.81.0 0 0 .66-.09h.05A.85.85.0 0 0 110.9 92.5z"/><path class="cls-3" d="M111.57 95.19v0 0 0z"/><path class="cls-3" d="M111.57 95.19s-.16-.13.0.0z"/><path class="cls-3" d="M111.54 95.19s0 0 0 0a1.5 1.5.0 0 0-.55-.31 1.53 1.53.0 0 0-1.15.07 1 1 0 0 0-.44 1.08 1.42 1.42.0 0 0 1 .92 1.25 1.25.0 0 0 .74.0l.35-.13A.84.84.0 0 0 111.54 95.19z"/><path class="cls-3" d="M106.75 92.9a4.25 4.25.0 0 0-.62.12 1 1 0 0 0 .52 1.9c.12.0.24-.09.36-.11a1 1 0 0 0-.26-1.91z"/><path class="cls-3" d="M106.85 90.7a.87.87.0 0 0-1.35.41.62.62.0 0 0 .29.72 1 1 0 0 0 1.06-.08A.62.62.0 0 0 106.85 90.7z"/><path class="cls-3" d="M102.81 93.66a.72.72.0 0 0-.72-.72 1.28 1.28.0 0 0-1.15.88.69.69.0 0 0 .31.78.7.7.0 0 0 .84-.11c.1-.09.25-.14.0-.1A.74.74.0 0 0 102.81 93.66z"/><path class="cls-3" d="M118.41 63a1.81 1.81.0 0 0-1.07.5 1.43 1.43.0 0 0-.44 1.39 1 1 0 0 0 1 .75c.81.0 1.28-.67 1.54-1.33A1 1 0 0 0 118.41 63z"/><path class="cls-3" d="M120.61 66a1 1 0 0 0-1.22-.18 2.07 2.07.0 0 0-.79 1.57.93.93.0 0 0 .93.93 1.42 1.42.0 0 0 1.38-1.16A1.33 1.33.0 0 0 120.61 66z"/><path class="cls-3" d="M116 65.9a.76.76.0 0 0-1.1-.45 1.52 1.52.0 0 0-.8 1.58.9.9.0 0 0 1.11.63 1.23 1.23.0 0 0 .81-.86A1.53 1.53.0 0 0 116 65.9z"/><path class="cls-3" d="M117.75 68.54v0h0a.1.1.0 0 0 0 0z"/><path class="cls-3" d="M117.72 68.58h0c.06-.15.07-.11.0.0.41-.5-.16-1.4-.8-1.15a1.48 1.48.0 0 0-.71.4 1.06 1.06.0 0 0-.17 1.26.83.83.0 0 0 .89.36.91.91.0 0 0 .61-.49 1.64 1.64.0 0 0 .14-.33.08.08.0 0 1 0 0S117.7 68.59 117.72 68.58z"/><path class="cls-3" d="M113.76 69.91a1.28 1.28.0 0 0-.28.51.57.57.0 0 0 1 .55c.09-.11.18-.22.26-.34C115.09 70.08 114.2 69.4 113.76 69.91z"/><path class="cls-3" d="M117.21 70.82c-.1.09-.29.17-.38.36a.62.62.0 0 0 .22.83v0a.69.69.0 0 0 .68.0 1.82 1.82.0 0 0 .38-.29A.66.66.0 0 0 117.21 70.82z"/><path class="cls-3" d="M99.52 71.59a.89.89.0 0 0-.86-1.13A1.44 1.44.0 0 0 97.33 72a1 1 0 0 0 1.78.48c0-.1.09-.21.13-.31h0v-.06c0-.08.0-.08.0.0h0A1.66 1.66.0 0 0 99.52 71.59z"/><path class="cls-3" d="M100.27 70.61a1.13 1.13.0 0 0 0 1.65.83.83.0 0 0 1 .13 1.41 1.41.0 0 0 .59-.88A.93.93.0 0 0 100.27 70.61z"/><path class="cls-3" d="M98.76 73.58a1.31 1.31.0 0 0-.38 1.32.82.82.0 0 0 1.19.48 1.37 1.37.0 0 0 .57-1.23A.81.81.0 0 0 98.76 73.58z"/><path class="cls-3" d="M102.34 74.39a.71.71.0 0 0-1.35.0.88.88.0 0 0 .09.74.68.68.0 0 0 1.17.0A.88.88.0 0 0 102.34 74.39z"/><path class="cls-3" d="M96.42 74.57a.66.66.0 0 0 0 .14.57.57.0 0 0 1.14.0s0-.09.0-.14C97.64 73.82 96.35 73.82 96.42 74.57z"/><path class="cls-3" d="M98 77.54a.44.44.0 0 0-.88.0.23.23.0 0 0 0 .14.45.45.0 0 0 .9.0A.66.66.0 0 0 98 77.54z"/><path class="cls-3" d="M84.22 71.21a1.51 1.51.0 0 0-1.73.57.88.88.0 0 0 .13 1 1.67 1.67.0 0 0 1.83.14 1 1 0 0 0 .48-.83A1 1 0 0 0 84.22 71.21z"/><path class="cls-3" d="M83.17 74.25a1.27 1.27.0 0 0-2.23-.18.8.8.0 0 0 .47 1.16A1.72 1.72.0 0 0 83 74.94.73.73.0 0 0 83.17 74.25z"/><path class="cls-3" d="M85.14 75.42a1.22 1.22.0 0 0-1.26.08.78.78.0 0 0 .6 1.41 1.19 1.19.0 0 0 .9-.58A.7.7.0 0 0 85.14 75.42z"/><path class="cls-3" d="M85.84 73.16a.7.7.0 1 0 0 1.35.76.76.0 0 0 .66-.68A.74.74.0 0 0 85.84 73.16z"/><path class="cls-3" d="M87.72 72.43a.36.36.0 0 0 0-.1c0 .11.0-.06.0-.09.05-.74-1.21-.74-1.15.0a.87.87.0 0 0 .24.66.55.55.0 0 0 .66.08h.05A.47.47.0 0 0 87.72 72.43z"/><path class="cls-3" d="M89.22 75a.62.62.0 0 0-.73-.42.71.71.0 0 0-.55.52c-.2.64.67 1 1 .55A.6.6.0 0 0 89.22 75z"/><path class="cls-3" d="M85.83 80.05v0C85.88 79.78 85.85 79.91 85.83 80.05z"/><path class="cls-3" d="M85.61 79.26A1 1 0 0 0 84.55 79a1.38 1.38.0 0 0-.94 1.28 1.05 1.05.0 0 0 1.78.74 2 2 0 0 0 .41-.85s0-.09.0-.15A.89.89.0 0 0 85.61 79.26z"/><path class="cls-3" d="M88 81.76a.92.92.0 0 0-.87-.67 1 1 0 0 0-.88.67c.06-.15.0-.1-.07.16l-.06.3a1.18 1.18.0 0 0 .14.84.79.79.0 0 0 .91.37A1.32 1.32.0 0 0 88 81.76z"/><path class="cls-3" d="M84.73 82.89a1.12 1.12.0 0 0-1.15.83 1 1 0 0 0 1.76.74c0-.1.21-.46.07-.17a2.81 2.81.0 0 0 .13-.33A.85.85.0 0 0 84.73 82.89z"/><path class="cls-3" d="M81.6 80.8a1.51 1.51.0 0 0-.72 1.51.73.73.0 0 0 .89.5c.67-.17.75-.82.89-1.39A.64.64.0 0 0 81.6 80.8z"/><path class="cls-3" d="M82.44 85.25a.73.73.0 0 0 0-1 .72.72.0 0 0-1 0 .93.93.0 0 0 0 1.27.63.63.0 0 0 .88.0.65.65.0 0 0 .15-.18C82.48 85.21 82.66 85 82.44 85.25z"/><path class="cls-3" d="M81.67 88.36c0 .29.0.59.22.79a.52.52.0 0 0 .73.0.93.93.0 0 0 .23-.79A.59.59.0 0 0 81.67 88.36z"/><path class="cls-3" d="M31.63 90.92a1.46 1.46.0 0 0-1-.18 1.09 1.09.0 0 0-.72.68 1.24 1.24.0 0 0 .38 1.25.83.83.0 0 0 .3.26c-.15-.11-.1-.07.16.13a1.45 1.45.0 0 0 .52.17 1 1 0 0 0 1.22-.93A1.47 1.47.0 0 0 31.63 90.92z"/><path class="cls-3" d="M30.56 94.63c-.08-.07-.45-.36-.2-.15-.13-.11-.26-.19-.39-.29s0 0-.06.0l-.1-.07s0 0 0 0A.63.63.0 0 0 29 94 1.2 1.2.0 0 0 28.38 95a1.52 1.52.0 0 0 1.14 1.37A1.07 1.07.0 0 0 30.56 94.63z"/><path class="cls-3" d="M35.73 91.47a1.57 1.57.0 0 0-.71-.34 1.26 1.26.0 0 0-.61.0l-.24.1c-.24.18-.27.2-.1.07a.89.89.0 0 0-.31 1.19c-.08-.22-.06-.19.05.1a1.89 1.89.0 0 0 .25.31c-.13-.18-.1-.14.1.12l.06.06c-.13-.18-.1-.14.1.12a1.11 1.11.0 0 0 1.76-.13A1.29 1.29.0 0 0 35.73 91.47z"/><path class="cls-3" d="M34.58 94.27A1.48 1.48.0 0 0 32.89 94a1 1 0 0 0-.21 1.63l.26.21c-.13-.1-.14-.11.0.0a3 3 0 0 0 .49.45 1.14 1.14.0 0 0 1.55-.36A1.34 1.34.0 0 0 34.58 94.27z"/><path class="cls-3" d="M33 98.88a1.87 1.87.0 0 0-.66-.62A1.85 1.85.0 0 0 30.82 98a1.13 1.13.0 0 0-.66 1.62 2.08 2.08.0 0 0 .82.79 1.73 1.73.0 0 0 1.43.3 1 1 0 0 0 .77-1A1.89 1.89.0 0 0 33 98.88z"/><path class="cls-3" d="M35.62 98.41a.79.79.0 0 0-1.31.76c.19.62.92 1.21 1.57.8a.73.73.0 0 0 .36-.62C36.22 98.86 35.92 98.71 35.62 98.41z"/><path class="cls-3" d="M38.21 95.61a.85.85.0 0 0-1.2.0.86.86.0 0 0 0 1.2c.07.0.36.29.15.11a1.43 1.43.0 0 0 .26.19.79.79.0 0 0 1.15-.47A.93.93.0 0 0 38.21 95.61z"/><path class="cls-3" d="M38.83 100.57v0 0 0z"/><path class="cls-3" d="M38.83 100.57c-.11.0.0.0.0.0z"/><path class="cls-3" d="M39.76 99.61a1.19 1.19.0 0 0-1.09-.56c-1-.06-1 1.57.0 1.52h.16v0A.7.7.0 0 0 39.76 99.61z"/><path class="cls-3" d="M40.35 102.31a5.74 5.74.0 0 0-.91-.31c-.59-.21-.85.74-.26.93a1.89 1.89.0 0 0 1.07.14A.42.42.0 0 0 40.35 102.31z"/><path class="cls-3" d="M43.76 99.74h-.12c-.55-.22-.55.88.0.66h.12A.3.3.0 0 0 43.76 99.74z"/><path class="cls-3" d="M53.19 104.5a.86.86.0 0 0 0 1.65c.63.15 1.5-.1 1.5-.88S53.77 104.36 53.19 104.5z"/><path class="cls-3" d="M55.22 106.56c-.09.0-.08.0.0.0a.77.77.0 0 0-1.28.34v0a.85.85.0 0 0 .37.9.8.8.0 0 0 .52.14.81.81.0 0 0 .76-.58A.78.78.0 0 0 55.22 106.56z"/><path class="cls-3" d="M57.62 105.27a1 1 0 0 0-.7 1.18.66.66.0 0 0 1.19.16c-.16.24.16-.2.0.0a.77.77.0 0 0 .17-.19l.06-.15A.66.66.0 0 0 57.62 105.27z"/><path class="cls-3" d="M58.36 106.23z"/><path class="cls-3" d="M56.7 103.9a.85.85.0 0 0-.57.37c-.27.35.24.74.57.56a1.4 1.4.0 0 0 .33-.15A.43.43.0 0 0 56.7 103.9z"/><path class="cls-3" d="M68.08 105.23a1 1 0 0 0-.5-.64 1.09 1.09.0 0 0-1.08.0 1.92 1.92.0 0 0-.7 2.41 1 1 0 0 0 1.38.36A2.2 2.2.0 0 0 68.08 105.23z"/><path class="cls-3" d="M69.68 107.94a1.05 1.05.0 0 0-1.45.0 1.23 1.23.0 0 0-.47 1 1 1 0 0 0 1.71.71 2.35 2.35.0 0 0 .36-.47A1 1 0 0 0 69.68 107.94z"/><path class="cls-3" d="M72 105.78a.88.88.0 0 0-1.06.6c0 .11-.06.21-.08.32s0 .33.0.46a.71.71.0 0 0 .31.76.68.68.0 0 0 .92-.24c.07-.12.2-.24.28-.35a1.54 1.54.0 0 0 .24-.5A.86.86.0 0 0 72 105.78z"/><path class="cls-3" d="M70.36 104.77a.71.71.0 0 0-1.23.0 1.68 1.68.0 0 0-.14.77.76.76.0 0 0 1.51.0A1.68 1.68.0 0 0 70.36 104.77z"/><path class="cls-3" d="M65.73 101.87a1.05 1.05.0 0 0-.29 1.62.71.71.0 0 0 1 0 1.57 1.57.0 0 0 .41-.77A.76.76.0 0 0 65.73 101.87z"/><path class="cls-3" d="M69.35 102.16s0 0 0 0z"/><path class="cls-3" d="M69.24 102.43h0S69.22 102.49 69.24 102.43z"/><path class="cls-3" d="M68.53 101.06a1 1 0 0 0-.61 1.37.69.69.0 0 0 1.32.0c0-.07.07-.19.08-.22v-.06a.8.8.0 0 0 .07-.2A.74.74.0 0 0 68.53 101.06z"/><path class="cls-3" d="M72.89 102.46a.79.79.0 0 0-1.3-.35 1.11 1.11.0 0 0-.17 1.38.77.77.0 0 0 1.32.0A1.54 1.54.0 0 0 72.89 102.46z"/><path class="cls-3" d="M91 80.71a1.27 1.27.0 0 0-.93-.39c-.68-.07-.9.81-.52 1.23a1.68 1.68.0 0 0 .56.43c.32.14.86.16 1-.24A.91.91.0 0 0 91 80.71z"/><path class="cls-3" d="M93.48 80.32a.57.57.0 0 0-.81.0c-.48.46-.3 1.58.48 1.58S93.91 80.72 93.48 80.32z"/><path class="cls-3" d="M92.8 82.6a1.35 1.35.0 0 0-.4-.57.55.55.0 0 0-.77.78 4.15 4.15.0 0 0 .27.32C92.26 83.49 93 83.13 92.8 82.6z"/><path class="cls-3" d="M88.7 86.82a.79.79.0 0 0-1.08 1.09c-.09-.17.09.22.11.25a1.14 1.14.0 0 0 .3.32.8.8.0 0 0 .74.19.75.75.0 0 0 .56-.73A1.31 1.31.0 0 0 88.7 86.82z"/><path class="cls-3" d="M88.07 89.82A1 1 0 0 0 86.74 89a.56.56.0 0 0-.28.5c.07.59.83 1.39 1.46.88A.61.61.0 0 0 88.07 89.82z"/><path class="cls-3" d="M90 90.36a.78.78.0 0 0-.56-.22.66.66.0 0 0 0 1.31.82.82.0 0 0 .27.0A.65.65.0 0 0 90 90.36z"/><path class="cls-3" d="M110.06 84.73a.93.93.0 0 0-1 0 .71.71.0 0 0-.14 1.1s.13.16.06.0a1.21 1.21.0 0 0 .39.39.78.78.0 0 0 1-.27A1 1 0 0 0 110.06 84.73z"/><path class="cls-3" d="M108.81 86.26a1 1 0 0 0-.43-.45 1.63 1.63.0 0 0-.52-.13.58.58.0 0 0-.56 1 2.08 2.08.0 0 0 .18.21 1.75 1.75.0 0 0 .39.33A.69.69.0 0 0 108.81 86.26z"/><path class="cls-3" d="M107.38 84.52a.79.79.0 0 0-.63-.34c-.73-.09-.75 1.2.0 1.15-.06.0.0.0.0.0C107.19 85.48 107.67 84.9 107.38 84.52z"/><path class="cls-7" d="M250.69 125.32V172.59L164.77 182.75"/><path class="cls-7" d="M164.77 182.74c-41 2.79-60.37 7.48-86.34 4.61-34.73-3.84-52.59-9.74-52.59-9.74-9.61-6.84-24.36-42.38-25-42 8.5-4.59 26-1.76 35.34-1.68 12.85.11 25.68.94 38.49 1.87s26.78.26 39.89-.53c12.12-.73 27.91-4.29 40.13-1.92 6.37 1.24 9.46 4 15.94 3.1 6.24-.9 11.86-4.91 18.34-5.88 9.63-1.45 20.11-4.24 29.87-4.25 7.85.0 14.9 2.59 23 1.24 3.36-.56 6.46-1.52 9.49-2.22"/><path class="cls-8" d="M250.41 172.15c-26 10.59-61.77 9-85.64 10.59-41 2.79-60.37 7.48-86.34 4.61-34.73-3.84-52.59-9.74-52.59-9.74-9.61-6.84-24.36-42.38-25-42 8.5-4.59 26-1.76 35.34-1.68 12.85.11 25.68.94 38.49 1.87s26.78.26 39.89-.53c12.12-.73 27.91-4.29 40.13-1.92 6.37 1.24 9.46 4 15.94 3.1 6.24-.9 11.86-4.91 18.34-5.88 9.63-1.45 20.11-4.24 29.87-4.25 7.85.0 14.9 2.59 23 1.24 3.36-.56 5.58-1.52 8.6-2.22"/><path class="cls-9" d="M7.37 140.64c7.49 3.52 17 3.08 24.53 5.83 9.26 3.38 16 .84 24.88 2.34 6.35 1.08 10.23 3.45 16.33 4 6.73.63 14.37-.48 21.35.0 19.8 1.3 39.62 2.44 59.45 3 21.86.63 47.28 2.82 66.08-10.65 4.52-3.25 7.69-5.8 13.16-6.11 6.14-.35 12.09-.66 18.15-2V116.3c-3.74-.59-7.25-1-9.47-1.6-8.86-2.28-17.58-4.16-26.6-5.72-30.09-5.23-58.69-9-89.25-5.79-14.09 1.49-28.35 2.33-42 5.65-8.8 2.13-16.07 3.32-25.37 6.07-9.72 2.87-19.19 4-28.75 7.06C21.34 124.7-12.6 131.28 7.37 140.64z"/><path class="cls-10" d="M228 140.14a13.88 13.88.0 0 1 4.74-.9 93.74 93.74.0 0 0 18.59-2.19V128l-.45.15c-6.68 2.11-13.88.36-20.88.18a46.67 46.67.0 0 0-14.76 2c-3.72 1.14-12.4 5.91-14.57-.14a7 7 0 0 1 .3-4.76c.57-1.52 1.4-2.93 2-4.45.68-1.76 1.48-3.47 1-5.39a.56.56.0 0 0-.13-.28c-.25-.23-.62.06-.82.33a41.23 41.23.0 0 1-14.78 11.46 69 69 0 0 1-32.49 6.59c-2.79-.1-5.58-.34-8.35-.7-1.26-.16-2.53-.2-3.79-.35a9.15 9.15.0 0 0-2.36-.34c-2.26.92 1.61 2.21 2.25 2.44 11.88 4.15 24.9 1.72 37.41.29a30.59 30.59.0 0 1 9-.1 6.37 6.37.0 0 1 3.45 1.54c4.53 4.54-6.24 7.79-9 8.38a57.71 57.71.0 0 1-15.36.72q-4.4-.27-8.79-.65a338.29 338.29.0 0 1-43.53-6.72c-13.54-3-26.58-8.47-40.69-6.63-4.66.6-9.23 1.82-13.9 2.3a43.76 43.76.0 0 1-14.47-.95 9.06 9.06.0 0 1-3.58-1.47 3.53 3.53.0 0 1-1.44-3.41 4.92 4.92.0 0 1 2.58-2.81c4.62-2.74 9.92-4.11 15.13-5.45l30.18-7.74c9.38-2.4 18.93-4.21 28.43-6.31q8-1.77 16-3.3-4.37.28-8.77.75c-14.09 1.49-28.35 2.33-42 5.65-8.8 2.13-16.07 3.32-25.37 6.07-9.72 2.87-19.19 4-28.75 7.06-.49.16-1.07.33-1.72.51-4.27 1-8.54 2.25-12.88 3.64h-.09c-10.64 3.38-20.44 8.2-8.44 14.16l.68.33c7.49 3.52 17 3.08 24.53 5.83l.84.29.35.11.46.15.46.13.33.09.55.14.23.06.6.14h.16l.65.14h.09l.69.12h0l.72.11c6.37.88 11.91-.34 18.7.81 6.35 1.08 10.23 3.45 16.33 4 6.73.63 14.37-.48 21.35.0L150.73 156s34.92 1.38 41.88-.92c4.86-1.6 10.21-1.67 15.15-3.53a53.06 53.06.0 0 0 13.59-7.4A26.17 26.17.0 0 1 228 140.14z"/><path class="cls-6" d="M249.68 116.3a73.39 73.39.0 0 1-7.85-1.6c-8.86-2.28-17.58-4.16-26.6-5.72-30.09-5.23-58.69-9-89.25-5.79-14.09 1.49-28.35 2.33-42 5.65-8.8 2.13-16.07 3.32-25.37 6.07-9.72 2.87-19.19 4-28.75 7.06-8.48 2.73-42.42 9.31-22.45 18.67 7.49 3.52 17 3.08 24.53 5.83 9.26 3.38 16 .84 24.88 2.34 6.35 1.08 10.23 3.45 16.33 4 6.73.63 14.37-.48 21.35.0 19.8 1.3 39.62 2.44 59.45 3 21.86.63 47.28 2.82 66.08-10.65 4.52-3.25 7.69-5.8 13.16-6.11a91.62 91.62.0 0 0 16.53-2"/><path class="cls-11" d="M248.72 160.44c-2.19-2.18-5.8-.58-7.42 4.68a41.61 41.61.0 0 0-1.45 11.77 6.71 6.71.0 0 0-2.52-3.92 2.18 2.18.0 0 0-.79-.4c.39-1.77.73-3.54 1-5.32 2.66-18.32-6.81-19-10.78 2.13-.55-3.9-1.5-6.28-2.55-7.12 1.22-8.31-.9-16.36-4.12-15.91-3.87.55-5.81 1.85-5.75 12.65.0 5.35-1.15 15.09-2.36 23.58.11-3.85.16-7.17.09-10a132.18 132.18.0 0 0 .77-16.69c-.63-23.75-11.43-21.83-7.79 7.22.08.68.15 1.35.23 2-2 6.73-3.07 20.44-1.4 35-.61 3-1.25 5.39-1.79 7.16a62.55 62.55.0 0 0-1.85-12.82l-.49-1.92a122.13 122.13.0 0 0 2.5-25.57c-.1-16.77-2.73-23.07-7.15-23.42-3.12-.25-2 4.36-.09 11.48-.79.28-1.6 1.39-2.35 3.16-.17-1-.34-2.06-.54-3.07a62.38 62.38.0 0 0-1.85-7.45c-5.56-17.35-14.22-9.35-7.57 12.34a114.36 114.36.0 0 1 5 26.93 94.67 94.67.0 0 1 0 10.11c-.21 4.34-.8 8.64-.73 12.91a70.43 70.43.0 0 1-1.34-14.51c.16-15.64-2.77-22.69-5.71-23.82-.72-4.56-1.41-9.15-1.86-12.61-1.33-10.28-8.14-17.9-11.18-14.43s-4.13 6 .41 14.63c2.32 4.39 5.49 13.54 8 21.46a55.17 55.17.0 0 0 0 7.42 115.15 115.15.0 0 0-8.76-21.11c-10.39-18.52-18.7-8.54-3.57 11.87 1.53 2.07 3 4.25 4.37 6.52a87.71 87.71.0 0 1 9.86 23.38 76.35 76.35.0 0 1 1.65 7.88c0 .12.0.24.0.37-1.14-1.27-2.26-2.57-3.34-4A74.88 74.88.0 0 1 164 193.4c-6.36-16.93-9.76-25.25-14.11-22.67s2.9 30.56 19.14 46.8c2.56 2.71 5.15 5.35 7.77 7.95.56.56 1.12 1.15 1.69 1.75l2.19-.49a52.55 52.55.0 0 1 11-2.26 62.6 62.6.0 0 1-2.37-5.8c.61-3.14 1.43-6.22 1.93-9.35.0-.25.08-.51.11-.76.07.31.14.62.22.93.0.0 1.57 7.26 3.38 14.71 2.09-.13 4.17-.17 6.22-.14a94.6 94.6.0 0 0 1-11.19c.53.1 1.28-.22 2.33-1.43-.05 5-.33 9.24-.69 12.68 11.1.46 20.53 2.81 21.43 4.41.0.05.0.1.07.15a29.42 29.42.0 0 0 4.83-2.08c7-5.54 11.15-15.53 13.56-23.94C247 191.26 250.1 179 250.53 167 250.65 163.78 249.88 161.58 248.72 160.44zm-40.66 61c0-.16.07-.32.1-.49l.06.21A2.54 2.54.0 0 1 208.06 221.42zm-24.17-1.86c-.26-.84-.53-1.67-.79-2.51l-.42-1.31c-.69-2.14-1.28-4.35-1.85-6.59 1.58 3.16 2.85 6 3.85 8.59C184.41 218.34 184.14 219 183.89 219.56zm14.27-33.44c-.18-.71-.34-1.41-.5-2.06.38-3.78.71-7.18 1-10.2A78.58 78.58.0 0 1 198.16 186.12zm20.31 29.29c-1 2.43-2.21 4.79-3.42 7-.23-1-.45-2.07-.67-3.16q2.31-3.28 4.48-6.77C218.74 213.48 218.61 214.46 218.47 215.41zm-3.11-8.25q-1.11 2.42-2.28 4.77c-.24-1.54-.46-3.12-.66-4.72.48-1.1 1-2.2 1.55-3.31A63.19 63.19.0 0 0 219.61 189q.19 3.83.19 7.4Q217.76 201.91 215.36 207.16zm10.9 7.27h0a58.1 58.1.0 0 0 2.26-8.2c2.11-10.65 3.81-16.75 4-20.59.42-1.09.83-2.18 1.21-3.29-.24 3.38-.47 7.37-.95 11.58A60.4 60.4.0 0 1 226.26 214.43zm13.94-21.05a57.86 57.86.0 0 1-6.78 13.5c1.08-2.88 2.09-5.74 3-8.55a78.06 78.06.0 0 0 3.57-14C240.15 187.47 240.28 190.55 240.2 193.38z"/><path class="cls-12" d="M229.7 226.61c7.05-5.54 11.15-15.53 13.57-23.94 3.28-11.41 6.43-23.72 6.86-35.63.11-3.26-.65-5.46-1.81-6.6-2.2-2.18-5.81-.58-7.43 4.68a41.25 41.25.0 0 0-1.44 11.77 6.77 6.77.0 0 0-2.53-3.92 2.18 2.18.0 0 0-.79-.4q.6-2.65 1-5.32c2.66-18.32-6.81-19-10.78 2.13-.54-3.9-1.5-6.28-2.55-7.12 1.22-8.31-.9-16.36-4.12-15.91-3.87.55-5.81 1.85-5.75 12.65.0 5.35-1.15 15.09-2.35 23.58.11-3.85.15-7.17.08-10a130.34 130.34.0 0 0 .77-16.69c-.63-23.75-11.42-21.83-7.79 7.22.08.68.16 1.35.23 2-2 6.73-3.06 20.44-1.4 35-.61 3-1.25 5.39-1.79 7.16a62.53 62.53.0 0 0-1.84-12.82c-.17-.66-.34-1.3-.49-1.92a122.83 122.83.0 0 0 2.5-25.57c-.11-16.77-2.74-23.07-7.16-23.42-3.12-.25-2 4.36-.09 11.48-.79.28-1.59 1.39-2.35 3.16-.17-1-.34-2.06-.53-3.07a64.36 64.36.0 0 0-1.85-7.45c-5.56-17.35-14.22-9.35-7.57 12.34a115.39 115.39.0 0 1 5 26.93 97.39 97.39.0 0 1 0 10.11c-.21 4.34-.79 8.64-.73 12.91a71.13 71.13.0 0 1-1.34-14.51c.16-15.64-2.77-22.69-5.71-23.82-.72-4.56-1.41-9.15-1.86-12.61-1.33-10.28-8.14-17.9-11.17-14.43s-4.14 6 .4 14.63c2.32 4.39 5.49 13.54 8 21.46a55.27 55.27.0 0 0 0 7.42 114.48 114.48.0 0 0-8.77-21.11c-10.39-18.52-18.69-8.54-3.57 11.87 1.53 2.07 3 4.25 4.37 6.52a87.72 87.72.0 0 1 9.87 23.38 79.07 79.07.0 0 1 1.64 7.88c0 .12.0.24.05.37-1.14-1.27-2.26-2.57-3.34-4a75.43 75.43.0 0 1-11.52-19.71c-6.36-16.93-9.76-25.25-14.11-22.67s2.9 30.56 19.14 46.8c2.56 2.71 5.16 5.35 7.77 7.95.56.56 1.13 1.15 1.7 1.75"/><path class="cls-12" d="M200.76 224.07a92.68 92.68.0 0 0 1-11.19c.54.1 1.29-.22 2.34-1.43-.06 5-.34 9.24-.7 12.68"/><path class="cls-12" d="M191.26 224.48c-.6-1.3-1.47-3.25-2.36-5.8.6-3.14 1.42-6.22 1.93-9.35.0-.25.07-.51.11-.76l.21.93s1.57 7.26 3.38 14.71"/><path class="cls-12" d="M183.48 219.56c-.26-.84-.53-1.67-.79-2.51l-.42-1.31c-.68-2.14-1.28-4.35-1.84-6.59 1.58 3.16 2.84 6 3.85 8.59C184 218.34 183.73 219 183.48 219.56z"/><path class="cls-12" d="M215 207.16q-1.11 2.42-2.28 4.77c-.24-1.54-.46-3.12-.65-4.72.47-1.1 1-2.2 1.55-3.31A63.53 63.53.0 0 0 219.2 189q.2 3.83.19 7.4C218 200.08 216.55 203.66 215 207.16z"/><path class="cls-12" d="M225.86 214.43h0a58.1 58.1.0 0 0 2.26-8.2c2.12-10.65 3.81-16.75 4-20.59.42-1.09.82-2.18 1.21-3.29-.24 3.38-.48 7.37-.95 11.58A60.84 60.84.0 0 1 225.86 214.43z"/><path class="cls-13" d="M230.45 223.77a39.13 39.13.0 0 0 .27-7.47 68.53 68.53.0 0 0 9-20.6c3.45-13.34 2-19.46-2.54-21.65s-2.25 7-2 18.11c.16 8.11-3 15.48-4.69 18.83-.3-6.08-.33-10-1-12.57a77.33 77.33.0 0 0 2.1-16.48 47 47 0 0 0-.37-6.71c-2.15-16.15-12.95-13.55-10.57 6.52a78.72 78.72.0 0 1-.49 23.49 57.45 57.45.0 0 1-2.13 8c-1.16 3.4-2.72 6.6-3.55 10.06a6.1 6.1.0 0 1-1.32 2.47 47.53 47.53.0 0 1 .53-13.27 54.47 54.47.0 0 0 1-10.77c.23-5.5.72-16.46 1.29-22.8.78-8.72-4.75-17.7-8.68-16.26s-5.62 3-2.68 11.77A108 108 0 0 1 207.78 190a5.65 5.65.0 0 0-2.27 2.57 83.19 83.19.0 0 0-3.36-12.23c-7-19.16-17.82-14.84-6.27 7.87 1.17 2.3 2.24 4.66 3.21 7.05a81.61 81.61.0 0 1 3.51 10.88 38.79 38.79.0 0 0 1.94 12.9 54 54 0 0 1 0 6c-.11 1.88-.69 3.76-.84 5.64a.76.76.0 0 1-.08-.11c-1.34-1.83-2.37-3.82-3.72-5.84-1.69-2.53-3.29-5.09-4.74-7.79-3.46-6.47-6.54-13.37-7.92-20.6-3.08-16.17-4.89-24.23-10-24.06s-3.44 25.48 10.18 45.36c2.11 3.25 4.27 6.46 6.47 9.66 2.92 4.24 5.72 9.63 10.78 11.59a5.17 5.17.0 0 0 2.35.43 2.45 2.45.0 0 0 1.75-.94 1.72 1.72.0 0 0 1.14-.53 2 2 0 0 0 .47-1.41 2 2 0 0 0 .35.0 34.82 34.82.0 0 1 1.2 7.7s2.28 2.35 3.93.48c-.25.49-.4.76-.4.76s0 1.85 1.23 2.48zm-13.3 17.41a86.43 86.43.0 0 1-2.85-8.63c1.43-2.81 3.38-5.31 4.84-8.08 1.11-2.1 2-4.34 3.16-6.46.23-.4.44-.81.65-1.22a34.12 34.12.0 0 1-.06 7.54c-1.07 7.11-4.22 14.4-6.06 18.23A12.35 12.35.0 0 0 217.15 241.18z"/><path class="cls-14" d="M225.58 225.47a17.35 17.35.0 0 0-9.15-1.39 25 25 0 0 0-11.38 3.1 32.78 32.78.0 0 0-12.47 11.54c-3.14 4.91-4.92 11.09-1.85 16.42 2.86 5 8.15 7.4 13.58 8.25 10.74 1.67 26.15 1.09 32.78-9C243.92 244.07 236.39 230 225.58 225.47z"/><path class="cls-15" d="M238.18 240.06a21.41 21.41.0 0 0-5.5-9.73c-2.05-2.15-4.92-4.78-8-5.1a8.68 8.68.0 0 0-1.19-.36.36.36.0 0 0-.27.66 14 14 0 0 1 5 5.12 9.34 9.34.0 0 1 .83 2.47c-2.56-1.31-5.38 3.12-3.81 5.44.89 1.31 2.55 1.12 3.85.43a20.08 20.08.0 0 1-.8 3.3h0a4.25 4.25.0 0 0-4.58 1.34 4 4 0 0 0-.06 4.61 2.66 2.66.0 0 0 1 .85c-.47.59-1 1.16-1.47 1.69l-.51.49c-.33-1.81-2.82-2.8-4.57-3-2.49-.27-5.25 2.14-6 4.37-.66 1.87-.19 3.12.84 3.87a31.72 31.72.0 0 1-8.26 1c-5 0-12.34-.44-15.07-5.32-.13-.23-.54-.07-.45.19a8.48 8.48.0 0 0 1.11 2 .3.3.0 0 0 0 .3 17.42 17.42.0 0 0 6.2 5.18c3 2.59 7.33 3 11.13 3.53a39.51 39.51.0 0 0 15-.67c4.21-1.06 8.81-2.47 12-5.49 3-2.79 4.28-7.29 4.24-11.35A21.89 21.89.0 0 0 238.18 240.06z"/><path class="cls-15" d="M224.81 240.38a1.32 1.32.0 0 0-.91-.92 1.44 1.44.0 0 0-1.51.62 2.32 2.32.0 0 0-.35 1.74.88.88.0 0 0 .84.64 1.93 1.93.0 0 0 1.61-.58A1.61 1.61.0 0 0 224.81 240.38z"/><path class="cls-15" d="M219.84 242.25c-1.74-1-5.41.41-4.31 2.77a.22.22.0 0 0 .05.08 2.42 2.42.0 0 0 2.59 2 3.36 3.36.0 0 0 2.9-2.07A2.44 2.44.0 0 0 219.84 242.25z"/><path class="cls-15" d="M220.86 238.91a.83.83.0 0 0-.81-.21h0a.71.71.0 0 0-.65.58 1 1 0 0 0-.14.45.81.81.0 0 0 1.21.69h0a.9.9.0 0 0 .38-1.5z"/><path class="cls-15" d="M214.57 239.24a.58.58.0 0 0-.56-.45.59.59.0 0 0-.57.74.69.69.0 0 0 .65.51.56.56.0 0 0 .48-.27A.53.53.0 0 0 214.57 239.24z"/><path class="cls-15" d="M223.85 233.91v0c-.37-.46-1.11-.05-1.11.46s.74.93 1.11.46v0A.62.62.0 0 0 223.85 233.91z"/><path class="cls-6" d="M225.58 225.47a17.35 17.35.0 0 0-9.15-1.39 25 25 0 0 0-11.38 3.1 32.78 32.78.0 0 0-12.47 11.54c-3.14 4.91-4.92 11.09-1.85 16.42 2.86 5 8.15 7.4 13.58 8.25 10.74 1.67 26.15 1.09 32.78-9C243.92 244.07 236.39 230 225.58 225.47z"/></g></g></svg>