<svg xmlns="http://www.w3.org/2000/svg" viewBox="0 0 162.62 48.08"><defs><style>.cls-1{fill:none;stroke:#fff;stroke-miterlimit:10;stroke-width:2px}</style></defs><title>title-skills</title><g id="圖層_2" data-name="圖層 2"><g id="技能"><path class="cls-1" d="M32 8.2a6.91 6.91.0 0 1-1.32 4.35 4.3 4.3.0 0 1-3.6 1.71A3.47 3.47.0 0 1 24.34 13a5.24 5.24.0 0 0 1.95-2.19 6.48 6.48.0 0 0 .75-3 4.29 4.29.0 0 0-1-2.76q-1-1.2-3.48-1.2a5.78 5.78.0 0 0-4 1.35 5.17 5.17.0 0 0-1.5 4 7.38 7.38.0 0 0 1 3.87 15.65 15.65.0 0 0 2.49 3.12q1.5 1.47 3.27 2.94a24.29 24.29.0 0 1 3.27 3.3 17 17 0 0 1 2.49 4.17 14.27 14.27.0 0 1 1 5.58 14.4 14.4.0 0 1-1.41 6.57 13.5 13.5.0 0 1-3.75 4.62A16 16 0 0 1 20 46.18a22.21 22.21.0 0 1-6.3.9 21.43 21.43.0 0 1-4.89-.54 11.45 11.45.0 0 1-4-1.77A8.93 8.93.0 0 1 2 41.62a9.87 9.87.0 0 1-1-4.68 10.93 10.93.0 0 1 .78-4.26 9.25 9.25.0 0 1 2-3.09 8.74 8.74.0 0 1 6-2.49 8.15 8.15.0 0 1 1.65.18 5.16 5.16.0 0 1 1.62.63 4.19 4.19.0 0 1 1.29 1.23 4.58 4.58.0 0 1 .72 1.92 9.91 9.91.0 0 0-2.52.33 7.36 7.36.0 0 0-2.28 1 5.58 5.58.0 0 0-1.68 1.8A5.13 5.13.0 0 0 8 36.88a5.27 5.27.0 0 0 1.53 3.84 5.9 5.9.0 0 0 4.41 1.56 6.58 6.58.0 0 0 5-2 8.06 8.06.0 0 0 1.92-5.79 11.55 11.55.0 0 0-.9-4.65A17.69 17.69.0 0 0 17.62 26a43.27 43.27.0 0 0-3-3.42q-1.59-1.65-3-3.3A17.36 17.36.0 0 1 9.4 15.79a9.05 9.05.0 0 1-.9-4A8.88 8.88.0 0 1 9.58 7.42 10.58 10.58.0 0 1 12.52 4a14.49 14.49.0 0 1 4.41-2.22A17.83 17.83.0 0 1 22.36 1a21.69 21.69.0 0 1 2.7.21 10.9 10.9.0 0 1 3.18.93A7.1 7.1.0 0 1 30.91 4.3 6.23 6.23.0 0 1 32 8.2z"/><path class="cls-1" d="M68 16 56 24.34a7.87 7.87.0 0 1 1-.18 8.47 8.47.0 0 1 1-.06 5.93 5.93.0 0 1 5 2.07 7.79 7.79.0 0 1 1.62 4.95 11.42 11.42.0 0 1-.6 3.69 10.88 10.88.0 0 0-.6 3.51 2.58 2.58.0 0 0 .48 1.56 2.18 2.18.0 0 0 1.86.66 3.65 3.65.0 0 0 1.71-.39 4.24 4.24.0 0 0 1.32-1.08 8.67 8.67.0 0 0 1.05-1.65q.48-1 1-2.16h2.52a24.93 24.93.0 0 1-2.76 6 13.5 13.5.0 0 1-3 3.33A8.09 8.09.0 0 1 64.6 46a10.52 10.52.0 0 1-2.4.33 8 8 0 0 1-5.64-1.77 6.55 6.55.0 0 1-1.92-5.07 13.83 13.83.0 0 1 .54-3.93 13.18 13.18.0 0 0 .54-3.75 4 4 0 0 0-.48-2.1A1.81 1.81.0 0 0 53.56 29a4.32 4.32.0 0 0-2.1.6 16.63 16.63.0 0 0-2.34 1.62L46 46H37.36l8.7-40.8L54.94 4l-4.5 21.12L62 16z"/><path class="cls-1" d="M89.44 16 85.12 36.4a8.4 8.4.0 0 0-.24 1.92 2.12 2.12.0 0 0 .6 1.74 3 3 0 0 0 1.86.48A4.53 4.53.0 0 0 90.58 39a8.62 8.62.0 0 0 2.16-3.78h2.52a20.68 20.68.0 0 1-2.94 5.85 15 15 0 0 1-3.42 3.36A9.92 9.92.0 0 1 85.51 46a13.66 13.66.0 0 1-2.85.36 6.49 6.49.0 0 1-4.56-1.71q-1.86-1.71-1.86-5.49a19.4 19.4.0 0 1 .48-3.9L80.8 16zM82 8a4.67 4.67.0 0 1 1.38-3.39 4.52 4.52.0 0 1 3.36-1.41 4.62 4.62.0 0 1 3.39 1.41A4.62 4.62.0 0 1 91.54 8a4.52 4.52.0 0 1-1.41 3.36 4.67 4.67.0 0 1-3.39 1.38 4.57 4.57.0 0 1-3.36-1.38A4.57 4.57.0 0 1 82 8z"/><path class="cls-1" d="M114 4l-6.9 32.4a8.4 8.4.0 0 0-.24 1.92 2.12 2.12.0 0 0 .6 1.74 3 3 0 0 0 1.86.48A4.53 4.53.0 0 0 112.6 39a8.62 8.62.0 0 0 2.16-3.78h2.52a20.68 20.68.0 0 1-2.94 5.85 15 15 0 0 1-3.42 3.36A9.92 9.92.0 0 1 107.53 46a13.66 13.66.0 0 1-2.85.36 6.49 6.49.0 0 1-4.56-1.71q-1.86-1.71-1.86-5.49a19.4 19.4.0 0 1 .48-3.9L105.16 5.2z"/><path class="cls-1" d="M136.06 4l-6.9 32.4a8.4 8.4.0 0 0-.24 1.92 2.12 2.12.0 0 0 .6 1.74 3 3 0 0 0 1.86.48 4.53 4.53.0 0 0 3.24-1.5 8.62 8.62.0 0 0 2.16-3.78h2.52a20.68 20.68.0 0 1-2.94 5.85 15 15 0 0 1-3.42 3.36A9.92 9.92.0 0 1 129.55 46a13.66 13.66.0 0 1-2.85.36 6.49 6.49.0 0 1-4.56-1.71q-1.86-1.71-1.86-5.49a19.4 19.4.0 0 1 .48-3.9L127.18 5.2z"/><path class="cls-1" d="M160.3 14.14q.24 5.82.48 9.42t.42 5.85q.18 2.25.3 3.66t.12 2.91a9.53 9.53.0 0 1-1.17 4.92 10 10 0 0 1-3 3.21 11.79 11.79.0 0 1-3.9 1.74 16.81 16.81.0 0 1-4 .51 10.15 10.15.0 0 1-3.93-.69A8.37 8.37.0 0 1 143 43.9a6.77 6.77.0 0 1-1.59-2.46 7.91 7.91.0 0 1-.51-2.76 6.24 6.24.0 0 1 1-3.54 5.62 5.62.0 0 1 2.22-2 73.4 73.4.0 0 0 4.26-8.91q1.74-4.41 3.12-8.85zm-12 21.12a3.22 3.22.0 0 1-.72 2 2.31 2.31.0 0 1-1.92.93 2.92 2.92.0 0 1-.93-.15 1.18 1.18.0 0 1-.69-.63 5 5 0 0 0 .84 3.15 3.41 3.41.0 0 0 2.82 1 7.06 7.06.0 0 0 1.92-.27 4.09 4.09.0 0 0 1.68-.93 4.84 4.84.0 0 0 1.17-1.74 6.87 6.87.0 0 0 .45-2.64q0-1.14-.09-2.22t-.24-2.58q-.15-1.5-.36-3.72t-.45-5.7a49.8 49.8.0 0 1-2.13 5.7q-1.23 2.76-2.73 5.64a2.81 2.81.0 0 1 1 .81A2.06 2.06.0 0 1 148.3 35.26z"/></g></g></svg>