<svg xmlns="http://www.w3.org/2000/svg" viewBox="0 0 25.94 20.37"><defs><style>.cls-1{fill:#fff}</style></defs><title>icon-web</title><g id="圖層_2" data-name="圖層 2"><g id="作品"><path class="cls-1" d="M5.9 11.33l2.92-1.9A.35.35.0 0 1 9 9.37a.87.87.0 0 1 .79.84.54.54.0 0 1-.21.45L7.59 12l2 1.31a.54.54.0 0 1 .21.45.86.86.0 0 1-.79.83.35.35.0 0 1-.21-.05L5.9 12.61A.8.8.0 0 1 5.54 12 .78.78.0 0 1 5.9 11.33z"/><path class="cls-1" d="M15 7.56a.46.46.0 0 1 0 .23l-2.89 8.74a.57.57.0 0 1-.47.36.64.64.0 0 1-.72-.52.42.42.0 0 1 0-.22L13.83 7.4a.51.51.0 0 1 .44-.35A.66.66.0 0 1 15 7.56z"/><path class="cls-1" d="M20 12.61l-2.91 1.9a.4.4.0 0 1-.22.05.86.86.0 0 1-.78-.83.54.54.0 0 1 .2-.45l2-1.31-2-1.31a.54.54.0 0 1-.2-.45.87.87.0 0 1 .78-.84.4.4.0 0 1 .22.06L20 11.33a.76.76.0 0 1 .36.64A.77.77.0 0 1 20 12.61z"/><path class="cls-1" d="M23.57.0H2.38A2.39 2.39.0 0 0 0 2.38V18a2.39 2.39.0 0 0 2.38 2.38H23.57A2.38 2.38.0 0 0 25.94 18V2.38A2.38 2.38.0 0 0 23.57.0zM8.6 2.38a.77.77.0 1 1-.77-.77A.78.78.0 0 1 8.6 2.38zm-2.35.0a.77.77.0 1 1-.77-.77A.77.77.0 0 1 6.25 2.38zm-2.35.0a.77.77.0 1 1-1.53.0.77.77.0 1 1 1.53.0zM23.57 19H2.38a1 1 0 0 1-1-1V4.74H24.57V18a1 1 0 0 1-1 1z"/></g></g></svg>