<svg xmlns="http://www.w3.org/2000/svg" viewBox="0 0 46 123.42"><defs><style>.cls-1{fill:#f8dac4}.cls-1,.cls-11,.cls-12,.cls-2,.cls-3,.cls-4,.cls-6,.cls-7,.cls-8,.cls-9{stroke:#4d3224;stroke-linecap:round;stroke-linejoin:round;stroke-width:1.5px}.cls-2{fill:#54524f}.cls-3{fill:#21201f}.cls-4{fill:#80d8d6}.cls-11,.cls-5{fill:#4d3224}.cls-6{fill:#f2ba8b}.cls-10,.cls-7{fill:#70859d}.cls-8{fill:#dfdcd5}.cls-9{fill:#8e8d87}.cls-12{fill:#da3e4d}.hand{-webkit-animation:hand-An 2s linear infinite;animation:hand-An 2s linear infinite}@keyframes hand-An{0%{transform-origin:right bottom;transform:rotate(-0deg);-webkit-transform-origin:right bottom;-webkit-transform:rotate(-0deg)}50%{transform-origin:right bottom;transform:rotate(-4deg);-webkit-transform-origin:right bottom;-webkit-transform:rotate(-4deg)}100%{transform-origin:right bottom;transform:rotate(0deg);-webkit-transform-origin:right bottom;-webkit-transform:rotate(0deg)}}</style></defs><title>about-people</title><path class="cls-1" d="M15.19 47.45c-.94-6.1-5-10.09-8-15.19a4.91 4.91.0 0 1-.91-2.52 11.78 11.78.0 0 1-1-2.63 12.68 12.68.0 0 0-1.12-2.45 16.06 16.06.0 0 0-1 2.18.18.18.0 0 1-.32.0 6.6 6.6.0 0 1-1-2.12.19.19.0 0 0-.27-.1 17.94 17.94.0 0 0-.83 4 1.42 1.42.0 0 0 0 .58 1.37 1.37.0 0 0 .33.49c.74.79 1.91 1.29 2.55 2.1s.59 1.9.66 2.95a29.4 29.4.0 0 0 .87 4.64 61.63 61.63.0 0 0 2.82 9c1.07 2.66 3.46 3.14 6 1.78a2.51 2.51.0 0 0 1.09-1.05A3 3 0 0 0 15.19 47.45z"/><path class="cls-2" d="M6.3 15.86 6.93 17.32 7.75 17.26 7.17 15.75 6.3 15.86z"/><path class="cls-2" d="M8.49 15.55 9.12 17.01 9.94 16.95 9.36 15.44 8.49 15.55z"/><path class="cls-3" d="M15.73 25.35l-1.05-5.53c.71-.82 1.13-1.45 1-1.7a2.44 2.44.0 0 0-1.84-1.31.67.67.0 0 0-.44-.08L2.68 19c-1.21.0-1.38 1.61-1.31 2l.93 5.34a1.93 1.93.0 0 0 0 .24 5.21 5.21.0 0 0 .15.65v.07l.11.61a.66.66.0 0 0 .45.5 2.23 2.23.0 0 0 1.83.89l1.65-1.46 8.68-1.64A.67.67.0 0 0 15.73 25.35z"/><rect class="cls-2" x="3.24" y="18.64" width="13.36" height="9.55" rx="2" ry="2" transform="translate(-4.17 2.25) rotate(-10.7)"/><path class="cls-3" d="M10.65 14.62l-.38-2.23c.29-.33.46-.58.42-.68a1 1 0 0 0-.73-.54.27.27.0 0 0-.18.0L4.23 12a.27.27.0 0 0-.21.31l.46 2.63V15a1 1 0 0 0 .06.26v0 .25a.25.25.0 0 0 .18.2.87.87.0 0 0 .73.37l.67-.58 4.27-.59A.27.27.0 0 0 10.65 14.62z"/><path class="cls-2" d="M10.93 15.31l-5.31.77a.39.39.0 0 1-.45-.31l-.52-3A.38.38.0 0 1 5 12.29l5.31-.78a.39.39.0 0 1 .44.31l.53 3A.39.39.0 0 1 10.93 15.31z"/><rect class="cls-4" x="4.74" y="19.71" width="10.35" height="7.4" rx="2" ry="2" transform="translate(-4.17 2.25) rotate(-10.7)"/><path class="cls-5" d="M13.82 17c0 .25-.28.52-.72.6s-.83-.05-.87-.3.28-.52.72-.6S13.78 16.78 13.82 17z"/><path class="cls-5" d="M13.4 17c.06.39-.73.53-.79.14L11.52 11c0 .1.2-.2.39-.23s.41.2.39.09z"/><path class="cls-5" d="M3.79 18.34l-1-5.88c0 .11-.19-.12-.39-.09S2 12.7 2 12.6l1 5.9c-.22.12-.36.3-.33.46s.43.38.87.3.76-.35.72-.6S4.05 18.37 3.79 18.34z"/><path class="cls-6" d="M31.93 114l-.34 4.67-.16 2.16a1.66 1.66.0 0 1-1.6 1.53l-7.86.27h-.11a1.14 1.14.0 0 1-.29-2.21L25.78 119a1.21 1.21.0 0 0 .51-.31l.1-.12a1.05 1.05.0 0 0 .19-.49c0-.09.0-.17.0-.26l.25-4z"/><path class="cls-5" d="M31.62 118.66l-.18 2.16a1.67 1.67.0 0 1-1.61 1.53l-7.85.27h-.12a1.14 1.14.0 0 1-.29-2.21L25.78 119a1.21 1.21.0 0 0 .51-.31 18.35 18.35.0 0 1 4.38-.16A6.25 6.25.0 0 1 31.62 118.66z"/><g class="head"><path class="cls-1" d="M31.25 14.26A25.67 25.67.0 0 0 35 21.45c.14.19.3.42.22.65s-.35.34-.6.4a23.34 23.34.0 0 1-7.9.63A8.76 8.76.0 0 0 24 16.85a15.53 15.53.0 0 1 7.77-2.23c.1.24.19.48.28.72z"/><path class="cls-1" d="M30 15c5.61-4.64-2.86-10.17-2.86-10.17l-4.81-.67-2.23.23s-.69 10.77 2.35 14c0 0 .78.51 2.78-.31"/><path class="cls-5" d="M32.05 16.25a2.06 2.06.0 0 0 .75-.53 3.61 3.61.0 0 0 .71-1.87 19.82 19.82.0 0 1 0-6.87 7 7 0 0 0 .17-2.36A4.4 4.4.0 0 0 32 2.11 10 10 0 0 0 25.53.0a19.61 19.61.0 0 0-6.77 1.49c-1 .4-2.21 1.07-2.24 2.17a2.6 2.6.0 0 0 1 1.83 10.66 10.66.0 0 0 2.9 2 4.77 4.77.0 0 1 1.75 1A5.21 5.21.0 0 1 23 10.64a8 8 0 0 0 7.11 5.88A5.64 5.64.0 0 0 32.05 16.25z"/></g><path class="cls-6" d="M11.45 114v6.83A1.51 1.51.0 0 1 10 122.4l-7.8.27H2a1.24 1.24.0 0 1-1.12-1 1 1 0 0 1 .67-1.18L5.68 119a1.14 1.14.0 0 0 .49-.31l.09-.12a1.13 1.13.0 0 0 .15-.49c0-.09.0-.17.0-.26v-4z"/><path class="cls-5" d="M11.47 118.71v2.16A1.53 1.53.0 0 1 10 122.4l-7.8.27H2a1.24 1.24.0 0 1-1.12-1 1 1 0 0 1 .67-1.18L5.68 119a1.14 1.14.0 0 0 .49-.31 18 18 0 0 1 4.34-.16A6.38 6.38.0 0 1 11.47 118.71z"/><path class="cls-7" d="M26.23 64.36a19.27 19.27.0 0 0-2-1.18c-2-1-4.53-2.89-6.68-3.45a1.09 1.09.0 0 0-.67.0 1.07 1.07.0 0 0-.47.47c-3.36 5-5.72 11.79-8 17.34-.44 1-.9 2.12-1.36 3.24-1.89 4.58-3.76 9.75-3.39 14.44.48 6.19 1.53 11.3 2.18 17.5a2 2 0 0 0 1.59 1.76 20.81 20.81.0 0 0 2.73.36 2 2 0 0 0 2.12-1.67c.87-5.11-.26-8.65.35-13.79A41 41 0 0 1 17.1 85a39.1 39.1.0 0 1 7-9.5A20.07 20.07.0 0 1 26 74q.43 13.23.1 26.47c-.15 5.5-1.07 8-.87 13.46a4.16 4.16.0 0 0 .1.72 3.38 3.38.0 0 0 .24.41c0-.09.3.32.39.4v0h.09l.32.18c-.11-.07.39.14.51.17l.37.07h.17c.31.0.61.0.92.0h.28.27c.33-.06.65-.14 1-.22a11.45 11.45.0 0 0 3-1.28c.71-2.62.3-3.23.6-5.3.73-4.89 1.38-9.79 2-14.7.92-7 1.32-14 2.29-21C38.05 72.25 39 60 40.08 59.77 35.45 60.42 31 64.17 26.23 64.36z"/><g class="hand"><path class="cls-1" d="M30.37 42.54c-5.3-3.15-7.48-8.4-11.11-13.06a4.88 4.88.0 0 0-2-1.78 11.62 11.62.0 0 0-2.08-1.87 13.13 13.13.0 0 1-1.86-1.95 16.24 16.24.0 0 1 2.41-.14.18.18.0 0 0 .16-.28 6.73 6.73.0 0 0-1.58-1.74.19.19.0 0 1 0-.29 17.6 17.6.0 0 1 4 .73 1.5 1.5.0 0 1 .54.22 1.37 1.37.0 0 1 .33.49c.46 1 .48 2.25 1 3.15s1.54 1.26 2.5 1.71a29.11 29.11.0 0 1 4 2.55 60.72 60.72.0 0 1 7.31 6c2.07 2 1.62 4.39-.58 6.21a2.52 2.52.0 0 1-1.38.62A3.08 3.08.0 0 1 30.37 42.54z"/></g><path class="cls-8" d="M42.7 47.14c.24-6.17 1.13-13.3-.86-19.25a11.42 11.42.0 0 0-6-7.08c-4.43-1.87-8.86-.42-12.42 2.43l-.31.26c-.55.46-1.08.95-1.59 1.46l-.39.41a45.38 45.38.0 0 0-6.63 9.55c-1 1.83-7.73 11.52-6.47 14.74.28 2.47 2.14 2.39 4.12 1.49a6.32 6.32.0 0 0 1.56-.22 9.67 9.67.0 0 0 4.64-3.59L17 52.89v.06c-.13.49-.25 1-.38 1.47a2.81 2.81.0 0 1-.08.31 17.71 17.71.0 0 1-.79 3.17C15.15 59 14 59.64 13.89 61c-.67 5.75 14 6.09 17.49 5.87a15.18 15.18.0 0 0 3.29-.47c2.21-.65 5.38-2.61 6.61-4.64S41.8 56.38 42 54C42.17 51.71 42.62 49.46 42.7 47.14z"/><path class="cls-1" d="M4.93 30.42a36.22 36.22.0 0 0 .46-3.75 4.39 4.39.0 0 0-2.22 1.78.92.92.0 0 0-.17.41"/><path class="cls-1" d="M22.45 11.55a3.35 3.35.0 0 1 .76-1.29 1.13 1.13.0 0 1 1.38-.17 1.24 1.24.0 0 1 .38.54 3.23 3.23.0 0 1-.42 3.26 1 1 0 0 1-.35.31"/><path class="cls-9" d="M45.17 39.69A12.26 12.26.0 0 0 44.33 34c-.5-1.08-1.13-2.12-1.62-3.17q-.2-.41-.39-.84c-.2-.38-.38-.77-.56-1.16-.53-.89-1.08-1.75-1.65-2.62L39.94 26a9 9 0 0 0-.3-1.53 4.83 4.83.0 0 0-3-3.35 12.91 12.91.0 0 1 1 4.24 19.84 19.84.0 0 0-6.15.43L30.7 26a14.26 14.26.0 0 0-2.52.75c-1.11.49-1.82-.29-2.46-1-.28-.34-.57-.67-.86-1a8.79 8.79.0 0 0-1.43-1.43l-.31.26c-.55.46-1.08.95-1.59 1.46l-.39.41a14.11 14.11.0 0 1 2.62 3.27l.13.36L24 30.38c0 .48-.07 1-.1 1.46a.5.5.0 0 1 0 .13 36.37 36.37.0 0 1 .19 8.47c-.15 2.23-.34 4.47-.33 6.71.0.31.0.64.0 1l-.17.16A5.15 5.15.0 0 1 22.49 51a6.42 6.42.0 0 1-3.15 1.55 6.58 6.58.0 0 1-2.39.33v.06c-.13.49-.25 1-.38 1.47a2.81 2.81.0 0 1-.08.31 9.31 9.31.0 0 0 8.22-1.39 8.1 8.1.0 0 0 .38.92 5.22 5.22.0 0 0 1.78 1.87 6.31 6.31.0 0 0 1.84.41 24.32 24.32.0 0 0 7.12.22c.21.0.43.0.64.0a14.51 14.51.0 0 0 3.75-.56 6.11 6.11.0 0 0 1.21-.58 6.62 6.62.0 0 0 2.51-4.38 29.35 29.35.0 0 0 .52-3.73 19.47 19.47.0 0 1 0-4.11C44.58 42.14 45 40.94 45.17 39.69z"/><path class="cls-10" d="M31.33 70l-6 3.81c-.24.15.0.54.23.38l6-3.8C31.79 70.23 31.57 69.84 31.33 70z"/><path class="cls-11" d="M42 45.67c-.15-1.3-.51-2.59-2-2.78a22 22 0 0 0-6.12.08c-1.44.22-3.14.62-3.78 2.09a10.22 10.22.0 0 0-.61 2.61c-.07.48-.35 1.33.18 1.64a.23.23.0 0 0 .27.0l.07-.06c.17-.15.0-.38-.18-.37a7 7 0 0 1 .33-2.38A3.88 3.88.0 0 1 31 44.58c.88-.94 2.5-1.13 3.7-1.27a25.77 25.77.0 0 1 4.12-.06c.7.0 1.63.0 2.15.51a3.42 3.42.0 0 1 .64 1.91C41.62 46 42.07 46 42 45.67z"/><path class="cls-11" d="M42 39.75c-.31 1-1.55 1-2.38 1.06L36.41 41c-1.62.11-3.67.51-5.18-.29-1.8-.94-1.44-3.4-1.67-5.11A13.62 13.62.0 0 0 28 30.73c-.14-.25-.53.0-.39.23a15.13 15.13.0 0 1 1.7 6.67c.13 1.76.63 3.29 2.5 3.79s4.22.08 6.2-.05c1.35-.09 3.86.15 4.4-1.5C42.49 39.59 42.06 39.47 42 39.75z"/><path class="cls-2" d="M11.22 16.79 10.26 16.41 6.07 17.18 6.68 17.37"/><path class="cls-2" d="M11.34 18.03 6.89 18.85 6.76 17.61 11.21 16.79 11.34 18.03z"/><path class="cls-3" d="M6.01 17.34 6.11 18.24 6.84 18.69 6.76 17.72 6.01 17.34z"/><path class="cls-12" d="M4.86 13.15 10.45 12.34z"/><path class="cls-12" d="M5.08 13.69 10.67 12.88z"/><path class="cls-12" d="M5.19 14.29 10.78 13.48z"/><path class="cls-12" d="M5.24 14.89 10.83 14.07z"/><path class="cls-12" d="M5.35 15.37 10.94 14.56z"/><path class="cls-12" d="M5.52 12.55 6.11 15.92z"/><path class="cls-12" d="M6.22 12.39 6.82 15.75z"/><path class="cls-12" d="M6.93 12.23 7.52 15.59z"/><path class="cls-12" d="M7.63 12.17 8.23 15.54z"/><path class="cls-12" d="M8.28 12.06 8.88 15.43z"/><path class="cls-12" d="M9.04 12.12 9.64 15.48z"/><path class="cls-12" d="M9.69 12.01 10.29 15.37z"/><circle class="cls-12" cx="9.1" cy="13.1" r=".62"/></svg>