<svg viewBox="0 0 1920.04 304.5" xmlns="http://www.w3.org/2000/svg"><g opacity=".85"><path d="m.42 301.5 319.05-.43c3.84-26.15-13.71-52.19-37.6-64-33.27-16.5-68.05 4.48-68.05 4.48-50.65-85.25-127.75-32.18-127.75-32.18s0-35.08-37.42-40.93c0 0 42.57-84.2-47.48-168.4l-1.17 301.03" fill="#d1e7ff"/><path d="m304 301.5a58.92 58.92 0 0 0 -32.12-43.14c-33.27-16.5-65.38 4.47-65.38 4.47-50.65-85.25-121.08-32.18-121.08-32.18s-16.85-50.42-66.08-47.59c0 0 49.31-68.15-18.74-146l-.18 264.44z" fill="#b1d0e3" opacity=".44"/></g><g opacity=".85"><path d="m1918.66 303.56 1.38-266s-75.94 48.33-58 161.56c0 0-31.76 2.76-35.91 37.29 0 0-48.33-15.19-66.28 35.9 0 0-35.9-62.14-106.32-38.67 0 0-56.66 27.7-53.36 69.88l319.16.94" fill="#d1e7ff"/><path d="m1919.34 304.5.2-235.94c-19.57 20.43-47.47 64.11-35.4 140.27 0 0-37.28 9.66-41.43 44.19 0 0-64.89-8.29-82.85 42.8-18.43-35.76-66.59-62.76-104.16-39.82-17.28 10.54-31.58 29.19-38.83 48.5z" fill="#b1d0e3" opacity=".44"/></g></svg>