<svg xmlns="http://www.w3.org/2000/svg" viewBox="0 0 1918.19 230.76"><defs><style>.cls-1{isolation:isolate;}.cls-2{fill:#a4aaab;}.cls-10,.cls-17,.cls-29,.cls-3,.cls-38,.cls-7{fill:none;}.cls-11,.cls-12,.cls-13,.cls-19,.cls-20,.cls-22,.cls-24,.cls-25,.cls-26,.cls-27,.cls-3,.cls-30,.cls-33,.cls-35,.cls-38,.cls-4,.cls-40,.cls-41,.cls-42,.cls-43,.cls-44,.cls-45,.cls-46,.cls-47,.cls-5,.cls-6,.cls-7{stroke:#4d3224;}.cls-10,.cls-11,.cls-12,.cls-13,.cls-17,.cls-19,.cls-20,.cls-22,.cls-24,.cls-25,.cls-26,.cls-27,.cls-29,.cls-3,.cls-30,.cls-33,.cls-35,.cls-38,.cls-4,.cls-40,.cls-41,.cls-42,.cls-43,.cls-44,.cls-45,.cls-46,.cls-47,.cls-5,.cls-6,.cls-7{stroke-linecap:round;stroke-linejoin:round;}.cls-4{fill:#77c4ce;}.cls-10,.cls-11,.cls-12,.cls-13,.cls-17,.cls-30,.cls-33,.cls-4,.cls-5,.cls-6,.cls-7{stroke-width:1.33px;}.cls-25,.cls-47,.cls-5,.cls-9{fill:#80d8d6;}.cls-6{fill:#5aabb9;}.cls-8{opacity:0.23;mix-blend-mode:color-dodge;}.cls-10{stroke:#80d8d6;}.cls-11{fill:#e6ffff;}.cls-12{fill:#9fc2c4;}.cls-13{fill:#c9e2ff;}.cls-14{fill:#4d3224;}.cls-15{opacity:0.4;}.cls-16{fill:#d0ebea;}.cls-17,.cls-29{stroke:#426e75;}.cls-18{fill:#4e98a0;}.cls-19,.cls-30,.cls-40{fill:#7bb52d;}.cls-19,.cls-20,.cls-22,.cls-24,.cls-25,.cls-26,.cls-27,.cls-29{stroke-width:1.21px;}.cls-20,.cls-48{fill:#ff9563;}.cls-21{fill:#de744c;}.cls-22,.cls-41{fill:#f1d4c2;}.cls-23{fill:#e0bfa9;}.cls-24{fill:#9a8e80;}.cls-26{fill:#426e75;}.cls-27,.cls-44{fill:#f27e52;}.cls-28,.cls-45{fill:#ffb563;}.cls-31{fill:#72a72a;}.cls-32{fill:#8acc2b;}.cls-33{fill:#82b823;}.cls-34{fill:#7c9e2a;}.cls-35{fill:#659225;}.cls-35,.cls-38,.cls-40,.cls-41,.cls-42,.cls-43,.cls-44,.cls-45,.cls-46,.cls-47{stroke-width:1.14px;}.cls-36{fill:#50a33f;}.cls-37{fill:#479137;}.cls-39{fill:#5ab747;}.cls-42{fill:#d75968;}.cls-43{fill:#c46048;}.cls-46{fill:#a14f3b;}</style></defs><title>about-city01   </title><g class="cls-1"><g id="圖層_2" data-name="圖層 2"><g id="關於"><rect class="cls-2" x="0.5" y="211.02" width="1917.19" height="19.74"/><line class="cls-3" x1="0.5" y1="211.02" x2="1917.69" y2="211.02"/><polygon class="cls-4" points="408.32 216.41 373.9 216.41 373.9 6.42 408.32 28.21 408.32 216.41"/><rect class="cls-5" x="376.59" y="40.11" width="29.24" height="1.32"/><polygon class="cls-5" points="408.52 38.32 373.9 38.32 373.9 43.22 408.52 43.22 408.52 38.32 408.52 38.32"/><rect class="cls-5" x="376.59" y="52.29" width="29.24" height="1.32"/><polygon class="cls-5" points="408.52 50.5 373.9 50.5 373.9 55.4 408.52 55.4 408.52 50.5 408.52 50.5"/><rect class="cls-5" x="376.59" y="64.46" width="29.24" height="1.32"/><polygon class="cls-5" points="408.52 62.67 373.9 62.67 373.9 67.58 408.52 67.58 408.52 62.67 408.52 62.67"/><rect class="cls-5" x="376.59" y="76.64" width="29.24" height="1.32"/><polygon class="cls-5" points="408.52 74.85 373.9 74.85 373.9 79.75 408.52 79.75 408.52 74.85 408.52 74.85"/><rect class="cls-5" x="376.59" y="88.82" width="29.24" height="1.32"/><polygon class="cls-5" points="408.52 87.03 373.9 87.03 373.9 91.93 408.52 91.93 408.52 87.03 408.52 87.03"/><rect class="cls-5" x="376.59" y="100.99" width="29.24" height="1.33"/><polygon class="cls-5" points="408.52 99.2 373.9 99.2 373.9 104.11 408.52 104.11 408.52 99.2 408.52 99.2"/><rect class="cls-5" x="376.59" y="112.36" width="29.24" height="1.32"/><polygon class="cls-5" points="408.52 110.57 373.9 110.57 373.9 115.47 408.52 115.47 408.52 110.57 408.52 110.57"/><rect class="cls-5" x="376.59" y="124.53" width="29.24" height="1.32"/><polygon class="cls-5" points="408.52 122.74 373.9 122.74 373.9 127.65 408.52 127.65 408.52 122.74 408.52 122.74"/><rect class="cls-5" x="376.59" y="136.71" width="29.24" height="1.32"/><polygon class="cls-5" points="408.52 134.92 373.9 134.92 373.9 139.82 408.52 139.82 408.52 134.92 408.52 134.92"/><rect class="cls-5" x="376.59" y="148.89" width="29.24" height="1.33"/><polygon class="cls-5" points="408.52 147.1 373.9 147.1 373.9 152 408.52 152 408.52 147.1 408.52 147.1"/><rect class="cls-5" x="376.59" y="161.06" width="29.24" height="1.32"/><polygon class="cls-5" points="408.52 159.27 373.9 159.27 373.9 164.18 408.52 164.18 408.52 159.27 408.52 159.27"/><rect class="cls-5" x="376.59" y="173.24" width="29.24" height="1.32"/><polygon class="cls-5" points="408.52 171.45 373.9 171.45 373.9 176.35 408.52 176.35 408.52 171.45 408.52 171.45"/><polygon class="cls-6" points="373.9 6.42 386.06 0.67 417.65 21.77 408.32 28.21 373.9 6.42"/><polygon class="cls-6" points="417.65 21.77 417.65 53.61 408.32 59.35 408.32 28.21 417.65 21.77"/><line class="cls-7" x1="412.99" y1="31.81" x2="412.99" y2="56.04"/><g class="cls-8"><polygon class="cls-9" points="373.98 85.34 373.98 71.25 408.25 107.33 408.25 121.43 373.98 85.34"/><polygon class="cls-9" points="408.25 77.16 408.25 101.09 373.98 65.01 373.98 40.41 408.25 77.16"/></g><polygon class="cls-4" points="398.45 216.41 430.09 216.41 430.09 46.78 398.45 65.66 398.45 216.41"/><polygon class="cls-6" points="421 52.2 421 216.41 430.09 216.41 430.09 46.41 421 52.2"/><line class="cls-10" x1="401.83" y1="65.61" x2="401.83" y2="214.97"/><line class="cls-10" x1="405.48" y1="63.24" x2="405.48" y2="214.97"/><line class="cls-10" x1="409.28" y1="60.81" x2="409.28" y2="214.97"/><line class="cls-10" x1="413.47" y1="58.78" x2="413.47" y2="214.97"/><line class="cls-10" x1="417.66" y1="56.04" x2="417.66" y2="215.09"/><line class="cls-10" x1="399.59" y1="69.31" x2="419.56" y2="69.31"/><line class="cls-10" x1="399.87" y1="73.3" x2="419.84" y2="73.3"/><line class="cls-10" x1="399.87" y1="77.87" x2="419.84" y2="77.87"/><line class="cls-10" x1="399.87" y1="82.44" x2="419.84" y2="82.44"/><line class="cls-10" x1="399.87" y1="87" x2="419.84" y2="87"/><line class="cls-10" x1="399.87" y1="91.57" x2="419.84" y2="91.57"/><line class="cls-10" x1="399.87" y1="96.14" x2="419.84" y2="96.14"/><line class="cls-10" x1="399.87" y1="100.71" x2="419.84" y2="100.71"/><line class="cls-10" x1="399.87" y1="105.27" x2="419.84" y2="105.27"/><line class="cls-10" x1="399.87" y1="109.84" x2="419.84" y2="109.84"/><line class="cls-10" x1="399.87" y1="114.41" x2="419.84" y2="114.41"/><line class="cls-10" x1="399.87" y1="118.98" x2="419.84" y2="118.98"/><line class="cls-10" x1="399.87" y1="123.54" x2="419.84" y2="123.54"/><line class="cls-10" x1="399.87" y1="128.11" x2="419.84" y2="128.11"/><line class="cls-10" x1="399.87" y1="132.68" x2="419.84" y2="132.68"/><line class="cls-10" x1="399.87" y1="137.25" x2="419.84" y2="137.25"/><line class="cls-10" x1="399.87" y1="141.81" x2="419.84" y2="141.81"/><line class="cls-10" x1="399.87" y1="146.38" x2="419.84" y2="146.38"/><line class="cls-10" x1="399.87" y1="150.95" x2="419.84" y2="150.95"/><line class="cls-10" x1="399.87" y1="155.52" x2="419.84" y2="155.52"/><line class="cls-10" x1="399.87" y1="160.08" x2="419.84" y2="160.08"/><line class="cls-10" x1="399.87" y1="164.65" x2="419.84" y2="164.65"/><line class="cls-10" x1="399.87" y1="169.22" x2="419.84" y2="169.22"/><line class="cls-10" x1="399.87" y1="173.78" x2="419.84" y2="173.78"/><line class="cls-10" x1="399.87" y1="178.35" x2="419.84" y2="178.35"/><line class="cls-10" x1="399.87" y1="182.92" x2="419.84" y2="182.92"/><line class="cls-10" x1="399.87" y1="187.49" x2="419.84" y2="187.49"/><line class="cls-10" x1="399.87" y1="192.05" x2="419.84" y2="192.05"/><line class="cls-10" x1="399.87" y1="196.62" x2="419.84" y2="196.62"/><line class="cls-10" x1="399.87" y1="201.19" x2="419.84" y2="201.19"/><line class="cls-10" x1="399.87" y1="205.76" x2="419.84" y2="205.76"/><g class="cls-8"><polygon class="cls-9" points="421.01 126.35 421.01 117.17 398.69 140.66 398.69 149.84 421.01 126.35"/><polygon class="cls-9" points="398.69 121.01 398.69 136.6 421.01 113.11 421.01 97.09 398.69 121.01"/></g><rect class="cls-11" x="321.03" y="71.38" width="18.38" height="15.15"/><rect class="cls-12" x="320.4" y="69.86" width="19.63" height="1.52"/><rect class="cls-13" x="312.94" y="80.54" width="34.55" height="15.15"/><rect class="cls-12" x="311.9" y="78.65" width="36.63" height="1.89"/><rect class="cls-11" x="299.76" y="92.12" width="60.92" height="124.3"/><rect class="cls-12" x="298.67" y="89.73" width="63.1" height="2.38"/><path class="cls-5" d="M318.28,81.84a2.71,2.71,0,0,0-2.68,2.75v5.14H321V84.59A2.71,2.71,0,0,0,318.28,81.84Z"/><path class="cls-5" d="M326.24,81.84a2.71,2.71,0,0,0-2.68,2.75v5.14h5.35V84.59A2.71,2.71,0,0,0,326.24,81.84Z"/><path class="cls-5" d="M334.19,81.84a2.71,2.71,0,0,0-2.67,2.75v5.14h5.35V84.59A2.71,2.71,0,0,0,334.19,81.84Z"/><path class="cls-5" d="M342.15,81.84a2.71,2.71,0,0,0-2.67,2.75v5.14h5.35V84.59A2.71,2.71,0,0,0,342.15,81.84Z"/><rect class="cls-14" x="322.66" y="71.02" width="0.91" height="7.93"/><rect class="cls-14" x="327.32" y="71.02" width="0.91" height="7.93"/><rect class="cls-14" x="331.98" y="71.02" width="0.91" height="7.93"/><rect class="cls-14" x="336.65" y="71.02" width="0.91" height="7.93"/><rect class="cls-5" x="316.09" y="195.44" width="27.84" height="20.98"/><g class="cls-15"><polygon class="cls-16" points="338.23 196.58 338.23 196.11 336.21 196.11 317.66 215.74 320.13 215.74 338.23 196.58"/><polygon class="cls-16" points="316.61 208.43 316.61 214.07 333.57 196.11 328.25 196.11 316.61 208.43"/></g><line class="cls-17" x1="330.22" y1="196.12" x2="330.22" y2="215.85"/><polygon class="cls-18" points="305.7 109.35 306.67 109.35 306.67 109.38 313.17 109.38 313.17 109.35 313.17 97.8 313.17 97.16 305.7 97.16 305.7 109.35"/><polygon class="cls-18" points="316.09 109.29 317.06 109.29 317.06 109.32 323.56 109.32 323.56 109.29 323.56 97.74 323.56 97.1 316.09 97.1 316.09 109.29"/><polygon class="cls-18" points="336.87 109.29 337.84 109.29 337.84 109.32 344.34 109.32 344.34 109.29 344.34 97.74 344.34 97.1 336.87 97.1 336.87 109.29"/><polygon class="cls-18" points="347.27 97.16 347.27 109.35 348.24 109.35 348.24 109.38 354.74 109.38 354.74 109.35 354.74 97.8 354.74 97.16 347.27 97.16"/><polygon class="cls-18" points="327.46 109.38 333.95 109.38 333.95 109.35 333.95 97.8 333.95 97.16 326.48 97.16 326.48 109.35 327.46 109.35 327.46 109.38"/><polygon class="cls-18" points="305.7 126.13 306.67 126.13 306.67 126.16 313.17 126.16 313.17 126.13 313.17 114.58 313.17 113.94 305.7 113.94 305.7 126.13"/><polygon class="cls-18" points="316.09 126.06 317.06 126.06 317.06 126.09 323.56 126.09 323.56 126.06 323.56 114.52 323.56 113.88 316.09 113.88 316.09 126.06"/><polygon class="cls-18" points="336.87 126.06 337.84 126.06 337.84 126.09 344.34 126.09 344.34 126.06 344.34 114.52 344.34 113.88 336.87 113.88 336.87 126.06"/><polygon class="cls-18" points="347.27 113.94 347.27 126.13 348.24 126.13 348.24 126.16 354.74 126.16 354.74 126.13 354.74 114.58 354.74 113.94 347.27 113.94"/><polygon class="cls-18" points="327.46 126.16 333.95 126.16 333.95 126.13 333.95 114.58 333.95 113.94 326.48 113.94 326.48 126.13 327.46 126.13 327.46 126.16"/><polygon class="cls-18" points="305.7 142.9 306.67 142.9 306.67 142.94 313.17 142.94 313.17 142.9 313.17 131.36 313.17 130.72 305.7 130.72 305.7 142.9"/><polygon class="cls-18" points="316.09 142.84 317.06 142.84 317.06 142.87 323.56 142.87 323.56 142.84 323.56 131.3 323.56 130.66 316.09 130.66 316.09 142.84"/><polygon class="cls-18" points="336.87 142.84 337.84 142.84 337.84 142.87 344.34 142.87 344.34 142.84 344.34 131.3 344.34 130.66 336.87 130.66 336.87 142.84"/><polygon class="cls-18" points="347.27 130.72 347.27 142.9 348.24 142.9 348.24 142.94 354.74 142.94 354.74 142.9 354.74 131.36 354.74 130.72 347.27 130.72"/><polygon class="cls-18" points="327.46 142.94 333.95 142.94 333.95 142.9 333.95 131.36 333.95 130.72 326.48 130.72 326.48 142.9 327.46 142.9 327.46 142.94"/><polygon class="cls-18" points="305.7 159.68 306.67 159.68 306.67 159.72 313.17 159.72 313.17 159.68 313.17 148.13 313.17 147.5 305.7 147.5 305.7 159.68"/><polygon class="cls-18" points="316.09 159.62 317.06 159.62 317.06 159.65 323.56 159.65 323.56 159.62 323.56 148.08 323.56 147.44 316.09 147.44 316.09 159.62"/><polygon class="cls-18" points="336.87 159.62 337.84 159.62 337.84 159.65 344.34 159.65 344.34 159.62 344.34 148.08 344.34 147.44 336.87 147.44 336.87 159.62"/><polygon class="cls-18" points="347.27 147.5 347.27 159.68 348.24 159.68 348.24 159.72 354.74 159.72 354.74 159.68 354.74 148.13 354.74 147.5 347.27 147.5"/><polygon class="cls-18" points="327.46 159.72 333.95 159.72 333.95 159.68 333.95 148.13 333.95 147.5 326.48 147.5 326.48 159.68 327.46 159.68 327.46 159.72"/><polygon class="cls-18" points="305.7 176.46 306.67 176.46 306.67 176.49 313.17 176.49 313.17 176.46 313.17 164.91 313.17 164.28 305.7 164.28 305.7 176.46"/><polygon class="cls-18" points="316.09 176.4 317.06 176.4 317.06 176.43 323.56 176.43 323.56 176.4 323.56 164.85 323.56 164.21 316.09 164.21 316.09 176.4"/><polygon class="cls-18" points="336.87 176.4 337.84 176.4 337.84 176.43 344.34 176.43 344.34 176.4 344.34 164.85 344.34 164.21 336.87 164.21 336.87 176.4"/><polygon class="cls-18" points="347.27 164.28 347.27 176.46 348.24 176.46 348.24 176.49 354.74 176.49 354.74 176.46 354.74 164.91 354.74 164.28 347.27 164.28"/><polygon class="cls-18" points="327.46 176.49 333.95 176.49 333.95 176.46 333.95 164.91 333.95 164.28 326.48 164.28 326.48 176.46 327.46 176.46 327.46 176.49"/><polygon class="cls-18" points="305.7 193.24 306.67 193.24 306.67 193.27 313.17 193.27 313.17 193.24 313.17 181.69 313.17 181.05 305.7 181.05 305.7 193.24"/><polygon class="cls-18" points="316.09 193.18 317.06 193.18 317.06 193.21 323.56 193.21 323.56 193.18 323.56 181.63 323.56 180.99 316.09 180.99 316.09 193.18"/><polygon class="cls-18" points="336.87 193.18 337.84 193.18 337.84 193.21 344.34 193.21 344.34 193.18 344.34 181.63 344.34 180.99 336.87 180.99 336.87 193.18"/><polygon class="cls-18" points="347.27 181.05 347.27 193.24 348.24 193.24 348.24 193.27 354.74 193.27 354.74 193.24 354.74 181.69 354.74 181.05 347.27 181.05"/><polygon class="cls-18" points="327.46 193.27 333.95 193.27 333.95 193.24 333.95 181.69 333.95 181.05 326.48 181.05 326.48 193.24 327.46 193.24 327.46 193.27"/><polygon class="cls-5" points="305.7 107.67 306.67 107.67 306.67 107.7 313.17 107.7 313.17 107.67 313.17 96.12 313.17 95.49 305.7 95.49 305.7 107.67"/><polygon class="cls-5" points="316.09 107.61 317.06 107.61 317.06 107.64 323.56 107.64 323.56 107.61 323.56 96.07 323.56 95.42 316.09 95.42 316.09 107.61"/><polygon class="cls-5" points="336.87 107.61 337.84 107.61 337.84 107.64 344.34 107.64 344.34 107.61 344.34 96.07 344.34 95.42 336.87 95.42 336.87 107.61"/><polygon class="cls-5" points="347.27 95.49 347.27 107.67 348.24 107.67 348.24 107.7 354.74 107.7 354.74 107.67 354.74 96.12 354.74 95.49 347.27 95.49"/><polygon class="cls-5" points="327.46 107.7 333.95 107.7 333.95 107.67 333.95 96.12 333.95 95.49 326.48 95.49 326.48 107.67 327.46 107.67 327.46 107.7"/><polygon class="cls-5" points="305.7 124.45 306.67 124.45 306.67 124.48 313.17 124.48 313.17 124.45 313.17 112.9 313.17 112.26 305.7 112.26 305.7 124.45"/><polygon class="cls-5" points="316.09 124.39 317.06 124.39 317.06 124.42 323.56 124.42 323.56 124.39 323.56 112.84 323.56 112.2 316.09 112.2 316.09 124.39"/><polygon class="cls-5" points="336.87 124.39 337.84 124.39 337.84 124.42 344.34 124.42 344.34 124.39 344.34 112.84 344.34 112.2 336.87 112.2 336.87 124.39"/><polygon class="cls-5" points="347.27 112.26 347.27 124.45 348.24 124.45 348.24 124.48 354.74 124.48 354.74 124.45 354.74 112.9 354.74 112.26 347.27 112.26"/><polygon class="cls-5" points="327.46 124.48 333.95 124.48 333.95 124.45 333.95 112.9 333.95 112.26 326.48 112.26 326.48 124.45 327.46 124.45 327.46 124.48"/><polygon class="cls-5" points="305.7 141.22 306.67 141.22 306.67 141.26 313.17 141.26 313.17 141.22 313.17 129.68 313.17 129.04 305.7 129.04 305.7 141.22"/><polygon class="cls-5" points="316.09 141.16 317.06 141.16 317.06 141.19 323.56 141.19 323.56 141.16 323.56 129.62 323.56 128.98 316.09 128.98 316.09 141.16"/><polygon class="cls-5" points="336.87 141.16 337.84 141.16 337.84 141.19 344.34 141.19 344.34 141.16 344.34 129.62 344.34 128.98 336.87 128.98 336.87 141.16"/><polygon class="cls-5" points="347.27 129.04 347.27 141.22 348.24 141.22 348.24 141.26 354.74 141.26 354.74 141.22 354.74 129.68 354.74 129.04 347.27 129.04"/><polygon class="cls-5" points="327.46 141.26 333.95 141.26 333.95 141.22 333.95 129.68 333.95 129.04 326.48 129.04 326.48 141.22 327.46 141.22 327.46 141.26"/><polygon class="cls-5" points="305.7 158 306.67 158 306.67 158.04 313.17 158.04 313.17 158 313.17 146.46 313.17 145.82 305.7 145.82 305.7 158"/><polygon class="cls-5" points="316.09 157.94 317.06 157.94 317.06 157.97 323.56 157.97 323.56 157.94 323.56 146.4 323.56 145.76 316.09 145.76 316.09 157.94"/><polygon class="cls-5" points="336.87 157.94 337.84 157.94 337.84 157.97 344.34 157.97 344.34 157.94 344.34 146.4 344.34 145.76 336.87 145.76 336.87 157.94"/><polygon class="cls-5" points="347.27 145.82 347.27 158 348.24 158 348.24 158.04 354.74 158.04 354.74 158 354.74 146.46 354.74 145.82 347.27 145.82"/><polygon class="cls-5" points="327.46 158.04 333.95 158.04 333.95 158 333.95 146.46 333.95 145.82 326.48 145.82 326.48 158 327.46 158 327.46 158.04"/><polygon class="cls-5" points="305.7 174.78 306.67 174.78 306.67 174.81 313.17 174.81 313.17 174.78 313.17 163.23 313.17 162.6 305.7 162.6 305.7 174.78"/><polygon class="cls-5" points="316.09 174.72 317.06 174.72 317.06 174.75 323.56 174.75 323.56 174.72 323.56 163.18 323.56 162.54 316.09 162.54 316.09 174.72"/><polygon class="cls-5" points="336.87 174.72 337.84 174.72 337.84 174.75 344.34 174.75 344.34 174.72 344.34 163.18 344.34 162.54 336.87 162.54 336.87 174.72"/><polygon class="cls-5" points="347.27 162.6 347.27 174.78 348.24 174.78 348.24 174.81 354.74 174.81 354.74 174.78 354.74 163.23 354.74 162.6 347.27 162.6"/><polygon class="cls-5" points="327.46 174.81 333.95 174.81 333.95 174.78 333.95 163.23 333.95 162.6 326.48 162.6 326.48 174.78 327.46 174.78 327.46 174.81"/><polygon class="cls-5" points="305.7 191.56 306.67 191.56 306.67 191.59 313.17 191.59 313.17 191.56 313.17 180.01 313.17 179.38 305.7 179.38 305.7 191.56"/><polygon class="cls-5" points="316.09 191.5 317.06 191.5 317.06 191.53 323.56 191.53 323.56 191.5 323.56 179.96 323.56 179.31 316.09 179.31 316.09 191.5"/><polygon class="cls-5" points="336.87 191.5 337.84 191.5 337.84 191.53 344.34 191.53 344.34 191.5 344.34 179.96 344.34 179.31 336.87 179.31 336.87 191.5"/><polygon class="cls-5" points="347.27 179.38 347.27 191.56 348.24 191.56 348.24 191.59 354.74 191.59 354.74 191.56 354.74 180.01 354.74 179.38 347.27 179.38"/><polygon class="cls-5" points="327.46 191.59 333.95 191.59 333.95 191.56 333.95 180.01 333.95 179.38 326.48 179.38 326.48 191.56 327.46 191.56 327.46 191.59"/><path class="cls-19" d="M1477.76,215.44a2.15,2.15,0,0,1-.91-2.63c.52-1.21,1.08-.58,1.83-.07-.54-2.24-.52-6.09.89-7.88,1.2-1.51,3.57.26,4.37,1.78.63-1,.93-2.26,2.24-2.11.82.09,1.25,1,2,1.29-.54-2.24.64-6.27,2.58-7,2.36-.91,3.22,2.23,3.22,4.36.79-3.54,3-.42,3.83,1.14.53-.57.77-1.58,1.68-1.3.59.19,1.06,1.25,1.17,1.91.33-2.46,3-6.07,5.22-5.27s2.13,3.5,2.16,5.71c.61-1.52,2.78-1.29,3.6-.22a5,5,0,0,1,0,4.56c1.1-1.13,2.15-3.38,3.84-2.45,2.17,1.19.54,3.9.15,5.74.25-1.1,3.41-.9,3.57.39.14,1.13-1.62,2-2.48,2.08Z"/><path class="cls-20" d="M1519.28,66.67c-12,0-21.63,10.63-21.63,23.75h43.26C1540.91,77.3,1531.22,66.67,1519.28,66.67Z"/><path class="cls-21" d="M1521.22,86.89c0,9.1-1,16.48-2.15,16.48s-2.16-7.38-2.16-16.48,1-16.47,2.16-16.47S1521.22,77.8,1521.22,86.89Z"/><path class="cls-21" d="M1511.25,86.89c0,9.26,2.27,16.79,1.14,17.27s-5.49-7-5.45-17.27,4.43-17.82,5.45-17.26S1511.25,77.64,1511.25,86.89Z"/><path class="cls-21" d="M1526.88,86.89c0,9.26-2.26,16.79-1.14,17.27s5.49-7,5.46-17.27-4.44-17.82-5.46-17.26S1526.88,77.64,1526.88,86.89Z"/><polygon class="cls-22" points="1540.55 100.28 1546.8 100.28 1546.8 215.7 1492.9 215.7 1492.9 100.28 1499.15 100.28 1540.55 100.28"/><rect class="cls-23" x="1504.4" y="100.92" width="6.22" height="64.68"/><rect class="cls-23" x="1516.58" y="100.92" width="6.22" height="64.68"/><rect class="cls-23" x="1528.75" y="100.92" width="6.22" height="64.68"/><rect class="cls-24" x="1492.9" y="173.25" width="53.9" height="42.44"/><polygon class="cls-25" points="1529.56 130.14 1534.97 130.14 1534.97 130.08 1534.97 111.75 1534.97 110.74 1528.75 110.74 1528.75 130.08 1529.56 130.08 1529.56 130.14"/><polygon class="cls-25" points="1529.56 156.31 1534.97 156.31 1534.97 156.26 1534.97 137.93 1534.97 136.91 1528.75 136.91 1528.75 156.26 1529.56 156.26 1529.56 156.31"/><polygon class="cls-25" points="1517.39 130.14 1522.79 130.14 1522.79 130.08 1522.79 111.75 1522.79 110.74 1516.58 110.74 1516.58 130.08 1517.39 130.08 1517.39 130.14"/><polygon class="cls-25" points="1517.39 156.31 1522.8 156.31 1522.8 156.26 1522.8 137.93 1522.8 136.91 1516.58 136.91 1516.58 156.26 1517.39 156.26 1517.39 156.31"/><polygon class="cls-25" points="1505.21 130.14 1510.62 130.14 1510.62 130.08 1510.62 111.75 1510.62 110.74 1504.4 110.74 1504.4 130.08 1505.21 130.08 1505.21 130.14"/><polygon class="cls-25" points="1505.22 156.31 1510.62 156.31 1510.62 156.26 1510.62 137.93 1510.62 136.91 1504.4 136.91 1504.4 156.26 1505.22 156.26 1505.22 156.31"/><rect class="cls-25" x="1497.97" y="180.27" width="43.8" height="35.43"/><rect class="cls-26" x="1491.62" y="173.25" width="57.02" height="6.87"/><rect class="cls-27" x="1491.18" y="93.41" width="57.02" height="6.87"/><rect class="cls-20" x="1488.55" y="91.05" width="61.8" height="2.36"/><rect class="cls-20" x="1492.9" y="166.24" width="53.9" height="7.02"/><rect class="cls-28" x="1493.61" y="167.08" width="52.46" height="2.28"/><line class="cls-29" x1="1498.61" y1="192.25" x2="1541.55" y2="192.25"/><line class="cls-29" x1="1506.94" y1="180.27" x2="1506.94" y2="215.44"/><line class="cls-29" x1="1533.14" y1="180.27" x2="1533.14" y2="215.44"/><line class="cls-29" x1="1519.84" y1="180.27" x2="1519.84" y2="215.44"/><g class="cls-15"><polygon class="cls-16" points="1536.3 181.75 1536.3 180.91 1532.74 180.91 1500.13 215.44 1504.47 215.44 1536.3 181.75"/><polygon class="cls-16" points="1498.27 202.58 1498.27 212.5 1528.1 180.91 1518.74 180.91 1498.27 202.58"/></g><path class="cls-30" d="M526.17,196.88c-9.95,3.82-12.49.56-16.33-3a10.4,10.4,0,0,1-7.39,5c-9.11,1.17-21.8-21.45-5.44-29-2.65-13.64,20-15.8,25.9-10.51,1.07,1,4.54,4.38,3.83,5.83-.41.83,4.82-1.39,8.25,11.39C537.59,187.71,529.18,195.72,526.17,196.88Z"/><path class="cls-31" d="M526.17,196.88c-9.95,3.82-12.49.56-16.33-3a10.4,10.4,0,0,1-7.39,5c-7,.89-16-12.12-12.58-21.67.15,11,18,18.36,20.22,9,1.58,8.28,19,5.85,17.05-2.25,3.82.05,6.53-3.41,7.85-7.38.08.36.18.73.27,1.11C537.41,186.53,529.87,195.45,526.17,196.88Z"/><path class="cls-7" d="M526.17,196.88c-9.95,3.82-12.49.56-16.33-3a10.4,10.4,0,0,1-7.39,5c-9.11,1.17-21.8-21.45-5.44-29-2.65-13.64,20-15.8,25.9-10.51,1.07,1,4.54,4.38,3.83,5.83-.41.83,4.82-1.39,8.25,11.39C537.59,187.71,529.18,195.72,526.17,196.88Z"/><path class="cls-32" d="M510.32,164.64a2.83,2.83,0,0,0-.65.67,3.2,3.2,0,0,0-.62,1.68,4.59,4.59,0,0,0,.17,1.47,1.39,1.39,0,0,0,.6.85c.28.15.69,0,1.05-.41a3.2,3.2,0,0,0,.57-1.85,2.84,2.84,0,0,0-.58-1.7A8.66,8.66,0,0,0,510.32,164.64Z"/><path class="cls-32" d="M506.62,165a3.21,3.21,0,0,0-.36,2.26c.35,1.08,1.06,1.81,1.6,1.63s.7-1.19.35-2.27A3.13,3.13,0,0,0,506.62,165Z"/><path class="cls-32" d="M502.84,167a3.48,3.48,0,0,0,0,.82,2.69,2.69,0,0,0,.68,1.46c.8.8,1.63,1.15,2.15.83s.24-1.46-.63-2.33a2.7,2.7,0,0,0-1.42-.68A5.36,5.36,0,0,0,502.84,167Z"/><path class="cls-32" d="M501.43,170.75a2.68,2.68,0,0,0,1.33,1.33c.83.35,1.67.3,1.87-.14s-.35-1.08-1.26-1.46A2.62,2.62,0,0,0,501.43,170.75Z"/><path class="cls-32" d="M514.23,168.17a1.76,1.76,0,0,0-1.2.26c-.47.32-.73.79-.58,1.06s.7.2,1.25-.17A1.72,1.72,0,0,0,514.23,168.17Z"/><path class="cls-32" d="M524.47,179.16a1.8,1.8,0,0,0-.55.24,2,2,0,0,0-.78.83,2.84,2.84,0,0,0-.26.91.89.89,0,0,0,.14.65c.13.16.4.19.72,0a2,2,0,0,0,.79-.95,1.79,1.79,0,0,0,.08-1.15A4.85,4.85,0,0,0,524.47,179.16Z"/><path class="cls-32" d="M519.5,178.68a1.92,1.92,0,0,0-.19.49,1.74,1.74,0,0,0,0,1c.27.67.67,1.08,1.06,1s.5-.8.2-1.53a1.75,1.75,0,0,0-.66-.75A4,4,0,0,0,519.5,178.68Z"/><path class="cls-32" d="M517.73,180.55a1.74,1.74,0,0,0,.45,1.12c.4.41.91.59,1.14.38s.06-.72-.38-1.18A1.69,1.69,0,0,0,517.73,180.55Z"/><path class="cls-32" d="M525.9,182.21a1.14,1.14,0,0,0-.77-.15c-.36.07-.63.29-.61.48s.37.3.78.21A1.07,1.07,0,0,0,525.9,182.21Z"/><path class="cls-14" d="M504.39,193.49s6.51,1.26,6.51,11.18.35,10.15.35,10.15a4.85,4.85,0,0,1-2.56,2.31c-1.14.4-.55.26,3.59.26,3.07,0,4.28.27,3.52-.13-1-.51-2.06-1.24-2.11-2.31-.23-4.35-1.43-11.65-.06-16.09s7.41-6,6.84-6.5-6.52,3.76-6.85,3.63,1.93-7.24,2.44-8.78-.83-.58-1.28.51-2.25,7.69-2.76,8-2.15-9.81-2.95-10.14-.72.24-.7,1.16,3,8.34,2.18,8.68-4-2.25-5.39-2.59S504.39,193.49,504.39,193.49Z"/><path class="cls-30" d="M1723,196.88c-10,3.82-12.49.56-16.33-3a10.43,10.43,0,0,1-7.39,5c-9.11,1.17-21.8-21.45-5.44-29-2.65-13.64,20-15.8,25.9-10.51,1.07,1,4.54,4.38,3.83,5.83-.41.83,4.82-1.39,8.25,11.39C1734.46,187.71,1726.05,195.72,1723,196.88Z"/><path class="cls-31" d="M1723,196.88c-10,3.82-12.49.56-16.33-3a10.43,10.43,0,0,1-7.39,5c-7,.89-16-12.12-12.58-21.67.15,11,18,18.36,20.22,9,1.58,8.28,19,5.85,17-2.25,3.82.05,6.53-3.41,7.85-7.38.08.36.18.73.27,1.11C1734.28,186.53,1726.74,195.45,1723,196.88Z"/><path class="cls-7" d="M1723,196.88c-10,3.82-12.49.56-16.33-3a10.43,10.43,0,0,1-7.39,5c-9.11,1.17-21.8-21.45-5.44-29-2.65-13.64,20-15.8,25.9-10.51,1.07,1,4.54,4.38,3.83,5.83-.41.83,4.82-1.39,8.25,11.39C1734.46,187.71,1726.05,195.72,1723,196.88Z"/><path class="cls-32" d="M1707.19,164.64a2.83,2.83,0,0,0-.65.67,3.2,3.2,0,0,0-.62,1.68,4.59,4.59,0,0,0,.17,1.47,1.39,1.39,0,0,0,.6.85c.28.15.69,0,1-.41a3.13,3.13,0,0,0,.58-1.85,2.84,2.84,0,0,0-.58-1.7A8.66,8.66,0,0,0,1707.19,164.64Z"/><path class="cls-32" d="M1703.49,165a3.21,3.21,0,0,0-.36,2.26c.35,1.08,1.06,1.81,1.6,1.63s.7-1.19.35-2.27A3.13,3.13,0,0,0,1703.49,165Z"/><path class="cls-32" d="M1699.71,167a3.48,3.48,0,0,0,0,.82,2.69,2.69,0,0,0,.68,1.46c.8.8,1.63,1.15,2.15.83s.24-1.46-.63-2.33a2.7,2.7,0,0,0-1.42-.68A5.36,5.36,0,0,0,1699.71,167Z"/><path class="cls-32" d="M1698.3,170.75a2.68,2.68,0,0,0,1.33,1.33c.83.35,1.67.3,1.87-.14s-.35-1.08-1.26-1.46A2.61,2.61,0,0,0,1698.3,170.75Z"/><path class="cls-32" d="M1711.1,168.17a1.76,1.76,0,0,0-1.2.26c-.47.32-.73.79-.58,1.06s.7.2,1.25-.17A1.72,1.72,0,0,0,1711.1,168.17Z"/><path class="cls-32" d="M1721.34,179.16a1.8,1.8,0,0,0-.55.24,2,2,0,0,0-.78.83,2.84,2.84,0,0,0-.26.91.89.89,0,0,0,.14.65c.13.16.4.19.72,0a2,2,0,0,0,.79-.95,1.79,1.79,0,0,0,.08-1.15A4.85,4.85,0,0,0,1721.34,179.16Z"/><path class="cls-32" d="M1716.37,178.68a1.92,1.92,0,0,0-.19.49,1.74,1.74,0,0,0,0,1c.27.67.67,1.08,1.06,1s.5-.8.2-1.53a1.75,1.75,0,0,0-.66-.75A4,4,0,0,0,1716.37,178.68Z"/><path class="cls-32" d="M1714.6,180.55a1.74,1.74,0,0,0,.45,1.12c.4.41.91.59,1.14.38s.06-.72-.38-1.18A1.69,1.69,0,0,0,1714.6,180.55Z"/><path class="cls-32" d="M1722.77,182.21a1.14,1.14,0,0,0-.77-.15c-.36.07-.63.29-.61.48s.37.3.78.21A1.07,1.07,0,0,0,1722.77,182.21Z"/><path class="cls-14" d="M1701.26,193.49s6.51,1.26,6.51,11.18.35,10.15.35,10.15a4.85,4.85,0,0,1-2.57,2.31c-1.13.4-.54.26,3.6.26,3.07,0,4.28.27,3.52-.13-1-.51-2.06-1.24-2.11-2.31-.23-4.35-1.43-11.65-.06-16.09s7.41-6,6.84-6.5-6.52,3.76-6.85,3.63,1.93-7.24,2.44-8.78-.83-.58-1.28.51-2.25,7.69-2.76,8-2.15-9.81-3-10.14-.72.24-.71,1.16,3,8.34,2.19,8.68-4-2.25-5.39-2.59S1701.26,193.49,1701.26,193.49Z"/><path class="cls-33" d="M1741.86,217.24s.63-4.76-3.33-4.44a2.37,2.37,0,0,0-2.69-2.38s-.95-3.49-3.49-3.17c0,0-1.43-3.64-3.81-3,0,0-3.17-2.53-5.86-.07,0,0-4.6-.88-5.08,2.61,0,0-3.17-1.75-4.12,1.58,0,0-3.33-1.78-4.59,1.81a2.94,2.94,0,0,0-3.65,0s-1.27-2.76-3.81-1.81c0,0-3.49-4.28-5.23.48,0,0-4-.8-4.28,2.69,0,0-4.28-.63-3.8,3.17,0,0-4.44-1.42-3,2.54Z"/><path class="cls-34" d="M1690,214.31a2.67,2.67,0,0,1,3.33-1.42c-.48-2.86,3.33-2.7,3.33-2.7,1.11-3.33,3.8.32,3.8.32,2.22-.95,2.86,1.56,2.86,1.56,2.53-1,3.64,2.56,3.64,2.56.48-2.54,4.12-.95,4.12-.95.64-3.81,4.13-1.61,4.13-1.61-.64-3.36,3.17-2.61,3.17-2.61.15-4.06,5.55-2.44,5.55-2.44,2.85-1.43,4.44,1.75,4.44,1.75,3.48-.8,4.12,1.9,4.12,1.9,2.85-.95,3.8,2.22,3.8,2.22,3.36-.58,4.35,2.13,4.64,3.64h-53.47C1687.64,214.63,1690,214.31,1690,214.31Z"/><path class="cls-30" d="M221.39,181.26c.89.35,2.06,1.32,1.9,4-.38,6.39-5.06,10.1-13.15,10.72a10.12,10.12,0,0,1-5.29-1.58,12.06,12.06,0,0,1-8.51,1.3c-7.26-1.65-11.85-5.62-12.49-13.24-.36-4.06,3.36-6.46,3.36-6.46s-3.43-3.56-2.42-7.79,6.67-10,13.54-8.47c8.5-8.32,32.47,1.13,25.73,18.53C223.39,180.09,221.13,181.16,221.39,181.26Z"/><path class="cls-31" d="M221.39,181.26c.89.35,2.06,1.32,1.9,4-.38,6.39-5.06,10.1-13.15,10.72a10.12,10.12,0,0,1-5.29-1.58,12.06,12.06,0,0,1-8.51,1.3c-6.51-1.48-10.63-4.74-12-10.49,2.93,3.95,7.92,6.62,9.9,2.11,1.17,6.54,18.39,5.83,17.79-.4,3.56,1.45,8-3,4.6-5.9,4.43,0,7.3-6.26,8.19-12a15,15,0,0,1-.73,9.21C223.39,180.09,221.13,181.16,221.39,181.26Z"/><path class="cls-7" d="M221.39,181.26c.89.35,2.06,1.32,1.9,4-.38,6.39-5.06,10.1-13.15,10.72a10.12,10.12,0,0,1-5.29-1.58,12.06,12.06,0,0,1-8.51,1.3c-7.26-1.65-11.85-5.62-12.49-13.24-.36-4.06,3.36-6.46,3.36-6.46s-3.43-3.56-2.42-7.79,6.67-10,13.54-8.47c8.5-8.32,32.47,1.13,25.73,18.53C223.39,180.09,221.13,181.16,221.39,181.26Z"/><path class="cls-14" d="M198.24,190.12S204,191.23,204,200s.31,8.93.31,8.93a4.26,4.26,0,0,1-2.26,2c-1,.35-.48.22,3.17.22,2.71,0,3.77.24,3.1-.11-.84-.45-1.81-1.09-1.86-2-.2-3.83-1.25-10.25-.05-14.17s6.52-5.24,6-5.72-5.74,3.31-6,3.2,1.7-6.38,2.15-7.73-.73-.51-1.13.45-2,6.77-2.43,7.06-1.89-8.64-2.6-8.93-.63.21-.62,1,2.68,7.34,1.93,7.64-3.55-2-4.75-2.28S198.24,190.12,198.24,190.12Z"/><path class="cls-32" d="M205.62,165a2.83,2.83,0,0,1,1.08,2,3.68,3.68,0,0,1-.15,1.25,1.2,1.2,0,0,1-.5.73c-.25.13-.6,0-.9-.35a2.7,2.7,0,0,1-.49-1.58,2.47,2.47,0,0,1,.49-1.46A6,6,0,0,1,205.62,165Z"/><path class="cls-32" d="M208.78,165.26a2.7,2.7,0,0,1,.3,1.93c-.29.92-.9,1.55-1.36,1.4s-.6-1-.3-1.94A2.67,2.67,0,0,1,208.78,165.26Z"/><path class="cls-32" d="M212,167a2.69,2.69,0,0,1,0,.69,2.21,2.21,0,0,1-.58,1.26c-.68.68-1.39,1-1.84.71s-.2-1.25.54-2a2.41,2.41,0,0,1,1.21-.58A3.81,3.81,0,0,1,212,167Z"/><path class="cls-32" d="M213.21,170.2a2.33,2.33,0,0,1-1.14,1.15c-.7.29-1.42.25-1.59-.12s.3-.93,1.08-1.26A2.24,2.24,0,0,1,213.21,170.2Z"/><path class="cls-32" d="M202.27,168a1.55,1.55,0,0,1,1,.22c.4.28.62.68.5.91s-.61.17-1.08-.15A1.49,1.49,0,0,1,202.27,168Z"/><path class="cls-32" d="M193.52,177.4a1.55,1.55,0,0,1,.47.2,1.77,1.77,0,0,1,.67.71,2.39,2.39,0,0,1,.22.78.72.72,0,0,1-.12.55c-.11.14-.34.16-.61,0a1.73,1.73,0,0,1-.68-.81,1.54,1.54,0,0,1-.07-1A3.51,3.51,0,0,1,193.52,177.4Z"/><path class="cls-32" d="M197.77,177a1.71,1.71,0,0,1,.16.41,1.4,1.4,0,0,1,0,.88c-.23.57-.58.93-.91.88s-.43-.69-.17-1.31a1.44,1.44,0,0,1,.57-.64A2.54,2.54,0,0,1,197.77,177Z"/><path class="cls-32" d="M199.28,178.59a1.51,1.51,0,0,1-.38.95c-.35.35-.78.5-1,.33s0-.62.33-1A1.42,1.42,0,0,1,199.28,178.59Z"/><path class="cls-32" d="M192.3,180a1,1,0,0,1,.66-.12c.31.06.53.24.52.41s-.31.25-.67.18A.94.94,0,0,1,192.3,180Z"/><path class="cls-33" d="M178.44,215.17s-.44-3.32,2.32-3.1a1.65,1.65,0,0,1,1.88-1.66s.66-2.43,2.43-2.21c0,0,1-2.54,2.65-2.1,0,0,2.21-1.76,4.09,0,0,0,3.21-.61,3.54,1.82,0,0,2.21-1.22,2.87,1.11a2.17,2.17,0,0,1,3.21,1.25,2.05,2.05,0,0,1,2.54,0s.89-1.92,2.65-1.25c0,0,2.44-3,3.65.33,0,0,2.76-.56,3,1.88,0,0,3-.45,2.65,2.21,0,0,3.09-1,2.1,1.77Z"/><path class="cls-34" d="M214.58,213.12a1.87,1.87,0,0,0-2.32-1c.33-2-2.32-1.88-2.32-1.88-.77-2.32-2.65.22-2.65.22-1.55-.66-2,1.09-2,1.09-1.77-.68-2.54,1.79-2.54,1.79-.34-1.77-2.88-.67-2.88-.67-.44-2.65-2.87-1.12-2.87-1.12.44-2.34-2.21-1.82-2.21-1.82-.11-2.83-3.87-1.7-3.87-1.7-2-1-3.1,1.22-3.1,1.22-2.43-.56-2.87,1.32-2.87,1.32-2-.66-2.65,1.55-2.65,1.55-2.34-.4-3,1.49-3.24,2.54h37.28C216.24,213.35,214.58,213.12,214.58,213.12Z"/><path class="cls-30" d="M799.05,184.07c1,.38,2.3,1.47,2.11,4.5-.42,7.12-5.63,11.25-14.65,12-2.82.22-5.89-1.77-5.89-1.77a13.42,13.42,0,0,1-9.49,1.45c-8.08-1.84-13.2-6.26-13.92-14.76-.4-4.51,3.75-7.19,3.75-7.19s-3.82-4-2.7-8.69,7.44-11.16,15.09-9.43c9.47-9.27,36.18,1.26,28.68,20.65C801.27,182.76,798.76,184,799.05,184.07Z"/><path class="cls-31" d="M799.05,184.07c1,.38,2.3,1.47,2.11,4.5-.42,7.12-5.63,11.25-14.65,12-2.82.22-5.89-1.77-5.89-1.77a13.42,13.42,0,0,1-9.49,1.45c-7.25-1.65-11.84-5.28-13.4-11.69,3.27,4.41,8.83,7.38,11,2.35,1.31,7.29,20.49,6.5,19.83-.44,4,1.61,8.94-3.38,5.12-6.57,4.94,0,8.13-7,9.12-13.33a16.77,16.77,0,0,1-.8,10.26C801.27,182.76,798.76,184,799.05,184.07Z"/><path class="cls-7" d="M799.05,184.07c1,.38,2.3,1.47,2.11,4.5-.42,7.12-5.63,11.25-14.65,12-2.82.22-5.89-1.77-5.89-1.77a13.42,13.42,0,0,1-9.49,1.45c-8.08-1.84-13.2-6.26-13.92-14.76-.4-4.51,3.75-7.19,3.75-7.19s-3.82-4-2.7-8.69,7.44-11.16,15.09-9.43c9.47-9.27,36.18,1.26,28.68,20.65C801.27,182.76,798.76,184,799.05,184.07Z"/><path class="cls-14" d="M773.25,193.94s6.39,1.24,6.39,11,.35,10,.35,10a4.79,4.79,0,0,1-2.52,2.27c-1.12.39-.54.25,3.52.25,3,0,4.2.27,3.46-.13-.94-.5-2-1.22-2.07-2.26-.22-4.28-1.4-11.43,0-15.8s7.26-5.85,6.71-6.37-6.4,3.69-6.72,3.56,1.88-7.11,2.39-8.62-.82-.56-1.26.51-2.2,7.55-2.71,7.86-2.11-9.62-2.89-9.94-.71.23-.69,1.13,3,8.18,2.14,8.52-3.95-2.2-5.29-2.54S773.25,193.94,773.25,193.94Z"/><path class="cls-32" d="M781.48,165.94a2.7,2.7,0,0,1,.61.63,3.07,3.07,0,0,1,.59,1.6,4.2,4.2,0,0,1-.16,1.4,1.37,1.37,0,0,1-.57.81c-.27.15-.66,0-1-.39a3.09,3.09,0,0,1-.55-1.76,2.86,2.86,0,0,1,.55-1.63A7.24,7.24,0,0,1,781.48,165.94Z"/><path class="cls-32" d="M785,166.24a3,3,0,0,1,.33,2.15c-.32,1-1,1.72-1.52,1.55s-.66-1.13-.33-2.16A3,3,0,0,1,785,166.24Z"/><path class="cls-32" d="M788.59,168.15a3.14,3.14,0,0,1,0,.78,2.5,2.5,0,0,1-.64,1.39c-.76.76-1.56,1.1-2,.8s-.23-1.4.6-2.23a2.68,2.68,0,0,1,1.35-.65A5.58,5.58,0,0,1,788.59,168.15Z"/><path class="cls-32" d="M789.94,171.75a2.58,2.58,0,0,1-1.27,1.27c-.79.33-1.59.28-1.78-.13s.33-1,1.2-1.4A2.47,2.47,0,0,1,789.94,171.75Z"/><path class="cls-32" d="M777.75,169.29a1.69,1.69,0,0,1,1.14.25c.45.3.7.75.56,1s-.68.19-1.2-.16A1.62,1.62,0,0,1,777.75,169.29Z"/><path class="cls-32" d="M768,179.76a2,2,0,0,1,.52.22,2,2,0,0,1,.74.8,2.87,2.87,0,0,1,.25.87.83.83,0,0,1-.13.61c-.13.15-.38.18-.69,0a2,2,0,0,1-.76-.9,1.74,1.74,0,0,1-.07-1.09A4.45,4.45,0,0,1,768,179.76Z"/><path class="cls-32" d="M772.73,179.31a1.8,1.8,0,0,1,.18.46,1.58,1.58,0,0,1,0,1c-.26.63-.64,1-1,1s-.48-.76-.19-1.45a1.67,1.67,0,0,1,.63-.72A2.41,2.41,0,0,1,772.73,179.31Z"/><path class="cls-32" d="M774.41,181.09a1.64,1.64,0,0,1-.43,1.06c-.38.39-.86.56-1.08.36s-.06-.69.36-1.12A1.6,1.6,0,0,1,774.41,181.09Z"/><path class="cls-32" d="M766.63,182.66a1.09,1.09,0,0,1,.74-.14c.34.07.59.28.58.46s-.35.28-.75.2A1.09,1.09,0,0,1,766.63,182.66Z"/><path class="cls-30" d="M1334.83,184.07c1,.38,2.3,1.47,2.11,4.5-.42,7.12-5.63,11.25-14.65,12-2.82.22-5.89-1.77-5.89-1.77a13.42,13.42,0,0,1-9.49,1.45c-8.08-1.84-13.2-6.26-13.92-14.76-.4-4.51,3.75-7.19,3.75-7.19s-3.82-4-2.7-8.69,7.44-11.16,15.09-9.43c9.47-9.27,36.18,1.26,28.68,20.65C1337.05,182.76,1334.54,184,1334.83,184.07Z"/><path class="cls-31" d="M1334.83,184.07c1,.38,2.3,1.47,2.11,4.5-.42,7.12-5.63,11.25-14.65,12-2.82.22-5.89-1.77-5.89-1.77a13.42,13.42,0,0,1-9.49,1.45c-7.25-1.65-11.84-5.28-13.4-11.69,3.27,4.41,8.83,7.38,11,2.35,1.3,7.29,20.49,6.5,19.83-.44,4,1.61,8.94-3.38,5.12-6.57,4.94,0,8.13-7,9.12-13.33a16.77,16.77,0,0,1-.8,10.26C1337.05,182.76,1334.54,184,1334.83,184.07Z"/><path class="cls-7" d="M1334.83,184.07c1,.38,2.3,1.47,2.11,4.5-.42,7.12-5.63,11.25-14.65,12-2.82.22-5.89-1.77-5.89-1.77a13.42,13.42,0,0,1-9.49,1.45c-8.08-1.84-13.2-6.26-13.92-14.76-.4-4.51,3.75-7.19,3.75-7.19s-3.82-4-2.7-8.69,7.44-11.16,15.09-9.43c9.47-9.27,36.18,1.26,28.68,20.65C1337.05,182.76,1334.54,184,1334.83,184.07Z"/><path class="cls-14" d="M1309,193.94s6.39,1.24,6.39,11,.35,10,.35,10a4.79,4.79,0,0,1-2.52,2.27c-1.12.39-.54.25,3.52.25,3,0,4.2.27,3.46-.13-.94-.5-2-1.22-2.07-2.26-.22-4.28-1.4-11.43-.06-15.8s7.27-5.85,6.72-6.37-6.4,3.69-6.73,3.56,1.89-7.11,2.4-8.62-.82-.56-1.26.51-2.2,7.55-2.71,7.86-2.11-9.62-2.89-9.94-.71.23-.69,1.13,3,8.18,2.14,8.52-3.95-2.2-5.29-2.54S1309,193.94,1309,193.94Z"/><path class="cls-32" d="M1317.25,165.94a2.61,2.61,0,0,1,.62.63,3.07,3.07,0,0,1,.59,1.6,3.93,3.93,0,0,1-.17,1.4,1.32,1.32,0,0,1-.56.81c-.27.15-.66,0-1-.39a3,3,0,0,1-.55-1.76,2.86,2.86,0,0,1,.55-1.63C1317,166.22,1317.25,165.94,1317.25,165.94Z"/><path class="cls-32" d="M1320.78,166.24a3,3,0,0,1,.33,2.15c-.33,1-1,1.72-1.52,1.55s-.66-1.13-.33-2.16A3,3,0,0,1,1320.78,166.24Z"/><path class="cls-32" d="M1324.37,168.15a3.14,3.14,0,0,1,0,.78,2.5,2.5,0,0,1-.64,1.39c-.76.76-1.56,1.1-2,.8s-.23-1.4.6-2.23a2.68,2.68,0,0,1,1.35-.65A5.58,5.58,0,0,1,1324.37,168.15Z"/><path class="cls-32" d="M1325.72,171.75a2.58,2.58,0,0,1-1.27,1.27c-.79.33-1.59.28-1.78-.13s.33-1,1.2-1.4A2.47,2.47,0,0,1,1325.72,171.75Z"/><path class="cls-32" d="M1313.52,169.29a1.72,1.72,0,0,1,1.15.25c.45.3.69.75.56,1s-.68.19-1.2-.16A1.66,1.66,0,0,1,1313.52,169.29Z"/><path class="cls-32" d="M1303.78,179.76a2,2,0,0,1,.52.22,2,2,0,0,1,.74.8,2.87,2.87,0,0,1,.25.87.83.83,0,0,1-.13.61c-.13.15-.38.18-.69,0a2,2,0,0,1-.76-.9,1.74,1.74,0,0,1-.07-1.09A4.45,4.45,0,0,1,1303.78,179.76Z"/><path class="cls-32" d="M1308.51,179.31a1.8,1.8,0,0,1,.18.46,1.58,1.58,0,0,1,0,1c-.26.63-.64,1-1,1s-.48-.76-.19-1.45a1.67,1.67,0,0,1,.63-.72A2.41,2.41,0,0,1,1308.51,179.31Z"/><path class="cls-32" d="M1310.19,181.09a1.64,1.64,0,0,1-.43,1.06c-.38.39-.86.56-1.08.36s-.06-.69.36-1.12A1.6,1.6,0,0,1,1310.19,181.09Z"/><path class="cls-32" d="M1302.41,182.66a1.09,1.09,0,0,1,.74-.14c.34.07.59.28.58.46s-.35.28-.75.2A1.09,1.09,0,0,1,1302.41,182.66Z"/><path class="cls-35" d="M952.83,215.44a1.39,1.39,0,0,1-.59-1.71c.34-.78.7-.38,1.18,0-.35-1.46-.33-4,.58-5.12.78-1,2.32.17,2.84,1.15.41-.65.6-1.46,1.45-1.37.54.06.82.66,1.32.84-.35-1.45.41-4.07,1.68-4.57,1.53-.59,2.09,1.46,2.08,2.84.52-2.3,2-.27,2.5.74.34-.37.5-1,1.09-.85.38.12.68.82.76,1.25.21-1.6,1.93-3.95,3.39-3.43s1.38,2.27,1.4,3.71a1.39,1.39,0,0,1,2.33-.14,3.22,3.22,0,0,1,0,3c.71-.74,1.4-2.2,2.49-1.59,1.41.77.35,2.53.1,3.72.16-.71,2.22-.58,2.32.26s-1,1.29-1.61,1.35Z"/><path class="cls-36" d="M977.8,200c.47.19,1.08.69,1,2.11-.19,3.35-2.64,5.28-6.87,5.61a5.33,5.33,0,0,1-2.76-.83,6.32,6.32,0,0,1-4.45.68c-3.8-.86-6.19-2.94-6.53-6.92a4,4,0,0,1,1.75-3.38,4.87,4.87,0,0,1-1.26-4.07c.52-2.22,3.49-5.24,7.08-4.43,4.44-4.34,17,.59,13.45,9.69C978.85,199.41,977.67,200,977.8,200Z"/><path class="cls-37" d="M977.8,200c.47.19,1.08.69,1,2.11-.19,3.35-2.64,5.28-6.87,5.61a5.33,5.33,0,0,1-2.76-.83,6.32,6.32,0,0,1-4.45.68c-3.41-.77-5.56-2.48-6.29-5.48,1.53,2.07,4.14,3.46,5.17,1.1.62,3.42,9.62,3,9.31-.21,1.86.76,4.19-1.58,2.4-3.08,2.31,0,3.81-3.27,4.28-6.25a7.87,7.87,0,0,1-.38,4.81C978.85,199.41,977.67,200,977.8,200Z"/><path class="cls-38" d="M977.8,200c.47.19,1.08.69,1,2.11-.19,3.35-2.64,5.28-6.87,5.61a5.33,5.33,0,0,1-2.76-.83,6.32,6.32,0,0,1-4.45.68c-3.8-.86-6.19-2.94-6.53-6.92a4,4,0,0,1,1.75-3.38,4.87,4.87,0,0,1-1.26-4.07c.52-2.22,3.49-5.24,7.08-4.43,4.44-4.34,17,.59,13.45,9.69C978.85,199.41,977.67,200,977.8,200Z"/><path class="cls-14" d="M965.7,204.66s3,.58,3,5.14.16,4.67.16,4.67a2.23,2.23,0,0,1-1.18,1.07c-.52.18-.25.11,1.65.11,1.42,0,2,.13,1.63-.05s-1-.58-1-1.07c-.1-2-.65-5.36,0-7.4s3.41-2.75,3.15-3-3,1.74-3.16,1.68a30,30,0,0,1,1.12-4.05c.24-.71-.38-.26-.59.24a33.36,33.36,0,0,1-1.27,3.69c-.23.15-1-4.52-1.35-4.67s-.33.11-.33.54,1.4,3.83,1,4-1.85-1-2.48-1.19S965.7,204.66,965.7,204.66Z"/><path class="cls-39" d="M969.56,191.52a1.5,1.5,0,0,1,.29.3,1.33,1.33,0,0,1,.27.75,2,2,0,0,1-.07.65.65.65,0,0,1-.27.38c-.13.07-.31,0-.47-.18a1.49,1.49,0,0,1-.26-.83,1.43,1.43,0,0,1,.26-.76A3.7,3.7,0,0,1,969.56,191.52Z"/><path class="cls-39" d="M971.21,191.66a1.44,1.44,0,0,1,.16,1c-.16.48-.47.81-.71.73s-.32-.53-.16-1A1.41,1.41,0,0,1,971.21,191.66Z"/><path class="cls-39" d="M972.9,192.56a1.24,1.24,0,0,1,0,.36,1.14,1.14,0,0,1-.3.66c-.36.35-.73.51-1,.37s-.11-.65.28-1a1.23,1.23,0,0,1,.64-.31A2,2,0,0,1,972.9,192.56Z"/><path class="cls-39" d="M973.53,194.24a1.22,1.22,0,0,1-.6.6c-.37.16-.74.13-.83-.06s.16-.49.56-.66A1.19,1.19,0,0,1,973.53,194.24Z"/><path class="cls-39" d="M967.81,193.09a.75.75,0,0,1,.53.12c.22.14.33.35.27.47s-.32.09-.57-.07A.78.78,0,0,1,967.81,193.09Z"/><path class="cls-39" d="M963.24,198a.93.93,0,0,1,.59.47,1.09,1.09,0,0,1,.11.41.41.41,0,0,1-.06.29c-.06.07-.17.08-.32,0a.9.9,0,0,1-.35-.43.77.77,0,0,1,0-.51A1.64,1.64,0,0,1,963.24,198Z"/><path class="cls-39" d="M965.46,197.79a.93.93,0,0,1,.08.22.73.73,0,0,1,0,.46c-.12.3-.3.48-.47.46s-.23-.36-.09-.69a.79.79,0,0,1,.29-.33A1.08,1.08,0,0,1,965.46,197.79Z"/><path class="cls-39" d="M966.25,198.63a.77.77,0,0,1-.21.5c-.18.18-.4.26-.5.17s0-.33.17-.53A.73.73,0,0,1,966.25,198.63Z"/><path class="cls-39" d="M962.6,199.37a.46.46,0,0,1,.34-.07c.16,0,.28.13.27.22s-.16.13-.35.09A.49.49,0,0,1,962.6,199.37Z"/><path class="cls-40" d="M1120,214.27a2.18,2.18,0,0,0,.92-2.66c-.53-1.22-1.09-.59-1.85-.07.55-2.26.52-6.16-.9-8-1.21-1.53-3.61.26-4.42,1.8-.63-1-.93-2.29-2.26-2.14-.82.09-1.27,1-2,1.3.54-2.26-.65-6.33-2.61-7.1-2.39-.92-3.25,2.26-3.25,4.41-.8-3.58-3-.43-3.88,1.15-.53-.57-.78-1.6-1.69-1.31-.6.18-1.07,1.26-1.19,1.93-.33-2.49-3-6.14-5.28-5.33s-2.14,3.54-2.18,5.77c-.62-1.54-2.8-1.3-3.63-.22a5,5,0,0,0,0,4.61c-1.12-1.15-2.18-3.42-3.88-2.48-2.2,1.21-.55,3.94-.15,5.8-.25-1.11-3.46-.91-3.62.4-.14,1.14,1.64,2,2.51,2.1Z"/><rect class="cls-14" x="1103.07" y="206.69" width="2.34" height="7.66"/><rect class="cls-14" x="1098.31" y="206.69" width="2.34" height="7.66"/><rect class="cls-14" x="1093.02" y="206.69" width="2.34" height="7.66"/><rect class="cls-14" x="1088.27" y="206.69" width="2.33" height="7.66"/><rect class="cls-14" x="1083.47" y="206.69" width="2.34" height="7.66"/><rect class="cls-14" x="1078.14" y="206.69" width="2.34" height="7.66"/><rect class="cls-14" x="1078.14" y="208.35" width="27.27" height="0.72"/><path class="cls-14" d="M1102.8,205.25a1.45,1.45,0,0,0,2.89,0,1.45,1.45,0,1,0-2.89,0Z"/><path class="cls-14" d="M1098,205.25a1.45,1.45,0,0,0,2.89,0,1.45,1.45,0,1,0-2.89,0Z"/><path class="cls-14" d="M1092.74,205.25a1.45,1.45,0,0,0,2.89,0,1.45,1.45,0,1,0-2.89,0Z"/><path class="cls-14" d="M1088,205.25a1.45,1.45,0,0,0,2.89,0,1.45,1.45,0,1,0-2.89,0Z"/><path class="cls-14" d="M1083.19,205.25a1.45,1.45,0,1,0,1.45-1.45A1.44,1.44,0,0,0,1083.19,205.25Z"/><path class="cls-14" d="M1077.86,205.25a1.45,1.45,0,1,0,1.45-1.45A1.44,1.44,0,0,0,1077.86,205.25Z"/><polygon class="cls-41" points="1040.87 160.02 1040.87 152.6 1028.37 152.6 1028.37 140.58 1026.79 140.58 1026.79 152.6 1014.58 152.6 1014.58 160.02 974.74 160.02 974.74 169.46 977.88 169.46 977.88 215.21 1077.71 215.21 1077.71 169.46 1080.71 169.46 1080.71 160.02 1040.87 160.02"/><rect class="cls-42" x="1026.79" y="140.58" width="11.07" height="7.49"/><rect class="cls-43" x="1017.59" y="187.73" width="20.38" height="27.48"/><rect class="cls-44" x="974.74" y="160.02" width="105.97" height="9.44"/><rect class="cls-45" x="1014.58" y="152.6" width="26.86" height="7.42"/><polyline class="cls-43" points="1017.59 187.73 1022.5 193.06 1033.61 193.06 1037.86 187.73"/><line class="cls-43" x1="1022.53" y1="193.06" x2="1022.53" y2="215.21"/><rect class="cls-46" x="1022.5" y="193.06" width="11.11" height="22.15"/><rect class="cls-23" x="989.18" y="178.3" width="6.08" height="6.07"/><rect class="cls-23" x="989.18" y="189.44" width="6.08" height="6.07"/><rect class="cls-23" x="989.18" y="200.57" width="6.08" height="6.07"/><rect class="cls-23" x="1003.38" y="178.3" width="6.07" height="6.07"/><rect class="cls-23" x="1003.38" y="189.44" width="6.07" height="6.07"/><rect class="cls-23" x="1003.38" y="200.57" width="6.07" height="6.07"/><rect class="cls-23" x="1045.99" y="178.3" width="6.07" height="6.07"/><rect class="cls-23" x="1045.99" y="189.44" width="6.07" height="6.07"/><rect class="cls-23" x="1045.99" y="200.57" width="6.07" height="6.07"/><rect class="cls-23" x="1017.59" y="178.3" width="6.07" height="6.07"/><rect class="cls-23" x="1031.79" y="178.3" width="6.07" height="6.07"/><rect class="cls-23" x="1060.19" y="178.3" width="6.07" height="6.07"/><rect class="cls-23" x="1060.19" y="189.44" width="6.07" height="6.07"/><rect class="cls-23" x="1060.19" y="200.57" width="6.07" height="6.07"/><rect class="cls-47" x="989.18" y="176.6" width="6.08" height="6.07"/><rect class="cls-47" x="989.18" y="187.73" width="6.08" height="6.07"/><rect class="cls-47" x="989.18" y="198.87" width="6.08" height="6.07"/><rect class="cls-47" x="1003.38" y="176.6" width="6.07" height="6.07"/><rect class="cls-47" x="1003.38" y="187.73" width="6.07" height="6.07"/><rect class="cls-47" x="1003.38" y="198.87" width="6.07" height="6.07"/><rect class="cls-47" x="1045.99" y="176.6" width="6.07" height="6.07"/><rect class="cls-47" x="1045.99" y="187.73" width="6.07" height="6.07"/><rect class="cls-47" x="1045.99" y="198.87" width="6.07" height="6.07"/><rect class="cls-47" x="1017.59" y="176.6" width="6.07" height="6.07"/><rect class="cls-47" x="1031.79" y="176.6" width="6.07" height="6.07"/><rect class="cls-47" x="1060.19" y="176.6" width="6.07" height="6.07"/><rect class="cls-47" x="1060.19" y="187.73" width="6.07" height="6.07"/><rect class="cls-47" x="1060.19" y="198.87" width="6.07" height="6.07"/><rect class="cls-48" x="975.43" y="160.84" width="104.55" height="3.9"/><rect class="cls-14" x="1026.79" y="140.58" width="1.58" height="12.02"/><path class="cls-40" d="M1109.44,199.35c-7.27,2.8-9.14.41-11.94-2.18a7.63,7.63,0,0,1-5.41,3.63c-6.66.85-15.94-15.69-4-21.19-1.94-10,14.61-11.56,18.94-7.69.79.71,3.33,3.21,2.81,4.27-.3.6,3.52-1,6,8.33C1117.79,192.65,1111.64,198.5,1109.44,199.35Z"/><path class="cls-31" d="M1109.44,199.35c-7.27,2.8-9.14.41-11.94-2.18a7.63,7.63,0,0,1-5.41,3.63c-5.1.65-11.73-8.87-9.2-15.85.11,8,13.14,13.43,14.79,6.61,1.16,6.06,13.89,4.28,12.47-1.65,2.8,0,4.78-2.49,5.74-5.39.06.26.13.53.2.81C1117.66,191.78,1112.15,198.31,1109.44,199.35Z"/><path class="cls-38" d="M1109.44,199.35c-7.27,2.8-9.14.41-11.94-2.18a7.63,7.63,0,0,1-5.41,3.63c-6.66.85-15.94-15.69-4-21.19-1.94-10,14.61-11.56,18.94-7.69.79.71,3.33,3.21,2.81,4.27-.3.6,3.52-1,6,8.33C1117.79,192.65,1111.64,198.5,1109.44,199.35Z"/><path class="cls-32" d="M1097.84,175.77a2.24,2.24,0,0,0-.47.49,2.32,2.32,0,0,0-.45,1.23,3,3,0,0,0,.13,1.08,1,1,0,0,0,.43.62c.21.11.51,0,.77-.3a2.39,2.39,0,0,0,.42-1.36,2.12,2.12,0,0,0-.43-1.24A4.89,4.89,0,0,0,1097.84,175.77Z"/><path class="cls-32" d="M1095.14,176a2.35,2.35,0,0,0-.26,1.66c.25.79.77,1.32,1.17,1.19s.51-.87.26-1.66A2.33,2.33,0,0,0,1095.14,176Z"/><path class="cls-32" d="M1092.38,177.48a2.46,2.46,0,0,0,0,.59,1.92,1.92,0,0,0,.5,1.07c.58.58,1.19.84,1.57.61s.18-1.07-.46-1.71a2.13,2.13,0,0,0-1-.5A3.67,3.67,0,0,0,1092.38,177.48Z"/><path class="cls-32" d="M1091.35,180.24a2,2,0,0,0,1,1c.61.25,1.22.21,1.37-.11s-.26-.79-.93-1.07A1.86,1.86,0,0,0,1091.35,180.24Z"/><path class="cls-32" d="M1100.71,178.35a1.3,1.3,0,0,0-.88.19c-.35.23-.53.58-.43.78s.52.15.92-.13A1.24,1.24,0,0,0,1100.71,178.35Z"/><path class="cls-32" d="M1108.2,186.39a1.53,1.53,0,0,0-.4.17,1.43,1.43,0,0,0-.57.62,1.82,1.82,0,0,0-.19.66.62.62,0,0,0,.1.47c.09.12.29.14.52,0a1.59,1.59,0,0,0,.59-.7,1.37,1.37,0,0,0,0-.84A3.26,3.26,0,0,0,1108.2,186.39Z"/><path class="cls-32" d="M1104.56,186a1.69,1.69,0,0,0-.14.36,1.29,1.29,0,0,0,0,.75c.2.49.5.79.78.75s.36-.59.15-1.12a1.33,1.33,0,0,0-.49-.55A2.8,2.8,0,0,0,1104.56,186Z"/><path class="cls-32" d="M1103.27,187.41a1.24,1.24,0,0,0,.33.82c.29.3.66.43.83.28s0-.54-.28-.87A1.2,1.2,0,0,0,1103.27,187.41Z"/><path class="cls-32" d="M1109.24,188.62a.85.85,0,0,0-.56-.11c-.26.05-.46.21-.45.35s.27.22.58.16A.76.76,0,0,0,1109.24,188.62Z"/><path class="cls-14" d="M1093.51,196.87s4.76.93,4.76,8.18.26,7.42.26,7.42a3.54,3.54,0,0,1-1.88,1.69c-.83.3-.4.19,2.63.19,2.25,0,3.13.2,2.58-.09s-1.51-.91-1.55-1.69c-.16-3.19-1-8.52,0-11.77s5.42-4.36,5-4.75-4.76,2.75-5,2.65,1.41-5.3,1.79-6.42-.61-.42-.94.37-1.64,5.63-2,5.87-1.57-7.18-2.16-7.42-.52.18-.51.85,2.22,6.1,1.6,6.35-3-1.65-4-1.9S1093.51,196.87,1093.51,196.87Z"/></g></g></g></svg>