<svg viewBox="0 0 768.5 190.13" xmlns="http://www.w3.org/2000/svg"><path d="m0 168.70h770.30v18.32h-770.41z" fill="#a4aaab"/><path d="m56.4 157.36c-8.41 3.23-10.57.48-13.81-2.52a8.82 8.82 0 0 1 -6.25 4.2c-7.7 1-18.42-18.13-4.6-24.49-2.24-11.55 16.89-13.36 21.89-8.89.91.83 3.85 3.71 3.25 4.93-.35.7 4.07-1.17 7 9.63 2.12 9.39-4.95 16.16-7.48 17.14z" fill="#7bb52d" stroke="#4d3224" stroke-miterlimit="10"/><path d="m56.4 157.36c-8.41 3.23-10.57.48-13.81-2.52a8.82 8.82 0 0 1 -6.25 4.2c-5.89.75-13.55-10.25-10.64-18.33.13 9.28 15.19 15.53 17.1 7.65 1.34 7 16.05 4.94 14.41-1.91 3.23.05 5.53-2.87 6.64-6.23.07.3.15.62.23.94 1.81 7.46-4.56 15-7.68 16.2z" fill="#72a72a"/><path d="m56.4 157.36c-8.41 3.23-10.57.48-13.81-2.52a8.82 8.82 0 0 1 -6.25 4.2c-7.7 1-18.42-18.13-4.6-24.49-2.24-11.55 16.89-13.36 21.89-8.89.91.83 3.85 3.71 3.25 4.93-.35.7 4.07-1.17 7 9.63 2.12 9.39-4.95 16.16-7.48 17.14z" fill="none" stroke="#4d3224" stroke-linecap="round" stroke-linejoin="round"/><path d="m43 130.11a2.71 2.71 0 0 0 -.55.57 2.8 2.8 0 0 0 -.52 1.42 3.62 3.62 0 0 0 .15 1.24 1.2 1.2 0 0 0 .5.72c.24.13.58 0 .88-.35a2.61 2.61 0 0 0 .49-1.56 2.41 2.41 0 0 0 -.49-1.44 7 7 0 0 0 -.46-.6z" fill="#8acc2b"/><path d="m39.86 130.38a2.67 2.67 0 0 0 -.29 1.91c.29.91.89 1.53 1.34 1.38s.59-1 .3-1.92a2.68 2.68 0 0 0 -1.35-1.37z" fill="#8acc2b"/><path d="m36.67 132.08a3 3 0 0 0 0 .69 2.2 2.2 0 0 0 .57 1.24c.68.67 1.38 1 1.82.7s.2-1.23-.54-2a2.32 2.32 0 0 0 -1.19-.58 3.73 3.73 0 0 0 -.66-.05z" fill="#8acc2b"/><path d="m35.48 135.27a2.29 2.29 0 0 0 1.13 1.13c.69.3 1.4.25 1.58-.12s-.3-.91-1.07-1.24a2.21 2.21 0 0 0 -1.64.23z" fill="#8acc2b"/><path d="m46.3 133.09a1.49 1.49 0 0 0 -1 .22c-.41.27-.62.67-.5.9s.6.17 1.06-.15a1.42 1.42 0 0 0 .44-.97z" fill="#8acc2b"/><path d="m55 142.39a1.69 1.69 0 0 0 -.46.19 1.81 1.81 0 0 0 -.66.71 2.62 2.62 0 0 0 -.22.77.71.71 0 0 0 .12.54c.11.14.33.17.61 0a1.75 1.75 0 0 0 .67-.8 1.66 1.66 0 0 0 .07-1c-.13-.21-.13-.41-.13-.41z" fill="#8acc2b"/><path d="m50.75 142a2.41 2.41 0 0 0 -.16.41 1.45 1.45 0 0 0 0 .87c.23.57.57.92.89.87s.43-.68.17-1.3a1.45 1.45 0 0 0 -.56-.63 2.54 2.54 0 0 0 -.34-.22z" fill="#8acc2b"/><path d="m49.26 143.56a1.51 1.51 0 0 0 .38.95c.34.34.77.49 1 .32s0-.62-.32-1a1.4 1.4 0 0 0 -1.06-.27z" fill="#8acc2b"/><path d="m56.16 145a1 1 0 0 0 -.65-.12c-.3.06-.53.24-.51.4s.31.25.66.18a.94.94 0 0 0 .5-.46z" fill="#8acc2b"/><path d="m38 154.5s5.5 1.07 5.5 9.45.3 8.58.3 8.58a4.09 4.09 0 0 1 -2.17 1.95c-1 .34-.46.22 3 .22 2.6 0 3.62.23 3-.11-.81-.43-1.74-1.05-1.79-2-.19-3.68-1.2-9.85-.05-13.61s6.26-5 5.79-5.49-5.51 3.18-5.79 3.07 1.62-6.12 2.06-7.42-.71-.49-1.09.43-1.89 6.5-2.33 6.78-1.82-8.3-2.49-8.57-.61.2-.6 1 2.57 7 1.85 7.33-3.4-1.89-4.56-2.18-.63.57-.63.57z" fill="#4d3224"/><path d="m397.51 158.36c-8.41 3.23-10.57.48-13.81-2.52a8.82 8.82 0 0 1 -6.25 4.2c-7.7 1-18.42-18.14-4.6-24.5-2.24-11.52 16.89-13.35 21.89-8.88.92.82 3.85 3.71 3.25 4.93-.35.7 4.07-1.17 7 9.63 2.17 9.39-4.94 16.16-7.48 17.14z" fill="#7bb52d" stroke="#4d3224" stroke-miterlimit="10"/><path d="m397.51 158.36c-8.41 3.23-10.57.48-13.81-2.52a8.82 8.82 0 0 1 -6.25 4.2c-5.89.75-13.55-10.25-10.64-18.33.14 9.28 15.19 15.53 17.1 7.65 1.34 7 16 4.94 14.41-1.91 3.23.05 5.53-2.87 6.64-6.23.07.3.15.62.23.93 1.81 7.47-4.56 15.01-7.68 16.21z" fill="#72a72a"/><path d="m397.51 158.36c-8.41 3.23-10.57.48-13.81-2.52a8.82 8.82 0 0 1 -6.25 4.2c-7.7 1-18.42-18.14-4.6-24.5-2.24-11.52 16.89-13.35 21.89-8.88.92.82 3.85 3.71 3.25 4.93-.35.7 4.07-1.17 7 9.63 2.17 9.39-4.94 16.16-7.48 17.14z" fill="none" stroke="#4d3224" stroke-linecap="round" stroke-linejoin="round"/><path d="m384.1 131.11a2.63 2.63 0 0 0 -.54.56 2.76 2.76 0 0 0 -.53 1.43 3.62 3.62 0 0 0 .15 1.24 1.2 1.2 0 0 0 .5.72c.24.13.58 0 .89-.35a2.7 2.7 0 0 0 .48-1.56 2.32 2.32 0 0 0 -.49-1.44 7 7 0 0 0 -.46-.6z" fill="#8acc2b"/><path d="m381 131.38a2.65 2.65 0 0 0 -.3 1.91c.29.91.89 1.53 1.34 1.38s.59-1 .3-1.92a2.68 2.68 0 0 0 -1.34-1.37z" fill="#8acc2b"/><path d="m377.79 133.08a2.67 2.67 0 0 0 0 .69 2.23 2.23 0 0 0 .57 1.24c.68.67 1.38 1 1.82.7s.2-1.23-.54-2a2.3 2.3 0 0 0 -1.19-.57 3.67 3.67 0 0 0 -.66-.06z" fill="#8acc2b"/><path d="m376.59 136.27a2.29 2.29 0 0 0 1.13 1.13c.7.29 1.4.25 1.58-.12s-.3-.92-1.07-1.24a2.21 2.21 0 0 0 -1.64.23z" fill="#8acc2b"/><path d="m387.41 134.09a1.49 1.49 0 0 0 -1 .22c-.4.27-.62.67-.5.9s.6.17 1.07-.15a1.44 1.44 0 0 0 .43-.97z" fill="#8acc2b"/><path d="m396.06 143.39a1.69 1.69 0 0 0 -.46.19 1.75 1.75 0 0 0 -.66.71 2.54 2.54 0 0 0 -.22.77.71.71 0 0 0 .12.54c.11.14.34.16.61 0a1.69 1.69 0 0 0 .67-.8 1.58 1.58 0 0 0 .07-1c-.06-.21-.13-.41-.13-.41z" fill="#8acc2b"/><path d="m391.86 143a1.74 1.74 0 0 0 -.15.41 1.37 1.37 0 0 0 0 .87c.23.56.57.92.89.87s.43-.68.17-1.3a1.39 1.39 0 0 0 -.56-.63 2.54 2.54 0 0 0 -.35-.22z" fill="#8acc2b"/><path d="m390.37 144.56a1.51 1.51 0 0 0 .38.95c.34.34.77.49 1 .32s.05-.62-.32-1a1.4 1.4 0 0 0 -1.06-.27z" fill="#8acc2b"/><path d="m397.27 146a.93.93 0 0 0 -.65-.12c-.3 0-.53.24-.51.4s.31.25.66.18a.94.94 0 0 0 .5-.46z" fill="#8acc2b"/><path d="m379.09 155.5s5.5 1.06 5.5 9.45.3 8.58.3 8.58a4.09 4.09 0 0 1 -2.17 1.95c-1 .34-.46.22 3 .22 2.6 0 3.62.23 3-.11-.81-.44-1.74-1.05-1.79-2-.19-3.68-1.2-9.85 0-13.61s6.25-5 5.78-5.49-5.51 3.18-5.79 3.07 1.62-6.12 2.06-7.42-.71-.49-1.09.43-1.89 6.5-2.33 6.78-1.82-8.3-2.49-8.57-.61.2-.6 1 2.58 7 1.85 7.33-3.4-1.9-4.56-2.19-.67.58-.67.58z" fill="#4d3224"/><path d="m572.58 147c.86.34 2 1.27 1.82 3.88-.36 6.13-4.85 9.69-12.62 10.29a9.77 9.77 0 0 1 -5.08-1.52 11.55 11.55 0 0 1 -8.17 1.25c-7-1.58-11.37-5.39-12-12.71-.35-3.89 3.23-6.2 3.23-6.2s-3.29-3.41-2.33-7.48 6.41-9.61 13-8.13c8.16-8 31.17 1.09 24.7 17.79-.64 1.7-2.8 2.73-2.55 2.83z" fill="#7bb52d" stroke="#4d3224" stroke-miterlimit="10"/><path d="m572.58 147c.86.34 2 1.27 1.82 3.88-.36 6.13-4.85 9.69-12.62 10.29a9.77 9.77 0 0 1 -5.08-1.52 11.55 11.55 0 0 1 -8.17 1.25c-6.25-1.42-10.2-4.55-11.54-10.07 2.81 3.8 7.6 6.36 9.5 2 1.12 6.27 17.65 5.59 17.08-.38 3.41 1.39 7.7-2.91 4.41-5.67 4.25 0 7-6 7.86-11.48a14.42 14.42 0 0 1 -.7 8.84c-.65 1.73-2.81 2.76-2.56 2.86z" fill="#72a72a"/><path d="m572.58 147c.86.34 2 1.27 1.82 3.88-.36 6.13-4.85 9.69-12.62 10.29a9.77 9.77 0 0 1 -5.08-1.52 11.55 11.55 0 0 1 -8.17 1.25c-7-1.58-11.37-5.39-12-12.71-.35-3.89 3.23-6.2 3.23-6.2s-3.29-3.41-2.33-7.48 6.41-9.61 13-8.13c8.16-8 31.17 1.09 24.7 17.79-.64 1.7-2.8 2.73-2.55 2.83z" fill="none" stroke="#4d3224" stroke-linecap="round" stroke-linejoin="round"/><path d="m550.36 155.5s5.5 1.06 5.5 9.45.3 8.58.3 8.58a4.09 4.09 0 0 1 -2.17 1.95c-1 .34-.46.22 3 .22 2.6 0 3.61.23 3-.11-.82-.44-1.75-1.05-1.79-2-.19-3.68-1.2-9.85-.05-13.61s6.26-5 5.78-5.49-5.51 3.18-5.79 3.07 1.63-6.12 2.06-7.42-.7-.49-1.08.43-1.9 6.5-2.33 6.78-1.82-8.3-2.49-8.57-.61.2-.6 1 2.57 7 1.85 7.33-3.4-1.9-4.56-2.19-.63.58-.63.58z" fill="#4d3224"/><path d="m557.44 131.37a2.52 2.52 0 0 1 .53.55 2.65 2.65 0 0 1 .51 1.38 3.72 3.72 0 0 1 -.14 1.21 1.16 1.16 0 0 1 -.49.69c-.24.13-.57 0-.86-.33a2.59 2.59 0 0 1 -.47-1.52 2.37 2.37 0 0 1 .48-1.35 7.27 7.27 0 0 1 .44-.63z" fill="#8acc2b"/><path d="m560.47 131.63a2.59 2.59 0 0 1 .29 1.86c-.28.88-.86 1.48-1.3 1.34s-.58-1-.29-1.86a2.61 2.61 0 0 1 1.3-1.34z" fill="#8acc2b"/><path d="m563.57 133.28a2.53 2.53 0 0 1 0 .67 2.14 2.14 0 0 1 -.56 1.2c-.65.66-1.34.95-1.77.69s-.19-1.2.53-1.92a2.24 2.24 0 0 1 1.16-.56 4.68 4.68 0 0 1 .64-.08z" fill="#8acc2b"/><path d="m564.73 136.38a2.27 2.27 0 0 1 -1.09 1.1c-.68.28-1.37.24-1.54-.12s.29-.89 1-1.2a2.16 2.16 0 0 1 1.63.22z" fill="#8acc2b"/><path d="m554.23 134.27a1.38 1.38 0 0 1 1 .21c.39.26.6.65.48.87s-.58.17-1-.14a1.39 1.39 0 0 1 -.48-.94z" fill="#8acc2b"/><path d="m545.83 143.29a1.57 1.57 0 0 1 .45.19 1.69 1.69 0 0 1 .64.68 2.46 2.46 0 0 1 .21.75.73.73 0 0 1 -.11.53c-.11.13-.33.16-.59 0a1.58 1.58 0 0 1 -.65-.77 1.42 1.42 0 0 1 -.07-.94 3.18 3.18 0 0 1 .12-.44z" fill="#8acc2b"/><path d="m549.91 142.89a1.77 1.77 0 0 1 .15.4 1.38 1.38 0 0 1 0 .85c-.22.54-.55.88-.87.84s-.41-.66-.17-1.26a1.47 1.47 0 0 1 .55-.62 3.47 3.47 0 0 1 .34-.21z" fill="#8acc2b"/><path d="m551.36 144.43a1.42 1.42 0 0 1 -.37.91c-.33.34-.75.48-.94.32s0-.6.32-1a1.34 1.34 0 0 1 .99-.23z" fill="#8acc2b"/><path d="m544.66 145.78a.94.94 0 0 1 .63-.12c.29.06.51.24.5.4s-.3.24-.65.17a.87.87 0 0 1 -.48-.45z" fill="#8acc2b"/><path d="m738.62 158.33c-8.41 3.23-10.57.48-13.81-2.52a8.82 8.82 0 0 1 -6.25 4.2c-7.7 1-18.42-18.14-4.59-24.5-2.25-11.52 16.88-13.35 21.88-8.88.92.82 3.85 3.71 3.25 4.93-.35.7 4.07-1.17 7 9.63 2.17 9.39-4.94 16.16-7.48 17.14z" fill="#7bb52d" stroke="#4d3224" stroke-miterlimit="10"/><path d="m738.62 158.33c-8.41 3.23-10.57.48-13.81-2.52a8.82 8.82 0 0 1 -6.25 4.2c-5.89.75-13.55-10.25-10.63-18.33.13 9.28 15.19 15.53 17.09 7.65 1.34 7 16.05 4.94 14.41-1.91 3.24.05 5.53-2.87 6.64-6.23.07.3.15.62.23.93 1.81 7.47-4.56 15.01-7.68 16.21z" fill="#72a72a"/><path d="m738.62 158.33c-8.41 3.23-10.57.48-13.81-2.52a8.82 8.82 0 0 1 -6.25 4.2c-7.7 1-18.42-18.14-4.59-24.5-2.25-11.52 16.88-13.35 21.88-8.88.92.82 3.85 3.71 3.25 4.93-.35.7 4.07-1.17 7 9.63 2.17 9.39-4.94 16.16-7.48 17.14z" fill="none" stroke="#4d3224" stroke-linecap="round" stroke-linejoin="round"/><path d="m725.21 131.08a2.63 2.63 0 0 0 -.54.56 2.76 2.76 0 0 0 -.53 1.43 3.62 3.62 0 0 0 .15 1.24 1.2 1.2 0 0 0 .5.72c.24.13.58 0 .89-.35a2.7 2.7 0 0 0 .48-1.56 2.32 2.32 0 0 0 -.49-1.44 5.2 5.2 0 0 0 -.46-.6z" fill="#8acc2b"/><path d="m722.09 131.35a2.71 2.71 0 0 0 -.3 1.91c.29.91.89 1.53 1.35 1.38s.59-1 .29-1.92a2.68 2.68 0 0 0 -1.34-1.37z" fill="#8acc2b"/><path d="m718.9 133.05a2.67 2.67 0 0 0 0 .69 2.23 2.23 0 0 0 .57 1.24c.68.67 1.38 1 1.82.7s.21-1.23-.53-2a2.33 2.33 0 0 0 -1.2-.57 3.67 3.67 0 0 0 -.66-.06z" fill="#8acc2b"/><path d="m717.7 136.24a2.29 2.29 0 0 0 1.13 1.13c.7.29 1.4.25 1.58-.12s-.3-.92-1.07-1.24a2.21 2.21 0 0 0 -1.64.23z" fill="#8acc2b"/><path d="m728.52 134.06a1.49 1.49 0 0 0 -1 .22c-.4.27-.62.67-.5.9s.6.17 1.07-.15a1.44 1.44 0 0 0 .43-.97z" fill="#8acc2b"/><path d="m737.17 143.36a1.69 1.69 0 0 0 -.46.19 1.75 1.75 0 0 0 -.66.71 2.54 2.54 0 0 0 -.22.77.71.71 0 0 0 .12.54c.11.14.34.16.61 0a1.69 1.69 0 0 0 .67-.8 1.51 1.51 0 0 0 .07-1c-.06-.21-.13-.41-.13-.41z" fill="#8acc2b"/><path d="m733 143a1.74 1.74 0 0 0 -.15.41 1.37 1.37 0 0 0 0 .87c.23.56.57.92.89.87s.43-.68.18-1.3a1.47 1.47 0 0 0 -.57-.63 2.54 2.54 0 0 0 -.35-.22z" fill="#8acc2b"/><path d="m731.48 144.53a1.51 1.51 0 0 0 .38.95c.34.34.77.49 1 .32s0-.62-.32-1a1.4 1.4 0 0 0 -1.06-.27z" fill="#8acc2b"/><path d="m738.38 145.93a.93.93 0 0 0 -.65-.12c-.3.05-.53.24-.51.4s.31.25.66.18a.94.94 0 0 0 .5-.46z" fill="#8acc2b"/><path d="m720.2 155.47s5.5 1.06 5.5 9.45.3 8.58.3 8.58a4.09 4.09 0 0 1 -2.17 1.95c-1 .34-.46.22 3 .22 2.6 0 3.62.23 3-.11-.81-.44-1.74-1.05-1.79-1.95-.19-3.68-1.2-9.85 0-13.61s6.25-5 5.78-5.49-5.51 3.18-5.79 3.07 1.62-6.12 2.06-7.42-.71-.49-1.09.43-1.89 6.5-2.33 6.78-1.81-8.3-2.49-8.57-.61.2-.6 1 2.58 7 1.85 7.33-3.4-1.9-4.56-2.19-.67.53-.67.53z" fill="#4d3224"/><path d="m1.53 168.95h766.47" fill="none" stroke="#4d3224" stroke-linecap="round" stroke-linejoin="round"/><path d="m557.9 176.07a1.55 1.55 0 0 1 -.66-1.9c.38-.88.78-.43 1.32-.06-.39-1.61-.37-4.4.65-5.69.87-1.1 2.58.18 3.16 1.28.45-.72.67-1.63 1.62-1.53.59.07.9.74 1.46.94-.39-1.62.46-4.54 1.87-5.09 1.7-.66 2.33 1.62 2.32 3.16.57-2.56 2.17-.31 2.78.82.38-.41.55-1.14 1.21-.94.43.13.77.9.85 1.38.24-1.78 2.15-4.39 3.78-3.81s1.53 2.53 1.56 4.13c.44-1.1 2-.93 2.6-.16a3.62 3.62 0 0 1 0 3.3c.8-.82 1.56-2.45 2.78-1.77 1.57.86.39 2.82.1 4.15.18-.8 2.48-.65 2.59.28s-1.17 1.44-1.8 1.51z" fill="#7bb52d" stroke="#4d3224" stroke-miterlimit="10"/><path d="m587.93 68.45c-8.64 0-15.64 7.69-15.64 17.18h31.28c0-9.49-7-17.18-15.64-17.18z" fill="#ff9563" stroke="#4d3224" stroke-miterlimit="10"/><path d="m589.34 83.08c0 6.58-.7 11.92-1.56 11.92s-1.56-5.34-1.56-11.92.7-11.91 1.56-11.91 1.56 5.33 1.56 11.91z" fill="#de744c"/><path d="m582.12 83.08c0 6.69 1.64 12.14.83 12.49s-4-5-4-12.49 3.21-12.89 4-12.49-.83 5.8-.83 12.49z" fill="#de744c"/><path d="m593.43 83.08c0 6.69-1.64 12.14-.82 12.49s4-5 3.94-12.49-3.21-12.89-3.94-12.49.82 5.8.82 12.49z" fill="#de744c"/><path d="m603.32 92.76h4.52v83.49h-38.99v-83.49h4.52z" fill="#f1d4c2" stroke="#4d3224" stroke-miterlimit="10"/><path d="m577.17 93.23h4.5v46.78h-4.5z" fill="#e0bfa9"/><path d="m585.98 93.23h4.5v46.78h-4.5z" fill="#e0bfa9"/><path d="m594.78 93.23h4.5v46.78h-4.5z" fill="#e0bfa9"/><path d="m568.85 145.55h38.99v30.7h-38.99z" fill="#9a8e80" stroke="#4d3224" stroke-miterlimit="10"/><path d="m595.37 114.36h3.91v-.04-13.26-.73h-4.5v13.99h.59z" fill="#80d8d6" stroke="#4d3224" stroke-miterlimit="10"/><path d="m595.37 133.3h3.91v-.04-13.26-.74h-4.5v14h.59z" fill="#80d8d6" stroke="#4d3224" stroke-miterlimit="10"/><path d="m586.56 114.36h3.91v-.04-13.26-.73h-4.49v13.99h.58z" fill="#80d8d6" stroke="#4d3224" stroke-miterlimit="10"/><path d="m586.56 133.3h3.91v-.04-13.26-.74h-4.49v14h.58z" fill="#80d8d6" stroke="#4d3224" stroke-miterlimit="10"/><path d="m577.76 114.36h3.91v-.04-13.26-.73h-4.5v13.99h.59z" fill="#80d8d6" stroke="#4d3224" stroke-miterlimit="10"/><path d="m577.76 133.3h3.91v-.04-13.26-.74h-4.5v14h.59z" fill="#80d8d6" stroke="#4d3224" stroke-miterlimit="10"/><path d="m572.51 150.63h31.68v25.63h-31.68z" fill="#80d8d6" stroke="#4d3224" stroke-miterlimit="10"/><path d="m567.92 145.55h41.24v4.97h-41.24z" fill="#426e75" stroke="#4d3224" stroke-miterlimit="10"/><path d="m567.6 87.79h41.24v4.97h-41.24z" fill="#f27e52" stroke="#4d3224" stroke-miterlimit="10"/><path d="m565.71 86.08h44.7v1.71h-44.7z" fill="#ff9563" stroke="#4d3224" stroke-miterlimit="10"/><path d="m568.85 140.47h38.99v5.08h-38.99z" fill="#ff9563" stroke="#4d3224" stroke-miterlimit="10"/><path d="m569.36 141.08h37.95v1.65h-37.95z" fill="#ffb563"/><path d="m572.98 159.29h31.06" fill="none" stroke="#426e75" stroke-miterlimit="10"/><path d="m579 150.63v25.44" fill="none" stroke="#426e75" stroke-miterlimit="10"/><path d="m597.96 150.63v25.44" fill="none" stroke="#426e75" stroke-miterlimit="10"/><path d="m588.33 150.63v25.44" fill="none" stroke="#426e75" stroke-miterlimit="10"/><g fill="#d0ebea" opacity=".4"><path d="m600.24 151.69v-.6h-2.57l-23.59 24.98h3.14z"/><path d="m572.74 166.77v7.17l21.57-22.85h-6.77z"/></g><path d="m177.06 176.25h28.04v-171.06l-28.04 17.75z" fill="#77c4ce" stroke="#4d3224" stroke-linecap="round" stroke-linejoin="round"/><path d="m179.09 32.63h23.82v1.08h-23.82z" fill="#80d8d6" stroke="#4d3224" stroke-linecap="round" stroke-linejoin="round"/><path d="m176.89 31.17h28.21v4h-28.21z" fill="#80d8d6" stroke="#4d3224" stroke-linecap="round" stroke-linejoin="round"/><path d="m179.09 42.55h23.82v1.08h-23.82z" fill="#80d8d6" stroke="#4d3224" stroke-linecap="round" stroke-linejoin="round"/><path d="m176.89 41.09h28.21v4h-28.21z" fill="#80d8d6" stroke="#4d3224" stroke-linecap="round" stroke-linejoin="round"/><path d="m179.09 52.47h23.82v1.08h-23.82z" fill="#80d8d6" stroke="#4d3224" stroke-linecap="round" stroke-linejoin="round"/><path d="m176.89 51.01h28.21v4h-28.21z" fill="#80d8d6" stroke="#4d3224" stroke-linecap="round" stroke-linejoin="round"/><path d="m179.09 62.39h23.82v1.08h-23.82z" fill="#80d8d6" stroke="#4d3224" stroke-linecap="round" stroke-linejoin="round"/><path d="m176.89 60.93h28.21v3.99h-28.21z" fill="#80d8d6" stroke="#4d3224" stroke-linecap="round" stroke-linejoin="round"/><path d="m179.09 72.31h23.82v1.08h-23.82z" fill="#80d8d6" stroke="#4d3224" stroke-linecap="round" stroke-linejoin="round"/><path d="m176.89 70.85h28.21v3.99h-28.21z" fill="#80d8d6" stroke="#4d3224" stroke-linecap="round" stroke-linejoin="round"/><path d="m179.09 82.23h23.82v1.08h-23.82z" fill="#80d8d6" stroke="#4d3224" stroke-linecap="round" stroke-linejoin="round"/><path d="m176.89 80.77h28.21v4h-28.21z" fill="#80d8d6" stroke="#4d3224" stroke-linecap="round" stroke-linejoin="round"/><path d="m179.09 91.48h23.82v1.08h-23.82z" fill="#80d8d6" stroke="#4d3224" stroke-linecap="round" stroke-linejoin="round"/><path d="m176.89 90.03h28.21v3.99h-28.21z" fill="#80d8d6" stroke="#4d3224" stroke-linecap="round" stroke-linejoin="round"/><path d="m179.09 101.4h23.82v1.08h-23.82z" fill="#80d8d6" stroke="#4d3224" stroke-linecap="round" stroke-linejoin="round"/><path d="m176.89 99.95h28.21v3.99h-28.21z" fill="#80d8d6" stroke="#4d3224" stroke-linecap="round" stroke-linejoin="round"/><path d="m179.09 111.32h23.82v1.08h-23.82z" fill="#80d8d6" stroke="#4d3224" stroke-linecap="round" stroke-linejoin="round"/><path d="m176.89 109.87h28.21v3.99h-28.21z" fill="#80d8d6" stroke="#4d3224" stroke-linecap="round" stroke-linejoin="round"/><path d="m179.09 121.24h23.82v1.08h-23.82z" fill="#80d8d6" stroke="#4d3224" stroke-linecap="round" stroke-linejoin="round"/><path d="m176.89 119.78h28.21v4h-28.21z" fill="#80d8d6" stroke="#4d3224" stroke-linecap="round" stroke-linejoin="round"/><path d="m179.09 131.16h23.82v1.08h-23.82z" fill="#80d8d6" stroke="#4d3224" stroke-linecap="round" stroke-linejoin="round"/><path d="m176.89 129.71h28.21v3.99h-28.21z" fill="#80d8d6" stroke="#4d3224" stroke-linecap="round" stroke-linejoin="round"/><path d="m179.09 141.08h23.82v1.08h-23.82z" fill="#80d8d6" stroke="#4d3224" stroke-linecap="round" stroke-linejoin="round"/><path d="m176.89 139.63h28.21v3.99h-28.21z" fill="#80d8d6" stroke="#4d3224" stroke-linecap="round" stroke-linejoin="round"/><path d="m205.1 5.19-9.91-4.69-25.74 17.19 7.61 5.25z" fill="#5aabb9" stroke="#4d3224" stroke-linecap="round" stroke-linejoin="round"/><path d="m169.45 17.69v25.94l7.61 4.67v-25.36z" fill="#5aabb9" stroke="#4d3224" stroke-linecap="round" stroke-linejoin="round"/><path d="m173.25 25.87v19.74" fill="none" stroke="#4d3224" stroke-linecap="round" stroke-linejoin="round"/><g fill="#80d8d6" opacity=".23"><path d="m205.03 69.48v-11.48l-27.92 29.39v11.49z"/><path d="m177.11 62.81v19.5l27.92-29.39v-20.05z"/></g><g stroke-linecap="round" stroke-linejoin="round"><path d="m185.1 176.25h-25.78v-138.19l25.78 15.39z" fill="#77c4ce" stroke="#4d3224"/><path d="m166.72 42.48v133.77h-7.4v-138.49z" fill="#5aabb9" stroke="#4d3224"/><path d="m182.35 53.4v121.68" fill="none" stroke="#80d8d6"/><path d="m179.37 51.48v123.6" fill="none" stroke="#80d8d6"/><path d="m176.27 49.49v125.59" fill="none" stroke="#80d8d6"/><path d="m172.86 47.84v127.24" fill="none" stroke="#80d8d6"/><path d="m169.45 45.61v129.57" fill="none" stroke="#80d8d6"/><path d="m184.17 56.42h-16.27" fill="none" stroke="#80d8d6"/><path d="m183.94 59.67h-16.26" fill="none" stroke="#80d8d6"/><path d="m183.94 63.39h-16.26" fill="none" stroke="#80d8d6"/><path d="m183.94 67.11h-16.26" fill="none" stroke="#80d8d6"/><path d="m183.94 70.83h-16.26" fill="none" stroke="#80d8d6"/><path d="m183.94 74.55h-16.26" fill="none" stroke="#80d8d6"/><path d="m183.94 78.27h-16.26" fill="none" stroke="#80d8d6"/><path d="m183.94 81.99h-16.26" fill="none" stroke="#80d8d6"/><path d="m183.94 85.72h-16.26" fill="none" stroke="#80d8d6"/><path d="m183.94 89.44h-16.26" fill="none" stroke="#80d8d6"/><path d="m183.94 93.16h-16.26" fill="none" stroke="#80d8d6"/><path d="m183.94 96.88h-16.26" fill="none" stroke="#80d8d6"/><path d="m183.94 100.6h-16.26" fill="none" stroke="#80d8d6"/><path d="m183.94 104.32h-16.26" fill="none" stroke="#80d8d6"/><path d="m183.94 108.04h-16.26" fill="none" stroke="#80d8d6"/><path d="m183.94 111.76h-16.26" fill="none" stroke="#80d8d6"/><path d="m183.94 115.48h-16.26" fill="none" stroke="#80d8d6"/><path d="m183.94 119.2h-16.26" fill="none" stroke="#80d8d6"/><path d="m183.94 122.92h-16.26" fill="none" stroke="#80d8d6"/><path d="m183.94 126.64h-16.26" fill="none" stroke="#80d8d6"/><path d="m183.94 130.36h-16.26" fill="none" stroke="#80d8d6"/><path d="m183.94 134.08h-16.26" fill="none" stroke="#80d8d6"/><path d="m183.94 137.81h-16.26" fill="none" stroke="#80d8d6"/><path d="m183.94 141.53h-16.26" fill="none" stroke="#80d8d6"/><path d="m183.94 145.25h-16.26" fill="none" stroke="#80d8d6"/><path d="m183.94 148.97h-16.26" fill="none" stroke="#80d8d6"/><path d="m183.94 152.69h-16.26" fill="none" stroke="#80d8d6"/><path d="m183.94 156.41h-16.26" fill="none" stroke="#80d8d6"/><path d="m183.94 160.13h-16.26" fill="none" stroke="#80d8d6"/><path d="m183.94 163.85h-16.26" fill="none" stroke="#80d8d6"/><path d="m183.94 167.57h-16.26" fill="none" stroke="#80d8d6"/></g><g fill="#80d8d6" opacity=".23"><path d="m166.72 102.88v-7.47l18.18 19.13v7.48z"/><path d="m184.9 98.54v12.69l-18.18-19.13v-13.05z"/></g><path d="m233.2 58.11h14.97v12.34h-14.97z" fill="#e6ffff" stroke="#4d3224" stroke-linecap="round" stroke-linejoin="round"/><path d="m232.69 56.87h15.99v1.24h-15.99z" fill="#9fc2c4" stroke="#4d3224" stroke-linecap="round" stroke-linejoin="round"/><path d="m226.61 65.57h28.15v12.34h-28.15z" fill="#c9e2ff" stroke="#4d3224" stroke-linecap="round" stroke-linejoin="round"/><path d="m225.76 64.02h29.84v1.54h-29.84z" fill="#9fc2c4" stroke="#4d3224" stroke-linecap="round" stroke-linejoin="round"/><path d="m215.87 75h49.63v101.25h-49.63z" fill="#e6ffff" stroke="#4d3224" stroke-linecap="round" stroke-linejoin="round"/><path d="m214.98 73.06h51.4v1.94h-51.4z" fill="#9fc2c4" stroke="#4d3224" stroke-linecap="round" stroke-linejoin="round"/><path d="m250.41 66.63a2.21 2.21 0 0 1 2.18 2.24v4.19h-4.36v-4.19a2.2 2.2 0 0 1 2.18-2.24z" fill="#80d8d6" stroke="#4d3224" stroke-linecap="round" stroke-linejoin="round"/><path d="m243.92 66.63a2.2 2.2 0 0 1 2.18 2.24v4.19h-4.36v-4.19a2.21 2.21 0 0 1 2.18-2.24z" fill="#80d8d6" stroke="#4d3224" stroke-linecap="round" stroke-linejoin="round"/><path d="m237.44 66.63a2.2 2.2 0 0 1 2.18 2.24v4.19h-4.36v-4.19a2.21 2.21 0 0 1 2.18-2.24z" fill="#80d8d6" stroke="#4d3224" stroke-linecap="round" stroke-linejoin="round"/><path d="m231 66.63a2.21 2.21 0 0 1 2.18 2.24v4.19h-4.36v-4.19a2.21 2.21 0 0 1 2.18-2.24z" fill="#80d8d6" stroke="#4d3224" stroke-linecap="round" stroke-linejoin="round"/><path d="m246.1 57.81h.74v6.46h-.74z" fill="#4d3224"/><path d="m242.31 57.81h.74v6.46h-.74z" fill="#4d3224"/><path d="m238.51 57.81h.74v6.46h-.74z" fill="#4d3224"/><path d="m234.71 57.81h.74v6.46h-.74z" fill="#4d3224"/><path d="m229.51 159.17h22.68v17.09h-22.68z" fill="#80d8d6" stroke="#4d3224" stroke-linecap="round" stroke-linejoin="round" transform="matrix(-1 0 0 -1 481.7 335.42)"/><g fill="#d0ebea" opacity=".4"><path d="m234.16 160.1v-.39h1.64l15.11 16h-2.01z"/><path d="m251.77 169.75v4.59l-13.82-14.63h4.34z"/></g><path d="m240.68 159.72v16.08" fill="none" stroke="#426e75" stroke-linecap="round" stroke-linejoin="round"/><path d="m260.65 89.03h-.79v.03h-5.29v-.03-9.4-.52h6.08z" fill="#4e98a0"/><path d="m252.19 88.98h-.79v.03h-5.3v-.03-9.4-.52h6.09z" fill="#4e98a0"/><path d="m235.26 88.98h-.79v.03h-5.29v-.03-9.4-.52h6.08z" fill="#4e98a0"/><path d="m226.79 79.11v9.92h-.79v.03h-5.29v-.03-9.4-.52z" fill="#4e98a0"/><path d="m242.93 89.06h-5.29v-.03-9.4-.52h6.08v9.92h-.79z" fill="#4e98a0"/><path d="m260.65 102.7h-.79v.03h-5.29v-.03-9.4-.52h6.08z" fill="#4e98a0"/><path d="m252.19 102.65h-.79v.03h-5.3v-.03-9.4-.52h6.09z" fill="#4e98a0"/><path d="m235.26 102.65h-.79v.03h-5.29v-.03-9.4-.52h6.08z" fill="#4e98a0"/><path d="m226.79 92.78v9.92h-.79v.03h-5.29v-.03-9.4-.52z" fill="#4e98a0"/><path d="m242.93 102.73h-5.29v-.03-9.4-.52h6.08v9.92h-.79z" fill="#4e98a0"/><path d="m260.65 116.37h-.79v.03h-5.29v-.03-9.41-.52h6.08z" fill="#4e98a0"/><path d="m252.19 116.32h-.79v.02h-5.3v-.02-9.4-.53h6.09z" fill="#4e98a0"/><path d="m235.26 116.32h-.79v.02h-5.29v-.02-9.4-.53h6.08z" fill="#4e98a0"/><path d="m226.79 106.44v9.93h-.79v.03h-5.29v-.03-9.41-.52z" fill="#4e98a0"/><path d="m242.93 116.4h-5.29v-.03-9.41-.52h6.08v9.93h-.79z" fill="#4e98a0"/><path d="m260.65 130.04h-.79v.02h-5.29v-.02-9.41-.52h6.08z" fill="#4e98a0"/><path d="m252.19 129.99h-.79v.02h-5.3v-.02-9.41-.52h6.09z" fill="#4e98a0"/><path d="m235.26 129.99h-.79v.02h-5.29v-.02-9.41-.52h6.08z" fill="#4e98a0"/><path d="m226.79 120.11v9.93h-.79v.02h-5.29v-.02-9.41-.52z" fill="#4e98a0"/><path d="m242.93 130.06h-5.29v-.02-9.41-.52h6.08v9.93h-.79z" fill="#4e98a0"/><path d="m260.65 143.7h-.79v.03h-5.29v-.03-9.4-.52h6.08z" fill="#4e98a0"/><path d="m252.19 143.65h-.79v.03h-5.3v-.03-9.4-.52h6.09z" fill="#4e98a0"/><path d="m235.26 143.65h-.79v.03h-5.29v-.03-9.4-.52h6.08z" fill="#4e98a0"/><path d="m226.79 133.78v9.92h-.79v.03h-5.29v-.03-9.4-.52z" fill="#4e98a0"/><path d="m242.93 143.73h-5.29v-.03-9.4-.52h6.08v9.92h-.79z" fill="#4e98a0"/><path d="m260.65 157.37h-.79v.03h-5.29v-.03-9.4-.52h6.08z" fill="#4e98a0"/><path d="m252.19 157.32h-.79v.03h-5.3v-.03-9.4-.52h6.09z" fill="#4e98a0"/><path d="m235.26 157.32h-.79v.03h-5.29v-.03-9.4-.52h6.08z" fill="#4e98a0"/><path d="m226.79 147.45v9.92h-.79v.03h-5.29v-.03-9.4-.52z" fill="#4e98a0"/><path d="m242.93 157.4h-5.29v-.03-9.4-.52h6.08v9.92h-.79z" fill="#4e98a0"/><path d="m260.65 87.67h-.79v.02h-5.29v-.02-9.41-.52h6.08z" fill="#80d8d6" stroke="#4d3224" stroke-linecap="round" stroke-linejoin="round"/><path d="m252.19 87.62h-.79v.02h-5.3v-.02-9.41-.52h6.09z" fill="#80d8d6" stroke="#4d3224" stroke-linecap="round" stroke-linejoin="round"/><path d="m235.26 87.62h-.79v.02h-5.29v-.02-9.41-.52h6.08z" fill="#80d8d6" stroke="#4d3224" stroke-linecap="round" stroke-linejoin="round"/><path d="m226.79 77.74v9.93h-.79v.02h-5.29v-.02-9.41-.52z" fill="#80d8d6" stroke="#4d3224" stroke-linecap="round" stroke-linejoin="round"/><path d="m242.93 87.69h-5.29v-.02-9.41-.52h6.08v9.93h-.79z" fill="#80d8d6" stroke="#4d3224" stroke-linecap="round" stroke-linejoin="round"/><path d="m260.65 101.33h-.79v.03h-5.29v-.03-9.4-.52h6.08z" fill="#80d8d6" stroke="#4d3224" stroke-linecap="round" stroke-linejoin="round"/><path d="m252.19 101.28h-.79v.03h-5.3v-.03-9.4-.52h6.09z" fill="#80d8d6" stroke="#4d3224" stroke-linecap="round" stroke-linejoin="round"/><path d="m235.26 101.28h-.79v.03h-5.29v-.03-9.4-.52h6.08z" fill="#80d8d6" stroke="#4d3224" stroke-linecap="round" stroke-linejoin="round"/><path d="m226.79 91.41v9.92h-.79v.03h-5.29v-.03-9.4-.52z" fill="#80d8d6" stroke="#4d3224" stroke-linecap="round" stroke-linejoin="round"/><path d="m242.93 101.36h-5.29v-.03-9.4-.52h6.08v9.92h-.79z" fill="#80d8d6" stroke="#4d3224" stroke-linecap="round" stroke-linejoin="round"/><path d="m260.65 115h-.79v.03h-5.29v-.03-9.4-.52h6.08z" fill="#80d8d6" stroke="#4d3224" stroke-linecap="round" stroke-linejoin="round"/><path d="m252.19 114.95h-.79v.03h-5.3v-.03-9.4-.52h6.09z" fill="#80d8d6" stroke="#4d3224" stroke-linecap="round" stroke-linejoin="round"/><path d="m235.26 114.95h-.79v.03h-5.29v-.03-9.4-.52h6.08z" fill="#80d8d6" stroke="#4d3224" stroke-linecap="round" stroke-linejoin="round"/><path d="m226.79 105.08v9.92h-.79v.03h-5.29v-.03-9.4-.52z" fill="#80d8d6" stroke="#4d3224" stroke-linecap="round" stroke-linejoin="round"/><path d="m242.93 115.03h-5.29v-.03-9.4-.52h6.08v9.92h-.79z" fill="#80d8d6" stroke="#4d3224" stroke-linecap="round" stroke-linejoin="round"/><path d="m260.65 128.67h-.79v.03h-5.29v-.03-9.41-.51h6.08z" fill="#80d8d6" stroke="#4d3224" stroke-linecap="round" stroke-linejoin="round"/><path d="m252.19 128.62h-.79v.03h-5.3v-.03-9.4-.53h6.09z" fill="#80d8d6" stroke="#4d3224" stroke-linecap="round" stroke-linejoin="round"/><path d="m235.26 128.62h-.79v.03h-5.29v-.03-9.4-.53h6.08z" fill="#80d8d6" stroke="#4d3224" stroke-linecap="round" stroke-linejoin="round"/><path d="m226.79 118.75v9.92h-.79v.03h-5.29v-.03-9.41-.51z" fill="#80d8d6" stroke="#4d3224" stroke-linecap="round" stroke-linejoin="round"/><path d="m242.93 128.7h-5.29v-.03-9.41-.51h6.08v9.92h-.79z" fill="#80d8d6" stroke="#4d3224" stroke-linecap="round" stroke-linejoin="round"/><path d="m260.65 142.34h-.79v.03h-5.29v-.03-9.41-.52h6.08z" fill="#80d8d6" stroke="#4d3224" stroke-linecap="round" stroke-linejoin="round"/><path d="m252.19 142.29h-.79v.02h-5.3v-.02-9.41-.52h6.09z" fill="#80d8d6" stroke="#4d3224" stroke-linecap="round" stroke-linejoin="round"/><path d="m235.26 142.29h-.79v.02h-5.29v-.02-9.41-.52h6.08z" fill="#80d8d6" stroke="#4d3224" stroke-linecap="round" stroke-linejoin="round"/><path d="m226.79 132.41v9.93h-.79v.03h-5.29v-.03-9.41-.52z" fill="#80d8d6" stroke="#4d3224" stroke-linecap="round" stroke-linejoin="round"/><path d="m242.93 142.37h-5.29v-.03-9.41-.52h6.08v9.93h-.79z" fill="#80d8d6" stroke="#4d3224" stroke-linecap="round" stroke-linejoin="round"/><path d="m260.65 156h-.79v.03h-5.29v-.03-9.4-.52h6.08z" fill="#80d8d6" stroke="#4d3224" stroke-linecap="round" stroke-linejoin="round"/><path d="m252.19 155.96h-.79v.02h-5.3v-.02-9.41-.52h6.09z" fill="#80d8d6" stroke="#4d3224" stroke-linecap="round" stroke-linejoin="round"/><path d="m235.26 155.96h-.79v.02h-5.29v-.02-9.41-.52h6.08z" fill="#80d8d6" stroke="#4d3224" stroke-linecap="round" stroke-linejoin="round"/><path d="m226.79 146.08v9.92h-.79v.03h-5.29v-.03-9.4-.52z" fill="#80d8d6" stroke="#4d3224" stroke-linecap="round" stroke-linejoin="round"/><path d="m242.93 156.03h-5.29v-.03-9.4-.52h6.08v9.92h-.79z" fill="#80d8d6" stroke="#4d3224" stroke-linecap="round" stroke-linejoin="round"/></svg>