<svg xmlns="http://www.w3.org/2000/svg" viewBox="0 0 1200 300"><defs><style>.cls-1{isolation:isolate}.cls-2,.cls-5{opacity:.4}.cls-3,.cls-4,.cls-5{fill:#5596ca}.cls-4{opacity:.3;mix-blend-mode:multiply}.cls-6{fill:none}</style></defs><title>works-b-tree-down</title><g class="cls-1"><g id="圖層_2" data-name="圖層 2"><g id="作品"><g class="cls-2"><path class="cls-3" d="M1062.69 235.21c0 1.31 36.48 2.63 36.75.27.23-2.12-5 0-8.74-5.63-4.58-6.9-3.1-26.84-2.23-35l-13.54 2.08c-1 4.82-2.63 20.1-3.13 25C1070.76 232.08 1062.69 233.92 1062.69 235.21z"/><path class="cls-4" d="M1073.19 209.3c3.46 9.35 9 16.45 17.51 20.55-3.23-4.87-3.22-14.2-3.1-20.44a76.75 76.75.0 0 1-14.15-2.27C1073.36 207.8 1073.28 208.53 1073.19 209.3z"/><path class="cls-3" d="M1108.51 174.17c0-.69 6.75-1.17 6.11-3.16-2-4.11-10.13-27.92-12.86-33.29 1.39.0 3.64-.91 3.64-1.6-1.39-8.53-7.66-20-11-29.47 1.34.0 3.38.0 4-.7.7-2.68-17.52-47.26-18.22-46.57-1.71 1.28-18.47 45.89-16.88 47.05s3.38.91 4.07.22c-2.68 9.43-8.92 20.82-11.69 30.16-.56 1.43 1.95 2.43 2.9 3.25-.08.35-11.25 26.49-13 30.73-.94 2.22 8.26-.58 6 4-2.33 4.76-13.85 26.49-15.28 29-1.21 2.21-4.37 4.63-.35 6.54 2.63 1.49 24.37 4.18 40.43 4.63 21.54.12 45.57-2.85 51.42-7.79C1128.55 206.59 1109.9 183 1108.51 174.17z"/><path class="cls-3" d="M1127.77 207.24c-6.62 5.58-35 7.7-43.32 7.83-23.49-.12-45.92-3.19-48.53-4.67 29.93-1.13 46.89.57 80.69-5.63l-13-26.36L1065 173l39.35-4.67L1096.05 142l-26.71-2.9 26.71-3.25-6.15-26.7-15.15-1.43 14.46-2.9s-6.06-26.84-9.78-44.24a5 5 0 0 1 .73-1.21c.7-.69 18.92 43.89 18.22 46.57-.64.7-2.68.7-4 .7 3.38 9.43 9.65 20.94 11 29.47.0.69-2.25 1.6-3.64 1.6 2.73 5.37 10.82 29.18 12.86 33.29.64 2-6.11 2.47-6.11 3.16C1109.9 183 1128.55 206.59 1127.77 207.24z"/></g><path class="cls-5" d="M1048.86 163.18c-.1-.3-.23-.61-.35-.92l-.1-.22c-.12-.29-.25-.58-.39-.86l-.15-.3c-.1-.19-.19-.37-.3-.56l-.22-.42c-.13-.23-.27-.46-.41-.68s-.22-.35-.33-.52l-.2-.31-.52-.74-.33-.45-.27-.35c-3.61-4.59-8.94-8.06-13.87-6.64 8.25-17.29-15.09-30.14-27.08-20.59-7.33-8.9-23.45-6.45-33.23 1.59a22.62 22.62.0 0 0-6.9 9.21c-2.54-4.33-9.54-4.55-13.29-.89-5.59 5.47-4.64 13.29-.87 19.3l-.79.63c-3.31-1.48-7.75 1.56-9.7 4.2-5.65 7.64 1 14.27 5.6 14.27a8.07 8.07.0 0 0-5.5 6h0s0 0 0 .07.0.27-.08.4.0.16.0.24v.28a7.87 7.87.0 0 0 0 2v0c0 .15.05.29.08.43a1.16 1.16.0 0 0 0 .18c0 .11.05.21.08.32l.08.29c0 .07.05.15.08.23l.15.38.06.13c.07.17.15.33.23.49v0a7.83 7.83.0 0 0 3.24 3.21c2.68 1.47 7 3.68 11.2 2.36a17.94 17.94.0 0 0 3.76-1.66c2.26 2.38 4.75 4.85 4.92 5.2.79.79 1.16 5.83 1.32 7.24.0.18.57 22.54-.13 25.89-.29 1.42-1.34 1.65-2.21 1.94-1.47.4 7 .36 7.3.22.6-.32-.56-.52-.87-1.17-1.11-2.3-1-31.59-.11-34.62.68-1 2.75-4.06 4.5-6.8a18.6 18.6.0 0 0 6.14 1.4h1.09.25 1 1.42.92.26c.32.0.64.0.95-.09h.25l1-.14h.15l.89-.19h.13c.31-.07.61-.16.9-.25l.18-.05c.29-.1.58-.2.86-.32l.14-.06q.43-.18.84-.39h.06c.27-.15.53-.3.78-.46l.07-.05a8.11 8.11.0 0 0 .73-.54l.1-.08c.23-.2.45-.41.67-.63l.06-.07a7.91 7.91.0 0 0 .52-.61c3.59 2.65 8.48 8.09 8.48 18.13.0 15.88-.32 23.55-.32 23.55L996 235s-2.81 1.44 4.92.35 12.89 2.32 13.85 1.22-6.31-3.5-6.53-5.23c-.9-7-3.54-26.84-1-34 1.44-4 5.63-7 9-8.81a28.43 28.43.0 0 0 14.75.49C1041.2 187 1052.13 172.46 1048.86 163.18zM964 194.74c-.66.21-2.23-1-3.95-2.42 2.88-2.1 4.2-4.34 4.95-4.45h.08C964.92 191.38 964.61 194.57 964 194.74zm3.89-.6c-.36.0-.58-2.75-.73-6 1.37.51 2.84 1.52 4.76 2.46C970.15 192.43 968.33 194.15 967.93 194.14zm33.5-2.25c-.77.27-3.1-1.74-5.6-4a18.28 18.28.0 0 0 4.82-1.23C1001.53 189.42 1002.05 191.68 1001.43 191.89zm2.57-.27s-.66-2.63-1.54-5.72a33.07 33.07.0 0 0 5.1-3.13l.28.36zm2.26 1.92s1.86-4 3.78-8.28a19.8 19.8.0 0 0 4 2.41C1010.36 190.19 1006.26 193.54 1006.26 193.54z"/><path class="cls-5" d="M235.3 153.1c.17-.45.33-.91.49-1.36L236 151c.05-.15.1-.29.14-.44 9.91-32.35-34.94-49.46-51.12-33.64a21.37 21.37.0 0 0-18 4.36c-7.3-16.34-17-28.82-25.86-27.85C119.64 95.77 97.15 155.06 108 183c.66 1.93 3.1 3.67 6.11 5.08l.39.19.55.24a43.87 43.87.0 0 0 4.72 1.73h.11l.58.18.77.22.31.08c.67.18 1.32.34 1.94.48h.06l.91.19h.11l.83.16c6.67 1.08 10.54-1 13-2.68a38.4 38.4.0 0 1 1 9.13c0 20.36-.14 28.26.0 32.31s-10.35 6-10.35 6-3.27 1.13 6.07 1c9.82-.16 20.8.43 22-1s-10.22-2.09-10.35-6.2c-.26-8.24-2.37-30.06-.31-40.6 7.4 2.76 22.87 3.83 27.88-2.47a13.08 13.08.0 0 0 1.13-1.69l.91.32.5.16c.6.2 1.22.38 1.84.56l.32.08c.69.19 1.4.37 2.12.53a23.35 23.35.0 0 0 13.49-1 28 28 0 0 1 1.42 9.3c0 17.06.6 36.78.6 36.78a8.32 8.32.0 0 1-4.41 4c-1.95.7-.93.44 6.18.44 5.29.0 7.36.47 6.06-.22-1.65-.88-3.54-2.13-3.63-4-.38-7.27-2.32-38.62-.28-46.32a16.26 16.26.0 0 0 7.52 1.62c15.8-1.22 24.93-8.46 25.67-20.94.33-5.31-2-7.21-3.7-7.88C229.57 158.66 234 156.57 235.3 153.1z"/><g class="cls-2"><path class="cls-3" d="M302 176.89c-1 0 0 8.08-6.45 12-5.86 3.57-15.06 1.25-17.28-1.38-1.55-1.86-5.8 2.49-14.2 1.14a23 23 0 0 1-15.47-11.08s0 0 0-.05c-2.6-4.93-2.05-10.19 4.66-13-8-5.39-5.74-17 4.11-19.56-7.25-8.15 3.71-21.05 14.29-13.63 6.78-7.51 23.05-3.05 17.74 6.47 13.83-1.6 15.89 11 10.31 20.1 3.38-1.78 6.15-1.08 8.09.85v0C312.71 163.8 312.05 176.89 302 176.89z"/><path class="cls-3" d="M302 176.89c-1 0 0 8.08-6.45 12-5.86 3.57-15.06 1.25-17.28-1.38-1.55-1.86-5.8 2.49-14.2 1.14a23 23 0 0 1-15.47-11.08c5.48 6.08 15.78 8.61 16.39-1.5 4.22 7.24 18.78 6.73 23.63-.36 10.24 4.39 17.75-7.17 19.15-16.93C312.71 163.8 312.05 176.89 302 176.89z"/><path class="cls-3" d="M267.2 168.6a19.59 19.59.0 0 1 1.8 2c.07.1-1.95.21-3.61.68-2.32.65-4.48 1.69-4 1.74.82.07 8.14-2 9.61-.8 2.78 2.36 5.56 6.94 5.56 14.24.0 13.41-.26 47.5-.26 47.5l-3.43 1.64s-2.92 1.52 3.16 1.64c6.26.13 7.71.42 8.48-.5s-3.4-1.19-3.54-3.42c-.38-5.91-2.35-48.71-.28-54.72a10.61 10.61.0 0 1 4.62-5.39c.23-.15 5 1.07 5.19.94.5-.29-3.44-1.81-3-2.14 2.12-1.71 3.76-1.52 4.08-1.94.72-1-2.62.06-4.52.82s-7.13 4.48-7.13 4.48 1.56-4.84 3-9.33c.09-.27 4.91-3.23 5-3.51.17-.51-4.39 1.67-4.23 1.18.77-2.34 1.87-5.34 2.12-6 .77-2.08-1.46 2-2.79 5.21-2.19 5.28-2.54 9.33-4.15 9.88s-3.52-5.72-4.68-9.28c-.41-1.26-.83-2.39-1.25-3.41-.13-.32 1.61-6.55 1.48-6.85-.22-.49-2.3 5-2.51 4.56-1.75-3.58-3.12-4.78-2.63-3.43 1.14 3.1 8 19.14 6.74 19.6s-7.94-7.23-12-7.91C262 165.77 267.2 168.6 267.2 168.6z"/><path class="cls-3" d="M267.2 168.6a19.59 19.59.0 0 1 1.8 2c.07.1-1.95.21-3.61.68-2.32.65-4.48 1.69-4 1.74.82.07 8.14-2 9.61-.8 2.78 2.36 5.56 6.94 5.56 14.24.0 13.41-.26 47.5-.26 47.5l-3.43 1.64s-2.92 1.52 3.16 1.64c6.26.13 7.71.42 8.48-.5s-3.4-1.19-3.54-3.42c-.38-5.91-2.35-48.71-.28-54.72a10.61 10.61.0 0 1 4.62-5.39c.23-.15 5 1.07 5.19.94.5-.29-3.44-1.81-3-2.14 2.12-1.71 3.76-1.52 4.08-1.94.72-1-2.62.06-4.52.82s-7.13 4.48-7.13 4.48 1.56-4.84 3-9.33c.09-.27 4.91-3.23 5-3.51.17-.51-4.39 1.67-4.23 1.18.77-2.34 1.87-5.34 2.12-6 .77-2.08-1.46 2-2.79 5.21-2.19 5.28-2.54 9.33-4.15 9.88s-3.52-5.72-4.68-9.28c-.41-1.26-.83-2.39-1.25-3.41-.13-.32 1.61-6.55 1.48-6.85-.22-.49-2.3 5-2.51 4.56-1.75-3.58-3.12-4.78-2.63-3.43 1.14 3.1 8 19.14 6.74 19.6s-7.94-7.23-12-7.91C262 165.77 267.2 168.6 267.2 168.6z"/></g><path class="cls-6" d="M0 0h12e2v3e2H0z"/></g></g></g></svg>