<svg xmlns="http://www.w3.org/2000/svg" viewBox="0 0 217.28 62.9"><defs><style>.cls-1{fill:#f2f2f3}.cls-2{fill:#f5e69a}</style></defs><title>worksPages-night-left</title><g class="star-w"><path class="cls-1" d="M176.81 56.39c0-7-1.89-8.93-8.62-8.93 6.73.0 8.62-2 8.62-8.93.0 7 1.9 8.93 8.63 8.93C178.71 47.46 176.81 49.42 176.81 56.39z"/><path class="cls-1" d="M60.81 21.31c0-7.69-2.08-9.85-9.51-9.85 7.43.0 9.51-2.16 9.51-9.85.0 7.69 2.09 9.85 9.52 9.85C62.9 11.46 60.81 13.62 60.81 21.31z"/><animate attributeType="auto" attributeName="opacity" dur="1.4s" values="0.2;1;0.2" repeatCount="indefinite" begin="700ms"/></g><g class="star-y"><path class="cls-2" d="M11.82 62.9c-.17-9-2.76-11.56-11.82-11.39 9.06-.17 11.56-2.76 11.39-11.82.17 9.06 2.76 11.56 11.82 11.39C14.15 51.25 11.65 53.85 11.82 62.9z"/><path class="cls-2" d="M209 16.92c-.12-6.6-2-8.42-8.62-8.3 6.61-.12 8.43-2 8.31-8.62.12 6.6 2 8.43 8.62 8.31C210.67 8.43 208.85 10.32 209 16.92z"/><animate attributeType="auto" attributeName="opacity" dur="1.4s" values="0.2;1;0.2" repeatCount="indefinite"/></g></svg>