<svg xmlns="http://www.w3.org/2000/svg" viewBox="0 0 1201.01 300.1"><defs><style>.cls-1{fill:#50a33f}.cls-2{fill:#479137}.cls-3{fill:#4d3224}.cls-18,.cls-4{fill:none}.cls-12,.cls-15,.cls-4,.cls-6{stroke:#4d3224;stroke-linecap:round;stroke-linejoin:round}.cls-15,.cls-4,.cls-6{stroke-width:1.5px}.cls-5{fill:#5ab747}.cls-6{fill:#7bb52d}.cls-7{fill:#72a72a}.cls-8{fill:#8acc2b}.cls-9{fill:#68ad59}.cls-10{fill:#60a053}.cls-11{fill:#74c163}.cls-12,.cls-15{fill:#94c28b}.cls-13{fill:#f5ebb2}.cls-14{fill:#d5b68d}.cls-16{fill:#f5e379}.cls-17{fill:#d59b50}</style></defs><title>works-tree</title><g id="圖層_2" data-name="圖層 2"><g id="作品"><path class="cls-1" d="M1114.21 202.25c-17.1 6.57-21.47 1-28.07-5.11.0.0-4 7.43-12.7 8.52-15.65 2-37.45-36.86-9.34-49.78-4.56-23.43 34.32-27.15 44.49-18.06 1.85 1.67 7.81 7.54 6.6 10-.72 1.42 8.26-2.38 14.16 19.58C1133.82 186.5 1119.37 200.26 1114.21 202.25z"/><path class="cls-2" d="M1114.21 202.25c-17.1 6.57-21.47 1-28.07-5.11.0.0-4 7.43-12.7 8.52-12 1.53-27.54-20.84-21.62-37.24.27 18.84 30.88 31.55 34.75 15.53 2.72 14.23 32.63 10.05 29.29-3.87 6.57.1 11.23-5.84 13.49-12.66l.47 1.89C1133.51 184.48 1120.56 199.8 1114.21 202.25z"/><path class="cls-3" d="M1075.59 201.87s13.61 17.41 13.61 38.19c0 15.81-.28 4.78-.42 9.2.0 1.38-3.54 1.8-3.54 3.16s13.2 1.53 13.27-.9c0-.55-2.85-1.6-2.86-2.26-.2-10.46-3.41-24.31-.71-33.07 2.59-8.42 16.59-16.62 15.78-16.32.0.0-1.2-1.35-4.37.46s-12.49 10.85-12.49 10.85 6.8-19.34 7.88-22.56-1.43-3.23-1.43-3.23l-9 23.28-5.8-20.86s-2.94-1.48-2.07 1.52 6.8 19 5 19.7-8.59-7.16-11.45-7.88S1075.59 201.87 1075.59 201.87z"/><path class="cls-4" d="M1114.21 202.25c-17.1 6.57-21.47 1-28.07-5.11.0.0-4 7.43-12.7 8.52-15.65 2-37.45-36.86-9.34-49.78-4.56-23.43 34.32-27.15 44.49-18.06 1.85 1.67 7.81 7.54 6.6 10-.72 1.42 8.26-2.38 14.16 19.58C1133.82 186.5 1119.37 200.26 1114.21 202.25z"/><path class="cls-5" d="M1087 146.87a5 5 0 0 0-1.11 1.14 5.46 5.46.0 0 0-1.07 2.9 7.71 7.71.0 0 0 .3 2.52 2.42 2.42.0 0 0 1 1.46c.49.26 1.19.06 1.8-.7a5.54 5.54.0 0 0 1-3.18 5 5 0 0 0-1-2.93A15.22 15.22.0 0 0 1087 146.87z"/><path class="cls-5" d="M1080.61 147.41a5.51 5.51.0 0 0-.61 3.89c.59 1.85 1.81 3.1 2.74 2.8s1.2-2 .61-3.9A5.43 5.43.0 0 0 1080.61 147.41z"/><path class="cls-5" d="M1074.12 150.87a5.86 5.86.0 0 0 .05 1.4 4.47 4.47.0 0 0 1.17 2.51c1.37 1.37 2.8 2 3.69 1.43s.42-2.51-1.09-4a4.69 4.69.0 0 0-2.43-1.17A7.6 7.6.0 0 0 1074.12 150.87z"/><path class="cls-5" d="M1071.69 157.35a4.66 4.66.0 0 0 2.29 2.3c1.42.6 2.86.51 3.22-.24s-.61-1.87-2.18-2.52A4.49 4.49.0 0 0 1071.69 157.35z"/><path class="cls-5" d="M1093.69 152.92a3 3 0 0 0-2.06.45c-.82.55-1.26 1.36-1 1.83s1.21.34 2.16-.3A3 3 0 0 0 1093.69 152.92z"/><path class="cls-5" d="M1111.27 171.82a3.23 3.23.0 0 0-.93.39 3.55 3.55.0 0 0-1.35 1.44 4.85 4.85.0 0 0-.44 1.56 1.52 1.52.0 0 0 .23 1.11c.23.28.69.33 1.24.0a3.54 3.54.0 0 0 1.37-1.62 3.25 3.25.0 0 0 .14-2A7.45 7.45.0 0 0 1111.27 171.82z"/><path class="cls-5" d="M1102.73 171a3.91 3.91.0 0 0-.32.84 3 3 0 0 0 .07 1.76c.47 1.15 1.16 1.86 1.82 1.76s.86-1.37.35-2.63a3 3 0 0 0-1.14-1.29A5.87 5.87.0 0 0 1102.73 171z"/><path class="cls-5" d="M1099.7 174.2a3 3 0 0 0 .78 1.92c.69.71 1.55 1 2 .66s.1-1.25-.66-2A2.87 2.87.0 0 0 1099.7 174.2z"/><path class="cls-5" d="M1113.73 177a1.87 1.87.0 0 0-1.32-.24c-.62.12-1.08.48-1 .82s.62.5 1.34.36A1.84 1.84.0 0 0 1113.73 177z"/><path class="cls-6" d="M1009.65 251.71c-11.29.26-15.31-6.09-16.34-13.79-2.16-16.21 9.91-57.28 14.34-57.46 3.61-.12 15 30.73 17.2 45C1026.51 235.77 1025.39 251.36 1009.65 251.71z"/><path class="cls-7" d="M1009.65 251.71c-11.29.26-15.31-6.09-16.34-13.79a10.45 10.45.0 0 0 9.54 5.44c11.38-.19 17.62-13.91 20.15-26.38.82 3.12 1.47 6 1.85 8.47C1026.51 235.77 1025.39 251.36 1009.65 251.71z"/><path class="cls-3" d="M1001 244.13c-.39.84 6.76 3.11 6.76 13.78s.53 16.82.53 16.82-4.7 1.43-4.61 2c0 .19 2.32.0 3.44-.07 4.25-.39 6.57.38 7-.39s-3.44-.67-3.6-1.63c-.65-4-1.33-18.18.14-23s6.88-7.68 6-8.07-6.56 5.49-6.56 5.49 3.77-12.38 3.31-12.61-4.6 11.32-4.6 11.32-3.4-10.39-4-9.92 3.49 9.74 2.57 10.11S1001.43 243.3 1001 244.13z"/><path class="cls-4" d="M1009.65 251.71c-11.29.26-15.31-6.09-16.34-13.79-2.16-16.21 9.91-57.28 14.34-57.46 3.61-.12 15 30.73 17.2 45C1026.51 235.77 1025.39 251.36 1009.65 251.71z"/><path class="cls-8" d="M1002.43 220a3.44 3.44.0 0 1 .8.68 3.59 3.59.0 0 1 .89 1.83 5 5 0 0 1 0 1.67 1.55 1.55.0 0 1-.57 1c-.31.2-.78.12-1.23-.34a3.67 3.67.0 0 1-.86-2 3.24 3.24.0 0 1 .46-2A9 9 0 0 1 1002.43 220z"/><path class="cls-8" d="M1006.63 220a3.65 3.65.0 0 1 .66 2.51c-.27 1.25-1 2.15-1.62 2s-.92-1.26-.65-2.52A3.58 3.58.0 0 1 1006.63 220z"/><path class="cls-8" d="M1011.11 221.81a3.54 3.54.0 0 1 .06.92 2.89 2.89.0 0 1-.59 1.72c-.81 1-1.71 1.49-2.34 1.19s-.43-1.62.46-2.71a3.15 3.15.0 0 1 1.51-.93A5.33 5.33.0 0 1 1011.11 221.81z"/><path class="cls-8" d="M1013.14 225.9a3.12 3.12.0 0 1-1.35 1.66c-.9.48-1.84.52-2.13.05s.28-1.26 1.26-1.79A3 3 0 0 1 1013.14 225.9z"/><path class="cls-8" d="M998.41 224.45a2 2 0 0 1 1.38.16c.58.3.92.81.79 1.13s-.78.31-1.44-.05A2 2 0 0 1 998.41 224.45z"/><path class="cls-8" d="M1008.75 196.77a3.42 3.42.0 0 1 .57.89 3.65 3.65.0 0 1 .31 2 5.26 5.26.0 0 1-.53 1.59 1.56 1.56.0 0 1-.85.81c-.35.1-.78-.12-1.07-.69a3.65 3.65.0 0 1-.23-2.19 3.3 3.3.0 0 1 1-1.76A8.69 8.69.0 0 1 1008.75 196.77z"/><path class="cls-8" d="M1012.79 198a3.67 3.67.0 0 1-.12 2.6c-.63 1.11-1.58 1.76-2.14 1.44s-.51-1.47.12-2.6A3.57 3.57.0 0 1 1012.79 198z"/><path class="cls-8" d="M1003.61 199.8a2 2 0 0 1 1.27.56c.46.46.63 1 .41 1.31s-.83.07-1.36-.48A1.93 1.93.0 0 1 1003.61 199.8z"/><path class="cls-9" d="M1157.47 247.71c-22.18.0-40.2-26.31-40.78-59.17.0-37.26 19.32-62.3 40.78-62.3 19 0 35 19.44 39.53 45.7C1203.54 210.45 1184 247.71 1157.47 247.71z"/><path class="cls-10" d="M1178.15 238.59c2-2 12.14-14.69 12.78-18.29-1.81 1.73-14.16-2.89-9.21-8-8.5 3.68-16.86-8.2-16.29-8.26-4.36 12.26-16.86 6.26-16.6 7.67 1.68 8.73-9.75 9.58-13.57 6 1.67 10.43 2.13 13.88-8.49 10.43 2.93 3.57 8.26 12 12.48 12.77C1139.25 240.91 1160.15 256.59 1178.15 238.59z"/><path class="cls-3" d="M1139.93 233.06s16.12 5.77 16.12 26.71-.42 31-.42 31l-7.64 6.28s-3.71 1.9 6.47.46 17 3.06 18.27 1.61-8.33-4.62-8.62-6.9c-1.17-9.19-4.66-35.37-1.27-44.76S1181.21 233 1181.21 233s.41-3.44-4-1.54-15.63 11-15.63 11 9.11-19.8 10.39-23.05-2.75-2.94-2.75-2.94l-10.61 23.47s-4.21-16.62-6.37-19.92-3 .42-3 .42 8.07 19.13 6 19.85-13.15-11.53-16.55-12.25S1139.93 233.06 1139.93 233.06z"/><path class="cls-4" d="M1157.47 247.71c-22.18.0-40.2-26.31-40.78-59.17.0-37.26 19.32-62.3 40.78-62.3 19 0 35 19.44 39.53 45.7C1203.54 210.45 1184 247.71 1157.47 247.71z"/><path class="cls-11" d="M1172.76 154.32a5.26 5.26.0 0 0-1.65.4 5.79 5.79.0 0 0-2.61 2 8.28 8.28.0 0 0-1.17 2.44 2.56 2.56.0 0 0 .09 1.9c.3.52 1 .73 2 .39a5.81 5.81.0 0 0 2.71-2.3 5.35 5.35.0 0 0 .77-3.21A14.68 14.68.0 0 0 1172.76 154.32z"/><path class="cls-11" d="M1166.72 151.19a5.83 5.83.0 0 0-2.76 3.16c-.52 2-.13 3.83.88 4.08s2.24-1.15 2.76-3.17A5.76 5.76.0 0 0 1166.72 151.19z"/><path class="cls-11" d="M1158.9 150.62a5.66 5.66.0 0 0-.75 1.28 4.89 4.89.0 0 0-.38 2.94c.46 2 1.4 3.38 2.52 3.39s1.8-2 1.3-4.24a5.07 5.07.0 0 0-1.52-2.44A8.25 8.25.0 0 0 1158.9 150.62z"/><path class="cls-11" d="M1153 155.08a5 5 0 0 0 .76 3.38c.94 1.34 2.29 2.08 3 1.61s.51-2-.53-3.51A4.79 4.79.0 0 0 1153 155.08z"/><path class="cls-11" d="M1175.38 163.61a3.17 3.17.0 0 0-2.11-.77c-1 0-1.91.51-2 1.07s.9 1 2.12 1A3.11 3.11.0 0 0 1175.38 163.61z"/><path class="cls-11" d="M1137.89 172.57A4.47 4.47.0 0 1 1140 175c.4 1.53.1 2.92-.67 3.12s-1.71-.89-2.11-2.43A4.39 4.39.0 0 1 1137.89 172.57z"/><path class="cls-11" d="M1133.85 178a2.49 2.49.0 0 1 1.62-.59c.8.0 1.46.39 1.49.82s-.69.77-1.62.73A2.42 2.42.0 0 1 1133.85 178z"/><path class="cls-11" d="M1182.61 192.77a3.17 3.17.0 0 0-1.51 1.73c-.28 1.09-.07 2.09.48 2.23s1.23-.63 1.52-1.73A3.17 3.17.0 0 0 1182.61 192.77z"/><path class="cls-11" d="M1178.33 192.45a3.29 3.29.0 0 0-.41.71 2.67 2.67.0 0 0-.21 1.6c.25 1.11.77 1.85 1.38 1.86s1-1.11.71-2.32A2.82 2.82.0 0 0 1179 193 5 5 0 0 0 1178.33 192.45z"/><path class="cls-11" d="M1175.11 194.9a2.74 2.74.0 0 0 .41 1.85c.52.73 1.26 1.14 1.67.88s.28-1.11-.29-1.93A2.61 2.61.0 0 0 1175.11 194.9z"/><path class="cls-12" d="M1095.47 266.33a8.21 8.21.0 0 0-2.83-5.93.7.7.0 0 0-1.16.43 11.53 11.53.0 0 0 1 6.39 9.25 9.25.0 0 0-4.58-6.62.69.69.0 0 0-1 .51 7 7 0 0 0 1.56 5.32 8.36 8.36.0 0 0-4.72-3.11.7.7.0 0 0-.82.86 6.05 6.05.0 0 0 3.73 4.24c-1.56-1.13-3.27-2.31-5.19-2.27-1.76.0-3.54 1.67-3.27 3.3a.7.7.0 0 0 .53.56c5.22 1.23 10.65 1.09 16 .95a14.83 14.83.0 0 0 4.7-.63 5.46 5.46.0 0 0 2.86-2.21.69.69.0 0 0-.73-1l-.24.07a.69.69.0 0 1-.89-.8l.44-2a1.76 1.76.0 0 0-.19-1.62c-.7-.73-1.92.22-2.14 1.2s-.1 2.13-.78 2.87c.38-1.86 1.22-4.48-.28-5.65a.84.84.0 0 0-1.17-.06C1094.72 262 1095.22 264.56 1095.47 266.33z"/><path class="cls-12" d="M1176.49 294.51a8.17 8.17.0 0 0-3-5.83.69.69.0 0 0-1.14.46 11.53 11.53.0 0 0 1.19 6.35 9.29 9.29.0 0 0-4.8-6.46.7.7.0 0 0-1 .55 7.06 7.06.0 0 0 1.74 5.27 8.44 8.44.0 0 0-4.82-3 .71.71.0 0 0-.8.89 6.09 6.09.0 0 0 3.87 4.12c-1.59-1.08-3.34-2.21-5.26-2.1-1.76.09-3.48 1.79-3.15 3.41a.68.68.0 0 0 .55.54c5.25 1.05 10.68.73 16 .41a15.07 15.07.0 0 0 4.68-.79 5.51 5.51.0 0 0 2.78-2.31.7.7.0 0 0-.77-1l-.24.09a.69.69.0 0 1-.91-.78l.37-2a1.76 1.76.0 0 0-.24-1.61c-.73-.7-1.91.29-2.11 1.27s0 2.14-.68 2.9c.33-1.88 1.07-4.52-.47-5.64a.84.84.0 0 0-1.16.0C1175.6 290.2 1176.18 292.74 1176.49 294.51z"/><path class="cls-12" d="M1060.86 256.59a4.66 4.66.0 0 0-1.73-3.33.4.4.0 0 0-.66.26 6.75 6.75.0 0 0 .68 3.64 5.28 5.28.0 0 0-2.74-3.7.4.4.0 0 0-.58.31 4 4 0 0 0 1 3 4.83 4.83.0 0 0-2.76-1.69.4.4.0 0 0-.46.5 3.5 3.5.0 0 0 2.22 2.36 5.17 5.17.0 0 0-3-1.2c-1 .05-2 1-1.8 1.95a.39.39.0 0 0 .32.31 35.59 35.59.0 0 0 9.17.23 8.27 8.27.0 0 0 2.67-.45 3.17 3.17.0 0 0 1.6-1.32.4.4.0 0 0-.44-.58l-.14.05a.4.4.0 0 1-.52-.45l.21-1.15a1.07 1.07.0 0 0-.14-.93c-.41-.4-1.09.17-1.2.73s0 1.22-.39 1.66c.18-1.08.61-2.59-.27-3.22a.48.48.0 0 0-.67.0C1060.35 254.13 1060.68 255.58 1060.86 256.59z"/><path class="cls-12" d="M992.77 277.94a6 6 0 0 0-2.2-4.25.51.51.0 0 0-.84.34 8.53 8.53.0 0 0 .87 4.63 6.73 6.73.0 0 0-3.5-4.71.51.51.0 0 0-.73.4 5.1 5.1.0 0 0 1.27 3.83 6.16 6.16.0 0 0-3.51-2.15.51.51.0 0 0-.58.65 4.43 4.43.0 0 0 2.82 3 6.54 6.54.0 0 0-3.84-1.53c-1.28.07-2.53 1.3-2.29 2.48a.51.51.0 0 0 .4.4 45.55 45.55.0 0 0 11.67.29 10.89 10.89.0 0 0 3.41-.57 4 4 0 0 0 2-1.68.5.5.0 0 0-.55-.74.64.64.0 0 0-.18.06.5.5.0 0 1-.66-.57l.26-1.47a1.26 1.26.0 0 0-.17-1.17c-.53-.51-1.39.21-1.53.93s0 1.55-.5 2.1c.24-1.36.78-3.29-.34-4.1a.61.61.0 0 0-.85.0C992.12 274.8 992.54 276.65 992.77 277.94z"/><path class="cls-13" d="M985.52 250.41a1.75 1.75.0 0 1-1.29.3 1 1 0 0 1 .72.46.76.76.0 0 1-.14.82 1.82 1.82.0 0 1-1.95.43 1.23 1.23.0 0 1-.82-1 1.37 1.37.0 0 1-.79.87 1.45 1.45.0 0 1-1.62-.2.79.79.0 0 1 .22-1.09 2.76 2.76.0 0 1 1-.48 2.67 2.67.0 0 1-1.81-.25.72.72.0 0 1-.37-.38.47.47.0 0 1 .1-.39 1.61 1.61.0 0 1 1.35-.61 1.85 1.85.0 0 1 .94.31.79.79.0 0 1 .15-.94 1.58 1.58.0 0 1 1.72-.18.88.88.0 0 1 .42 1.07 1.47 1.47.0 0 1 2.33.54A.71.71.0 0 1 985.52 250.41z"/><path class="cls-14" d="M983 250.29c0-.25-.34-.45-.76-.45s-.76.2-.76.45.34.46.76.46S983 250.54 983 250.29z"/><path class="cls-13" d="M962 254.5a2.43 2.43.0 0 1-1.76.41 1.26 1.26.0 0 1 1 .63 1.08 1.08.0 0 1-.18 1.13 2.55 2.55.0 0 1-2.68.59 1.71 1.71.0 0 1-1.12-1.38 2 2 0 0 1-1.08 1.2 2 2 0 0 1-2.23-.28 1.09 1.09.0 0 1 .31-1.49 3.54 3.54.0 0 1 1.33-.66 3.75 3.75.0 0 1-2.48-.34 1 1 0 0 1-.52-.53.69.69.0 0 1 .14-.53 2.23 2.23.0 0 1 1.86-.83 2.47 2.47.0 0 1 1.28.42 1.09 1.09.0 0 1 .22-1.29 2.13 2.13.0 0 1 2.35-.24 1.2 1.2.0 0 1 .57 1.46 2 2 0 0 1 1.62-.48 1.93 1.93.0 0 1 1.57 1.22A1 1 0 0 1 962 254.5z"/><path class="cls-14" d="M958.57 254.34c0-.35-.46-.63-1-.63s-1 .28-1 .63.47.62 1 .62S958.57 254.68 958.57 254.34z"/><path class="cls-13" d="M938.62 246.94a2.25 2.25.0 0 1 1.63-.45 1.19 1.19.0 0 1-.94-.55 1 1 0 0 1 .13-1.07 2.41 2.41.0 0 1 2.5-.65 1.6 1.6.0 0 1 1.1 1.25 1.81 1.81.0 0 1 1-1.15 1.88 1.88.0 0 1 2.11.18 1 1 0 0 1-.24 1.41 3.39 3.39.0 0 1-1.23.67 3.44 3.44.0 0 1 2.35.23.93.93.0 0 1 .5.47.68.68.0 0 1-.11.51 2.08 2.08.0 0 1-1.72.84 2.26 2.26.0 0 1-1.22-.35 1 1 0 0 1-.16 1.23 2 2 0 0 1-2.2.3 1.13 1.13.0 0 1-.59-1.35 1.89 1.89.0 0 1-3-.58A.92.92.0 0 1 938.62 246.94z"/><path class="cls-14" d="M941.81 247c0 .32.46.57 1 .55s1-.3 1-.63-.46-.57-1-.55S941.8 246.65 941.81 247z"/><path class="cls-13" d="M1115.67 254.39a2.37 2.37.0 0 1 1.75-.42 1.23 1.23.0 0 1-1-.64 1.07 1.07.0 0 1 .18-1.14 2.46 2.46.0 0 1 2.66-.6 1.72 1.72.0 0 1 1.13 1.39 2 2 0 0 1 1.07-1.21 1.94 1.94.0 0 1 2.22.29 1.12 1.12.0 0 1-.3 1.51 3.79 3.79.0 0 1-1.33.67 3.61 3.61.0 0 1 2.47.34 1 1 0 0 1 .52.54.73.73.0 0 1-.14.54 2.17 2.17.0 0 1-1.86.84 2.38 2.38.0 0 1-1.27-.43 1.13 1.13.0 0 1-.22 1.32 2.1 2.1.0 0 1-2.34.24 1.22 1.22.0 0 1-.57-1.48 2 2 0 0 1-1.62.48 1.93 1.93.0 0 1-1.56-1.24A1 1 0 0 1 1115.67 254.39z"/><path class="cls-14" d="M1119.05 254.56c0 .35.47.63 1 .63s1-.28 1-.63-.47-.64-1-.64S1119.05 254.21 1119.05 254.56z"/><path class="cls-13" d="M1047.66 275.1a3 3 0 0 1 2.2-.53 1.55 1.55.0 0 1-1.22-.8 1.34 1.34.0 0 1 .23-1.43 3.09 3.09.0 0 1 3.33-.75 2.15 2.15.0 0 1 1.41 1.74 2.6 2.6.0 0 1 4.13-1.15 1.4 1.4.0 0 1-.38 1.89 4.64 4.64.0 0 1-1.66.84 4.55 4.55.0 0 1 3.09.43 1.22 1.22.0 0 1 .64.67.86.86.0 0 1-.17.68 2.74 2.74.0 0 1-2.32 1.05 2.92 2.92.0 0 1-1.6-.54 1.41 1.41.0 0 1-.27 1.65 2.61 2.61.0 0 1-2.93.3 1.53 1.53.0 0 1-.72-1.85 2.49 2.49.0 0 1-4-.95A1.22 1.22.0 0 1 1047.66 275.1z"/><path class="cls-14" d="M1051.9 275.31c0 .43.59.79 1.3.79s1.3-.36 1.3-.79-.58-.8-1.3-.8S1051.9 274.87 1051.9 275.31z"/><path class="cls-13" d="M1071.44 275.77a1.76 1.76.0 0 1 1.28-.31.87.87.0 0 1-.71-.46.79.79.0 0 1 .13-.83 1.81 1.81.0 0 1 1.95-.44 1.28 1.28.0 0 1 .82 1 1.51 1.51.0 0 1 2.4-.67.8.8.0 0 1-.22 1.1 2.54 2.54.0 0 1-1 .49 2.68 2.68.0 0 1 1.81.25.73.73.0 0 1 .37.39.53.53.0 0 1-.1.4 1.6 1.6.0 0 1-1.35.61 1.7 1.7.0 0 1-.93-.31.84.84.0 0 1-.16 1 1.52 1.52.0 0 1-1.71.18.9.9.0 0 1-.42-1.09 1.38 1.38.0 0 1-1.18.36 1.4 1.4.0 0 1-1.14-.91A.73.73.0 0 1 1071.44 275.77z"/><path class="cls-14" d="M1073.91 275.89c0 .26.34.47.76.47s.76-.21.76-.47-.34-.46-.76-.46S1073.91 275.64 1073.91 275.89z"/><path class="cls-1" d="M148.61 198.68c1.82.71 4.22 2.69 3.88 8.26-.78 13.09-10.36 20.68-26.92 22-5.19.4-10.83-3.24-10.83-3.24a24.77 24.77.0 0 1-17.43 2.67C82.45 225 73.06 216.81 71.74 201.21 71 192.91 78.62 188 78.62 188s-7-7.28-5-15.95 13.66-20.51 27.73-17.34c17.4-17 66.47 2.31 52.68 37.95C152.69 196.28 148.07 198.47 148.61 198.68z"/><path class="cls-2" d="M148.61 198.68c1.82.71 4.22 2.69 3.88 8.26-.78 13.09-10.36 20.68-26.92 22-5.19.4-10.83-3.24-10.83-3.24a24.77 24.77.0 0 1-17.43 2.67c-13.33-3-21.76-9.72-24.63-21.49 6 8.1 16.23 13.56 20.27 4.32 2.4 13.39 37.65 11.94 36.43-.81 7.29 3 16.43-6.21 9.41-12.08 9.08-.07 14.94-12.82 16.76-24.49a30.71 30.71.0 0 1-1.48 18.86C152.69 196.28 148.07 198.47 148.61 198.68z"/><path class="cls-4" d="M148.61 198.68c1.82.71 4.22 2.69 3.88 8.26-.78 13.09-10.36 20.68-26.92 22-5.19.4-10.83-3.24-10.83-3.24a24.77 24.77.0 0 1-17.43 2.67C82.45 225 73.06 216.81 71.74 201.21 71 192.91 78.62 188 78.62 188s-7-7.28-5-15.95 13.66-20.51 27.73-17.34c17.4-17 66.47 2.31 52.68 37.95C152.69 196.28 148.07 198.47 148.61 198.68z"/><path class="cls-3" d="M101.21 216.82s11.73 2.27 11.73 20.15.64 18.3.64 18.3a8.78 8.78.0 0 1-4.63 4.17c-2 .73-1 .46 6.48.46 5.55.0 7.72.49 6.36-.23-1.74-.93-3.72-2.24-3.82-4.17-.41-7.84-2.56-21-.1-29s13.35-10.75 12.33-11.71-11.75 6.78-12.34 6.54 3.46-13.06 4.39-15.84-1.5-1-2.31.93-4 13.87-5 14.45-3.87-17.69-5.31-18.27-1.3.43-1.27 2.09 5.48 15 3.94 15.64-7.26-4-9.72-4.66S101.21 216.82 101.21 216.82z"/><path class="cls-5" d="M116.31 165.36a4.9 4.9.0 0 1 1.13 1.17 5.53 5.53.0 0 1 1.09 2.94 7.66 7.66.0 0 1-.31 2.57 2.42 2.42.0 0 1-1 1.49c-.51.27-1.21.06-1.84-.72a5.52 5.52.0 0 1-1-3.23 5 5 0 0 1 1-3A14.43 14.43.0 0 1 116.31 165.36z"/><path class="cls-5" d="M122.78 165.92a5.55 5.55.0 0 1 .62 4c-.6 1.88-1.84 3.15-2.79 2.84s-1.22-2.07-.62-4A5.49 5.49.0 0 1 122.78 165.92z"/><path class="cls-5" d="M129.39 169.43a6.12 6.12.0 0 1 0 1.43 4.57 4.57.0 0 1-1.19 2.56c-1.4 1.4-2.86 2-3.77 1.46s-.42-2.56 1.12-4.09A4.84 4.84.0 0 1 128 169.6 8.65 8.65.0 0 1 129.39 169.43z"/><path class="cls-5" d="M131.86 176a4.77 4.77.0 0 1-2.33 2.34c-1.45.61-2.91.52-3.27-.25s.61-1.89 2.21-2.56A4.57 4.57.0 0 1 131.86 176z"/><path class="cls-5" d="M109.46 171.53a3 3 0 0 1 2.1.45c.83.56 1.28 1.39 1 1.86s-1.23.36-2.2-.3A3 3 0 0 1 109.46 171.53z"/><path class="cls-5" d="M91.55 190.77a3.44 3.44.0 0 1 1 .41 3.53 3.53.0 0 1 1.37 1.46 4.79 4.79.0 0 1 .45 1.59 1.52 1.52.0 0 1-.24 1.13c-.23.28-.69.34-1.25.0a3.51 3.51.0 0 1-1.4-1.65 3.23 3.23.0 0 1-.14-2A7.81 7.81.0 0 1 91.55 190.77z"/><path class="cls-5" d="M100.25 189.93a3.87 3.87.0 0 1 .32.85 3 3 0 0 1-.06 1.8c-.48 1.17-1.19 1.89-1.86 1.79s-.88-1.4-.36-2.68a3.13 3.13.0 0 1 1.16-1.31A5.51 5.51.0 0 1 100.25 189.93z"/><path class="cls-5" d="M103.34 193.2a3.07 3.07.0 0 1-.79 2c-.71.71-1.59 1-2 .66s-.11-1.27.67-2.06A2.92 2.92.0 0 1 103.34 193.2z"/><path class="cls-5" d="M89 196.09a2 2 0 0 1 1.35-.25c.63.12 1.1.5 1.06.84s-.64.52-1.37.37A1.91 1.91.0 0 1 89 196.09z"/><path class="cls-9" d="M87.8 235c-7.76 9.76-35.47 5.47-39.62.44-2.91-3.55-6.26 7.74-22 5.18-7-1.23-20-5.44-21.89-10.85C-9.35 194.56 19 119.93 46.13 117S106.62 211.44 87.8 235z"/><path class="cls-10" d="M92.5 223.2c-.86 4.83-2.37 8.87-4.7 11.78-7.76 9.76-35.47 5.47-39.62.44-2.91-3.55-6.26 7.74-22 5.18-5.66-1-16.82-4.24-20.76-9 14.24 4.63 26.52-6.35 13.09-21.88 5.12 4.83 20.44 3.7 18.19-8-.35-1.88 16.4 6.16 22.24-10.27-.76.08 7.73 23 19.11 18.08C71.42 216.3 90.07 225.52 92.5 223.2z"/><path class="cls-3" d="M27.41 217.28s16.48 5.81 16.48 31.44-.18 35.57.0 40.67-13 7.6-13 7.6-4.12 1.43 7.64 1.23c12.36-.2 26.18.54 27.64-1.23s-12.88-2.62-13-7.8c-.35-11.27-3.46-42.74.41-54.23s19.33-16.79 19.33-16.79 2.3-4.07-1.45-2.21-19.33 12.81-19.33 12.81S56.76 212 57.88 208c1.51-5.55-.17-8.32-.17-8.32l-9 26s-4.61-14.18-6.29-18.8-1.35.46-1.35.46 6.2 17.9 3.78 18.78-11.6-8.84-15.47-9.72S27.41 217.28 27.41 217.28z"/><path class="cls-4" d="M87.8 235c-7.76 9.76-35.47 5.47-39.62.44-2.91-3.55-6.26 7.74-22 5.18-7-1.23-20-5.44-21.89-10.85C-9.35 194.56 19 119.93 46.13 117S106.62 211.44 87.8 235z"/><path class="cls-11" d="M33.2 146.24a5.63 5.63.0 0 1 1.68.41 5.89 5.89.0 0 1 2.66 2 8.11 8.11.0 0 1 1.19 2.49 2.59 2.59.0 0 1-.09 1.93c-.3.53-1 .75-2.06.4a6 6 0 0 1-2.76-2.34A5.48 5.48.0 0 1 33 147.9 15.5 15.5.0 0 1 33.2 146.24z"/><path class="cls-11" d="M39.35 143.06a6 6 0 0 1 2.82 3.22c.52 2 .13 3.9-.9 4.16s-2.28-1.18-2.81-3.23A5.88 5.88.0 0 1 39.35 143.06z"/><path class="cls-11" d="M47.31 142.47a6 6 0 0 1 .77 1.32 4.93 4.93.0 0 1 .39 3c-.47 2.06-1.43 3.45-2.57 3.46s-1.83-2.06-1.32-4.32a5.16 5.16.0 0 1 1.55-2.48A9.58 9.58.0 0 1 47.31 142.47z"/><path class="cls-11" d="M53.3 147a5.08 5.08.0 0 1-.76 3.44c-1 1.37-2.34 2.12-3.1 1.64s-.52-2.06.54-3.58A4.86 4.86.0 0 1 53.3 147z"/><path class="cls-11" d="M30.53 155.71a3.3 3.3.0 0 1 2.16-.79c1.06.0 1.94.52 2 1.09s-.92 1-2.16 1A3.18 3.18.0 0 1 30.53 155.71z"/><path class="cls-11" d="M68.71 164.83a4.58 4.58.0 0 0-2.15 2.47c-.4 1.55-.1 3 .69 3.17s1.74-.9 2.15-2.46A4.54 4.54.0 0 0 68.71 164.83z"/><path class="cls-11" d="M72.83 170.39a2.53 2.53.0 0 0-1.65-.6c-.82.0-1.48.4-1.52.84s.7.78 1.66.75A2.49 2.49.0 0 0 72.83 170.39z"/><path class="cls-11" d="M23.17 185.4a3.28 3.28.0 0 1 1.54 1.77c.28 1.11.07 2.13-.49 2.27s-1.25-.64-1.55-1.76A3.27 3.27.0 0 1 23.17 185.4z"/><path class="cls-11" d="M27.53 185.08a3.86 3.86.0 0 1 .42.72 2.79 2.79.0 0 1 .21 1.64c-.26 1.12-.78 1.88-1.41 1.89s-1-1.13-.72-2.36a2.78 2.78.0 0 1 .85-1.37A5.09 5.09.0 0 1 27.53 185.08z"/><path class="cls-11" d="M30.81 187.57a2.81 2.81.0 0 1-.42 1.89c-.53.75-1.28 1.16-1.7.89s-.28-1.13.3-1.95A2.65 2.65.0 0 1 30.81 187.57z"/><path class="cls-6" d="M224.23 251.52c-2.23 2.4-4.65 5.13-9.63 1.29-2.87-2.23-5.19-6.44-6.89-11.95-3.12-10.15-4.21-24.75-3.08-39.72 1.29-17.07 17.24-32.82 25.55-9.79.39 1.1.78 2.29 1.13 3.56C236.43 213.2 234.87 240.1 224.23 251.52z"/><path class="cls-7" d="M224.23 251.52c-2.23 2.4-4.65 5.13-9.63 1.29-2.87-2.23-5.19-6.44-6.89-11.95 7.85 8.06 19.43.9 14.06-16.3 7.22-1.68 8.35-19.29 8.41-33.21.39 1.1.78 2.29 1.13 3.56C236.43 213.2 234.87 240.1 224.23 251.52z"/><path class="cls-3" d="M212.16 242.51c1.15 1 4.51 4 5 6.29a33.4 33.4.0 0 1 .72 7.22c0 12.44.48 19.86.48 19.86L215 278s-3.7 2.22 1.45 1.37 7.88.77 8.52-.08-3.6-.81-3.7-4.18c-.17-5.47-1.66-20.77.06-26.34s5.76-5.82 6-7.27-1-.72-1-.72l-5.66 5s2.36-6.91 3-8.84-.35-2-1.2-.08l-3.3 7.42s-1.93-5.57-2.41-7.42c-.23-.87-.94-2-1.21-.65s3 7.86 1.91 8.29-3.52-2.26-5.2-3.38C210.77 240.09 210.64 241.23 212.16 242.51z"/><path class="cls-4" d="M224.23 251.52c-2.23 2.4-4.65 5.13-9.63 1.29-2.87-2.23-5.19-6.44-6.89-11.95-3.12-10.15-4.21-24.75-3.08-39.72 1.29-17.07 17.24-32.82 25.55-9.79.39 1.1.78 2.29 1.13 3.56C236.43 213.2 234.87 240.1 224.23 251.52z"/><path class="cls-8" d="M216.3 190.85a3.5 3.5.0 0 1 .82.68 3.7 3.7.0 0 1 .9 1.86 5.2 5.2.0 0 1 0 1.7 1.56 1.56.0 0 1-.58 1c-.31.21-.79.13-1.25-.34a3.75 3.75.0 0 1-.87-2.05 3.36 3.36.0 0 1 .47-2A9 9 0 0 1 216.3 190.85z"/><path class="cls-8" d="M220.56 190.78a3.67 3.67.0 0 1 .67 2.55c-.27 1.27-1 2.18-1.63 2s-.94-1.27-.67-2.55A3.65 3.65.0 0 1 220.56 190.78z"/><path class="cls-8" d="M225.11 192.64a3.77 3.77.0 0 1 .06.94 3.06 3.06.0 0 1-.6 1.75c-.82 1-1.74 1.51-2.37 1.2s-.44-1.64.46-2.74a3.16 3.16.0 0 1 1.54-.95A6.1 6.1.0 0 1 225.11 192.64z"/><path class="cls-8" d="M227.16 196.79a3.12 3.12.0 0 1-1.37 1.69c-.9.49-1.86.53-2.15.05s.28-1.28 1.28-1.82A3 3 0 0 1 227.16 196.79z"/><path class="cls-8" d="M212.23 195.33a2 2 0 0 1 1.4.16c.58.31.93.82.8 1.14s-.79.32-1.46.0A2 2 0 0 1 212.23 195.33z"/><path class="cls-8" d="M214.55 222a3.38 3.38.0 0 1 .57.9 3.65 3.65.0 0 1 .31 2 5 5 0 0 1-.53 1.61 1.63 1.63.0 0 1-.86.82c-.36.1-.79-.12-1.09-.7a3.68 3.68.0 0 1-.22-2.22 3.29 3.29.0 0 1 1-1.79A8.77 8.77.0 0 1 214.55 222z"/><path class="cls-8" d="M218.64 223.25a3.67 3.67.0 0 1-.12 2.62c-.64 1.13-1.61 1.79-2.17 1.47s-.52-1.5.12-2.63A3.6 3.6.0 0 1 218.64 223.25z"/><path class="cls-8" d="M209.33 225.11a2 2 0 0 1 1.29.56c.46.47.64 1.06.42 1.34s-.85.06-1.38-.49A2 2 0 0 1 209.33 225.11z"/><path class="cls-15" d="M27.88 293.06a11 11 0 0 1 3.77-7.91.94.94.0 0 1 1.56.56 15.45 15.45.0 0 1-1.31 8.53A12.34 12.34.0 0 1 38 285.41a.92.92.0 0 1 1.37.69 9.35 9.35.0 0 1-2.09 7.09 11.3 11.3.0 0 1 6.3-4.16.94.94.0 0 1 1.1 1.16 8.11 8.11.0 0 1-5 5.66c2.07-1.52 4.35-3.09 6.92-3 2.35.0 4.72 2.22 4.36 4.41a.94.94.0 0 1-.72.74c-7 1.63-14.2 1.46-21.34 1.27a20 20 0 0 1-6.27-.84 7.36 7.36.0 0 1-3.82-2.95.93.93.0 0 1 1-1.39l.32.1a.92.92.0 0 0 1.18-1.08l-.57-2.67a2.35 2.35.0 0 1 .24-2.16c.93-1 2.56.3 2.86 1.6s.13 2.84 1 3.83c-.52-2.49-1.63-6 .38-7.53a1.11 1.11.0 0 1 1.55-.09C28.88 287.28 28.22 290.69 27.88 293.06z"/><path class="cls-15" d="M120.64 260.8a5.12 5.12.0 0 1 1.77-3.72.44.44.0 0 1 .73.26 7.27 7.27.0 0 1-.61 4 5.8 5.8.0 0 1 2.87-4.16.43.43.0 0 1 .64.32 4.41 4.41.0 0 1-1 3.34 5.25 5.25.0 0 1 3-2 .44.44.0 0 1 .52.54 3.78 3.78.0 0 1-2.33 2.67 5.68 5.68.0 0 1 3.25-1.44c1.11.0 2.22 1 2.06 2.07a.45.45.0 0 1-.34.36 39.65 39.65.0 0 1-10 .61 9.18 9.18.0 0 1-3-.39 3.55 3.55.0 0 1-1.8-1.38.44.44.0 0 1 .46-.66l.16.05a.43.43.0 0 0 .55-.51l-.27-1.25a1.1 1.1.0 0 1 .11-1c.44-.46 1.2.14 1.35.75s.06 1.34.49 1.8c-.25-1.17-.77-2.81.17-3.54a.52.52.0 0 1 .73.0C121.1 258.08 120.8 259.68 120.64 260.8z"/><path class="cls-15" d="M94.41 286.72a7.35 7.35.0 0 1 2.71-5.22.63.63.0 0 1 1 .41 10.36 10.36.0 0 1-1.07 5.69 8.27 8.27.0 0 1 4.3-5.78.61.61.0 0 1 .9.49 6.29 6.29.0 0 1-1.56 4.71 7.48 7.48.0 0 1 4.32-2.64.62.62.0 0 1 .71.79 5.44 5.44.0 0 1-3.46 3.69c1.42-1 3-2 4.71-1.88 1.57.08 3.11 1.6 2.82 3a.63.63.0 0 1-.5.49c-4.7.93-9.55.65-14.34.36a13.44 13.44.0 0 1-4.19-.7 5 5 0 0 1-2.49-2.07.62.62.0 0 1 .68-.91l.22.07a.62.62.0 0 0 .82-.69l-.33-1.81a1.62 1.62.0 0 1 .21-1.45c.65-.62 1.71.26 1.89 1.15s0 1.91.61 2.59c-.29-1.68-1-4.05.42-5.05a.75.75.0 0 1 1 0C95.21 282.86 94.69 285.13 94.41 286.72z"/><path class="cls-15" d="M193.51 283a6.05 6.05.0 0 1 2.24-4.3.52.52.0 0 1 .85.34 8.65 8.65.0 0 1-.88 4.69 6.82 6.82.0 0 1 3.54-4.77.52.52.0 0 1 .75.41 5.2 5.2.0 0 1-1.29 3.88 6.2 6.2.0 0 1 3.56-2.18.52.52.0 0 1 .59.66 4.49 4.49.0 0 1-2.86 3 6.62 6.62.0 0 1 3.89-1.55c1.29.06 2.57 1.32 2.32 2.52a.51.51.0 0 1-.4.4 46.42 46.42.0 0 1-11.84.3 10.82 10.82.0 0 1-3.45-.59 4.06 4.06.0 0 1-2.06-1.7.52.52.0 0 1 .57-.75l.18.06a.51.51.0 0 0 .67-.57l-.27-1.49a1.32 1.32.0 0 1 .17-1.2c.54-.51 1.42.22 1.56.95s0 1.57.5 2.13c-.24-1.38-.79-3.33.35-4.16a.61.61.0 0 1 .86.0C194.17 279.85 193.75 281.73 193.51 283z"/><path class="cls-16" d="M76.93 275.11a1.87 1.87.0 0 0-1.49-.4 1.06 1.06.0 0 0 .83-.6 1.12 1.12.0 0 0-.16-1.08 2 2 0 0 0-2.27-.56 1.58 1.58.0 0 0-1 1.31 1.76 1.76.0 0 0-.92-1.14 1.54 1.54.0 0 0-1.89.27 1.11 1.11.0 0 0 .26 1.42 2.91 2.91.0 0 0 1.13.63 2.86 2.86.0 0 0-2.11.33.89.89.0 0 0-.44.5.73.73.0 0 0 .12.51 1.8 1.8.0 0 0 1.58.79 1.84 1.84.0 0 0 1.09-.4 1.16 1.16.0 0 0 .18 1.24 1.66 1.66.0 0 0 2 .22 1.2 1.2.0 0 0 .49-1.39 1.58 1.58.0 0 0 1.38.46 1.7 1.7.0 0 0 1.33-1.17A1 1 0 0 0 76.93 275.11z"/><path class="cls-17" d="M74 275.26c0 .33-.39.6-.88.6s-.89-.27-.89-.6.4-.6.89-.6S74 274.93 74 275.26z"/><path class="cls-13" d="M88.81 269.5a2 2 0 0 0-1.63-.44 1.19 1.19.0 0 0 .91-.65 1.2 1.2.0 0 0-.17-1.18 2.17 2.17.0 0 0-2.48-.62 1.73 1.73.0 0 0-1 1.44 2 2 0 0 0-1-1.25 1.7 1.7.0 0 0-2.07.29 1.23 1.23.0 0 0 .28 1.56 3.27 3.27.0 0 0 1.24.69 3.14 3.14.0 0 0-2.31.35 1 1 0 0 0-.47.55.76.76.0 0 0 .13.56 1.94 1.94.0 0 0 1.72.86 2 2 0 0 0 1.19-.44 1.28 1.28.0 0 0 .2 1.36 1.82 1.82.0 0 0 2.19.24A1.31 1.31.0 0 0 86 271.3a1.68 1.68.0 0 0 1.5.5A1.86 1.86.0 0 0 89 270.53 1.09 1.09.0 0 0 88.81 269.5z"/><path class="cls-14" d="M85.66 269.66c0 .36-.43.66-1 .66s-1-.3-1-.66.43-.65 1-.65S85.66 269.3 85.66 269.66z"/><path class="cls-13" d="M164 262.67a1.66 1.66.0 0 0 1.3.34.93.93.0 0 0-.72.52 1 1 0 0 0 .13.94 1.74 1.74.0 0 0 2 .5 1.41 1.41.0 0 0 .83-1.15 1.58 1.58.0 0 0 .8 1 1.33 1.33.0 0 0 1.65-.24 1 1 0 0 0-.22-1.24 2.81 2.81.0 0 0-1-.55 2.45 2.45.0 0 0 1.84-.28.77.77.0 0 0 .38-.44.67.67.0 0 0-.1-.45 1.58 1.58.0 0 0-1.38-.69 1.68 1.68.0 0 0-.95.36 1 1 0 0 0-.16-1.08 1.43 1.43.0 0 0-1.74-.2 1.05 1.05.0 0 0-.43 1.22 1.35 1.35.0 0 0-1.2-.41 1.49 1.49.0 0 0-1.16 1A.88.88.0 0 0 164 262.67z"/><path class="cls-14" d="M166.52 262.53c0-.29.34-.52.77-.52s.77.23.77.52-.34.52-.77.52S166.52 262.82 166.52 262.53z"/><path class="cls-13" d="M243.66 295.88a2.44 2.44.0 0 1 1.8-.43 1.29 1.29.0 0 1-1-.65 1.12 1.12.0 0 1 .19-1.18 2.55 2.55.0 0 1 2.74-.62 1.81 1.81.0 0 1 1.16 1.43 2.13 2.13.0 0 1 3.38-.95 1.14 1.14.0 0 1-.31 1.56 3.69 3.69.0 0 1-1.37.69 3.77 3.77.0 0 1 2.55.35 1 1 0 0 1 .52.55.69.69.0 0 1-.14.56 2.23 2.23.0 0 1-1.9.86 2.31 2.31.0 0 1-1.31-.44 1.18 1.18.0 0 1-.23 1.36 2.16 2.16.0 0 1-2.41.24 1.26 1.26.0 0 1-.58-1.52 2 2 0 0 1-1.66.5 2 2 0 0 1-1.61-1.28A1 1 0 0 1 243.66 295.88z"/><path class="cls-14" d="M247.14 296.05c0 .36.48.65 1.07.65s1.06-.29 1.06-.65-.47-.65-1.06-.65S247.14 295.69 247.14 296.05z"/><path class="cls-13" d="M149.6 289.8a2.4 2.4.0 0 1 1.8-.44 1.28 1.28.0 0 1-1-.65 1.1 1.1.0 0 1 .19-1.18 2.55 2.55.0 0 1 2.74-.62 1.78 1.78.0 0 1 1.15 1.44 2 2 0 0 1 1.11-1.25 2 2 0 0 1 2.28.29 1.15 1.15.0 0 1-.31 1.56 3.76 3.76.0 0 1-1.37.69 3.78 3.78.0 0 1 2.55.35 1 1 0 0 1 .52.55.72.72.0 0 1-.14.56 2.23 2.23.0 0 1-1.9.86 2.37 2.37.0 0 1-1.32-.44 1.16 1.16.0 0 1-.22 1.36 2.16 2.16.0 0 1-2.41.24 1.27 1.27.0 0 1-.59-1.52 2 2 0 0 1-3.27-.77A1 1 0 0 1 149.6 289.8z"/><path class="cls-14" d="M153.08 290c0 .36.48.66 1.07.66s1.06-.3 1.06-.66-.47-.65-1.06-.65S153.08 289.6 153.08 290z"/><path class="cls-13" d="M169.12 288.61a1.39 1.39.0 0 1 1-.25.75.75.0 0 1-.58-.38.65.65.0 0 1 .11-.69 1.48 1.48.0 0 1 1.59-.36 1 1 0 0 1 .68.84 1.23 1.23.0 0 1 2-.56.67.67.0 0 1-.18.91 2.23 2.23.0 0 1-.8.4 2.18 2.18.0 0 1 1.49.21.55.55.0 0 1 .3.32.38.38.0 0 1-.08.32 1.28 1.28.0 0 1-1.11.5 1.38 1.38.0 0 1-.76-.25.69.69.0 0 1-.13.79 1.27 1.27.0 0 1-1.41.14.74.74.0 0 1-.34-.89 1.12 1.12.0 0 1-1 .29 1.17 1.17.0 0 1-.94-.74A.6.6.0 0 1 169.12 288.61z"/><path class="cls-14" d="M171.15 288.71c0 .21.28.38.62.38s.62-.17.62-.38-.27-.38-.62-.38S171.15 288.5 171.15 288.71z"/><path class="cls-18" d="M1.01.0h12e2v3e2H1.01z"/></g></g></svg>