<svg xmlns="http://www.w3.org/2000/svg" viewBox="0 0 34.83 50.32"><defs><style>.cls-1{fill:#70a365}.cls-2{fill:#794f34}.cls-12,.cls-2,.cls-3,.cls-7,.cls-9{stroke:#4d3224;stroke-linecap:round;stroke-linejoin:round}.cls-2,.cls-3{stroke-width:.85px}.cls-3,.cls-5{fill:#f6e0b2}.cls-4{fill:#e7c48d}.cls-6{fill:#a66c3d}.cls-10,.cls-12,.cls-7,.cls-9{fill:#fff}.cls-7{stroke-width:.74px}.cls-8{fill:#f1e7e0}.cls-9{stroke-width:.73px}.cls-11{fill:#4d3224}.cls-12{stroke-width:.68px}.cls-13{fill:#f5ebb2}.cls-14{fill:#d5b68d}.cls-15{fill:#f1d4c2}.cls-16{fill:#f5e69a}.cls-17{fill:#f2f2f3}.cls-18{fill:#eed658}</style></defs><title>works-rabbitldpi</title><g id="圖層_2" data-name="圖層 2"><g id="作品"><path class="cls-1" d="M2.83 38.81A3.75 3.75.0 0 0 0 42.4a4.51 4.51.0 0 0 2.74 4.31 35.24 35.24.0 0 0 29 .94 4.57 4.57.0 0 0 2.19-1.53 5.22 5.22.0 0 0 .82-3.7 3.23 3.23.0 0 0-2.89-2.79C22.2 37.74 12.39 35.85 2.83 38.81z"/><path class="cls-2" d="M7 29.25c-1.64 1.07-.2 5.81-.59 7.57C6 38.28 5.05 39.09 4.06 40.09c-.84.84-2.84 1.92-3 3.14 2.26.19 3.87-1.48 6-1.65a2.25 2.25.0 0 1 2.44 1.17c.39.76-.07 2.61.49 3.16 1.18 1.16 3-3.67 4.64-3.67 2.12.0 3.34 3.26 4.2 4.8.32.56.92 2.16 1.62 2.15 1 0 1.44-2.09 1.51-2.78.15-1.59-.15-4.78 2.14-4.83 1.74.0 3.78 3.06 5.43 2 2-1.23-1.86-2.84-1.42-4 .5-1.35 3 .46 3.75.45 1.66.0.0-1.73-.91-2.25a17.57 17.57.0 0 1-3.29-2.15c-2-1.86-2.32-3.83-2.27-6.22.0-.26-6.28-.44-9.39-.37l-6.3.13C9.16 29.2 7.47 28.92 7 29.25z"/><path class="cls-3" d="M8.59 28c3.43-1.21 7.11-1.16 10.7-1 1.54.06 5.35.24 6.13 1.95 1.34 2.92-7.29 2.67-8.59 2.65-2.75.0-6.91.36-9.39-1-2.73-1.47 2.07-3 3.25-3.23z"/><path class="cls-4" d="M9.73 28.32a28.87 28.87.0 0 1 9-.69c1.29.0 4.49.19 5.16 1.38 1.14 2-6.12 1.84-7.22 1.82-2.32.0-5.81.22-7.9-.73-2.3-1 1.73-2.07 2.72-2.24z"/><path class="cls-5" d="M10.88 28.56a30.5 30.5.0 0 1 7.54-.41c1.09.0 3.77.14 4.33.93 1 1.35-5.12 1.18-6 1.16-1.94.0-4.86.12-6.62-.51-1.93-.7 1.44-1.36 2.27-1.47z"/><path class="cls-4" d="M14.13 28.94A12.28 12.28.0 0 1 17 28.78c.42.0 1.46.06 1.68.37.37.52-2 .45-2.33.44a9.41 9.41.0 0 1-2.56-.19c-.75-.27.55-.53.88-.57z"/><path class="cls-6" d="M14.54 32.78c0-.16-.27-.17-.25.0.06.65.12 1.3.13 1.95a.13.13.0 1 0 .25.0C14.66 34.08 14.61 33.43 14.54 32.78z"/><path class="cls-6" d="M15.8 38.23a17.21 17.21.0 0 1-.19-1.76c0-.16-.27-.1-.24.06a17.41 17.41.0 0 0 .19 1.77C15.6 38.46 15.84 38.39 15.8 38.23z"/><path class="cls-6" d="M16.69 33.66a.13.13.0 0 0-.26.0 8.46 8.46.0 0 0 .07 1.23c0 .16.27.09.25-.06A7.65 7.65.0 0 1 16.69 33.66z"/><path class="cls-6" d="M17.44 36.88v.57a.13.13.0 0 0 .26.0v-.57A.13.13.0 0 0 17.44 36.88z"/><path class="cls-6" d="M19.14 33.56c0-.16-.28-.09-.24.07a2.92 2.92.0 0 1 .06.72.13.13.0 1 0 .25.0A3.52 3.52.0 0 0 19.14 33.56z"/><path class="cls-6" d="M20 38.27V39a.13.13.0 1 0 .25.0v-.75A.13.13.0 1 0 20 38.27z"/><path class="cls-6" d="M20.73 34.1c0-.16-.26-.16-.26.0a12 12 0 0 0 .26 2c0 .16.27.09.24-.07A11.2 11.2.0 0 1 20.73 34.1z"/><path class="cls-6" d="M22.24 32.3c0-.16-.27-.09-.25.07.07.4.13.8.19 1.2.0.16.27.09.25-.07C22.36 33.1 22.3 32.7 22.24 32.3z"/><path class="cls-6" d="M22.92 35.3c-.07-.15-.29.0-.22.13a1 1 0 0 1 .05.38.13.13.0 0 0 .25.0A1.24 1.24.0 0 0 22.92 35.3z"/><path class="cls-6" d="M24.56 33.22a3.3 3.3.0 0 1-.3-.73.13.13.0 0 0-.25.07 4.45 4.45.0 0 0 .33.78C24.41 33.49 24.63 33.36 24.56 33.22z"/><path class="cls-6" d="M25.33 35.71l-.19-.57c-.05-.15-.3-.09-.24.07l.18.57C25.14 35.93 25.38 35.86 25.33 35.71z"/><path class="cls-6" d="M27.25 36.35a5.39 5.39.0 0 1-.8-1.11c-.07-.15-.28.0-.22.12a5.11 5.11.0 0 0 .84 1.17C27.18 36.65 27.36 36.47 27.25 36.35z"/><path class="cls-6" d="M8.23 32.78v1a.13.13.0 0 0 .25.0v-1a.13.13.0 1 0-.25.0z"/><path class="cls-6" d="M8.29 35.74a1.89 1.89.0 0 1-.29.95.12.12.0 0 0 .21.13 2.21 2.21.0 0 0 .34-1.08C8.55 35.58 8.3 35.58 8.29 35.74z"/><path class="cls-6" d="M7 38.17a1.55 1.55.0 0 1-.34.76.13.13.0 0 0 .18.18 1.85 1.85.0 0 0 .41-.87C7.25 38.08 7 38 7 38.17z"/><path class="cls-6" d="M9.8 37.35a.13.13.0 0 0-.24.07 1.22 1.22.0 0 1-.11 1c-.08.14.13.27.21.13A1.42 1.42.0 0 0 9.8 37.35z"/><path class="cls-6" d="M12.84 38.2v.51a.13.13.0 0 0 .25.0V38.2a.13.13.0 0 0-.25.0z"/><path class="cls-6" d="M13.22 34.67v1.07a.13.13.0 0 0 .25.0V34.67a.13.13.0 0 0-.25.0z"/><path class="cls-6" d="M10.31 33.53a8.42 8.42.0 0 1-.18 1.74c0 .16.21.22.24.06a9 9 0 0 0 .2-1.8A.13.13.0 0 0 10.31 33.53z"/><path class="cls-6" d="M11.63 35.46c0-.16-.26-.1-.24.06a7.65 7.65.0 0 1 .06 1.17.13.13.0 0 0 .25.0A7.19 7.19.0 0 0 11.63 35.46z"/><path class="cls-6" d="M12 33.09v.76a.13.13.0 0 0 .26.0v-.76A.13.13.0 0 0 12 33.09z"/><path class="cls-7" d="M13.08 15.84c-.12.0-.49.82-.54.91a16.2 16.2.0 0 0-1.13 2.56 20.81 20.81.0 0 0-.85 3.91c-.27 2-1.16 5 1.61 5.59 1.39.31 2.65-.45 4-.31a12.25 12.25.0 0 0 2.42.08c1.74-.15 2.82-1.1 2.58-2.9a22.63 22.63.0 0 0-1.38-6.09 18 18 0 0 0-.92-1.87c-.16-.27-1-2-1.32-2z"/><path class="cls-8" d="M18.23 19.13a3.52 3.52.0 0 0-3.46-1.77c-1.73.39-2.6 2.21-2.83 3.82-.28 1.89.18 3.78 2 4.65 3.37 1.55 5.08-.48 5.51-2.7A5.45 5.45.0 0 0 18.23 19.13z"/><path class="cls-9" d="M18.53 9c.2-.88.17-1.8.38-2.69A30.65 30.65.0 0 1 20.3 1.6c.43-1.08 1.21-2 1.62-.32A9.84 9.84.0 0 1 21.46 6c-.51 1.63-1.54 3.13-1.75 4.83z"/><path class="cls-9" d="M11.27 9.92c-1-1.41-1.33-3.67-1.72-5.35a6.24 6.24.0 0 1 0-3.68c1-.32 2.13 3 2.41 3.74a9.93 9.93.0 0 1 .53 2.6c.06.68-.15 2 .42 2.46z"/><ellipse class="cls-10" cx="15.59" cy="11.58" rx="5.68" ry="4.9"/><path class="cls-8" d="M11.46 8.4A3.84 3.84.0 0 1 11.24 8c-.07-.19-.1-.4-.15-.59-.16-.54-.29-1.08-.44-1.62a8 8 0 0 1-.39-2.47c.8.0 1.08 1.93 1.22 2.51s.09 2 .66 2.52c-.24.0-.38.17-.55.28C11.55 8.56 11.51 8.48 11.46 8.4z"/><path class="cls-8" d="M19.23 8a5.67 5.67.0 0 1 .35-1.72 18.21 18.21.0 0 1 .9-2.44c.09-.2.4-1.13.62-.91s0 1-.05 1.18c-.17 1-.47 1.9-.72 2.83-.08.32-.39 1.39-.63 1.46z"/><path class="cls-9" d="M20.28 8.82a5 5 0 0 1 1 2.18 4.14 4.14.0 0 1-2.63 4.79c-.35.13-.71.27-1.07.39"/><path class="cls-9" d="M12.67 7.51a5.15 5.15.0 0 1 1.68-.67 7 7 0 0 1 2.57-.06 5.45 5.45.0 0 1 1.52.51"/><path class="cls-9" d="M13.63 16.19A7 7 0 0 1 12 15.74a3.79 3.79.0 0 1-2-2.31A4.16 4.16.0 0 1 10.36 10c.2-.36.39-.72.61-1"/><path class="cls-9" d="M13 16.14c-.25.26-1.08.84-1.29 1.13a2.1 2.1.0 0 0-.25 2 7.59 7.59.0 0 0 2.34 3.24c1.74 1.18.71-1.05.33-1.86"/><path class="cls-9" d="M17.81 18.88a7.34 7.34.0 0 1-.92 2.06c-.34.6-2.11 3-.14 2.35a3.71 3.71.0 0 0 1.32-.76 4.8 4.8.0 0 0 1.37-3.29c0-1.08-.3-2.79-1.49-3.15"/><path class="cls-10" d="M15.47 15.93a.25.25.0 0 0-.07.22.08.08.0 1 0 .15.0.42.42.0 0 1 0-.12C15.63 16 15.53 15.87 15.47 15.93z"/><path class="cls-11" d="M18.4 11.73c0-.32-.26-.51-.47-.49a.22.22.0 0 0-.29.11.8.8.0 0 0-.1.61V12a.56.56.0 0 0 .15.38.34.34.0 0 0 .33.07A.68.68.0 0 0 18.4 11.73z"/><path class="cls-11" d="M14 11.68c0-.31-.26-.51-.47-.49a.22.22.0 0 0-.29.11.81.81.0 0 0-.1.61V12a.55.55.0 0 0 .15.38.32.32.0 0 0 .33.07A.68.68.0 0 0 14 11.68z"/><path class="cls-11" d="M16.43 14.68c-.07.08-.12.15-.24.16a.32.32.0 0 1-.35-.17.79.79.0 0 1-.05-.3c0-.14.0-.29.0-.43a.07.07.0 0 0-.14.0 3 3 0 0 0 0 .31.78.78.0 0 1 0 .43.34.34.0 0 1-.55.0c-.06-.11-.24.0-.17.1a.49.49.0 0 0 .7.12.51.51.0 0 0 .16-.17.37.37.0 0 0 .13.15.52.52.0 0 0 .73-.1C16.64 14.72 16.51 14.59 16.43 14.68z"/><path class="cls-11" d="M16.22 13.11c0 .22-.14.32-.25.48s-.17.31-.25.46a2.1 2.1.0 0 1-.53-.58c-.06-.11-.24-.42-.13-.55s.63.14.58.22C15.8 12.91 16.16 12.81 16.22 13.11z"/><path class="cls-11" d="M18.81 13.85s0 0 0 0 0 0 0-.05v0c.3-.18 1-.62 1.29-.47a0 0 0 0 1 0 .05.0.0.0 0 1-.05.0c-.26-.13-1 .31-1.22.48h-.05z"/><path class="cls-11" d="M19.28 14.46a1.52 1.52.0 0 1-.44-.05.0.0.0 0 1 0-.07 2 2 0 0 0 .6.05h.18a0 0 0 0 1 0 .08z"/><path class="cls-11" d="M19.21 14.08A.58.58.0 0 1 19 14a0 0 0 0 1 0 0s0 0 0 0a1.11 1.11.0 0 0 .52.0h.3a0 0 0 1 1 0 .08 1 1 0 0 0-.29.0z"/><path class="cls-11" d="M12.55 13.65h0a1.93 1.93.0 0 0-1.32.0s0 0-.05.0.0.0.0.0a2 2 0 0 1 1.39.0.0.0.0 0 1 0 .05z"/><path class="cls-11" d="M11.83 14.14s0 0 0 0a0 0 0 0 1 0 0 3 3 0 0 1 .71-.18.0.0.0 0 1 0 0s0 0 0 0a2.86 2.86.0 0 0-.7.17z"/><path class="cls-11" d="M11.85 14.73h0a0 0 0 0 1 0-.06 1.67 1.67.0 0 1 .49-.29l.31-.16a0 0 0 0 1 0 0s0 0 0 0a3.18 3.18.0 0 1-.32.16 1.54 1.54.0 0 0-.47.28z"/><path class="cls-11" d="M16 13.06c-.07.06.0.17.11.1a.13.13.0 0 0 0-.1C16.15 13 16 13 16 13.06z"/><ellipse class="cls-10" cx="13.65" cy="11.57" rx=".21" ry=".28"/><ellipse class="cls-10" cx="18.03" cy="11.53" rx=".21" ry=".28"/><path class="cls-12" d="M13.76 28.22a5 5 0 0 1-2.85.74A4.62 4.62.0 0 1 8 28.29a.73.73.0 0 1-.14-.92c.66-1.26 2.9-.45 3.56.33"/><path class="cls-12" d="M17.4 28.36a5 5 0 0 0 2.85.74 4.67 4.67.0 0 0 2.94-.67.73.73.0 0 0 .14-.92c-.66-1.26-2.89-.45-3.56.33"/><path class="cls-13" d="M9 19.52a2 2 0 0 0 1.6.43 1.13 1.13.0 0 0-.89.64 1.2 1.2.0 0 0 .17 1.15 2.11 2.11.0 0 0 2.43.6 1.72 1.72.0 0 0 1-1.4 1.9 1.9.0 0 0 1 1.22 1.64 1.64.0 0 0 2-.29A1.19 1.19.0 0 0 16 20.35a3.11 3.11.0 0 0-1.21-.67 3.06 3.06.0 0 0 2.26-.35.93.93.0 0 0 .46-.54.71.71.0 0 0-.12-.54 2 2 0 0 0-1.69-.85 2 2 0 0 0-1.16.44 1.25 1.25.0 0 0-.2-1.33 1.76 1.76.0 0 0-2.13-.24 1.29 1.29.0 0 0-.52 1.49 1.66 1.66.0 0 0-1.47-.49A1.82 1.82.0 0 0 8.8 18.52 1.06 1.06.0 0 0 9 19.52z"/><path class="cls-14" d="M12.05 19.36c0-.35.42-.64.94-.64s.95.29.95.64S13.51 20 13 20 12.05 19.71 12.05 19.36z"/><path class="cls-15" d="M15.41 20.4a1.52 1.52.0 0 0 1.22.33.88.88.0 0 0-.68.49.93.93.0 0 0 .13.89 1.63 1.63.0 0 0 1.87.46 1.34 1.34.0 0 0 .79-1.08 1.42 1.42.0 0 0 .75.94A1.27 1.27.0 0 0 21 22.21.91.91.0 0 0 20.83 21a2.49 2.49.0 0 0-.93-.52 2.31 2.31.0 0 0 1.73-.27.72.72.0 0 0 .36-.41.59.59.0 0 0-.1-.42 1.48 1.48.0 0 0-1.29-.65 1.6 1.6.0 0 0-.9.33.92.92.0 0 0-.15-1 1.36 1.36.0 0 0-1.64-.19 1 1 0 0 0-.4 1.15 1.27 1.27.0 0 0-1.13-.38 1.41 1.41.0 0 0-1.1 1A.82.82.0 0 0 15.41 20.4z"/><path class="cls-16" d="M17.78 20.28c0-.27.32-.49.73-.49s.72.22.72.49-.32.49-.72.49S17.78 20.55 17.78 20.28z"/><path class="cls-17" d="M13.8 16.61a1.34 1.34.0 0 0 1.06.29.75.75.0 0 0-.59.42.8.8.0 0 0 .11.77 1.4 1.4.0 0 0 1.62.4 1.14 1.14.0 0 0 .69-.93 1.27 1.27.0 0 0 .65.81 1.1 1.1.0 0 0 1.35-.19.8.8.0 0 0-.19-1 2.16 2.16.0 0 0-.8-.45 2 2 0 0 0 1.5-.23.64.64.0 0 0 .31-.36.52.52.0 0 0-.08-.36 1.33 1.33.0 0 0-1.9-.28.82.82.0 0 0-.14-.88A1.17 1.17.0 0 0 16 14.44a.86.86.0 0 0-.35 1 1.1 1.1.0 0 0-1-.32 1.21 1.21.0 0 0-1 .83A.7.7.0 0 0 13.8 16.61z"/><path class="cls-18" d="M15.86 16.5c0-.23.28-.42.63-.42s.63.19.63.42-.28.43-.63.43S15.86 16.74 15.86 16.5z"/></g></g></svg>