<svg xmlns="http://www.w3.org/2000/svg" xmlns:xlink="http://www.w3.org/1999/xlink" viewBox="0 0 76.14 53.46"><defs><style>.cls-1{fill:#70a365}.cls-2{fill:#4c3e33}.cls-2,.cls-5,.cls-9{stroke:#4d3224}.cls-12,.cls-15,.cls-18,.cls-2,.cls-5,.cls-9{stroke-linecap:round;stroke-linejoin:round;stroke-width:.61px}.cls-3{fill:#4d3224}.cls-4{fill:#4c3f35}.cls-10,.cls-5{fill:#5e4e43}.cls-6{fill:#fff}.cls-7{fill:#f0e1cc}.cls-8{fill:#f8ede0}.cls-18,.cls-9{fill:none}.cls-11{fill:url(#鍊踑臇蜸馯鳺艜_202)}.cls-12{fill:#58473c}.cls-12,.cls-15,.cls-18{stroke:#59392b}.cls-13{fill:#59392b}.cls-14{fill:#58483e}.cls-15,.cls-16{fill:#69564c}.cls-17{fill:url(#鍊踑臇蜸馯鳺艜_2)}</style><linearGradient id="鍊踑臇蜸馯鳺艜_202" x1="56.45" y1="21.43" x2="50.87" y2="28.53" gradientUnits="userSpaceOnUse"><stop offset="0" stop-color="#77645a"/><stop offset=".23" stop-color="#69584d"/><stop offset=".48" stop-color="#5e4e43"/></linearGradient><linearGradient id="鍊踑臇蜸馯鳺艜_2" x1="100.83" y1="35.89" x2="97.42" y2="40.23" gradientTransform="matrix(-1, 0, 0, 1, 142.13, 0)" gradientUnits="userSpaceOnUse"><stop offset="0" stop-color="#806b62"/><stop offset=".21" stop-color="#746057"/><stop offset=".48" stop-color="#69564c"/></linearGradient></defs><title>works-pigldpi</title><g id="圖層_2" data-name="圖層 2"><g id="作品"><path class="cls-1" d="M6.47 44.33c-1.68.33-3.71 1.1-3.78 2.64s2.09 2.46 3.86 2.8a92.89 92.89.0 0 0 39.82-1 8.16 8.16.0 0 0 3-1.18 2.37 2.37.0 0 0 1-2.6c-.51-1.35-2.45-1.66-4-1.75C33 42.46 19.52 41.73 6.47 44.33z"/><path class="cls-1" d="M42.14 45.54c-1.31.27-2.9 1-3 2.48s1.53 2.55 2.89 3a56.29 56.29.0 0 0 30.83.62 5.55 5.55.0 0 0 2.33-1.06A2.7 2.7.0 0 0 76.07 48c-.35-1.37-1.84-1.76-3.07-1.91C62.74 44.78 52.31 43.49 42.14 45.54z"/><path class="cls-2" d="M15.55 46.34S13.09 41 12.93 40.52a12 12 0 0 1 .41-2.08c.4-1.9.78-3 .59-3.39s-5-7.58-5-7.58 2.6-7.26 9.38-6.51 7.15 4.42 7.15 4.42A26.84 26.84.0 0 1 21 33.73c-2.94 3.41-4.78 5.07-4.88 5.35a37.75 37.75.0 0 0 0 4.24c.06.73 1.26 2.47 1.06 2.55S15.55 46.34 15.55 46.34z"/><path class="cls-2" d="M32.61 32.44c.71.89 3.72 10.35 4 12.42.0.0.42 1.24 1 1.18s.64-.83.64-.83a32.34 32.34.0 0 1 .28-7.66c.64-5.19 4.58-9.65 4.79-10.43s-8.92-1.75-8.92-1.75z"/><path class="cls-3" d="M14.85 44.83a20.44 20.44.0 0 0 .6 2.7c.16.09 2.88.0 2.88.0l-.49-1 .89.93.89-.06s-3.15-3.21-3.19-3.29-.68 1-.76 1a1.85 1.85.0 0 1-.41-.24l.09.63z"/><path class="cls-3" d="M36.62 44.3a20.44 20.44.0 0 0 .6 2.7 27.81 27.81.0 0 0 2.89.0l-.5-1 .89.92.89-.06s-3.15-3.2-3.19-3.28-.68 1-.76 1a1.85 1.85.0 0 1-.41-.24l.1.63z"/><path class="cls-4" d="M40.77 22.41a13.84 13.84.0 0 0 4.63 2.84A49.21 49.21.0 0 0 51.88 27l-.05.21s-.12.23-1.08.29a34.79 34.79.0 0 1-6.9-2.25c-2.9-1.42-3.12-2-3.16-2.12A3.5 3.5.0 0 1 40.77 22.41z"/><path class="cls-4" d="M48.83 27S44 27.11 41 26.87a18.92 18.92.0 0 1-3.37-.39A3.36 3.36.0 0 0 38 27a11.81 11.81.0 0 0 3.81.66c1.07.0 7.52.0 9-.2z"/><path class="cls-5" d="M51.22 18.32c-1.76-1.82-3-4.58-4.59-6.58-3.33-4.07-7.77-8-13.42-7.33-3.41.43-6.11 3.69-8.93 5.32a18.09 18.09.0 0 1-7.59 2.08c-4.78.5-10.48.36-12.55 5.39a9.72 9.72.0 0 0-2.39 4.33C1 25.08 1.28 34.44 1.28 34.44h.66s.29-9.38.61-10.8 1.34.62 1.34.62h0c.07.23.13.45.21.68s.14.34.23.53h0s4.39 9.23 4.58 9.58-.19 1.49-.59 3.39a12 12 0 0 0-.41 2.08c.16.5 2.62 5.82 2.62 5.82S12 46 12.22 45.87s-1-1.82-1.06-2.55a40 40 0 0 1 0-4.24c.09-.28 1.93-1.94 4.87-5.35.19-.22.38-.46.56-.69 4.88 1.27 9.87 2.25 14.78 1.31a77.14 77.14.0 0 1 1.77 10.22s.28 1.28.86 1.28.72-.74.72-.74a32.38 32.38.0 0 1 1.14-7.58c1.23-5.09 5.65-9.08 5.94-9.83h0s8.89.16 9.93-.41 3.83-5.89 3.83-6.08C55.55 20.65 51.79 18.91 51.22 18.32z"/><path class="cls-3" d="M1.27 32.5a6.23 6.23.0 0 0-1.1 5.3l.22-1.18a4.43 4.43.0 0 0 1 3.43 6.59 6.59.0 0 0 .73-4.28 5 5 0 0 1 .43 2.09A7.67 7.67.0 0 0 2 32.5s-.14.68-.31.69-.16-.51-.16-.51-.08.34-.18.33S1.27 32.5 1.27 32.5z"/><path class="cls-3" d="M9.83 44.83a20.44 20.44.0 0 0 .6 2.7c.16.09 2.89.0 2.89.0l-.5-1 .89.93.89-.06s-3.15-3.21-3.19-3.29-.68 1-.76 1a1.85 1.85.0 0 1-.41-.24l.1.63z"/><path class="cls-3" d="M33.17 44.63a19 19 0 0 0 .6 2.7 27.62 27.62.0 0 0 2.88.0l-.5-1 .89.92.89-.06s-3.15-3.2-3.19-3.28-.68 1-.76 1a1.87 1.87.0 0 1-.41-.23l.1.63z"/><path class="cls-5" d="M40.33 9.92c-.85.0-1.11.19-1.9-1.36A41.62 41.62.0 0 1 35.68 2c-.12-.93-.17-1.71-.17-1.71s-2.26 1.41-3.3 6.74 1.66 7.52 2.16 7.76"/><path class="cls-3" d="M34.7 3.69A9.64 9.64.0 0 0 32.92 8.6c-.31 3.15 1.07 4.89 2.08 5s1.51-1 2-1.76a1 1 0 0 1 1.18-.54S37.42 10 36.2 7.51a18.88 18.88.0 0 1-1.5-3.82z"/><path class="cls-3" d="M41.87 14.43s.84-1.37 2-.76.6 2 .6 2-1.1.81-1.91.38S41.87 14.43 41.87 14.43z"/><path class="cls-3" d="M41.39 15.05s.32.07 1-.37 1.1-.58 1.35-.15.63 1.19.63 1.19a2.44 2.44.0 0 0 .38.5s.55-1.82-.71-2.64a1.73 1.73.0 0 0-2.44.77A2.13 2.13.0 0 0 41.39 15.05z"/><path class="cls-6" d="M44.42 15a.6.6.0 0 0-1.12.32C43.35 16 44.74 15.84 44.42 15z"/><path class="cls-7" d="M43.1 24.15a5.7 5.7.0 0 1 1.51-2.59c1.25-1.4 2.45-1.58 2.68-1.46s-.16.29-.85 2a8.61 8.61.0 0 0-.59 3.3A11.7 11.7.0 0 1 43.1 24.15z"/><path class="cls-8" d="M44.47 23.74c-.37-.27-.14-1.63.8-2.59a2.85 2.85.0 0 1 2-1c.09.09-.59.84-1.07 1.81S44.93 24.07 44.47 23.74z"/><path class="cls-9" d="M43.1 24.15a5.7 5.7.0 0 1 1.51-2.59c1.25-1.4 2.45-1.58 2.68-1.46s-.16.29-.85 2a8.61 8.61.0 0 0-.59 3.3"/><path class="cls-10" d="M51.83 27.21c.06-.72 2.59-5.42 3.72-6.3s2.48-.7 2.6-.34-2 2.49-3.9 4.55S51.83 27.21 51.83 27.21z"/><path class="cls-11" d="M53.32 25.41a17.52 17.52.0 0 1 2.45-4.06c.81-.8 2-.81 2-.57S53.35 25.51 53.32 25.41z"/><path class="cls-9" d="M51.83 27.21c.06-.72 2.59-5.42 3.72-6.3s2.48-.7 2.6-.34-2 2.49-3.9 4.55S51.83 27.21 51.83 27.21z"/><path class="cls-12" d="M66.28 51.11s1.51-3.25 1.6-3.56a7 7 0 0 0-.25-1.27 6.57 6.57.0 0 1-.35-2.07c.11-.21 3-4.63 3-4.63s-1.58-4.43-5.73-4-4.36 2.71-4.36 2.71a16.45 16.45.0 0 0 2.72 5.09c1.8 2.09 2.92 3.1 3 3.27a25 25 0 0 1 0 2.59c0 .45-.77 1.51-.64 1.56S66.28 51.11 66.28 51.11z"/><path class="cls-12" d="M55.86 42.61a43 43 0 0 0-2.41 7.59s-.26.76-.61.72-.39-.5-.39-.5a19.77 19.77.0 0 0-.17-4.68c-.39-3.17-2.8-5.9-2.93-6.37S54.8 38.3 54.8 38.3z"/><path class="cls-13" d="M66.71 50.18a11.29 11.29.0 0 1-.37 1.65 17.19 17.19.0 0 1-1.76.0l.31-.63-.55.57h-.54s1.93-1.95 2-2 .41.61.46.61a1.09 1.09.0 0 0 .25-.15l-.06.39z"/><path class="cls-13" d="M53.41 49.86a12.65 12.65.0 0 1-.36 1.65 17.19 17.19.0 0 1-1.76.0l.3-.63-.55.57h-.54s1.93-1.95 2-2 .41.61.46.61a1.19 1.19.0 0 0 .26-.15l-.06.39z"/><path class="cls-14" d="M50.88 36.49a8.59 8.59.0 0 1-2.83 1.74 29.52 29.52.0 0 1-4 1.06v.13s.08.14.66.18A21.61 21.61.0 0 0 49 38.23c1.77-.87 1.9-1.24 1.93-1.3A2.55 2.55.0 0 0 50.88 36.49z"/><path class="cls-14" d="M46 39.31s2.93.0 4.79-.1A10.31 10.31.0 0 0 52.81 39a1.54 1.54.0 0 1-.23.35 7.44 7.44.0 0 1-2.32.4c-.66.0-4.6.0-5.48-.12z"/><path class="cls-15" d="M44.49 34c1.08-1.11 1.81-2.8 2.81-4 2-2.48 4.75-4.9 8.2-4.47 2.08.26 3.73 2.25 5.45 3.24A10.87 10.87.0 0 0 65.59 30c2.91.31 6.4.23 7.67 3.3A6 6 0 0 1 74.72 36 49.45 49.45.0 0 1 75 43.84h-.4s-.18-5.73-.37-6.6-.82.38-.82.38h0c0 .14-.09.28-.13.41l-.14.33h0s-2.68 5.64-2.8 5.85.12.91.36 2.07A8 8 0 0 1 71 47.55c-.1.31-1.6 3.56-1.6 3.56s-.91-.24-1-.29.61-1.11.64-1.56a22.72 22.72.0 0 0 0-2.59c-.07-.17-1.19-1.18-3-3.27a4.87 4.87.0 0 1-.35-.42 20.69 20.69.0 0 1-9 .81A46.44 46.44.0 0 0 55.55 50s-.17.79-.53.79-.44-.46-.44-.46a19.62 19.62.0 0 0-.7-4.63c-.74-3.11-3.44-5.54-3.62-6h0s-5.42.1-6.06-.25-2.34-3.59-2.34-3.71C41.85 35.41 44.15 34.35 44.49 34z"/><path class="cls-13" d="M75 42.65a3.82 3.82.0 0 1 .67 3.24l-.14-.72a2.71 2.71.0 0 1-.62 2.1 4 4 0 0 1-.45-2.62 2.92 2.92.0 0 0-.26 1.28 4.66 4.66.0 0 1 .38-3.28s.08.42.19.42.09-.31.09-.31.0.21.11.2S75 42.65 75 42.65z"/><path class="cls-13" d="M69.78 50.18a11.29 11.29.0 0 1-.37 1.65 17.19 17.19.0 0 1-1.76.0l.3-.63-.54.57h-.54s1.92-1.95 1.94-2 .42.61.47.61a1.37 1.37.0 0 0 .25-.15l-.06.39z"/><path class="cls-13" d="M55.52 50.06a12.65 12.65.0 0 1-.36 1.65 17.19 17.19.0 0 1-1.76.0l.3-.62-.54.56h-.55s1.93-2 2-2 .42.61.47.61a1.37 1.37.0 0 0 .25-.15l-.06.39z"/><path class="cls-15" d="M51.15 28.86c.52.0.68.11 1.16-.83A25.06 25.06.0 0 0 54 24c.07-.58.1-1.05.1-1.05s1.38.86 2 4.12-1 4.59-1.32 4.73"/><path class="cls-13" d="M54.59 25.06a5.81 5.81.0 0 1 1.08 3c.19 1.93-.65 3-1.26 3s-.93-.59-1.2-1.08a.63.63.0 0 0-.73-.33s.45-.75 1.19-2.28A11.47 11.47.0 0 0 54.59 25.06z"/><path class="cls-13" d="M50.21 31.62s-.51-.84-1.23-.47-.36 1.25-.36 1.25.67.49 1.17.23S50.21 31.62 50.21 31.62z"/><path class="cls-13" d="M50.5 32s-.19.05-.63-.22-.68-.35-.83-.09-.38.72-.38.72a1.27 1.27.0 0 1-.24.31s-.33-1.11.44-1.61a1.05 1.05.0 0 1 1.49.47A1.25 1.25.0 0 1 50.5 32z"/><path class="cls-6" d="M49 31.39a.36.36.0 0 1 .68.2C49.6 32 48.75 31.92 49 31.39z"/><path class="cls-16" d="M44.12 39.42a12.89 12.89.0 0 0-2.27-3.85c-.69-.53-1.51-.42-1.59-.21s1.22 1.52 2.39 2.79S44.12 39.42 44.12 39.42z"/><path class="cls-17" d="M43.21 38.32a10.58 10.58.0 0 0-1.49-2.48c-.5-.48-1.24-.5-1.2-.35A39 39 0 0 0 43.21 38.32z"/><path class="cls-18" d="M44.12 39.42a12.89 12.89.0 0 0-2.27-3.85c-.69-.53-1.51-.42-1.59-.21s1.22 1.52 2.39 2.79S44.12 39.42 44.12 39.42z"/></g></g></svg>