<svg xmlns="http://www.w3.org/2000/svg" viewBox="0 -24 59.6 100"><defs><style>.cls-1,.cls-5{fill:#6fa329}.cls-1,.cls-11,.cls-12,.cls-2,.cls-5{stroke:#4d3224}.cls-1,.cls-11,.cls-12,.cls-2{stroke-linecap:round;stroke-linejoin:round}.cls-1,.cls-11,.cls-5{stroke-width:1.03px}.cls-2,.cls-4{fill:#4d3224}.cls-2{stroke-width:.51px}.cls-3{fill:#7bb52d}.cls-5{stroke-miterlimit:10}.cls-6{fill:#82c431}.cls-7{fill:#f5e69a}.cls-8{fill:#ededed}.cls-9{fill:#f4e7df}.cls-10{fill:#675b5a}.cls-11,.cls-12{fill:none}.Body{-webkit-animation:shock-An 2s linear infinite;animation:shock-An 2s linear infinite}.wing{-webkit-animation:wing-An 2s linear infinite;animation:wing-An 2s linear infinite}@keyframes shock-An{0%{-webkit-transform:translateY(0px);transform:translateY(0px)}15%{-webkit-transform:translateY(-22px);transform:translateY(-22px)}30%{-webkit-transform:translateY(0px);transform:translateY(0px)}40%{-webkit-transform:translateY(-22px);transform:translateY(-22px)}55%{-webkit-transform:translateY(0px);transform:translateY(0px)}100%{-webkit-transform:translateY(0px);transform:translateY(0px)}}@keyframes wing-An{0%{-webkit-transform:translateY(0px);transform:translateY(0px)}15%{-webkit-transform:rotate(-6deg);transform:rotate(-6deg)}30%{-webkit-transform:translateY(0px);transform:translateY(0px)}40%{-webkit-transform:rotate(-6deg);transform:rotate(-6deg)}55%{-webkit-transform:translateY(0px);transform:translateY(0px)}100%{-webkit-transform:translateY(0px);transform:translateY(0px)}}</style></defs><title>works-bird</title><g class="Body"><path class="cls-1" d="M58.66 66.07a26.11 26.11.0 0 0-4.74-5.55l-7.84-7.59c-2 2.24-4.63 3.88-7 5.67l5.87 11.46a6 6 0 0 0 2.56 3 1.8 1.8.0 0 0 1.57.0 1 1 0 0 0 .45-1.38c.26.69 1.51 1.53 2.1 1.09 1.08-.78.48-1.83.0-2.37a5.49 5.49.0 0 0 1.51 1.06A1.13 1.13.0 0 0 54.7 70.2a3.13 3.13.0 0 0-.46-1 4 4 0 0 0 1 .47 1.15 1.15.0 0 0 1 .08 1.18 1.18.0 0 0 .61-1.06 3.61 3.61.0 0 0-.28-1.25 2.63 2.63.0 0 0 1 .85 1.15 1.15.0 0 0 1.16-.09 1.17 1.17.0 0 0 .36-1A3 3 0 0 0 58.66 66.07z"/><path class="cls-2" d="M49.34 65.73c-1-1.58-2.32-3.66-3.73-5.68s-2.9-4-4.06-5.44l-.29-.36c-.14.09-.27.19-.4.29.08.13.15.26.24.39 1 1.59 2.31 3.66 3.72 5.69s2.9 4 4.06 5.44 2 2.37 2 2.37S50.29 67.33 49.34 65.73z"/><path class="cls-2" d="M51.62 64.55c-.59-.78-1.26-1.72-2-2.68s-1.58-2-2.4-3-1.67-2-2.49-2.93-1.59-1.76-2.25-2.49l-.07-.08c-.14.11-.27.23-.42.34l.07.08c.59.79 1.25 1.72 2 2.69s1.57 2 2.39 3 1.68 2 2.49 2.93 1.59 1.76 2.25 2.49c1.34 1.44 2.29 2.35 2.29 2.35S52.77 66.14 51.62 64.55z"/><path class="cls-3" d="M47.21 58.87c-2.32-30.87-13-40.72-13-40.72.41-3.27-1.24-8.82-1.24-8.82a14.8 14.8.0 0 0-9.21-8c-3.19-1-6-.39-9.12 1-.16.07-.31.16-.47.24a4 4 0 0 0-1.26-2 4.75 4.75.0 0 1-.14 2.24 4.51 4.51.0 0 0-.87-.7 3.32 3.32.0 0 1-.28 2.35 11.36 11.36.0 0 0-2.34 3c-.76 1.69-.48 4.44-1.36 6.09a30.78 30.78.0 0 0-2.29 4.37c-.7 2 .13 2.93-.15 5-.26 1.91.07 6.66-.09 8.93a3.42 3.42.0 0 0 0 .44A30.12 30.12.0 0 0 16.36 56.16s4.3 3.54 12.82 5.43v.48a43.34 43.34.0 0 0 11.4.68h1v-.14C47.2 61.7 47.21 58.87 47.21 58.87z"/><path class="cls-4" d="M28.83 69.45a2.35 2.35.0 0 0-.82.07.51.51.0 0 1-.64-.34.51.51.0 0 1 .34-.64 5.85 5.85.0 0 1 2.88.19V61.85a.52.52.0 0 1 1 0v7.6a2.34 2.34.0 0 1 .63 3 .49.49.0 0 1-.46.29.57.57.0 0 1-.22.0.52.52.0 0 1-.24-.69 1.29 1.29.0 0 0-.19-1.57 8.19 8.19.0 0 0-1.42 3.13.51.51.0 0 1-.49.37h-.14a.52.52.0 0 1-.36-.63 10.41 10.41.0 0 1 1.38-3.2A4.07 4.07.0 0 0 27 73.39a.51.51.0 0 1-.5.43h-.09a.51.51.0 0 1-.42-.59A4.89 4.89.0 0 1 28.83 69.45z"/><path class="cls-4" d="M19.86 69.11a2.35 2.35.0 0 0-.82.07.51.51.0 0 1-.3-1 5.72 5.72.0 0 1 2.88.19V61.51a.52.52.0 0 1 1 0v7.6a2.34 2.34.0 0 1 .63 3 .51.51.0 0 1-.46.29.44.44.0 0 1-.22.0.5.5.0 0 1-.24-.68 1.31 1.31.0 0 0-.19-1.58 8.2 8.2.0 0 0-1.42 3.13.51.51.0 0 1-.49.38h-.14a.52.52.0 0 1-.36-.63 10.65 10.65.0 0 1 1.38-3.2A4.11 4.11.0 0 0 18 73a.52.52.0 0 1-.51.43h-.08a.51.51.0 0 1-.42-.59A4.89 4.89.0 0 1 19.86 69.11z"/><path class="cls-5" d="M20.32 58.44A4.25 4.25.0 0 0 21 63a2.59 2.59.0 0 0 3.8-.13 3.86 3.86.0 0 0 .83-3.15A10.88 10.88.0 0 1 20.32 58.44z"/><path class="cls-5" d="M28.87 59.73a4.23 4.23.0 0 0 .63 4.57 2.59 2.59.0 0 0 3.8-.13A3.8 3.8.0 0 0 34.13 61 10.92 10.92.0 0 1 28.87 59.73z"/><path class="cls-3" d="M41.65 62.75a54.94 54.94.0 0 1-16.59-1.62l-5-1.92"/><path class="cls-6" d="M24.19 14.8c-.46-1.09 2-.1 2.37 1.06a1.09 1.09.0 0 1-.91 1.52c-1.15.26-1.33-2-1.46-2.58C24.1 14.43 24.51 15.58 24.19 14.8z"/><path class="cls-6" d="M20 16c-.23-1.1 2.17.74 2.37 1.41A1.08 1.08.0 0 1 21 18.8c-1.14-.39-.86-2-1.05-2.84C19.89 15.51 20.13 16.67 20 16z"/><path class="cls-6" d="M14.9 18.4c0-.22 1-3 1.71-1.92C18.31 19.2 14.63 20.44 14.9 18.4z"/><path class="cls-6" d="M12.21 15.67a2.35 2.35.0 0 1 .53 1.59c-.1.66-.56 1.8-1.42 1.31a1.1 1.1.0 0 1-.42-1.38C11 16.75 11.79 15.25 12.21 15.67z"/><path class="cls-7" d="M9.09 11.31a.72.72.0 0 1 .15-.11c1.11-.56 3 .76 3.73 1.45.0.0 4.68 7.69-.29 10.84.0.0-5.11 1.8-7.2 1.59C4.07 24.94 5 21.14 5 21.14s.51-2.39.56-2.57c.54-2 2.07-3.43 2.74-5.36A4.51 4.51.0 0 1 9.09 11.31z"/><path class="cls-8" d="M9.36 9.2c-.82 2 0 3.81 1.44 5.27 2.07 2 7.88 1.65 7.28-3.33C17.38 5.31 11.34 4.27 9.36 9.2z"/><path class="cls-4" d="M13.68 9.37a.74.74.0 0 0-.29 1 .75.75.0 0 0 1 .29.69.69.0 0 0 .27-.29 2.14 2.14.0 1 1-1-1z"/><path class="cls-4" d="M8.72 14.28l-2.78-1A32.58 32.58.0 0 0 .51 11.68a.72.72.0 0 1-.5-.26c-.22-.28 4-.36 4.2-.35a29 29 0 0 1 4.56.33s.69-.25.85.34c.26.94 1.16 3.26-.73 2.69"/><path class="cls-4" d="M3.33 14.64h0C5.67 14.25 9.91 14 9.91 14H9.82s.09.0.09-.06a1.93 1.93.0 0 1-.72 1.44c-.58.47-1.24.26-1.91.17-.93-.13-1.86-.24-2.79-.3a17.61 17.61.0 0 1-2.72-.17C1.74 14.76 3 14.66 3.33 14.64z"/><path class="cls-9" d="M20.22 58.71c4.26 2 13 4.13 22.18 3.87-.79.0-4.38-5.39-4.95-6.06C32 50 26 43.88 22.05 36.24c-.88-1.72-1.77-3.43-2.7-5.13s-2-3.63-3.09-5.39c-1.25-2-2.18-3.43-4-4.25a7.59 7.59.0 0 0-1.74-.54c-2.11-.44-5.18-1.15-5.76 1.68L6.6 40.75s3.1 11.51 13.62 18"/><path class="cls-10" d="M18.07 10.58a7.43 7.43.0 0 0-1.3-2.44 4.33 4.33.0 0 0-2.16-1.47A2.37 2.37.0 0 0 14 6.52a2.85 2.85.0 0 0-.66-.06 2.71 2.71.0 0 0-.64.0c-.21.0-.43.11-.64.18a5 5 0 0 0-2.2 1.61 4.15 4.15.0 0 1 2-2.06 3.55 3.55.0 0 1 .71-.26 2.91 2.91.0 0 1 .77-.07 2.61 2.61.0 0 1 .74.0 3.14 3.14.0 0 1 .74.15 4.34 4.34.0 0 1 2.37 1.78A5.52 5.52.0 0 1 18.07 10.58z"/><path class="cls-11" d="M34.17 18.15c.41-3.27-1.24-8.82-1.24-8.82a14.8 14.8.0 0 0-9.21-8c-3.19-1-6-.39-9.12 1-.16.07-.31.16-.47.24a4 4 0 0 0-1.26-2 4.75 4.75.0 0 1-.14 2.24 4.51 4.51.0 0 0-.87-.7 3.32 3.32.0 0 1-.28 2.35 11.36 11.36.0 0 0-2.34 3c-.76 1.69-.48 4.44-1.36 6.09C4.42 20 5.24 30.11 5.89 37.22 7.54 55.34 25.25 64.09 41.65 62.75"/><path class="cls-12" d="M34.17 18.15c2.48 2.32 4.2 5.54 5.63 8.57a77 77 0 0 1 5.77 17.36c.68 3.33 3.3 14.82-.7 17.65"/><g class="wing"><path class="cls-3" d="M32.46 19.74a72.17 72.17.0 0 1 7.36 6.53c4.34 4.12 8.29 9 9.91 14.72s.44 12.61-4.11 16.5c-3.46-8.7-14.78-11.12-20.78-18.31a17.66 17.66.0 0 1-3.92-10.24c0-.47.0-.94.0-1.4.0-2.92 1.13-5.77 3.88-7.08C26.76 19.5 30.45 18.3 32.46 19.74z"/><path class="cls-6" d="M22.12 33.07c.52 2.48 2.42 4.47 4.06 6.43C31.63 46 42.62 48.72 45.77 56.62c4.14-3.54 5.21-9.76 3.73-15-.12-.44-.28-.88-.44-1.31a8.74 8.74.0 0 1-5.12 2.25C36.15 43.59 26.41 39.64 22.12 33.07z"/><path class="cls-11" d="M20.92 28.94a17.66 17.66.0 0 0 3.92 10.24c6 7.19 17.32 9.61 20.78 18.31 4.55-3.89 5.72-10.74 4.11-16.5s-5.57-10.6-9.91-14.72c-1.92-1.83-3.93-3.55-5.93-5.28"/><path class="cls-11" d="M44.62 42S46 52 44.67 55.18"/><path class="cls-11" d="M40.68 42.08a46.36 46.36.0 0 1 .84 9.36"/><path class="cls-11" d="M37.29 41.86S38.37 47 38.1 49"/><path class="cls-11" d="M34.21 41.15a27 27 0 0 1 .89 5.7"/><path class="cls-4" d="M49 51.71s-5 1.92-14.37-5.55L37 48.21s6.87 4.54 8.6 9.28C45.62 57.49 50.12 53 49 51.71z"/>\</g></g></svg>