<svg xmlns="http://www.w3.org/2000/svg" viewBox="-12 0 230 99.61"><defs><style>.cls-1{opacity:.5}.cls-2{fill:#c6e9ff;opacity:.44}.cls-3{fill:#d1e7ff}.cls-4{opacity:.8}.cls-5{fill:#fff}</style></defs><title>worksPages-day-left</title><g class="cls-4 cloud-up"><path class="cls-2" d="M102.25 22.4a5.14 5.14.0 0 0-5.76-3.51 6.19 6.19.0 0 0-6-4.88 6.48 6.48.0 0 0-1.26.13 9.3 9.3.0 0 0-16.89-3.79 11.87 11.87.0 0 0-16.23 3.91 6 6 0 0 0-1.27.37 7.24 7.24.0 0 0-6-3.09 7.32 7.32.0 0 0-1.76.24 14.64 14.64.0 0 0-28.49-.94 7.55 7.55.0 0 0-2.19-.35A7.73 7.73.0 0 0 8.7 18.2a11.9 11.9.0 0 0 3.24 23.36H99.22a9.93 9.93.0 0 0 3-19.14z"/><path class="cls-5" d="M100.43 24.82a2.89 2.89.0 0 0-.3.81A2.09 2.09.0 0 0 100.43 24.82z"/><path class="cls-3" d="M102.25 22.4a5.14 5.14.0 0 0-5.76-3.51 6.19 6.19.0 0 0-6-4.88 6.48 6.48.0 0 0-1.26.13 9.3 9.3.0 0 0-16.89-3.79 11.86 11.86.0 0 0-16.22 3.91 6.26 6.26.0 0 0-1.28.37 7.24 7.24.0 0 0-6-3.09 7.32 7.32.0 0 0-1.76.24 14.64 14.64.0 0 0-28.49-.94 7.55 7.55.0 0 0-2.19-.35A7.73 7.73.0 0 0 8.7 18.2 12 12 0 0 0 .22 27.35c.11-.2.21-.4.33-.6a13.75 13.75.0 0 1 7.09-6.12 8.52 8.52.0 0 1 5-.19c.43-3.79 5.66-6.56 8.69-4.25-1.77-6.36 7.24-11 12.53-10.69 4.59.25 8.63 2.68 10.05 7-4-2.19-9.54-.13-11.2 4.63.0.0-8.16-2-10.67 6.24.0.0 4.88-5.7 11-2.48.0.0 3.48-5.91 11-1.25l.09-.3c1.7-5.2 10.31-3.9 9.63 1.79 1.23-3.49 8.06-1.65 7.57 2.47 1.57-2.65 8.45-1.07 10 1.19a11.48 11.48.0 0 0-8.34-6 5.93 5.93.0 0 0-1.14-2.32c4.15-2.27 9.82-1.93 11.61.12.86-2.92 9.55-5 12.81-.06 2.12-1.79 8.71-.27 7.64 5.3 2.9-3.08 7 .51 6.6 3.06a3.21 3.21.0 0 1 4.16-1.1A9.8 9.8.0 0 0 102.25 22.4z"/><animateTransform attributeType="auto" attributeName="transform" type="translate" values="10 0; 0 0;-10 0;0 0;10 0;" dur="3.6s" begin="0" repeatCount="indefinite" /></g><g class="cls-1 cloud-down"><path class="cls-2" d="M198.7 85.89a3.58 3.58.0 0 0-4.87-2.45 4.36 4.36.0 0 0-3.57-1.86 4.11 4.11.0 0 0-1.06.15 8.79 8.79.0 0 0-17.11-.57 4.72 4.72.0 0 0-1.31-.21 4.65 4.65.0 0 0-4.64 4.63 7.15 7.15.0 0 0 2 14h29.49a6.89 6.89.0 0 0 1.12-13.69z"/><path class="cls-3" d="M198.7 85.89a3.58 3.58.0 0 0-4.87-2.45 4.36 4.36.0 0 0-3.57-1.86 4.11 4.11.0 0 0-1.06.15 8.79 8.79.0 0 0-17.11-.57 4.72 4.72.0 0 0-1.31-.21 4.65 4.65.0 0 0-4.64 4.63 7.18 7.18.0 0 0-5.09 5.5c.06-.12.13-.24.2-.36A8.27 8.27.0 0 1 165.5 87a5.12 5.12.0 0 1 3-.11c.26-2.28 3.4-3.94 5.22-2.55-1.07-3.82 4.35-6.6 7.52-6.43a6.42 6.42.0 0 1 6 4.19 4.84 4.84.0 0 0-6.73 2.78s-4.9-1.19-6.41 3.74c0 0 2.93-3.42 6.61-1.49.0.0 2.09-3.54 6.57-.75l.06-.18c1-3.12 6.19-2.34 5.78 1.08.74-2.1 4.84-1 4.55 1.48.94-1.59 5.07-.64 6 .71A6.93 6.93.0 0 0 198.7 85.89z"/><animateTransform attributeType="auto" attributeName="transform" type="translate" values="-10 0; 0 0;10 0;0 0;-10 0;" dur="3.6s" begin="0" repeatCount="indefinite" /></g></svg>