<svg xmlns="http://www.w3.org/2000/svg" viewBox="0 0 181.4 47.36"><defs><style>.cls-1{fill:none;stroke:#fff;stroke-miterlimit:10;stroke-width:2px}</style></defs><title>works-title</title><g id="圖層_2" data-name="圖層 2"><g id="作品"><path class="cls-1" d="M24.94 38 37.54 1.3h7.62L45.7 38 58.3 1.3h4.2L45.82 46H37.18l-.72-30.54L25.06 46H16.42l-1-41a13.52 13.52.0 0 0-6.57 5 14.14 14.14.0 0 0-2.37 8.31 11.24 11.24.0 0 0 .12 1.8q.12.72.24 1.17a3.22 3.22.0 0 0 .27.72 2.8 2.8.0 0 1 .21.45 7.82 7.82.0 0 1-4.67-1.23C1.56 20.37 1 18.94 1 16.9a10.93 10.93.0 0 1 1.87-6.06A19.44 19.44.0 0 1 7.73 5.77a25.14 25.14.0 0 1 6.74-3.48A22.85 22.85.0 0 1 21.94 1q.66.0 1.26.0t1.2.09z"/><path class="cls-1" d="M79.18 15.7q7.56.0 7.68 9.42a2.85 2.85.0 0 0 .66.06 9.56 9.56.0 0 0 2.25-.3 16.84 16.84.0 0 0 2.46-.81 22.14 22.14.0 0 0 2.4-1.17q1.17-.66 2.13-1.32l.54 1.62a14.36 14.36.0 0 1-4.53 3.15 23.5 23.5.0 0 1-6 1.83 28.39 28.39.0 0 1-1.62 7.56 20.4 20.4.0 0 1-3.18 5.73 13.63 13.63.0 0 1-4.38 3.63 11.29 11.29.0 0 1-5.22 1.26 13.94 13.94.0 0 1-3.87-.51 7.56 7.56.0 0 1-3-1.65 7.79 7.79.0 0 1-2-2.94 11.81 11.81.0 0 1-.72-4.38 25 25 0 0 1 .36-4 28.58 28.58.0 0 1 3.24-9.21 18 18 0 0 1 3.09-4.05 14.41 14.41.0 0 1 4.23-2.88A13.33 13.33.0 0 1 79.18 15.7zm-4.44 25a3.44 3.44.0 0 0 2.19-.93 9.23 9.23.0 0 0 2-2.58 20.75 20.75.0 0 0 1.65-3.93 29.62 29.62.0 0 0 1.08-4.92 1.81 1.81.0 0 1-1.29-.93 3.64 3.64.0 0 1-.33-1.59 3.83 3.83.0 0 1 .51-2.07 2.61 2.61.0 0 1 1.35-1.11 5.53 5.53.0 0 0-.63-2.61 1.85 1.85.0 0 0-1.65-.75 4 4 0 0 0-3.06 1.77 17.81 17.81.0 0 0-2.52 4.32 32.78 32.78.0 0 0-1.74 5.4 22.77 22.77.0 0 0-.66 5.07 15.85 15.85.0 0 0 .15 2.43 3.72 3.72.0 0 0 .51 1.47 1.87 1.87.0 0 0 1 .75A4.38 4.38.0 0 0 74.74 40.72z"/><path class="cls-1" d="M108.64 16l-.84 3.78a22.93 22.93.0 0 1 3.63-2.88 6.88 6.88.0 0 1 3.69-1.2 3.64 3.64.0 0 1 3.09 1.38 5 5 0 0 1 1.05 3.12 4.74 4.74.0 0 1-.27 1.56 4.32 4.32.0 0 1-.81 1.41 4.08 4.08.0 0 1-1.35 1 4.31 4.31.0 0 1-1.89.39 2 2 0 0 1-1.71-.6 3.69 3.69.0 0 1-.63-1.29l-.33-1.29a.74.74.0 0 0-.81-.6 3.91 3.91.0 0 0-2.16.66 18.06 18.06.0 0 0-2.22 1.74L102.28 46H93.64L1e2 16z"/><path class="cls-1" d="M152.8 16l-12 8.34a7.87 7.87.0 0 1 1-.18 8.47 8.47.0 0 1 1-.06 5.93 5.93.0 0 1 5 2.07 7.79 7.79.0 0 1 1.62 4.95 11.42 11.42.0 0 1-.6 3.69 10.88 10.88.0 0 0-.6 3.51 2.58 2.58.0 0 0 .48 1.56 2.18 2.18.0 0 0 1.86.66 3.65 3.65.0 0 0 1.71-.39 4.24 4.24.0 0 0 1.32-1.08 8.67 8.67.0 0 0 1-1.65q.48-1 1-2.16h2.52a24.93 24.93.0 0 1-2.76 6 13.5 13.5.0 0 1-3 3.33A8.09 8.09.0 0 1 149.44 46a10.52 10.52.0 0 1-2.4.33 8 8 0 0 1-5.64-1.77 6.55 6.55.0 0 1-1.92-5.07 13.83 13.83.0 0 1 .54-3.93 13.18 13.18.0 0 0 .54-3.75 4 4 0 0 0-.48-2.1A1.81 1.81.0 0 0 138.4 29a4.32 4.32.0 0 0-2.1.6A16.63 16.63.0 0 0 134 31.18L130.84 46H122.2l8.7-40.8L139.78 4l-4.5 21.12L146.86 16z"/><path class="cls-1" d="M179.08 14.14q.24 5.82.48 9.42t.42 5.85q.18 2.25.3 3.66T180.4 36a9.53 9.53.0 0 1-1.17 4.92 10 10 0 0 1-3 3.21 11.79 11.79.0 0 1-3.9 1.74 16.81 16.81.0 0 1-4 .51 10.15 10.15.0 0 1-3.93-.69 8.37 8.37.0 0 1-2.73-1.77 6.77 6.77.0 0 1-1.59-2.46 7.91 7.91.0 0 1-.51-2.76 6.24 6.24.0 0 1 1-3.54 5.62 5.62.0 0 1 2.22-2 73.4 73.4.0 0 0 4.26-8.91q1.74-4.41 3.12-8.85zm-12 21.12a3.22 3.22.0 0 1-.72 2 2.31 2.31.0 0 1-1.92.93 2.92 2.92.0 0 1-.93-.15 1.18 1.18.0 0 1-.69-.63 5 5 0 0 0 .84 3.15 3.41 3.41.0 0 0 2.82 1 7.06 7.06.0 0 0 1.92-.27 4.09 4.09.0 0 0 1.68-.93 4.84 4.84.0 0 0 1.17-1.74A6.87 6.87.0 0 0 171.7 36q0-1.14-.09-2.22t-.24-2.58q-.15-1.5-.36-3.72t-.45-5.7a49.8 49.8.0 0 1-2.13 5.7q-1.23 2.76-2.73 5.64a2.81 2.81.0 0 1 1 .81A2.06 2.06.0 0 1 167.08 35.26z"/></g></g></svg>