<svg xmlns="http://www.w3.org/2000/svg" xmlns:xlink="http://www.w3.org/1999/xlink" viewBox="0 0 102 136.99"><defs><style>.cls-1,.cls-11,.cls-12,.cls-15{fill:#b38e58}.cls-1,.cls-11,.cls-12,.cls-14,.cls-16,.cls-17,.cls-21,.cls-23,.cls-30,.cls-31,.cls-4,.cls-5,.cls-6{stroke:#4d3224}.cls-1,.cls-11,.cls-12,.cls-6{stroke-miterlimit:10}.cls-1{stroke-width:.73px}.cls-2{fill:#fbfcfc}.cls-3{fill:#4d3224}.cls-4{fill:#c9caca;stroke-width:.83px}.cls-14,.cls-16,.cls-17,.cls-21,.cls-23,.cls-30,.cls-31,.cls-4,.cls-5{stroke-linecap:round;stroke-linejoin:round}.cls-32,.cls-5{fill:#fafafa}.cls-5{stroke-width:.84px}.cls-6{fill:#c8e5f0;stroke-width:.72px}.cls-7{fill:#d8d2d3}.cls-8{fill:url(#未命名漸層_32)}.cls-9{fill:url(#未命名漸層_32-2)}.cls-10{fill:#70a365}.cls-11{stroke-width:1.1px}.cls-12,.cls-14{stroke-width:.96px}.cls-13{fill:#754c37}.cls-14,.cls-16,.cls-21,.cls-22,.cls-23{fill:#c79f63}.cls-16{stroke-width:.94px}.cls-17{fill:#c89f65;stroke-width:.93px}.cls-18{fill:#fefefe}.cls-19{fill:#432513}.cls-20{fill:#cca264}.cls-21{stroke-width:.97px}.cls-23{stroke-width:.95px}.cls-24{fill:#b6ad5e}.cls-25{fill:#007099}.cls-26{fill:#fde2d1}.cls-27{fill:url(#未命名漸層_5)}.cls-28{fill:#422311}.cls-29{fill:url(#未命名漸層_5-2)}.cls-30{fill:#f8c5bb}.cls-30,.cls-31{stroke-width:.75px}.cls-31{fill:none}.cls-33{fill:url(#未命名漸層_32-3)}</style><linearGradient id="未命名漸層_32" x1="3664.34" y1="33.25" x2="3653.62" y2="28.16" gradientTransform="matrix(0.99, 0.44, -0.14, 0.94, -3615.21, -1602.73)" gradientUnits="userSpaceOnUse"><stop offset="0" stop-color="#fff" stop-opacity="0"/><stop offset=".89" stop-color="#fff"/></linearGradient><linearGradient id="未命名漸層_32-2" x1="3662.55" y1="35.4" x2="3655.15" y2="31.89" xlink:href="#未命名漸層_32"/><linearGradient id="未命名漸層_5" x1="3257.33" y1="9.82" x2="3255.31" y2="16.45" gradientTransform="matrix(1, -0.09, 0.09, 1, -3195.34, 283.71)" gradientUnits="userSpaceOnUse"><stop offset="0" stop-color="#fff" stop-opacity="0"/><stop offset="1" stop-color="#fbfcfc"/></linearGradient><linearGradient id="未命名漸層_5-2" x1="3249.76" y1="9.39" x2="3248.06" y2="15.47" xlink:href="#未命名漸層_5"/><linearGradient id="未命名漸層_32-3" x1="95.17" y1="27.94" x2="81.79" y2="27.94" gradientTransform="matrix(-1, 0.02, 0.02, 1, 101.6, -0.93)" xlink:href="#未命名漸層_32"/></defs><title>works-LeopardCat</title><g class="tail"><path class="cls-11" d="M76.11 88.71l.25.05c4.85.84 10.49-6.67 12.13-9.13 2.78-4.18 3.67-14.72.92-18.95-2-3-4.83-5.84-6.83-8.91a16.38 16.38.0 0 1-2.47-10.89c.7-7.94 5.72-15.07 12.49-21 3.38-3 7.84-3.67 8.63-2.53 1.29 1.84-3.51 7.92-5.84 10.11-4.3 4-7.41 7.48-7.4 13 0 5.64 5.25 10.23 8.28 15.11 5.54 8.91 4.17 23-2.86 31 0 0-6 7.85-15.3 5.18z"/><path class="cls-20" d="M84.11 88.9c7.17-3.5 9.89-11 11.18-14.75 2.4-6.91.09-16.52-6.55-21.85.0.0-10.24-11.06 1.07-23.5.0.0 10.74-9.11 10.77-11.35.0.0 2 2.85-7.64 11.87.0.0-9.76 7.88-3.54 16.93.0.0 9.33 13.56 8.95 15.14.0.0 5.26 25-14.4 30z"/><path class="cls-3" d="M100.59 21.3s-2.09 1.63-3-1.47c0 0 .35-1.26-2.58-1.6C95 18.23 103.38 13.14 100.59 21.3z"/><ellipse class="cls-3" cx="89.66" cy="80.36" rx="2.9" ry="1.83" transform="translate(-26.33 112.65) rotate(-57.43)"/><ellipse class="cls-3" cx="93.94" cy="61.64" rx="1.78" ry="2.75" transform="translate(-18.07 52.8) rotate(-28.76)"/><ellipse class="cls-3" cx="86.31" cy="53.38" rx="2.02" ry="3.44" transform="translate(-13.55 71.46) rotate(-42)"/><ellipse class="cls-3" cx="85.14" cy="41.23" rx="1.4" ry="2.64" transform="translate(-2.41 5.41) rotate(-3.59)"/><ellipse class="cls-3" cx="84.81" cy="32.06" rx="3.34" ry="2.24" transform="translate(22.81 98.22) rotate(-67.57)"/><ellipse class="cls-3" cx="91.79" cy="25.02" rx="2.63" ry="1.91" transform="translate(10.88 75.07) rotate(-46.99)"/><ellipse class="cls-3" cx="92.34" cy="70.62" rx="2.28" ry="1.58" transform="translate(8.54 151.19) rotate(-81.28)"/></g><g class="hand-right"><path class="cls-1" d="M48.12 39.49a8.18 8.18.0 0 0-1-.39A6.52 6.52.0 0 0 42.88 39 20.41 20.41.0 0 1 40.37 40c-1.93.43-3.76-.94-5.16-2.33a33.91 33.91.0 0 1-4-4.79c-1.64-2.37-3.9-4.32-7-2.87-2.18 1-3.63 4.7.38 4.92 1.19.07 1.44-.13 2.5.4a4 4 0 0 1 1.39 1.48l4.54 7c1.38 2.12 2.82 4.31 4.95 5.68 2.36 1.52 5.26 1.85 8 2.62a24.17 24.17.0 0 1 6.82 3.15 2.8 2.8.0 0 0 2.12.72c1.14-.29 1.34-1.81 1.24-3C55.59 47.57 53 41.75 48.12 39.49z"/><path class="cls-2" d="M29.14 37.35s.16-1 1.64-.28c1.9 1.66 3.31 3.79 5.14 5.51a10.54 10.54.0 0 0 2.8 2c.21.09 3.41.91 3.12-.06.0.0 1.51 5.14 2.84 6.66.0.0-6.85.05-9.9-5.14z"/><path class="cls-3" d="M33.24 36.47a.86.86.0 0 0 .28-1 1.2 1.2.0 0 0-.75-.62 1.33 1.33.0 0 0-.74-.06.74.74.0 0 0-.55.45 1.11 1.11.0 0 0 .11.85.86.86.0 0 0 .33.46.83.83.0 0 0 .44.09A1.4 1.4.0 0 0 33.24 36.47z"/><path class="cls-3" d="M36 39.76a.84.84.0 0 0 .11-1 1.24 1.24.0 0 0-.84-.49 1.33 1.33.0 0 0-.74.07.79.79.0 0 0-.47.55 1.18 1.18.0 0 0 .26.81.91.91.0 0 0 .4.4.86.86.0 0 0 .45.0A1.42 1.42.0 0 0 36 39.76z"/><animateTransform attributeType="auto" attributeName="transform" type="translate" values="0 0; 0 10; 0 0" dur="1.5s" repeatCount="indefinite" /></g><path class="cls-3" d="M39.67 41.66a1.07 1.07.0 0 0 .13-1.28 1.52 1.52.0 0 0-1.07-.62 1.77 1.77.0 0 0-.94.08 1 1 0 0 0-.6.7 1.48 1.48.0 0 0 .32 1 1.22 1.22.0 0 0 .52.51 1.14 1.14.0 0 0 .58.0A1.87 1.87.0 0 0 39.67 41.66z"/><path class="cls-4" d="M26.54 47l-8.28-4.38a2.86 2.86.0 0 1-1.22-2L14.81 23.06c-.1-.78.92-1 1.5-.7l7.85 3.92a2.88 2.88.0 0 1 1.23 2l2 17.85C27.5 46.9 27.11 47.29 26.54 47z"/><path class="cls-5" d="M25.74 46.47l-7.88-4.19a1.59 1.59.0 0 1-.69-1.12L15 23.73c-.05-.45.16-.68.49-.51L23.41 27a1.61 1.61.0 0 1 .69 1.13L26.23 46C26.29 46.41 26.07 46.64 25.74 46.47z"/><ellipse class="cls-6" cx="22.47" cy="28.52" rx=".56" ry=".88" transform="translate(-9.46 11.24) rotate(-23.35)"/><path class="cls-7" d="M18.92 33.42a2.6 2.6.0 0 0 .11.51 3.44 3.44.0 0 0 1.52 1.78c.79.43 1.41.24 1.32-.72a3.45 3.45.0 0 0-.53-1.46 2.14 2.14.0 0 0-1-.76c-.31-.18-.7-.51-.92-.44S18.88 32.88 18.92 33.42z"/><path class="cls-7" d="M19.78 32.24a1.53 1.53.0 0 0 .68.62 1.39 1.39.0 0 0-.12-.89 1.89 1.89.0 0 0-.73-.67A1.8 1.8.0 0 0 19.78 32.24z"/><path class="cls-8" d="M15.93 25.93l9.39 9-1.11 1.45-8.14-8S15.57 26.56 15.93 25.93z"/><path class="cls-9" d="M16.34 30.15 22.93 36.3 21.86 36.64 16.7 31.95 16.34 30.15z"/><path class="cls-10" d="M35.94 117.43c-2.24.64-5 2.29-5.14 6-.19 4 2.6 6.26 4.91 7.29a68.08 68.08.0 0 0 52.54 1.8 8.27 8.27.0 0 0 4-2.57 8.4 8.4.0 0 0 1.52-6.24c-.6-3.37-3.13-4.34-5.23-4.73C71 115.76 53.28 112.5 35.94 117.43z"/><path class="cls-12" d="M70.32 109.54a3.88 3.88.0 0 0 2.18-3.14c.23-1.53-.94-2.93-2.48-3.6.0-.21-.08-.43-.12-.63a64 64 0 0 0-4.21-11.8A30.72 30.72.0 0 0 52.6 75.79a12.82 12.82.0 0 0-7-1.85 28.29 28.29.0 0 0-2.46 6.48A17.6 17.6.0 0 0 45.93 95C49 99.46 53.78 103 58.92 106c.53.3 1.06.6 1.61.88-.55.72-2.46 2.34-3 3.09-1.93 2.89-1.81 3.41-2.62 8.11a13.24 13.24.0 0 1-2.82 1.41c-1.43.61-2.71 1.59-2.52 3.16.23 2 3 2.16 4.57 2.2 2.81.07 3.36-.06 4.36-2.41a13.21 13.21.0 0 1 3.09-4.84S68.16 110.27 70.32 109.54z"/><path class="cls-2" d="M46.79 78.29a68.32 68.32.0 0 0 2.5 8.87c1.54 4.34 5.9 6.65 8.69 10.3 2.58 3.39 3.37 8.88 7 11.18.0.0-6.88 10-6.24 11.58.0.0 5.41-6.21 8.59-10l-4.75-18z"/><path class="cls-3" d="M56.83 100.48a.84.84.0 0 0 .49-.88 1.2 1.2.0 0 0-.59-.77 1.27 1.27.0 0 0-.7-.23.78.78.0 0 0-.65.32 1.19 1.19.0 0 0-.08.85.93.93.0 0 0 .22.53.89.89.0 0 0 .41.18A1.39 1.39.0 0 0 56.83 100.48z"/><path class="cls-13" d="M59.48 99.34a.93.93.0 0 0 1.11-.2 1.33 1.33.0 0 0 .26-1 1.49 1.49.0 0 0-.3-.77.9.9.0 0 0-.74-.34 1.38 1.38.0 0 0-.8.53 1 1 0 0 0-.29.56.94.94.0 0 0 .12.49A1.59 1.59.0 0 0 59.48 99.34z"/><path class="cls-14" d="M83.86 89.75a29.4 29.4.0 0 1-1.64 4.14c-2.39 4.84-6.34 9.13-11.49 8.37a15.22 15.22.0 0 1-7-2.75c-2.18-1.64-2.46-3.59-3.81-5.68a47.75 47.75.0 0 0-3.64-5L44.1 74.45C42 72 38.75 69.27 37.49 66.29a45.32 45.32.0 0 1-2-8 37 37 0 0 1 1.44-21.55 39.89 39.89.0 0 1 3.25-6.55 57.19 57.19.0 0 1 7.38-9.48c1.55-1.63 3.76-3.58 6.1-3.79 3.66-.33 3.69 3.07 4 5.74.11.86.25 1.71.39 2.57.31 1.92.69 3.84 1.13 5.73.18.78.37 1.56.57 2.33.61 2.31 1.3 4.61 2.09 6.87v.09c.39 1.12.78 2.38 1.22 3.61a16.81 16.81.0 0 0 2.12 4.31c.43.57.89 1.15 1.35 1.73C67.5 51 68.42 52 69.3 53.1l.31.35a67.83 67.83.0 0 0 4.78 5c.86.83 1.68 1.64 2.45 2.47l.45.49v0a27.62 27.62.0 0 1 4.06 5.68c.17.3.32.61.47.93.24.49.46 1 .67 1.53a32.62 32.62.0 0 1 1.62 5.32 34.51 34.51.0 0 1 .77 5.27c0 .52.0 1 .06 1.57s0 2.34.0 2.79"/><path class="cls-2" d="M52.15 59.38C58.58 68.57 66 77 72.38 86.26A16.19 16.19.0 0 1 74.92 91a6.26 6.26.0 0 1 .22 1.16c-2.16 1.26-5-.44-6.94-2.08-6.09-5-9.88-5.68-16-10.71-2.15-1.77-6.94-7.55-8.87-9.57C35 61.08 34.12 45.14 37.69 34.2c-.16.5 4.72 1.16 5.09 1.22 1.48.21 4.75-.24 5.8 1 .76.92.21 3.05.21 4.19.0 2.31.14 4.62.34 6.92C49.47 51.4 49.84 56.16 52.15 59.38z"/><path class="cls-15" d="M62.67 44.31a16.81 16.81.0 0 0 2.12 4.31l1.35 1.73c.89 1.09 1.8 2.17 2.68 3.22.1.13.2.24.31.36a67.83 67.83.0 0 0 4.78 5c.86.83 1.68 1.64 2.45 2.47-4.74-3.38-9-7.24-13.73-10.62-4.54-3.24-5.38-6.63-8.2-11.44-2-3.37-6.61-8-4-10.95a10.07 10.07.0 0 1 5.37-2.81 12.58 12.58.0 0 1 2.36-.36c.31 1.92.69 3.84 1.13 5.73.18.78-.11 2 .09 2.81"/><path class="cls-3" d="M60.47 60.25a1.42 1.42.0 0 0 1.57.61 2 2 0 0 0 1.15-1.15 2.25 2.25.0 0 0 .22-1.22 1.31 1.31.0 0 0-.69-1 2 2 0 0 0-1.43.06 1.56 1.56.0 0 0-.81.48 1.52 1.52.0 0 0-.22.73A2.37 2.37.0 0 0 60.47 60.25z"/><path class="cls-3" d="M63 64.38a1.57 1.57.0 0 0 .58 1.8 2.23 2.23.0 0 0 1.81.19 2.46 2.46.0 0 0 1.21-.67A1.45 1.45.0 0 0 67 64.41a2.2 2.2.0 0 0-1.06-1.21 1.68 1.68.0 0 0-1-.37 1.77 1.77.0 0 0-.79.32A2.68 2.68.0 0 0 63 64.38z"/><path class="cls-3" d="M69.81 67.42a1.52 1.52.0 0 0-1.23 1.34 2.14 2.14.0 0 0 .69 1.61 2.54 2.54.0 0 0 1.15.7 1.41 1.41.0 0 0 1.27-.29 2.18 2.18.0 0 0 .51-1.46 1.65 1.65.0 0 0-.17-1 1.69 1.69.0 0 0-.64-.51A2.64 2.64.0 0 0 69.81 67.42z"/><path class="cls-15" d="M85.45 84.2s-5.75 3-6.55 8.15l-.16 5.91A30.84 30.84.0 0 0 85.45 84.2z"/><path class="cls-16" d="M67.62 73.82c-8.23 5.23-13.19 18.25-8.89 27.39 1.94 4.11 5.79 6.93 9.17 10s6.62 6.93 6.59 11.48a30.27 30.27.0 0 1-.45 3.77l-.23.11c-1.19.6-2.68 1.56-2.93 3a2.47 2.47.0 0 0 2.25 2.7c4.14.47 8.29.3 7.07-4.09-.24-.86-.48-1.72-.73-2.59q1.95-5.89 3.55-11.9c.46-1.75.88-3.69.0-5.28-.68-1.25-2-2-3-3.06-1.58-1.79-2-4.35-1.85-6.73s.62-4.75.53-7.14"/><path class="cls-17" d="M60.75 31.47c-.3.35-.59.7-.87 1.06"/><path class="cls-18" d="M37.91 33.11c.1-.07.2-.14.32.0l-.22.14z"/><path class="cls-18" d="M46.4 3.16l-.11.1h-.06a.48.48.0 0 1 .09-.11z"/><path class="cls-19" d="M38 2.36c.09.0.19.0.25.1z"/><path class="cls-18" d="M61.87 1.93c0-.05-.09-.1.0-.17s.11-.06.14.0S61.92 1.9 61.87 1.93z"/><path class="cls-15" d="M49.35 35.4a7 7 0 0 1 4.79 3.52l1-3.36S51 34.68 49.35 35.4z"/><ellipse class="cls-3" cx="60.25" cy="39.83" rx="1.74" ry="3.27" transform="translate(-7.32 14.31) rotate(-12.78)"/><ellipse class="cls-3" cx="59.89" cy="48.42" rx="1.45" ry="2.72" transform="translate(-12.71 22.73) rotate(-19.47)"/><ellipse class="cls-3" cx="66.92" cy="52.57" rx="1.45" ry="2.72" transform="translate(-17.04 66.45) rotate(-47.54)"/><ellipse class="cls-3" cx="70.98" cy="60.39" rx="1.5" ry="2.83" transform="translate(-19.61 82.27) rotate(-53.97)"/><ellipse class="cls-3" cx="78.42" cy="64.55" rx="1.38" ry="2.61" transform="translate(-23.06 60.19) rotate(-37)"/><ellipse class="cls-3" cx="80.02" cy="72.06" rx="1.38" ry="2.61" transform="translate(-26.08 53.64) rotate(-32.16)"/><ellipse class="cls-3" cx="83.64" cy="79.88" rx="1.22" ry="2.31" transform="matrix(0.98, -0.18, 0.18, 0.98, -12.83, 16.09)"/><path class="cls-3" d="M66.79 79.45a1.41 1.41.0 0 0 1.5.78 2 2 0 0 0 1.27-1A2.25 2.25.0 0 0 69.9 78 1.34 1.34.0 0 0 69.33 77a1.9 1.9.0 0 0-1.43-.09 1.46 1.46.0 0 0-.86.39 1.62 1.62.0 0 0-.3.7A2.47 2.47.0 0 0 66.79 79.45z"/><path class="cls-3" d="M68.83 83.83a1.58 1.58.0 0 0 .39 1.85 2.22 2.22.0 0 0 1.78.38 2.45 2.45.0 0 0 1.27-.54 1.44 1.44.0 0 0 .53-1.24A2.22 2.22.0 0 0 71.88 83a1.81 1.81.0 0 0-1-.47 1.69 1.69.0 0 0-.81.24A2.66 2.66.0 0 0 68.83 83.83z"/><path class="cls-3" d="M75.32 87.57A1.54 1.54.0 0 0 74 88.78a2.13 2.13.0 0 0 .53 1.67 2.37 2.37.0 0 0 1.06.82 1.4 1.4.0 0 0 1.29-.16 2.1 2.1.0 0 0 .66-1.39 1.64 1.64.0 0 0-.06-1 1.67 1.67.0 0 0-.58-.57A2.65 2.65.0 0 0 75.32 87.57z"/><path class="cls-3" d="M62.28 87a1.39 1.39.0 0 0 1.65.34A2 2 0 0 0 64.88 86a2.37 2.37.0 0 0 0-1.24 1.33 1.33.0 0 0-.84-.87 2 2 0 0 0-1.4.29 1.59 1.59.0 0 0-.73.62 1.46 1.46.0 0 0-.09.75A2.36 2.36.0 0 0 62.28 87z"/><path class="cls-3" d="M65.42 90.62a1.57 1.57.0 0 0 .87 1.68 2.21 2.21.0 0 0 1.81-.11 2.5 2.5.0 0 0 1.09-.86A1.46 1.46.0 0 0 69.36 90a2.18 2.18.0 0 0-1.24-1 1.76 1.76.0 0 0-1.05-.2 1.82 1.82.0 0 0-.72.45A2.64 2.64.0 0 0 65.42 90.62z"/><path class="cls-3" d="M72.68 92.49a1.51 1.51.0 0 0-1 1.52 2.15 2.15.0 0 0 .95 1.47 2.42 2.42.0 0 0 1.25.51 1.42 1.42.0 0 0 1.2-.5A2.1 2.1.0 0 0 75.34 94 1.62 1.62.0 0 0 75 93a1.6 1.6.0 0 0-.72-.4A2.55 2.55.0 0 0 72.68 92.49z"/><path class="cls-3" d="M46.65 84.81a1.12 1.12.0 0 0 .89-1 1.54 1.54.0 0 0-.49-1.16 1.78 1.78.0 0 0-.82-.51 1 1 0 0 0-.92.2 1.56 1.56.0 0 0-.38 1 1.21 1.21.0 0 0 .12.73 1.11 1.11.0 0 0 .46.37A1.86 1.86.0 0 0 46.65 84.81z"/><path class="cls-3" d="M47.88 90.25a1.09 1.09.0 0 0 .72-1.1 1.58 1.58.0 0 0-.69-1.07 1.74 1.74.0 0 0-.9-.36 1 1 0 0 0-.87.36 1.53 1.53.0 0 0-.18 1.1 1.14 1.14.0 0 0 .24.7 1.07 1.07.0 0 0 .51.28A1.82 1.82.0 0 0 47.88 90.25z"/><path class="cls-3" d="M52.08 96.44a1.1 1.1.0 0 0 .64-1.15 1.58 1.58.0 0 0-.76-1A1.83 1.83.0 0 0 51 94a1 1 0 0 0-.84.43 1.5 1.5.0 0 0-.1 1.11 1.16 1.16.0 0 0 .29.68 1.22 1.22.0 0 0 .53.24A1.8 1.8.0 0 0 52.08 96.44z"/><path class="cls-3" d="M61.54 96.22A1.24 1.24.0 0 0 63 96.09a1.78 1.78.0 0 0 .46-1.35 2 2 0 0 0-.31-1 1.16 1.16.0 0 0-.92-.52 1.73 1.73.0 0 0-1.1.6 1.33 1.33.0 0 0-.45.7 1.23 1.23.0 0 0 .11.65A2 2 0 0 0 61.54 96.22z"/><path class="cls-3" d="M65.09 98.5a1.4 1.4.0 0 0 1.16 1.19 1.92 1.92.0 0 0 1.49-.55 2.2 2.2.0 0 0 .7-1 1.29 1.29.0 0 0-.2-1.16 1.9 1.9.0 0 0-1.3-.54 1.44 1.44.0 0 0-.92.1 1.37 1.37.0 0 0-.49.55A2.35 2.35.0 0 0 65.09 98.5z"/><path class="cls-3" d="M71.65 98.24a1.34 1.34.0 0 0-.45 1.53 1.93 1.93.0 0 0 1.17 1 2.13 2.13.0 0 0 1.17.11 1.24 1.24.0 0 0 .89-.72 1.89 1.89.0 0 0-.17-1.35 1.49 1.49.0 0 0-.52-.73 1.4 1.4.0 0 0-.7-.14A2.16 2.16.0 0 0 71.65 98.24z"/><path class="cls-3" d="M63.44 104.66a1.22 1.22.0 0 0 1.36-.54 1.73 1.73.0 0 0 .06-1.41 2 2 0 0 0-.58-.9 1.16 1.16.0 0 0-1-.24 1.72 1.72.0 0 0-.88.88 1.3 1.3.0 0 0-.23.79 1.24 1.24.0 0 0 .28.59A2.08 2.08.0 0 0 63.44 104.66z"/><path class="cls-3" d="M67.46 105.83a1.36 1.36.0 0 0 1.43.8 1.92 1.92.0 0 0 1.26-.94 2.16 2.16.0 0 0 .38-1.14 1.3 1.3.0 0 0-.51-1.06 2 2 0 0 0-1.39-.14 1.54 1.54.0 0 0-.85.35 1.48 1.48.0 0 0-.31.67A2.35 2.35.0 0 0 67.46 105.83z"/><path class="cls-3" d="M73.61 103.73a1.32 1.32.0 0 0 0 1.58 1.9 1.9.0 0 0 1.39.62 2.11 2.11.0 0 0 1.14-.23 1.22 1.22.0 0 0 .64-.93 1.84 1.84.0 0 0-.53-1.23 1.48 1.48.0 0 0-.71-.55 1.52 1.52.0 0 0-.7.06A2.24 2.24.0 0 0 73.61 103.73z"/><path class="cls-3" d="M72.16 110.94a1.36 1.36.0 0 0 1.42.8 1.92 1.92.0 0 0 1.27-.94 2.13 2.13.0 0 0 .38-1.14 1.25 1.25.0 0 0-.52-1 1.87 1.87.0 0 0-1.38-.15 1.51 1.51.0 0 0-.85.35 1.48 1.48.0 0 0-.31.67A2.35 2.35.0 0 0 72.16 110.94z"/><path class="cls-3" d="M78.31 108.85a1.32 1.32.0 0 0 0 1.58 1.87 1.87.0 0 0 1.39.61 2 2 0 0 0 1.14-.23 1.22 1.22.0 0 0 .64-.93 1.9 1.9.0 0 0-.53-1.23 1.45 1.45.0 0 0-.71-.54 1.39 1.39.0 0 0-.7.0A2.26 2.26.0 0 0 78.31 108.85z"/><path class="cls-3" d="M76.14 116.46a.88.88.0 0 0 .46-.95 1.23 1.23.0 0 0-.65-.78 1.34 1.34.0 0 0-.75-.2.81.81.0 0 0-.66.37 1.23 1.23.0 0 0 0 .89.89.89.0 0 0 .26.54 1.09 1.09.0 0 0 .43.18A1.54 1.54.0 0 0 76.14 116.46z"/><path class="cls-3" d="M80.27 116.89a.9.9.0 0 0 .47-1 1.27 1.27.0 0 0-.66-.78 1.3 1.3.0 0 0-.75-.2.81.81.0 0 0-.66.37 1.23 1.23.0 0 0 0 .89.89.89.0 0 0 .26.54 1.08 1.08.0 0 0 .44.18A1.51 1.51.0 0 0 80.27 116.89z"/><path class="cls-3" d="M73.3 76.87a1.19 1.19.0 0 0 1.28.6 1.7 1.7.0 0 0 1-.9 2 2 0 0 0 .25-1 1.09 1.09.0 0 0-.52-.87 1.7 1.7.0 0 0-1.2.0 1.29 1.29.0 0 0-.7.37 1.22 1.22.0 0 0-.23.59A2 2 0 0 0 73.3 76.87z"/><path class="cls-3" d="M75.15 80.46A1.31 1.31.0 0 0 75.53 82a1.83 1.83.0 0 0 1.5.27 2 2 0 0 0 1-.49 1.21 1.21.0 0 0 .4-1.06 1.76 1.76.0 0 0-.81-1.07 1.37 1.37.0 0 0-.82-.37 1.52 1.52.0 0 0-.67.22A2.29 2.29.0 0 0 75.15 80.46z"/><path class="cls-3" d="M80.7 83.4a1.27 1.27.0 0 0-1.11 1 1.87 1.87.0 0 0 .49 1.39 2.11 2.11.0 0 0 .92.64 1.16 1.16.0 0 0 1.08-.17 1.78 1.78.0 0 0 .51-1.19 1.36 1.36.0 0 0-.09-.85 1.38 1.38.0 0 0-.5-.46A2.16 2.16.0 0 0 80.7 83.4z"/><path class="cls-21" d="M51.11 36.65a42.82 42.82.0 0 0-3.73 4.42 35.91 35.91.0 0 0-4 6.34c-.47 1-4.49 7.55-4.24 8l-.57-1-4.71-7.86c-2.9-4.83-5-10.3-11-9 0 0-2.49.75-1.38 4.4a5.64 5.64.0 0 0 2.85 2.24 3 3 0 0 1 2.19 1.72l4.47 18c.6 2.43 1.88 6 4.34 6.39 2 .27 3.86-.76 5.6-1.83 2.05-1.25 4.12-2.9 6.17-4.32 2.21-1.53 4.59-2.44 6.85-3.8"/><path class="cls-3" d="M46.55 46.16a1.2 1.2.0 0 0 .81 1.14 1.38 1.38.0 0 0 1.19-.36 2 2 0 0 0 .6-.83 1.32 1.32.0 0 0-.08-1 1.45 1.45.0 0 0-1-.58 1 1 0 0 0-.72.0A1.2 1.2.0 0 0 47 45 2.3 2.3.0 0 0 46.55 46.16z"/><path class="cls-3" d="M46.64 50.36a1.5 1.5.0 0 0-.29 1.6 1.87 1.87.0 0 0 2.16 1 1.18 1.18.0 0 0 .74-.81A2.15 2.15.0 0 0 49 50.74a1.41 1.41.0 0 0-.52-.71 1.14 1.14.0 0 0-.63-.1A1.88 1.88.0 0 0 46.64 50.36z"/><path class="cls-3" d="M50 55.63a1.07 1.07.0 0 0-1.32.47 2.14 2.14.0 0 0-.14 1.52 2.16 2.16.0 0 0 .49 1A1 1 0 0 0 50 59a1.66 1.66.0 0 0 .88-.87 1.25 1.25.0 0 0 0-1.5A2.16 2.16.0 0 0 50 55.63z"/><path class="cls-3" d="M41.72 53.92a.82.82.0 0 0 .77.65 1.11 1.11.0 0 0 .8-.53 1.58 1.58.0 0 0 .3-.73 1 1 0 0 0-.23-.74 1 1 0 0 0-.8-.21.79.79.0 0 0-.51.17 1 1 0 0 0-.23.42A1.79 1.79.0 0 0 41.72 53.92z"/><path class="cls-3" d="M42.49 56.94a1.14 1.14.0 0 0 0 1.23 1.17 1.17.0 0 0 1 .43 1.25 1.25.0 0 0 .77-.21 1 1 0 0 0 .4-.75 1.52 1.52.0 0 0-.41-.94 1 1 0 0 0-.49-.4.77.77.0 0 0-.47.07A1.46 1.46.0 0 0 42.49 56.94z"/><path class="cls-3" d="M45.8 60a.86.86.0 0 0-.87.63 1.62 1.62.0 0 0 .14 1.14 1.56 1.56.0 0 0 .53.63.71.71.0 0 0 .74.0 1.42 1.42.0 0 0 .49-.83 1.28 1.28.0 0 0 .05-.67 1.09 1.09.0 0 0-.27-.42A1.38 1.38.0 0 0 45.8 60z"/><path class="cls-3" d="M38.11 58.38a.71.71.0 0 0 .68.57 1 1 0 0 0 .71-.46 1.38 1.38.0 0 0 .26-.65.8.8.0 0 0-.2-.66.89.89.0 0 0-.7-.19.67.67.0 0 0-.46.15.89.89.0 0 0-.2.37A1.53 1.53.0 0 0 38.11 58.38z"/><path class="cls-3" d="M38.79 61.06a1 1 0 0 0 .05 1.09 1.06 1.06.0 0 0 .85.39 1.11 1.11.0 0 0 .68-.2.83.83.0 0 0 .35-.66 1.38 1.38.0 0 0-.35-.84.92.92.0 0 0-.44-.35.81.81.0 0 0-.43.06A1.3 1.3.0 0 0 38.79 61.06z"/><path class="cls-3" d="M41.73 63.79a.77.77.0 0 0-.78.57 1.45 1.45.0 0 0 .13 1 1.37 1.37.0 0 0 .47.56.63.63.0 0 0 .66.0 1.23 1.23.0 0 0 .43-.74 1.09 1.09.0 0 0 0-.59.87.87.0 0 0-.25-.38A1.28 1.28.0 0 0 41.73 63.79z"/><path class="cls-3" d="M34.42 55.83a1 1 0 0 0 .57 1 1.07 1.07.0 0 0 .95-.21 1.49 1.49.0 0 0 .51-.6 1 1 0 0 0 0-.82 1.12 1.12.0 0 0-.72-.52.83.83.0 0 0-.56.0.92.92.0 0 0-.35.33A1.78 1.78.0 0 0 34.42 55.83z"/><path class="cls-3" d="M32.18 59.53a1 1 0 0 0 .58.95 1.06 1.06.0 0 0 .94-.21 1.49 1.49.0 0 0 .51-.6 1 1 0 0 0 0-.82 1.12 1.12.0 0 0-.72-.52.63.63.0 0 0-.9.29A1.71 1.71.0 0 0 32.18 59.53z"/><path class="cls-3" d="M35.43 61.09a1.16 1.16.0 0 0-.31 1.23 1.39 1.39.0 0 0 .82.79 1.26 1.26.0 0 0 .81.09.9.9.0 0 0 .62-.58 1.73 1.73.0 0 0-.12-1.07 1.27 1.27.0 0 0-.37-.59.91.91.0 0 0-.49-.12A1.37 1.37.0 0 0 35.43 61.09z"/><path class="cls-3" d="M36.19 65.2a.91.91.0 0 0-1.16.31 1.81 1.81.0 0 0-.21 1.3 1.92 1.92.0 0 0 .36.92.86.86.0 0 0 .8.36 1.42 1.42.0 0 0 .81-.69 1.3 1.3.0 0 0 .28-.71 1.21 1.21.0 0 0-.16-.58A1.84 1.84.0 0 0 36.19 65.2z"/><path class="cls-2" d="M34.23 24.4a7.24 7.24.0 0 0 .63 2.67l-1-.73a4.83 4.83.0 0 1-.55-2.84z"/><path class="cls-19" d="M33.21 25.13s0 2 1.06 2.44a3.39 3.39.0 0 0 1.6.4s.48.08-.54-.81a4 4 0 0 1-1.1-1.55S33.29 24.24 33.21 25.13z"/><path class="cls-19" d="M32.79 21.94s-.29 1.95 1 2.63a5.47 5.47.0 0 0 2 .72s.6.18-.58-.91A4.45 4.45.0 0 1 34 22.63S33 21.07 32.79 21.94z"/><path class="cls-22" d="M57.78 5.47l-7.07 4.8L46.04 19.57 44.71 29.14 47.99 37.15 59.77 34.47 67.51 28.28 68.4 18.52 57.78 5.47z"/><path class="cls-23" d="M57.84 7.54l6.8-6.17a3.11 3.11.0 0 1 4-.27c1.48 1.06 2 2.92 2.48 4.62a19.47 19.47.0 0 1 .44 7.41 17.59 17.59.0 0 1-1.25 4.31c-.45 1.09-1 3.21-2 3.93"/><path class="cls-23" d="M38.81 2.84a5.17 5.17.0 0 0-3.28-.73c-3.34.8-2.72 7.05-2.3 9.61.18 1.07.92 2.27.72 3.38l6.4-4.41 1.83-3.5c.35-.68-1.8-3.22-2.28-3.63A5.89 5.89.0 0 0 38.81 2.84z"/><path class="cls-23" d="M59.37 34.31c2.35-1.17 4.81-2.33 6.47-4.42A15.16 15.16.0 0 0 68.08 26c.3-.76.4-3.6-1.11-7.44"/><path class="cls-23" d="M48.44 37a20.4 20.4.0 0 1-7.63-1 11.66 11.66.0 0 1-1.22-.48 9.6 9.6.0 0 1-5.39-4.83c-1.17-2-2.17-4.5-1.86-6.89.18-1.4.95-2.62 1-4.06.09-4.52 1.19-5.88 2.37-7.45a12.92 12.92.0 0 1 1.79-2.11 11.68 11.68.0 0 1 3.21-2.26C48 2.18 57.62 5.67 57.62 5.67"/><path class="cls-2" d="M67.6 23.21c-1.34-1.06-2.67-.1-3.61 1s-1.11 2.12-1.79 3.4c-1.44 2.68-5.43 4.75-8.35 5.12a3.31 3.31.0 0 1-2.3-.56c-1.16-.7-1-2.5-1.2-3.66a6.1 6.1.0 0 0-1.92-3.34S45.23 22 39.5 23.84c0 0-4.23 2-2.79 5.26.0.0 1.68 3.19 3.25 3.54 1 .22 2 .5 2.93.7a6.59 6.59.0 0 1-1.88.91c1.08-.25 2.44 1.08 2.44 1.08 11.83 2.19 22.47-5.94 22.47-5.94C69.5 24.26 67.6 23.21 67.6 23.21z"/><path class="cls-19" d="M59.91 24.56l.1-.11C60.06 24.56 60 24.54 59.91 24.56z"/><path class="cls-18" d="M45.15 24.4c-.12.0-.09-.06-.11-.12z"/><path class="cls-2" d="M58.16 5.71a15 15 0 0 1 3.51-3 4.63 4.63.0 0 1-1.43 3.13A1.34 1.34.0 0 1 58.16 5.71z"/><path class="cls-19" d="M39.5 23.84l.16-.14z"/><path class="cls-19" d="M39.06 17.14v.17h0c-.12.09-.11.0-.13-.09A.23.23.0 0 1 39.06 17.14z"/><path class="cls-22" d="M39.92 4.77l.07.15C39.93 4.89 39.89 4.85 39.92 4.77z"/><path class="cls-24" d="M39.52 18.84c.89 1.63-.83 3.87-2.14 4.09a1.44 1.44.0 0 1-1.52-.67 4.55 4.55.0 0 1-.62-3.2h.14c0 .19.0.38.0.57a3.66 3.66.0 0 0 .64 1.9 1.38 1.38.0 0 0 2.16.28 3.44 3.44.0 0 0 1.19-2.12C39.47 19.4 39.48 19.13 39.52 18.84z"/><path class="cls-2" d="M39 17.21c0 .06.0.18.13.09a1.44 1.44.0 0 1-.73 1.64.68.68.0 0 1-.64.09c-.23-.12-.22-.39-.19-.62a4.4 4.4.0 0 1 .13-.74C37.93 16.82 38.31 16.69 39 17.21z"/><path class="cls-2" d="M46.5 21.7a26.36 26.36.0 0 1 1.55-3.1 6.13 6.13.0 0 1 9.22-.67c.53.56 2.09.9 1 1.91-.7.64-1.08 2.27-1.74 3.11a5 5 0 0 1-3 1.83 7.49 7.49.0 0 1-7.11-1.69A1.24 1.24.0 0 1 46.5 21.7z"/><path class="cls-19" d="M52.2 24.23A8.15 8.15.0 0 1 48 23.16a1.14 1.14.0 0 1-.61-1.32 7.42 7.42.0 0 1 3.14-4.75 4.37 4.37.0 0 1 3.82-.1 6 6 0 0 1 1.8 1 3.88 3.88.0 0 0 1.44.81c.22.0.24.12.16.3a12.17 12.17.0 0 1-2.67 4A4.31 4.31.0 0 1 52.2 24.23z"/><path class="cls-25" d="M53.53 17.75a4.31 4.31.0 0 0-3 .38c-2.16 1.36-2.38 4.64.35 5.38s5.79-2 4.45-4.84A6.87 6.87.0 0 0 53.53 17.75z"/><path class="cls-19" d="M52.81 20.47a1.3 1.3.0 0 1-1.41-1.2 1.32 1.32.0 0 1 .12-.66 2.52 2.52.0 0 0-3 2.79 2.56 2.56.0 0 0 2.74 2.38 2.6 2.6.0 0 0 2.3-2.84 2.87 2.87.0 0 0-.14-.66A1.38 1.38.0 0 1 52.81 20.47z"/><path class="cls-2" d="M41.45 20.47a26 26 0 0 0-1-2.64c-1.37-2.47-4-3-5.55-.84-.31.46-1.24.7-.58 1.58.42.56.66 1.93 1.07 2.66a3.23 3.23.0 0 0 1.83 1.62 3.48 3.48.0 0 0 4.26-1.21A1.38 1.38.0 0 0 41.45 20.47z"/><path class="cls-19" d="M38.14 22.6a3.66 3.66.0 0 0 2.56-.78 1 1 0 0 0 .36-1.09 7.18 7.18.0 0 0-1.94-4.1 2 2 0 0 0-2.3-.2 3.23 3.23.0 0 0-1.09.78 2 2 0 0 1-.86.64c-.14.0-.15.09-.09.25a11.82 11.82.0 0 0 1.64 3.49A2.48 2.48.0 0 0 38.14 22.6z"/><path class="cls-25" d="M37.29 17.1a2 2 0 0 1 1.84.41c1.31 1.21 1.47 4-.17 4.53s-3.52-1.9-2.73-4.22C36.23 17.82 37 17.13 37.29 17.1z"/><path class="cls-19" d="M38.94 19.9a1 1 0 0 1-.74-1.13 1 1 0 0 1 .2-.46 1.35 1.35.0 0 0-.49-.16 1.83 1.83.0 0 0-2 1.69 1.9 1.9.0 0 0 1.42 2.23 1.84 1.84.0 0 0 2-1.7 2.18 2.18.0 0 0 0-.51A.81.81.0 0 1 38.94 19.9z"/><path class="cls-26" d="M66.33 3.64a5.48 5.48.0 0 1 .41-.8c.74-1 2.26-1.53 3.08-.18.0.0 3.06 5.06.94 13.14l-1.1 2.65-1.18 2.6s-3.14-8.4-5.68-10.72c-.59-.53-.31-1.09.16-1.54A31.66 31.66.0 0 0 66.33 3.64z"/><path class="cls-27" d="M52.65 8.27h0s-1.27.27-1.44.35a4.23 4.23.0 0 0-1.38 1.15 8.64 8.64.0 0 0-1.66 3.05s-2.81 9.73-.8 8.4l1.77-3.08c.76-1.39 1-3.5 1.59-5.06A40.7 40.7.0 0 1 52.65 8.27z"/><path class="cls-19" d="M46.21 20.93c-.24-.19-.17-.48-.16-.71A40.76 40.76.0 0 1 47.91 9.94 22.14 22.14.0 0 1 50.2 5.22a1.47 1.47.0 0 1 1.21-.85c.18.0.4.24.58.22s.77-.17.94.27-.17.41-.43.63a13.09 13.09.0 0 0-3.72 6.28A46.82 46.82.0 0 0 47 19.28 2.29 2.29.0 0 1 46.21 20.93z"/><path class="cls-28" d="M57.79 5.47a11 11 0 0 0-2.62-.17c-.67.0-2 2.05-2.31 2.51a27.29 27.29.0 0 0-3.06 5.9c-.07.16-1.54 4.07-.45 3.7a.87.87.0 0 0 .48-.65 13.71 13.71.0 0 1 2.77-5.55c1-1.2 4-3.66 5.72-3.59.0.0 1.1.39 3.14-1.93.0.0 2.53-2.92 3.5-4A4 4 0 0 1 68 .59s-1.77-1-4.4.75a29.71 29.71.0 0 0-4.28 3.07S58.17 5.8 57.79 5.47z"/><path class="cls-2" d="M59.57 4.21A3.84 3.84.0 0 0 61.23 4a4.58 4.58.0 0 0 1.6-.89c.18-.19.41-.29.39-.59.0-.12-.28-.7-.44-.6A36.69 36.69.0 0 0 59.57 4.21z"/><path class="cls-29" d="M41.47 18.88s-.3 1.51.0 1.89L39.9 17.49s1.08.72 1.72-1.95c0 0 .64-6.41 3-5.88C44.59 9.66 43.1 16.27 41.47 18.88z"/><path class="cls-19" d="M41.49 19.82c-.3-.31-.13-.64.0-.94.42-1.12.92-2.19 1.3-3.32a38.19 38.19.0 0 0 2-8.24c.06-.54.09-1.08.1-1.61a.43.43.0 0 1 .34-.48l1-.2a.7.7.0 0 1 .63.17A8.81 8.81.0 0 1 46.4 7c-.39 1.75-.89 3.46-1.4 5.17a30.91 30.91.0 0 1-2.06 5L41.83 19.4A1.06 1.06.0 0 1 41.49 19.82z"/><path class="cls-19" d="M36.38 1.93a7 7 0 0 1 3.56 1.58c.93.71 1.39 1.72 2.24 2.48.1.09.68.38.72.48C44 9.3 41.25 17.1 41.25 17.1c-.71 1.25-.35-.76-.35-.76a31.88 31.88.0 0 1 .67-4.21C41.7 9 40.79 5.5 38.11 3.77c-.67-.43-4.15-1.9-4.33-.06C33.78 3.71 34 2 36.38 1.93z"/><path class="cls-2" d="M41.49 19.82a10.3 10.3.0 0 1 .18 3.7l-.78.07.27-2.3S40.81 19.5 41.49 19.82z"/><path class="cls-2" d="M41.06 22s0 1.71-1.15 2.14l1.45-.46z"/><path class="cls-2" d="M46.86 20.59a.32.32.0 0 0-.27.16c-.4.6-1.93 3-1 3.54.0.0.26.47 1-.62l.52-2.4S47.44 20.58 46.86 20.59z"/><path class="cls-2" d="M46.66 23a2.45 2.45.0 0 0 .39 1.84l-1.47-.54z"/><path class="cls-22" d="M34.36 13.43s.72-.8.81.25c0 0 2.63-1.46 2.92-1.73s3.1-3.45 3.1-3.45l-.62-1.66-3 .44-2.4 5.1z"/><path class="cls-26" d="M33.39 5c.35-1.75 2.78-.12 3.46.42A7.52 7.52.0 0 1 38.31 7c.59.84.74 1.25.06 2.06-.5.61-1.09 1.16-1.63 1.75-.74.82-2.41 2.21-2.58 3.4A16.84 16.84.0 0 1 33.39 5z"/><path class="cls-2" d="M66.78 28.65l-.07.08A.13.13.0 0 1 66.78 28.65z"/><path class="cls-22" d="M66 29.76c0 .08.0.13-.11.14S65.92 29.77 66 29.76z"/><path class="cls-3" d="M67.53 21.92c-1.91-2.4-6 3.61-6.76 4.87.0.0-.33.54.09.36.0.0 4.07-4.08 6-3.68.0.0 1.51.77 1.58 1.07A7.06 7.06.0 0 0 67.53 21.92z"/><path class="cls-3" d="M67.78 25.84s-2.07-1-4.79 1.31a29.11 29.11.0 0 1-3.73 2.37c-.28.16-3 1.34-1.66 1.76a42 42 0 0 0 5.8-2c.22-.1 2.66-1.11 3.31-.69A6.72 6.72.0 0 0 67.78 25.84z"/><path class="cls-3" d="M41.17 28.29a1.12 1.12.0 0 1 .7-.72 6.09 6.09.0 0 1-.22.87l-.13.39c-.06.13-.08.27-.16.44A1 1 0 0 1 41.17 28.29z"/><path class="cls-3" d="M44.49 28.27c0 .16.36.23.52.24a.28.28.0 0 0 .31-.27.29.29.0 0 0-.26-.32C44.9 27.91 44.5 28.1 44.49 28.27z"/><path class="cls-3" d="M45.71 29c0 .17.36.24.52.25a.3.3.0 0 0 .05-.59C46.12 28.61 45.72 28.81 45.71 29z"/><path class="cls-3" d="M44.5 29.66c0 .17.36.23.52.25a.29.29.0 0 0 .31-.27.28.28.0 0 0-.26-.32C44.91 29.3 44.51 29.5 44.5 29.66z"/><path class="cls-3" d="M39.8 28c0 .12-.26.17-.38.18a.21.21.0 0 1-.23-.19.22.22.0 0 1 .19-.24C39.5 27.69 39.79 27.84 39.8 28z"/><path class="cls-3" d="M38.91 28.47c0 .12-.26.17-.38.18a.22.22.0 0 1-.23-.2.21.21.0 0 1 .19-.23C38.61 28.21 38.9 28.35 38.91 28.47z"/><path class="cls-3" d="M39.8 29c0 .12-.27.17-.39.18a.21.21.0 0 1-.22-.2.21.21.0 0 1 .19-.23C39.49 28.71 39.79 28.85 39.8 29z"/><path class="cls-30" d="M43.6 24.47A2.14 2.14.0 0 1 45 25.52a.65.65.0 0 1-.14.51 2.39 2.39.0 0 1-.25.33 3.06 3.06.0 0 1-2.47 1.09A1.71 1.71.0 0 1 41 26.51c-.24-.45-.67-1.3-.44-1.84.13-.28 1-1 1.26-.62A3.77 3.77.0 0 0 43.6 24.47z"/><path class="cls-31" d="M44.59 26.36s-1.17-.59-1.72 1.06"/><path class="cls-31" d="M40.64 25.18s.93.27.4 1.45"/><path class="cls-2" d="M33.47 28.9s2.19 1.76 3.1 1.35c0 0 1.24-.27.16-1.8L40 32.64l3.56-.25.84 2.53-.91.41s-2.08-.46-3.05-.7C37 33.78 35.43 32.64 33.47 28.9z"/><path class="cls-3" d="M44.82 23.77c-.16.0-.14-.41-.12-.57a.29.29.0 1 1 .57.08C45.24 23.44 45 23.79 44.82 23.77z"/><path class="cls-3" d="M41.69 23.35c-.15.0-.13-.41-.11-.57a.28.28.0 0 1 .32-.25.29.29.0 0 1 .24.33C42.12 23 41.85 23.38 41.69 23.35z"/><path class="cls-2" d="M38.81 2.84a3.22 3.22.0 0 0 2.38 2S39.74 2.82 38.81 2.84z"/><path class="cls-15" d="M54.61 36.83l-.29-.08a10.93 10.93.0 0 0-5.68-.22s-6.88.7-12-3.28A26.26 26.26.0 0 0 53.43 35S61.72 32.68 65 30.21a35.31 35.31.0 0 1-5.7 3.66s-1.12.59.41 1.09c-.25-.08-2 1.33-2.37 1.5A3.64 3.64.0 0 1 54.61 36.83z"/><ellipse class="cls-32" cx="51.98" cy="19.8" rx=".98" ry=".96"/><ellipse class="cls-32" cx="38.73" cy="19.16" rx=".8" ry=".78"/><path class="cls-19" d="M37.94 29.56a.14.14.0 0 1 .16.0 3.49 3.49.0 0 0 3.21.25.13.13.0 0 1 .12.0A5.13 5.13.0 0 0 46.8 30a.12.12.0 0 1 .16.0.12.12.0 0 1 0 .16 3.58 3.58.0 0 1-2.83 1.41 4.52 4.52.0 0 1-2.1-.56 1.81 1.81.0 0 0-1.31-.22 2.71 2.71.0 0 1-2.8-1.15A.12.12.0 0 1 37.94 29.56z"/><g class="phone-light"><path class="cls-33" d="M22.62 27.26l-20-12.69S-4.14 26.93 4 42.56l18.8-12.8S23.9 29.12 22.62 27.26z"/><animate attributeType="auto" attributeName="opacity" dur="1.5s" values="0.4;1;0.4" repeatCount="indefinite" begin="0"/></g></svg>