<svg xmlns="http://www.w3.org/2000/svg" xmlns:xlink="http://www.w3.org/1999/xlink" viewBox="0 0 312.09 198.3"><defs><style>.cls-1{fill:#70a365}.cls-2{fill:#794f34}.cls-11,.cls-14,.cls-19,.cls-2,.cls-23,.cls-28,.cls-3,.cls-40,.cls-51,.cls-52,.cls-54,.cls-7{stroke:#4d3224}.cls-13,.cls-14,.cls-15,.cls-19,.cls-2,.cls-21,.cls-23,.cls-28,.cls-29,.cls-3,.cls-40,.cls-41,.cls-44,.cls-45,.cls-46,.cls-48,.cls-50,.cls-51,.cls-52,.cls-53,.cls-54,.cls-55,.cls-57,.cls-58{stroke-linecap:round;stroke-linejoin:round}.cls-2,.cls-3{stroke-width:1.69px}.cls-3,.cls-5{fill:#f6e0b2}.cls-4{fill:#e7c48d}.cls-6{fill:#a66c3d}.cls-11,.cls-20,.cls-7{fill:#b38e58}.cls-11,.cls-36,.cls-37,.cls-7{stroke-miterlimit:10}.cls-19,.cls-7{stroke-width:.96px}.cls-8{fill:#fbfcfc}.cls-9{fill:#4c3124}.cls-10{fill:#724b36}.cls-11{stroke-width:1.1px}.cls-12{fill:#cca264}.cls-13,.cls-55{fill:#c9caca}.cls-13,.cls-15,.cls-21,.cls-29,.cls-36,.cls-37,.cls-41,.cls-44,.cls-45,.cls-46,.cls-48,.cls-50,.cls-53,.cls-55,.cls-58{stroke:#4c3124}.cls-13,.cls-15{stroke-width:1px}.cls-14{fill:#fafafa;stroke-width:.84px}.cls-15{fill:#c8e5f0}.cls-16{fill:#d8d2d3}.cls-17{fill:url(#未命名漸層_32)}.cls-18{fill:url(#未命名漸層_32-2)}.cls-19,.cls-23,.cls-27,.cls-28{fill:#c79f63}.cls-21{fill:#a68063}.cls-21,.cls-29{stroke-width:1.4px}.cls-22{fill:#e1e0df}.cls-23{stroke-width:.97px}.cls-24{fill:#dddede}.cls-25{fill:#422412}.cls-26{fill:#a58063}.cls-28{stroke-width:.95px}.cls-29,.cls-37,.cls-48{fill:none}.cls-30{fill:#968d5d}.cls-31{fill:#066c7c}.cls-32{fill:#fde2d1}.cls-33{fill:url(#未命名漸層_6)}.cls-34{fill:#412310}.cls-35{fill:url(#未命名漸層_6-2)}.cls-36{fill:#d5a49a}.cls-38,.cls-58{fill:#fff}.cls-39{fill:url(#未命名漸層_32-3)}.cls-40,.cls-51,.cls-52,.cls-54{stroke-width:1.07px}.cls-41,.cls-50,.cls-55{stroke-width:1.56px}.cls-42{fill:#675b5a}.cls-43{fill:#766b6b}.cls-44{fill:#e5e5e5;stroke-width:1.49px}.cls-45{stroke-width:1.95px}.cls-46{stroke-width:1.34px}.cls-47{fill:url(#未命名漸層_3)}.cls-48{stroke-width:1.44px}.cls-49{fill:#5b3b2a}.cls-50{fill:#7f7f80}.cls-51{fill:url(#未命名漸層_22)}.cls-52{fill:url(#未命名漸層_22-2)}.cls-53{stroke-width:1.3px}.cls-54{fill:url(#未命名漸層_22-3)}.cls-56{opacity:.8}.cls-57{fill:#717272;stroke:#717272}.cls-57,.cls-58{stroke-width:1.45px}</style><linearGradient id="未命名漸層_32" x1="2985.11" y1="-303.07" x2="2976.07" y2="-307.36" gradientTransform="matrix(-0.68, 0.84, 0.55, 0.78, 2457.67, -2223.82)" gradientUnits="userSpaceOnUse"><stop offset="0" stop-color="#fff" stop-opacity="0"/><stop offset=".89" stop-color="#fff"/></linearGradient><linearGradient id="未命名漸層_32-2" x1="2983.55" y1="-301.19" x2="2977.29" y2="-304.16" xlink:href="#未命名漸層_32"/><linearGradient id="未命名漸層_6" x1="2313.83" y1="-947.36" x2="2312.14" y2="-941.83" gradientTransform="matrix(-0.95, 0.29, 0.29, 0.96, 2703.54, 270.9)" gradientUnits="userSpaceOnUse"><stop offset="0" stop-color="#fff" stop-opacity="0"/><stop offset="1" stop-color="#fff"/></linearGradient><linearGradient id="未命名漸層_6-2" x1="2307.21" y1="-947.74" x2="2305.8" y2="-942.68" xlink:href="#未命名漸層_6"/><linearGradient id="未命名漸層_32-3" x1="1320.86" y1="-743.75" x2="1309.2" y2="-743.75" gradientTransform="matrix(0.89, -0.44, 0.44, 0.9, -580.49, 1274.57)" xlink:href="#未命名漸層_32"/><radialGradient id="未命名漸層_3" cx="3290.66" cy="23.34" r="50.94" gradientTransform="matrix(-0.75, 0.69, 0.62, 0.68, 2623.11, -2243.73)" gradientUnits="userSpaceOnUse"><stop offset=".27"/><stop offset=".96" stop-color="#424242"/></radialGradient><linearGradient id="未命名漸層_22" x1="171.74" y1="144.63" x2="119.42" y2="104.81" gradientUnits="userSpaceOnUse"><stop offset="0" stop-color="#343434"/><stop offset="1"/></linearGradient><linearGradient id="未命名漸層_22-2" x1="173.11" y1="142.91" x2="97.78" y2="85.58" xlink:href="#未命名漸層_22"/><linearGradient id="未命名漸層_22-3" x1="189" y1="114.93" x2="190.69" y2="91.28" xlink:href="#未命名漸層_22"/></defs><title>worksPages-animal</title><path class="cls-1" d="M29 158.31C18 159.75 4.49 163.47 3.6 172c-.94 8.95 12.87 14.12 24.29 16.45 84.47 17.22 151.33 9.59 236.66-5 6.93-1.18 33.85-8.64 39.5-11.91s9.51-8.92 7.5-14.09c-2.94-7.6-25.64-8.12-36-9C189.1 141.07 114.76 147.18 29 158.31z"/><path class="cls-2" d="M271.1 111.3c5.31 3.48.65 18.84 1.93 24.52 1.07 4.75 4.27 7.37 7.48 10.6 2.71 2.73 9.18 6.22 9.74 10.18-7.32.6-12.54-4.81-19.57-5.34-3.29-.25-6.14.43-7.88 3.77-1.28 2.47.23 8.45-1.6 10.25-3.82 3.74-9.76-11.89-15-11.9-6.86.0-10.79 10.55-13.6 15.55-1 1.82-3 7-5.22 7-3.38.0-4.68-6.77-4.89-9-.5-5.13.48-15.46-7-15.64-5.63-.13-12.22 9.92-17.57 6.56-6.35-4 6-9.22 4.62-13-1.65-4.4-9.77 1.48-12.15 1.44-5.39-.1.0-5.61 2.94-7.29 3.58-2.07 7.6-4.09 10.64-7 6.37-6 7.53-12.39 7.34-20.13.0-.86 20.35-1.43 30.45-1.22l20.38.42C264 111.14 269.46 110.25 271.1 111.3z"/><path class="cls-3" d="M265.85 107.18c-11.11-3.93-23-3.78-34.68-3.37-5 .17-17.3.79-19.85 6.32-4.33 9.44 23.61 8.64 27.83 8.58 8.92-.12 22.37 1.15 30.41-3.2 8.84-4.79-6.69-9.66-10.54-10.48z"/><path class="cls-4" d="M262.14 108.29c-9.34-2.69-19.37-2.54-29.16-2.22-4.2.14-14.56.62-16.73 4.48-3.68 6.6 19.83 5.94 23.38 5.88 7.5-.12 18.82.72 25.6-2.35 7.45-3.36-5.6-6.7-8.83-7.26z"/><path class="cls-5" d="M258.41 109.07c-7.8-1.73-16.2-1.59-24.41-1.33-3.52.11-12.19.47-14 3-3.12 4.36 16.57 3.82 19.55 3.77 6.28-.12 15.75.38 21.45-1.67 6.25-2.25-4.66-4.39-7.36-4.74z"/><path class="cls-4" d="M247.88 110.32a38.38 38.38.0 0 0-9.43-.51c-1.35.0-4.7.18-5.41 1.17-1.2 1.68 6.4 1.47 7.55 1.45 2.42.0 6.08.15 8.28-.64 2.41-.87-1.8-1.7-2.84-1.83z"/><path class="cls-6" d="M246.56 122.74c.05-.52.87-.53.82.0-.21 2.1-.39 4.21-.41 6.33a.41.41.0 0 1-.82.0C246.17 127 246.35 124.84 246.56 122.74z"/><path class="cls-6" d="M242.49 140.41c.55-1.87.25-3.83.61-5.72.1-.52.89-.3.79.21-.36 1.9-.06 3.85-.61 5.73A.41.41.0 0 1 242.49 140.41z"/><path class="cls-6" d="M239.61 125.6a.41.41.0 0 1 .82.0 26.62 26.62.0 0 1-.22 4c-.08.52-.87.3-.79-.22A25 25 0 0 0 239.61 125.6z"/><path class="cls-6" d="M237.16 136v1.84a.41.41.0 0 1-.82.0V136A.41.41.0 0 1 237.16 136z"/><path class="cls-6" d="M231.66 125.28c.12-.51.9-.29.79.22a10.31 10.31.0 0 0-.19 2.35.41.41.0 0 1-.82.0A11.07 11.07.0 0 1 231.66 125.28z"/><path class="cls-6" d="M229 140.52V143a.41.41.0 0 1-.82.0v-2.45A.41.41.0 0 1 229 140.52z"/><path class="cls-6" d="M226.53 127a.41.41.0 0 1 .82.0 38.87 38.87.0 0 1-.83 6.44c-.1.52-.88.3-.79-.21A36.38 36.38.0 0 0 226.53 127z"/><path class="cls-6" d="M221.64 121.2c.09-.52.87-.3.79.21-.21 1.3-.4 2.59-.61 3.89-.09.52-.88.3-.79-.22C221.24 123.79 221.43 122.49 221.64 121.2z"/><path class="cls-6" d="M219.43 130.91c.22-.48.93-.06.71.41a3 3 0 0 0-.15 1.23.41.41.0 0 1-.82.0A4 4 0 0 1 219.43 130.91z"/><path class="cls-6" d="M214.12 124.17a12.78 12.78.0 0 0 1-2.36.41.41.0 0 1 .79.22 14.16 14.16.0 0 1-1.06 2.55C214.59 125.05 213.89 124.63 214.12 124.17z"/><path class="cls-6" d="M211.63 132.23l.61-1.84c.17-.49 1-.28.79.22l-.61 1.84C212.25 133 211.46 132.74 211.63 132.23z"/><path class="cls-6" d="M205.4 134.3a16 16 0 0 0 2.59-3.59c.22-.48.92-.07.71.41a16.73 16.73.0 0 1-2.73 3.76C205.63 135.28 205.06 134.7 205.4 134.3z"/><path class="cls-6" d="M267 122.74V126a.41.41.0 0 1-.82.0v-3.27A.41.41.0 0 1 267 122.74z"/><path class="cls-6" d="M266.8 132.34a6.2 6.2.0 0 0 1 3.07.41.41.0 0 1-.7.41 7 7 0 0 1-1.08-3.48A.41.41.0 0 1 266.8 132.34z"/><path class="cls-6" d="M271.07 140.2a5.07 5.07.0 0 0 1.12 2.48c.37.38-.21 1-.57.58a5.66 5.66.0 0 1-1.33-2.84C270.18 139.91 271 139.69 271.07 140.2z"/><path class="cls-6" d="M261.91 137.55a.41.41.0 0 1 .78.22 3.9 3.9.0 0 0 .37 3.16c.26.45-.45.87-.7.41A4.67 4.67.0 0 1 261.91 137.55z"/><path class="cls-6" d="M252.08 140.31V142a.41.41.0 0 1-.82.0v-1.64A.41.41.0 0 1 252.08 140.31z"/><path class="cls-6" d="M250.85 128.87v3.47a.41.41.0 0 1-.81.0v-3.47A.41.41.0 0 1 250.85 128.87z"/><path class="cls-6" d="M260.26 125.19a27.83 27.83.0 0 0 .59 5.61c.11.52-.67.74-.78.22a28.59 28.59.0 0 1-.63-5.83A.41.41.0 0 1 260.26 125.19z"/><path class="cls-6" d="M256 131.42c.08-.52.87-.3.79.21a25.13 25.13.0 0 0-.19 3.78.41.41.0 0 1-.82.0A26.55 26.55.0 0 1 256 131.42z"/><path class="cls-6" d="M254.94 123.76v2.45a.41.41.0 0 1-.82.0v-2.45A.41.41.0 0 1 254.94 123.76z"/><path class="cls-7" d="M255.6 107.54a3.24 3.24.0 0 1-3 1 3 3 0 0 1-2.23-2.94l-.47-.26A51.11 51.11.0 0 1 241.58 99a25.9 25.9.0 0 1-8.22-14.42 11.58 11.58.0 0 1 .31-6.21 22.5 22.5.0 0 1 5.77-.44 14.09 14.09.0 0 1 10.9 5.85c2.72 3.62 4.3 8.45 5.36 13.45.11.5.21 1 .29 1.54.71-.27 2.48-1.46 3.2-1.69 2.79-.89 3.17-.67 7.11-.18a11.58 11.58.0 0 0 1.84-2c.85-1 1.95-1.86 3.15-1.32 1.53.69.94 3.07.58 4.33-.66 2.35-.91 2.77-3 3a10.85 10.85.0 0 0-4.63 1.38S256.73 105.93 255.6 107.54z"/><path class="cls-8" d="M236.83 80.39a52.43 52.43.0 0 1 6.39 4.24c3.06 2.34 3.78 6.52 6 9.72 2 3 6.18 5 7.07 8.57.0.0 9.67-3.25 10.78-2.33.0.0-6.31 3-10.15 4.66L243.81 96.9z"/><path class="cls-9" d="M251.87 94.14a.68.68.0 0 1-.83.19 1 1 0 0 1-.46-.67 1.26 1.26.0 0 1 0-.64.69.69.0 0 1 .42-.46 1 1 0 0 1 .7.14.81.81.0 0 1 .35.31.74.74.0 0 1 0 .39A1.35 1.35.0 0 1 251.87 94.14z"/><path class="cls-10" d="M250.29 96.05a.86.86.0 0 1-.44.88 1.08 1.08.0 0 1-.91-.05 1.12 1.12.0 0 1-.53-.43.77.77.0 0 1-.08-.69 1.18 1.18.0 0 1 .62-.54.88.88.0 0 1 .52-.1.8.8.0 0 1 .36.22A1.34 1.34.0 0 1 250.29 96.05z"/><path class="cls-9" d="M242 81.86a.94.94.0 0 1-1 .51 1.27 1.27.0 0 1-.79-.7 1.49 1.49.0 0 1-.2-.8.9.9.0 0 1 .4-.71 1.24 1.24.0 0 1 .93-.06 1 1 0 0 1 .55.28 1.06 1.06.0 0 1 .17.47A1.65 1.65.0 0 1 242 81.86z"/><path class="cls-9" d="M246 84.22a.92.92.0 0 1-1.06.32 1.29 1.29.0 0 1-.67-.83 1.56 1.56.0 0 1-.05-.83.89.89.0 0 1 .5-.63 1.24 1.24.0 0 1 .92.11 1 1 0 0 1 .5.37 1.06 1.06.0 0 1 .09.5A1.69 1.69.0 0 1 246 84.22z"/><path class="cls-9" d="M249.87 89.22a.88.88.0 0 1-1.07.24 1.3 1.3.0 0 1-.61-.88 1.56 1.56.0 0 1 0-.83.9.9.0 0 1 .54-.6 1.24 1.24.0 0 1 .91.19 1 1 0 0 1 .47.41 1 1 0 0 1 .06.5A1.72 1.72.0 0 1 249.87 89.22z"/><path class="cls-11" d="M225.05 95.5l-.18.09c-3.45 1.84-9.57-2.16-11.42-3.52-3.14-2.32-6.42-9.69-5.39-13.44.72-2.66 2.19-5.43 2.94-8.15a12 12 0 0 0-.83-8.48c-2.51-5.55-8.06-9.42-14.65-12-3.29-1.29-6.82-.67-7.14.36-.51 1.65 4.61 4.82 6.92 5.81 4.24 1.82 7.45 3.53 8.8 7.49s-1.42 8.7-2.5 13c-2 7.83 2.55 17.62 9.85 21.67.0.0 6.45 4.16 12.84-.12z"/><path class="cls-12" d="M219.05 97.65c-6.27-.72-10.19-5.46-12.09-7.82-3.52-4.38-4.17-11.89-.48-17.41.0.0 5-10.56-6.63-16.68.0.0-10.37-3.86-10.95-5.47.0.0-.82 2.56 8.72 6.63.0.0 9.32 3.23 6.87 11.32.0.0-3.68 12.14-3 13.18.0.0 2.22 19.37 18.31 18z"/><ellipse class="cls-9" cx="212.75" cy="92.89" rx="1.43" ry="2.25" transform="translate(12.87 210.96) rotate(-54.16)"/><ellipse class="cls-9" cx="208.59" cy="72.58" rx="2.67" ry="1.58" transform="translate(52.59 228.92) rotate(-64.25)"/><ellipse class="cls-9" cx="208.32" cy="86.54" rx="1.26" ry="1.74" transform="translate(-15.67 113.31) rotate(-29.37)"/><ellipse class="cls-9" cx="206.46" cy="63.52" rx="1.12" ry="2.01" transform="translate(-9.45 56.81) rotate(-15.32)"/><ellipse class="cls-9" cx="204.43" cy="56.83" rx="1.76" ry="2.58" transform="translate(17.93 158.02) rotate(-44.02)"/><g class="hand-right"><path class="cls-7" d="M240.76 50.88a8 8 0 0 1 .73-.53A5.82 5.82.0 0 1 245 49.26a18.51 18.51.0 0 0 2.33.28c1.71-.09 2.95-1.6 3.81-3a29.19 29.19.0 0 0 2.3-4.74c.85-2.28 2.32-4.35 5.26-3.91 2 .31 4.06 2.94.75 4-1 .32-1.23.22-2 .89a3.29 3.29.0 0 0-.84 1.5l-2.27 6.65a15.17 15.17.0 0 1-2.9 5.68c-1.64 1.76-4 2.69-6.09 3.92a21.44 21.44.0 0 0-5 4.07 2.57 2.57.0 0 1-1.62 1.07c-1 0-1.52-1.15-1.69-2.11C236.28 59.06 237.17 53.81 240.76 50.88z"/><path class="cls-8" d="M256.17 44.84s-.36-.8-1.43.14c-1.22 1.77-1.94 3.79-3.1 5.59a9 9 0 0 1-1.91 2.23c-.15.12-2.65 1.51-2.62.66.0.0-.15 4.46-.92 6 0 0 5.74-1.53 7.15-6.38z"/><path class="cls-9" d="M252.55 45.07a.69.69.0 0 1-.44-.72 1 1 0 0 1 .49-.66 1.19 1.19.0 0 1 .6-.22.67.67.0 0 1 .57.24.93.93.0 0 1 .09.7.61.61.0 0 1-.53.62A1.3 1.3.0 0 1 252.55 45.07z"/><path class="cls-9" d="M251 48.33a.68.68.0 0 1-.3-.78 1 1 0 0 1 .59-.58 1.17 1.17.0 0 1 .63-.12.7.7.0 0 1 .52.33 1 1 0 0 1 0 .72.76.76.0 0 1-.25.4.85.85.0 0 1-.38.12A1.26 1.26.0 0 1 251 48.33z"/><path class="cls-9" d="M248.31 50.69a.87.87.0 0 1-.4-1 1.34 1.34.0 0 1 .77-.74 1.4 1.4.0 0 1 .8-.15.84.84.0 0 1 .66.42 1.25 1.25.0 0 1 0 .91 1 1 0 0 1-.32.52 1 1 0 0 1-.48.15A1.63 1.63.0 0 1 248.31 50.69z"/><animateTransform attributeType="auto" attributeName="transform" type="translate" values="0 0; 0 10; 0 0" dur="1.5s" repeatCount="indefinite" /></g><path class="cls-13" d="M261.63 52.26l4.73-6.41a2.32 2.32.0 0 0 .19-1.93l-5-13.82c-.23-.61-1.11-.39-1.44.0l-4.58 5.92a2.32 2.32.0 0 0-.18 1.93l5.32 13.94C260.85 52.56 261.31 52.7 261.63 52.26z"/><path class="cls-14" d="M262.05 51.57l4.5-6.12a1.33 1.33.0 0 0 .1-1.1l-5-13.68c-.13-.36-.38-.44-.57-.19l-4.67 5.86a1.34 1.34.0 0 0-.1 1.1l5.21 13.94C261.61 51.74 261.86 51.82 262.05 51.57z"/><ellipse class="cls-15" cx="257.67" cy="37.07" rx=".49" ry=".73" transform="translate(-1.42 11.72) rotate(-2.6)"/><path class="cls-16" d="M262.31 39.33a1.64 1.64.0 0 1 .11.41 2.78 2.78.0 0 1-.5 1.89c-.44.63-1 .72-1.29.0a2.7 2.7.0 0 1-.15-1.28 1.89 1.89.0 0 1 .5-1c.18-.24.35-.64.54-.67S262.13 38.9 262.31 39.33z"/><path class="cls-16" d="M261.19 38.78a1.32 1.32.0 0 1-.29.72 1.14 1.14.0 0 1-.25-.71A1.58 1.58.0 0 1 261 38 1.45 1.45.0 0 1 261.19 38.78z"/><path class="cls-17" d="M261.74 32.65l-3.82 10.22 1.42.64 3.24-9S262.27 33 261.74 32.65z"/><path class="cls-18" d="M263.05 35.92 260.31 42.98 261.27 42.83 263.47 37.38 263.05 35.92z"/><path class="cls-19" d="M221.82 99.3a23.5 23.5.0 0 0 2.28 2.94c3.06 3.33 7.29 5.87 11.44 4.09a13.59 13.59.0 0 0 5.25-3.8c1.47-1.82 1.28-3.44 1.94-5.42a41.06 41.06.0 0 1 2-4.86L251.75 78c1.21-2.44 3.34-5.37 3.75-8a36.9 36.9.0 0 0-.08-6.89 29.52 29.52.0 0 0-5.91-16.94 32.32 32.32.0 0 0-4.15-4.5 47.42 47.42.0 0 0-8.24-5.91c-1.65-.95-3.93-2-5.93-1.65-3.13.58-2.42 3.3-2.14 5.52.1.72.17 1.43.24 2.15.16 1.61.26 3.23.3 4.85.0.66.0 1.33.0 2q0 3-.24 6s0 .06.0.09c-.09 1-.13 2.08-.23 3.17a13.74 13.74.0 0 1-.84 3.93c-.24.56-.49 1.13-.75 1.69-.5 1.08-1 2.16-1.54 3.2a3 3 0 0 1-.18.36c-.85 1.72-1.86 3.4-2.91 5.08-.54.86-1 1.7-1.51 2.54l-.27.49a.08.08.0 0 1 0 0A23.25 23.25.0 0 0 219 80.6c-.07.27-.13.56-.19.85-.09.45-.16.9-.22 1.37a26.28 26.28.0 0 0-.2 4.64 27.22 27.22.0 0 0 .51 4.4c.08.42.18.85.29 1.27s.51 1.88.62 2.23"/><path class="cls-8" d="M237.89 91.33l-3.73-1.89c3.3-8.85 4.19-12.87 7.57-21.7 1.23-3.11.5-7 0-10.15-.33-1.88-.74-3.76-1.23-5.62-.24-.91-1.16-2.5-.73-3.41.6-1.26 3.43-1.65 4.62-2.16.3-.13 4.24-1.78 4-2.13 5.37 7.94 8.15 20.9 3 29.84-1.17 2.06-3.92 7.79-5.32 9.69-4 5.42-3.54 2.35-7.54 7.77"/><path class="cls-20" d="M229.64 58.06a13.47 13.47.0 0 1-.83 3.94c-.24.56-.49 1.12-.76 1.69-.5 1.08-1 2.15-1.53 3.2l-.18.35c-.86 1.73-1.87 3.41-2.92 5.08-.54.86-1 1.7-1.5 2.54 3.22-3.79 5.94-7.85 9.16-11.64 3.09-3.63 3.06-6.54 4.37-11 .92-3.15 3.78-7.92 1-9.69a8.7 8.7.0 0 0-5.1-1 10.92 10.92.0 0 0-2.05.24c.16 1.61.26 3.23.3 4.85.0.66.54 1.61.54 2.28"/><path class="cls-9" d="M235 70.33a1.23 1.23.0 0 1-1.18.84 1.67 1.67.0 0 1-1.21-.65 1.8 1.8.0 0 1-.45-.93 1.11 1.11.0 0 1 .35-1 1.81 1.81.0 0 1 1.21-.28 1.32 1.32.0 0 1 .79.21 1.19 1.19.0 0 1 .34.53A1.85 1.85.0 0 1 235 70.33z"/><path class="cls-9" d="M233.78 74.21a1.29 1.29.0 0 1-.09 1.57 2 2 0 0 1-1.47.57 2.22 2.22.0 0 1-1.17-.26 1.17 1.17.0 0 1-.6-1 1.86 1.86.0 0 1 .62-1.21 1.45 1.45.0 0 1 .75-.52 1.53 1.53.0 0 1 .73.08A2.17 2.17.0 0 1 233.78 74.21z"/><path class="cls-9" d="M228.71 78.2A1.31 1.31.0 0 1 230 79a1.76 1.76.0 0 1-.24 1.45 2.1 2.1.0 0 1-.8.82 1.29 1.29.0 0 1-1.13.0 1.68 1.68.0 0 1-.74-1 1.31 1.31.0 0 1-.08-.85 1.4 1.4.0 0 1 .42-.55A2.48 2.48.0 0 1 228.71 78.2z"/><path class="cls-21" d="M228.45 47.33l1 .65"/><path class="cls-22" d="M247.91 43.44c-.1.0-.2-.06-.27.05l.21.06z"/><path class="cls-20" d="M238.84 47.89a6.11 6.11.0 0 0-3.24 3.9l-1.53-2.46S237.35 47.67 238.84 47.89z"/><ellipse class="cls-9" cx="230.69" cy="53.92" rx="1.5" ry="2.72" transform="translate(-1.27 5.78) rotate(-1.43)"/><ellipse class="cls-9" cx="232.86" cy="60.72" rx="2.27" ry="1.25" transform="translate(149.28 286.39) rotate(-84.29)"/><ellipse class="cls-9" cx="227.89" cy="65.65" rx="2.32" ry="1.22" transform="translate(44.75 216.33) rotate(-55.52)"/><ellipse class="cls-9" cx="226.2" cy="72.84" rx="2.42" ry="1.26" transform="translate(23.29 196.54) rotate(-49.22)"/><ellipse class="cls-9" cx="220.88" cy="77.87" rx="2.2" ry="1.18" transform="translate(60.12 248.19) rotate(-66.07)"/><ellipse class="cls-9" cx="221.18" cy="84.25" rx="2.2" ry="1.18" transform="translate(69.59 266.02) rotate(-71.03)"/><ellipse class="cls-9" cx="221.85" cy="92.84" rx="1.92" ry="1.06" transform="translate(118.82 310.14) rotate(-87.34)"/><path class="cls-19" d="M231 91.11c4.64-2 10-2.32 14.19-.13 3.38 1.75 5.65 5.14 8.12 8.12S259 105 262.73 105a25.7 25.7.0 0 0 3.14-.32l.1-.2c.52-1 1.33-2.3 2.53-2.49a2.07 2.07.0 0 1 2.2 2c.32 3.59.1 7.19-3.52 6l-2.13-.67q-4.94 1.59-10 2.87c-1.46.37-3.08.7-4.38-.08-1-.61-1.62-1.77-2.49-2.61a7.62 7.62.0 0 0-5.56-1.72c-2 0-3.95.45-5.93.33"/><path class="cls-9" d="M227 97.59a1.24 1.24.0 0 1 .62 1.31 1.72 1.72.0 0 1-.87 1.08 1.81 1.81.0 0 1-1 .28 1.07 1.07.0 0 1-.87-.51 1.73 1.73.0 0 1 0-1.25 1.41 1.41.0 0 1 .34-.74 1.23 1.23.0 0 1 .59-.24A1.88 1.88.0 0 1 227 97.59z"/><path class="cls-9" d="M229.66 100.52a2.29 2.29.0 0 1 .94-1.09 1.27 1.27.0 0 1 1.53.37 2 2 0 0 1 .28 1.55 2.1 2.1.0 0 1-.47 1.1 1.19 1.19.0 0 1-1 .43 1.84 1.84.0 0 1-1.07-.82"/><path class="cls-9" d="M233.59 105.13a1.31 1.31.0 0 1 1-1.17 1.74 1.74.0 0 1 1.38.48 2 2 0 0 1 .65.94 1.27 1.27.0 0 1-.15 1.12 1.67 1.67.0 0 1-1.17.54 1.3 1.3.0 0 1-.85-.06 1.44 1.44.0 0 1-.46-.52A2.32 2.32.0 0 1 233.59 105.13z"/><path class="cls-9" d="M233.31 93.81a1.28 1.28.0 0 1 .25 1.44 1.62 1.62.0 0 1-1.11.79 1.72 1.72.0 0 1-1 0 1.12 1.12.0 0 1-.71-.74 1.7 1.7.0 0 1 .27-1.21 1.28 1.28.0 0 1 .52-.62 1.3 1.3.0 0 1 .62-.07A1.94 1.94.0 0 1 233.31 93.81z"/><path class="cls-9" d="M236.29 96.59a1.29 1.29.0 0 1 1.38.78 2 2 0 0 1-.12 1.58 2.14 2.14.0 0 1-.73.92 1.19 1.19.0 0 1-1.12.13 1.9 1.9.0 0 1-.82-1.09 1.18 1.18.0 0 1 .23-1.53A2.26 2.26.0 0 1 236.29 96.59z"/><path class="cls-9" d="M237.72 102.92a1.25 1.25.0 0 1 1.28-.84 1.8 1.8.0 0 1 1.21.85 2.24 2.24.0 0 1 .39 1.09 1.23 1.23.0 0 1-.43 1 1.65 1.65.0 0 1-1.27.2 1.27 1.27.0 0 1-.8-.3 1.34 1.34.0 0 1-.31-.63A2.24 2.24.0 0 1 237.72 102.92z"/><path class="cls-9" d="M241 93.32a1.1 1.1.0 0 1-.13 1.28 1.41 1.41.0 0 1-1.13.37 1.5 1.5.0 0 1-.86-.28 1 1 0 0 1-.41-.81 1.5 1.5.0 0 1 .51-.94 1.12 1.12.0 0 1 .59-.38 1 1 0 0 1 .54.11A1.68 1.68.0 0 1 241 93.32z"/><path class="cls-9" d="M242.84 96.45a1.18 1.18.0 0 1 1 1 1.75 1.75.0 0 1-.48 1.28 1.82 1.82.0 0 1-.84.59 1.06 1.06.0 0 1-1-.19A1.71 1.71.0 0 1 241.1 98a1.31 1.31.0 0 1 .1-.81 1.22 1.22.0 0 1 .46-.41A1.86 1.86.0 0 1 242.84 96.45z"/><path class="cls-9" d="M242.51 102.13a1.07 1.07.0 0 1 1.28-.36 1.6 1.6.0 0 1 .8 1 1.93 1.93.0 0 1 .07 1 1.09 1.09.0 0 1-.62.76 1.51 1.51.0 0 1-1.11-.17 1.2 1.2.0 0 1-.59-.47 1.37 1.37.0 0 1-.12-.6A2 2 0 0 1 242.51 102.13z"/><path class="cls-9" d="M248 95.12a1.09 1.09.0 0 1-.48 1.17 1.37 1.37.0 0 1-1.17.0 1.67 1.67.0 0 1-.74-.52 1 1 0 0 1-.17-.89 1.46 1.46.0 0 1 .74-.75 1.07 1.07.0 0 1 .66-.18 1.09 1.09.0 0 1 .49.25A1.84 1.84.0 0 1 248 95.12z"/><path class="cls-9" d="M248.88 98.62a1.19 1.19.0 0 1 .64 1.26 1.65 1.65.0 0 1-.8 1.08 1.85 1.85.0 0 1-.95.31 1 1 0 0 1-.87-.47 1.75 1.75.0 0 1-.1-1.2 1.31 1.31.0 0 1 .31-.73 1.16 1.16.0 0 1 .56-.26A1.86 1.86.0 0 1 248.88 98.62z"/><path class="cls-9" d="M247 103.92a1.07 1.07.0 0 1 1.31.0 1.66 1.66.0 0 1 .48 1.22 1.83 1.83.0 0 1-.21 1 1 1 0 0 1-.78.54 1.5 1.5.0 0 1-1-.49 1.21 1.21.0 0 1-.44-.61 1.14 1.14.0 0 1 .06-.61A2 2 0 0 1 247 103.92z"/><path class="cls-9" d="M253 102.79a1.19 1.19.0 0 1 .65 1.25 1.69 1.69.0 0 1-.81 1.08 1.79 1.79.0 0 1-.95.31 1.06 1.06.0 0 1-.87-.47 1.75 1.75.0 0 1-.1-1.2 1.34 1.34.0 0 1 .31-.73 1.26 1.26.0 0 1 .56-.26A1.79 1.79.0 0 1 253 102.79z"/><path class="cls-9" d="M257.56 106.33a.74.74.0 0 1-.8.39 1.07 1.07.0 0 1-.64-.58 1.24 1.24.0 0 1-.15-.65.73.73.0 0 1 .32-.57 1 1 0 0 1 .74.0.78.78.0 0 1 .44.23.77.77.0 0 1 .14.39A1.32 1.32.0 0 1 257.56 106.33z"/><path class="cls-9" d="M257.84 109.92a.74.74.0 0 1-.8.39 1 1 0 0 1-.63-.58 1.23 1.23.0 0 1-.16-.65.73.73.0 0 1 .32-.57 1 1 0 0 1 .75.0.82.82.0 0 1 .44.23.86.86.0 0 1 .13.39A1.32 1.32.0 0 1 257.84 109.92z"/><path class="cls-9" d="M227.85 86.57a1 1 0 0 1-.94.77 1.42 1.42.0 0 1-1-.48 1.47 1.47.0 0 1-.43-.75.89.89.0 0 1 .24-.82 1.48 1.48.0 0 1 1-.3 1.07 1.07.0 0 1 .67.13 1 1 0 0 1 .32.42A1.57 1.57.0 0 1 227.85 86.57z"/><path class="cls-9" d="M227.09 89.87a1.07 1.07.0 0 1 0 1.32 1.68 1.68.0 0 1-1.2.56 1.86 1.86.0 0 1-1-.16 1 1 0 0 1-.56-.76 1.54 1.54.0 0 1 .44-1 1 1 0 0 1 1.22-.45A1.94 1.94.0 0 1 227.09 89.87z"/><path class="cls-9" d="M223.09 93.49a1.08 1.08.0 0 1 1.15.59 1.46 1.46.0 0 1-.11 1.22 1.69 1.69.0 0 1-.62.73 1.05 1.05.0 0 1-.94.11 1.45 1.45.0 0 1-.69-.84 1.07 1.07.0 0 1-.11-.7 1.1 1.1.0 0 1 .32-.48A1.91 1.91.0 0 1 223.09 93.49z"/><path class="cls-23" d="M237.13 49.06a35.17 35.17.0 0 1 4.08 2.68 29 29 0 0 1 4.7 4.17c.6.65 5.42 5 5.31 5.42.08-.3.17-.61.26-.91.74-2.45 1.47-4.91 2.21-7.37 1.36-4.53 1.94-9.4 7.2-9.71.0.0 2.24.0 2.11 3.2A4.81 4.81.0 0 1 261.11 49a2.53 2.53.0 0 0-1.45 1.87q.1 7.71.22 15.42c0 2.08-.24 5.27-2.22 6.11-1.59.67-3.4.27-5.09-.18-2-.54-4.09-1.38-6.11-2-2.18-.72-4.37-.9-6.56-1.47"/><path class="cls-9" d="M243 55.62a1 1 0 0 1-.42 1.11 1.25 1.25.0 0 1-1.07.0 1.68 1.68.0 0 1-.68-.53 1 1 0 0 1-.17-.86 1.27 1.27.0 0 1 .67-.68.9.9.0 0 1 .61-.15 1 1 0 0 1 .44.26A1.85 1.85.0 0 1 243 55.62z"/><path class="cls-9" d="M243.88 59a1.24 1.24.0 0 1 .6 1.22 1.52 1.52.0 0 1-.73 1 1.5 1.5.0 0 1-.87.25 1 1 0 0 1-.8-.47 1.68 1.68.0 0 1-.1-1.15 1.25 1.25.0 0 1 .27-.69 1.06 1.06.0 0 1 .51-.22A1.72 1.72.0 0 1 243.88 59z"/><path class="cls-9" d="M242.23 64a1 1 0 0 1 1.2.08 1.73 1.73.0 0 1 .46 1.18 1.81 1.81.0 0 1-.19.93.86.86.0 0 1-.71.49 1.43 1.43.0 0 1-.93-.51 1.18 1.18.0 0 1-.41-.6 1.26 1.26.0 0 1 0-.58A1.81 1.81.0 0 1 242.23 64z"/><path class="cls-9" d="M248.78 60.73a.72.72.0 0 1-.51.7 1 1 0 0 1-.78-.24 1.3 1.3.0 0 1-.41-.52.78.78.0 0 1 0-.65.9.9.0 0 1 .62-.34.66.66.0 0 1 .46.0.71.71.0 0 1 .28.29A1.42 1.42.0 0 1 248.78 60.73z"/><path class="cls-9" d="M248.8 63.33a.93.93.0 0 1 .22 1 1 1 0 0 1-.71.56 1.13 1.13.0 0 1-.68.0.77.77.0 0 1-.5-.51 1.18 1.18.0 0 1 .13-.84.83.83.0 0 1 .32-.43.75.75.0 0 1 .42-.06A1.3 1.3.0 0 1 248.8 63.33z"/><path class="cls-9" d="M246.71 66.55a.72.72.0 0 1 .86.31 1.27 1.27.0 0 1 .13.94 1.25 1.25.0 0 1-.3.62.62.62.0 0 1-.61.2 1.16 1.16.0 0 1-.59-.55 1 1 0 0 1-.2-.52 1 1 0 0 1 .14-.41A1.21 1.21.0 0 1 246.71 66.55z"/><path class="cls-9" d="M252.78 63.47a.63.63.0 0 1-.45.62.82.82.0 0 1-.69-.21 1.11 1.11.0 0 1-.37-.46.69.69.0 0 1 0-.58.76.76.0 0 1 .55-.3.58.58.0 0 1 .41.0.67.67.0 0 1 .25.25A1.31 1.31.0 0 1 252.78 63.47z"/><path class="cls-9" d="M252.8 65.78a.82.82.0 0 1 .2.88.91.91.0 0 1-.63.5 1 1 0 0 1-.61.0.72.72.0 0 1-.45-.45 1.17 1.17.0 0 1 .12-.75.75.75.0 0 1 .29-.38.66.66.0 0 1 .37.0A1.16 1.16.0 0 1 252.8 65.78z"/><path class="cls-9" d="M250.94 68.64a.65.65.0 0 1 .77.27 1.09 1.09.0 0 1 .11.83 1.08 1.08.0 0 1-.26.56.54.54.0 0 1-.54.17 1 1 0 0 1-.53-.49.79.79.0 0 1-.17-.46.77.77.0 0 1 .12-.36A1.06 1.06.0 0 1 250.94 68.64z"/><path class="cls-9" d="M255.3 60.59a.8.8.0 0 1-.27.89 1 1 0 0 1-.84.05 1.23 1.23.0 0 1-.56-.37.82.82.0 0 1-.17-.66 1 1 0 0 1 .49-.57.66.66.0 0 1 .46-.16.69.69.0 0 1 .36.18A1.38 1.38.0 0 1 255.3 60.59z"/><path class="cls-9" d="M258 63a.8.8.0 0 1-.27.89.93.93.0 0 1-.83.0 1.23 1.23.0 0 1-.56-.37.8.8.0 0 1-.18-.66 1 1 0 0 1 .49-.57.68.68.0 0 1 .46-.16.65.65.0 0 1 .36.18A1.33 1.33.0 0 1 258 63z"/><path class="cls-9" d="M255.61 65a1 1 0 0 1 .53.91 1.2 1.2.0 0 1-.51.83A1.14 1.14.0 0 1 255 67a.74.74.0 0 1-.64-.32 1.35 1.35.0 0 1-.14-.89 1 1 0 0 1 .18-.55.89.89.0 0 1 .38-.21A1.27 1.27.0 0 1 255.61 65z"/><path class="cls-9" d="M255.88 68.49a.81.81.0 0 1 1 0 1.44 1.44.0 0 1 .46 1 1.61 1.61.0 0 1-.1.82.74.74.0 0 1-.59.47 1.19 1.19.0 0 1-.83-.37 1.07 1.07.0 0 1-.39-.5 1.06 1.06.0 0 1 0-.5A1.56 1.56.0 0 1 255.88 68.49z"/><path class="cls-24" d="M249.09 35.62a6 6 0 0 1 .06 2.29l.69-.82a3.89 3.89.0 0 0-.16-2.4z"/><path class="cls-25" d="M250.1 36s.43 1.58-.35 2.2a3.09 3.09.0 0 1-1.26.69s-.38.17.29-.78a3.41 3.41.0 0 0 .58-1.48S249.84 35.28 250.1 36z"/><path class="cls-25" d="M249.76 33.32s.67 1.5-.26 2.34a5 5 0 0 1-1.52 1s-.47.28.29-.86a3.68 3.68.0 0 0 .6-1.67S249.37 32.68 249.76 33.32z"/><path class="cls-24" d="M222.79 46.45h.08z"/><path class="cls-26" d="M223.69 47.17a.09.09.0 0 0 .11.08S223.75 47.16 223.69 47.17z"/><path class="cls-22" d="M232.72 21.29h.11s0 0 0-.06l-.1-.05S232.74 21.25 232.72 21.29z"/><path class="cls-25" d="M239.24 18c-.07.0-.16.07-.17.17z"/><path class="cls-22" d="M219.89 25.33s0-.11.0-.14-.1.0-.11.07S219.83 25.32 219.89 25.33z"/><path class="cls-27" d="M224.27 26.74 231.44 28.16 238.07 33.82 242.1 40.76 241.93 48 231.62 49.73 223.48 47.46 219.75 40.22 224.27 26.74z"/><path class="cls-28" d="M224.86 28.35l-7.37-2.56a2.79 2.79.0 0 0-3.35 1.11 6.37 6.37.0 0 0-.57 4.36 15.49 15.49.0 0 0 1.93 5.84A14.36 14.36.0 0 0 217.84 40c.7.7 1.79 2.16 2.8 2.4"/><path class="cls-28" d="M238.73 18.59A4.65 4.65.0 0 1 241.14 17c2.93-.45 4.36 4.57 4.82 6.68.19.88.0 2 .46 2.83l-6.51-1.33L237.36 23c-.5-.41.45-3.06.71-3.54A5.84 5.84.0 0 1 238.73 18.59z"/><path class="cls-29" d="M231.89 49.48c-2.25-.14-4.59-.24-6.57-1.32a12.39 12.39.0 0 1-3-2.28c-.47-.5-1.43-2.66-1.4-6.1"/><path class="cls-28" d="M241.5 48a18.29 18.29.0 0 0 5.84-3.22c.55-.46.84-.76.84-.76A8.23 8.23.0 0 0 251 38.55a9.12 9.12.0 0 0-.63-5.92c-.57-1-1.57-1.71-2-2.8-1.47-3.47-2.77-4.15-4.2-5a11.42 11.42.0 0 0-2.1-1.05 10.24 10.24.0 0 0-3.28-.7c-7.63-2.05-14.31 3.75-14.31 3.75"/><path class="cls-8" d="M221.84 43.58c.75-1.25 2.12-.94 3.22-.4a13 13 0 0 1 2.49 2c2 1.6 5.83 1.91 8.3 1.25a2.93 2.93.0 0 0 1.67-1.17c.73-.92.0-2.24-.16-3.21a5 5 0 0 1 .52-3.2s1.58-3.51 6.78-3.9c0 0 4 .21 3.86 3.15.0.0-.37 3-1.52 3.78-.73.49-1.43 1-2.14 1.49a6.18 6.18.0 0 0 1.79.09c-.94.15-1.63 1.62-1.63 1.62-8.84 5.5-19.92 2.67-19.92 2.67C220.64 45 221.84 43.58 221.84 43.58z"/><path class="cls-25" d="M228.45 42.14l-.12-.06C228.33 42.19 228.4 42.14 228.45 42.14z"/><path class="cls-22" d="M240.28 37.25c.11.0.05-.07.05-.12z"/><path class="cls-24" d="M224 27.05a13 13 0 0 0-3.75-1.18 3.77 3.77.0 0 0 2.11 1.95A1.19 1.19.0 0 0 224 27.05z"/><path class="cls-25" d="M244.66 35l-.18-.06z"/><path class="cls-25" d="M242.94 29.69v.15h0c.12.0.08-.06.08-.12z"/><path class="cls-26" d="M238.43 20.44v.13A.09.09.0 0 0 238.43 20.44z"/><path class="cls-30" d="M243.09 31.15c-.21 1.55 1.86 2.72 3 2.46a1.25 1.25.0 0 0 1-1 3.63 3.63.0 0 0-.49-2.67h-.12c.05.16.09.31.14.46a3 3 0 0 1 .07 1.67A1.23 1.23.0 0 1 245 33a2.86 2.86.0 0 1-1.61-1.26C243.31 31.56 243.21 31.36 243.09 31.15z"/><path class="cls-24" d="M243 29.72c0 .06.0.15-.08.12a1.17 1.17.0 0 0 1.09 1 .59.59.0 0 0 .54-.13c.15-.17.06-.37.0-.54a3.15 3.15.0 0 0-.33-.53C243.75 29.08 243.4 29.11 243 29.72z"/><path class="cls-8" d="M238.36 35.61a20.33 20.33.0 0 0-2.21-1.89 5.48 5.48.0 0 0-7.63 2.46c-.25.6-1.39 1.37-.21 1.79.76.27 1.57 1.41 2.36 1.83a4.3 4.3.0 0 0 3 .45 6.73 6.73.0 0 0 5.2-3.6A1 1 0 0 0 238.36 35.61z"/><path class="cls-25" d="M234.55 39.4a7.27 7.27.0 0 0 3.08-2.2.92.92.0 0 0 .09-1.21 6.17 6.17.0 0 0-4-2.64 3.92 3.92.0 0 0-3.1 1.15 5.21 5.21.0 0 0-1.14 1.34 3.23 3.23.0 0 1-.92 1.09c-.16.11-.15.17.0.28a9.93 9.93.0 0 0 3.4 2.26A3.83 3.83.0 0 0 234.55 39.4z"/><path class="cls-31" d="M231.48 34.84a3.83 3.83.0 0 1 2.56-.69c2.15.35 3.35 2.81 1.38 4.26s-5.3.29-5.08-2.3A5.94 5.94.0 0 1 231.48 34.84z"/><path class="cls-25" d="M232.66 34.22a2.23 2.23.0 0 1 .58-.28 2.17 2.17.0 1 1-1.47 2.72 1.76 1.76.0 0 1-.09-.55A2.18 2.18.0 0 1 232.66 34.22z"/><path class="cls-8" d="M242 33a23 23 0 0 1 0-2.35c.34-2.35 2.3-3.65 4.21-2.43.39.25 1.22.13 1 1-.17.57.07 1.71.0 2.39a2.76 2.76.0 0 1-1 1.85 3.1 3.1.0 0 1-3.8.44A1.1 1.1.0 0 1 242 33z"/><path class="cls-25" d="M245.36 33.61a3.32 3.32.0 0 1-2.3.22.84.84.0 0 1-.62-.73 5.86 5.86.0 0 1 .29-3.78 1.8 1.8.0 0 1 1.79-.9 2.82 2.82.0 0 1 1.12.26 1.79 1.79.0 0 0 .89.21c.12.0.15.0.15.16a9.77 9.77.0 0 1-.24 3.22A2.18 2.18.0 0 1 245.36 33.61z"/><path class="cls-31" d="M244.35 29.09A1.78 1.78.0 0 0 243 30c-.69 1.36.0 3.55 1.53 3.43s2.25-2.59.9-4.13A3 3 0 0 0 244.35 29.09z"/><path class="cls-25" d="M243.31 29.38a1.3 1.3.0 0 1 .34-.28 1.66 1.66.0 0 1 1.67 2.84 1.6 1.6.0 0 1-2.13-.67 2.2 2.2.0 0 1-.17-.39A1.55 1.55.0 0 1 243.31 29.38z"/><path class="cls-32" d="M216.83 28.09a5.2 5.2.0 0 0-.58-.49c-.92-.55-2.3-.44-2.54.86.0.0-.9 4.89 3.3 10.43l1.7 1.69 1.76 1.62s-.07-7.49 1.26-10.1c.31-.59-.08-.93-.61-1.13A26 26 0 0 1 216.83 28.09z"/><path class="cls-33" d="M229.27 27.24h0s1.11-.2 1.26-.19a3.59 3.59.0 0 1 1.47.44 7.09 7.09.0 0 1 2.28 1.82s5.26 6.58 3.24 6.21l-2.38-1.8a29.61 29.61.0 0 1-2.84-3.39A33.77 33.77.0 0 0 229.27 27.24z"/><path class="cls-25" d="M238.35 34.92c.13-.22.0-.42-.09-.6A33.23 33.23.0 0 0 233.6 27a18.26 18.26.0 0 0-3.31-2.89 1.25 1.25.0 0 0-1.23-.26c-.15.0-.25.31-.4.35s-.67.12-.67.51.25.26.53.35a10.75 10.75.0 0 1 4.94 3.64 37 37 0 0 1 3.73 5.22A1.88 1.88.0 0 0 238.35 34.92z"/><path class="cls-34" d="M224.27 26.74a9.24 9.24.0 0 1 2-1c.54-.21 2.22.94 2.63 1.18a23.27 23.27.0 0 1 4.29 3.56c.11.11 2.49 2.64 1.5 2.71a.74.74.0 0 1-.59-.35 11.28 11.28.0 0 0-3.94-3.38c-1.16-.61-4.33-1.54-5.71-.92.0.0-.76.65-3.13-.48.0.0-2.93-1.43-4-1.94a3.54 3.54.0 0 0-2.81.14s1.12-1.31 3.76-.85a26 26 0 0 1 4.4 1S224.06 27.12 224.27 26.74z"/><path class="cls-8" d="M222.44 26.34a3.42 3.42.0 0 1-1.42.34 4.1 4.1.0 0 1-1.56-.17c-.2-.09-.42-.09-.5-.33.0-.09.0-.63.17-.6A32.84 32.84.0 0 1 222.44 26.34z"/><path class="cls-35" d="M241.53 31.81s.72 1.07.62 1.45l.22-3s-.65.91-2-.94c0 0-2.49-4.74-4.2-3.58C236.18 25.71 239.42 30.32 241.53 31.81z"/><path class="cls-25" d="M241.81 32.54c.14-.33-.09-.53-.28-.73-.68-.72-1.41-1.39-2.07-2.14A31.1 31.1.0 0 1 235.28 24c-.21-.4-.4-.8-.57-1.22a.36.36.0 0 0-.42-.25l-.9.18a.63.63.0 0 0-.46.34c.2.5.68.8 1 1.23.85 1.22 1.78 2.38 2.72 3.53A25.22 25.22.0 0 0 239.82 31c.53.45 1.06.9 1.58 1.36A.89.89.0 0 0 241.81 32.54z"/><path class="cls-25" d="M240.4 17.1A6.23 6.23.0 0 0 238 19.47c-.53.84-.59 1.78-1 2.63-.06.11-.44.52-.44.61.0 2.54 4.61 7.66 4.61 7.66 1 .74.05-.7.05-.7a25.52 25.52.0 0 0-1.84-3c-1.08-2.4-1.42-5.36.21-7.56.4-.55 2.75-2.8 3.46-1.44C243 17.64 242.37 16.36 240.4 17.1z"/><path class="cls-8" d="M241.81 32.54a8.14 8.14.0 0 0 1 2.91l.65-.2-.94-1.68S242.25 32.07 241.81 32.54z"/><path class="cls-8" d="M242.81 34s.54 1.32 1.59 1.28l-1.31.12z"/><path class="cls-8" d="M237.72 34.87a.29.29.0 0 1 .27.0c.51.34 2.49 1.71 1.91 2.41.0.0-.06.44-1-.16l-1.17-1.67S237.26 35.05 237.72 34.87z"/><path class="cls-8" d="M238.63 36.65a2 2 0 0 1 .25 1.54l1-.88z"/><path class="cls-27" d="M245.57 25.32s-.82-.38-.57.45c0 0-2.57-.27-2.89-.39s-3.55-1.66-3.55-1.66v-1.48l2.58-.64 3.9 2.14z"/><path class="cls-32" d="M242.76 18.53c-.82-1.24-2.27.8-2.65 1.44a6.13 6.13.0 0 0-.71 1.64c-.21.84-.21 1.2.59 1.61.59.31 1.24.54 1.85.82.85.39 2.63.93 3.12 1.79A13.37 13.37.0 0 0 242.76 18.53z"/><path class="cls-9" d="M221.5 42.56c.8-2.46 5.94.85 6.94 1.57.0.0.44.32.05.32.0.0-4.54-1.84-6-.91.0.0-1 1.09-.94 1.34A5.69 5.69.0 0 1 221.5 42.56z"/><path class="cls-9" d="M222.51 45.67s1.36-1.44 4.26-.54a25.16 25.16.0 0 0 3.74.62c.27.0 2.79.08 1.88.83a36.72 36.72.0 0 1-5.3.3c-.21.0-2.49.0-2.88.53A5.47 5.47.0 0 1 222.51 45.67z"/><path class="cls-9" d="M243.9 38.64a1.63 1.63.0 0 1 .93 1.15"/><path class="cls-9" d="M242 40c.06.12-.23.3-.35.36a.25.25.0 0 1-.33-.11.23.23.0 0 1 .11-.33C241.56 39.88 241.94 39.9 242 40z"/><path class="cls-9" d="M241.24 41c.06.12-.22.3-.35.36a.25.25.0 1 1-.22-.44C240.79 40.82 241.18 40.84 241.24 41z"/><path class="cls-9" d="M242.43 41.1c.06.12-.22.3-.35.36a.25.25.0 0 1-.22-.44C242 41 242.37 41 242.43 41.1z"/><path class="cls-9" d="M245.68 38.27c0 .09.26.0.36.0a.18.18.0 0 0-.1-.34C245.84 38 245.65 38.17 245.68 38.27z"/><path class="cls-9" d="M246.55 38.38c0 .09.27.0.37.0a.18.18.0 1 0-.11-.34C246.72 38.08 246.53 38.28 246.55 38.38z"/><path class="cls-9" d="M246 39.05c0 .09.26.0.36.0a.18.18.0 1 0-.1-.34C246.16 38.75 246 39 246 39.05z"/><path class="cls-36" d="M241.55 36.81a1.82 1.82.0 0 0-.79 1.25.5.5.0 0 0 .27.35 2.14 2.14.0 0 0 .3.17 2.72 2.72.0 0 0 2.33.05 1.5 1.5.0 0 0 .64-1.1c0-.43.13-1.22-.22-1.56-.19-.18-1.1-.45-1.2-.07A3.49 3.49.0 0 1 241.55 36.81z"/><path class="cls-37" d="M241.33 38.58s.76-.83 1.71.26"/><path class="cls-37" d="M244.15 36.4s-.67.51.12 1.25"/><path class="cls-8" d="M250.42 37.74s-1.11 1.86-1.89 1.84c0 0-1 .17-.62-1.21l-1.18 3.87-2.66.87.09 2h.78s1.39-.93 2-1.38C249.22 42.17 250 40.91 250.42 37.74z"/><path class="cls-9" d="M240.35 36.66c.12-.06.0-.36-.08-.48a.27.27.0 0 0-.34-.09.25.25.0 0 0-.09.34C239.9 36.54 240.23 36.73 240.35 36.66z"/><path class="cls-9" d="M242.74 35.33c.11-.06.0-.36-.09-.48a.24.24.0 0 0-.33-.09.25.25.0 0 0-.1.33C242.29 35.21 242.62 35.4 242.74 35.33z"/><path class="cls-8" d="M238.73 18.59a2.73 2.73.0 0 1-1.31 2.3S238 18.88 238.73 18.59z"/><path class="cls-20" d="M236.5 49.89l.21-.16a9.93 9.93.0 0 1 4.5-2s5.75-1.68 8.62-6.39a23.68 23.68.0 0 1-12.93 6.79s-7.41.85-10.76.0a30.32 30.32.0 0 0 5.71 1s1.08.09.0 1a14.73 14.73.0 0 1 2.37.39A3.27 3.27.0 0 0 236.5 49.89z"/><ellipse class="cls-38" cx="234.39" cy="35.26" rx=".8" ry=".85" transform="translate(122.73 244.34) rotate(-70.45)"/><ellipse class="cls-38" cx="244.11" cy="30.4" rx=".69" ry=".65" transform="matrix(0.93, -0.38, 0.38, 0.93, 6.54, 94)"/><path class="cls-25" d="M240.67 42.24a4.7 4.7.0 0 0 4.35-2A3.18 3.18.0 0 0 247.63 39a2.27 2.27.0 0 1-1.81 1.7 1.86 1.86.0 0 0-1.07.65A3.27 3.27.0 0 1 240.67 42.24z"/><g class="phone-light"><path class="cls-39" d="M257.07 36.2l10.58-17s10 6.51 9.76 21.16L257.9 38.11S256.79 38.06 257.07 36.2z"/><animate attributeType="auto" attributeName="opacity" dur="1.5s" values="0.4;1;0.4" repeatCount="indefinite" begin="0"/></g><path class="cls-40" d="M27.68 153.86c8.38-8.12 20.69-16.88 22.53-25.72v0A47.13 47.13.0 0 1 50.4 119c.88-6.29 6-16.28 12.09-26.51h0s8.6-17.15 19.14-35.18 13.83-16.5 26-32.37 36-29.7 56.16-22.31 22.28 41.1 29.52 67.76l-.17.25c.05.17.12.34.17.51 3.74 13.09 5.08 23.74 14.22 38.84a100.17 100.17.0 0 1 9 18.43 3.57 3.57.0 0 1 .18.48c0 .11.06.2.09.3.16.47.3.94.45 1.42 1.14 3.23 2.74 4.54 11.73 12 10.41 8.63 19.67 15.24 19.93 17.9s-2.41 18.15-15.74 18.91c-13 .75-44.56-1.26-67.4-4.44s-33.89-4.44-33.9-4.44l-9.86-.05c-10.88.0-14.85 2.48-34.69 6s-33.79 7.34-45.57 9.4c-5.08.89-16.37-4.06-19.8-10.16S19.3 162 27.68 153.86z"/><path class="cls-41" d="M39.05 150.84c-10-7-21.46-8.78-26.29-7.13C6 146 .19 153 .83 156.27S25.58 187.63 41.45 186"/><path class="cls-42" d="M27.8 156.59c5.8 1.53 12.82 9.39 14.47 15.87s-.12 11.29-4.06 11.8-21.2-8.5-25.39-16.63S19.17 154.3 27.8 156.59z"/><path class="cls-42" d="M10.79 146.18c0-.89 2.8-1.78 5.21-1.65s7 3.68 7.36 4.57-3.68 1.14-5.84 1.78S10.79 146.18 10.79 146.18z"/><path class="cls-43" d="M14.22 161.29c1.91-4.32 9-4.95 15.87-2.16s12.18 15.23 11.55 18.78-12.31-1.65-19.68-7.1S14.22 161.29 14.22 161.29z"/><path class="cls-43" d="M13.21 145.29a9.23 9.23.0 0 1 7.36 2.29c1.65 1.39 1.52 1.65 1.14 1.9a7.7 7.7.0 0 1-4.95-.38C15.24 148.21 13.21 145.29 13.21 145.29z"/><path class="cls-44" d="M183.13 57.64s-1.93 21.86-21.61 30c-8.27 3.43-17.26.65-24.34-4.17A43.8 43.8.0 0 1 128 75.14c-1.58-1.92-4.17-7.32-7.3-6.76-4 .71 1.35 9.72 2.22 11.32 3 5.54 6.6 10.94 11.92 14.54 7.75 5.25 18 6.19 27.06 5.15.0.0 18.56-2.11 25.29-43.35.0.0 2.84-3.77-1.73-1.73C185.47 54.31 183.17 56.1 183.13 57.64z"/><path class="cls-41" d="M181.54 13.08c4.84 9.86 9.19 24.87 9.67 30.76.85 10.26-6.69 16.58-16.92 25.15S149 76.81 137.65 73.37c-13.18-4-14.57-21.16-17.15-27.7"/><path class="cls-45" d="M141.34 24.28c-8.73.71-10.92-8.36-17.37-9.51s-14.15 8.85-10.38 19.35 5.71 11.7 10.16 10.7"/><path class="cls-46" d="M168.07 12.41c2-2.95 1.58-6.95 4.17-9.12 3.44-2.89 11.46.42 12.81 8s.6 8.92-2.39 9.86"/><path class="cls-42" d="M179.45 19.23c.77.3 1.5.0 2.18-1.48.0.0 1.11-7-2.07-8.53-.82-.39-2.05.3-2.6.83-.89.85-.81 2-1.21 3-.27.73-1.45 2.12-1.21 2.93S178.63 18.91 179.45 19.23z"/><path class="cls-42" d="M125.48 41.19c-.91 1-2.17 1.21-4.33-.51.0.0-7-9.46-3.45-14.06.91-1.19 3.23-1.11 4.45-.76 1.95.57 2.68 2.26 4.06 3.5 1 .86 3.72 2 4 3.37S126.43 40.11 125.48 41.19z"/><path class="cls-47" d="M188.55 51.7a54.7 54.7.0 0 1 3.67 8.55c.76 3-4.41 8.5-8.07 11.07s-7.71 2.61-12.72.54a83.52 83.52.0 0 1-8.46-4 19.69 19.69.0 0 1 .09-7.74A16.51 16.51.0 0 1 169 50.43a17.56 17.56.0 0 1 10.51-3.94C183.67 46.35 188.55 51.7 188.55 51.7z"/><path class="cls-48" d="M188.55 51.7c1.07 2.34 3.35 7.29 3.67 8.55.76 3-4.41 8.5-8.07 11.07s-7.71 2.61-12.72.54l-8.46-4"/><path class="cls-42" d="M190.39 57.64s-4.6 1.07-6.54 9.16c0 0 2 1.89 4.79-.5C188.64 66.3 193.7 62.14 190.39 57.64z"/><path class="cls-42" d="M184.68 64.31s-6.83 2.57-10.12 7.86c.55-.36 1.31 1.7 6.69-.07C185.82 70.6 186.9 67.35 184.68 64.31z"/><path class="cls-9" d="M185.91 67.19c1.46-1.16 2.66-5.31 1.57-7s-5.24.74-7.25 3.1-1.76 3.49-1.61 3.88S183.42 69.17 185.91 67.19z"/><path class="cls-49" d="M179.36 66.55c-.44-.68 2-4 3.91-5.22s2.89-.84 2.89-.84.49.95-1.83 3.28A10.2 10.2.0 0 1 179.36 66.55z"/><path class="cls-9" d="M157.22 51.4c4.67-2.15 3.32-5.83 3.32-5.83-2.19-2.26-7.3-2.39-9.78 1 0 0-2.67 2.66-1.73 5.23.0.0 1.18 2.78 7.54.0"/><path class="cls-38" d="M156.84 51c4-1.85 2.85-5 2.85-5a5.82 5.82.0 0 0-8.39.87s-2.28 2.27-1.47 4.48c0 0 .44 2.25 5.32.33"/><ellipse class="cls-9" cx="155.51" cy="47.68" rx="3.6" ry="3.31" transform="matrix(0.85, -0.52, 0.52, 0.85, -2.05, 88.09)"/><circle class="cls-38" cx="156.6" cy="45.51" r="1.07"/><path class="cls-9" d="M179.39 39c-3.54 2.16-5.39-.4-5.39-.4a5.47 5.47.0 0 1 5.07-6.09s3-.58 4.28 1.2c0 0 1.33 2-3.39 5"/><path class="cls-38" d="M179.26 38.59c-3 1.85-4.62-.34-4.62-.34A4.69 4.69.0 0 1 179 33s2.55-.5 3.66 1c0 0 1.31 1.3-2.17 3.71"/><ellipse class="cls-9" cx="178.98" cy="35.41" rx="2.79" ry="2.64" transform="translate(1.53 77.82) rotate(-24.63)"/><circle class="cls-38" cx="179.52" cy="33.44" r=".86"/><path class="cls-50" d="M171.02 156.54 152.35 135.2v4L170.62 159.6 242.31 148.43 242.95 145.57 171.02 156.54z"/><path class="cls-9" d="M171.35 132.54 152.35 134.2 168.69 153.87 171.35 132.54z"/><path class="cls-42" d="M9 163.45c-1.58-1-5.24-5.61-5.24-7.55s.49-2.07.49-2.07a65.72 65.72.0 0 1 5.48 4.5C10.82 160 9 163.45 9 163.45z"/><path class="cls-42" d="M10.46 156.75c-1.58-.12-5.6-3.66-5.6-4s0-2.07 1.58-2.31 5 2.92 5.36 4S10.46 156.75 10.46 156.75z"/><path class="cls-42" d="M8.15 149.32c-.66-1.65 1.95-2.31 2.31-2.19s3.9 4 4.14 4.87-1.22 2.19-2.56 1.22A19.52 19.52.0 0 1 8.15 149.32z"/><path class="cls-43" d="M10.1 147.25a28.38 28.38.0 0 1 3.77 4.63c.12.48-.49.73-2.31-1.1A4.11 4.11.0 0 1 10.1 147.25z"/><path class="cls-43" d="M5.35 152c-.2-1.21 1.21-1.22 2.55-.61s3.54 2.68 3.29 3.41S5.47 152.73 5.35 152z"/><path class="cls-43" d="M4.49 154.68c.33-.82 4.51 3.77 4.75 4.38s.49 2.32-1 2.07S4 155.9 4.49 154.68z"/><g class="hand-left"><path class="cls-51" d="M106 111.32c9.27 10.77 25.5 31 51 38.51l22.61-15.72s-14.9-5-31.31-30.05"/><path class="cls-52" d="M184.2 132.1c-3.36-4.46-6.86-3.67-15.75 3.08s-13 11.7-11.45 14.65 4.41 3.35 15-3.76S185.87 134.33 184.2 132.1z"/><animateTransform attributeType="auto" attributeName="transform" type="translate" values="0 0; 0 -3; 0 0" dur=".5s" begin="250ms" repeatCount="indefinite" /></g><path class="cls-53" d="M228 179.58c15.44.48 15.33 1 22.28-5.29s8.43-24.23 6.54-28.87-11.59-6.53-17.28-2.42c-3.19 2.3-6.84 8.5-9.89 14.6"/><path class="cls-42" d="M247.37 152.64c6.8.91 8.32 6.74 6.42 12.64s-5.9 11.07-11.8 11.59-8-10.53-6.21-17.28S244.21 152.22 247.37 152.64z"/><path class="cls-42" d="M256.41 152.11c-.43.42-2.66-2.07-3.78-3s.52-5.07 1.2-5.07 2.15 1.45 2.75 4A6.06 6.06.0 0 1 256.41 152.11z"/><path class="cls-42" d="M251 148.28c.51-.2 1.46-4.13 1.54-4.65s-1.63-1.76-2.49-.93-1.46 4.65-.86 5.38S251 148.28 251 148.28z"/><path class="cls-42" d="M248.42 142.21a16.33 16.33.0 0 1-.84 5.37 1.33 1.33.0 0 1-2.22-.63c-.31-1.16-.31-4.11.32-4.74S248.42 142.21 248.42 142.21z"/><path class="cls-42" d="M243.78 142.42c.53.21.53 4.32.32 4.85s-4.85 2-5.37 1.79-.32-2.32 1.47-4.74S243.78 142.42 243.78 142.42z"/><path class="cls-43" d="M240.83 175c4.29-.35 10.22-14 9.59-17.6s-4.53-4.64-8.32-3.37-5.27 6.43-5.69 9.48S236.94 175.29 240.83 175z"/><path class="cls-43" d="M254.32 145.47c1.79 2.32 1 4.11.21 4.22a2.16 2.16.0 0 1-2-2.74C253 145.05 254.32 145.47 254.32 145.47z"/><path class="cls-43" d="M250.74 143.26c1-.23-.11 3.8-.85 4.32S249.37 143.58 250.74 143.26z"/><path class="cls-43" d="M247.05 142.84c.95 1.79.74 4.11-.53 4s-1.16-3.68-.52-4.32S247.05 142.84 247.05 142.84z"/><path class="cls-43" d="M242.62 143.47c1.52.55.43 3.37-.31 3.8s-2.32 1-2.42.31S241.47 143.05 242.62 143.47z"/><g class="hand-right"><path class="cls-54" d="M196 83a66 66 0 0 1 2 46.5l-12.5 2.5a104.52 104.52.0 0 0-7.5-33.5"/><animateTransform attributeType="auto" attributeName="transform" type="translate" values="0 0; 0 -3; 0 0" dur=".5s" repeatCount="indefinite" /></g><path class="cls-55" d="M170 156.43l71.15-15.11a1.46 1.46.0 0 0 1.44-1.49L252.84 106c0-.81-.71-2.93-1.52-2.92l-75.45 9.28c-.81.0-1.43 2.16-1.42 3l-6 39.71A1.49 1.49.0 0 0 170 156.43z"/><path class="cls-50" d="M172 156.85l69.15-11.12a1.47 1.47.0 0 0 1.45-1.49l10.24-36.82a1.47 1.47.0 0 0-1.49-1.45l-73.45 8.28a1.48 1.48.0 0 0-1.45 1.5l-5.94 39.65A1.47 1.47.0 0 0 172 156.85z"/><g class="cls-56"><path class="cls-57" d="M217.92 132.9a6.15 6.15.0 0 1-.41 1.68 7.93 7.93.0 0 1-5.91 4.48c-3.06.56-5.49-.95-5.14-4.3a8.48 8.48.0 0 1 2.08-4.59c1.12-1.29 2.47-1.15 4-1.44 1.2-.22 2.72-.94 3.55-.4A4.9 4.9.0 0 1 217.92 132.9z"/><path class="cls-57" d="M214.59 127.51a3.88 3.88.0 0 1-2.64 1.36 4.22 4.22.0 0 1 .48-3.07 4.48 4.48.0 0 1 2.81-1.48A5.08 5.08.0 0 1 214.59 127.51z"/></g><path class="cls-58" d="M217.33 132.3a6 6 0 0 1-.42 1.68 7.91 7.91.0 0 1-5.91 4.48c-3.06.57-5.49-.94-5.13-4.3a8.55 8.55.0 0 1 2.08-4.59c1.12-1.28 2.46-1.15 4-1.43 1.2-.23 2.73-.94 3.56-.4A4.94 4.94.0 0 1 217.33 132.3z"/><path class="cls-58" d="M214 126.91a3.83 3.83.0 0 1-2.64 1.36 4.25 4.25.0 0 1 .47-3.07 4.52 4.52.0 0 1 2.81-1.47A5.08 5.08.0 0 1 214 126.91z"/></svg>