<svg xmlns="http://www.w3.org/2000/svg" xmlns:xlink="http://www.w3.org/1999/xlink" viewBox="0 0 181.59 139.27"><defs><style>.cls-1{fill:#70a365}.cls-10,.cls-11,.cls-13,.cls-15,.cls-16,.cls-19,.cls-2,.cls-5,.cls-8,.cls-9{stroke:#4d3224}.cls-10,.cls-11,.cls-13,.cls-15,.cls-16,.cls-18,.cls-19,.cls-2,.cls-5,.cls-8,.cls-9{stroke-linecap:round;stroke-linejoin:round;stroke-width:1.07px}.cls-3{fill:#675b5a}.cls-4{fill:#766b6b}.cls-5{fill:#e5e5e5}.cls-6{fill:#4d3224}.cls-19,.cls-7{fill:#fff}.cls-8{fill:url(#未命名漸層_22)}.cls-9{fill:url(#未命名漸層_22-2)}.cls-10{fill:url(#未命名漸層_22-3)}.cls-11{fill:url(#未命名漸層_22-4)}.cls-12{fill:url(#未命名漸層_45)}.cls-13{fill:none}.cls-14{fill:#5c3c2b}.cls-15{fill:#c9caca}.cls-16{fill:#959696}.cls-17{opacity:.8}.cls-18{fill:#727272;stroke:#727272}</style><linearGradient id="未命名漸層_22" x1="105.64" y1="108.45" x2="115.31" y2="83.12" gradientUnits="userSpaceOnUse"><stop offset="0" stop-color="#343434"/><stop offset="1"/></linearGradient><linearGradient id="未命名漸層_22-2" x1="110.36" y1="110.25" x2="120.02" y2="84.91" xlink:href="#未命名漸層_22"/><linearGradient id="未命名漸層_22-3" x1="67.65" y1="108.64" x2="49.98" y2="77.97" xlink:href="#未命名漸層_22"/><linearGradient id="未命名漸層_22-4" x1="60.89" y1="112.53" x2="43.22" y2="81.87" xlink:href="#未命名漸層_22"/><radialGradient id="未命名漸層_45" cx="563.52" cy="32.88" r="35.22" gradientTransform="translate(-545.37) scale(1.11 1)" gradientUnits="userSpaceOnUse"><stop offset=".27"/><stop offset=".96" stop-color="#424242"/></radialGradient></defs><title>works-beer</title><path class="cls-1" d="M151.68 116.18c5.79.75 12.83 2.7 13.29 7.14.49 4.69-6.73 7.39-12.7 8.61a373.4 373.4.0 0 1-135.88 2.13c-3.63-.62-7.35-1.33-10.3-3s-5-4.66-3.93-7.37c1.54-4 8.1-5.12 13.52-5.58C60.89 114.21 106.83 110.36 151.68 116.18z"/><path class="cls-2" d="M162.58 105.84c-5.76-5.58-14.21-11.59-15.48-17.66v0a31.61 31.61.0 0 0-.13-6.29c-.6-4.32-4.09-11.19-8.3-18.21h0s-5.91-11.78-13.14-24.16S116 28.16 107.65 17.27 82.89-3.13 69.08 1.94 53.78 30.17 48.81 48.48a1.48 1.48.0 0 0 .12.17c0 .12-.09.23-.12.35C46.24 58 45.32 65.3 39 75.68a68.5 68.5.0 0 0-6.18 12.65 2.92 2.92.0 0 0-.13.34l-.06.2c-.1.32-.21.65-.3 1-.79 2.23-1.89 3.12-8.06 8.24-7.15 5.93-13.51 10.46-13.69 12.3s1.66 12.46 10.81 13c8.93.51 30.6-.88 46.29-3.06s23.28-3 23.29-3h6.77c7.47.0 10.2 1.7 23.82 4.13s23.21 5 31.3 6.45c3.49.61 11.25-2.79 13.6-7S168.33 111.42 162.58 105.84z"/><path class="cls-2" d="M25 123.47c-12.78.39-12.69.85-18.44-4.38s-7-20-5.41-23.88 9.59-5.41 14.3-2c2.64 1.9 5.66 7 8.19 12.08"/><path class="cls-2" d="M154.77 103.77c6.88-4.77 14.74-6 18-4.9 4.62 1.57 8.63 6.36 8.2 8.63s-17 21.53-27.9 20.4"/><path class="cls-3" d="M9 101.18c-5.63.75-6.89 5.58-5.32 10.46s4.88 9.15 9.76 9.59 6.63-8.72 5.15-14.3S11.58 100.83 9 101.18z"/><path class="cls-3" d="M162.49 107.72c-4 1-8.8 6.45-9.94 10.89s.09 7.76 2.79 8.11 14.56-5.84 17.44-11.42S168.42 106.15 162.49 107.72z"/><path class="cls-3" d="M1.48 100.74c.36.35 2.21-1.71 3.13-2.48s-.42-4.2-1-4.2-1.78 1.2-2.28 3.34A5.07 5.07.0 0 0 1.48 100.74z"/><path class="cls-3" d="M6 97.57c-.42-.17-1.2-3.42-1.28-3.85S6 92.27 6.75 93 8 96.8 7.46 97.4 6 97.57 6 97.57z"/><path class="cls-3" d="M8.1 92.55A13.28 13.28.0 0 0 8.79 97a1.09 1.09.0 0 0 1.83-.52c.27-1 .27-3.4-.26-3.92S8.1 92.55 8.1 92.55z"/><path class="cls-3" d="M11.93 92.72c-.43.18-.43 3.58-.26 4s4 1.66 4.45 1.48.26-1.91-1.22-3.92S11.93 92.72 11.93 92.72z"/><path class="cls-3" d="M175 107.8c1.13-.08 4-2.61 4-2.87s0-1.49-1.13-1.66-3.58 2.09-3.84 2.88S175 107.8 175 107.8z"/><path class="cls-3" d="M176.62 102.49c.47-1.18-1.4-1.66-1.66-1.57a16.91 16.91.0 0 0-3 3.48c-.18.61.87 1.57 1.83.88A14.46 14.46.0 0 0 176.62 102.49z"/><path class="cls-3" d="M174.17 100.57c0-.61-1.91-1.22-3.57-1.14s-4.79 2.53-5.06 3.14 2.53.79 4 1.22S174.17 100.57 174.17 100.57z"/><path class="cls-4" d="M14.37 119.66c-3.54-.29-8.45-11.6-7.93-14.56s3.75-3.84 6.89-2.79 4.36 5.32 4.7 7.85S17.6 119.92 14.37 119.66z"/><path class="cls-4" d="M3.21 95.25c-1.48 1.92-.78 3.4-.17 3.49A1.8 1.8.0 0 0 4.7 96.47C4.35 94.9 3.21 95.25 3.21 95.25z"/><path class="cls-4" d="M6.18 93.42c-.85-.2.08 3.14.7 3.57S7.31 93.68 6.18 93.42z"/><path class="cls-4" d="M9.23 93.07c-.79 1.48-.61 3.4.43 3.31s1-3 .44-3.57S9.23 93.07 9.23 93.07z"/><path class="cls-4" d="M12.89 93.59c-1.25.46-.35 2.79.26 3.14s1.92.87 2 .26S13.85 93.24 12.89 93.59z"/><path class="cls-4" d="M171.82 110.94c-1.31-3-6.19-3.4-10.9-1.48s-8.37 10.46-7.93 12.9 8.46-1.13 13.51-4.88S171.82 110.94 171.82 110.94z"/><path class="cls-4" d="M172.52 1e2a6.36 6.36.0 0 0-5.06 1.57c-1.13 1-1 1.13-.78 1.3a5.29 5.29.0 0 0 3.4-.26A11.74 11.74.0 0 0 172.52 1e2z"/><path class="cls-4" d="M175.22 101a20.68 20.68.0 0 0-2.7 3.32c-.09.34.35.52 1.65-.79A3 3 0 0 0 175.22 101z"/><path class="cls-4" d="M178.62 104.4c.14-.86-.87-.87-1.83-.43s-2.53 1.92-2.35 2.44S178.53 104.93 178.62 104.4z"/><path class="cls-5" d="M60.23 46S66.21 61.79 81 63.7c0 0 14.15 1.64 21.69-18.85.0.0 2.21-3.55 4.41.0.0.0-6.29 27.32-26.1 27.32.0.0-12.9 2.18-25.16-25.95.0.0-1.26-2.73 2.2-2.18C58 44 59.92 44.85 60.23 46z"/><path class="cls-2" d="M54.76 16.77c-1.63 7.37-3 15.58-2.39 19.58 1.11 7 8.1 12.5 16.33 16.55s19.81 1.52 25.44-4.34 7.35-9.73 8.24-12.06"/><path class="cls-2" d="M83.73 15.21c4.77-.76 4.76-5.91 8.07-7.37s8.75 2.89 8.1 9-1.53 7-4.05 7.07"/><path class="cls-2" d="M65.18 15.19c-2.09-1.93-2.56-5.13-5-6.33C57 7.25 51.32 11.37 51.7 17.51s1.23 7.09 3.74 7.24"/><path class="cls-6" d="M68 39.29c3.34.4 3.84-2.11 3.84-2.11A4.43 4.43.0 0 0 66 34.41s-2.39.58-2.74 2.33c0 0-.29 1.94 4.19 2.56"/><path class="cls-7" d="M67.9 38.92c2.85.33 3.28-1.81 3.28-1.81a3.79 3.79.0 0 0-5-2.38s-2 .5-2.35 2c0 0-.52 1.4 2.85 2"/><ellipse class="cls-6" cx="67.97" cy="37.09" rx="2.25" ry="2.07"/><circle class="cls-7" cx="66.36" cy="36.47" r=".7"/><path class="cls-6" d="M86.22 39.51c-3.51.41-4-2.22-4-2.22a4.65 4.65.0 0 1 6.09-2.92s2.52.6 2.89 2.45c0 0 .3 2-4.42 2.7"/><path class="cls-7" d="M86.28 39.12c-3 .35-3.46-1.91-3.46-1.91a4 4 0 0 1 5.23-2.5s2.15.52 2.47 2.1c0 0 .55 1.47-3 2.1"/><ellipse class="cls-6" cx="86.2" cy="37.19" rx="2.37" ry="2.18"/><circle class="cls-7" cx="84.54" cy="36.51" r=".74"/><path class="cls-6" d="M57.59 22.67c-.54.38-1.16.33-2-.74.0.0-2.2-5.28.0-7 .56-.46 1.65-.15 2.19.15.86.5 1 1.38 1.52 2.13.35.51 1.53 1.37 1.5 2.05S58.17 22.27 57.59 22.67z"/><path class="cls-6" d="M94.45 22.21c.62.43 1.32.36 2.25-.84.0.0 2.5-6 0-8-.64-.52-1.87-.17-2.48.18-1 .56-1.14 1.56-1.72 2.4-.4.59-1.74 1.56-1.7 2.33S93.8 21.75 94.45 22.21z"/><g class="hand-right"><path class="cls-8" d="M128.82 83.08c-4.22 13.25-12.51 36.83-12.51 36.83s-.56 2.54-10.08 2.23-10.51-2.73-11.5-5c-1.68-3.81 1.21-11.52 2-15.3 1.86-9.08 4.31-18 6.71-27"/><path class="cls-9" d="M94.19 120.15c.33-4.22 2.9-5.14 11.34-4.44s13.1 2.18 13.29 4.72-1.46 3.93-11.14 3.7S94 122.26 94.19 120.15z"/><animateTransform attributeType="auto" attributeName="transform" type="translate" values="0 0; 0 -10; 0 0" dur=".5s" repeatCount="indefinite" /></g><g class="hand-left"><path class="cls-10" d="M44.56 86.63c1.08 18 12.56 34.65 15.75 36.69s13.91.51 14.94-2.73.0-13.91-5.77-31.85c0 0-1.44-5.59-.69-8.41"/><path class="cls-11" d="M53.21 120.38c.33-4.16 2.9-5.07 11.34-4.38s13.1 2.16 13.29 4.65-1.46 3.89-11.14 3.66S53.05 122.46 53.21 120.38z"/><animateTransform attributeType="auto" attributeName="transform" type="translate" values="0 0; 0 -10; 0 0" dur=".5s" begin="250ms" repeatCount="indefinite" /></g><path class="cls-12" d="M66.12 45.25s2.18 7.62 3.29 9.68 6.69 2.43 10 2 5.53-2.46 7.24-6.11a62.33 62.33.0 0 0 2.62-6.45 14.5 14.5.0 0 0-3.94-4.2 12.23 12.23.0 0 0-8.11-2.32A13.05 13.05.0 0 0 69.47 41 13.53 13.53.0 0 0 66.12 45.25z"/><path class="cls-13" d="M66.12 45.25s.75 2.62 1.59 5.21a34.87 34.87.0 0 0 1.7 4.47c1.11 2.06 6.69 2.43 10 2s5.53-2.46 7.24-6.11l1.62-3.73"/><path class="cls-3" d="M69.1 52.58s3.06-1.73 8.19 1.72c0 0-.13 2-2.88 2.14C74.41 56.44 69.55 56.71 69.1 52.58z"/><path class="cls-3" d="M75.58 53.35s5-2 9.5-.79c-.48.09.14 1.6-3.7 3.34C78.12 57.37 75.89 56.14 75.58 53.35z"/><path class="cls-6" d="M76.35 55.55C75 55.65 72.23 54 72 52.49s3.25-2.24 5.54-2 2.72 1 2.83 1.31S78.71 55.38 76.35 55.55z"/><path class="cls-14" d="M79.62 51.9c-.1-.59-3.09-1.21-4.76-.89s-2 1-2 1 .21.76 2.65.87A7.54 7.54.0 0 0 79.62 51.9z"/><path class="cls-15" d="M110.71 123.79H63.22a1 1 0 0 1-1-1l-4-25.26c0-.56.46-2 1-2h54.57c.56.0 1 1.47 1 2l-3 25.26A1 1 0 0 1 110.71 123.79z"/><path class="cls-16" d="M110.71 126.82H63.22a1 1 0 0 1-1-1l-4-27.28a1 1 0 0 1 1-1h54.57a1 1 0 0 1 1 1l-3 27.28A1 1 0 0 1 110.71 126.82z"/><rect class="cls-16" x="61.7" y="126.44" width="50.53" height="2.02" rx=".44" ry=".44"/><g class="cls-17"><path class="cls-18" d="M83.77 113.89A3.22 3.22.0 0 0 84 115c.62 1.73 2.56 2.42 4.26 2.42 2.35.0 4.38-1.41 4.38-3.76a4.25 4.25.0 0 0-1.24-3c-.77-.77-1.84-.49-3-.49-.92.0-2-.32-2.75.18A4.58 4.58.0 0 0 83.77 113.89z"/><path class="cls-18" d="M86.83 109.59a2.39 2.39.0 0 0 2 .62 2.62 2.62.0 0 0-.11-2.13c-.61-.78-2.08-.68-2.08-.68A3 3 0 0 0 86.83 109.59z"/></g><path class="cls-19" d="M83.33 113.45a3.22 3.22.0 0 0 .18 1.15c.62 1.73 2.56 2.42 4.26 2.42 2.35.0 4.38-1.41 4.38-3.76a4.22 4.22.0 0 0-1.25-3c-.77-.77-1.83-.5-3-.5-.92.0-2-.31-2.75.19A4.56 4.56.0 0 0 83.33 113.45z"/><path class="cls-19" d="M86.39 109.15a2.39 2.39.0 0 0 2 .62 2.62 2.62.0 0 0-.11-2.13c-.61-.78-2.08-.68-2.08-.68A3 3 0 0 0 86.39 109.15z"/></svg>