<svg xmlns="http://www.w3.org/2000/svg" viewBox="-20 0 260 119.7"><defs><style>.cls-1{opacity:.8}.cls-2{fill:#c6e9ff;opacity:.44}.cls-3{fill:#d1e7ff}.cls-4{opacity:.5}</style></defs><title>worksPages-day-right</title><g class="cls-1 cloud-up"><path class="cls-2" d="M119.93 10.09a7.31 7.31.0 0 0-2.05.29 5.51 5.51.0 0 0-7.64-3.66A10.88 10.88.0 0 0 90.75 5.47a6.77 6.77.0 0 0-3-.7 6.69 6.69.0 0 0-6.69 6.7v.13a7.2 7.2.0 0 0-1.32-.13 6.7 6.7.0 1 0 0 13.39h40.17a7.39 7.39.0 0 0 0-14.77z"/><path class="cls-3" d="M127.31 17.48a7.38 7.38.0 0 0-7.38-7.39 7.31 7.31.0 0 0-2.05.29 5.51 5.51.0 0 0-7.64-3.66A10.88 10.88.0 0 0 90.75 5.47a6.77 6.77.0 0 0-3-.7 6.69 6.69.0 0 0-6.69 6.7v.13a7.2 7.2.0 0 0-1.32-.13 6.7 6.7.0 0 0-6.7 6.7c0 .13 3.27-6.58 10.28-3.24a7.59 7.59.0 0 1 7.84-3.14 8.82 8.82.0 0 0-6.79-1.39A5.8 5.8.0 0 1 92.27 9c2-6.74 13.14-6.33 16.21 1.16 1.9-2.8 8.78-.28 7.83 3.69 3-2.54 11 .46 9.86 7.62A7.35 7.35.0 0 0 127.31 17.48z"/><path class="cls-3" d="M126.57 39.14h.36a3.07 3.07.0 0 0-.11-.41C126.76 38.82 126.69 39 126.57 39.14z"/><path class="cls-3" d="M111.85 39.14h.07l-.06-.1A.34.34.0 0 0 111.85 39.14z"/><path class="cls-3" d="M221.74 37.05a3.65 3.65.0 0 0 .52-1.93c-.09-2.37-3-4.18-5-4.88-4.87-1.67-9.29 1.6-9.59 1.81a3.74 3.74.0 0 0-.78-4.37 4.73 4.73.0 0 0-4-1.1 12.78 12.78.0 0 0 1.57-9.41 14.11 14.11.0 0 0-5.74-8.05c-5.16-3.38-12.78-3.13-19.18.66A12 12 0 0 0 167.14 3.6a11.14 11.14.0 0 0-9.41 11.83 14.92 14.92.0 0 0-7.59.7 10.27 10.27.0 0 0-5.34 3.81 7.56 7.56.0 0 0-1.15 3.31 8.77 8.77.0 0 0-2.63.95c-.08-1.72-.54-6-3.93-8.68-5-3.92-14.56-3.17-22 3.39a9.53 9.53.0 0 0-8.81-3.68c-2.55.36-6.09 2-6.93 5.36a7 7 0 0 0 2.82 7.15 11.81 11.81.0 0 0-9-1.52c-4.05 1.13-7.65 5-7.23 9.69.73 8.33 5.33 10.46 6.16 11.4h3.78c-4.78-3.41-4.62-10.43-4.22-11.62 1.28-3.86 5.43-5.34 5.62-5.39a10.15 10.15.0 0 1 9.61 1.79 5.55 5.55.0 0 1 3.19-7.38 5.94 5.94.0 0 1 5.19 1.06 7.37 7.37.0 0 0-4.46 4.94 9.78 9.78.0 0 1 13.66.14A7.74 7.74.0 0 0 120.06 26a7.47 7.47.0 0 0-2.78-.55c5.45-3.89 11.91-4.15 15.39-1.37a8.79 8.79.0 0 1 3 6.34c3.67-2.84 8.18-2.86 10.85-1.3a8.52 8.52.0 0 1 3.07-8.62 9.69 9.69.0 0 1 6.5-1.5 10.11 10.11.0 0 1 4.3 1.48h-.11c-3.69 1-4.72 4.85-4.77 5a9.9 9.9.0 0 1 6.92-2.71c.24.0.47.0.69.0.14.17.24.31.29.38l-.18-.37a9.76 9.76.0 0 1 5.93 2.81 7.58 7.58.0 0 0-6.75-5.4 7.48 7.48.0 0 1 1.79-6.46 8.28 8.28.0 0 1 4.88-2.44c4.49-.54 7.55 2.92 7.9 3.34A8.93 8.93.0 0 1 178.89 22a7.71 7.71.0 0 0 2.55-4.64 7.33 7.33.0 0 0-.67-4.12c1-.15 7.52-1.12 12.26 2.86 3.55 3 4.33 7.26 4.66 9.09a17.76 17.76.0 0 1 .24 4.08 6 6 0 0 1 6.68.59 4.91 4.91.0 0 1 .94 6.46c5.32-4.19 11.27-5 14.18-2.77a5.52 5.52.0 0 1 2 3.52"/><path class="cls-3" d="M221.49 37.45a7.57 7.57.0 0 1-1 1.15A5.63 5.63.0 0 0 221.49 37.45z"/><path class="cls-2" d="M221.42 36a5.1 5.1.0 0 0-1.69-2.42c-2.91-2.25-8.86-1.42-14.18 2.77a4.91 4.91.0 0 0-.94-6.46 6 6 0 0 0-6.68-.59 17.76 17.76.0 0 0-.24-4.08c-.33-1.83-1.11-6.1-4.66-9.09-4.74-4-11.3-3-12.26-2.86a7.33 7.33.0 0 1 .67 4.12A7.77 7.77.0 0 1 178.9 22 9 9 0 0 0 177 14.74c-.35-.42-3.41-3.88-7.9-3.34a8.28 8.28.0 0 0-4.88 2.44 7.48 7.48.0 0 0-1.79 6.46 7.58 7.58.0 0 1 6.75 5.4 9.76 9.76.0 0 0-5.93-2.81l.18.37c0-.07-.15-.21-.29-.38-.22.0-.45.0-.69.0a9.9 9.9.0 0 0-6.92 2.71c.05-.19 1.08-4 4.77-5h.11a10.11 10.11.0 0 0-4.3-1.48 9.69 9.69.0 0 0-6.51 1.49 8.52 8.52.0 0 0-3.07 8.62c-2.67-1.56-7.18-1.54-10.85 1.3a8.79 8.79.0 0 0-3-6.34c-3.48-2.78-9.94-2.52-15.39 1.37a7.47 7.47.0 0 1 2.78.55 7.74 7.74.0 0 1 4.42 4.86 9.78 9.78.0 0 0-13.66-.14 7.37 7.37.0 0 1 4.46-4.94 5.94 5.94.0 0 0-5.19-1.06 5.55 5.55.0 0 0-3.19 7.38 10.15 10.15.0 0 0-9.61-1.79c-.19.05-4.34 1.53-5.62 5.39.0.0-2.94 8.55 4.22 11.62H217.37S225.81 43.7 221.42 36z"/><animateTransform attributeType="auto" attributeName="transform" type="translate" values="-10 0; 0 0;10 0;0 0;-10 0;" dur="3.6s" begin="0" repeatCount="indefinite" /></g><g class="cls-4 cloud-down"><path class="cls-2" d="M3.89 107.07A3.35 3.35.0 0 1 7 104.72a3.27 3.27.0 0 1 .44.0 3.89 3.89.0 0 1 3.74-3.21 4 4 0 0 1 .78.08 5.9 5.9.0 0 1 5.7-5.18 5.68 5.68.0 0 1 4.78 2.68A7 7 0 0 1 26.27 98a7.63 7.63.0 0 1 7.38 7.85c0 .16.0.32.0.48a3.52 3.52.0 0 1 2.1 1 5.77 5.77.0 0 1 2.76-.7c4 0 6.17 2.51 6.17 6.55.0.0.0.0.0.07s0 0 0 .07.0.06.0.09a6.38 6.38.0 0 1-5.77 6.3H5.78a6 6 0 0 1-4.33-2.31A6.8 6.8.0 0 1 0 113.16 6.55 6.55.0 0 1 3.89 107.07z"/><path class="cls-3" d="M35.67 110.41c-.34-1.92-2.58-3-3.76-1.63.45-6.94-8.24-7.86-10.1-5.58-.54-1.92-5.93-3.31-7.95.0-1.32-1.18-5.4-.18-4.74 3.49-2-2.26-4.91.93-3.91 2.56a1.89 1.89.0 0 0-2.77-1.27 6.27 6.27.0 0 1 1.45-.87A3.35 3.35.0 0 1 7 104.72a3.27 3.27.0 0 1 .44.0 3.89 3.89.0 0 1 3.74-3.21 4 4 0 0 1 .78.08 5.9 5.9.0 0 1 5.7-5.18 5.68 5.68.0 0 1 4.78 2.68A7 7 0 0 1 26.27 98a7.63 7.63.0 0 1 7.38 7.85c0 .16.0.32.0.48a3.52 3.52.0 0 1 2.1 1 5.82 5.82.0 0 1 5.44.0C40.39 107.08 36.73 107.11 35.67 110.41z"/><animateTransform attributeType="auto" attributeName="transform" type="translate" values="10 0; 0 0;-10 0;0 0;10 0;" dur="3.6s" begin="0" repeatCount="indefinite" /></g></svg>