<svg xmlns="http://www.w3.org/2000/svg" viewBox="0 0 47.8 61.66"><defs><style>.cls-1{fill:#70a365}.cls-2,.cls-3{fill:#d3823e}.cls-2,.cls-4{stroke:#4d3224;stroke-linecap:round;stroke-linejoin:round;stroke-width:.52px}.cls-4{fill:#bd6926}.cls-5{fill:#4d3224}.cls-6,.cls-7{fill:#f2d2b5}.cls-6{opacity:.7}.cls-7{opacity:.67}.cls-8{fill:#fff}</style></defs><title>works-deerldpi</title><g id="圖層_2" data-name="圖層 2"><g id="聯絡"><path class="cls-1" d="M5.78 53.75c-1.5.26-3.33.94-3.45 2.48s1.76 2.55 3.32 3a73.37 73.37.0 0 0 35.31.6 6.49 6.49.0 0 0 2.67-1.06 2.48 2.48.0 0 0 1-2.55c-.4-1.37-2.11-1.76-3.52-1.92C29.37 53 17.43 51.69 5.78 53.75z"/><path class="cls-2" d="M5.64 9.9c-.87.59-3.09-.31-3.87-.88A4 4 0 0 1 .26 5.66 5.28 5.28.0 0 1 5.1 8.56z"/><path class="cls-2" d="M14.19 13.43c.41 1.09 3 1.7 4 1.68A4.52 4.52.0 0 0 21.76 13a5.85 5.85.0 0 0-6.23-.47z"/><path class="cls-3" d="M15.94 14.29a6.58 6.58.0 0 1-2 5C10.31 23 7.1 24.21 5.14 23.67l-.44-.19C3 22.39 1.7 19.22 2.06 14A6.81 6.81.0 0 1 3.92 9.58L5.65 8.39a6.39 6.39.0 0 1 5.41.17l.85.38a6.38 6.38.0 0 1 3.68 3.68z"/><path class="cls-2" d="M5.1 8.73s7.18-3.66 10.37 4.33"/><path class="cls-4" d="M31.25 34a8.15 8.15.0 0 0 1.66 5.74c2.12 2.84 2.52 4.72 2 7.48S32 56.23 32 58.83l2.21.08a20.64 20.64.0 0 1 1.26-5.43c.86-1.66.78-3.86 1.73-5.83s2.67-5.11 2.67-5.11S33.85 27 31.25 34z"/><path class="cls-4" d="M13.78 35.53s-2.44 7-2.83 9S14.49 54 15.2 56.94l1.34-.63s-3.15-10.86-3-11.57 4.64-4.17 5.58-7.08S15.28 32.93 13.78 35.53z"/><path class="cls-2" d="M42.82 37.66c-.52 1.87 1.11 5.35-.31 7.55s-2.83 14.33-2.83 14.33l-1.74-.16s-.78-5.35.32-8a7.35 7.35.0 0 0-.79-7.55s-3.59-3.46-4.25-4.73c0 0-9.6 1.11-13.54-2.2.0.0-1.25 7.08-1.88 9s-1.26 12.28-1.26 12.28l-1.74-.31A42.08 42.08.0 0 1 15 50.25c.47-3.78-.16-12.44-.16-12.44s-8-6.92-6.13-19.51l5.65-3.75s.33 5.79 3.63 7.84 6.14 1.73 11 .94 8.19-1.41 11.65.32a20.93 20.93.0 0 1 6.14 5.19c.25.33 1.52 2.57.16 2.28-1.2-.25-2.42-3.27-3.94-2A21.66 21.66.0 0 1 42.82 37.66z"/><path class="cls-5" d="M12.39 12a4.66 4.66.0 0 0 4.2-2 8.31 8.31.0 0 0 .92-1.46 2.48 2.48.0 0 1-.86-1.79 2.39 2.39.0 0 1 .05-1 .39.39.0 0 1 .67-.14.28.28.0 0 1 0 .27c0 .31-.05.62.0.93A1.77 1.77.0 0 0 17.79 8 26 26 0 0 1 19 5.34h0a.32.32.0 0 1 .14-.16h0v0a.42.42.0 0 1 .33.0h.05a.38.38.0 0 1 .21.25.06.06.0 0 1 0 0h0a.31.31.0 0 1 0 .21v0a16.21 16.21.0 0 1-2.55 5 5.09 5.09.0 0 0 1.53-.36c.28-.14 1.16-.57 1.13-.8a.42.42.0 0 1 .67-.37c.69.67-.36 1.37-.88 1.68a5 5 0 0 1-2.86.67.43.43.0 0 1-.26-.09 4 4 0 0 1-4.28 1.2A.34.34.0 0 1 12.39 12z"/><path class="cls-5" d="M3.75 2.77c0 .34-.13.66-.08 1a3.17 3.17.0 0 0 .59 1.34A5 5 0 0 0 5 6a11.66 11.66.0 0 1 .18-1.31A9 9 0 0 1 7.64.09c.26-.25.7.06.46.36A12.06 12.06.0 0 0 6.38 3.52a2.75 2.75.0 0 0 .34-.1c.23-.07.46-.09.68-.17a3.09 3.09.0 0 0 1.29-.93c.22-.24.69.0.52.31a2.75 2.75.0 0 1-1.54 1.3c-.29.11-.59.13-.88.22a1.32 1.32.0 0 1-.65.07s0 .09.0.13a5.47 5.47.0 0 0 .57 4.84c.31.48-.43 1-.72.53A5.9 5.9.0 0 1 5 7.11S4.89 7 4.84 7a1.81 1.81.0 0 1-.52-.4 5.77 5.77.0 0 1-1-1.35 3.45 3.45.0 0 1-.45-1.39 2.63 2.63.0 0 1 .25-1.21C3.23 2.34 3.71 2.46 3.75 2.77z"/><path class="cls-2" d="M3.92 9.58A6.81 6.81.0 0 0 2.06 14C1.7 19.22 3 22.39 4.7 23.48l.44.19c2 .54 5.17-.64 8.79-4.41a6.58 6.58.0 0 0 2-5"/><path class="cls-5" d="M9.68 19.33a.76.76.0 0 0 .26 1 .76.76.0 0 0 .93-.5.76.76.0 0 0-.25-1A.77.77.0 0 0 9.68 19.33z"/><path class="cls-5" d="M3.51 16.69a.77.77.0 0 0 .26 1 .77.77.0 0 0 .94-.5.77.77.0 0 0-.26-1A.77.77.0 0 0 3.51 16.69z"/><path class="cls-5" d="M6.24 22.11c-.65-.38-1.53-.87-2.22-.43s-.37 1.41-.09 1.94c.43.81.86.85 1.73.6C6.87 23.87 7.63 22.91 6.24 22.11z"/><path class="cls-6" d="M22.41 27.22l.29.1h.17a.56.56.0 0 0 .59-.35.4.4.0 0 0 0-.34.53.53.0 0 0-.37-.22h-.4a.35.35.0 0 0-.18.0.3.3.0 0 0-.28.14.55.55.0 0 0 .22.65z"/><path class="cls-6" d="M26.13 26h-.06a1.12 1.12.0 0 0-.93.24.35.35.0 0 0 .06.51 1 1 0 0 0 .66.16.54.54.0 0 1 .18.0h.4a1.22 1.22.0 0 0 .37-.05.34.34.0 0 0 .21-.2.37.37.0 0 0-.05-.31A1 1 0 0 0 26.13 26z"/><path class="cls-6" d="M28.16 27.34a.87.87.0 0 0-.76.0.32.32.0 0 0 .08.62h.25a.65.65.0 0 0 .49-.18.29.29.0 0 0 .1-.26A.31.31.0 0 0 28.16 27.34z"/><path class="cls-6" d="M28.85 25.85h-.34a.41.41.0 0 0-.46.29.45.45.0 0 0 .23.53 1.63 1.63.0 0 0 .78.13h.24a1 1 0 0 0 .52-.11.34.34.0 0 0 .16-.46C29.76 25.8 29.23 25.83 28.85 25.85z"/><path class="cls-6" d="M31.05 27.49a2.92 2.92.0 0 0 .59-.4.43.43.0 0 0 .13-.43.43.43.0 0 0-.32-.3.86.86.0 0 0-.8.32l-.07.07a.48.48.0 0 0-.06.62.4.4.0 0 0 .33.17A.53.53.0 0 0 31.05 27.49z"/><path class="cls-6" d="M33 24.68a.82.82.0 0 0-.47-.09h-.16a.31.31.0 0 0-.37.23.33.33.0 0 0 .18.4 1.05 1.05.0 0 0 .43.11.63.63.0 0 0 .45-.18.32.32.0 0 0 .08-.25A.3.3.0 0 0 33 24.68z"/><path class="cls-6" d="M37.36 26.88a.84.84.0 0 0-.47-.09h-.16a.32.32.0 0 0-.37.22.34.34.0 0 0 .18.41 1.05 1.05.0 0 0 .43.11.63.63.0 0 0 .45-.18.32.32.0 0 0 .08-.25A.33.33.0 0 0 37.36 26.88z"/><path class="cls-6" d="M33.67 26.65h.1a.5.5.0 0 0 .13.0l.17-.05h.13l.22-.07a.77.77.0 0 0 .46-.46.44.44.0 0 0-.07-.4c-.22-.3-.62-.1-.79.0h-.05a1.9 1.9.0 0 0-.37.2.65.65.0 0 0-.22.33v.06a.32.32.0 0 0 .08.38A.35.35.0 0 0 33.67 26.65z"/><path class="cls-6" d="M34.66 25.2a2.35 2.35.0 0 0 .68-.13h.09a.44.44.0 0 0 .32-.51.53.53.0 0 0-.53-.44 1.81 1.81.0 0 0-.55.13h-.06a.93.93.0 0 0-.49.32.36.36.0 0 0 .07.49A.67.67.0 0 0 34.66 25.2z"/><path class="cls-6" d="M36.67 26a.35.35.0 0 0 .17.0.72.72.0 0 1 .3-.08.4.4.0 0 0 .35-.28.45.45.0 0 0-.14-.48.36.36.0 0 0-.43-.05h0a1.48 1.48.0 0 0-.33.24l-.13.1a.33.33.0 0 0-.08.44A.35.35.0 0 0 36.67 26z"/><path class="cls-6" d="M30.77 25.71a.54.54.0 0 0 .31-.27h0a.33.33.0 0 0 0-.34.7.7.0 0 0-.64-.23h-.18a.35.35.0 0 0-.38.22.38.38.0 0 0 .17.44h.06a1.24 1.24.0 0 0 .55.19A.39.39.0 0 0 30.77 25.71z"/><path class="cls-6" d="M29.28 28.75a.77.77.0 0 0-.25.0h-.1a.34.34.0 0 0-.37.23.33.33.0 0 0 .13.39l.09.08a.61.61.0 0 0 .15.12.56.56.0 0 0 .33.1.63.63.0 0 0 .19.0.35.35.0 0 0 .23-.21.41.41.0 0 0 0-.34A.64.64.0 0 0 29.28 28.75z"/><path class="cls-6" d="M15.74 23.62a1.3 1.3.0 0 0 .44.22h.07a.33.33.0 0 0 .31-.22c.08-.2.07-.51-.39-.78l-.1-.05h-.09l-.06-.08a.89.89.0 0 0-.27-.28.33.33.0 0 0-.46.46 1 1 0 0 1 0 .12.8.8.0 0 0 0 .18.69.69.0 0 0 .35.38z"/><path class="cls-6" d="M18.92 25.05h0 .19a.46.46.0 0 0 .38-.16.43.43.0 0 0-.08-.58.57.57.0 0 0-.62-.16.39.39.0 0 0-.26.43A.52.52.0 0 0 18.92 25.05z"/><path class="cls-6" d="M19.16 26.63l-.09-.05a.33.33.0 0 0-.45.07.34.34.0 0 0 0 .46l.28.3a.89.89.0 0 0 .42.3h.09a.34.34.0 0 0 .24-.09.31.31.0 0 0 .11-.3C19.75 27 19.41 26.78 19.16 26.63z"/><path class="cls-6" d="M17.54 25.05c0-.37-.32-.49-.49-.54h-.08.0a.35.35.0 0 0-.4.09.38.38.0 0 0-.08.27v0l.12.16a.29.29.0 0 0 .16.15.68.68.0 0 0 .43.18.48.48.0 0 0 .18.0A.32.32.0 0 0 17.54 25.05z"/><path class="cls-6" d="M22.75 28.43h0a1.56 1.56.0 0 0-.41-.08h-.25a.38.38.0 0 0-.38.14.41.41.0 0 0 0 .46 1 1 0 0 0 .89.42h0A.43.43.0 0 0 23 29 .46.46.0 0 0 22.75 28.43z"/><path class="cls-6" d="M21.87 25.72a1.08 1.08.0 0 0-.62-.36h-.11.0a.84.84.0 0 0-.91.09.3.3.0 0 0-.1.25.28.28.0 0 0 .12.23 1.48 1.48.0 0 0 .45.23l.21.09a1.07 1.07.0 0 0 .5.14.61.61.0 0 0 .4-.15A.35.35.0 0 0 21.87 25.72z"/><path class="cls-6" d="M25.27 27.63a.36.36.0 0 0-.19.33.34.34.0 0 0 .26.3 1.21 1.21.0 0 0 .48.12.62.62.0 0 0 .23.0.34.34.0 0 0 .2-.19.33.33.0 0 0 0-.29A.72.72.0 0 0 25.27 27.63z"/><path class="cls-6" d="M24.69 25.13A1.36 1.36.0 0 0 24 25h-.06a1.56 1.56.0 0 0-.66.13.4.4.0 0 0-.23.41.41.41.0 0 0 .32.35 1.63 1.63.0 0 0 .49.05h.22a1.18 1.18.0 0 0 .7-.2.4.4.0 0 0 .14-.33A.39.39.0 0 0 24.69 25.13z"/><path class="cls-6" d="M23.58 30.71v.23l-.08-.21a.33.33.0 0 0-.21.36.36.36.0 0 0 .34.31h.27a.57.57.0 0 0 .56-.29.38.38.0 0 0-.05-.37C24.19 30.47 23.79 30.63 23.58 30.71z"/><path class="cls-6" d="M19.28 29.19l-.12.19.11-.2h0a.33.33.0 0 0-.39.51l.07.09a.68.68.0 0 0 .36.32.22.22.0 0 0 .11.0.37.37.0 0 0 .21-.06.36.36.0 0 0 .14-.26A.69.69.0 0 0 19.28 29.19zm-.22.39z"/><path class="cls-6" d="M16.27 26.73a.38.38.0 0 0-.32-.12.37.37.0 0 0-.32.35 1 1 0 0 0 0 .12.44.44.0 0 0 .09.31.42.42.0 0 0 .28.16h.08a.5.5.0 0 0 .44-.23.38.38.0 0 0-.06-.49A.54.54.0 0 0 16.27 26.73z"/><path class="cls-6" d="M27.46 25.83h.06a1 1 0 0 0 .45-.19.41.41.0 0 0 .15-.4.41.41.0 0 0-.25-.33.69.69.0 0 0-.68.06.4.4.0 0 0-.2.32.38.38.0 0 0 .06.38.36.36.0 0 0 .3.15z"/><path class="cls-6" d="M30.89 29.65h0a.37.37.0 0 0-.14.35.36.36.0 0 0 .23.31.74.74.0 0 0 .32.07.61.61.0 0 0 .56-.34.32.32.0 0 0-.05-.35A.65.65.0 0 0 30.89 29.65z"/><path class="cls-6" d="M35.57 27.9a.73.73.0 0 0-.65.13h0a1.08 1.08.0 0 0-.19.17v.05a.5.5.0 0 0-.13.21v.06a.37.37.0 0 0 .31.57.38.38.0 0 0 .25-.09.55.55.0 0 0 .13-.05l.15-.09.1-.05a.67.67.0 0 0 .33-.64A.33.33.0 0 0 35.57 27.9z"/><path class="cls-6" d="M34.05 26.85a.62.62.0 0 0-.63.23.36.36.0 0 0-.1.3.37.37.0 0 0 .17.27.78.78.0 0 0 .41.15.53.53.0 0 0 .23-.06c.12-.07.39-.21.35-.5C34.46 27.1 34.38 26.93 34.05 26.85z"/><path class="cls-6" d="M17.82 26.13h-.05a.37.37.0 0 0-.39.0.4.4.0 0 0-.23.33.39.39.0 0 0 .18.33.68.68.0 0 0 .38.12h.13a.44.44.0 0 0 .27-.23.32.32.0 0 0 0-.34A.43.43.0 0 0 17.82 26.13z"/><path class="cls-6" d="M24 27.67a.55.55.0 0 0-.43.31.5.5.0 0 0 0 .49.57.57.0 0 0 .49.32h.07a.55.55.0 0 0 .48-.51.63.63.0 0 0-.19-.47A.54.54.0 0 0 24 27.67z"/><path class="cls-6" d="M39.59 25.85a1.32 1.32.0 0 0-.75-.58.3.3.0 0 0-.34.12.35.35.0 0 0 0 .4.46.46.0 0 1 .09.15 1.37 1.37.0 0 0 .21.3.66.66.0 0 0 .42.2h0a.39.39.0 0 0 .28-.2A.46.46.0 0 0 39.59 25.85z"/><path class="cls-6" d="M14.85 25.08a.46.46.0 0 0-.89.1v.05a.47.47.0 0 0 .25.46.52.52.0 0 0 .21.0.55.55.0 0 0 .33-.11.5.5.0 0 0 .12-.52z"/><path class="cls-7" d="M10.59 12.71a.34.34.0 0 0-.19.29s-.05.08-.11.14a.36.36.0 0 0-.09.33.38.38.0 0 0 .26.25h.08a.39.39.0 0 0 .25-.1A.93.93.0 0 0 11.1 13a.36.36.0 0 0-.15-.3A.38.38.0 0 0 10.59 12.71z"/><path class="cls-7" d="M10.4 11.92h.09a.31.31.0 0 0 .24-.1.94.94.0 0 0 .32-.6.35.35.0 0 0-.7.0s0 .08-.11.14a.34.34.0 0 0-.09.33A.35.35.0 0 0 10.4 11.92z"/><path class="cls-7" d="M9.47 9.81a.33.33.0 0 0-.18.29 2.3 2.3.0 0 1-.13.74.33.33.0 0 0 0 .33.36.36.0 0 0 .28.12h.06a.36.36.0 0 0 .27-.22 2.56 2.56.0 0 0 .18-1 .34.34.0 0 0-.16-.3A.36.36.0 0 0 9.47 9.81z"/><path class="cls-7" d="M8.63 13.83h0A.35.35.0 0 0 9 13.49a1.27 1.27.0 0 1 .09-.43.35.35.0 0 0-.22-.43.36.36.0 0 0-.45.22 2.14 2.14.0 0 0-.12.63.35.35.0 0 0 .11.26A.32.32.0 0 0 8.63 13.83z"/><path class="cls-7" d="M8.19 11a.35.35.0 0 0-.69.0v.63a.35.35.0 1 0 .69.0z"/><path class="cls-7" d="M7.44 14.93a.66.66.0 0 0-.21.45.34.34.0 0 0 .33.35h0a.34.34.0 0 0 .35-.31.35.35.0 0 0-.49-.49z"/><path class="cls-7" d="M8.55 15.3h0a1.54 1.54.0 0 0-.35.5.33.33.0 0 0 .06.33.34.34.0 0 0 .27.13h.06A.33.33.0 0 0 8.86 16 .88.88.0 0 1 9 15.79a.34.34.0 0 0 0-.49A.35.35.0 0 0 8.55 15.3z"/><path class="cls-7" d="M12 9.82a.35.35.0 0 0-.34.09l-.21.21a.35.35.0 0 0 0 .49.32.32.0 0 0 .24.11.39.39.0 0 0 .25-.1l.21-.22a.36.36.0 0 0 .09-.33A.39.39.0 0 0 12 9.82z"/><path class="cls-7" d="M10.7 9.55a.29.29.0 0 0 .16.0h0a.56.56.0 0 0 .33-.43.32.32.0 0 0-.29-.37.36.36.0 0 0-.36.18h0a.34.34.0 0 0-.17.22.33.33.0 0 0 0 .24A.35.35.0 0 0 10.7 9.55z"/><path class="cls-7" d="M9 9.34a.29.29.0 0 0 .16.0A.33.33.0 0 0 9.3 9s0-.08.0-.12a1.18 1.18.0 0 0 0-.2.34.34.0 0 0-.16-.3.36.36.0 0 0-.35.0.37.37.0 0 0-.19.3.36.36.0 0 1 0 .11.75.75.0 0 0 0 .2.31.31.0 0 0 .15.3A.31.31.0 0 0 9 9.34z"/><path class="cls-8" d="M4 16.4c.17-.18.42.0.35.22a.21.21.0 0 1-.2.25.28.28.0 0 1-.29-.17A.31.31.0 0 1 4 16.4z"/><path class="cls-8" d="M10.29 19a.22.22.0 0 1 .35.23.2.2.0 0 1-.2.24c-.12.0-.25.0-.29-.17A.31.31.0 0 1 10.29 19z"/><path class="cls-8" d="M4.77 21.75a1.08 1.08.0 0 0 .34.16A.18.18.0 0 1 5.3 22l.11.11c.19.19-.11.5-.31.3v-.05a.25.25.0 0 1-.12.0 1.77 1.77.0 0 1-.47-.25C4.26 21.86 4.57 21.56 4.77 21.75z"/><path class="cls-5" d="M14.72 56.83 16.48 57.16 16.54 58.12 14.8 57.81 14.72 56.83z"/><path class="cls-5" d="M37.82 58.59 39.65 58.66 39.68 59.54 37.95 59.38 37.82 58.59z"/><path class="cls-5" d="M32.06 58.11 34.1 58.18 34.17 58.91 31.96 58.83 32.06 58.11z"/></g></g></svg>