<svg xmlns="http://www.w3.org/2000/svg" xmlns:xlink="http://www.w3.org/1999/xlink" viewBox="0 0 317.89 345.27"><defs><style>.cls-1,.cls-10,.cls-2,.cls-7,.cls-9{fill:#fff}.cls-1{opacity:.5}.cls-11,.cls-3,.cls-4,.cls-5{fill:none;stroke:#fff}.cls-3,.cls-4,.cls-5{stroke-miterlimit:10}.cls-3{stroke-width:.27px}.cls-4{stroke-width:.6px}.cls-5{stroke-width:.49px}.cls-6{opacity:.85}.cls-7{opacity:.33}.cls-8{opacity:.48;fill:url(#未命名漸層_149)}.cls-9{opacity:.4}.cls-10{opacity:.62}.cls-11{stroke-linecap:round;stroke-linejoin:round;stroke-width:2.46px}</style><radialGradient id="未命名漸層_149" cx="178.12" cy="36.29" r="97.5" gradientUnits="userSpaceOnUse"><stop offset="0" stop-color="#fff"/><stop offset=".1" stop-color="#fff" stop-opacity=".94"/><stop offset=".29" stop-color="#fff" stop-opacity=".77"/><stop offset=".55" stop-color="#fff" stop-opacity=".51"/><stop offset=".88" stop-color="#fff" stop-opacity=".15"/><stop offset="1" stop-color="#fff" stop-opacity="0"/></radialGradient></defs><title>skills-bubble02</title><g id="圖層_2" data-name="圖層 2"><g id="技能"><path class="cls-1" d="M233.5 333.52a5.86 5.86.0 0 1 6.15 5.67 6 6 0 0 1-6.05 5.94 5.89 5.89.0 0 1-6.16-5.68A6.06 6.06.0 0 1 233.5 333.52z"/><path class="cls-2" d="M231.21 335.15a.87.87.0 0 1 .9.84.89.89.0 0 1-.9.88.87.87.0 0 1-.9-.84A.9.9.0 0 1 231.21 335.15z"/><path class="cls-2" d="M232.55 343.66l-.35-.1a2.79 2.79.0 0 1-.39-.12l-.49-.23a3.6 3.6.0 0 1-.53-.34 3.88 3.88.0 0 1-.53-.47 4 4 0 0 1-.47-.6c-.14-.22-.24-.47-.36-.7a7.2 7.2.0 0 1-.19-.77 3.83 3.83.0 0 1 0-.75 3.22 3.22.0 0 1 .09-.72 4.73 4.73.0 0 1 .17-.6c.07-.18.15-.35.21-.5s.16-.25.21-.35l.2-.32h0l-.24.28a2.13 2.13.0 0 0-.26.34c-.08.14-.17.31-.26.49a4.34 4.34.0 0 0-.22.64 2.86 2.86.0 0 0-.1.73 3.71 3.71.0 0 0 0 .81 6 6 0 0 0 .23.8c.13.24.24.5.39.72a5 5 0 0 0 .51.6 3.41 3.41.0 0 0 .56.47 3.61 3.61.0 0 0 .56.32l.5.22c.15.05.29.07.4.1l.35.08z"/><path class="cls-3" d="M233.5 333.52a5.86 5.86.0 0 1 6.15 5.67 6 6 0 0 1-6.05 5.94 5.89 5.89.0 0 1-6.16-5.68A6.06 6.06.0 0 1 233.5 333.52z"/><path class="cls-1" d="M302.13 316c6.53 4.19 8.62 12.34 4.67 18.21s-12.46 7.27-19 3.09-8.62-12.35-4.67-18.22S295.62 311.79 302.13 316z"/><path class="cls-2" d="M295.7 316a1.93 1.93.0 0 1 .69 2.69 2 2 0 0 1-2.81.45 2 2 0 0 1-.69-2.7A2.06 2.06.0 0 1 295.7 316z"/><path class="cls-2" d="M287.65 333.23l-.56-.6c-.17-.2-.37-.45-.59-.74a10.31 10.31.0 0 1-.64-1 5.15 5.15.0 0 1-.32-.62 7.1 7.1.0 0 1-.28-.69 6 6 0 0 1-.24-.75 5 5 0 0 1-.18-.79 7.29 7.29.0 0 1-.15-1.69 8.52 8.52.0 0 1 .2-1.74 8.34 8.34.0 0 1 .59-1.63 6 6 0 0 1 .41-.75 4.57 4.57.0 0 1 .47-.68 4.11 4.11.0 0 1 .51-.63 5.44 5.44.0 0 1 .52-.55 7.91 7.91.0 0 1 1.1-.9 10 10 0 0 1 1-.62c.31-.17.61-.29.84-.41l.77-.28v-.05l-.81.17a7.58 7.58.0 0 0-.91.31 6.47 6.47.0 0 0-1.13.55 8.23 8.23.0 0 0-1.2.87 4 4 0 0 0-.59.57 6.54 6.54.0 0 0-.55.65 6.26 6.26.0 0 0-.48.74 5.54 5.54.0 0 0-.4.81 8.69 8.69.0 0 0-.55 1.75 8.56 8.56.0 0 0-.16 1.82 9.11 9.11.0 0 0 .21 1.75 6.86 6.86.0 0 0 .21.81c.08.27.18.51.28.76a5.42 5.42.0 0 0 .32.69 7 7 0 0 0 .34.61c.23.4.49.73.7 1l.63.72.59.58z"/><path class="cls-4" d="M302.13 316c6.53 4.19 8.62 12.34 4.67 18.21s-12.46 7.27-19 3.09-8.62-12.35-4.67-18.22S295.62 311.79 302.13 316z"/><path class="cls-1" d="M308.62 281.52c6.19 1.34 10.12 7 8.76 12.61s-7.46 9.1-13.64 7.77-10.12-7-8.77-12.62S302.44 280.18 308.62 281.52z"/><path class="cls-2" d="M303.71 283.39a1.58 1.58.0 0 1 1.29 1.86 1.66 1.66.0 0 1-2 1.15 1.59 1.59.0 0 1-1.29-1.88A1.68 1.68.0 0 1 303.71 283.39z"/><path class="cls-2" d="M302.45 298.86l-.6-.3-.66-.4a7.37 7.37.0 0 1-.79-.61 3.62 3.62.0 0 1-.41-.38 6 6 0 0 1-.42-.45c-.13-.16-.27-.32-.39-.5a5.28 5.28.0 0 1-.37-.55 6.91 6.91.0 0 1-.59-1.26 6.48 6.48.0 0 1-.34-1.38 6.76 6.76.0 0 1 0-1.42c0-.24.05-.47.1-.69a5.33 5.33.0 0 1 .17-.66 3 3 0 0 1 .21-.62 4.87 4.87.0 0 1 .24-.57 5.61 5.61.0 0 1 .59-1 6.47 6.47.0 0 1 .61-.77c.19-.22.38-.39.53-.55l.51-.44v0l-.57.36a6.53 6.53.0 0 0-.61.49 8.54 8.54.0 0 0-.71.74 6.67 6.67.0 0 0-.67 1 5.46 5.46.0 0 0-.51 1.25 4.07 4.07.0 0 0-.16.71 4.29 4.29.0 0 0-.09.73 7.45 7.45.0 0 0 .08 1.49 7.66 7.66.0 0 0 .4 1.44 6.72 6.72.0 0 0 .66 1.28 4.63 4.63.0 0 0 .39.56 4.18 4.18.0 0 0 .43.5 6.09 6.09.0 0 0 .44.44 4.8 4.8.0 0 0 .44.37 10.18 10.18.0 0 0 .83.59l.68.37.62.28z"/><path class="cls-5" d="M308.62 281.52c6.19 1.34 10.12 7 8.76 12.61s-7.46 9.1-13.64 7.77-10.12-7-8.77-12.62S302.44 280.18 308.62 281.52z"/><path class="cls-1" d="M260.33 314.1c6.19 1.34 10.12 7 8.76 12.6s-7.46 9.11-13.64 7.77-10.12-7-8.77-12.62S254.15 312.76 260.33 314.1z"/><path class="cls-2" d="M255.41 316a1.58 1.58.0 0 1 1.3 1.86 1.66 1.66.0 0 1-2 1.16 1.59 1.59.0 0 1-1.29-1.88A1.68 1.68.0 0 1 255.41 316z"/><path class="cls-2" d="M254.16 331.43l-.6-.29-.66-.4c-.24-.18-.52-.37-.79-.61l-.42-.39a4.35 4.35.0 0 1-.41-.44c-.13-.16-.27-.32-.39-.5a4.17 4.17.0 0 1-.37-.56 6.55 6.55.0 0 1-.6-1.25 7.4 7.4.0 0 1-.33-1.39 6.74 6.74.0 0 1 0-1.42 5.06 5.06.0 0 1 .1-.68 4.54 4.54.0 0 1 .16-.66 4.65 4.65.0 0 1 .21-.63c.08-.19.16-.39.25-.57a6.62 6.62.0 0 1 .58-1 9.72 9.72.0 0 1 .61-.78c.2-.22.39-.39.54-.55l.5-.44v0l-.57.36c-.17.14-.39.29-.61.5a5.06 5.06.0 0 0-.71.74 6.56 6.56.0 0 0-.67 1 3.81 3.81.0 0 0-.29.61 5 5 0 0 0-.23.65 5.1 5.1.0 0 0-.16.7 6 6 0 0 0-.08.73 7.55 7.55.0 0 0 .08 1.5 7.15 7.15.0 0 0 .4 1.44 7 7 0 0 0 .65 1.28 5.66 5.66.0 0 0 .4.56 5.15 5.15.0 0 0 .43.5 4.44 4.44.0 0 0 .44.43 3.86 3.86.0 0 0 .44.38 7 7 0 0 0 .82.58c.26.16.5.28.69.38l.61.27z"/><path class="cls-5" d="M260.33 314.1c6.19 1.34 10.12 7 8.76 12.6s-7.46 9.11-13.64 7.77-10.12-7-8.77-12.62S254.15 312.76 260.33 314.1z"/><g class="cls-6"><path class="cls-7" d="M268.56 240C219 305.43 125.61 318.22 60.16 268.6A148.79 148.79.0 1 1 268.56 240z"/><path class="cls-8" d="M268.92 104.83C260.45 142.66 209 163.31 154.1 151S61.58 97.87 70 60.07 130 1.61 184.93 14 277.44 67 268.92 104.83z"/><path class="cls-9" d="M115.5 288.87a159.13 159.13.0 0 1-71.27-39.33c-20.89-20.06-29.92-41.1-36-68.27-1.5-6.7-1.94-14.13-2.57-20.92C4.79 151 3.42 129.8 8.28 122c-6.12 9.89 8.81 55 12.89 65.65C28 205.5 37.32 225.09 51.4 238.45c23.7 22.47 45.34 32.45 77.34 37.45 32.28 5 65.52-2.66 94.15-17.82 21.46-11.35 40.6-29.5 54.17-49.66 7.07-10.52 11.7-20.81 13.53-33.43-1.32 35.77-32 76-61 95.48C195.26 293.53 153.79 298.46 115.5 288.87z"/><path class="cls-10" d="M64.54 44.45c69.22-49.34 134.78-40.13 197.6 13C196.16 20.44 130.28 13.05 64.54 44.45z"/><path class="cls-2" d="M117.46 24.33C103 23.5 89.19 23.75 77.94 34c-8.77 8-13.84 18.33-2 25.58 13.88 8.49 53.58-.45 53.65-21.42.05-15-20.55-14.23-30.8-13.32z"/><path class="cls-2" d="M56.24 58.14C42 62.79 43.93 83.26 59.66 76.89c14-5.65 4.47-26.74-7.09-17z"/><path class="cls-11" d="M268.56 240C219 305.43 125.61 318.22 60.16 268.6A148.79 148.79.0 1 1 268.56 240z"/></g></g></g></svg>