<svg xmlns="http://www.w3.org/2000/svg" xmlns:xlink="http://www.w3.org/1999/xlink" viewBox="0 0 27.13 43.76"><defs><style>.cls-1{fill:url(#未命名漸層_9)}.cls-2{fill:none;stroke:#4d3224;stroke-linecap:round;stroke-linejoin:round;stroke-width:1.32px}.cls-3{fill:#4d3224}</style><linearGradient id="未命名漸層_9" x1="15.61" y1="31.22" x2="13.12" y2="-3.65" gradientUnits="userSpaceOnUse"><stop offset="0" stop-color="#fff" stop-opacity="0"/><stop offset=".02" stop-color="#fff" stop-opacity=".09"/><stop offset=".08" stop-color="#fff" stop-opacity=".32"/><stop offset=".13" stop-color="#fff" stop-opacity=".5"/><stop offset=".17" stop-color="#fff" stop-opacity=".62"/><stop offset=".21" stop-color="#fff" stop-opacity=".7"/><stop offset=".23" stop-color="#fff" stop-opacity=".73"/><stop offset=".25" stop-color="#fff" stop-opacity=".77"/><stop offset=".32" stop-color="#fff" stop-opacity=".85"/><stop offset=".4" stop-color="#fff" stop-opacity=".92"/><stop offset=".49" stop-color="#fff" stop-opacity=".97"/><stop offset=".63" stop-color="#fff" stop-opacity=".99"/><stop offset="1" stop-color="#fff"/></linearGradient></defs><title>資產 27</title><g id="圖層_2" data-name="圖層 2"><g id="首頁"><path class="cls-1" d="M7.27 32S8 23.22 5.08 21L3.91 16.34 2.59 11.5s3.23-1.61 5.72 4.4L12.12 2.42s3.8-4.4 3.8 1.32L14.46 9.3s3.52-1.17 4 1.76c0 0 3.07-.73 3.81 1.61.0.0 3.07.15 3.66 1.47l.29 2.64-2.64 9.37s-4.41 3.67-4.4 5.86z"/><path class="cls-2" d="M15.47 9.45s4.16-1.38 3.33 3.63"/><path class="cls-2" d="M19.14 11.21s4.16-1.38 3.32 3.63"/><path class="cls-2" d="M7.86 17.53l4.25-15c.83-2.91 4.37-2 4 .87l-2.49 9.35"/><path class="cls-2" d="M22.81 13.26s4.16-1.38 3.33 3.63a25.54 25.54.0 0 1-2.08 7.68c-1.24 2.36-4.55 4.06-4.77 6.86"/><path class="cls-2" d="M8.16 15.9S5.67 9.16 2.45 11.79a10.61 10.61.0 0 0 1 3.81c1 2.24.49 3.62 1.84 5.74s2.94 7.49 2 10.09"/><path class="cls-2" d="M7.41 3h-6z"/><path class="cls-2" d="M2.71.66.66 2.89 2.71 5.35"/><path class="cls-2" d="M19.72 3.15H25.73z"/><path class="cls-2" d="M24.43.81 26.48 3.04 24.43 5.49"/><path class="cls-3" d="M6.74 36.08a1 1 0 0 1-.19.64A.64.64.0 0 1 6 37a.53.53.0 0 1-.41-.19.7.7.0 0 0 .29-.32A1 1 0 0 0 6 36a.65.65.0 0 0-.14-.4.62.62.0 0 0-.51-.17.83.83.0 0 0-.58.19.74.74.0 0 0-.22.59 1.11 1.11.0 0 0 .14.56 2.26 2.26.0 0 0 .37.46c.14.14.3.28.47.43a3.63 3.63.0 0 1 .48.48 2.73 2.73.0 0 1 .36.6 2.41 2.41.0 0 1-.06 1.77 2 2 0 0 1-.55.67 2.31 2.31.0 0 1-.78.4 3.26 3.26.0 0 1-1.63.0 1.59 1.59.0 0 1-.59-.26 1.33 1.33.0 0 1-.4-.45 1.47 1.47.0 0 1-.15-.69 1.75 1.75.0 0 1 .11-.62 1.48 1.48.0 0 1 .3-.45 1.36 1.36.0 0 1 .41-.26 1.13 1.13.0 0 1 .46-.1h.24A.85.85.0 0 1 4 39a.64.64.0 0 1 .19.18.77.77.0 0 1 .1.28 1.22 1.22.0 0 0-.37.05 1 1 0 0 0-.33.15.77.77.0 0 0-.34.65.75.75.0 0 0 .23.55.81.81.0 0 0 .64.23 1 1 0 0 0 .72-.29 1.17 1.17.0 0 0 .28-.84A1.65 1.65.0 0 0 5 39.23a2.84 2.84.0 0 0-.33-.56c-.14-.17-.28-.34-.43-.5s-.3-.32-.44-.48a2.7 2.7.0 0 1-.33-.5 1.31 1.31.0 0 1-.13-.59A1.23 1.23.0 0 1 3.48 36a1.44 1.44.0 0 1 .43-.49 1.83 1.83.0 0 1 .64-.32A2.52 2.52.0 0 1 5.34 35h.39a1.51 1.51.0 0 1 .46.13 1.08 1.08.0 0 1 .39.32A.89.89.0 0 1 6.74 36.08z"/><path class="cls-3" d="M9.7 37.22l-.63 3a.75.75.0 0 0 0 .21.59.59.0 0 0 0 .27.21.21.0 0 0 .21.12.52.52.0 0 0 .42-.22A1.67 1.67.0 0 0 10 40l.59-2.8h1.26l-.63 3a1.5 1.5.0 0 0-.05.31.33.33.0 0 0 .07.21.32.32.0 0 0 .23.08.69.69.0 0 0 .41-.15 1.7 1.7.0 0 0 .36-.39 3 3 0 0 0 .31-.56 4.75 4.75.0 0 0 .23-.63c.06-.22.11-.43.15-.64a3.74 3.74.0 0 0 .05-.55s-.05.05-.12.07h-.16a.25.25.0 0 1-.23-.15.55.55.0 0 1-.08-.29.45.45.0 0 1 .13-.34.6.6.0 0 1 .67-.07.46.46.0 0 1 .17.17.85.85.0 0 1 .09.24 1.41 1.41.0 0 1 0 .28 5.4 5.4.0 0 1-.06.77 6.87 6.87.0 0 1-.19.85 5.85 5.85.0 0 1-.33.82 3.24 3.24.0 0 1-.47.71 2.36 2.36.0 0 1-.64.5 1.74 1.74.0 0 1-.8.18 1.25 1.25.0 0 1-.7-.18A.86.86.0 0 1 10 40.9a1.78 1.78.0 0 1-.32.38 1.26 1.26.0 0 1-.33.22 1 1 0 0 1-.31.11 1.37 1.37.0 0 1-.28.0 1 1 0 0 1-.66-.24 1.06 1.06.0 0 1-.27-.8A2.59 2.59.0 0 1 7.85 40l.59-2.8z"/><path class="cls-3" d="M16.34 37.22l-.63 3a1.31 1.31.0 0 0 0 .27.31.31.0 0 0 .09.26.38.38.0 0 0 .27.07.71.71.0 0 0 .47-.22 1.3 1.3.0 0 0 .31-.55h.37a2.92 2.92.0 0 1-.43.85 2.09 2.09.0 0 1-.5.49 1.4 1.4.0 0 1-.49.22 1.7 1.7.0 0 1-.42.05 1 1 0 0 1-.66-.24 1.06 1.06.0 0 1-.27-.8 2.59 2.59.0 0 1 .07-.57l.59-2.8zm-1.08-1.16a.68.68.0 0 1 .2-.49.65.65.0 0 1 .49-.21.67.67.0 0 1 .49.21.65.65.0 0 1 .21.49.67.67.0 0 1-.21.49.7.7.0 0 1-.49.2.68.68.0 0 1-.49-.2A.7.7.0 0 1 15.26 36.06z"/><path class="cls-3" d="M19.61 36.9l-.14.65a1.79 1.79.0 0 1 .44-.27 1.5 1.5.0 0 1 .58-.1 1.16 1.16.0 0 1 .42.07.76.76.0 0 1 .34.23 1 1 0 0 1 .23.42 2.35 2.35.0 0 1 .08.65 4.88 4.88.0 0 1 0 .64 4.22 4.22.0 0 1-.14.69 3.77 3.77.0 0 1-.26.66 2.28 2.28.0 0 1-.4.56 1.87 1.87.0 0 1-.56.39 1.79 1.79.0 0 1-.75.14 1.09 1.09.0 0 1-.5-.09.74.74.0 0 1-.24-.22l-.45 2.13-1.32.31 1.46-6.86zm-.47 4a.76.76.0 0 0 .58-.25A2 2 0 0 0 20.1 40a3.78 3.78.0 0 0 .2-.77 5 5 0 0 0 .06-.71 1.45 1.45.0 0 0 0-.4.64.64.0 0 0-.12-.22.24.24.0 0 0-.14-.09h-.13a.62.62.0 0 0-.32.11 1 1 0 0 0-.28.32l-.52 2.44a.29.29.0 0 0 .11.14A.34.34.0 0 0 19.14 40.87z"/><path class="cls-3" d="M23.85 39.82s0 .09.0.13v.14a2.28 2.28.0 0 0 0 .26.63.63.0 0 0 .08.23.44.44.0 0 0 .17.16.45.45.0 0 0 .27.07 1.27 1.27.0 0 0 .53-.14 2.62 2.62.0 0 0 .49-.33 2.32 2.32.0 0 1-.21.63 1.32 1.32.0 0 1-.35.39 1.19 1.19.0 0 1-.44.21 2.22 2.22.0 0 1-.51.06 1.41 1.41.0 0 1-1-.32 1.32 1.32.0 0 1-.37-1.06 4.4 4.4.0 0 1 0-.58 5.74 5.74.0 0 1 .16-.66 3.57 3.57.0 0 1 .29-.67 2.88 2.88.0 0 1 .45-.59 2.21 2.21.0 0 1 .61-.42 2 2 0 0 1 .79-.15 1.32 1.32.0 0 1 .48.07.69.69.0 0 1 .3.18.59.59.0 0 1 .14.27 1.06 1.06.0 0 1 0 .31 1.53 1.53.0 0 1-.16.7 2 2 0 0 1-.44.56 2.71 2.71.0 0 1-.64.38A2.41 2.41.0 0 1 23.85 39.82zM25.17 38a.5.5.0 0 0-.05-.26.17.17.0 0 0-.17-.09.45.45.0 0 0-.32.16 2.07 2.07.0 0 0-.3.41 5.87 5.87.0 0 0-.25.56 5.34 5.34.0 0 0-.18.62 1 1 0 0 0 .48-.13 1.39 1.39.0 0 0 .41-.31 1.83 1.83.0 0 0 .28-.44A1.34 1.34.0 0 0 25.17 38z"/></g></g></svg>