<svg xmlns="http://www.w3.org/2000/svg" viewBox="0 0 27.59 21.43"><defs><style>.cls-1{fill:#fff}</style></defs><title>icon-ui</title><g id="圖層_2" data-name="圖層 2"><g id="介面"><path class="cls-1" d="M25.84 18.93A1 1 0 0 1 24.79 20H2.5a1 1 0 0 1-1-1.05V2.35c0-.7.62-1 1.22-1H22.44L23.81.0H2.5A2.5 2.5.0 0 0 0 2.5V18.93a2.5 2.5.0 0 0 2.5 2.5H24.79a2.5 2.5.0 0 0 2.5-2.5V4.87L25.84 6.51z"/><path class="cls-1" d="M20.61 10.87l6.6-8A1.55 1.55.0 0 0 26.05.35a1.52 1.52.0 0 0-1 .38l-8 6.6z"/><path class="cls-1" d="M12.19 12.52v1.25a2.57 2.57.0 0 1-1.42 2.3h5A4.25 4.25.0 0 0 20 11.82L16.44 8.27A4.25 4.25.0 0 0 12.19 12.52z"/></g></g></svg>