<svg xmlns="http://www.w3.org/2000/svg" viewBox="0 0 23.77 23.25"><defs><style>.cls-1{fill:#fff}</style></defs><title>icon-vision</title><g id="圖層_2" data-name="圖層 2"><g id="視覺"><path class="cls-1" d="M2.53 23.25 14.86 19.5a2.68 2.68.0 0 0 1.29-1.12L20 10.76v0L12.79 3.58v0L5.39 7.26A3.81 3.81.0 0 0 4 8.88L0 21l.76.66 7.09-7.21a2.63 2.63.0 0 1-.25-1.08 2.53 2.53.0 1 1 2.53 2.52 2.45 2.45.0 0 1-1.08-.25L1.86 22.58z"/><path class="cls-1" d="M14.06 2.7l6.73 6.74 2.74-3a1.15 1.15.0 0 0-.15-1.55L18.76.26a1.22 1.22.0 0 0-1.48.0z"/></g></g></svg>