<svg xmlns="http://www.w3.org/2000/svg" viewBox="0 0 1920 340"><defs><style>.cls-1{fill:#f5e69a}.cls-2{fill:none}</style></defs><title>contact-star-y</title><g class="star-y"><path class="cls-1" d="M79.33 92.6c-.16-8.81-2.69-11.24-11.5-11.08 8.81-.16 11.25-2.69 11.09-11.5.16 8.81 2.68 11.24 11.49 11.08C81.6 81.26 79.17 83.79 79.33 92.6z"/><path class="cls-1" d="M432.76 312.19c-.1-5.44-1.66-6.95-7.1-6.85 5.44-.1 6.94-1.65 6.84-7.1.1 5.45 1.66 6.95 7.1 6.85C434.16 305.19 432.66 306.75 432.76 312.19z"/><path class="cls-1" d="M1302.88 277.21c-.14-7.5-2.28-9.57-9.78-9.44 7.5-.13 9.57-2.28 9.43-9.78.14 7.5 2.28 9.57 9.78 9.43C1304.81 267.56 1302.74 269.71 1302.88 277.21z"/><path class="cls-1" d="M520.29 42.27c-.19-10.36-3.16-13.22-13.51-13 10.35-.19 13.21-3.15 13-13.51C520 26.09 523 29 533.32 28.76 523 29 520.1 31.91 520.29 42.27z"/><path class="cls-1" d="M1006.2 244.22c-.12-6.42-2-8.19-8.37-8.07 6.41-.12 8.18-2 8.07-8.37.11 6.42 2 8.19 8.36 8.07C1007.85 236 1006.08 237.8 1006.2 244.22z"/><path class="cls-1" d="M192.52 211.58c-.07-3.75-1.14-4.78-4.89-4.72 3.75-.06 4.79-1.14 4.72-4.89.07 3.75 1.14 4.79 4.89 4.72C193.49 206.76 192.45 207.83 192.52 211.58z"/><path class="cls-1" d="M1708 82.55c-.21-11.45-3.5-14.62-15-14.41 11.45-.21 14.62-3.49 14.41-14.94.21 11.45 3.49 14.62 14.94 14.4C1710.94 67.82 1707.78 71.1 1708 82.55z"/><path class="cls-1" d="M1542.31 272.17c-.13-7.18-2.19-9.16-9.37-9 7.18-.13 9.16-2.19 9-9.37.13 7.18 2.19 9.16 9.37 9C1544.16 262.93 1542.18 265 1542.31 272.17z"/><path class="cls-2" d="M0 0h1920v340H0z"/><animate attributeType="auto" attributeName="opacity" dur="1.2s" values="0.2;1;0.2" repeatCount="indefinite" begin="0"/></g></svg>