<svg xmlns="http://www.w3.org/2000/svg" viewBox="0 0 52.6 37.72"><defs><style>.cls-1{opacity:.3}.cls-2{fill:#fff}</style></defs><title>contact-medusa</title><g id="圖層_2" data-name="圖層 2"><g id="聯絡"><g class="cls-1"><path class="cls-2" d="M23.24 11.45c5.28.36 7.81 4.76 8 10.33a1.7 1.7.0 0 1-1.74 1.83H29a7.66 7.66.0 0 0-.62 3.51c.11 1.38.79 2.7.44 4.1.16-1.43-.7-2.67-1-4a8.57 8.57.0 0 1 .1-3.67l-1.25-.09a27.09 27.09.0 0 0-1.08 5.27c0 1.48.53 5.22-.9 6.21 1.32-1.09.48-4.75.34-6.19a26.85 26.85.0 0 1 .61-5.36l-1.39-.09h.14C22.29 27.87 24 33.15 22 37.72c1.71-4.7-.3-9.81 1.25-14.53l-1.42-.1c-.34 1.2-1.15 2.14-1.24 3.45-.25 3 .29 6.17.17 9.24-.14-3.2-.89-6.37-.94-9.56.0-1.18.66-2.13.92-3.2l-3.54-.25c-.32 2.76-2 5.43-1.37 8.28-1-2.75.37-5.59.31-8.35h-.66A1.71 1.71.0 0 1 14 20.6C14.89 15.11 18.11 11.1 23.24 11.45z"/><path class="cls-2" d="M46.67 2.77c3.94.27 5.82 3.56 5.93 7.71a1.28 1.28.0 0 1-1.3 1.37h-.37a5.89 5.89.0 0 0-.47 2.62c.09 1 .6 2 .33 3.06.12-1.07-.52-2-.74-3a6.49 6.49.0 0 1 .07-2.74l-.93-.07a19.72 19.72.0 0 0-.8 3.93c0 1.11.39 3.9-.68 4.64 1-.82.36-3.54.26-4.62a20 20 0 0 1 .45-4l-1-.07h.1C46 15 47.25 19 45.7 22.37c1.28-3.5-.22-7.32.94-10.84l-1.06-.07A11.94 11.94.0 0 0 44.65 14c-.18 2.27.22 4.6.13 6.89-.1-2.38-.66-4.75-.7-7.13a10.11 10.11.0 0 1 .69-2.39l-2.65-.18c-.23 2.06-1.48 4-1 6.18-.72-2 .28-4.17.24-6.23h-.5A1.28 1.28.0 0 1 39.75 9.6C40.44 5.5 42.84 2.51 46.67 2.77z"/><path class="cls-2" d="M7.21.0c4.09.28 6.05 3.69 6.17 8A1.33 1.33.0 0 1 12 9.45h-.39a6.2 6.2.0 0 0-.49 2.72c.09 1.07.62 2.1.35 3.18.12-1.1-.54-2.06-.77-3.11a6.63 6.63.0 0 1 .07-2.84l-1-.07A20.38 20.38.0 0 0 9 13.38c0 1.15.41 4-.7 4.83 1-.86.37-3.69.26-4.81A20.62 20.62.0 0 1 9 9.25L8 9.17l.11.05c-1.6 3.53-.26 7.62-1.86 11.17 1.33-3.65-.23-7.61 1-11.27l-1.1-.07a11.64 11.64.0 0 0-1 2.67c-.2 2.36.22 4.78.13 7.16-.11-2.48-.69-4.93-.73-7.41A11.41 11.41.0 0 1 5.23 9L2.49 8.8C2.24 10.93.94 13 1.43 15.22c-.76-2.13.29-4.34.24-6.48h-.51A1.32 1.32.0 0 1 0 7.12C.74 2.86 3.23-.26 7.21.0z"/></g></g></g></svg>