<svg viewBox="0 0 282.88 65.38" xmlns="http://www.w3.org/2000/svg"><g fill="#fff"><path d="m0 12.22a14.22 14.22.0 0 0 1.45.14 14 14 0 0 0 1.45.0c.48.0 1-.08 1.43-.15s1-.15 1.43-.24c1.89-.38 3.74-.93 5.67-1.38 1-.23 1.93-.42 2.93-.56.5-.07 1-.1 1.52-.14h.37.38.76a32.22 32.22.0 0 1 6 .68c1 .2 1.94.43 2.9.67l2.84.77c1.89.53 3.74 1.09 5.59 1.57.93.23 1.86.46 2.78.64.46.1.92.17 1.38.25l.7.1.34.05h.35l.69.07h.68.35 1c.46.0.91.0 1.36-.07h.33.17.17l.66-.1.33-.06.32-.07.33-.07.34-.12.64-.19.63-.22.32-.12.3-.13.62-.28c.41-.19.82-.41 1.23-.64.83-.44 1.67-.94 2.56-1.42.45-.23.91-.47 1.38-.68l.7-.32.72-.28.36-.14.36-.13.73-.24.74-.21.71-.2.75-.17c.25-.06.5-.09.75-.14.5-.1 1-.15 1.51-.22a30 30 0 0 1 6.06-.07l.75.08h.37l.37.05.75.1.73.12c.5.07 1 .18 1.47.27l.73.16c.24.06.49.1.73.17a56 56 0 0 1 5.67 1.7 94.4 94.4.0 0 1 10.76 4.7l-2.78-.92-2.76-.83c-1.86-.59-3.72-1.14-5.59-1.63l-1.4-.37c-.47-.11-.94-.23-1.41-.33l-.71-.15-.7-.14c-.47-.1-1-.18-1.42-.26-.23.0-.47-.08-.71-.11l-.71-.11c-.47-.06-.94-.14-1.41-.18l-.71-.07-.71-.06h-.36-.35-.71c-.95.0-1.89.0-2.82.0h-.53-.17l-.7.06c-.24.0-.47.0-.7.08h-.34c-.12.0-.24.0-.35.06a23.13 23.13.0 0 0-5.35 1.5l-.63.27-.63.29c-.41.19-.82.41-1.23.64-.82.46-1.65 1-2.52 1.46-.44.24-.89.48-1.36.71-.23.12-.47.23-.71.33l-.37.16-.37.13-.75.28-.76.22-.38.11-.39.08-.38.09-.39.08-.78.11h-.2-.19-.39c-.53.05-1.05.06-1.57.08h-.78-.38-.39l-.77-.05-.76-.09-.38-.05-.38-.06c-.25.0-.5-.07-.75-.12-.5-.09-1-.18-1.49-.3-.92-.16-1.92-.42-2.92-.66-1.91-.55-3.77-1.15-5.61-1.75s-3.64-1.25-5.49-1.68c-.46-.12-.93-.23-1.39-.33l-.69-.15-.7-.14c-.46-.07-.93-.16-1.4-.21h-.35-.35l-.7-.06c-.23.0-.47.0-.7.0h-.35a2.08 2.08.0 0 0-.35.0c-.47.0-.94.0-1.41.0-.94.0-1.89.16-2.84.3-1.91.27-3.84.65-5.81.82a19.51 19.51.0 0 1-3 .06 12.25 12.25.0 0 1-2.86-.64z" opacity=".27"/><path d="m112.66 33.53c.7-.55 1.41-1.08 2.12-1.61s1.44-1.05 2.18-1.55 1.48-1 2.24-1.46 1.54-.92 2.33-1.35 1.6-.83 2.42-1.21 1.67-.71 2.52-1a25.89 25.89.0 0 1 2.64-.78l.68-.15.68-.13c.11.0.23.0.34-.06l.35-.05.34-.05h.35.35.17.18.7 1.41.35.35.36.17.18l.7.1.7.13c.23.0.46.1.69.16l.69.17c.46.13.91.28 1.34.44.88.32 1.72.69 2.54 1.06s1.62.75 2.41 1.11 1.57.69 2.35 1a15.67 15.67.0 0 0 2.34.64 9.15 9.15.0 0 0 1.17.06 5.43 5.43.0 0 0 .57.0h.29.29a14.78 14.78.0 0 0 4.67-1.28c1.58-.66 3.17-1.46 4.9-2.13a19.74 19.74.0 0 1 2.7-.85l.36-.08.36-.06c.23.0.48-.07.72-.11h.37.37 1.11.36l.73.08c.24.0.48.08.72.12h.18.17l.35.08a19 19 0 0 1 2.67.88c.85.34 1.67.73 2.47 1.11l2.39 1.14c.79.37 1.58.7 2.38 1 .4.15.81.27 1.22.4s.82.23 1.24.32l.32.07.31.06.64.12.64.09.64.08h.32.33.65.65.65a23.08 23.08.0 0 0 2.62-.19 23.32 23.32.0 0 0 2.6-.49 19.8 19.8.0 0 1-2.52.89 21.29 21.29.0 0 1-2.64.54l-.68.08-.67.05h-.68-.68a20.85 20.85.0 0 1-2.73-.17 22.77 22.77.0 0 1-5.29-1.38c-.85-.32-1.67-.66-2.49-1s-1.63-.64-2.43-.92a18.14 18.14.0 0 0-2.42-.66l-.3-.05h-.15-.15l-.59-.07h-.6-.59a13.14 13.14.0 0 0-4.68 1.16c-.78.33-1.56.69-2.36 1.07s-1.6.77-2.45 1.14a23.38 23.38.0 0 1-2.63 1 13.2 13.2.0 0 1-1.41.35l-.73.12-.37.05h-.38-.37-.38c-.25.0-.5.0-.75.0a11.81 11.81.0 0 1-1.47-.18 12.79 12.79.0 0 1-1.42-.34c-.47-.13-.92-.28-1.36-.45-.88-.33-1.72-.71-2.54-1.09l-2.39-1.17c-.78-.38-1.56-.74-2.34-1.05-.39-.16-.78-.3-1.17-.43a5.76 5.76.0 0 0-.59-.18 5.69 5.69.0 0 0-.59-.16 15.52 15.52.0 0 0-2.44-.4h-.31-.31-.63-1.28a21.58 21.58.0 0 0-2.52.28c-.83.15-1.67.34-2.5.56s-1.65.49-2.47.78-1.63.61-2.43.95-1.6.71-2.4 1.09-1.57.78-2.36 1.18c-1.55.88-3.1 1.73-4.66 2.58z" opacity=".27"/><path d="m195.69 20.18c.77-.56 1.56-1.1 2.35-1.64s1.59-1.05 2.4-1.55 1.64-1 2.47-1.46 1.69-.91 2.56-1.34a35.26 35.26.0 0 1 5.42-2.13l.7-.2.72-.18c.48-.11 1-.22 1.45-.3a20.78 20.78.0 0 1 3-.33 18.66 18.66.0 0 1 6 .69l.73.23.71.25c.47.18.94.38 1.39.59.9.41 1.77.86 2.61 1.31s1.67.91 2.49 1.32a24 24 0 0 0 2.46 1.09 12.56 12.56.0 0 0 2.49.66 13.06 13.06.0 0 0 2.58.13 21.94 21.94.0 0 0 5.25-1c1.75-.52 3.5-1.2 5.29-1.86.9-.33 1.8-.66 2.73-1l.69-.23.7-.22.71-.19.71-.19a38.26 38.26.0 0 1 5.77-1c.49-.06 1-.09 1.46-.12h.72.73 1.45 1.45q2.9.06 5.75.38c3.81.41 7.57 1.07 11.3 1.84l-1.43-.07-1.5-.14-2.84-.16c-1.9-.1-3.79-.18-5.68-.22h-1.42c-.47.0-.94.0-1.41.0H268h-.7-.7-.36-.35c-1.87.08-3.73.28-5.56.54l-1.38.23-1.36.28-.34.07-.33.08-.67.17-.67.16-.66.2-.66.2-.66.21c-.44.14-.87.3-1.31.46-.87.32-1.75.66-2.62 1-1.76.7-3.55 1.42-5.43 2a23.91 23.91.0 0 1-5.95 1.26 16.23 16.23.0 0 1-3.11-.17l-.77-.14-.77-.19-.74-.23-.37-.12-.36-.14a26 26 0 0 1-2.72-1.26c-.87-.46-1.71-.93-2.53-1.4a27.17 27.17.0 0 0-4.92-2.35 17.31 17.31.0 0 0-2.58-.62 18.4 18.4.0 0 0-2.68-.22 20.59 20.59.0 0 0-2.71.14c-.91.11-1.81.26-2.71.46a37.78 37.78.0 0 0-5.32 1.64c-1.75.66-3.48 1.43-5.19 2.24s-3.42 1.68-5.12 2.54z" opacity=".27"/><path d="m81.72 63.57a40.8 40.8.0 0 1 3.65-3 21.32 21.32.0 0 1 4.15-2.41 14.39 14.39.0 0 1 2.35-.78 10.5 10.5.0 0 1 2.51-.28 9.38 9.38.0 0 1 2.57.36c.2.06.41.12.62.2l.3.11.3.12a12.11 12.11.0 0 1 1.14.57c.73.4 1.41.84 2.06 1.26l1 .6c.31.19.64.36 1 .53.16.09.32.16.49.24l.24.12.26.1.5.21.51.19.26.09.26.08.52.16c.35.09.7.19 1.06.26a19.56 19.56.0 0 0 2.15.32h.54.55.54.54.54.27.27l.54-.07.53-.09a15.37 15.37.0 0 0 2.1-.53 40.83 40.83.0 0 0 4.23-1.68c.71-.31 1.44-.63 2.18-.93s1.51-.6 2.29-.85a21.87 21.87.0 0 1 2.41-.63 22.88 22.88.0 0 1 2.47-.33c.82.0 1.64-.08 2.45.0s1.63.08 2.43.17a72.48 72.48.0 0 1 9.32 1.85c.75.19 1.51.37 2.27.54l1.14.27 1.14.24c1.53.31 3.07.57 4.63.74-.39.0-.78.06-1.18.07h-1.18c-.79.0-1.58.0-2.37-.09-1.57-.1-3.14-.29-4.7-.49-3.11-.41-6.19-.92-9.23-1.05a28.06 28.06.0 0 0-4.5.14c-.36.06-.73.1-1.09.17l-.27.05h-.27l-.54.12a20.27 20.27.0 0 0-2.11.62c-.7.26-1.4.54-2.09.84l-2.12 1a44.25 44.25.0 0 1-4.49 1.81 19.91 19.91.0 0 1-2.45.6l-.62.1c-.21.0-.42.0-.63.08h-.32-.31-.63a18.69 18.69.0 0 1-5-.52c-.41-.09-.81-.22-1.21-.34l-.6-.2-.29-.11-.3-.11-.58-.24-.57-.27-.28-.13-.28-.15c-.18-.1-.37-.19-.55-.3-.36-.22-.73-.43-1.07-.66l-1-.69c-.64-.46-1.25-.92-1.87-1.31-.31-.19-.62-.38-.93-.54l-.24-.12-.23-.11-.49-.19a8.28 8.28.0 0 0-2-.46 11.35 11.35.0 0 0-4.33.54 24.38 24.38.0 0 0-4.22 1.81c-.68.37-1.36.75-2 1.15s-1.47.82-2.14 1.23z" opacity=".27"/><path d="m215.05 65.38a4.25 4.25.0 0 1 0-1.81 5.42 5.42.0 0 1 .72-1.72 7.85 7.85.0 0 1 2.74-2.57 9.55 9.55.0 0 1 1.75-.79c.59-.17 1.17-.35 1.77-.48l.45-.1c.15.0.3-.06.46-.09l.45-.08h.23.23l.92-.12.92-.07h1.85.46.46c.31.0.62.0.92.07h.46l.46.05.91.14.91.17.9.2c.3.06.59.14.89.21l.44.12.44.13c.59.16 1.16.35 1.74.53l.86.29.8.28.81.26.4.12.41.1a26.55 26.55.0 0 0 3.31.66l.88.12.85.08.84.06h.85 3.42l.86-.06h.42.43.43.43l.86-.11c2.3-.3 4.59-.74 6.89-1.24 1.15-.24 2.3-.5 3.46-.76s2.31-.51 3.48-.74c-1.08.51-2.16 1-3.26 1.46s-2.2.9-3.31 1.31a52 52 0 0 1-6.89 2l-.89.19-.44.08-.45.08-.45.08-.45.06-.91.13a31.66 31.66.0 0 1-3.65.24 26.85 26.85.0 0 1-3.69-.2 30.07 30.07.0 0 1-3.65-.68l-.45-.12-.44-.14c-.3-.09-.59-.17-.89-.28l-.86-.3-.82-.29c-1.08-.39-2.18-.73-3.27-1a28.26 28.26.0 0 0-6.68-1h-.85-.85-.21-.21-.42-.43l-.42.05c-.57.06-1.13.17-1.69.26a7.92 7.92.0 0 0-1.56.45c-.25.11-.5.22-.75.35s-.48.27-.71.42a7.2 7.2.0 0 0-1.26 1.08 5.08 5.08.0 0 0-.94 1.39 4.55 4.55.0 0 0-.42 1.53z" opacity=".27"/><path d="m46 39.77c.56-.33 1.14-.63 1.73-.91s1.19-.54 1.8-.77a4.28 4.28.0 0 1 .46-.17l.47-.17.47-.14.48-.14.49-.13.49-.1c.33-.08.66-.13 1-.18a12.28 12.28.0 0 1 4.18.12h.13.13l.26.07c.17.0.35.09.52.15.34.11.67.24 1 .37.63.26 1.21.55 1.77.8a12.12 12.12.0 0 0 1.59.65 11.28 11.28.0 0 0 1.64.36c.57.08 1.17.14 1.79.19l1.9.23 1.89.14 1 .07.95.07 1.86.12c.64.06 1.29.13 1.93.22-.62.21-1.25.38-1.88.53s-1.26.28-1.9.4l-1 .17-1 .13c-.64.09-1.29.16-1.93.22s-1.29.1-1.94.13a17.25 17.25.0 0 1-2 0 10.57 10.57.0 0 1-2.12-.36 10.35 10.35.0 0 1-1-.34l-.94-.41-.88-.42-.82-.39c-.27-.13-.54-.24-.8-.34l-.39-.14-.2-.07h-.1-.1l-.41-.11c-.13.0-.27-.06-.41-.09l-.42-.09-.43-.06h-.21-.22-.44c-.14.0-.29.0-.44.0s-.3.0-.45.0-.6.0-.9.0h-.46-.46c-.61.0-1.24.09-1.86.15l-1 .11-.95.11c-.55-.1-1.2-.02-1.87.02z" opacity=".27"/><path d="m127.84 4.69a7.16 7.16.0 0 1 1.26-1.44 7.51 7.51.0 0 1 .76-.61 3.62 3.62.0 0 1 .41-.27c.14-.09.27-.18.42-.26l.44-.23.22-.11.23-.1.46-.19.47-.16.24-.08.24-.07.49-.12c.16.0.33-.06.5-.09a4 4 0 0 1 .5-.07 8.59 8.59.0 0 1 1-.07h.52.51.26.25l.52.08.51.11.25.06.25.07.5.16c.16.05.32.12.48.18.31.12.6.25.88.37a11 11 0 0 0 1.52.58 3 3 0 0 0 .66.13 3.7 3.7.0 0 0 .67.0 11.07 11.07.0 0 0 1.58-.3c1.18-.3 2.37-.6 3.56-.88l1.79-.41.9-.2.91-.1c.6-.13 1.21-.25 1.82-.36s1.23-.23 1.86-.31c-.52.36-1.06.69-1.6 1s-1.09.61-1.64.9l-.83.42-.85.4c-.56.27-1.13.52-1.71.76-1.15.48-2.31.91-3.49 1.31a12 12 0 0 1-2 .49 5.78 5.78.0 0 1-1.18.0 6 6 0 0 1-1.15-.21 11.69 11.69.0 0 1-1.91-.76l-.8-.39-.38-.16-.37-.15-.18-.07-.2-.06-.39-.1-.39-.1h-.2-.2l-.4-.08c-.14.0-.28.0-.41-.05a7.77 7.77.0 0 0-.83-.08 12.32 12.32.0 0 0-3.39.34 13.34 13.34.0 0 0-3.34 1.28z" opacity=".27"/><path d="m164.65 59.92a9.47 9.47.0 0 1 1.28-1.7c.12-.12.24-.26.37-.38l.4-.37c.28-.23.56-.46.86-.67a12 12 0 0 1 6.21-2.2 13.81 13.81.0 0 1 2.23.0 19.36 19.36.0 0 1 2.16.31c.7.14 1.39.31 2.07.49 1.35.35 2.65.76 3.93 1.11l1.94.49 1 .22.49.11.5.1 1 .2 1 .18.5.09.5.08 1 .16 2 .28c.68.1 1.37.17 2.07.27a18.45 18.45.0 0 1-2 .48c-.35.07-.7.11-1.05.17l-.52.06-.52.06c-.7.06-1.41.1-2.11.11h-1.06c-.36.0-.71.0-1.06.0a29.88 29.88.0 0 1-4.22-.54c-1.4-.27-2.74-.65-4-1-.65-.17-1.3-.34-1.94-.49s-1.27-.27-1.9-.38l-.48-.06-.47-.06c-.31.0-.63-.06-.94-.07a13.17 13.17.0 0 0-1.88.06 15.43 15.43.0 0 0-1.88.33l-.47.13-.46.14c-.16.0-.31.11-.47.16l-.23.08-.23.09a14.78 14.78.0 0 0-1.8.86 18.17 18.17.0 0 0-1.82 1.1z" opacity=".27"/></g></svg>