<svg xmlns="http://www.w3.org/2000/svg" viewBox="0 0 1920 340"><defs><style>.cls-1{fill:#c6e9ff;opacity:.44}.cls-2{fill:#d1e7ff}.cls-3{opacity:.8}.cls-4{fill:none}</style></defs><title>contact-cloud01</title><g id="圖層_2" data-name="圖層 2"><g id="首頁"><path class="cls-1" d="M459.09 58.58a5.55 5.55.0 0 0 .09-1 6.12 6.12.0 0 0-8.32-5.72 10 10 0 0 0-18.17 5.72 10.15 10.15.0 0 0 .36 2.65h-.36a6.14 6.14.0 0 0-2.9.72 8.76 8.76.0 0 0-14.22-4.36 5.28 5.28.0 0 0-5.18-6.25 5 5 0 0 0-1 .1 6.84 6.84.0 0 0-11.76-2.71 9.94 9.94.0 0 0-3-5.37 10 10 0 0 0-8.8-14.76 9.8 9.8.0 0 0-3.4.6 6.82 6.82.0 0 0-12.84-2A12.31 12.31.0 0 0 352 39.07a5.46 5.46.0 0 0-3.62 5.14 8 8 0 0 0-7.55 10.61h-.45a8 8 0 0 0-8 8c0 8 8.33 10.1 14.35 10.1H455.58c10.14 1 10.78-6.23 7.87-9.2C461.64 61.86 461.56 59 459.09 58.58z"/><path class="cls-2" d="M340.41 54.38h.45a8.08 8.08.0 0 1-.45-2.61 8 8 0 0 1 8-8A5.46 5.46.0 0 1 352 38.65a12.35 12.35.0 0 1 17.5-12.9 6.82 6.82.0 0 1 12.84 2 9.8 9.8.0 0 1 3.4-.6 10 10 0 0 1 10 10 9.87 9.87.0 0 1-1.2 4.74 10 10 0 0 1 3 5.37A6.84 6.84.0 0 1 409.36 50a5 5 0 0 1 1-.11 5.28 5.28.0 0 1 5.27 5.28 5.33 5.33.0 0 1-.09 1 8.76 8.76.0 0 1 14.22 4.36 6.14 6.14.0 0 1 2.9-.72h.36a10 10 0 0 1 17.81-8.36 6.12 6.12.0 0 1 8.32 5.71 5.58 5.58.0 0 1-.09 1 5.19 5.19.0 0 1 4.36 5.12 5.55 5.55.0 0 1-.07.82c-.44-4.68-3.67-5-6.41-4.14.0-4.93-6-7.75-9.48-3.83-2.37-6.66-13.81-4.66-11.67 7.16-2-2.27-6.78-1.25-7.77 1.88-4-8.94-14.19-4.43-14.19-4.43 2.44-6.34-7.6-11.24-11.8-4.28.52-5-4.57-10.51-12.55-4.32 3.36-5.88-.16-10.34-3.87-9.76 6.45-6.45-5.53-12.79-9.52-6.06-6.38-11.08-19.69-3.27-19.5 5 2.32-.2 4.91.87 7.05 4.12.0.0 6.73-5.4 10.29 2.63a9.1 9.1.0 0 0-10.75 1.07A11 11 0 0 0 351 50.19c-1.88-1.88-8.48-.4-6.48 5.53a14.42 14.42.0 0 0-10.75 2.19A8 8 0 0 1 340.41 54.38z"/><path class="cls-1" d="M439.6 32.54h-.06a5.8 5.8.0 0 0 .06-.6 4.79 4.79.0 0 0-4.79-4.79 4.71 4.71.0 0 0-2.47.7 8 8 0 0 0-14.4 3.49h-.1a4.79 4.79.0 1 0 0 9.58H439.6a4.19 4.19.0 1 0 0-8.37z"/><path class="cls-2" d="M439.6 32.54h-.06a5.8 5.8.0 0 0 .06-.6 4.79 4.79.0 0 0-4.79-4.79 4.71 4.71.0 0 0-2.47.7 8 8 0 0 0-14.4 3.49h-.1a4.8 4.8.0 0 0-2.54.73c1.06-.1 3.3-.08 4.54 1.18.0-6.28 6.82-6.25 8.64-4.56-2.94.63-4.41 3.69-4.41 3.69 2-2.56 6.58-1.69 7.33-.85 1.32-2.52 7-1.5 7 2.89 1.62-1.53 3.84-.57 4.88.27A4.18 4.18.0 0 0 439.6 32.54z"/><g class="cls-3"><path class="cls-1" d="M1662.83 93.06a6.69 6.69.0 0 0-1.86.27 5 5 0 0 0-4.85-3.78A4.91 4.91.0 0 0 1654 90a9.87 9.87.0 0 0-17.68-1.14 6.08 6.08.0 0 0-8.78 5.45v.11a6.69 6.69.0 0 0-1.2-.11 6.08 6.08.0 0 0 0 12.15h36.46a6.71 6.71.0 0 0 0-13.41z"/><path class="cls-2" d="M1669.53 99.76a6.68 6.68.0 0 0-8.56-6.43 5 5 0 0 0-4.85-3.78A4.91 4.91.0 0 0 1654 90a9.87 9.87.0 0 0-17.68-1.14 6.08 6.08.0 0 0-8.78 5.45v.11a6.69 6.69.0 0 0-1.2-.11 6.07 6.07.0 0 0-6.07 6.07c0 .12 3-6 9.32-2.94a7 7 0 0 1 7.12-2.85 8 8 0 0 0-6.16-1.25 5.25 5.25.0 0 1 7.15-1.32c1.85-6.12 11.92-5.75 14.71 1 1.73-2.54 8-.25 7.1 3.35 2.72-2.3 10 .42 9 6.92A6.76 6.76.0 0 0 1669.53 99.76z"/><path class="cls-2" d="M1668.86 119.43h.32c0-.18-.08-.31-.1-.38z"/><path class="cls-2" d="M1655.49 119.43h.07l-.06-.1S1655.49 119.39 1655.49 119.43z"/><path class="cls-2" d="M1755.21 117.52a3.31 3.31.0 0 0 .48-1.75c-.09-2.14-2.72-3.79-4.56-4.43-4.42-1.51-8.43 1.46-8.7 1.65a3.42 3.42.0 0 0-.7-4 4.31 4.31.0 0 0-3.63-1 11.6 11.6.0 0 0 1.43-8.55 12.86 12.86.0 0 0-5.22-7.3c-4.68-3.06-11.59-2.84-17.4.6a10.87 10.87.0 0 0-11.24-5.61 10.11 10.11.0 0 0-8.54 10.74 13.56 13.56.0 0 0-6.88.63 9.25 9.25.0 0 0-4.85 3.47 6.75 6.75.0 0 0-1 3 7.86 7.86.0 0 0-2.39.85c-.07-1.55-.49-5.44-3.57-7.87-4.49-3.56-13.21-2.88-19.92 3.07a8.65 8.65.0 0 0-8-3.33c-2.32.32-5.53 1.78-6.29 4.86a6.34 6.34.0 0 0 2.55 6.49 10.71 10.71.0 0 0-8.19-1.38c-3.68 1-7 4.49-6.57 8.8.66 7.55 4.84 9.49 5.59 10.34H1641c-4.33-3.1-4.19-9.46-3.83-10.55 1.16-3.5 4.93-4.84 5.1-4.89A9.2 9.2.0 0 1 1651 113a5 5 0 0 1 2.9-6.7 5.38 5.38.0 0 1 4.71 1 6.72 6.72.0 0 0-4 4.48 8.87 8.87.0 0 1 12.4.13 6.83 6.83.0 0 0-6.54-4.9c4.95-3.54 10.81-3.77 14-1.25a7.93 7.93.0 0 1 2.71 5.75c3.34-2.58 7.42-2.6 9.84-1.18a7.76 7.76.0 0 1 2.79-7.82 8.94 8.94.0 0 1 5.92-1.36 9.31 9.31.0 0 1 3.9 1.35h-.11c-3.34.9-4.28 4.4-4.33 4.58a9 9 0 0 1 6.29-2.46 6.13 6.13.0 0 1 .62.0 3.46 3.46.0 0 1 .26.34c0-.11-.1-.22-.16-.33a8.8 8.8.0 0 1 5.38 2.55 6.87 6.87.0 0 0-6.13-4.9 6.85 6.85.0 0 1 1.63-5.87 7.62 7.62.0 0 1 4.43-2.21c4.08-.49 6.85 2.65 7.17 3a8.16 8.16.0 0 1 1.74 6.57 7.08 7.08.0 0 0 2.31-4.21 6.66 6.66.0 0 0-.61-3.73c.87-.15 6.82-1 11.12 2.59 3.23 2.71 3.93 6.58 4.23 8.25a16 16 0 0 1 .22 3.7 5.4 5.4.0 0 1 6.06.53 4.46 4.46.0 0 1 .85 5.87c4.83-3.81 10.23-4.56 12.87-2.52a5.07 5.07.0 0 1 1.82 3.19"/><path class="cls-2" d="M1755 117.89a6.21 6.21.0 0 1-.91 1A5.15 5.15.0 0 0 1755 117.89z"/><path class="cls-1" d="M1754.92 116.53a4.7 4.7.0 0 0-1.53-2.2c-2.64-2-8-1.29-12.87 2.52a4.45 4.45.0 0 0-.85-5.87 5.4 5.4.0 0 0-6.06-.53 16 16 0 0 0-.22-3.7c-.3-1.67-1-5.54-4.23-8.25-4.3-3.61-10.25-2.74-11.12-2.59a6.66 6.66.0 0 1 .61 3.73 7.08 7.08.0 0 1-2.31 4.21 8.16 8.16.0 0 0-1.74-6.57c-.32-.38-3.09-3.52-7.17-3a7.62 7.62.0 0 0-4.43 2.21 6.85 6.85.0 0 0-1.63 5.87 6.87 6.87.0 0 1 6.13 4.9 8.8 8.8.0 0 0-5.38-2.55 3.54 3.54.0 0 1 .16.34 2.48 2.48.0 0 0-.26-.35 6.13 6.13.0 0 0-.62.0 9 9 0 0 0-6.29 2.46c.05-.18 1-3.68 4.33-4.58h.11a9.31 9.31.0 0 0-3.9-1.35 8.94 8.94.0 0 0-5.92 1.36 7.73 7.73.0 0 0-2.78 7.82c-2.43-1.42-6.51-1.4-9.85 1.18a7.93 7.93.0 0 0-2.71-5.75c-3.16-2.52-9-2.29-14 1.25a6.83 6.83.0 0 1 6.54 4.9 8.87 8.87.0 0 0-12.4-.13 6.72 6.72.0 0 1 4-4.48 5.38 5.38.0 0 0-4.71-1 5 5 0 0 0-2.9 6.7 9.2 9.2.0 0 0-8.72-1.63c-.17.0-3.94 1.39-5.1 4.89.0.0-2.67 7.76 3.83 10.55h110.23S1758.9 123.56 1754.92 116.53z"/></g><path class="cls-4" d="M0 0h1920v340H0z"/></g></g></svg>