<svg xmlns="http://www.w3.org/2000/svg" viewBox="0 0 18.47 11.81"><defs><style>.cls-1{fill:#fff;opacity:.3}</style></defs><title>contact-fishs01</title><g id="圖層_2" data-name="圖層 2"><g id="聯絡"><path class="cls-1" d="M18.3 7c-.11-.15.0-.22.08-.34.18-.29.0-.49-.13-.75s.09-.29.17-.42a.38.38.0 0 0 0-.42c-.16-.2-.37-.27-.31-.57a.81.81.0 0 0 0-.51c-.17-.38-.93-.49-1.14-.13a.27.27.0 0 0-.08.07c-.33.22-.62.52-.94.73A2 2 0 0 1 14.37 5 1.42 1.42.0 0 1 14 4.84a.41.41.0 0 0 0-.46 1 1 0 0 1-.1-.16A.71.71.0 0 0 14 3.8a.46.46.0 0 0-.28-.33c-.08.0-.18-.07-.19-.18a1.23 1.23.0 0 1 0-.27.4.4.0 0 0-.24-.41c-.21-.1-.52.08-.59-.2a.69.69.0 0 0-.3-.49.74.74.0 0 0-.78.06 6.67 6.67.0 0 0-1.18.7l-.82-.35a.92.92.0 0 0 .27-.81 1.57 1.57.0 0 1-.22-.45 1.15 1.15.0 0 0 0-.26C9.6.61 9.31.56 9.13.55S8.8.22 8.59.14a.67.67.0 0 0-.37.0 1.4 1.4.0 0 0-.17.09c-.17.08-.19.0-.27-.11A.56.56.0 0 0 7.16.05a2 2 0 0 0-.69.47A5.27 5.27.0 0 0 6 1a6.77 6.77.0 0 1-1.3 1h0A8 8 0 0 0 1.52 3.77C.52 4.72-.32 6 .12 7.43a2.73 2.73.0 0 0 1 1.35A10.14 10.14.0 0 0 3.22 9.93a8 8 0 0 0 2.42.53h.14c.21.18.46.34.68.53a7.94 7.94.0 0 0 .72.58 1.22 1.22.0 0 0 .67.22.5.5.0 0 0 .26-.08.35.35.0 0 0 .11-.1c.08-.06.15.0.22.0a.3.3.0 0 0 .42-.1c.05-.07.0-.27.11-.3a.26.26.0 0 0 .19-.12A.49.49.0 0 0 9 10.56l-.22-.19c.47-.06.84-.12 1-.16h0a11.15 11.15.0 0 1 1.19.73c.29.19.62.53 1 .37a.73.73.0 0 0 .16-.14c.07-.07.18.05.23.09a.4.4.0 0 0 .41.0c.15-.09.17-.33.36-.34s.32.05.46.0a.55.55.0 0 0 .24-.35c0-.12.0-.09.17-.07a.62.62.0 0 0 .23.0.34.34.0 0 0 .29-.28c0-.06.0-.19.07-.19a.32.32.0 0 0 .17.0A.33.33.0 0 0 15 9.64a1.51 1.51.0 0 1 0-.3.94.94.0 0 0 0-.29 1 1 0 0 0-.38-.67 1.42 1.42.0 0 1 .29.0c.17.0.35.0.52.0a3.71 3.71.0 0 1 .4.15 2.8 2.8.0 0 1 .6.44 1.28 1.28.0 0 0 .6.31.51.51.0 0 0 .57-.21A.46.46.0 0 0 17.83 9c.17-.13.13-.34.11-.51s.27-.29.32-.45-.11-.43.0-.57a.29.29.0 0 0 .09-.32A.36.36.0 0 0 18.3 7zm-4 1.52h-.1.07z"/></g></g></svg>