<svg xmlns="http://www.w3.org/2000/svg" viewBox="0 0 1920 340"><defs><style>.cls-1{fill:#c6e9ff;opacity:.44}.cls-2{fill:#d1e7ff}.cls-3{opacity:.8}.cls-4{fill:#fff}.cls-5{fill:none}</style></defs><title>contact-cloud02</title><g id="圖層_2" data-name="圖層 2"><g id="聯絡"><path class="cls-1" d="M955.57 107.88a4.14 4.14.0 0 1 2.13.58c0-.15.0-.3.0-.45a7 7 0 0 1 5.45-7 5.47 5.47.0 0 1-.12-1.15 5.83 5.83.0 0 1 9-4.9 11.91 11.91.0 0 1 21.52 5.89 8.67 8.67.0 0 1 4-1.81 4.48 4.48.0 0 1 4.35-3.42 4.58 4.58.0 0 1 1.74.35 5.46 5.46.0 0 1 4.47-2.32 5.19 5.19.0 0 1 1.32.18 11 11 0 0 1 21.4-.7 5.7 5.7.0 0 1 1.65-.27 5.81 5.81.0 0 1 5.8 5.79 8.94 8.94.0 0 1-2.44 17.56h-79.75a3.27 3.27.0 0 1-.54.0 4.18 4.18.0 0 1 0-8.35z"/><path class="cls-2" d="M955.57 107.88a4.14 4.14.0 0 1 2.13.58c0-.15.0-.3.0-.45a7 7 0 0 1 5.45-7 5.47 5.47.0 0 1-.12-1.15 5.83 5.83.0 0 1 9-4.9 11.9 11.9.0 0 1 21.52 5.9 8.69 8.69.0 0 1 4-1.82 4.48 4.48.0 0 1 4.35-3.42 4.58 4.58.0 0 1 1.74.35 5.46 5.46.0 0 1 4.47-2.32 5.19 5.19.0 0 1 1.32.18 11 11 0 0 1 21.4-.7 5.7 5.7.0 0 1 1.65-.27 5.81 5.81.0 0 1 5.8 5.79 9 9 0 0 1 6.37 6.88c-.08-.15-.16-.3-.25-.45a10.28 10.28.0 0 0-5.32-4.6 6.39 6.39.0 0 0-3.74-.14c-.32-2.85-4.25-4.93-6.53-3.2 1.34-4.78-5.44-8.25-9.41-8-3.45.19-6.48 2-7.55 5.23a6.05 6.05.0 0 1 8.41 3.48s6.13-1.48 8 4.69c0 0-3.66-4.28-8.26-1.87.0.0-2.62-4.44-8.23-.93l-.07-.23c-1.27-3.9-7.74-2.93-7.23 1.35-1.21-1.21-4.85-.45-5.3 2.49a3.23 3.23.0 0 0-3.37-1.1c-2.35.44-3.58 2.69-4.19 4.24.0.0-3.68-5-8.81-.93a6.65 6.65.0 0 1 1.25-1.75 8.34 8.34.0 0 1 7.37-2.67c-.66-3.09-3.3-5.42-8.35-5.79A9.5 9.5.0 0 0 976 97.71a8.27 8.27.0 0 1 8.47 2.74s-6.18-3.32-10.43 1.27c-.93-6-10-3.9-8.64 2.3-2.39-2.48-7.39-.58-7 6.15a5 5 0 0 0-3.19-2.14l-.25-.1A4.62 4.62.0 0 1 955.57 107.88z"/><g class="cls-3"><path class="cls-1" d="M197.75 238.88a3.71 3.71.0 0 0-3.48-2.46 3.87 3.87.0 0 0-.49.05 4.25 4.25.0 0 0-4.16-3.36 4.12 4.12.0 0 0-.86.09 6.42 6.42.0 0 0-11.64-2.62 8.19 8.19.0 0 0-11.18 2.7 4.33 4.33.0 0 0-.87.25 5 5 0 0 0-4.1-2.13 4.84 4.84.0 0 0-1.21.17 10.08 10.08.0 0 0-19.62-.65 5.49 5.49.0 0 0-1.52-.24 5.31 5.31.0 0 0-5.31 5.31 8.2 8.2.0 0 0 2.23 16.1h59.28.41.42.0a6.84 6.84.0 0 0 2.09-13.19z"/><path class="cls-4" d="M196.49 240.56a2.1 2.1.0 0 0-.21.55A1.28 1.28.0 0 0 196.49 240.56z"/><path class="cls-2" d="M197.75 238.88a3.71 3.71.0 0 0-3.48-2.46 3.87 3.87.0 0 0-.49.05 4.25 4.25.0 0 0-4.16-3.36 4.12 4.12.0 0 0-.86.09 6.42 6.42.0 0 0-11.64-2.62 8.18 8.18.0 0 0-11.17 2.7 4.24 4.24.0 0 0-.88.25 5 5 0 0 0-4.1-2.13 4.84 4.84.0 0 0-1.21.17 10.08 10.08.0 0 0-19.62-.65 5.49 5.49.0 0 0-1.52-.24 5.31 5.31.0 0 0-5.31 5.31 8.21 8.21.0 0 0-5.84 6.31c.07-.14.14-.28.22-.42a9.57 9.57.0 0 1 4.89-4.22 5.82 5.82.0 0 1 3.42-.12c.3-2.62 3.9-4.52 6-2.93-1.23-4.39 5-7.57 8.62-7.37 3.17.17 5.95 1.85 6.93 4.8a5.55 5.55.0 0 0-7.71 3.19s-5.62-1.36-7.36 4.3c0 0 3.37-3.93 7.58-1.71.0.0 2.4-4.07 7.54-.86l.07-.21c1.17-3.58 7.1-2.68 6.63 1.24.85-2.41 5.56-1.14 5.21 1.69 1.09-1.82 5.83-.73 6.89.82a7.92 7.92.0 0 0-5.74-4.15 4.14 4.14.0 0 0-.79-1.6c2.86-1.56 6.77-1.33 8 .08.59-2 6.58-3.45 8.83.0 1.45-1.23 6-.18 5.25 3.65 2-2.12 4.82.36 4.55 2.12a2.22 2.22.0 0 1 2.87-.77A6.89 6.89.0 0 0 197.75 238.88z"/></g><path class="cls-5" d="M0 0h1920v340H0z"/></g></g></svg>