<svg xmlns="http://www.w3.org/2000/svg" viewBox="0 0 74.85 53.55"><defs><style>.cls-1{fill:#fff}.cls-2{fill:#4d3224}.cls-3{fill:#f1d4c2}</style></defs><title>資產 236</title><g id="圖層_2" data-name="圖層 2"><g id="聯絡"><rect class="cls-1" width="74.85" height="27.07" rx="13.54" ry="13.54"/><path class="cls-2" d="M24.93 6.45A28.32 28.32.0 0 1 23.29 10V21.69H21.24V13.16c-.36.42-.72.85-1.06 1.23a13.67 13.67.0 0 0-1.13-2.17A17.78 17.78.0 0 0 23 5.83zm5.41 4v1.8h4.42v1.84H30.34V16H35v1.88H30.34v3.79H28.26V10.47h-.65a19.18 19.18.0 0 1-2.24 3.32 13.2 13.2.0 0 0-1.55-1.42 17.06 17.06.0 0 0 3.62-6.44l2 .5a19.06 19.06.0 0 1-.84 2.12h6.63v1.92z"/><path class="cls-2" d="M38.66 14h6.5v7.59h-2v-.76H40.59v.85H38.66zM40.59 16v2.94h2.54V16zM51 12.61H41V6.43H51zM49 8.37H43v2.31h6zM53.32 14v7.61h-2v-.78H48.56v.85h-2V14zm-2 4.88V16H48.56v2.94z"/><path class="cls-3" d="M24.54 38.75s.09.0.12-.07a.73.73.0 0 1 .49-.77c1.81-.69 5.81-.69 6 1.92a.72.72.0 0 1-.54.69A7.53 7.53.0 0 1 24.54 40a.73.73.0 0 1 0-1.25z"/><path class="cls-3" d="M23.3 41.69a14 14 0 0 1 1.71.06.74.74.0 0 1 .7.53.71.71.0 0 1-.33.81 4.23 4.23.0 0 1-1.83.3.6.6.0 0 1-.61-.34A.74.74.0 0 1 23.3 41.69z"/><path class="cls-3" d="M13.69 39.05l.12-.06a.75.75.0 0 1 .48-.78c1.81-.69 5.82-.68 6 1.92a.73.73.0 0 1-.53.7 7.56 7.56.0 0 1-6-.53A.73.73.0 0 1 13.69 39.05z"/><path class="cls-3" d="M12.44 42a12.31 12.31.0 0 1 1.72.06.75.75.0 0 1 .7.53.72.72.0 0 1-.34.81 4.47 4.47.0 0 1-1.82.3.64.64.0 0 1-.62-.34A.74.74.0 0 1 12.44 42z"/><path class="cls-3" d="M12.46 48.41l.12-.06a.74.74.0 0 1 .48-.78c1.81-.69 5.81-.68 6 1.92a.74.74.0 0 1-.53.7 7.56 7.56.0 0 1-6.05-.53A.73.73.0 0 1 12.46 48.41z"/><path class="cls-3" d="M11.21 51.36a12.36 12.36.0 0 1 1.72.06.73.73.0 0 1 .69.53.7.7.0 0 1-.33.81 4.53 4.53.0 0 1-1.82.3.63.63.0 0 1-.62-.34A.74.74.0 0 1 11.21 51.36z"/><path class="cls-3" d="M2.51 48.91l.12-.07a.75.75.0 0 1 .49-.78c1.81-.68 5.81-.68 6 1.93a.72.72.0 0 1-.54.69 7.57 7.57.0 0 1-6.05-.53A.73.73.0 0 1 2.51 48.91z"/><path class="cls-3" d="M1.27 51.85A12.22 12.22.0 0 1 3 51.91a.74.74.0 0 1 .7.53.71.71.0 0 1-.33.81 4.38 4.38.0 0 1-1.83.3.61.61.0 0 1-.61-.34A.74.74.0 0 1 1.27 51.85z"/></g></g></svg>