<svg xmlns="http://www.w3.org/2000/svg" viewBox="0 0 78.89 55.12"><defs><style>.cls-1,.cls-3{fill:#fff}.cls-2{fill:#4d3224}.cls-3{opacity:.5}.cls-4,.cls-5{fill:none;stroke:#fff;stroke-miterlimit:10}.cls-4{stroke-width:.14px}.cls-5{stroke-width:.25px}</style></defs><title>contact-skills-title</title><g id="圖層_2" data-name="圖層 2"><g id="聯絡"><rect class="cls-1" width="78.89" height="28.54" rx="14.27" ry="14.27"/><path class="cls-2" d="M26.52 15.68c-.63.18-1.27.36-1.92.52v4.31c0 1-.2 1.55-.81 1.89a6.07 6.07.0 0 1-2.72.38 9.51 9.51.0 0 0-.61-2c.7.0 1.44.0 1.67.0s.34-.09.34-.36V16.78l-1.74.43-.56-2c.66-.13 1.44-.31 2.3-.52V11.47H20.4v-2h2.07V6.07H24.6V9.49h1.76v2H24.6v2.66l1.65-.41zm10-2.43a13.16 13.16.0 0 1-3.35 6 12.23 12.23.0 0 0 4.16 1.82 9.34 9.34.0 0 0-1.37 1.85 12.79 12.79.0 0 1-4.48-2.27 16.39 16.39.0 0 1-4.74 2.22 8.48 8.48.0 0 0-1.15-2 13.71 13.71.0 0 0 4.3-1.76 14.15 14.15.0 0 1-2.55-4.29l.54-.16h-.94V12.76h3.55V10.6H26.6v-2h3.87V6.05h2.12V8.62h4v2h-4v2.16h2.16l.38-.08zm-7.09 1.44a10.22 10.22.0 0 0 2.12 3.19 9.92 9.92.0 0 0 2.25-3.19z"/><path class="cls-2" d="M48 20.9c0 .89-.16 1.34-.76 1.62a6.17 6.17.0 0 1-2.48.31 5.91 5.91.0 0 0-.65-1.67c.65.0 1.35.0 1.57.0s.3-.07.3-.3V19.05c-.9.65-1.8 1.26-2.61 1.78l-.45-1.26A7.91 7.91.0 0 1 41.62 23a8.08 8.08.0 0 0-1.49-1.44 9.07 9.07.0 0 0 1-5v-4H48zM47 7.4a39.64 39.64.0 0 1 2.15 4.14l-1.88.76c-.11-.33-.27-.71-.45-1.14-4.55.45-5.29.56-5.81.78-.11-.42-.45-1.39-.67-1.93a2.06 2.06.0 0 0 1-.72 15.46 15.46.0 0 0 2.13-3.2l2.16.61a21.06 21.06.0 0 1-2.22 3L46 9.49c-.27-.52-.52-1-.76-1.46zm-3.83 9.18A21.45 21.45.0 0 1 43 18.89c.81-.36 1.87-.9 3-1.48v-.59l-.86.84c-.45-.47-1.28-1.17-2-1.73zm0-2.27v1.28l.9-.77c.61.43 1.38 1.06 1.92 1.53v-2zM52 14c-2.16.0-2.74-.79-2.74-2.79V6.1h2.13V8.23h4.43v1.83H51.42v1.19c0 .67.11.92.68.92h2.63A9.35 9.35.0 0 0 56.39 12c0 .56.13 1.33.2 1.81a7 7 0 0 1-1.82.17zm2.27 6.88c.61.0.74-.31.83-2A5.86 5.86.0 0 0 57 19.7c-.21 2.36-.77 3.06-2.48 3.06H51.94c-2.12.0-2.65-.63-2.65-2.59V14.51h2.13v1.8H56V18.2H51.42v2c0 .63.13.72.83.72z"/><path class="cls-3" d="M71.23 49.15a3 3 0 0 1 2.13 3.78 3.13 3.13.0 0 1-3.93 2 3.06 3.06.0 0 1-2.14-3.79A3.14 3.14.0 0 1 71.23 49.15z"/><path class="cls-1" d="M69.83 49.59a.45.45.0 1 1-.27.85.44.44.0 0 1-.31-.56A.47.47.0 0 1 69.83 49.59z"/><path class="cls-1" d="M69.14 54l-.15-.1-.18-.13-.2-.19a1.32 1.32.0 0 1-.21-.25 2.46 2.46.0 0 1-.19-.32 2 2 0 0 1-.14-.37c0-.13.0-.27-.06-.4a2.73 2.73.0 0 1 0-.41 2.11 2.11.0 0 1 .1-.38 2.16 2.16.0 0 1 .16-.34 2.53 2.53.0 0 1 .18-.27l.18-.21a1.77 1.77.0 0 1 .17-.14l.14-.13h0l-.17.1a1.58 1.58.0 0 0-.18.13l-.21.2c-.07.07-.13.18-.21.28a1.87 1.87.0 0 0-.16.35 1.68 1.68.0 0 0-.11.4 3.09 3.09.0 0 0 0 .43 2.61 2.61.0 0 0 .08.42 2.15 2.15.0 0 0 .15.38 1.27 1.27.0 0 0 .21.32 1.86 1.86.0 0 0 .22.25l.21.19.19.11.16.1z"/><path class="cls-4" d="M71.23 49.15a3 3 0 0 1 2.13 3.78 3.13 3.13.0 0 1-3.93 2 3.06 3.06.0 0 1-2.14-3.79A3.14 3.14.0 0 1 71.23 49.15z"/><path class="cls-3" d="M61.62 39a5.54 5.54.0 0 1 2.32 7.62 5.87 5.87.0 0 1-8 1.67 5.57 5.57.0 0 1-2.32-7.63A5.86 5.86.0 0 1 61.62 39z"/><path class="cls-1" d="M58.9 39.12a.82.82.0 0 1 .34 1.12.85.85.0 0 1-1.18.25.82.82.0 0 1-.34-1.13A.87.87.0 0 1 58.9 39.12z"/><path class="cls-1" d="M55.81 46.56l-.25-.24L55.3 46c-.09-.13-.2-.27-.29-.43a2.2 2.2.0 0 1-.15-.26 2.39 2.39.0 0 1-.13-.28 2.85 2.85.0 0 1-.12-.31 3.37 3.37.0 0 1-.09-.34 3.29 3.29.0 0 1-.09-.71 3.69 3.69.0 0 1 0-.74 3.35 3.35.0 0 1 .22-.7c0-.11.1-.22.16-.33a2.82 2.82.0 0 1 .18-.29 1.57 1.57.0 0 1 .21-.28 1.21 1.21.0 0 1 .21-.24 2.75 2.75.0 0 1 .45-.4 3.19 3.19.0 0 1 .42-.29c.13-.08.25-.13.35-.18L57 40.1v0l-.35.09-.38.14a3.72 3.72.0 0 0-.46.26 3.4 3.4.0 0 0-.5.39 1.47 1.47.0 0 0-.23.26 1.42 1.42.0 0 0-.22.28 2.07 2.07.0 0 0-.19.32 2.21 2.21.0 0 0-.16.35 4.88 4.88.0 0 0-.2.75 4.07 4.07.0 0 0 0 .78 3.48 3.48.0 0 0 .12.73 3.38 3.38.0 0 0 .11.34 1.79 1.79.0 0 0 .13.32 1.51 1.51.0 0 0 .15.28 3 3 0 0 0 .15.26c.11.16.22.3.32.42a4 4 0 0 0 .28.29l.26.24z"/><path class="cls-5" d="M61.62 39a5.54 5.54.0 0 1 2.32 7.62 5.87 5.87.0 0 1-8 1.67 5.57 5.57.0 0 1-2.32-7.63A5.86 5.86.0 0 1 61.62 39z"/></g></g></svg>