<svg xmlns="http://www.w3.org/2000/svg" viewBox="0 0 73.3 56.18"><defs><style>.cls-1{fill:#fff}.cls-2{fill:#4d3224}.cls-3{fill:#f1d4c2}</style></defs><title>資產 237</title><g id="圖層_2" data-name="圖層 2"><g id="聯絡"><rect class="cls-1" width="72.24" height="26.13" rx="13.07" ry="13.07"/><path class="cls-2" d="M25.52 14a15.48 15.48.0 0 1 .69 1.82l-.65.23h.24v1.58a3 3 0 0 1-2.4 3.25 4.36 4.36.0 0 0-.84-1.09 2.62 2.62.0 0 0 1.59-1H22.29V16.33h1.19v1.4h1V16.05h.72c0-.12-.06-.27-.1-.41a14.45 14.45.0 0 0-2.91.47h0c-.05-.23-.22-.79-.33-1.09a2 2 0 0 0 .85-.45 5.76 5.76.0 0 0 .71-.61 4.24 4.24.0 0 0-1.17.2h0A7.17 7.17.0 0 0 21.85 13a1 1 0 0 0 .54-.3 4.5 4.5.0 0 0 1-1.17H21.19V21H19.31V6.19h6.36v5.36H24l.61.33a9.46 9.46.0 0 1-1.14 1.22h.86c.21-.24.41-.51.61-.75l.95.66a16.22 16.22.0 0 1-2.14 1.91l1-.1a4.81 4.81.0 0 0-.2-.53zM21.19 7.51v.78h2.64V7.51zm0 2.72h2.64V9.47H21.19zm12 8.47c0 .94-.13 1.48-.69 1.81a4.83 4.83.0 0 1-2.42.37 7.25 7.25.0 0 0-.41-1.6h-.79v-.46h-1v1.92H26.56V16.05h0c-.08-.27-.23-.74-.34-1a1.77 1.77.0 0 0 .87-.45 8.8 8.8.0 0 0 .69-.61 3.85 3.85.0 0 0-1.17.2 6.53 6.53.0 0 0-.39-1.12 1.13 1.13.0 0 0 .54-.3 5.88 5.88.0 0 0 1-1.2h-1V6.19h6.47zM30.17 19a6.32 6.32.0 0 0 .89.0c.21.0.28-.08.28-.3V11.55h-3l.64.34a9.09 9.09.0 0 1-1.1 1.21h.8a8.16 8.16.0 0 0 .68-.79l.94.68a20.69 20.69.0 0 1-2.13 2l1-.1c-.08-.18-.15-.36-.23-.53l.92-.29a14.5 14.5.0 0 1 .77 1.81l-1 .38c-.05-.15-.11-.35-.16-.54a26 26 0 0 0-2.69.41h1.09v1.68h1v-1.4h1.25zM28.62 7.51v.78h2.72V7.51zm0 2.72h2.72V9.47H28.62z"/><path class="cls-2" d="M43.46 11.73s0 .54.0.77c-.1 4.95-.21 6.81-.64 7.39a1.52 1.52.0 0 1-1.07.71 10.41 10.41.0 0 1-1.67.06 4.73 4.73.0 0 0-.49-1.76c.48.0.89.05 1.13.05a.54.54.0 0 0 .47-.25c.21-.33.33-1.63.39-5.19h-1.5c-.22 3.08-.73 5.62-2.14 7.42a5.84 5.84.0 0 0-1.42-1.47c1.61-2.11 1.73-5.36 1.76-9.53H37V8.12h2.9a10.9 10.9.0 0 0-1.06-2l1.75-.66a10.27 10.27.0 0 1 1.25 2.21l-1.05.43h3.09V9.93H40.19c0 .63.0 1.21.0 1.8zM49 6a11.28 11.28.0 0 1-.39 1.16 10.39 10.39.0 0 0 3.72 4 8 8 0 0 0-1.4 1.55A12.11 12.11.0 0 1 47.74 9a11.06 11.06.0 0 1-3.33 3.84 6.3 6.3.0 0 0-1.35-1.55 10 10 0 0 0 4.12-5.84zM45.93 16.23a30.85 30.85.0 0 1 4.74 2.92l-1.36 1.68a27.26 27.26.0 0 0-4.62-3.15zm2.67-.68a21.49 21.49.0 0 0-2.8-2.39l1.25-1.27A21.83 21.83.0 0 1 50 14.15z"/><path class="cls-3" d="M49.33 41.38l-.12-.06a.75.75.0 0 0-.49-.78c-1.81-.69-5.81-.68-6 1.92a.71.71.0 0 0 .53.7 7.61 7.61.0 0 0 6-.53A.73.73.0 0 0 49.33 41.38z"/><path class="cls-3" d="M50.57 44.33a12.21 12.21.0 0 0-1.71.05.75.75.0 0 0-.7.53.72.72.0 0 0 .33.82 4.37 4.37.0 0 0 1.83.29.59.59.0 0 0 .61-.34A.73.73.0 0 0 50.57 44.33z"/><path class="cls-3" d="M60.18 41.69l-.12-.07a.75.75.0 0 0-.48-.78c-1.81-.68-5.81-.68-6 1.93a.73.73.0 0 0 .53.69 7.56 7.56.0 0 0 6-.53A.72.72.0 0 0 60.18 41.69z"/><path class="cls-3" d="M61.43 44.63a12.31 12.31.0 0 0-1.72.06.76.76.0 0 0-.7.53.72.72.0 0 0 .34.81 4.33 4.33.0 0 0 1.82.3.63.63.0 0 0 .62-.34A.74.74.0 0 0 61.43 44.63z"/><path class="cls-3" d="M61.41 51.05A.67.67.0 0 0 61.3 51a.75.75.0 0 0-.49-.78c-1.81-.68-5.81-.68-6 1.93a.73.73.0 0 0 .53.69 7.56 7.56.0 0 0 6-.53A.72.72.0 0 0 61.41 51.05z"/><path class="cls-3" d="M62.66 54a12.36 12.36.0 0 0-1.72.06.74.74.0 0 0-.69.53.71.71.0 0 0 .33.81 4.36 4.36.0 0 0 1.82.3.63.63.0 0 0 .62-.34A.74.74.0 0 0 62.66 54z"/><path class="cls-3" d="M71.36 51.54l-.12-.07a.74.74.0 0 0-.49-.77c-1.81-.69-5.81-.69-6 1.92a.7.7.0 0 0 .53.69 7.53 7.53.0 0 0 6-.53A.73.73.0 0 0 71.36 51.54z"/><path class="cls-3" d="M72.6 54.49a12.21 12.21.0 0 0-1.71.0.75.75.0 0 0-.7.53.72.72.0 0 0 .33.82 4.37 4.37.0 0 0 1.83.29.59.59.0 0 0 .61-.34A.73.73.0 0 0 72.6 54.49z"/></g></g></svg>