<svg xmlns="http://www.w3.org/2000/svg" viewBox="0 0 68.2 106.87"><defs><style>.cls-1{fill:none}.cls-1,.cls-11,.cls-13,.cls-14,.cls-15,.cls-16,.cls-5,.cls-6,.cls-7{stroke:#4d3224;stroke-linecap:round;stroke-linejoin:round}.cls-2{fill:#af7d5a}.cls-3{fill:#735b4a}.cls-4{fill:#426ad3}.cls-5{fill:#f89972}.cls-6{fill:#9ec289}.cls-7{fill:#c1997e}.cls-8{fill:#ebc1ac}.cls-9{fill:#fff;opacity:.24}.cls-10{fill:#ed7c4e}.cls-11{fill:#82bcc5}.cls-12,.cls-16{fill:#4d3224}.cls-13{fill:#f6be8f}.cls-14{fill:#9e5d4e}.cls-15{fill:#ffe7e4}.cls-17{fill:#ba8e70}.cls-18{fill:#9e795f}.cls-19{fill:#d7bead}</style></defs><title>contact-hitballoon02_1</title><g id="圖層_2" data-name="圖層 2"><g id="聯絡"><path class="cls-1" d="M21.58 61.17 18.32 82.3z"/><path class="cls-1" d="M46.51 61.27 49.58 82.03z"/><path class="cls-2" d="M31 74.78 17.43 82.6V96.05l17.16-6.69h0l16.24 5.37V82.6L37.29 74.78A6.31 6.31.0 0 0 31 74.78z"/><path class="cls-3" d="M31 76 17.43 83.78V96.23l17.69 4.7L40 98.09l10.88-2.93V83.77L37.29 76A6.31 6.31.0 0 0 31 76z"/><ellipse class="cls-4" cx="34.12" cy="63.66" rx="15.32" ry="7.34"/><path class="cls-5" d="M34.42.5C15.72.5.82 14 .5 30.61A27 27 0 0 0 3 42.42c2.53 6.9 13.67 18 14.83 19.14 2.17 3.5 8.42 6 16.43 6 7.58.0 14-2.29 16.56-5.5h0S67 44.38 67.58 32.67h0c.07-.68.12-1.36.13-2.06C68 14 53.11.5 34.42.5z"/><path class="cls-6" d="M41.91 10.94s19.09 7.5 14 27.24S46.78 67.6 46.78 67.6l1.08-.38S59.72 49.44 63.14 36.83a23.59 23.59.0 0 0 .9-5.38C64.63 13 44.52 7.93 44.52 7.93z"/><path class="cls-6" d="M25.14 10.94S7.86 18.44 12.91 38.18 22.85 67.6 22.85 67.6l-2.11-.38S4.94 43.53 4.56 31.45C4 13 24 7.8 24 7.8z"/><path class="cls-7" d="M49.75 83.68l-12.4 6.9a7.54 7.54.0 0 1-6.48.0l-12.36-6.9c-.67-.39-.94-.69-1.08-1.08V96.5h0a2.15 2.15.0 0 0 1.08 1.87l12.34 7.13a6.57 6.57.0 0 0 6.56.0l12.34-7.13a2.15 2.15.0 0 0 1.08-1.87h0v-14C50.83 82.78 50.42 83.29 49.75 83.68z"/><path class="cls-1" d="M34.12 67.05v7z"/><path class="cls-8" d="M34.79 98.74a6.35 6.35.0 0 1-1.88-.3.26.26.0 0 1 .16-.5 5.53 5.53.0 0 0 1.94.28.26.26.0 0 1 .27.25.27.27.0 0 1-.25.27zm1-.1a.27.27.0 0 1-.26-.21.26.26.0 0 1 .2-.3 4.09 4.09.0 0 0 1.35-.55l.44-.27a.26.26.0 0 1 .35.09.25.25.0 0 1-.08.35l-.43.27a4.67 4.67.0 0 1-1.52.61zm-3.53-.46h-.1a7.71 7.71.0 0 1-.93-.49l-.9-.52a.25.25.0 0 1-.1-.35.26.26.0 0 1 .35-.1l.93.53a5.12 5.12.0 0 0 .86.45.26.26.0 0 1 .13.34A.26.26.0 0 1 32.26 98.18zm6.05-.79a.26.26.0 0 1-.22-.13.25.25.0 0 1 .09-.35l1.75-1.08a.26.26.0 0 1 .36.08.27.27.0 0 1-.09.36l-1.75 1.08A.37.37.0 0 1 38.31 97.39zm-8.53-.59a.27.27.0 0 1-.12.0l-1.8-1a.27.27.0 0 1-.09-.36.26.26.0 0 1 .35-.09l1.79 1a.26.26.0 0 1 .1.35A.26.26.0 0 1 29.78 96.8zm10.94-.9a.26.26.0 0 1-.13-.48l1.75-1.08a.26.26.0 0 1 .36.08.27.27.0 0 1-.08.36l-1.76 1.08A.23.23.0 0 1 40.72 95.9zm-13.4-.5a.33.33.0 0 1-.13.0l-1.79-1a.26.26.0 0 1-.09-.35.25.25.0 0 1 .35-.1l1.79 1a.27.27.0 0 1 .1.36A.28.28.0 0 1 27.32 95.4zm15.82-1a.25.25.0 0 1-.22-.12.26.26.0 0 1 .08-.36l1.76-1.08a.26.26.0 0 1 .35.08.26.26.0 0 1-.08.36l-1.76 1.08A.22.22.0 0 1 43.14 94.41zM24.86 94a.22.22.0 0 1-.13.0l-1.79-1a.26.26.0 0 1-.1-.35.27.27.0 0 1 .36-.1l1.79 1a.26.26.0 0 1 .09.35A.25.25.0 0 1 24.86 94zm20.69-1.07a.26.26.0 0 1-.22-.12.27.27.0 0 1 .09-.36l1.75-1.08a.27.27.0 0 1 .36.09.26.26.0 0 1-.09.35l-1.75 1.08A.23.23.0 0 1 45.55 92.92zM22.4 92.58a.28.28.0 0 1-.13.0l-1.79-1a.25.25.0 1 1 .25-.44l1.8 1a.26.26.0 0 1 .09.35A.24.24.0 0 1 22.4 92.58zM48 91.43a.25.25.0 0 1-.22-.12.25.25.0 0 1 .08-.35l1.76-1.09a.26.26.0 0 1 .35.09.25.25.0 0 1-.08.35L48.1 91.4A.31.31.0 0 1 48 91.43zm-28-.26a.27.27.0 0 1-.12.0l-1.79-1a.26.26.0 1 1 .25-.45l1.79 1a.26.26.0 0 1 .1.36A.27.27.0 0 1 19.93 91.17z"/><path class="cls-8" d="M35 101.61a6.43 6.43.0 0 1-1.88-.31.26.26.0 1 1 .16-.49 5.56 5.56.0 0 0 1.94.28.26.26.0 1 1 0 .51zm1-.11a.25.25.0 0 1-.25-.2.26.26.0 0 1 .2-.31 4.25 4.25.0 0 0 1.35-.54l.43-.27a.26.26.0 0 1 .35.08.26.26.0 0 1-.08.36l-.43.26a4.69 4.69.0 0 1-1.52.62zM32.44 101a.22.22.0 0 1-.11.0 5.81 5.81.0 0 1-.92-.48L30.5 1e2a.26.26.0 0 1-.1-.35.25.25.0 0 1 .35-.1l.93.53a7 7 0 0 0 .86.45.26.26.0 0 1-.1.49zm6-.79a.26.26.0 0 1-.22-.12.27.27.0 0 1 .09-.36l1.75-1.08a.26.26.0 0 1 .36.09.26.26.0 0 1-.09.35l-1.75 1.08A.23.23.0 0 1 38.48 100.25zM30 99.67a.2.2.0 0 1-.13.0l-1.79-1a.25.25.0 0 1-.1-.35.26.26.0 0 1 .35-.1l1.79 1a.25.25.0 0 1 .1.35A.27.27.0 0 1 30 99.67zm10.94-.91a.25.25.0 0 1-.22-.12.25.25.0 0 1 .08-.35l1.76-1.09a.26.26.0 0 1 .35.09.25.25.0 0 1-.08.35L41 98.72A.22.22.0 0 1 40.9 98.76zm-13.41-.5a.27.27.0 0 1-.12.0l-1.8-1a.26.26.0 1 1 .26-.44l1.79 1a.26.26.0 0 1 .1.35A.28.28.0 0 1 27.49 98.26zm15.82-1a.26.26.0 0 1-.22-.13.26.26.0 0 1 .08-.35l1.76-1.08a.25.25.0 1 1 .27.43l-1.75 1.09A.37.37.0 0 1 43.31 97.28zM25 96.85a.31.31.0 0 1-.13.0l-1.79-1a.26.26.0 0 1-.09-.35.25.25.0 0 1 .35-.1l1.79 1a.26.26.0 0 1 .1.35A.26.26.0 0 1 25 96.85zm20.69-1.06a.27.27.0 0 1-.22-.13.26.26.0 0 1 .09-.35l1.75-1.08a.26.26.0 0 1 .36.08.26.26.0 0 1-.09.36l-1.75 1.08A.33.33.0 0 1 45.72 95.79zm-23.15-.34a.22.22.0 0 1-.13.0l-1.79-1a.26.26.0 0 1-.1-.35.26.26.0 0 1 .36-.1l1.79 1a.26.26.0 0 1 .09.35A.25.25.0 0 1 22.57 95.45zM48.14 94.3a.25.25.0 0 1-.22-.12.26.26.0 0 1 .08-.36l1.76-1.08a.26.26.0 0 1 .35.08.26.26.0 0 1-.08.36l-1.76 1.08A.22.22.0 0 1 48.14 94.3zm-28-.26A.28.28.0 0 1 20 94l-1.79-1a.26.26.0 0 1-.1-.35.25.25.0 0 1 .35-.09l1.8 1a.26.26.0 0 1-.13.48z"/><path class="cls-8" d="M35 104.47a6.35 6.35.0 0 1-1.88-.3.26.26.0 1 1 .16-.5A5.62 5.62.0 0 0 35 104h.22a.25.25.0 0 1 .27.24.25.25.0 0 1-.25.27A1 1 0 0 1 35 104.47zm1-.1a.26.26.0 0 1-.25-.21.25.25.0 0 1 .2-.3 4.27 4.27.0 0 0 1.35-.55l.43-.27a.26.26.0 0 1 .35.09.25.25.0 0 1-.08.35l-.43.27a4.67 4.67.0 0 1-1.52.61zm-3.52-.46a.23.23.0 0 1-.11.0 5.81 5.81.0 0 1-.92-.48l-.91-.52a.26.26.0 0 1 .25-.45l.93.53a5.68 5.68.0 0 0 .86.45.26.26.0 0 1 .13.34A.25.25.0 0 1 32.44 103.91zm6-.8a.26.26.0 0 1-.22-.12.26.26.0 0 1 .09-.35l1.75-1.09a.27.27.0 0 1 .36.09.26.26.0 0 1-.09.35l-1.75 1.09A.32.32.0 0 1 38.48 103.11zM30 102.53a.28.28.0 0 1-.13.0l-1.79-1a.25.25.0 0 1-.1-.35.26.26.0 0 1 .35-.09l1.79 1a.25.25.0 0 1 .1.35A.27.27.0 0 1 30 102.53zm10.94-.9a.26.26.0 0 1-.22-.13.25.25.0 0 1 .08-.35l1.76-1.08a.25.25.0 0 1 .35.08.26.26.0 0 1-.08.36L41 101.59A.33.33.0 0 1 40.9 101.63zm-13.41-.51a.27.27.0 0 1-.12.0l-1.8-1a.26.26.0 0 1-.09-.35.25.25.0 0 1 .35-.1l1.79 1a.26.26.0 0 1 .1.35A.26.26.0 0 1 27.49 101.12zm15.82-1a.27.27.0 0 1-.22-.12.27.27.0 0 1 .08-.36l1.76-1.08a.26.26.0 0 1 .36.08.27.27.0 0 1-.09.36l-1.75 1.08A.25.25.0 0 1 43.31 100.14zM25 99.72a.22.22.0 0 1-.13.0l-1.79-1a.26.26.0 0 1-.09-.35.25.25.0 0 1 .35-.1l1.79 1a.26.26.0 0 1 .1.35A.28.28.0 0 1 25 99.72zm20.69-1.07a.26.26.0 0 1-.22-.12.27.27.0 0 1 .09-.36l1.75-1.08a.27.27.0 0 1 .36.08.26.26.0 0 1-.09.36l-1.75 1.08A.23.23.0 0 1 45.72 98.65zm-23.15-.34a.31.31.0 0 1-.13.0l-1.79-1a.26.26.0 1 1 .26-.44l1.79 1a.26.26.0 0 1 .09.35A.25.25.0 0 1 22.57 98.31zm25.57-1.15a.25.25.0 0 1-.22-.12.26.26.0 0 1 .08-.36l1.76-1.08a.26.26.0 0 1 .35.09A.25.25.0 0 1 50 96l-1.76 1.08A.22.22.0 0 1 48.14 97.16zm-28-.26a.28.28.0 0 1-.13.0l-1.79-1a.27.27.0 0 1-.1-.36.26.26.0 0 1 .35-.09l1.8 1a.26.26.0 0 1 .09.35A.24.24.0 0 1 20.11 96.9z"/><path class="cls-6" d="M29.06 11.54S16.94 22.63 19.65 39.38c0 0 3.74 19.72 5.28 25.27l5.42 1.16S28.67 39.38 29.44 32c0 0 1.16-16 5.16-19.72z"/><path class="cls-6" d="M40.65 11.93a39.34 39.34.0 0 1 6.57 28.61s-2.45 19-4 24.49L37.3 66.19s1.3-24.49.91-32.48c0 0-.26-18.43-3.62-21z"/><path class="cls-6" d="M48.1 67.06c-2.39 2.28-7.75 3.86-14 3.86-6.49.0-12-1.72-14.27-4.15l-4-7.2s18.55 14 36.87.0z"/><ellipse class="cls-9" cx="17.51" cy="22.93" rx="8.69" ry="7.87" transform="matrix(0.83, -0.56, 0.56, 0.83, -9.79, 13.58)"/><path class="cls-1" d="M50.83 82.53 37.29 74.76a6.71 6.71.0 0 0-7.07.45L17.43 82.6"/><path class="cls-6" d="M13.33 7.16s7.35-2.71 12.25-1.29l3.48-1.16s-2.32-2.32-8-1.68C21.07 3 14.49 5.48 13.33 7.16z"/><path class="cls-6" d="M29.19.84a11.21 11.21.0 0 1 1.29 3.35l3-.25V.59S29.7.33 29.19.84z"/><path class="cls-6" d="M35.89.71s-.13 1.81-.26 3.23c0 0 2.71.13 3.09.64A30.31 30.31.0 0 1 40.14 1 8.71 8.71.0 0 0 35.89.71z"/><path class="cls-6" d="M40.53 5.1s3.61-2.71 6.57-2.45c0 0 6.06 2.83 7.48 3.74.0.0-8.38-1.94-11.09.0z"/><ellipse class="cls-5" cx="34.04" cy="9.19" rx="10.96" ry="5.25"/><ellipse class="cls-10" cx="34.08" cy="8.88" rx="5.48" ry="2.63"/><path class="cls-11" d="M30.85 94.69c.14-2.9-.94-2.38-.6-5.26.0-.31.08-.63.13-.94.0-.15.05-.3.07-.44v0c0-.24.08-.48.11-.72a16.65 16.65.0 0 1 7.23.09 2.83 2.83.0 0 1 0 .29v.06s-.87 5.09-.59 6.92z"/><path class="cls-12" d="M33.84 95.39v-3.24c0-.21.06-.54-.1-.69a2.12 2.12.0 0 1-.56.0 1.06 1.06.0 0 1-.25.0 1.73 1.73.0 0 1-.46-.12l-.42-.09a.08.08.0 0 0 0 .07 1.87 1.87.0 0 0 1.1.3 1.67 1.67.0 0 1 .31.0c.22.0.19.21.19.34.0.28.0.56.0.84.0 1 0 2 0 3"/><path class="cls-12" d="M36.48 89.12H36.4a8.62 8.62.0 0 1-1 .21 3.74 3.74.0 0 1-1 .15.08.08.0 0 0 0 .1 1.57 1.57.0 0 0 .09 1.22 1.26 1.26.0 0 0 1.16.65c1.16-.06 1.11-1.46 1-2.28C36.55 89.15 36.51 89.12 36.48 89.12zm-.8 2.17a1.09 1.09.0 0 1-1.1-.53 1.47 1.47.0 0 1-.08-1.16 13.82 13.82.0 0 1 1.91-.31C36.53 90 36.61 91.14 35.68 91.29z"/><path class="cls-12" d="M31.55 89.4a2.77 2.77.0 0 1-1-.24h-.13a2.83 2.83.0 0 0-.09.65l.09 1.29a.09.09.0 0 0 .08.08A1.64 1.64.0 0 0 32 89.55a.09.09.0 0 0 0-.07A3 3 0 0 1 31.55 89.4zM30.6 91l-.12-1.68a3 3 0 0 0 1.39.28A1.48 1.48.0 0 1 30.6 91z"/><path class="cls-13" d="M30.14 84.44a.27.27.0 0 1-.33-.36c.43-1 .22-2.1.42-3.19a3.14 3.14.0 0 0-.14-1.66c-.17-.46-.17-.84-.71-.85a1.09 1.09.0 0 0-.91.48v-.12A3.55 3.55.0 0 0 28.18 80C28 81.23 28 82.37 28 83.52v.28c0 .53.0 1.06-.08 1.6v.09a1.58 1.58.0 0 0 .67 1.14h.23a14.69 14.69.0 0 0 3-.8 5.82 5.82.0 0 0 2.59-2.06A18.28 18.28.0 0 0 30.14 84.44z"/><path class="cls-14" d="M40 69.59h0z"/><path class="cls-13" d="M40 73.8a5.53 5.53.0 0 1-2.23 3.14A17.58 17.58.0 0 1 36 78.3a4.3 4.3.0 0 1-1.47.76A1.51 1.51.0 0 1 33 78.62c-1.7-2.19 4.87-3.43 5.58-4.83.11-.22.72-4.36.87-4.33h-.12a.51.51.0 0 1-.29-.19.88.88.0 0 1 0-.6v0c.11-.64.23-1.28.34-1.92a3.17 3.17.0 0 1 .29.35C41 68.86 40.6 72 40 73.8z"/><path class="cls-14" d="M39.39 67c.12.8.22 1.61.28 2.41a.47.47.0 0 1-.33-.11.9.9.0 0 1-.18-.57v-.06c0-.64-.1-1.29-.14-1.94z"/><path class="cls-15" d="M37.27 83.58a17.37 17.37.0 0 0-1.21-3.09 4.19 4.19.0 0 0 .25-3.29c-.22-.63-.64-1.09-.57-1.74a14.72 14.72.0 0 1-2.9 1 3.25 3.25.0 0 0-3 .39 2.44 2.44.0 0 0-1.4 2 9 9 0 0 0-.66 3.28.94.94.0 0 0 .32.85 5.35 5.35.0 0 0 2 1.32 17.7 17.7.0 0 1 .2 2.32c0 1.08.0 1.31 1.21 1.68a6.27 6.27.0 0 0 2.79.19 14.86 14.86.0 0 0 3.64-1.1C38.23 87.26 37.37 84 37.27 83.58z"/><path class="cls-13" d="M31.49 72.39s1.91 2 1.39 3.13c-.15.34-.82.55-.82.55l.7 1a.62.62.0 0 1 0 .69A1.13 1.13.0 0 1 31 78.1l-.23-.6.19-.59a2.42 2.42.0 0 0-.15-1.83l-.39-.79A6.42 6.42.0 0 0 31.49 72.39z"/><path class="cls-13" d="M32.53 75.93a.94.94.0 0 0-.48.88A2.39 2.39.0 0 0 32.29 78a10.61 10.61.0 0 0-2 .35 2.06 2.06.0 0 0-.07-2.19 16.41 16.41.0 0 1 2.11-.24c.07.0.18.0.18.08z"/><path class="cls-16" d="M28.44 75.71q.07-.33.12-.63c.27-1.83.33-3 2.57-3h-.21a1.36 1.36.0 0 1 .85.54c.41.85.07 2 .61 2.73a3 3 0 0 1 .71 2.26A2.37 2.37.0 0 1 32 79.12a4 4 0 0 1-1.82.57C27.4 79.92 28.07 77.52 28.44 75.71z"/><path class="cls-17" d="M50.87 82.61l-1-.56L38.43 88.66a8.25 8.25.0 0 1-8.24.0L18.74 82.05l-1 .57 14.41 8.2L33.56 92 38 91.78l4.16-2.94z"/><path class="cls-18" d="M17.76 83.74V86.5h0a2.12 2.12.0 0 0 1.06 1.84l12.1 7a6.4 6.4.0 0 0 6.42.0l12.1-7A2.14 2.14.0 0 0 50.5 86.5h0V83.57l-13 7.69a6.13 6.13.0 0 1-6.09.09z"/><path class="cls-19" d="M17.52 82.72v2.77h0a2.11 2.11.0 0 0 1.08 1.84l12.23 7a6.57 6.57.0 0 0 6.51.0l12.23-7a2.11 2.11.0 0 0 1.08-1.84h0V82.56L37.52 90.25a6.26 6.26.0 0 1-6.16.09z"/><path class="cls-1" d="M50.83 82.53 37.52 90.25a6 6 0 0 1-5.24.56L17.43 82.6"/></g></g></svg>