<svg xmlns="http://www.w3.org/2000/svg" viewBox="0 -4 73.29 70"><defs><style>.cls-1{opacity:.9}.cls-2{fill:#f28232}.cls-3{fill:#ef6802}.cls-4{fill:#f8a73b}.cls-5{fill:#f9b03f}.cls-6{fill:#f29b5d}.cls-21,.cls-7{fill:#fff}.cls-8{fill:#ffd798}.cls-13,.cls-9{fill:#4d3224}.cls-10{fill:#ef6529}.cls-11{fill:#f59435}.cls-12,.cls-14{fill:#0279db}.cls-12,.cls-13,.cls-16,.cls-20{stroke:#4d3224}.cls-12,.cls-16,.cls-18,.cls-24{stroke-linecap:round;stroke-linejoin:round}.cls-12,.cls-16{stroke-width:.62px}.cls-13,.cls-20{stroke-miterlimit:10;stroke-width:.31px}.cls-15{fill:#dfd710}.cls-16,.cls-18,.cls-24{fill:none}.cls-17{fill:#ecbb05}.cls-18,.cls-24{stroke:#ecbb05}.cls-18{stroke-width:.3px;opacity:.53}.cls-19{fill:#0268bc}.cls-20{fill:#5e3d2c}.cls-21{opacity:.4}.cls-22{fill:#0263b2;opacity:.57}.cls-23{opacity:.58}.cls-24{stroke-width:.29px}</style></defs><title>contact-fishs02</title><g class="cls-1 fish-Nemo"><path class="cls-2" d="M5 9.64A2.25 2.25.0 0 1 5 9.2c-.11-.39.28-.87.67-.57a1.22 1.22.0 0 0 1 0c.34-.08.7-.17 1-.28h.09C8.9 7.64 9.84 6.7 11 6a21.91 21.91.0 0 1 4.51-2.27 14.09 14.09.0 0 1 5-.63 12.25 12.25.0 0 1 4.52 1.1 9.47 9.47.0 0 1 2.3 1.52 12.82 12.82.0 0 1 2.48 2.51 5.73 5.73.0 0 1 .94 3.51A3.12 3.12.0 0 1 29 14.25a20 20 0 0 1-3.32 1.93 15.32 15.32.0 0 1-4.12.94 23.66 23.66.0 0 1-4.29.05 13.5 13.5.0 0 1-3.4-.62 12.79 12.79.0 0 1-3.21-1.23c-.86-.37-1.7-.77-2.55-1.16a5.21 5.21.0 0 0-2.46-.45.39.39.0 0 1-.36-.55A7.88 7.88.0 0 1 5 11C5 10.55 4.94 10.1 5 9.64z"/><path class="cls-3" d="M16.25 17.69a1.15 1.15.0 0 1 .82-.29 10 10 0 0 1 1.21.15 6.8 6.8.0 0 0 1 0 5.16 5.16.0 0 1 .68.0.65.65.0 0 1 .2.0c.19.0.24.25.09.35-.75.51-1.4 1.56-2.4 1.6a2.25 2.25.0 0 1-1.25-.24.61.61.0 0 1-.19-.4c-.05-.16-.16-.15-.25-.28A.7.7.0 0 1 16.25 17.69z"/><path class="cls-3" d="M6.46 14.71a1 1 0 0 1 1.19-.48 10.56 10.56.0 0 1 2.12 1c.48.24 1 .48 1.44.68.31.12.62.21.93.32.18-.13.44.16.27.37-.61.78-1.73 2.09-2.86 1.68-.31-.11-.54-.32-.87-.42a2.3 2.3.0 0 1-.7-.46 4.7 4.7.0 0 0-.74-.28 2.34 2.34.0 0 1-.6-.69A1.48 1.48.0 0 1 6.46 14.71z"/><path class="cls-4" d="M16.87 19c.37-.19.78-.16 1.15-.41a5.94 5.94.0 0 0 1-1c.45-.49 1.3-.38 1.89-.28a.09.09.0 0 1 .06.06l.09.05s0 .06.0.08c-.27.22-.57.39-.84.63s-.67.7-1 1a2 2 0 0 1-1 .49.73.73.0 0 1-.68-.3.77.77.0 0 1-.61-.19A.09.09.0 0 1 16.87 19z"/><path class="cls-4" d="M8.07 17c1.25.0 2.66.0 3.58-1a.2.2.0 0 1 .19.0 24.31 24.31.0 0 1 2.66.87.09.09.0 0 1 0 .17.1.1.0 0 1 0 0c-.36.23-.77.37-1.14.57s-.78.42-1.16.63c-.2.11-.57.49-.81.47s-.41-.23-.68-.25-.57.12-.87.0-.37-.4-.63-.5-.46.0-.65-.14a1.16 1.16.0 0 1-.34-.32.26.26.0 0 1-.26-.09v0A.24.24.0 0 1 8.07 17z"/><path class="cls-2" d="M13.4 4.68a.21.21.0 0 0-.16-.14 4.93 4.93.0 0 0-1.39-.8A1.73 1.73.0 0 0 10.5 3.6c-.32.16-.19.78-.57.83a3.09 3.09.0 0 0-.74.12.87.87.0 0 0-.5.33c-.11.13.0.33.0.48.0.35-.24.42-.46.6-.45.36-.19.85-.4 1.31-.12.26-.22.66.0.81a.22.22.0 0 0 .26.05 23.33 23.33.0 0 0 2.16-1.39c.36-.24.72-.48 1.09-.7A2.77 2.77.0 0 0 12 5.73a.33.33.0 0 0 .1-.18A6.37 6.37.0 0 1 13.26 5a.2.2.0 0 0 .14-.14A.12.12.0 0 0 13.4 4.68z"/><path class="cls-2" d="M15 2.46a2.08 2.08.0 0 1 .63-1.15 1.12 1.12.0 0 1 .4-.14c.18.0.22-.25.3-.38a.73.73.0 0 1 .59-.28c.34.0.67.19 1 .16s.57-.12.86-.15a1.16 1.16.0 0 1 .88.26 6.14 6.14.0 0 1 1.87 2 .21.21.0 0 1-.12.3c-.82.13-1.63-.09-2.45.05a16.24 16.24.0 0 0-2.25.6 1.54 1.54.0 0 1-1.46-.1A1.19 1.19.0 0 1 15 2.46z"/><path class="cls-5" d="M19 .37c.67.21 1.07.87 1.62 1.28a5 5 0 0 1 .72.57 3.15 3.15.0 0 0 .41.31 5.62 5.62.0 0 1 .44.53c.05.0.0.12-.08.09a14.23 14.23.0 0 1-1.84-.9c-.27-.17-.54-.35-.82-.51a3.32 3.32.0 0 1-.91-.57A.48.48.0 0 1 19 .37z"/><path class="cls-5" d="M10.29 3.56c.5-.25 1 0 1.46.26a4.78 4.78.0 0 1 1.58.83.08.08.0 0 1 0 .14 4.71 4.71.0 0 1-1.57-.2c-.25.0-.49-.14-.74-.16a1.62 1.62.0 0 1-.69-.11A.44.44.0 0 1 10.29 3.56z"/><path class="cls-2" d="M5.25 12l-.06-.76a1.84 1.84.0 0 0-.05-.74v-.11c0-.47.0-1-.09-1.43a.21.21.0 0 0-.14-.29 10.05 10.05.0 0 1-1.32-.52 4.16 4.16.0 0 0-1.2-.22c-.63.0-1.74.15-1.85.94-.05.37.22.69.18 1.05s-.35.62-.35 1c0 .22.2.42.17.64s-.18.39-.19.6a3.38 3.38.0 0 0 .31 1.27v.11A.56.56.0 0 0 1 14H1a1.29 1.29.0 0 0 .13.71.5.5.0 0 0 .23.18c.15.06.14.0.25.16a1 1 0 0 0 .53.36c.47.14 1.07-.45 1.38-.74.47-.45.93-.94 1.64-.88a.22.22.0 0 0 .22-.22A10.16 10.16.0 0 0 5.25 12z"/><path class="cls-6" d="M.83 8.25c.17-.18.35-.28.34-.49a3.65 3.65.0 0 1 0-.87c.17-.72 1.05-.47 1.47-.15a8.58 8.58.0 0 1 .92.89 6.12 6.12.0 0 0 1.25.88h0s.11.0.12.0a.43.43.0 0 0 0 .05h0a.1.1.0 0 1 0 .15A11.66 11.66.0 0 1 5 10.07a.21.21.0 0 1-.15.19 4.11 4.11.0 0 1-3-.22c-.37-.14-1-.4-1.26-.82C.27 9.05.62 8.49.83 8.25z"/><path class="cls-6" d="M7.17 8.65A4 4 0 0 1 7.88 8 13.27 13.27.0 0 1 9.52 7c.6-.33 1.17-.68 1.74-1a8 8 0 0 1 1-.58 8.51 8.51.0 0 1 1.24-.63c.55-.26 1.11-.49 1.68-.7a14.49 14.49.0 0 1 3.88-1 12.77 12.77.0 0 1 3.74.39h.11.0a1.86 1.86.0 0 1 .64.15 5.05 5.05.0 0 1 2.13.95A13.56 13.56.0 0 1 28 6a8.2 8.2.0 0 1 1.86 2.16 7.4 7.4.0 0 1 .63 1.44c.06.18.12.39.17.6.16.42.29 1-.11 1.34s-1.52.13-2.07-.09a9.85 9.85.0 0 1-2.22-1.39 9.25 9.25.0 0 0-2.62-1.33 15.73 15.73.0 0 0-5.72-.49 15.3 15.3.0 0 0-3 .41 8.81 8.81.0 0 0-1.51.56l-.1.05L13 9.43c-.41.22-.82.44-1.24.64a11.46 11.46.0 0 1-2.76 1 2 2 0 0 1-2-.49 2 2 0 0 1-.33-1.19A.71.71.0 0 1 7.17 8.65z"/><path class="cls-7" d="M21.46 7.68c.08-.43.1-.87.16-1.3A9.45 9.45.0 0 1 22 4.9a10.24 10.24.0 0 1 .52-1.5.12.12.0 0 1 .16-.06h0a2.76 2.76.0 0 1 .79.28 2.94 2.94.0 0 1 .83.3s0 0 .05.06a.07.07.0 0 1 0 .09h0v0a17.14 17.14.0 0 0-.82 2.7 5.36 5.36.0 0 0-.23 1.72.23.23.0 0 1-.14.25v0a1.33 1.33.0 0 1-.79.07 1.49 1.49.0 0 1-.78-.23v-.07l-.07-.06C21.3 8.3 21.42 7.93 21.46 7.68z"/><path class="cls-7" d="M13.53 4.76c.11-.27.61-.33.85-.4A8 8 0 0 1 15.54 4s0 0 0 0c.65.27 1.06 1.19 1.36 1.78a9.77 9.77.0 0 1 .85 2.58.24.24.0 0 1-.21.28c-.21.22-.74.25-1 .3a5.71 5.71.0 0 1-1.23.18.27.27.0 0 1-.07.08.09.09.0 0 1-.12.0h0A.23.23.0 0 1 15 9.09c-.25-.68-.32-1.43-.56-2.13s-.52-1.11-.72-1.68a2.14 2.14.0 0 1-.2-.4A.11.11.0 0 1 13.53 4.76z"/><path class="cls-8" d="M13.93 15.55a6.91 6.91.0 0 0 .8-1.85A8.69 8.69.0 0 0 15 11.21c0-.4.0-.79.0-1.19a3.13 3.13.0 0 1 0-1.22.18.18.0 0 1 .1-.23 4.26 4.26.0 0 1 1.41-.32l.78-.07c.18.0.33-.07.47.0a.1.1.0 0 1 .05.0 8.78 8.78.0 0 1 .56 2.42c.13.9.19 1.8.23 2.71.0.75.05 1.51.0 2.26a2.23 2.23.0 0 1-.36 1.43.13.13.0 0 1 0 .13c-.55.53-1.73.11-2.38.0s-1.74.0-2.14-.66a.17.17.0 0 1 0-.18C13.52 16.09 13.8 15.75 13.93 15.55z"/><path class="cls-8" d="M5.16 10.29c.21.0.44.1.67.1a1.31 1.31.0 0 1 .67.14.1.1.0 0 1 0 .18.14.14.0 0 1 0 .06 9 9 0 0 0-.18 1.39c0 .29.07.63.06.95.0.11.0.23.0.33a.23.23.0 0 1-.22.22 3.42 3.42.0 0 0-.64.0.22.22.0 0 1-.22-.16c-.06-.49-.16-1-.24-1.46S5 11 5 10.5A.21.21.0 0 1 5.16 10.29z"/><path class="cls-7" d="M4.86 9.19c0-.36.13-.77.56-.71a6.85 6.85.0 0 0 .78.07c.17.0.39.0.54.07a.07.07.0 0 1 .08.07c0 .58-.28 1.13-.19 1.73.0.13-.08.27-.23.23-.46-.15-1 .13-1.42-.19-.12-.09-.12-.33-.13-.47A5.34 5.34.0 0 1 4.86 9.19z"/><path class="cls-8" d="M21.37 8.44a.21.21.0 0 1 .21-.21 3.82 3.82.0 0 1 .82.15 3.16 3.16.0 0 0 .9.2c.12.0.15.11.11.2a6.13 6.13.0 0 1-.1 1 8.81 8.81.0 0 0 0 1 9.18 9.18.0 0 0 .45 2.31 12.16 12.16.0 0 0 .82 2c.18.34.52.6.7.92l.17.16a.16.16.0 0 1-.08.27c-.58.14-1.15.33-1.73.48a2 2 0 0 1-1.11.08h0a.24.24.0 0 1-.2-.12 7.36 7.36.0 0 1-.35-1.4c-.17-.74-.3-1.49-.4-2.24A27 27 0 0 1 21.37 8.44z"/><path class="cls-9" d="M18.72.25A4.4 4.4.0 0 1 21 1.59 11.05 11.05.0 0 0 23.2 3.32c.05.0.0.11.0.12-.79.06-1.52-.75-2-1.23-.34-.31-.69-.62-1-.91s-.94-.63-1.39-1C18.67.31 18.68.24 18.72.25z"/><path class="cls-9" d="M6.17 11.68a9.22 9.22.0 0 1 .64-3c.06-.14.24.0.22.09-.07.48-.2 1-.29 1.44s-.11 1-.15 1.49a10.32 10.32.0 0 0 0 1.24c0 .3.19.63.07.91.0.0-.07.06-.11.05C5.88 13.7 6.13 12.15 6.17 11.68z"/><path class="cls-9" d="M4.85 8.41a.11.11.0 0 1 .22.0 22.65 22.65.0 0 1 .11 2.86 12.33 12.33.0 0 0 .24 1.48c.06.32.23.69.0 1a.09.09.0 0 1-.1.0c-.29-.18-.25-.55-.31-.85a13.84 13.84.0 0 1-.24-1.41A10.05 10.05.0 0 1 4.85 8.41z"/><path class="cls-9" d="M7.46 7.35c.06-.1.12-.17.16-.25a1.46 1.46.0 0 1-.12-.72.77.77.0 0 1 .5-.54c.15-.08.3-.13.33-.32a3.58 3.58.0 0 0 0-.45.67.67.0 0 1 .41-.69c.34-.17.87.13 1-.32a1.15 1.15.0 0 1 .51-.83 1.27 1.27.0 0 1 1.31.09 12.51 12.51.0 0 1 2 1.21c.05.0.0.08.0.1-.28.08-.6-.13-.84-.26a5.48 5.48.0 0 0-1.56-.6.63.63.0 0 0-.54.0c-.12.1-.08.41-.1.55A.72.72.0 0 1 10 5c-.32.09-.63.0-1 0-.16.0.0.46.0.56a.56.56.0 0 1-.25.44 1.08 1.08.0 0 1-.43.17C8 6.31 8.2 6.77 8.2 7A.74.74.0 0 1 8 7.4a.64.64.0 0 0-.13.72.18.18.0 0 1-.3.17A.69.69.0 0 1 7.46 7.35z"/><path class="cls-9" d="M5.87 16.2a1.71 1.71.0 0 0 0-.51 1.29 1.29.0 0 1 0-.48A1.54 1.54.0 0 1 7 13.87a.08.08.0 0 1 .09.09 1.34 1.34.0 0 1-.3.48 1.47 1.47.0 0 0-.38 1h0a2.16 2.16.0 0 0 .33.53l.31.32c.12.13.2.34.34.44s.63.07.9.25a.79.79.0 0 1 .23.28c.17.26.44.15.68.23a1.41 1.41.0 0 1 .62.46c.14.14.44-.06.6-.07a.8.8.0 0 1 .45.1 1.23 1.23.0 0 1 .26.25c.19.18.46.0.65.0h.06.06a4.93 4.93.0 0 1 .83-.41A9 9 0 0 1 14.51 17a.07.07.0 0 1 0 .12 17 17 0 0 0-2 1.24c-.49.31-1 .89-1.66.62a1.08 1.08.0 0 1-.28-.24c-.1-.11-.3.09-.38.15a.62.62.0 0 1-.68.0c-.26-.15-.29-.55-.62-.58s-.52.1-.76.0a.89.89.0 0 1-.4-.59c-.06-.2-.07-.16-.3-.11a1 1 0 0 1-.38.0.57.57.0 0 1-.49-.46c0-.11.06-.32-.12-.32a1 1 0 0 1-.29-.05A.57.57.0 0 1 5.87 16.2z"/><path class="cls-9" d="M15.91 17.75a1.49 1.49.0 0 1 1-.55.05.05.0 0 1 0 .1 3 3 0 0 0-.62.67.36.36.0 0 0 .17.33.81.81.0 0 1 .21.24c.08.11.09.25.25.24a1.69 1.69.0 0 1 .5.0c.4.09.62.37 1.07.25a2 2 0 0 0 .4-.18l.38-.28a5.37 5.37.0 0 1 2-1.17c.06.0.13.07.07.12-.38.34-.82.6-1.2.94s-.79.68-1.22 1a2.13 2.13.0 0 1-1.11.37.91.91.0 0 1-.45-.14 1 1 0 0 1-.19-.16c-.12-.11-.24.0-.36.05a.54.54.0 0 1-.72-.17c-.07-.12.0-.46-.17-.5a.49.49.0 0 1-.32-.2A.8.8.0 0 1 15.91 17.75z"/><path class="cls-9" d="M26.2 8.54a1.85 1.85.0 0 1 2-.13 1.58 1.58.0 0 1 .74 1.81c0 .06-.09.0-.13.0a1.26 1.26.0 1 0-2.15 1.32s0 .1.0.1c-.6.0-1-.82-1.07-1.32A1.83 1.83.0 0 1 26.2 8.54z"/><path class="cls-7" d="M25.89 10.19a1.54 1.54.0 1 0 1.54-1.61A1.58 1.58.0 0 0 25.89 10.19z"/><path d="M25.82 10.25a1.24 1.24.0 0 0 1.08 1.36A1.24 1.24.0 0 0 28 10.25 1.24 1.24.0 0 0 26.9 8.89 1.24 1.24.0 0 0 25.82 10.25z"/><path class="cls-7" d="M27.05 9.61a.39.39.0 1 0 .76.0.39.39.0 1 0-.76.0z"/><path class="cls-9" d="M14.38 2.56c.12-.26.34-.47.37-.76a3 3 0 0 1 0-.43c.1-.34.59-.42.89-.44s.56-.56.92-.69a.92.92.0 0 1 .61.0l.29.14c.3.15.32.0.45-.17a.92.92.0 0 1 1-.15A3.07 3.07.0 0 1 20.22 1a0 0 0 0 1 0 .06A.61.61.0 0 1 20 1h0c-.35.0-.68-.16-1-.19s-.47.37-.69.46c-.46.19-1.47-.61-1.69.0-.08.23-.17.4-.43.42s-.18.26-.28.41a3.22 3.22.0 0 1-.24.28 2.57 2.57.0 0 0-.24.21c-.14.18.0.49.11.63a2 2 0 0 1 .4.57.21.21.0 0 1-.15.26A.72.72.0 0 1 15.23 4h0C14.67 4.1 14.19 3 14.38 2.56z"/><path class="cls-9" d="M1.79 15.27c.79.16 1.42-.58 2-1a3.47 3.47.0 0 1 .82-.44h0a3.55 3.55.0 0 1 2.75-.07 17.17 17.17.0 0 1 1.57.72l1.67.73c.88.38 1.77.73 2.68 1a6 6 0 0 0 1.14-2.46 13.07 13.07.0 0 0 .33-3.42 14.6 14.6.0 0 0-.36-2.95A9 9 0 0 0 14 6.09c-.15-.35-.39-.64-.57-1a23.24 23.24.0 0 0-2.15 1.12c-.84.52-1.62 1.11-2.44 1.67a5 5 0 0 1-2.55 1 3.83 3.83.0 0 1-2.31-.8A6.22 6.22.0 0 1 2.13 6.4c0-.08.05-.16.13-.12a20.52 20.52.0 0 1 2 1.5 3.33 3.33.0 0 0 2.58.55A7.8 7.8.0 0 0 9.45 6.85a25.09 25.09.0 0 1 2.71-1.69c.89-.49 5.25-2.8 8.94-2.3a7.58 7.58.0 0 1 1.61.34 13.29 13.29.0 0 1 5.76 3.14c1.69 1.6 3.1 3.75 2.35 6.15a4.6 4.6.0 0 1-1.74 2.27 17 17 0 0 1-3.46 1.92 13.81 13.81.0 0 1-4.07.9 25.23 25.23.0 0 1-7-.43A22.82 22.82.0 0 1 11 16c-1-.43-2.07-.88-3.09-1.38A4.38 4.38.0 0 0 6.07 14c-.29.0-.59.07-.89.08s-.47.15-.67.24a5.18 5.18.0 0 0-1 .74c-.53.44-1.2.8-1.76.25A0 0 0 0 1 1.79 15.27zm23.84.83c.34-.14.66-.3 1-.47a10.61 10.61.0 0 0 3.08-2.11h-.05c-.41.05-1-.22-.86-.71a.07.07.0 0 1 .11.0 1 1 0 0 0 .81.33.92.92.0 0 0 .37-.14 4 4 0 0 0 .4-2.72 7.17 7.17.0 0 0-2-3.22 12.81 12.81.0 0 0-3.17-2.4c-.25-.14-.5-.25-.75-.36a1.71 1.71.0 0 1-.28.65 6.16 6.16.0 0 0-.48 1.74 18.75 18.75.0 0 0-.25 4 9.9 9.9.0 0 0 .57 3 6.57 6.57.0 0 0 .72 1.36 6.05 6.05.0 0 0 .55.68A4 4 0 0 1 25.63 16.1zm-2.94.83a12.08 12.08.0 0 0 2.7-.73 1 1 0 0 1-.3-.2 5 5 0 0 1-.54-.58 6.13 6.13.0 0 1-.76-1.31 9.43 9.43.0 0 1-.69-3 18.38 18.38.0 0 1 .17-4 9.35 9.35.0 0 1 .38-1.82 5.39 5.39.0 0 1 .6-1.14c-.5-.2-1-.38-1.52-.56h-.21a6.42 6.42.0 0 1-.39 1.22 10.2 10.2.0 0 0-.33 1.75 35.46 35.46.0 0 0-.31 3.71 18.49 18.49.0 0 0 1.17 6.71zm-.41.05a15.28 15.28.0 0 1-1.21-6.58 30.1 30.1.0 0 1 .31-3.79 13.74 13.74.0 0 1 .33-1.79 9.23 9.23.0 0 1 .58-1.33 8.55 8.55.0 0 0-1.53-.22A12.43 12.43.0 0 0 16 4.06a6.55 6.55.0 0 1 1.39 2.5 23.52 23.52.0 0 1 1.11 4.29A18 18 0 0 1 18.83 15a5 5 0 0 1-.36 2.16A21.11 21.11.0 0 0 22.28 17zm-6.18-.12a17.35 17.35.0 0 0 1.9.26l.05-.08a1.9 1.9.0 0 0 .28-1c.05-.37.07-.75.1-1.13a17.48 17.48.0 0 0-.33-4.08A23 23 0 0 0 17.17 7a8.3 8.3.0 0 0-1.44-2.88c-.74.26-1.45.56-2.08.84a4.07 4.07.0 0 1 1 2.06 12.8 12.8.0 0 1 .49 3.31 12.55 12.55.0 0 1-.43 3.86 10.93 10.93.0 0 1-.55 1.44 2 2 0 0 1-.47.73l.39.12C14.78 16.66 15.45 16.73 16.1 16.86z"/><path class="cls-10" d="M16.73 9.15s.13-.53.16-.58a.72.72.0 0 1 .27-.35.81.81.0 0 1 .88.11l.05.07a9.84 9.84.0 0 1 1 .53 15.47 15.47.0 0 0 1.73.86c.64.28 1.72.54 1.47 1.45S21 13.09 20.39 13.92c-.44.61-1.08 1.42-1.9.92-.33-.2-.44-.67-.62-1s-.69-.31-.88-.63.05-.86-.15-1.23c-.1-.17-.28-.28-.39-.44a.92.92.0 0 1-.1-.59c0-.22.11-.43.13-.65s-.21-.35-.26-.5C16.1 9.49 16.46 9.22 16.73 9.15z"/><path class="cls-11" d="M16.8 8.85c.18-.09.0-.49.21-.63a.79.79.0 0 1 .28-.13c.16-.24.83.12 1 .19A21.26 21.26.0 0 1 20 9.49c.54.38 1.19.54 1.74.9a1.28 1.28.0 0 1 .53.68c.1.34-.15.54-.35.78.0.05-.1.0-.08-.06v0 0c-.09-.21-.07-.44-.28-.6A1.25 1.25.0 0 0 21 11c-.46.0-.93.06-1.4.06a7 7 0 0 1-1.55-.43.69.69.0 0 0-.73.21c-.23.3-.07.58-.09.89a.09.09.0 0 1-.09.1.34.34.0 0 1-.18.0c-.31.15-.59-.32-.65-.59a1.13 1.13.0 0 1 .16-.72c.16-.33-.27-.48-.35-.74C16 9.2 16.41 9 16.8 8.85z"/><path class="cls-9" d="M21.38 10.28a8.7 8.7.0 0 1-1.14-.49A18.81 18.81.0 0 1 17.83 8s0-.07.0.0c1.19.41 2.1 1.4 3.3 1.83a2.24 2.24.0 0 1 1.08.53 1.3 1.3.0 0 1 .16 1.18 3.66 3.66.0 0 1-.69 1.13c-.32.4-.61.8-.9 1.23a3 3 0 0 1-.91.91 1.13 1.13.0 0 1-.5.16c-.3.0-.37-.09-.62-.24a.07.07.0 0 1 0-.12c.87.3 1.51-.77 1.89-1.38S21.8 12.06 22 11.3C22.18 10.77 21.84 10.45 21.38 10.28z"/><path class="cls-9" d="M16 9.3c.25-.27.51-.34.41-.77s.46-.81.91-.83a1.43 1.43.0 0 1 .87.4l.34.19a1 1 0 0 1 .25.2h.08a.08.08.0 0 1 .06.08h0a0 0 0 0 1 0 .05h0a.07.07.0 0 1-.07.0 2 2 0 0 1-.67-.22h-.05l-.48-.09c-.3.0-.29.18-.26.42a.54.54.0 0 1-.27.58 2.05 2.05.0 0 1-.41.16c-.31.1.0.33.12.43a.78.78.0 0 1 .28.67c0 .29-.42.45-.16.72a1.08 1.08.0 0 1 .39.61 1.33 1.33.0 0 1-.34.92.25.25.0 0 0 .12.19c.17.11.37.07.56.13a1 1 0 0 1 .45.48 1.47 1.47.0 0 0 .6.77c.22.13.76.35 1 .15.07-.05.16.0.1.1-.21.2-.28.29-.58.29a2 2 0 0 1-1-.23 1.16 1.16.0 0 1-.52-.65c-.07-.16-.12-.39-.33-.41a1.23 1.23.0 0 1-.43-.1.85.85.0 0 1-.4-1.21c.12-.3.19-.46-.16-.58-.2-.08-.43-.27-.42-.5a1.35 1.35.0 0 1 .29-.77c.12-.16-.34-.43-.38-.61A.69.69.0 0 1 16 9.3z"/><path class="cls-9" d="M.27 11.71c.2-.25.0-.37-.12-.56-.31-.49-.08-.84.21-1.26S.21 9.4.08 9.17a.64.64.0 0 1 .07-.7c.26-.33.62-.45.51-1a1.36 1.36.0 0 1 0-.87 1.24 1.24.0 0 1 1.93-.21.57.57.0 0 1 .26.33s0 .08-.07.07c-.4-.08-1.13-.41-1.42.06-.16.26.11.65.12.92a.91.91.0 0 1-.18.6c-.08.09-.55.36-.5.48s.31.42.33.72a1.25 1.25.0 0 1-.17.71c-.1.19-.22.34-.16.58a.56.56.0 0 1 0 .36.65.65.0 0 1 0 .28c0 .11-.28.59-.23.63a.71.71.0 0 1 .27.43c.07.28-.2.57.0.82s.36.24.43.47-.06.95.33.87a.24.24.0 0 1 .3.23c0 .28.6.19.77.17a.13.13.0 0 1 .12.2.79.79.0 0 1-1.29-.1.72.72.0 0 1-.47-.2c-.27-.21-.21-.57-.18-.86s-.45-.47-.53-.75.18-.73-.09-1A.52.52.0 0 1 .11 12 .63.63.0 0 1 .27 11.71z"/><animateTransform attributeType="auto" attributeName="transform" type="translate" values="0 0; 0 10; 0 0" dur="2s" repeatCount="indefinite" /></g><g class="cls-1 fish-Dory"><path class="cls-12" d="M39 29.8s-1.44-1.47-2.25-1.24c2-.56 4-2.25 5.73-3.29a62.55 62.55.0 0 1 6.45-3.48c6.05-2.67 11.94-3 16.92 1.85z"/><path class="cls-12" d="M36.77 35.89c-1-.93 1.51-1.22 1.65-2.58.06-.65-.78-.41-.72-1.06C43.51 24 59.07 16.18 67.38 25.19c2.22 2.14 5.55 3.26 5.6 13.92C68.11 44.26 62 47 54.8 46.48a25 25 0 0 1-9.56-2.71 44.61 44.61.0 0 0-4.67-1.7s-.06-.61 1.34-.58A52.12 52.12.0 0 0 36.77 35.89z"/><path class="cls-9" d="M64.67 31.92a3.6 3.6.0 0 1 3.4-.69 2.38 2.38.0 0 1 1.66 2.63c0 .1-.14.11-.21.0-1.6-1.7-5.41.0-3.45 2.56.05.06.05.15.0.16-1 .13-1.85-1-2.14-1.78A2.69 2.69.0 0 1 64.67 31.92z"/><path class="cls-7" d="M64.55 34.6a2.62 2.62.0 1 0 2.25-2.9A2.6 2.6.0 0 0 64.55 34.6z"/><path d="M66.14 34.5a1.86 1.86.0 1 0 1.51-2.41A2 2 0 0 0 66.14 34.5z"/><path class="cls-7" d="M66.35 33.43a.66.66.0 1 0 1.29-.18.66.66.0 1 0-1.29.18z"/><path class="cls-13" d="M56.41 21.16a27.81 27.81.0 0 0-17.8 10.5L38 36.25a47.39 47.39.0 0 0 17.5 4.68c2.23.0 4.49-1.1 4.9-3.49s-1.14-4.88-.54-7.27c.83-3.38 5.75-2.05 6.8-5.25.0.0-4.19-3.67-6.65-3.45z"/><path class="cls-14" d="M51.6 33.17l.72-.05c1.71-.24 3.47-.46 3.75 1.71a4.22 4.22.0 0 1-.26 3c-2.28 3.49-8.13-1.25-7.9-4.26A17.76 17.76.0 0 1 51.6 33.17z"/><path class="cls-15" d="M29 29.8c.69 1.22 3.2.86 4.39 1.12a21.66 21.66.0 0 1 6.33 2.26c.42.24 4.41 2.43 3.21 3.14-.84.5-2.1.19-3 .28-3.67.33-7.32.2-10.19 2.91.37-.35-.89-4.41-.95-5.12A20.34 20.34.0 0 1 29 29.8z"/><path class="cls-16" d="M29.44 30c5 1.07 10 2.08 14.27 5.42.0.0.27 1.37-3 1-2.25.09-4.63-.13-6.82.51a12.51 12.51.0 0 0-4.11 2.15"/><path class="cls-13" d="M37.7 32.25s5 2.2.34 4l7.16.3-1.1-3.78S39.06 30.11 37.7 32.25z"/><path class="cls-17" d="M36 32.09s-3.09 2-.42 4.06c0 0 3.45.48 4.34-1.77C39.9 34.38 39.41 32.41 36 32.09z"/><path class="cls-16" d="M70.19 38.72s.67 1.2 2.79.39"/><path class="cls-12" d="M39.01 27.79 40.35 28.92z"/><path class="cls-12" d="M40.27 26.86 41.61 27.98z"/><path class="cls-12" d="M41.49 26.03 42.83 27.15z"/><path class="cls-12" d="M42.98 25.28 44.32 26.4z"/><path class="cls-12" d="M44.24 24.39 45.58 25.52z"/><path class="cls-12" d="M45.47 23.66 46.81 24.79z"/><path class="cls-12" d="M46.71 22.99 48.04 24.11z"/><path class="cls-12" d="M47.89 22.32 49.22 23.44z"/><path class="cls-12" d="M49.34 21.68 50.47 23.02z"/><path class="cls-12" d="M50.68 21.28 51.75 22.67z"/><path class="cls-12" d="M51.85 20.68 52.95 22.03z"/><path class="cls-12" d="M53.41 20.47 54.27 21.99z"/><path class="cls-12" d="M54.63 20.02 55.35 21.62z"/><path class="cls-12" d="M56.18 19.91 56.68 21.58z"/><path class="cls-12" d="M57.87 19.96 57.79 21.7z"/><path class="cls-12" d="M59.23 20.1 59.15 21.84z"/><path class="cls-18" d="M29.57 31.15s4.62.89 6.6 2"/><path class="cls-18" d="M29.19 32.21 35.23 33.34z"/><path class="cls-18" d="M29.22 33.66a32 32 0 0 1 6.18.49"/><path class="cls-18" d="M29.43 35a18 18 0 0 1 5.81-.4"/><path class="cls-18" d="M29.73 36.2s4-1.18 5.58-.9"/><path class="cls-18" d="M30 37.41a15.23 15.23.0 0 1 6.27-1.79"/><rect class="cls-19" x="71.42" y="33.88" width=".58" height=".58" rx=".29" ry=".29" transform="translate(-2.7 6.35) rotate(-4.98)"/><rect class="cls-19" x="70.91" y="34.85" width=".58" height=".58" rx=".29" ry=".29" transform="translate(-2.78 6.31) rotate(-4.98)"/><rect class="cls-19" x="71.55" y="36.38" width=".58" height=".58" rx=".29" ry=".29" transform="translate(-2.91 6.37) rotate(-4.98)"/><rect class="cls-19" x="70.67" y="35.92" width=".58" height=".58" rx=".29" ry=".29" transform="translate(-2.87 6.29) rotate(-4.98)"/><rect class="cls-19" x="71.64" y="35.46" width=".58" height=".58" rx=".29" ry=".29" transform="translate(-2.83 6.38) rotate(-4.98)"/><path class="cls-20" d="M39.57 30.58c-1.15 2.14.67 2.12 2.17 1.39 2.68-1.3 5.27-2.7 8-3.8 3.27-1.3 6.77-2.38 10.26-1.93 1.42.19 5.06 1.11 5.64-1.07.2-.75-.45-1.46-1.1-1.88a10.91 10.91.0 0 0-5.39-1.57 22.31 22.31.0 0 0-10.58 2.17 32.53 32.53.0 0 0-5.75 3.44 20.59 20.59.0 0 0-2.74 2.47A4.24 4.24.0 0 0 39.57 30.58z"/><path class="cls-21" d="M28.74 33.18s8.53 1.2 9.76.6c0 0 2.42-1.29-9.49-4A28.44 28.44.0 0 0 28.74 33.18z"/><path class="cls-22" d="M39.28 38s5.3 4 9.08 4.68c0 0 12 3.81 21.84-3.14l1.68.27s-7.47 8-18.36 6.35a71.48 71.48.0 0 1-10.86-3.7s-2.5-.3-.63-1.29z"/><path class="cls-16" d="M41.91 41.49s5.45 2 6.73 2.51a29.23 29.23.0 0 0 15.13 1.16"/><path class="cls-12" d="M58.15 41.06s-9.45 3.09-10.68 5.58c0 0 .26.59 3.24.44 1.7-.09 3.69.6 5.37-.1 1.9-.79 3.25-3.38 4.53-4.9"/><path class="cls-15" d="M56.58 46.42a4.64 4.64.0 0 1-1.3.54 7.88 7.88.0 0 1-3.45-.08l-2.69-.08c-3.09.06.78-1.72.78-1.72s5.31-1.7 6.75-.7C57.8 45.16 57.38 45.91 56.58 46.42z"/><g class="cls-23"><path class="cls-24" d="M54.6 44.44a17.47 17.47.0 0 0-2.38 2.1"/><path class="cls-24" d="M55.52 44.47a17.47 17.47.0 0 0-2.38 2.1"/><path class="cls-24" d="M56.25 44.59a17.58 17.58.0 0 0-2.37 2.1"/><path class="cls-24" d="M57.15 44.74a16.77 16.77.0 0 0-2.38 2.1"/><path class="cls-24" d="M53.57 44.49a17.47 17.47.0 0 0-2.38 2.1"/><path class="cls-24" d="M52.68 44.62a14.49 14.49.0 0 0-2.25 2"/><path class="cls-24" d="M51.69 44.74a12.77 12.77.0 0 0-2.17 1.89"/><path class="cls-24" d="M50.44 45.09a8.85 8.85.0 0 0-1.73 1.53"/></g><path class="cls-16" d="M48.8 45.28c1.45-.46 9.43-3 8.64.69"/><animateTransform attributeType="auto" attributeName="transform" type="translate" values="0 0; 0 10; 0 0" dur="2s" begin="1s" repeatCount="indefinite" /></g></svg>