<svg xmlns="http://www.w3.org/2000/svg" xmlns:xlink="http://www.w3.org/1999/xlink" viewBox="0 0 777.78 260.58"><defs><style>.cls-1{fill:#e3e3e3}.cls-1,.cls-2,.cls-6{stroke:#4d3224}.cls-1,.cls-2,.cls-3,.cls-6,.cls-9{stroke-linecap:round;stroke-linejoin:round;stroke-width:1.5px}.cls-2{fill:#96c68d}.cls-3{stroke:#523224;fill:url(#未命名漸層_27)}.cls-4{fill:#a66c3d}.cls-4,.cls-5,.cls-6,.cls-7,.cls-8,.cls-9{fill-rule:evenodd}.cls-5{fill:#865731}.cls-6,.cls-9{fill:none}.cls-7{fill:#815430}.cls-8{fill:#4d3224}.cls-9{stroke:#e7c48d;opacity:.46}</style><linearGradient id="未命名漸層_27" x1="352.19" y1="277.83" x2="356.19" y2="248.33" gradientUnits="userSpaceOnUse"><stop offset=".11" stop-color="#75aad4" stop-opacity="0"/><stop offset="1" stop-color="#5596ca"/></linearGradient></defs><title>contact-islands</title><g id="圖層_2" data-name="圖層 2"><g id="聯絡"><path class="cls-1" d="M378.75 259.67c10.46-.28 21.24-.6 32.58-.34 49 1.1 97.67-10.14 143.66-26.37 35.35-12.47 51.51-44.66 85-58.79C675.81 159.1 725.94 139.8 761.32 119c26.41-15.51 15.86-61.41-4.72-60.78-36.72 1.11-98.84 21.81-131.88 29.12-44.45 9.84-89.47 23.86-135.14 25.27-48.77 1.5-97.41-2.72-145.81-7.81-101.15-10.64-177.54 1-276.24-23C54.77 78.69 19.35 58.37 10.75 70.06c-33.51 45.59 26 103.52 64.74 108.83 33.63 4.6 64.72 20.9 97.71 28.55 40.41 9.36 78.68 21.5 116.25 39.08a138.2 138.2.0 0 0 45.2 12.37"/><path class="cls-2" d="M287.54 2q-32 1.57-64.47 5.35C186 11.74-30 32.54 4.47 106.23c26.25 56 91.38 67.51 146.52 75 28.61 3.88 73.26 17.8 101.07 26 54.55 16.14 81.4 31.88 139.8 33.51 43.66 1.21 104 1.36 142.5-22.92 42.74-26.95 71.48-54.25 156.25-80.13S818.84 56.87 707.12 40C566.47 18.77 429.64-5 287.54 2z"/><path class="cls-3" d="M335.32 258.82c6-28.07 17.27-41.58 37.94-63.16 10.75-11.24 41.88-40.89 31.3-58.35-7.74-12.76-28.39-16.94-41.3-21.94-19.7-7.64-45.36-14.69-59.5-31.51C273.58 47.94 436.45 10.63 454.13 5.74a.87.87.0 0 1 .19.0l14.46.8L400.72 28.86H401l-1.16.35-12.19 4.6L364 42.16c-17.67 7.6-35.2 17.56-36.11 27.41-1.27 13.59 45.16 29 54.18 32.88 18.56 7.92 48.08 12.21 55.9 34 9.49 26.36-19.71 56.52-34.11 75.42C387 234 382 238 378.75 259.83"/><path class="cls-4" d="M409.49 113.54l.06 6.17c0 .45.54.82 1.19.81s1.18-.38 1.17-.83l-.06-6.17z"/><path class="cls-5" d="M409.49 113.54v4a3.47 3.47.0 0 1 2.35-1v-3z"/><path class="cls-6" d="M409.49 113.54l.06 6.17c0 .45.54.82 1.19.81s1.18-.38 1.17-.83l-.06-6.17z"/><path class="cls-4" d="M395 123.67l.06 6.17c0 .45.54.81 1.19.81s1.18-.38 1.18-.83l-.07-6.17z"/><path class="cls-7" d="M395 123.67v4a3.47 3.47.0 0 1 2.35-1v-3z"/><path class="cls-6" d="M395 123.67l.06 6.17c0 .45.54.81 1.19.81s1.18-.38 1.18-.83l-.07-6.17z"/><path class="cls-8" d="M391 130.35l2.38 1.39s6.76-13.51 16.52-16.26c4.12-1.16 6.46-.16 6.46-.16l1.21.62c3.41.29 2.3-1.13.24-1.88l-4.56-2.78-23.64 8z"/><path class="cls-4" d="M391.5 129.94s13.17-21.13 25.7-15.87c0 0-6.39-7.34-20.23-8.6S374.6 116 371.89 120.22C371.89 120.22 385.19 125 391.5 129.94z"/><path class="cls-9" d="M376.06 116.64s11.71 4 17.47 8.74"/><path class="cls-9" d="M379.63 112.47s11.72 4 17.48 8.74"/><path class="cls-9" d="M383.4 109.3s11.72 4 17.48 8.73"/><path class="cls-9" d="M388 107.11s10.53 3.58 16.29 8.34"/><path class="cls-9" d="M392.74 106.12s9.93 2.58 15.69 7.35"/><path class="cls-9" d="M397 105.47s8.88 2.63 14.64 7.4"/><path class="cls-6" d="M391.5 129.94s13.17-21.13 25.7-15.87c0 0-6.39-7.34-20.23-8.6S374.6 116 371.89 120.22C371.89 120.22 385.19 125 391.5 129.94z"/></g></g></svg>