<svg xmlns="http://www.w3.org/2000/svg" viewBox="0 0 1920 340"><defs><style>.cls-1{fill:#f2f2f3}.cls-2{fill:none}</style></defs><title>contact-star-w</title><g class="star-w"><path class="cls-1" d="M663.54 172.41c0-9.24-2.51-11.84-11.43-11.84 8.92.0 11.43-2.6 11.43-11.84.0 9.24 2.51 11.84 11.42 11.84C666.05 160.57 663.54 163.17 663.54 172.41z"/><path class="cls-1" d="M859.7 64.62c0-5.77-1.56-7.4-7.14-7.4 5.58.0 7.14-1.62 7.14-7.4.0 5.78 1.57 7.4 7.15 7.4C861.27 57.22 859.7 58.85 859.7 64.62z"/><path class="cls-1" d="M180.26 247.66c0-5.77-1.57-7.4-7.14-7.4 5.57.0 7.14-1.62 7.14-7.4.0 5.78 1.57 7.4 7.14 7.4C181.83 240.26 180.26 241.89 180.26 247.66z"/><path class="cls-1" d="M310 155.64c0-9.24-2.51-11.84-11.43-11.84 8.92.0 11.43-2.6 11.43-11.84.0 9.24 2.51 11.84 11.43 11.84C312.54 143.8 310 146.4 310 155.64z"/><path class="cls-1" d="M1440 144.1c0-6.29-1.77-8-8-8 6.28.0 8-1.77 8-8.05.0 6.28 1.77 8.05 8 8.05C1441.8 136.05 1440 137.81 1440 144.1z"/><path class="cls-1" d="M1136 95.11c0-9.41-2.65-12.06-12.07-12.06 9.42.0 12.07-2.65 12.07-12.07.0 9.42 2.65 12.07 12.07 12.07C1138.68 83.05 1136 85.7 1136 95.11z"/><path class="cls-1" d="M1844.62 155.11c0-5.89-1.65-7.54-7.54-7.54 5.89.0 7.54-1.66 7.54-7.54.0 5.88 1.66 7.54 7.55 7.54C1846.28 147.57 1844.62 149.22 1844.62 155.11z"/><path class="cls-1" d="M1560.59 299.13c0-9.42-2.65-12.06-12.07-12.06 9.42.0 12.07-2.65 12.07-12.07.0 9.42 2.65 12.07 12.07 12.07C1563.24 287.07 1560.59 289.71 1560.59 299.13z"/><path class="cls-2" d="M0 0h1920v340H0z"/><animate attributeType="auto" attributeName="opacity" dur="1.2s" values="0.2;1;0.2" repeatCount="indefinite" begin=".8s"/></g></svg>