<svg xmlns="http://www.w3.org/2000/svg" viewBox="0 0 88.16 138.32"><defs><style>.cls-1{fill:none}.cls-1,.cls-10,.cls-13,.cls-14,.cls-15,.cls-17,.cls-19,.cls-23,.cls-5,.cls-6,.cls-8,.cls-9{stroke:#4d3224}.cls-1,.cls-10,.cls-13,.cls-14,.cls-15,.cls-17,.cls-19,.cls-22,.cls-23,.cls-5,.cls-6,.cls-8,.cls-9{stroke-linecap:round;stroke-linejoin:round}.cls-2{fill:#af7d5a}.cls-3{fill:#735b4a}.cls-4{fill:#426ad3}.cls-5{fill:#f2f2f3}.cls-6{fill:#c1997e}.cls-7{fill:#ebc1ac}.cls-8{fill:#87bacb}.cls-9{fill:#f89972}.cls-10{fill:#b23675}.cls-11,.cls-14{fill:#fff}.cls-11{opacity:.24}.cls-12{fill:#962e63}.cls-13,.cls-18{fill:#f6be8f}.cls-15{fill:#c9caca}.cls-16{fill:#4d3224}.cls-17{fill:#f5e69a}.cls-19{fill:#9ec5e2}.cls-20{opacity:.6}.cls-21,.cls-23{fill:#ffe7e4}.cls-22{fill:#f3f3f1;stroke:#f3f3f1}.cls-24{fill:#ba8e70}.cls-25{fill:#9e795f}.cls-26{fill:#d7bead}</style></defs><title>contact-hitballoon01_1</title><g id="圖層_2" data-name="圖層 2"><g id="聯絡"><path class="cls-1" d="M27.84 79.18 23.61 106.6z"/><path class="cls-1" d="M60.17 79.32 64.16 106.24z"/><path class="cls-2" d="M40 96.84 22.46 107v17.45l22.25-8.68h0l21.06 7V107L48.21 96.84a8.16 8.16.0 0 0-8.21.0z"/><path class="cls-3" d="M40 98.36 22.46 108.51v16.15l22.94 6.09 6.26-3.68 14.11-3.8V108.5L48.21 98.36a8.2 8.2.0 0 0-8.21.0z"/><ellipse class="cls-4" cx="44.11" cy="82.42" rx="19.88" ry="9.53"/><path class="cls-5" d="M44.49.5C32 .5 21.27 5.63 12.87 12.57 4.27 19.67.71 29.09.51 39.56A34.7 34.7.0 0 0 3.72 54.87C7 63.81 21.45 78.21 23 79.69c2.81 4.54 10.92 7.85 21.31 7.85 9.83.0 18.22-3 21.48-7.14h.05s21-23 21.71-38.17h0c.08-.88.15-1.77.16-2.66A36 36 0 0 0 76.46 13 45.6 45.6.0 0 0 44.49.5z"/><path class="cls-6" d="M64.37 108.38l-16.08 9a9.83 9.83.0 0 1-8.41.0l-16-9c-.87-.5-1.22-.89-1.4-1.4v18h0a2.8 2.8.0 0 0 1.4 2.43l16 9.24a8.51 8.51.0 0 0 8.51.0l16-9.24a2.8 2.8.0 0 0 1.4-2.43h0V106.88C65.77 107.21 65.24 107.88 64.37 108.38z"/><path class="cls-1" d="M44.11 86.82V95.9z"/><path class="cls-7" d="M45 127.92a8.19 8.19.0 0 1-2.44-.4.33.33.0 0 1-.22-.42.33.33.0 0 1 .42-.22 7.19 7.19.0 0 0 2.52.36.33.33.0 0 1 .35.32.35.35.0 0 1-.32.35zm1.29-.14a.32.32.0 0 1-.33-.26.34.34.0 0 1 .26-.4 5.33 5.33.0 0 0 1.75-.71l.56-.35a.35.35.0 0 1 .46.11.33.33.0 0 1-.11.46l-.56.35a6.19 6.19.0 0 1-2 .8zm-4.57-.6h-.14a9 9 0 0 1-1.2-.63l-1.18-.68a.33.33.0 0 1-.12-.45.34.34.0 0 1 .46-.13l1.19.69a9.63 9.63.0 0 0 1.12.58A.33.33.0 0 1 42 127 .31.31.0 0 1 41.7 127.18zm7.84-1a.36.36.0 0 1-.29-.16.35.35.0 0 1 .11-.46l2.28-1.41a.35.35.0 0 1 .46.11.33.33.0 0 1-.11.46l-2.28 1.41A.34.34.0 0 1 49.54 126.16zm-11.06-.76a.35.35.0 0 1-.17.0L36 124a.34.34.0 0 1-.12-.46.33.33.0 0 1 .45-.12l2.33 1.33a.33.33.0 0 1-.17.62zm14.19-1.17a.33.33.0 0 1-.28-.16.34.34.0 0 1 .1-.46l2.28-1.41a.35.35.0 0 1 .46.11.33.33.0 0 1-.11.46l-2.27 1.41A.41.41.0 0 1 52.67 124.23zm-17.38-.65a.34.34.0 0 1-.17.0l-2.32-1.32a.34.34.0 0 1 .33-.59L35.45 123a.34.34.0 0 1 .13.46A.35.35.0 0 1 35.29 123.58zM55.8 122.3a.33.33.0 0 1-.28-.16.34.34.0 0 1 .1-.46l2.28-1.41a.35.35.0 0 1 .46.11.33.33.0 0 1-.11.46L56 122.25A.41.41.0 0 1 55.8 122.3zm-23.71-.55a.32.32.0 0 1-.16.0l-2.32-1.33a.33.33.0 0 1-.13-.46.34.34.0 0 1 .46-.12l2.32 1.33a.32.32.0 0 1 .12.45A.32.32.0 0 1 32.09 121.75zm26.84-1.38a.33.33.0 0 1-.17-.62l2.27-1.4a.33.33.0 0 1 .46.1.33.33.0 0 1-.11.46l-2.27 1.41A.41.41.0 0 1 58.93 120.37zm-30-.44a.37.37.0 0 1-.17-.05l-2.32-1.32a.34.34.0 0 1-.12-.46.32.32.0 0 1 .45-.12l2.33 1.32a.34.34.0 0 1 .12.46A.32.32.0 0 1 28.9 119.93zm33.16-1.49a.33.33.0 0 1-.17-.62l2.27-1.4a.33.33.0 0 1 .46.1.33.33.0 0 1-.11.46l-2.27 1.41A.41.41.0 0 1 62.06 118.44zm-36.35-.34a.33.33.0 0 1-.17.0l-2.32-1.33a.33.33.0 0 1-.13-.45.34.34.0 0 1 .46-.13l2.32 1.33a.33.33.0 0 1 .13.45A.34.34.0 0 1 25.71 118.1z"/><path class="cls-7" d="M45.2 131.63a8.17 8.17.0 0 1-2.44-.39.34.34.0 0 1-.22-.42.33.33.0 0 1 .42-.22 7.26 7.26.0 0 0 2.52.36.33.33.0 0 1 .35.32.33.33.0 0 1-.32.34zm1.29-.13a.34.34.0 0 1-.33-.27.33.33.0 0 1 .26-.39 5.33 5.33.0 0 0 1.75-.71l.56-.35a.33.33.0 0 1 .35.57l-.56.35a6.07 6.07.0 0 1-2 .79zm-4.57-.6a.31.31.0 0 1-.13.0 7.65 7.65.0 0 1-1.21-.63l-1.17-.67a.33.33.0 1 1 .33-.58l1.2.68a6.54 6.54.0 0 0 1.11.59.33.33.0 0 1-.13.64zm7.84-1a.31.31.0 0 1-.28-.16.33.33.0 0 1 .11-.46l2.27-1.4a.33.33.0 1 1 .35.57l-2.27 1.4A.31.31.0 0 1 49.76 129.87zm-11.06-.75a.33.33.0 0 1-.16-.05l-2.33-1.32a.34.34.0 0 1-.12-.46.33.33.0 0 1 .46-.12l2.32 1.32A.34.34.0 0 1 39 129 .32.32.0 0 1 38.7 129.12zm14.19-1.18a.32.32.0 0 1-.28-.15.34.34.0 0 1 .11-.47l2.27-1.4a.33.33.0 1 1 .35.57l-2.27 1.4A.31.31.0 0 1 52.89 127.94zm-17.38-.65a.35.35.0 0 1-.17.0L33 125.92a.33.33.0 0 1 .33-.58l2.33 1.33a.33.33.0 0 1-.17.62zM56 126a.32.32.0 0 1-.28-.15.33.33.0 0 1 .11-.46L58.12 124a.33.33.0 0 1 .46.11.34.34.0 0 1-.1.46L56.2 126A.31.31.0 0 1 56 126zm-23.7-.54a.34.34.0 0 1-.17.0l-2.32-1.32a.34.34.0 0 1-.13-.46.33.33.0 0 1 .46-.12l2.32 1.32a.34.34.0 0 1 .13.46A.35.35.0 0 1 32.32 125.47zm26.83-1.39a.32.32.0 0 1-.28-.15.33.33.0 0 1 .11-.46l2.28-1.41a.33.33.0 0 1 .46.11.35.35.0 0 1-.11.46L59.33 124A.31.31.0 0 1 59.15 124.08zm-30-.44a.32.32.0 0 1-.16.0l-2.33-1.33a.33.33.0 0 1-.12-.45.34.34.0 0 1 .46-.13L29.29 123a.33.33.0 0 1-.17.62zm33.17-1.49a.33.33.0 0 1-.18-.61l2.28-1.41a.34.34.0 0 1 .46.11.35.35.0 0 1-.11.46l-2.28 1.4A.28.28.0 0 1 62.29 122.15zm-36.36-.33a.37.37.0 0 1-.17.0l-2.32-1.32a.34.34.0 0 1-.12-.46.33.33.0 0 1 .45-.12l2.33 1.32a.34.34.0 0 1 .12.46A.32.32.0 0 1 25.93 121.82z"/><path class="cls-7" d="M45.2 135.35a8.19 8.19.0 0 1-2.44-.4.34.34.0 1 1 .2-.64 7.55 7.55.0 0 0 2.24.37h.28a.33.33.0 0 1 .35.32.34.34.0 0 1-.32.35C45.41 135.34 45.3 135.36 45.2 135.35zm1.29-.14a.33.33.0 0 1-.07-.66 5.33 5.33.0 0 0 1.75-.71l.56-.35a.35.35.0 0 1 .46.11.33.33.0 0 1-.11.46l-.56.35a6.1 6.1.0 0 1-2 .8zm-4.57-.6h-.13a8.8 8.8.0 0 1-1.21-.63l-1.17-.68a.33.33.0 0 1-.13-.45.34.34.0 0 1 .46-.13l1.2.69a8.14 8.14.0 0 0 1.11.58.34.34.0 0 1 .18.44A.34.34.0 0 1 41.92 134.61zm7.84-1a.33.33.0 0 1-.28-.16.33.33.0 0 1 .11-.46l2.27-1.41a.35.35.0 0 1 .46.11.33.33.0 0 1-.11.46l-2.27 1.41A.41.41.0 0 1 49.76 133.59zm-11.06-.76a.32.32.0 0 1-.16.0l-2.33-1.33a.34.34.0 0 1 .34-.58l2.32 1.33a.33.33.0 0 1-.17.62zm14.19-1.17a.33.33.0 0 1-.17-.62L55 129.63a.35.35.0 0 1 .46.11.33.33.0 0 1-.11.46l-2.27 1.41A.41.41.0 0 1 52.89 131.66zM35.51 131a.37.37.0 0 1-.17.0L33 129.64a.34.34.0 0 1-.12-.46.33.33.0 0 1 .45-.13l2.33 1.33a.34.34.0 0 1 .12.46A.32.32.0 0 1 35.51 131zM56 129.73a.33.33.0 0 1-.17-.62l2.27-1.41a.35.35.0 0 1 .46.11.33.33.0 0 1-.1.46l-2.28 1.41A.41.41.0 0 1 56 129.73zm-23.7-.55a.33.33.0 0 1-.17.0l-2.32-1.33a.33.33.0 1 1 .33-.58l2.32 1.33a.33.33.0 0 1 .13.45A.35.35.0 0 1 32.32 129.18zm26.83-1.38a.33.33.0 0 1-.17-.62l2.28-1.41a.35.35.0 0 1 .46.11.35.35.0 0 1-.11.46l-2.28 1.41A.41.41.0 0 1 59.15 127.8zm-30-.44a.33.33.0 0 1-.16.0L26.63 126a.34.34.0 0 1-.12-.46.33.33.0 0 1 .46-.12l2.32 1.32a.34.34.0 0 1 .12.46A.32.32.0 0 1 29.12 127.36zm33.16-1.49a.33.33.0 0 1-.17-.62l2.28-1.41a.35.35.0 0 1 .46.11.35.35.0 0 1-.11.46l-2.28 1.41A.37.37.0 0 1 62.28 125.87zm-36.35-.34a.35.35.0 0 1-.17.0l-2.32-1.33a.33.33.0 0 1 .33-.58l2.33 1.33a.33.33.0 0 1-.17.62z"/><path class="cls-1" d="M65.77 106.88 48.21 96.82A8.69 8.69.0 0 0 39 97.4L22.46 107"/><path class="cls-8" d="M51.08 6s1.67-3.68 4-4.35c0 0 12.37 2.34 20.06 10 0 0-13.37-7.69-18.89-3.51z"/><path class="cls-9" d="M38 6s-1.67-3.68-4-4.35c0 0-12.37 2.34-20.06 10 0 0 12.7-7.69 18.89-3.51z"/><path class="cls-10" d="M57.56 86.5S76 55.81 75.75 38.44C75.33 12 52.78 5.7 52.78 5.7l-7.64 7.22c5 3.47 6.63 29.91 6.63 29.91 1.1 11.45-5 47-5 47z"/><path class="cls-10" d="M31.09 85.51S11.78 56.26 11.25 39.42C10.43 13.75 32.71 6.63 32.71 6.63l8.1 6.65c-4.69 3.59-5.05 29.29-5.05 29.29-.54 11.14 5.94 45.64 5.94 45.64z"/><path class="cls-8" d="M32.71 6.63A29.64 29.64.0 0 0 14.83 22.44a29 29 0 0 1 8.88 7.71S31.11 25.7 37 25c0 0 .8-6.83 3.78-11.68C40.81 13.28 41.22 9.59 32.71 6.63z"/><path class="cls-9" d="M12.31 47.42s4.31 2.15 12.4 7a78 78 0 0 1 11-7s1.82 15.22 2.52 20.41a64.6 64.6.0 0 0-7.37 7.08 25.62 25.62.0 0 1-9.16-5.75A59.86 59.86.0 0 1 12.31 47.42z"/><path class="cls-1" d="M32.8 12.2S9.08 27.29 35.31 85.87"/><path class="cls-8" d="M51 61s9.47-3.6 11.87-7.61c0 0 5.13 6.43 6.59 9.88.0.0-5.48 13.43-8.29 16.53a45.14 45.14.0 0 1-3.23-5.41s-7.28 6.84-9.74 5.66C48.17 80.09 50.14 67 51 61z"/><path class="cls-9" d="M51.64 40.24S61.82 32 62.41 28.79c0 0 8.59 1.26 13.3 6.78.0.0-.12-22.06-22.93-29.87l-7.64 7.22S49.66 18.08 51.64 40.24z"/><path class="cls-1" d="M52.19 11.66s25.16 14.38 1 76"/><path class="cls-9" d="M27.51 3.62s5.68-.34 7.85 3.51"/><path class="cls-8" d="M53.42 7s2.51-5.68 10.86-2.34"/><ellipse class="cls-11" cx="20.22" cy="29.6" rx="11.27" ry="10.2" transform="translate(-13.03 16.21) rotate(-33.73)"/><ellipse class="cls-10" cx="45" cy="10.1" rx="14.21" ry="6.81"/><ellipse class="cls-12" cx="45.06" cy="9.69" rx="7.11" ry="3.41"/><path class="cls-10" d="M62.24 86.83c-3.11 3-10.06 5-18.13 5-8.42.0-15.62-2.23-18.51-5.38l-5.23-9.34s24.06 18.13 47.82.0z"/><path class="cls-13" d="M45.38 103.37c-.55-.33-1.56.61-2 .87a1 1 0 0 0-.32.26c-.28.37.0.9.19 1.31.87 1.55 2.51 4.17 2.22 6-.09.59.76 1.7 1.35 2.29a.23.23.0 0 0 .39-.14 4.12 4.12.0 0 0 .08-1.34 13.46 13.46.0 0 0-.46-1.49 9.25 9.25.0 0 1-.16-2.11 18.83 18.83.0 0 0-1.06-5.31A.75.75.0 0 0 45.38 103.37z"/><path class="cls-13" d="M31.4 105.87a6.11 6.11.0 0 0 .3-.85.58.58.0 0 0-.23-.64c-.29-.18-.55-.42-.8-.6a3.5 3.5.0 0 0-.79-.5c-.19-.07-.33-.09-.41.13a.23.23.0 0 1-.08.11 17 17 0 0 0-.94 6.24 1.52 1.52.0 0 1 0 .52 1.41 1.41.0 0 1-.31.49 2.48 2.48.0 0 0-.43 1.75 1.42 1.42.0 0 0 1.08 1.32l.25-1v0a.19.19.0 0 0 .18.0 1.18 1.18.0 0 0 .46-1.32 3.48 3.48.0 0 1-.25-.68 1.4 1.4.0 0 1 .16-.69z"/><path class="cls-14" d="M41.63 119.05c0-2.36-.49-7.08-.49-7.08l.47-2.74-8.88-.29s-.37 5.89-.25 8.7l3.3-.6c.19-3.7.39-2.37.76-2.77l.56.4a17.69 17.69.0 0 1 1.19 5.17z"/><path class="cls-15" d="M30.36 104.78a3.35 3.35.0 0 0 1.17.16h.12v0a.6.6.0 0 0 .32-.22 1.18 1.18.0 0 0 .17-.77 20.18 20.18.0 0 0 1.22-3.31 76.17 76.17.0 0 0-1.2 7.68 6.76 6.76.0 0 0 .4 1.78 16.59 16.59.0 0 0 4.56.83 24.12 24.12.0 0 0 2.65.06 13.83 13.83.0 0 0 1.57-.12c0-.13.08-.25.11-.38l.69-1.71v-4c.34.11.75.76 1.11 1.17a1.18 1.18.0 0 0 .27.23.74.74.0 0 0 .33.0 2.87 2.87.0 0 0 1.51-.24 1.37 1.37.0 0 0 .66-1.71 5.29 5.29.0 0 1-.42-1.35c-.12-.6-.14-1.22-.28-1.82a15.66 15.66.0 0 0-2.58-6c-1.24-1.65-3.79-2.07-5.64-1.6a12.62 12.62.0 0 0-1.35.46 8.28 8.28.0 0 0-4.72 4.79c-.06.14-.12.27-.17.41-.25.61-.47 1.23-.69 1.86a2.62 2.62.0 0 1-.35.84c-.35.42-.66.52-.85 1.11a1.13 1.13.0 0 0-.08.72A2.4 2.4.0 0 0 30.36 104.78z"/><path class="cls-13" d="M40.09 87.73a2.12 2.12.0 0 0-2.43 1.85.19.19.0 0 1-.18.21 2.69 2.69.0 0 0 .46 2l.07.09a4.05 4.05.0 0 1-.69 1.75.69.69.0 0 0-.14.34.5.5.0 0 0 .12.28 21 21 0 0 0 1.75 2.41.59.59.0 0 0 1-.14c.36-.66.7-1.46 1.06-2a.39.39.0 0 0 .08-.29.31.31.0 0 0-.1-.15 2 2 0 0 0-.86-.48l.08-.47h.13a1.05 1.05.0 0 0 1-.5 1.92 1.92.0 0 0 .15-.71l.11-1.44c0-.19.0-.37.0-.55v-.11c0-.1.0-.2.0-.3C41.31 88.82 41 87.81 40.09 87.73z"/><path class="cls-13" d="M48.36 104.61c-.38 1.7-1.36 3.16-2 4.78a11.68 11.68.0 0 0-.69 5.08c.92-2.58 3.13-4.51 3.81-7.17a3.27 3.27.0 0 0-.19-2.52.91.91.0 0 0-.63-.46.46.46.0 0 0-.46.53z"/><path class="cls-16" d="M52.51 91.46a2.58 2.58.0 0 1 2.35.54c.57.5.53 1.18.69 1.87s.76 1.57.62 2.38C56 97.57 54.32 97.32 54 98.43c-.11.37-.14.76-.26 1.12A2.35 2.35.0 0 1 52.08 101a3.74 3.74.0 0 1-2.19-.21 2.2 2.2.0 0 1-1-.67 1.12 1.12.0 0 1-.14-1.21c.14-.23.38-.38.52-.61.46-.79.13-1.69.71-2.54.44-.62 1.17-1.14 1.32-2 .1-.54-.09-1.15.14-1.63A1.47 1.47.0 0 1 52.51 91.46z"/><path class="cls-16" d="M39.14 90.75a1.46 1.46.0 0 1 .51-.73 2.27 2.27.0 0 1 1.73-.36c.37.11.38.18.7-.1a.85.85.0 0 0 .21-.25.29.29.0 0 0 0-.31c-.08-.1-.23-.1-.36-.11-.63-.09-.83-1-1.37-1.26a2.17 2.17.0 0 0-3.12 1.13 3.39 3.39.0 0 0 0 1.27c0 .36.09 2.09.38 2.25s.6-.21.68-.49-.06-.34-.16-.65C38.09 90.3 38.67 90.3 39.14 90.75z"/><path class="cls-13" d="M47.56 121.18V121.17v0V121.18z"/><path class="cls-13" d="M54.08 120.22c-.06-2.17.76-2.74.88-4.89.0-.86-.06-4.21-1-4.71h0a.88.88.0 0 0-.54.0 9.52 9.52.0 0 1-1.31.0c-.82.0-1.55-1.93-2.31-2.25-.21.4-.33 1-.49 1.39-1.29 3-1.71 8.22-1.71 11.42.0.1.0.21.0.31s0 .07.0.13l2.6-.34c.08-.59.59-6.19 1.07-6 .82.24.51 2.94.46 3.57.0.0.17 1 .17 1z"/><path class="cls-17" d="M45 115.73v0c.14.24 1.37.32 1.59.2a.6.6.0 0 0 .19-.27 9.74 9.74.0 0 0 .47-2c.3-2 .67-4 1-5.93a.41.41.0 0 0 0-.22c-.07-.16-.28-.14-.42-.08a2.72 2.72.0 0 0-1.3 1.39 17.47 17.47.0 0 0-1.23 4.68A7.3 7.3.0 0 0 45 115.73z"/><path class="cls-18" d="M55.52 98.35v.34l.06-.34z"/><path class="cls-13" d="M59.63 109.15c-.34-.89-.72-1.78-1-2.69a24.67 24.67.0 0 1-.71-5.16 4.52 4.52.0 0 0-.26-1.42 2.38 2.38.0 0 0-1.78-1.38c0 .14.0.29.0.43a6.09 6.09.0 0 1 .29 2.21.3.3.0 0 1-.18.25c.05.3.08.6.1.9a31.06 31.06.0 0 0 .26 3.22 12.15 12.15.0 0 0 2 4.35l.36.52a3.06 3.06.0 0 1 .57 1.14c0 .23.0.48.06.72a1.9 1.9.0 0 0 .75 1.28c.19-.08.25-.34.26-.56A9.19 9.19.0 0 0 59.63 109.15z"/><path class="cls-19" d="M58.58 104.27c-.15-1-.3-2-.46-3A4 4 0 0 0 55.74 98a.19.19.0 0 0-.13.0l-.18-.11-.11-.07a6 6 0 0 0-.9-.43 2.86 2.86.0 0 0-1.85.0l-.7.23h0l-.16.06h0c-1.93.73-2.33 2.42-3 4.31a9.23 9.23.0 0 1-.91 1.9.62.62.0 0 0 .06.75 2 2 0 0 0 1.11.6 12.53 12.53.0 0 0-.65 2c-.14.5-.29 1-.42 1.58-.33 1.25-.6 2.4-.64 2.65-.15.86-1.54 5 .5 4.58.24-.05.47-.19.7-.11a1.1 1.1.0 0 1 .35.3 1.69 1.69.0 0 0 1.6.47 4.15 4.15.0 0 1 .69-.19c.69-.08 1.48.53 2 .06a1.17 1.17.0 0 1 .24-.21.65.65.0 0 1 .5.09 4.39 4.39.0 0 0 1.81.23.66.66.0 0 0 .36-.08c.1-.07.17-.2.29-.24a.66.66.0 0 1 .24.0c.87-.08.79-1.7.66-2.32-.09-.45-.24-.89-.34-1.34-.19-.9-.15-1.81-.28-2.7a19.88 19.88.0 0 1-.27-4.85 5.14 5.14.0 0 0 2-.46.35.35.0 0 0 .2-.16A.36.36.0 0 0 58.58 104.27z"/><path class="cls-13" d="M55.32 97.71l-.48-.25-.49-.76a3.21 3.21.0 0 1-.53-2.1l.1-1a2.34 2.34.0 0 1-1.8-.85S51 94.9 51.92 96c.27.31 1 .27 1 .27l-.24 1h-.11l-.7.23h0l-.16.06a5.61 5.61.0 0 0 .61 2.39c.07.13.18.27.33.26a.51.51.0 0 0 .23-.12l1.67-1.49a10.07 10.07.0 0 0 .88-.85A.41.41.0 0 1 55.32 97.71z"/><g class="cls-20"><path class="cls-21" d="M48.07 113.73h0z"/></g><path class="cls-22" d="M50 113.46a.49.49.0 0 0 .48.27c.31.0.59.0.89.06a11.27 11.27.0 0 0 1.92.13 6.47 6.47.0 0 0 1.75-.23 1.57 1.57.0 0 0 1-.65c.05-.08-.08-.16-.13-.08a1.58 1.58.0 0 1-1 .61 6.61 6.61.0 0 1-1.6.19 12 12 0 0 1-1.69-.09c-.24.0-.48-.09-.73-.1s-.62.09-.74-.19c0-.09-.17.0-.13.08z"/><path class="cls-22" d="M55.56 110.35a2.55 2.55.0 0 1-1.78.23 6.47 6.47.0 0 0-.88.0 2.81 2.81.0 0 0-.85.22.79.79.0 0 1-.64.0c-.12-.06-.21-.16-.33-.21-.31-.13-.64.0-1-.06a8.31 8.31.0 0 1-1-.39L48 109.73c-.09.0-.13.12.0.15l1.16.45a5.7 5.7.0 0 0 1.05.37 1.77 1.77.0 0 0 .46.0 1 1 0 0 1 .61.17A.81.81.0 0 0 52 111a3.68 3.68.0 0 1 1-.25 8.55 8.55.0 0 1 1 .06 2.33 2.33.0 0 0 1.65-.28c.08.0.0-.19-.07-.13z"/><path class="cls-22" d="M48.77 107.14a.48.48.0 0 0 0 .54.8.8.0 0 0 .66.29 11.66 11.66.0 0 1 2.28.29c.37.09.72.22 1.08.34a1.45 1.45.0 0 0 .89-.12 8 8 0 0 1 2.27-.29c.1.0.1-.15.0-.16a7.59 7.59.0 0 0-1.77.17 7.49 7.49.0 0 0-.9.24 1.66 1.66.0 0 1-1-.18 10.05 10.05.0 0 0-1.71-.38c-.31.0-.63-.06-.94-.07a1.5 1.5.0 0 1-.47.0c-.22-.06-.46-.28-.32-.55.0-.09-.08-.17-.12-.08z"/><path class="cls-17" d="M56.75 98.7a5.94 5.94.0 0 1-.61 1.75 14.09 14.09.0 0 1-1.71 2.23c-.76.72-1.58 1.39-2.38 2s-1.37 1.12-2 1.71a14.21 14.21.0 0 0-2.11 2.32c.13-.53.28-1.07.42-1.58.38-.42.8-.84 1.26-1.27.67-.61 1.38-1.18 2.06-1.74s1.6-1.3 2.34-2a12.58 12.58.0 0 0 1.6-2.09 5.84 5.84.0 0 0 .57-1.81c.16.11.3.22.42.32z"/><path class="cls-23" d="M42.16 104.78a12.71 12.71.0 0 0-.11-3.54"/><path class="cls-24" d="M65.83 107l-1.27-.74L49.7 114.84a10.69 10.69.0 0 1-10.69.0l-14.85-8.58-1.29.74 18.69 10.64 1.82 1.58 5.72-.33 5.39-3.82z"/><path class="cls-25" d="M22.88 108.45V112h0a2.76 2.76.0 0 0 1.38 2.38L40 123.48a8.32 8.32.0 0 0 8.33.0L64 114.42A2.76 2.76.0 0 0 65.35 112h0v-3.8l-16.83 10a7.93 7.93.0 0 1-7.9.11z"/><path class="cls-26" d="M22.58 107.14v3.59h0A2.74 2.74.0 0 0 24 113.11l15.87 9.06a8.51 8.51.0 0 0 8.43.0l15.88-9.06a2.74 2.74.0 0 0 1.39-2.38h0v-3.8l-17 10a8.08 8.08.0 0 1-8 .1z"/><path class="cls-1" d="M65.77 106.88l-17.25 10a7.83 7.83.0 0 1-6.8.72L22.46 107"/></g></g></svg>