<svg xmlns="http://www.w3.org/2000/svg" viewBox="0 0 1920 340"><defs><style>.cls-1{opacity:.5}.cls-2{fill:#c6e9ff;opacity:.44}.cls-3{fill:#d1e7ff}.cls-4{fill:none}</style></defs><title>contact-cloud03</title><g id="圖層_2" data-name="圖層 2"><g id="聯絡"><g class="cls-1"><path class="cls-2" d="M596.23 322.06a2.38 2.38.0 0 0-2.31-1.82 2.41 2.41.0 0 0-.93.19 2.91 2.91.0 0 0-2.38-1.24 3.29 3.29.0 0 0-.71.09 5.86 5.86.0 0 0-11.41-.37 3.17 3.17.0 0 0-.87-.14 3.1 3.1.0 0 0-3.1 3.09 4.76 4.76.0 0 0 1.3 9.35h19.67a4.59 4.59.0 0 0 .74-9.13z"/><path class="cls-3" d="M596.23 322.06a2.38 2.38.0 0 0-2.31-1.82 2.41 2.41.0 0 0-.93.19 2.91 2.91.0 0 0-2.38-1.24 3.29 3.29.0 0 0-.71.09 5.86 5.86.0 0 0-11.41-.37 3.17 3.17.0 0 0-.87-.14 3.1 3.1.0 0 0-3.1 3.09 4.75 4.75.0 0 0-3.39 3.66c0-.08.08-.16.13-.24a5.5 5.5.0 0 1 2.84-2.45 3.43 3.43.0 0 1 2-.08c.17-1.52 2.27-2.62 3.48-1.7-.71-2.55 2.9-4.4 5-4.28a4.27 4.27.0 0 1 4 2.79 3.22 3.22.0 0 0-4.48 1.85 3.56 3.56.0 0 0-4.28 2.5s2-2.28 4.41-1c0 0 1.39-2.37 4.38-.5v-.12c.68-2.09 4.13-1.57 3.86.71.49-1.39 3.23-.66 3 1 .63-1.06 3.38-.43 4 .48A4.6 4.6.0 0 0 596.23 322.06z"/></g><g class="cls-1"><path class="cls-2" d="M1326 267.05a3.15 3.15.0 0 1 3-2.23 3 3 0 0 1 .42.05 3.68 3.68.0 0 1 3.54-3 3.05 3.05.0 0 1 .74.08A5.57 5.57.0 0 1 1339 257a5.41 5.41.0 0 1 4.52 2.54 6.64 6.64.0 0 1 3.59-1.07 7.21 7.21.0 0 1 7 7.42c0 .16.0.3.0.45a3.43 3.43.0 0 1 2 .93 5.56 5.56.0 0 1 2.62-.66c3.78.0 5.83 2.38 5.83 6.2v.13a.28.28.0 0 1 0 .09 6 6 0 0 1-5.46 6h-31.3a5.72 5.72.0 0 1-4.09-2.19 6.39 6.39.0 0 1-1.38-4A6.2 6.2.0 0 1 1326 267.05z"/><path class="cls-3" d="M1356 270.2c-.32-1.81-2.44-2.8-3.56-1.54.43-6.56-7.78-7.43-9.55-5.27-.5-1.82-5.6-3.13-7.52.0-1.24-1.11-5.11-.17-4.48 3.3-1.9-2.13-4.65.88-3.7 2.42a1.79 1.79.0 0 0-2.62-1.2 6 6 0 0 1 1.38-.82 3.15 3.15.0 0 1 3-2.23 3 3 0 0 1 .42.05 3.68 3.68.0 0 1 3.54-3 3.05 3.05.0 0 1 .74.08A5.57 5.57.0 0 1 1339 257a5.41 5.41.0 0 1 4.52 2.54 6.64 6.64.0 0 1 3.59-1.07 7.21 7.21.0 0 1 7 7.42c0 .16.0.3.0.45a3.43 3.43.0 0 1 2 .93 5.56 5.56.0 0 1 2.62-.66 5.41 5.41.0 0 1 2.53.62C1360.49 267.06 1357 267.08 1356 270.2z"/></g><path class="cls-4" d="M0 0h1920v340H0z"/></g></g></svg>