<svg xmlns="http://www.w3.org/2000/svg" viewBox="0 0 379.08 235.6"><defs><style>.cls-1{isolation:isolate}.cls-2{fill:#a4aaab}.cls-3{fill:#e3e3e3}.cls-4,.cls-55,.cls-57,.cls-62{fill:none}.cls-4{stroke:#fff;stroke-miterlimit:10;stroke-width:2.7px;stroke-dasharray:11.08 9.23 11.08 9.23 11.08 9.23}.cls-10,.cls-5,.cls-9{fill:#d2d2d4}.cls-11,.cls-14,.cls-16,.cls-17,.cls-19,.cls-20,.cls-21,.cls-22,.cls-23,.cls-24,.cls-25,.cls-26,.cls-27,.cls-28,.cls-29,.cls-30,.cls-31,.cls-32,.cls-33,.cls-34,.cls-35,.cls-36,.cls-37,.cls-38,.cls-40,.cls-42,.cls-44,.cls-45,.cls-46,.cls-47,.cls-49,.cls-5,.cls-50,.cls-51,.cls-53,.cls-54,.cls-55,.cls-58,.cls-59,.cls-6,.cls-60,.cls-64,.cls-65,.cls-66,.cls-67,.cls-68,.cls-69,.cls-7,.cls-70,.cls-71,.cls-72,.cls-73,.cls-75{stroke:#4d3224}.cls-11,.cls-14,.cls-16,.cls-17,.cls-19,.cls-20,.cls-21,.cls-22,.cls-23,.cls-24,.cls-25,.cls-26,.cls-27,.cls-28,.cls-29,.cls-30,.cls-31,.cls-32,.cls-33,.cls-34,.cls-35,.cls-36,.cls-37,.cls-38,.cls-40,.cls-42,.cls-43,.cls-44,.cls-45,.cls-46,.cls-47,.cls-49,.cls-5,.cls-50,.cls-51,.cls-53,.cls-54,.cls-55,.cls-57,.cls-58,.cls-59,.cls-6,.cls-60,.cls-62,.cls-64,.cls-65,.cls-66,.cls-67,.cls-68,.cls-69,.cls-7,.cls-70,.cls-71,.cls-72,.cls-73,.cls-75{stroke-linecap:round;stroke-linejoin:round}.cls-11,.cls-14,.cls-16,.cls-17,.cls-19,.cls-20,.cls-33,.cls-34,.cls-35,.cls-36,.cls-37,.cls-38,.cls-40,.cls-42,.cls-43,.cls-44,.cls-45,.cls-46,.cls-47,.cls-49,.cls-5,.cls-50,.cls-51,.cls-53,.cls-54,.cls-55,.cls-57,.cls-58,.cls-59,.cls-6,.cls-60,.cls-62,.cls-7{stroke-width:1.37px}.cls-6{fill:#e3e3e4}.cls-7{fill:#a9a9a9}.cls-11,.cls-8{fill:#4d3224}.cls-9{opacity:.69}.cls-12{fill:#fff}.cls-13,.cls-14,.cls-73{fill:#80d8d6}.cls-15,.cls-17{fill:#d0ebea}.cls-16{fill:#a1a2b0}.cls-18{fill:#707078}.cls-19{fill:#d2d2de}.cls-20,.cls-21,.cls-66{fill:#50a33f}.cls-21,.cls-22,.cls-23,.cls-24,.cls-25,.cls-26,.cls-27,.cls-28,.cls-29,.cls-30,.cls-31,.cls-32{stroke-width:1.44px}.cls-22,.cls-37,.cls-75{fill:#8acc2b}.cls-23{fill:#eedd0f}.cls-24{fill:#5b4f52}.cls-25{fill:#d07537}.cls-26{fill:#f1af6d}.cls-27{fill:#6b6365}.cls-28{fill:#f3f376}.cls-29{fill:#757072}.cls-30{fill:#fbfaf9}.cls-31{fill:#eeece9}.cls-32{fill:#c0d5e4}.cls-33{fill:#f8f3e0}.cls-34{fill:#c5380c}.cls-35{fill:#a9becd}.cls-36{fill:#a97813}.cls-38,.cls-67{fill:#f1d4c2}.cls-39{fill:#e0bfa9}.cls-40{fill:#e0ab8b}.cls-41,.cls-49{fill:#9a8e80}.cls-42{fill:#e4967d}.cls-43,.cls-45{fill:#da8571}.cls-43{stroke:#da8571}.cls-44{fill:#da7962}.cls-46{fill:#805c54}.cls-47,.cls-74{fill:#ff9563}.cls-48{fill:#de744c}.cls-50{fill:#426e75}.cls-51,.cls-70{fill:#f27e52}.cls-52,.cls-71{fill:#ffb563}.cls-53{fill:#77c4ce}.cls-54{fill:#5aabb9}.cls-56{opacity:.23;mix-blend-mode:color-dodge}.cls-57{stroke:#80d8d6}.cls-58{fill:#e6ffff}.cls-59{fill:#9fc2c4}.cls-60{fill:#c9e2ff}.cls-61{opacity:.4}.cls-62{stroke:#426e75}.cls-63{fill:#4e98a0}.cls-64{fill:#7bb52d}.cls-64,.cls-65,.cls-67,.cls-68,.cls-69,.cls-70,.cls-71,.cls-72,.cls-73,.cls-75{stroke-width:1.18px}.cls-65{fill:#659225}.cls-66{stroke-width:1.48px}.cls-68{fill:#d75968}.cls-69{fill:#c46048}.cls-72{fill:#a14f3b}.AirCamera{-webkit-animation:AirCamera-An 4s linear infinite;animation:AirCamera-An 4s linear infinite}@keyframes AirCamera-An{0%{-webkit-transform:rotate(-5deg) scale(1.2) translate(80px);transform:rotate(-5deg) scale(1.2) translate(80px)}50%{-webkit-transform:rotate(-5deg) scale(1.2) translate(0px);transform:rotate(-5deg) scale(1.2) translate(0px)}100%{-webkit-transform:rotate(-5deg) scale(1.2) translate(80px);transform:rotate(-5deg) scale(1.2) translate(80px)}}</style></defs><title>contact-islands-about</title><g class="cls-1"><path class="cls-2" d="M47.36 94.84C31.64 98 15 108.08 12 126.23-4.56 226.7 310.82 188.6 354.11 186.86c.06.0 64.15-2.58-13.28-31.32.0.0-85.14-19.8-45.52-55.59C295.31 1e2 109.88 82.35 47.36 94.84z"/><path class="cls-3" d="M47.91 99.66c-15.43 2.83-31.75 11.92-34.69 28.24C-3.06 218.28 306.61 184 349.11 182.44c.06.0 63-2.32-13-28.17.0.0-83.59-17.81-44.69-50C291.38 104.26 109.31 88.43 47.91 99.66z"/><path class="cls-4" d="M268.71 110.67s-153-15-219 1.37C2.27 123.84 36 161.59 65 168c94.8 20.95 230.64 13.1 298.55 4"/><path class="cls-8" d="M367.52 49.84h3.04v10.07H367.52z"/><path class="cls-8" d="M363.11 50.68h3.04v11.75H363.11z"/><path class="cls-8" d="M358.7 48.58h3.04v10.91H358.7z"/><path class="cls-8" d="M343.33 48.16h3.04v12.59H343.33z"/><path class="cls-8" d="M352.28 49.42h3.04v15.11H352.28z"/><path class="cls-8" d="M347.73 51.66h3.04v11.75H347.73z"/><path class="cls-8" d="M336.71 52.92h3.04v10.49H336.71z"/><path class="cls-8" d="M332.51 51.24h3.04v15.11H332.51z"/><path class="cls-8" d="M321.52 46.2h3.04v15.95H321.52z"/><path class="cls-8" d="M314.19 46.9h3.04v16.79H314.19z"/><path class="cls-8" d="M303.52 46.06h3.04v14.69H303.52z"/><path class="cls-8" d="M298.16 51.1h3.04v13.85H298.16z"/><path class="cls-8" d="M308.98 46.48h3.04v18.47H308.98z"/><path class="cls-8" d="M290.48 53.2h3.04v10.49H290.48z"/><path class="cls-8" d="M286.51 54.32h3.04v10.91H286.51z"/><path class="cls-8" d="M281.72 48.16h3.04v15.11H281.72z"/><path class="cls-8" d="M277.14 48.86h3.04v13.01H277.14z"/><path class="cls-8" d="M272.9 49h3.04v15.95H272.9z"/><path class="cls-8" d="M268.49 46.9h3.04v13.43H268.49z"/><path class="cls-8" d="M264.23 50.12h3.04v13.85H264.23z"/><path class="cls-8" d="M258.87 49h3.04v11.75H258.87z"/><path class="cls-8" d="M254.31 51.94h3.04v12.17H254.31z"/><path class="cls-8" d="M248.84 47.74h3.04v14.69H248.84z"/><path class="cls-8" d="M244.03 49.42h3.04v14.69H244.03z"/><path class="cls-8" d="M238.42 49h3.04v14.69H238.42z"/><path class="cls-8" d="M234.26 56h3.04v10.91H234.26z"/><path class="cls-8" d="M229.6 51.1h3.04v12.59H229.6z"/><path class="cls-8" d="M225.63 49.28h3.04v13.85H225.63z"/><path class="cls-8" d="M219.64 50.26h3.04v11.75H219.64z"/><path class="cls-8" d="M215.57 48.58h3.04v11.75H215.57z"/><path class="cls-8" d="M211.16 48.58h3.04v12.59H211.16z"/><path class="cls-8" d="M206.34 51.52h3.04v8.81H206.34z"/><path class="cls-20" d="M204.82 45.64h0c0-.08.0-.14.0-.22h0a4.17 4.17.0 0 1-2.66-4 4 4 0 0 1 3.81-4.2 3.56 3.56.0 0 1 2.28.86 7.62 7.62.0 0 1 4.75-1.7h.15a5.76 5.76.0 0 1 5.36-4.22c3.15.0 5.7 2.82 5.7 6.3.0.0.0.08.0.13a4.27 4.27.0 0 1 .51.3 7.69 7.69.0 0 1 6.8-5.44 3.08 3.08.0 0 1-.84-2.13 2.81 2.81.0 0 1 2.66-2.94A2.76 2.76.0 0 1 236 31a2.84 2.84.0 0 1 .42-.05 4.06 4.06.0 0 1 3.43 2 9.57 9.57.0 0 1 2-1.38 2.8 2.8.0 0 1-.9-2.09 2.48 2.48.0 1 1 4.94.0 2.87 2.87.0 0 1-.2 1.07h.39a9.21 9.21.0 0 1 3.91.87 4.21 4.21.0 0 1 3.31-1.71 4 4 0 0 1 1.46.3 3.54 3.54.0 0 1-.13-.93 3.41 3.41.0 0 1 3.23-3.56 3 3 0 0 1 2.19.95 4.11 4.11.0 0 1 3.9-3.47 4 4 0 0 1 3.74 2.91 11 11 0 0 1 3.43 1.66 5.93 5.93.0 0 1 2.9-.8 6.67 6.67.0 0 1 6.34 5.87 8.39 8.39.0 0 1 5.83.24 6.13 6.13.0 0 1 5.69-4.43 5.55 5.55.0 0 1 2.07.43 8.1 8.1.0 0 1 1-.59 4.67 4.67.0 0 1-.75-2.56 4 4 0 1 1 8 0 4.61 4.61.0 0 1-1 2.88l.34.2a5.68 5.68.0 0 1 5.41-5 5.13 5.13.0 0 1 2.86.9s0 0 0-.06a2.67 2.67.0 1 1 5.32.0 3.21 3.21.0 0 1-.06.63 7.21 7.21.0 0 1 3.47 2.07v0a4 4 0 0 1 3.78-3.94 3.5 3.5.0 0 1 2.3.88c0-.09.0-.17.0-.25a5.16 5.16.0 1 1 10.26.0c0 .08.0.16.0.25s.26.0.4.0a6.18 6.18.0 0 1 6.08 6.29 7 7 0 0 1-.13 1.31c.29-.08.59-.16.89-.22v0a5.52 5.52.0 1 1 11-.21 9.55 9.55.0 0 1 3.64 4.23 6.45 6.45.0 0 1 4.74-2.13 6.92 6.92.0 0 1 6.46 5.18 5.73 5.73.0 0 1 2.47-.56c3.47.0 6.27 3.1 6.27 6.92s-2.8 6.93-6.27 6.93a5.74 5.74.0 0 1-2.93-.84 5.5 5.5.0 0 1-5.24 5 5.35 5.35.0 0 1-4.91-3.61 5.89 5.89.0 0 1-2.69.67 6 6 0 0 1-2.5-.55 4.8 4.8.0 0 1-4 2.23 4.67 4.67.0 0 1-3.26-1.39 6.65 6.65.0 0 1-5.48 3.07 6.52 6.52.0 0 1-4.8-2.18 8.45 8.45.0 0 1-6 2.6 8.61 8.61.0 0 1-6.9-3.61 6.27 6.27.0 0 1-5.08 2.77A6.7 6.7.0 0 1 310.21 50a7.65 7.65.0 0 1-1.8.23 7.54 7.54.0 0 1-4.1-1.26 5 5 0 0 1-.66 1.68c0 .07.0.14.0.21.0 5.22-3.83 9.45-8.55 9.45a8.39 8.39.0 0 1-7.24-4.44 4.17 4.17.0 0 1-1.32.24 4.62 4.62.0 0 1-4.29-3.4h-.31a4.94 4.94.0 0 1-9.36.12 3.87 3.87.0 0 1-1.62.36 4.2 4.2.0 0 1-3.83-2.77h-.05a6.11 6.11.0 0 1 .08.87 4.62 4.62.0 0 1-4.38 4.83 4.35 4.35.0 0 1-3.87-2.63 4.58 4.58.0 0 1-2.78 1A5 5 0 0 1 251.55 51a9.32 9.32.0 0 1-5.48 1.8 7 7 0 0 1-.81-.05 5.43 5.43.0 0 1 .24 1.52 4.62 4.62.0 0 1-4.37 4.83 4 4 0 0 1-2.2-.68 6.38 6.38.0 0 1-4.07 1.52c-3.55.0-6.43-3-6.78-6.81a5.35 5.35.0 0 1-3.49 1.35 5.68 5.68.0 0 1-5.12-3.58A7.89 7.89.0 0 1 213 54.46a7.62 7.62.0 0 1-4.69-1.65 4.09 4.09.0 0 1-3.49 2.07 4.64 4.64.0 0 1 0-9.24z"/><path class="cls-21" d="M337.66 201.43c.14-.11.35.0.53.0a5.45 5.45.0 0 0 1.44-10.54 3.81 3.81.0 0 0 .19-1.12c0-2.36-2.21-4.27-4.94-4.27a5.41 5.41.0 0 0-3.38 1.16 3.11 3.11.0 0 0-5.82 1.47 3 3 0 0 0 .24 1.16 4.21 4.21.0 0 0-1.42-.26 4.25 4.25.0 0 0-2.17 7.94 3.3 3.3.0 0 0-.33 1.43 4.07 4.07.0 0 0 4.33 3.75S332.46 205.53 337.66 201.43z"/><path class="cls-8" d="M333.39 196.89s-.25 3.93-2 4.3-2.88-6.32-2.88-6.32l.12 4.36-2.94-.62 3.06 1.84a14.56 14.56.0 0 0 1.66 2.21c.8.8-.31 9.81-.31 9.81h2.76s-.92-8-.18-9.32 3.61.18 5.34-3.8c0 0-2 2.39-3.68 2.21l.43-2.39s-1.29 3-2.15 2.82S334.43 200.21 333.39 196.89z"/><path class="cls-21" d="M294.36 196a4.29 4.29.0 0 1 4.3-4.27 4.21 4.21.0 0 1 1.42.26 3 3 0 0 1-.24-1.16 3.11 3.11.0 0 1 5.82-1.47 5.41 5.41.0 0 1 3.38-1.16c2.73.0 4.95 1.91 4.95 4.27a3.82 3.82.0 0 1-.2 1.12 5.47 5.47.0 1 1-7.26 6.58 6.16 6.16.0 0 1-1.75.54 2.57 2.57.0 0 1 .05.4c0 2.06-1.94 3.74-4.33 3.74a4.07 4.07.0 0 1-4.33-3.74 3.2 3.2.0 0 1 .33-1.44A4.25 4.25.0 0 1 294.36 196z"/><path class="cls-8" d="M307.55 199.58s-.25 3.92-2 4.29-2.88-6.32-2.88-6.32l.13 4.36-2.95-.61 3.07 1.83a15 15 0 0 0 1.65 2.21c.8.8-.3 9.81-.3 9.81H307s-.93-8-.19-9.32 3.62.19 5.34-3.8c0 0-2 2.39-3.68 2.21l.43-2.39s-1.29 3-2.15 2.82S308.59 202.89 307.55 199.58z"/><path class="cls-22" d="M326.41 202.31a7.63 7.63.0 0 0 2.76-14.78 5.17 5.17.0 0 0 .27-1.57c0-3.3-3.1-6-6.92-6a7.51 7.51.0 0 0-4.72 1.63 4.36 4.36.0 0 0-3.8-2.23 4.31 4.31.0 0 0-4.34 4.28 4.24 4.24.0 0 0 .33 1.63 5.93 5.93.0 0 0-8 5.6 5.91 5.91.0 0 0 3 5.13 4.59 4.59.0 0 0-.46 2c0 2.9 2.71 5.25 6.05 5.25.0.0 8.68 4.17 15.84-1"/><path class="cls-8" d="M320.44 196s-.35 5.49-2.84 6-4-8.84-4-8.84l.18 6.09-4.12-.85 4.29 2.57a20.28 20.28.0 0 0 2.32 3.09c1.11 1.11-.44 13.72-.44 13.72h3.86s-1.28-11.15-.25-13 5 .26 7.46-5.31c0 0-2.83 3.34-5.15 3.08l.6-3.34s-1.8 4.2-3 3.94S321.89 200.6 320.44 196z"/><path class="cls-23" d="M277.44 210.75h29.5v24.14h-29.5z"/><path class="cls-24" d="M261.35 224.15 272.07 216.11H293.53L282.8 224.15H261.35z"/><path class="cls-25" d="M261.35 224.15h21.45v10.73H261.35z"/><path class="cls-26" d="M282.8 224.15 293.53 216.11 304.26 224.15V234.88H282.8V224.15z"/><path class="cls-27" d="M277.44 210.75 288.16 202.7H317.67L306.94 210.75h-29.5z"/><path class="cls-28" d="M306.94 210.75 317.67 202.7 328.39 210.75V234.88H306.94V210.75z"/><path class="cls-29" d="M333.76 216.11 339.12 224.15H352.53L347.17 216.11H333.76z"/><path class="cls-30" d="M333.76 216.11 328.39 224.15V232.2H339.12V224.15L333.76 216.11z"/><path class="cls-31" d="M339.12 224.15h13.41v8.05H339.12z"/><path class="cls-32" d="M264.03 226.83h2.68v5.37H264.03z"/><path class="cls-32" d="M269.39 226.83h2.68v5.37H269.39z"/><path class="cls-32" d="M277.44 226.83h2.68v8.05H277.44z"/><path class="cls-32" d="M290.85 221.47h5.36v5.36H290.85z"/><path class="cls-32" d="M280.12 213.42h2.68v2.68H280.12z"/><path class="cls-32" d="M285.48 213.42h2.68v2.68H285.48z"/><path class="cls-32" d="M290.85 213.42h2.68v2.68H290.85z"/><path class="cls-32" d="M298.89 213.42h5.36v5.36H298.89z"/><path class="cls-32" d="M341.8 226.83h2.68v2.68H341.8z"/><path class="cls-32" d="M347.17 226.83h2.68v2.68H347.17z"/><path class="cls-32" d="M331.07 226.83h5.37v5.37H331.07z"/><path class="cls-32" d="M309.62 213.42h2.68v5.36H309.62z"/><path class="cls-32" d="M314.98 213.42h2.68v5.36H314.98z"/><path class="cls-32" d="M320.35 213.42h5.36v5.36H320.35z"/><path class="cls-32" d="M309.62 224.15h2.68v5.36H309.62z"/><path class="cls-32" d="M314.98 224.15h2.68v5.36H314.98z"/><path class="cls-32" d="M320.35 224.15h5.36v5.36H320.35z"/><path class="cls-33" d="M265.71 65.31h21.2v24.73H265.71z"/><path class="cls-34" d="M265.71 58.24h21.2v8.83H265.71z"/><path class="cls-35" d="M268.54 68.84h3.53v4.82H268.54z"/><path class="cls-35" d="M272.78 68.84h3.53v4.82H272.78z"/><path class="cls-35" d="M280.19 68.84h3.53v4.82H280.19z"/><path class="cls-35" d="M268.54 75.26h3.53v4.82H268.54z"/><path class="cls-35" d="M272.78 75.26h3.53v4.82H272.78z"/><path class="cls-35" d="M280.19 75.26h3.53v4.82H280.19z"/><path class="cls-35" d="M268.54 81.68h3.53v4.82H268.54z"/><path class="cls-35" d="M272.78 81.68h3.53v4.82H272.78z"/><path class="cls-36" d="M280.19 82.97h3.53v7.06H280.19z"/><path class="cls-33" d="M267.48 67.18 271.01 63.65 274.54 67.18H267.48z"/><path class="cls-33" d="M278.07 67.07 281.61 63.54 285.14 67.07H278.07z"/><path class="cls-35" d="M269.24 65.41h3.53v1.77H269.24z"/><path class="cls-35" d="M279.84 65.41h3.53v1.77H279.84z"/><path class="cls-33" d="M267.48 56.47h1.77v1.77H267.48z"/><path class="cls-33" d="M283.37 56.47h1.77v1.77H283.37z"/><path class="cls-37" d="M297.22 82.9c2.17-1.72 5-2.23 5-5A5 5 0 0 0 299 73.29a3.17 3.17.0 0 0 .18-1c0-2.14-2-3.88-4.49-3.88a4.9 4.9.0 0 0-3.08 1.06 2.82 2.82.0 0 0-5.29 1.33 2.68 2.68.0 0 0 .22 1.06 4 4 0 0 0-1.3-.24 3.89 3.89.0 0 0-3.9 3.88 3.85 3.85.0 0 0 1.94 3.34 3 3 0 0 0-.3 1.3 3.7 3.7.0 0 0 3.94 3.41S292.64 86.53 297.22 82.9z"/><path class="cls-8" d="M293.34 78.78s-.23 3.57-1.84 3.9-2.62-5.74-2.62-5.74l.11 4-2.68-.56L289.1 82a12.69 12.69.0 0 0 1.51 2c.72.72-.28 8.92-.28 8.92h2.51s-.84-7.25-.17-8.47 3.28.16 4.85-3.46c0 0-1.84 2.17-3.34 2l.38-2.18s-1.17 2.74-1.95 2.57S294.28 81.79 293.34 78.78z"/><path class="cls-38" d="M260.68 84.35V80.77H244.91V84.35H238.17V148.15H267.42V84.35H260.68z"/><path class="cls-39" d="M259.47 84.71h3.97v62.77H259.47z"/><path class="cls-39" d="M252.2 84.71h3.97v62.77H252.2z"/><path class="cls-39" d="M244.81 84.71h3.97v62.77H244.81z"/><path class="cls-40" d="M237.42 80.77h31.44v3.94H237.42z"/><path class="cls-41" d="M246.04 94.12h1.51v1.54H246.04z"/><path class="cls-41" d="M248.68 93.16H244.91V96.62H248.68V93.16v0z"/><path class="cls-41" d="M253.42 94.12h1.51v1.54H253.42z"/><path class="cls-41" d="M256.07 93.16H252.29V96.62H256.07V93.16v0z"/><path class="cls-41" d="M260.81 94.12h1.51v1.54H260.81z"/><path class="cls-41" d="M263.45 93.16H259.68V96.62H263.45V93.16v0z"/><path class="cls-41" d="M246.04 100.46h1.51V102H246.04z"/><path class="cls-41" d="M248.68 99.5H244.91V102.96H248.68V99.5v0z"/><path class="cls-41" d="M253.42 100.46h1.51V102H253.42z"/><path class="cls-41" d="M256.07 99.5H252.29V102.96H256.07V99.5v0z"/><path class="cls-41" d="M260.81 100.46h1.51V102H260.81z"/><path class="cls-41" d="M263.45 99.5H259.68V102.96H263.45V99.5v0z"/><path class="cls-41" d="M246.04 106.8h1.51v1.54H246.04z"/><path class="cls-41" d="M248.68 105.84H244.91V109.3H248.68V105.84v0z"/><path class="cls-41" d="M253.42 106.8h1.51v1.54H253.42z"/><path class="cls-41" d="M256.07 105.84H252.29V109.3H256.07V105.84v0z"/><path class="cls-41" d="M260.81 106.8h1.51v1.54H260.81z"/><path class="cls-41" d="M263.45 105.84H259.68V109.3H263.45V105.84v0z"/><path class="cls-41" d="M246.04 113.14h1.51v1.54H246.04z"/><path class="cls-41" d="M248.68 112.18H244.91V115.64H248.68V112.18v0z"/><path class="cls-41" d="M253.42 113.14h1.51v1.54H253.42z"/><path class="cls-41" d="M256.07 112.18H252.29V115.64H256.07V112.18v0z"/><path class="cls-41" d="M260.81 113.14h1.51v1.54H260.81z"/><path class="cls-41" d="M263.45 112.18H259.68V115.64H263.45V112.18v0z"/><path class="cls-41" d="M246.04 119.48h1.51v1.54H246.04z"/><path class="cls-41" d="M248.68 118.52H244.91V121.98H248.68V118.52v0z"/><path class="cls-41" d="M253.42 119.48h1.51v1.54H253.42z"/><path class="cls-41" d="M256.07 118.52H252.29V121.98H256.07V118.52v0z"/><path class="cls-41" d="M260.81 119.48h1.51v1.54H260.81z"/><path class="cls-41" d="M263.45 118.52H259.68V121.98H263.45V118.52v0z"/><path class="cls-41" d="M246.04 125.82h1.51v1.54H246.04z"/><path class="cls-41" d="M248.68 124.86H244.91V128.32H248.68V124.86v0z"/><path class="cls-41" d="M253.42 125.82h1.51v1.54H253.42z"/><path class="cls-41" d="M256.07 124.86H252.29V128.32H256.07V124.86v0z"/><path class="cls-41" d="M260.81 125.82h1.51v1.54H260.81z"/><path class="cls-41" d="M263.45 124.86H259.68V128.32H263.45V124.86v0z"/><path class="cls-42" d="M240.26 63.4V56.19H235.7V49.54H232.35V43.97H230.18V37.99H225.34V25.4H223.85V37.99H219.01V43.97H216.84v5.57H213.49V56.19H208.93V63.4H204.2v84.75H244.99V63.4H240.26z"/><path class="cls-43" d="M214.19 72.65h2.38v62.49H214.19z"/><path class="cls-43" d="M220.31 72.65h2.38v62.49H220.31z"/><path class="cls-43" d="M226.43 72.65h2.38v62.49H226.43z"/><path class="cls-43" d="M232.55 72.65h2.38v62.49H232.55z"/><path class="cls-44" d="M219.01 37.99h11.17v5.98H219.01z"/><path class="cls-44" d="M213.42 49.55h22.28v6.64H213.42z"/><path class="cls-45" d="M216.93 43.97h15.42v5.58H216.93z"/><path class="cls-45" d="M209.21 55.93h31.04v7.48H209.21z"/><path class="cls-46" d="M214.87 70.34h.66v60.92H214.87z"/><path class="cls-46" d="M216.39 69.55H214.01V132.04H216.39V69.55v0z"/><path class="cls-46" d="M220.99 70.34h.66v60.92H220.99z"/><path class="cls-46" d="M222.51 69.55H220.13V132.04H222.51V69.55v0z"/><path class="cls-46" d="M227.11 70.34h.67v60.92H227.11z"/><path class="cls-46" d="M228.63 69.55H226.25V132.04H228.63V69.55v0z"/><path class="cls-46" d="M233.23 70.34h.66v60.92H233.23z"/><path class="cls-46" d="M234.75 69.55H232.37V132.04H234.75V69.55v0z"/><path class="cls-14" d="M246.04 92.68h1.51v1.54H246.04z"/><path class="cls-14" d="M248.68 91.72H244.91V95.18H248.68V91.72v0z"/><path class="cls-14" d="M253.42 92.68h1.51v1.54H253.42z"/><path class="cls-14" d="M256.07 91.72H252.29V95.18H256.07V91.72v0z"/><path class="cls-14" d="M260.81 92.68h1.51v1.54H260.81z"/><path class="cls-14" d="M263.45 91.72H259.68V95.18H263.45V91.72v0z"/><path class="cls-14" d="M246.04 99.02h1.51v1.54H246.04z"/><path class="cls-14" d="M248.68 98.06H244.91V101.52H248.68V98.06v0z"/><path class="cls-14" d="M253.42 99.02h1.51v1.54H253.42z"/><path class="cls-14" d="M256.07 98.06H252.29V101.52H256.07V98.06v0z"/><path class="cls-14" d="M260.81 99.02h1.51v1.54H260.81z"/><path class="cls-14" d="M263.45 98.06H259.68V101.52H263.45V98.06v0z"/><path class="cls-14" d="M246.04 105.36h1.51v1.54H246.04z"/><path class="cls-14" d="M248.68 104.4H244.91V107.86H248.68V104.4v0z"/><path class="cls-14" d="M253.42 105.36h1.51v1.54H253.42z"/><path class="cls-14" d="M256.07 104.4H252.29V107.86H256.07V104.4v0z"/><path class="cls-14" d="M260.81 105.36h1.51v1.54H260.81z"/><path class="cls-14" d="M263.45 104.4H259.68V107.86H263.45V104.4v0z"/><path class="cls-14" d="M246.04 111.7h1.51v1.54H246.04z"/><path class="cls-14" d="M248.68 110.74H244.91V114.2H248.68V110.74v0z"/><path class="cls-14" d="M253.42 111.7h1.51v1.54H253.42z"/><path class="cls-14" d="M256.07 110.74H252.29V114.2H256.07V110.74v0z"/><path class="cls-14" d="M260.81 111.7h1.51v1.54H260.81z"/><path class="cls-14" d="M263.45 110.74H259.68V114.2H263.45V110.74v0z"/><path class="cls-14" d="M246.04 118.04h1.51v1.54H246.04z"/><path class="cls-14" d="M248.68 117.08H244.91V120.54H248.68V117.08v0z"/><path class="cls-14" d="M253.42 118.04h1.51v1.54H253.42z"/><path class="cls-14" d="M256.07 117.08H252.29V120.54H256.07V117.08v0z"/><path class="cls-14" d="M260.81 118.04h1.51v1.54H260.81z"/><path class="cls-14" d="M263.45 117.08H259.68V120.54H263.45V117.08v0z"/><path class="cls-14" d="M246.04 124.38h1.51v1.54H246.04z"/><path class="cls-14" d="M248.68 123.42H244.91V126.88H248.68V123.42v0z"/><path class="cls-14" d="M253.42 124.38h1.51v1.54H253.42z"/><path class="cls-14" d="M256.07 123.42H252.29V126.88H256.07V123.42v0z"/><path class="cls-14" d="M260.81 124.38h1.51v1.54H260.81z"/><path class="cls-14" d="M263.45 123.42H259.68V126.88H263.45V123.42v0z"/><path class="cls-47" d="M88.14 53.22c7.83.0 14.17 7 14.17 15.57H74C74 60.19 80.31 53.22 88.14 53.22z"/><path class="cls-48" d="M86.86 66.48c0 6 .64 10.8 1.42 10.8s1.41-4.84 1.41-10.8-.63-10.8-1.41-10.8S86.86 60.51 86.86 66.48z"/><path class="cls-48" d="M93.4 66.48c0 6.06-1.49 11-.75 11.32s3.6-4.56 3.58-11.32-2.91-11.69-3.58-11.32S93.4 60.41 93.4 66.48z"/><path class="cls-48" d="M83.15 66.48c0 6.06 1.49 11 .75 11.32s-3.6-4.56-3.57-11.32 2.9-11.69 3.57-11.32S83.15 60.41 83.15 66.48z"/><path class="cls-38" d="M74.19 75.25H70.09v75.66h35.34V75.25H101.33 74.19z"/><path class="cls-39" d="M93.81 75.67h4.07v42.4H93.81z" transform="translate(191.7 193.74) rotate(180)"/><path class="cls-39" d="M85.83 75.67h4.07v42.4H85.83z" transform="translate(175.74 193.74) rotate(180)"/><path class="cls-39" d="M77.85 75.67h4.07v42.4H77.85z" transform="translate(159.78 193.74) rotate(180)"/><path class="cls-49" d="M70.09 123.09h35.33v27.82H70.09z" transform="translate(175.52 274) rotate(180)"/><path class="cls-14" d="M81.4 94.83H77.85V94.79 82.77 82.11H81.93V94.79H81.4V94.83z"/><path class="cls-14" d="M81.39 111.98H77.85V111.95 99.93 99.27H81.93V111.95H81.39V111.98z"/><path class="cls-14" d="M89.38 94.83H85.83V94.79 82.77 82.11H89.91V94.79H89.38V94.83z"/><path class="cls-14" d="M89.38 111.98H85.83V111.95 99.93 99.27H89.91V111.95H89.38V111.98z"/><path class="cls-14" d="M97.36 94.83H93.81V94.79 82.77 82.11H97.89V94.79H97.36V94.83z"/><path class="cls-14" d="M97.36 111.98H93.81V111.95 99.93 99.27H97.89V111.95H97.36V111.98z"/><path class="cls-14" d="M73.4 127.69h28.71v23.22H73.4z" transform="translate(175.51 278.6) rotate(180)"/><path class="cls-50" d="M68.89 123.09h37.38v4.51H68.89z" transform="translate(175.16 250.68) rotate(180)"/><path class="cls-51" d="M69.18 70.75h37.38v4.51H69.18z" transform="translate(175.74 146) rotate(180)"/><path class="cls-47" d="M67.77 69.2h40.51v1.55H67.77z" transform="translate(176.05 139.94) rotate(180)"/><path class="cls-47" d="M70.09 118.49h35.33v4.6H70.09z" transform="translate(175.52 241.58) rotate(180)"/><path class="cls-52" d="M70.58 119.04h34.39v1.49H70.58z" transform="translate(175.54 239.58) rotate(180)"/><path class="cls-53" d="M145.4 164.05H119.34V5.05L145.4 21.55v142.5z"/><path class="cls-14" d="M121.38 30.55h22.14v1H121.38z"/><path class="cls-14" d="M145.55 29.2H119.34V32.91H145.55V29.2v0z"/><path class="cls-14" d="M121.38 39.77h22.14v1H121.38z"/><path class="cls-14" d="M145.55 38.42H119.34V42.13H145.55V38.42v0z"/><path class="cls-14" d="M121.38 48.99h22.14v1H121.38z"/><path class="cls-14" d="M145.55 47.64H119.34V51.35H145.55V47.64v0z"/><path class="cls-14" d="M121.38 58.21h22.14v1H121.38z"/><path class="cls-14" d="M145.55 56.86H119.34V60.57H145.55V56.86v0z"/><path class="cls-14" d="M121.38 67.43h22.14v1H121.38z"/><path class="cls-14" d="M145.55 66.08H119.34V69.79H145.55V66.08v0z"/><path class="cls-14" d="M121.38 76.65h22.14v1H121.38z"/><path class="cls-14" d="M145.55 75.3H119.34V79.01H145.55V75.3v0z"/><path class="cls-14" d="M121.38 85.26h22.14v1H121.38z"/><path class="cls-14" d="M145.55 83.9H119.34V87.61H145.55V83.9v0z"/><path class="cls-14" d="M121.38 94.48h22.14v1H121.38z"/><path class="cls-14" d="M145.55 93.12H119.34V96.84H145.55V93.12v0z"/><path class="cls-14" d="M121.38 103.7h22.14v1H121.38z"/><path class="cls-14" d="M145.55 102.34H119.34V106.06H145.55V102.34v0z"/><path class="cls-14" d="M121.38 112.92h22.14v1H121.38z"/><path class="cls-14" d="M145.55 111.56H119.34V115.28H145.55V111.56v0z"/><path class="cls-14" d="M121.38 122.14h22.14v1H121.38z"/><path class="cls-14" d="M145.55 120.78H119.34V124.5H145.55V120.78v0z"/><path class="cls-14" d="M121.38 131.36h22.14v1H121.38z"/><path class="cls-14" d="M145.55 130H119.34V133.72H145.55V130v0z"/><path class="cls-54" d="M119.34 5.05 128.55.69 152.47 16.67 145.4 21.55 119.34 5.05z"/><path class="cls-54" d="M152.47 16.67v24.1L145.4 45.12V21.55L152.47 16.67z"/><path class="cls-55" d="M148.94 24.27V42.62z"/><g class="cls-56"><path class="cls-13" d="M119.4 64.81V54.13L145.35 81.46V92.13L119.4 64.81z"/><path class="cls-13" d="M145.35 58.6V76.73L119.4 49.41V30.78L145.35 58.6z"/></g><path class="cls-53" d="M137.93 164.05H161.88V35.6L137.93 49.9V164.05z"/><path class="cls-54" d="M155.01 39.71V164.05H161.88V35.32L155.01 39.71z"/><path class="cls-57" d="M140.48 49.86V162.96z"/><path class="cls-57" d="M143.25 48.07V162.96z"/><path class="cls-57" d="M146.13 46.23V162.96z"/><path class="cls-57" d="M149.3 44.69V162.96z"/><path class="cls-57" d="M152.47 42.62V163.05z"/><path class="cls-57" d="M138.79 52.66H153.91z"/><path class="cls-57" d="M139 55.69H154.12z"/><path class="cls-57" d="M139 59.15H154.12z"/><path class="cls-57" d="M139 62.6H154.12z"/><path class="cls-57" d="M139 66.06H154.12z"/><path class="cls-57" d="M139 69.52H154.12z"/><path class="cls-57" d="M139 72.98H154.12z"/><path class="cls-57" d="M139 76.44H154.12z"/><path class="cls-57" d="M139 79.9H154.12z"/><path class="cls-57" d="M139 83.35H154.12z"/><path class="cls-57" d="M139 86.81H154.12z"/><path class="cls-57" d="M139 90.27H154.12z"/><path class="cls-57" d="M139 93.73H154.12z"/><path class="cls-57" d="M139 97.19H154.12z"/><path class="cls-57" d="M139 100.65H154.12z"/><path class="cls-57" d="M139 104.1H154.12z"/><path class="cls-57" d="M139 107.56H154.12z"/><path class="cls-57" d="M139 111.02H154.12z"/><path class="cls-57" d="M139 114.48H154.12z"/><path class="cls-57" d="M139 117.94H154.12z"/><path class="cls-57" d="M139 121.4H154.12z"/><path class="cls-57" d="M139 124.86H154.12z"/><path class="cls-57" d="M139 128.31H154.12z"/><path class="cls-57" d="M139 131.77H154.12z"/><path class="cls-57" d="M139 135.23H154.12z"/><path class="cls-57" d="M139 138.69H154.12z"/><path class="cls-57" d="M139 142.15H154.12z"/><path class="cls-57" d="M139 145.61H154.12z"/><path class="cls-57" d="M139 149.06H154.12z"/><path class="cls-57" d="M139 152.52H154.12z"/><path class="cls-57" d="M139 155.98H154.12z"/><g class="cls-56"><path class="cls-13" d="M155.01 95.85V88.9L138.11 106.69V113.64L155.01 95.85z"/><path class="cls-13" d="M138.11 91.81V103.62L155.01 85.83V73.7L138.11 91.81z"/></g><path class="cls-58" d="M174.87 39.78h16.93v13.96H174.87z"/><path class="cls-59" d="M174.29 38.37h18.09v1.4H174.29z"/><path class="cls-60" d="M167.42 48.21h31.84v13.96H167.42z"/><path class="cls-59" d="M166.46 46.47h33.75v1.75H166.46z"/><path class="cls-58" d="M155.27 58.88h56.13v114.53H155.27z"/><path class="cls-59" d="M154.27 56.69h58.14v2.2H154.27z"/><path class="cls-14" d="M194.34 49.41A2.5 2.5.0 0 1 196.8 52v4.74h-4.93V52A2.5 2.5.0 0 1 194.34 49.41z"/><path class="cls-14" d="M187 49.41A2.51 2.51.0 0 1 189.47 52v4.74h-4.93V52A2.5 2.5.0 0 1 187 49.41z"/><path class="cls-14" d="M179.67 49.41A2.51 2.51.0 0 1 182.14 52v4.74H177.2V52A2.51 2.51.0 0 1 179.67 49.41z"/><path class="cls-14" d="M172.34 49.41A2.5 2.5.0 0 1 174.8 52v4.74h-4.93V52A2.51 2.51.0 0 1 172.34 49.41z"/><path class="cls-8" d="M189.47 39.44h.83v7.31H189.47z"/><path class="cls-8" d="M185.17 39.44h.83v7.31H185.17z"/><path class="cls-8" d="M180.88 39.44h.83v7.31H180.88z"/><path class="cls-8" d="M176.58 39.44h.83v7.31H176.58z"/><path class="cls-14" d="M170.7 154.08h25.65v19.33H170.7z" transform="translate(367.05 327.49) rotate(180)"/><g class="cls-61"><path class="cls-15" d="M175.95 155.14V154.7H177.81L194.9 172.79H192.63L175.95 155.14z"/><path class="cls-15" d="M195.88 166.06V171.25L180.25 154.7H185.15L195.88 166.06z"/></g><path class="cls-62" d="M183.34 154.71V172.89z"/><path class="cls-63" d="M205.93 74.76H205.03V74.79H199.05V74.76 64.12 63.53H205.93V74.76z"/><path class="cls-63" d="M196.35 74.7H195.46V74.73H189.47V74.7 64.06 63.48H196.35V74.7z"/><path class="cls-63" d="M177.2 74.7H176.31V74.73H170.32V74.7 64.06 63.48H177.2V74.7z"/><path class="cls-63" d="M167.62 63.53V74.76H166.73V74.79H160.74V74.76 64.12 63.53H167.62z"/><path class="cls-63" d="M185.88 74.79H179.9V74.76 64.12 63.53H186.78V74.76H185.88V74.79z"/><path class="cls-63" d="M205.93 90.22H205.03V90.25H199.05V90.22 79.58 78.99H205.93V90.22z"/><path class="cls-63" d="M196.35 90.16H195.46V90.19H189.47V90.16 79.53 78.94H196.35V90.16z"/><path class="cls-63" d="M177.2 90.16H176.31V90.19H170.32V90.16 79.53 78.94H177.2V90.16z"/><path class="cls-63" d="M167.62 78.99V90.22H166.73V90.25H160.74V90.22 79.58 78.99H167.62z"/><path class="cls-63" d="M185.88 90.25H179.9V90.22 79.58 78.99H186.78V90.22H185.88V90.25z"/><path class="cls-63" d="M205.93 105.68H205.03V105.71H199.05V105.68 95.04 94.45H205.93V105.68z"/><path class="cls-63" d="M196.35 105.62H195.46V105.65H189.47V105.62 94.98 94.39H196.35V105.62z"/><path class="cls-63" d="M177.2 105.62H176.31V105.65H170.32V105.62 94.98 94.39H177.2V105.62z"/><path class="cls-63" d="M167.62 94.45V105.68H166.73V105.71H160.74V105.68 95.04 94.45H167.62z"/><path class="cls-63" d="M185.88 105.71H179.9V105.68 95.04 94.45H186.78V105.68H185.88V105.71z"/><path class="cls-63" d="M205.93 121.14H205.03V121.17H199.05V121.14 110.5 109.91H205.93V121.14z"/><path class="cls-63" d="M196.35 121.08H195.46V121.11H189.47V121.08 110.44 109.85H196.35V121.08z"/><path class="cls-63" d="M177.2 121.08H176.31V121.11H170.32V121.08 110.44 109.85H177.2V121.08z"/><path class="cls-63" d="M167.62 109.91V121.14H166.73V121.17H160.74V121.14 110.5 109.91H167.62z"/><path class="cls-63" d="M185.88 121.17H179.9V121.14 110.5 109.91H186.78V121.14H185.88V121.17z"/><path class="cls-63" d="M205.93 136.59H205.03V136.63H199.05V136.59 125.95 125.37H205.93V136.59z"/><path class="cls-63" d="M196.35 136.54H195.46V136.57H189.47V136.54 125.9 125.31H196.35V136.54z"/><path class="cls-63" d="M177.2 136.54H176.31V136.57H170.32V136.54 125.9 125.31H177.2V136.54z"/><path class="cls-63" d="M167.62 125.37V136.59H166.73V136.63H160.74V136.59 125.95 125.37H167.62z"/><path class="cls-63" d="M185.88 136.63H179.9V136.59 125.95 125.37H186.78V136.59H185.88V136.63z"/><path class="cls-63" d="M205.93 152.05H205.03V152.09H199.05V152.05 141.41 140.83H205.93V152.05z"/><path class="cls-63" d="M196.35 152H195.46V152.03H189.47V152 141.36 140.77H196.35V152z"/><path class="cls-63" d="M177.2 152H176.31V152.03H170.32V152 141.36 140.77H177.2V152z"/><path class="cls-63" d="M167.62 140.83V152.05H166.73V152.09H160.74V152.05 141.41 140.83H167.62z"/><path class="cls-63" d="M185.88 152.09H179.9V152.05 141.41 140.83H186.78V152.05H185.88V152.09z"/><path class="cls-14" d="M205.93 73.21H205.03V73.24H199.05V73.21 62.57 61.98H205.93V73.21z"/><path class="cls-14" d="M196.35 73.16H195.46V73.18H189.47V73.16 62.52 61.93H196.35V73.16z"/><path class="cls-14" d="M177.2 73.16H176.31V73.18H170.32V73.16 62.52 61.93H177.2V73.16z"/><path class="cls-14" d="M167.62 61.98V73.21H166.73V73.24H160.74V73.21 62.57 61.98H167.62z"/><path class="cls-14" d="M185.88 73.24H179.9V73.21 62.57 61.98H186.78V73.21H185.88V73.24z"/><path class="cls-14" d="M205.93 88.67H205.03V88.7H199.05V88.67 78.03 77.44H205.93V88.67z"/><path class="cls-14" d="M196.35 88.61H195.46V88.64H189.47V88.61 77.98 77.39H196.35V88.61z"/><path class="cls-14" d="M177.2 88.61H176.31V88.64H170.32V88.61 77.98 77.39H177.2V88.61z"/><path class="cls-14" d="M167.62 77.44V88.67H166.73V88.7H160.74V88.67 78.03 77.44H167.62z"/><path class="cls-14" d="M185.88 88.7H179.9V88.67 78.03 77.44H186.78V88.67H185.88V88.7z"/><path class="cls-14" d="M205.93 104.13H205.03V104.16H199.05V104.13 93.49 92.9H205.93V104.13z"/><path class="cls-14" d="M196.35 104.07H195.46V104.1H189.47V104.07 93.44 92.85H196.35V104.07z"/><path class="cls-14" d="M177.2 104.07H176.31V104.1H170.32V104.07 93.44 92.85H177.2V104.07z"/><path class="cls-14" d="M167.62 92.9V104.13H166.73V104.16H160.74V104.13 93.49 92.9H167.62z"/><path class="cls-14" d="M185.88 104.16H179.9V104.13 93.49 92.9H186.78V104.13H185.88V104.16z"/><path class="cls-14" d="M205.93 119.59H205.03V119.62H199.05V119.59 108.95 108.36H205.93V119.59z"/><path class="cls-14" d="M196.35 119.53H195.46V119.56H189.47V119.53 108.9 108.31H196.35V119.53z"/><path class="cls-14" d="M177.2 119.53H176.31V119.56H170.32V119.53 108.9 108.31H177.2V119.53z"/><path class="cls-14" d="M167.62 108.36V119.59H166.73V119.62H160.74V119.59 108.95 108.36H167.62z"/><path class="cls-14" d="M185.88 119.62H179.9V119.59 108.95 108.36H186.78V119.59H185.88V119.62z"/><path class="cls-14" d="M205.93 135.05H205.03V135.08H199.05V135.05 124.41 123.82H205.93V135.05z"/><path class="cls-14" d="M196.35 134.99H195.46V135.02H189.47V134.99 124.36 123.77H196.35V134.99z"/><path class="cls-14" d="M177.2 134.99H176.31V135.02H170.32V134.99 124.36 123.77H177.2V134.99z"/><path class="cls-14" d="M167.62 123.82V135.05H166.73V135.08H160.74V135.05 124.41 123.82H167.62z"/><path class="cls-14" d="M185.88 135.08H179.9V135.05 124.41 123.82H186.78V135.05H185.88V135.08z"/><path class="cls-14" d="M205.93 150.51H205.03V150.54H199.05V150.51 139.87 139.28H205.93V150.51z"/><path class="cls-14" d="M196.35 150.45H195.46V150.48H189.47V150.45 139.82 139.23H196.35V150.45z"/><path class="cls-14" d="M177.2 150.45H176.31V150.48H170.32V150.45 139.82 139.23H177.2V150.45z"/><path class="cls-14" d="M167.62 139.28V150.51H166.73V150.54H160.74V150.51 139.87 139.28H167.62z"/><path class="cls-14" d="M185.88 150.54H179.9V150.51 139.87 139.28H186.78V150.51H185.88V150.54z"/><path class="cls-64" d="M346.66 162.78a1.6 1.6.0 0 0 .67-1.95c-.38-.89-.8-.43-1.35-.05.4-1.65.38-4.51-.66-5.83-.89-1.12-2.65.19-3.24 1.32-.46-.74-.68-1.68-1.65-1.57-.61.07-.93.76-1.5 1 .4-1.66-.47-4.65-1.91-5.21-1.75-.67-2.38 1.66-2.38 3.24-.59-2.63-2.22-.32-2.84.84-.39-.42-.57-1.17-1.24-1-.44.14-.79.93-.87 1.42-.25-1.82-2.2-4.49-3.87-3.91s-1.57 2.6-1.59 4.23c-.46-1.12-2.06-1-2.66-.16a3.7 3.7.0 0 0 0 3.38c-.81-.84-1.59-2.51-2.84-1.82-1.6.89-.4 2.89-.11 4.25-.18-.82-2.53-.67-2.64.29s1.19 1.47 1.83 1.54z"/><path class="cls-8" d="M334.26 157.23h1.71v5.61H334.26z"/><path class="cls-8" d="M330.77 157.23h1.71v5.61H330.77z"/><path class="cls-8" d="M326.89 157.23h1.71v5.61H326.89z"/><path class="cls-8" d="M323.42 157.23h1.71v5.61H323.42z"/><path class="cls-8" d="M319.9 157.23h1.71v5.61H319.9z"/><path class="cls-8" d="M316 157.23h1.71v5.61H316z"/><path class="cls-8" d="M316 158.45h19.97v.53H316z"/><path class="cls-8" d="M334.06 156.17a1.05 1.05.0 0 0 1.05 1.06 1.06 1.06.0 1 0-1.05-1.06z"/><path class="cls-8" d="M330.56 156.17a1.06 1.06.0 1 0 1.06-1.06A1.06 1.06.0 0 0 330.56 156.17z"/><path class="cls-8" d="M326.69 156.17a1.06 1.06.0 1 0 1.06-1.06A1.05 1.05.0 0 0 326.69 156.17z"/><path class="cls-8" d="M323.21 156.17a1.06 1.06.0 1 0 1.06-1.06A1.06 1.06.0 0 0 323.21 156.17z"/><path class="cls-8" d="M319.69 156.17a1.07 1.07.0 1 0 1.07-1.06A1.06 1.06.0 0 0 319.69 156.17z"/><path class="cls-8" d="M315.8 156.17a1.06 1.06.0 1 0 2.12.0 1.06 1.06.0 0 0-2.12.0z"/><path class="cls-65" d="M224.23 162.81a1 1 0 0 1-.44-1.25c.25-.58.52-.28.87.0a5.24 5.24.0 0 1 .43-3.75c.57-.72 1.7.13 2.08.85.29-.48.44-1.08 1.06-1 .39.0.6.49 1 .62-.25-1.07.3-3 1.23-3.35 1.12-.43 1.53 1.07 1.53 2.08.37-1.68 1.42-.2 1.82.54.25-.27.37-.75.8-.62.28.09.51.6.56.91.16-1.17 1.41-2.88 2.48-2.51s1 1.67 1 2.72c.29-.72 1.32-.61 1.71-.1a2.37 2.37.0 0 1 0 2.17c.53-.54 1-1.61 1.83-1.17 1 .57.26 1.86.07 2.73.12-.52 1.62-.43 1.7.19s-.77.94-1.18 1z"/><path class="cls-66" d="M230.31 152.56c-2.23-1.77-5.16-2.29-5.16-5.11a5.11 5.11.0 0 1 3.32-4.77 3.31 3.31.0 0 1-.18-1.05c0-2.2 2.07-4 4.62-4a5 5 0 0 1 3.16 1.09 2.9 2.9.0 0 1 5.44 1.37 2.79 2.79.0 0 1-.22 1.09 3.92 3.92.0 0 1 1.33-.24 4 4 0 0 1 2 7.42 3 3 0 0 1 .31 1.34 3.81 3.81.0 0 1-4 3.51S235 156.3 230.31 152.56z"/><path class="cls-8" d="M237.23 148.33s-.23 3.67-1.89 4-2.7-5.9-2.7-5.9l.12 4.07-2.75-.58 2.86 1.72a14.21 14.21.0 0 0 1.55 2.07c.75.74-.29 9.17-.29 9.17h2.58s-.86-7.46-.17-8.72 3.38.18 5-3.55c0 0-1.89 2.24-3.44 2.06l.4-2.23s-1.2 2.81-2 2.64S238.2 151.42 237.23 148.33z"/><path class="cls-67" d="M288.71 123.05V117.62H279.55V108.81H278.39V117.62H269.45V123.05H240.27V129.96H242.58V163.47h73.1V129.96H317.88V123.05H288.71z"/><path class="cls-68" d="M278.39 108.81h8.11v5.48H278.39z"/><path class="cls-69" d="M271.65 143.35h14.93v20.12H271.65z"/><path class="cls-70" d="M240.27 123.05h77.61v6.91H240.27z"/><path class="cls-71" d="M269.45 117.62h19.67v5.43H269.45z"/><path class="cls-69" d="M271.65 143.35 275.25 147.25H283.38L286.5 143.35"/><path class="cls-69" d="M275.27 147.25v16.22z"/><path class="cls-72" d="M275.25 147.25h8.13v16.23H275.25z"/><path class="cls-39" d="M250.85 136.44h4.45v4.45H250.85z"/><path class="cls-39" d="M250.85 144.59h4.45v4.45H250.85z"/><path class="cls-39" d="M250.85 152.75h4.45v4.45H250.85z"/><path class="cls-39" d="M261.25 136.44h4.45v4.45H261.25z"/><path class="cls-39" d="M261.25 144.59h4.45v4.45H261.25z"/><path class="cls-39" d="M261.25 152.75h4.45v4.45H261.25z"/><path class="cls-39" d="M292.46 136.44h4.45v4.45H292.46z"/><path class="cls-39" d="M292.46 144.59h4.45v4.45H292.46z"/><path class="cls-39" d="M292.46 152.75h4.45v4.45H292.46z"/><path class="cls-39" d="M271.65 136.44h4.45v4.45H271.65z"/><path class="cls-39" d="M282.05 136.44h4.45v4.45H282.05z"/><path class="cls-39" d="M302.86 136.44h4.45v4.45H302.86z"/><path class="cls-39" d="M302.86 144.59h4.45v4.45H302.86z"/><path class="cls-39" d="M302.86 152.75h4.45v4.45H302.86z"/><path class="cls-73" d="M250.85 135.19h4.45v4.45H250.85z"/><path class="cls-73" d="M250.85 143.35h4.45v4.45H250.85z"/><path class="cls-73" d="M250.85 151.5h4.45v4.45H250.85z"/><path class="cls-73" d="M261.25 135.19h4.45v4.45H261.25z"/><path class="cls-73" d="M261.25 143.35h4.45v4.45H261.25z"/><path class="cls-73" d="M261.25 151.5h4.45v4.45H261.25z"/><path class="cls-73" d="M292.46 135.19h4.45v4.45H292.46z"/><path class="cls-73" d="M292.46 143.35h4.45v4.45H292.46z"/><path class="cls-73" d="M292.46 151.5h4.45v4.45H292.46z"/><path class="cls-73" d="M271.65 135.19h4.45v4.45H271.65z"/><path class="cls-73" d="M282.05 135.19h4.45v4.45H282.05z"/><path class="cls-73" d="M302.86 135.19h4.45v4.45H302.86z"/><path class="cls-73" d="M302.86 143.35h4.45v4.45H302.86z"/><path class="cls-73" d="M302.86 151.5h4.45v4.45H302.86z"/><path class="cls-74" d="M240.78 123.65h76.57v2.86H240.78z"/><path class="cls-8" d="M278.39 108.81h1.16v8.8H278.39z"/><path class="cls-75" d="M338.59 150.24a6.25 6.25.0 0 0 2.26-12.1 4.31 4.31.0 0 0 .22-1.29c0-2.7-2.53-4.88-5.66-4.88a6.11 6.11.0 0 0-3.86 1.33 3.58 3.58.0 0 0-3.11-1.83 3.52 3.52.0 0 0-3.55 3.51 3.47 3.47.0 0 0 .26 1.33 4.87 4.87.0 0 0-4.1 8.79 3.79 3.79.0 0 0-.37 1.64c0 2.37 2.21 4.29 4.95 4.29.0.0 7.1 3.42 13-.79"/><path class="cls-8" d="M333.7 145.05s-.28 4.49-2.31 4.91-3.3-7.23-3.3-7.23l.14 5-3.37-.69 3.51 2.1a16.56 16.56.0 0 0 1.9 2.53c.91.91-.36 11.22-.36 11.22h3.16s-1.05-9.12-.21-10.66 4.14.21 6.11-4.35c0 0-2.32 2.73-4.21 2.52l.49-2.73s-1.48 3.43-2.46 3.22S334.89 148.84 333.7 145.05z"/><path class="cls-37" d="M62.66 147.86c-3-2.36-6.88-3.05-6.88-6.82a6.81 6.81.0 0 1 4.42-6.35 4.67 4.67.0 0 1-.24-1.4c0-2.94 2.76-5.32 6.16-5.32a6.68 6.68.0 0 1 4.21 1.45 3.87 3.87.0 0 1 7.25 1.83 3.72 3.72.0 0 1-.29 1.45 5.24 5.24.0 0 1 1.77-.32 5.3 5.3.0 0 1 2.69 9.89 4 4 0 0 1 .42 1.79c0 2.58-2.42 4.67-5.4 4.67C76.77 148.73 68.94 152.84 62.66 147.86z"/><path class="cls-8" d="M71.88 142.21s-.31 4.89-2.52 5.35-3.6-7.87-3.6-7.87l.16 5.43-3.67-.76 3.82 2.28a18 18 0 0 0 2.07 2.76c1 1-.39 12.22-.39 12.22h3.44S70 151.69 71 150s4.51.23 6.65-4.74c0 0-2.52 3-4.58 2.75l.53-3s-1.61 3.75-2.67 3.52S73.18 146.34 71.88 142.21z"/><path class="cls-20" d="M54.09 151s-10.35 4.79-17.23-1.59c-3.57-3.31-8.81-3.91-8.81-8.73a8.74 8.74.0 0 1 5.66-8.15 5.89 5.89.0 0 1-.31-1.78c0-3.77 3.54-6.82 7.9-6.82a8.52 8.52.0 0 1 5.39 1.86A5 5 0 0 1 51 123.27 4.92 4.92.0 0 1 56 128.16a4.82 4.82.0 0 1-.37 1.86 6.77 6.77.0 0 1 9.12 6.4 6.75 6.75.0 0 1-3.4 5.85 5.28 5.28.0 0 1 .53 2.3c0 3.3-3.1 6-6.92 6"/><path class="cls-8" d="M43.68 142.21s.39 6.26 3.24 6.85S51.52 139 51.52 139l-.2 7 4.7-1-4.89 2.93a23.37 23.37.0 0 1-2.65 3.53c-1.27 1.27.49 15.67.49 15.67H44.56s1.47-12.73.3-14.89-5.77.3-8.52-6.06c0 0 3.23 3.81 5.87 3.52l-.68-3.82s2.06 4.8 3.43 4.5S42 147.49 43.68 142.21z"/><g class="AirCamera"><path class="cls-5" d="M46.34 49.79c.13.0.0 1.05-.06 1.12a5.21 5.21.0 0 1-2.48 1.53c-.57.17-2.14 1-2.66.75L38.4 52 42 50.57z"/><path class="cls-6" d="M46.87 56.34s4.91-3.65 15.1-2.81c1.33-.06 1.43 2.27.1 2.33-5 .22-8.36 2.35-11.27 6.31a3 3 0 0 1-.56.61C48.15 64.28 46.87 56.34 46.87 56.34z"/><ellipse class="cls-6" cx="44.19" cy="50.18" rx="2.18" ry="1.01" transform="translate(-8.34 8.81) rotate(-10.41)"/><path class="cls-6" d="M28.51 77.27a5.33 5.33.0 0 0 2.66 4.39l.17.09a3.68 3.68.0 0 0 .57.26 5.34 5.34.0 0 0 2.16.36 5.41 5.41.0 0 0 2.13-.55 3.6 3.6.0 0 0 .54-.31l.16-.1a5.34 5.34.0 1 0-8.39-4.14z"/><path class="cls-7" d="M31.15 72.49c0 .87 1.18 1.52 2.56 1.46s2.45-.81 2.42-1.67a.22.22.0 0 0 0-.08 5.43 5.43.0 0 0-2.51-.5 5.35 5.35.0 0 0-2.45.72A.15.15.0 0 0 31.15 72.49z"/><path class="cls-7" d="M35 69.8l.1 2.36c0 .52-.63 1-1.47 1s-1.52-.36-1.54-.88L32 69.93z"/><path class="cls-7" d="M32 69.93c0-.52.64-1 1.47-1s1.53.36 1.55.88-.64 1-1.47 1S32 70.45 32 69.93z"/><path class="cls-8" d="M30.55 66.36l.19 4.41a1.26 1.26.0 0 0 .25.68 3.16 3.16.0 0 0 2.65 1 3 3 0 0 0 2.62-1.32 1.14 1.14.0 0 0 .13-.57l-.19-4.4z"/><path class="cls-6" d="M48.92 57A12.65 12.65.0 0 0 44 52.38c-.3-.18-.61-.34-.93-.5-.65-.31-1.32-.6-2-.86a28.43 28.43.0 0 0-11-1.59c-10.72.46-19.18 6.16-18.9 12.74.1 2.37 1.78 4.17 4.39 5.48.26.14.53.26.81.39a32.5 32.5.0 0 0 9.8 2.25 48 48 0 0 0 13.33-.08c4-.73 9.65-2.6 10.4-7.27"/><path class="cls-9" d="M35.76 79.92S30 81.27 31.64 73.76c0 0-.08.08-.75-.77a5 5 0 0 0-1.36 6.62 5.2 5.2.0 0 0 6.35 2.06z"/><path class="cls-10" d="M38.49 75.09a2.06 2.06.0 0 0-2.56.0A3.81 3.81.0 0 0 35 78.28l.16 3.62s2.34-.11 3.91-3.32A19.77 19.77.0 0 0 38.49 75.09z"/><path class="cls-11" d="M38.87 78.32l-.33-2.14a1.23 1.23.0 0 0-1.78-.48s-.78.43-.79 2l.23 4.09S39 80.56 38.87 78.32z"/><ellipse class="cls-12" cx="37.51" cy="77.31" rx="1.16" ry="1.4" transform="translate(-3.31 1.7) rotate(-2.48)"/><ellipse class="cls-13" cx="37.55" cy="77.3" rx=".85" ry="1.02" transform="translate(-3.31 1.7) rotate(-2.48)"/><ellipse class="cls-12" cx="37.9" cy="76.81" rx=".21" ry=".26" transform="translate(-3.29 1.71) rotate(-2.48)"/><path class="cls-10" d="M42.28 55.53s.9 5.93-7 3.92c0 0-13.65-2.6-14-7C21.26 52.49 25 44.34 42.28 55.53z"/><path class="cls-14" d="M22 52.45c.11 2.52 10.83 6.33 16.28 6.1 3.46-.15 4.52-3.88 3.56-6.73-1.4-4.13-6.43-4.54-10.17-4.38C26.22 47.68 21.89 49.92 22 52.45z"/><path class="cls-15" d="M30 48.31l-.3-.1A8.35 8.35.0 0 1 34 47.75a12.69 12.69.0 0 1 4.66 1.16c1 .46 1.63 2.38.28 2.81s-2.36-.47-3.32-1.15C33.86 49.28 32 48.93 30 48.31z"/><path class="cls-10" d="M46.06 54.19s6.88 5.62 1.64 12.16c0 0-6.81 6.93-26.82 2.76.0.0-10.54-1.62-9.31-8.39A8.13 8.13.0 0 1 14 56s-2.64 3.63-1.75 5.83c1.22 3 4.41 4.4 7.35 5.13a39.79 39.79.0 0 0 13.5.79c4-.4 8.66-.92 11.88-3.55S47.28 57.62 46.06 54.19z"/><path class="cls-6" d="M12.94 60.37a13 13 0 0 0-6-.68C6 59.78 2.49 61 2.08 59.55c-.64-2.28 3-3.25 4.18-3.29 2.76-.09 4.58-.06 7.14.0"/><path class="cls-6" d="M24.65 67.51a15.55 15.55.0 0 0-3.26.3 49.33 49.33.0 0 0-8 1.82c-1.73.65-3.58 1.76-5.52 1.86-1.7.09-4.55-1-4-3.16.42-1.58 3.4-1.8 4.91-2.19a27.85 27.85.0 0 0 6.09-2.37"/><path class="cls-10" d="M62.45 54.28c-.82-.5-3.31.34-4.15.52a20.58 20.58.0 0 0-4.77 1.53c-1.47.71-2.65 1.83-4.35 1.89-.06.6-.6 5.07.92 4.27.0.0 2.84-4.36 6.23-5.55a15.24 15.24.0 0 1 6-1.46S63.19 54.73 62.45 54.28z"/><ellipse class="cls-6" cx="59.84" cy="53.69" rx="3.33" ry="1.54" transform="matrix(1, -0.04, 0.04, 1, -2.27, 2.64)"/><path class="cls-10" d="M48.06 56.18s.9 2.2 2.17 2l-1 1.72-.73-.37z"/><path class="cls-10" d="M24.08 67.29c-.21.0-.67-.31-.87-.39a9.65 9.65.0 0 0-2.82-.54c-3.52-.19-6.06 1.54-9.2 2.69-1.83.66-5.64 2.12-6.94-.18.0.0-.21 2.57 4.73 2.2.0.0 4.8-1.81 5.74-2.25l-.94.44A37.27 37.27.0 0 1 24.08 67.29z"/><ellipse class="cls-6" cx="7.97" cy="67.71" rx="4.02" ry="2.19" transform="translate(-5.08 0.79) rotate(-4.33)"/><path class="cls-10" d="M13.28 59.58c-.69-1-6.69-.76-7.39-.69.0.0-3.26.3-3.6.0.0.0-.22 1.41 2.21 1.11a12.13 12.13.0 0 1 6-.5c.89.16 1.75.42 2.64.59.06-.27.17.06.22-.23A.36.36.0 0 0 13.28 59.58z"/><ellipse class="cls-6" cx="4.66" cy="57.71" rx="2.77" ry="1.28" transform="translate(-2.49 0.26) rotate(-2.48)"/><path class="cls-8" d="M62.05 52.88c0-.74-1-1.3-2.2-1.25s-2.12.69-2.08 1.43 1 1.3 2.2 1.25S62.08 53.62 62.05 52.88z"/><path class="cls-16" d="M60.37 50.15h1l.11 2.48c0 .43-.39.81-1 1a2.61 2.61.0 0 1-.58.09c-.88.0-1.61-.37-1.63-.92l-.11-2.49z"/><ellipse class="cls-17" cx="59.68" cy="49.63" rx="4.64" ry="2.02" transform="translate(-2.09 2.63) rotate(-2.48)"/><path class="cls-18" d="M58.25 49c0-.55.67-1 1.54-1.06s1.62.38 1.64.93-.67 1-1.55 1.07S58.27 49.52 58.25 49z"/><path class="cls-19" d="M61.32 48.37a1.55 1.55.0 0 0-3 .13 1.38 1.38.0 0 0 0 .67.76.76.0 0 0 .19.32 1.84 1.84.0 0 0 1.39.44 1.86 1.86.0 0 0 1.34-.56.78.78.0 0 0 .16-.33A1.43 1.43.0 0 0 61.32 48.37z"/><path class="cls-12" d="M60.15 48.33c.2.18.47.22.6.08a.53.53.0 0 0-.73-.67C59.89 47.88 60 48.15 60.15 48.33z"/><path class="cls-8" d="M10.35 66.66c0-.82-1.14-1.45-2.45-1.39s-2.36.77-2.32 1.6S6.72 68.32 8 68.26 10.39 67.49 10.35 66.66z"/><path class="cls-16" d="M8.48 63.63l1.12-.05.12 2.77c0 .47-.42.89-1.08 1.08a2.52 2.52.0 0 1-.64.11c-1 0-1.79-.42-1.82-1l-.12-2.78z"/><ellipse class="cls-17" cx="7.71" cy="63.05" rx="5.16" ry="2.25" transform="translate(-2.72 0.39) rotate(-2.48)"/><path class="cls-18" d="M6.12 62.31c0-.62.74-1.15 1.72-1.19s1.8.42 1.82 1-.75 1.15-1.72 1.19S6.15 62.92 6.12 62.31z"/><path class="cls-19" d="M9.54 61.65a1.73 1.73.0 0 0-3.34.14 1.43 1.43.0 0 0 0 .74.78.78.0 0 0 .21.36 2.1 2.1.0 0 0 1.54.5 2.05 2.05.0 0 0 1.49-.63.75.75.0 0 0 .18-.37A1.46 1.46.0 0 0 9.54 61.65z"/><path class="cls-12" d="M8.24 61.6c.22.2.52.24.66.08S9 61.23 8.76 61a.5.5.0 0 0-.67-.09A.49.49.0 0 0 8.24 61.6z"/><path class="cls-8" d="M45.63 49.59c0-.52-.72-.92-1.56-.88s-1.5.49-1.47 1 .72.92 1.56.88S45.65 50.12 45.63 49.59z"/><path class="cls-16" d="M44.44 47.66h.72l.07 1.76c0 .3-.27.57-.68.69a1.85 1.85.0 0 1-.41.07c-.62.0-1.14-.26-1.16-.65l-.08-1.77z"/><ellipse class="cls-17" cx="43.95" cy="47.3" rx="3.28" ry="1.43" transform="translate(-2.01 1.95) rotate(-2.48)"/><path class="cls-18" d="M42.94 46.82c0-.39.47-.72 1.09-.75s1.15.26 1.16.65-.47.73-1.1.76S43 47.21 42.94 46.82z"/><path class="cls-19" d="M45.12 46.4a1.1 1.1.0 0 0-2.13.1A1.07 1.07.0 0 0 43 47a.44.44.0 0 0 .14.22 1.26 1.26.0 0 0 1 .32 1.33 1.33.0 0 0 .95-.4.48.48.0 0 0 .11-.24A1 1 0 0 0 45.12 46.4z"/><path class="cls-12" d="M44.29 46.37c.14.13.33.16.42.06a.32.32.0 0 0-.09-.42c-.14-.13-.33-.16-.42.0S44.14 46.24 44.29 46.37z"/><path class="cls-8" d="M6.16 57c0-.58-.79-1-1.72-1s-1.65.55-1.62 1.13.79 1 1.72 1S6.19 57.54 6.16 57z"/><path class="cls-16" d="M4.85 54.83h.79l.08 1.94c0 .33-.3.63-.75.76a2.11 2.11.0 0 1-.45.08c-.69.0-1.26-.3-1.28-.73l-.09-2z"/><ellipse class="cls-17" cx="4.31" cy="54.42" rx="3.63" ry="1.58" transform="translate(-2.35 0.24) rotate(-2.48)"/><path class="cls-18" d="M3.19 53.9c0-.43.52-.8 1.21-.83s1.26.29 1.28.72-.53.81-1.21.84S3.21 54.33 3.19 53.9z"/><path class="cls-19" d="M5.6 53.44a1.22 1.22.0 0 0-1.22-.85 1.2 1.2.0 0 0-1.13.95 1 1 0 0 0 0 .52.54.54.0 0 0 .15.25 1.44 1.44.0 0 0 1.08.35 1.47 1.47.0 0 0 1-.44A.58.58.0 0 0 5.65 54 1.34 1.34.0 0 0 5.6 53.44z"/><path class="cls-12" d="M4.68 53.41a.34.34.0 0 0 .47.05c.1-.11.0-.31-.1-.46s-.37-.17-.47.0S4.52 53.26 4.68 53.41z"/></g></g></svg>