<svg viewBox="0 0 287.99 58" xmlns="http://www.w3.org/2000/svg"><g fill="#fff"><path d="m0 4.1a12.34 12.34.0 0 0 1.48.14A14.42 14.42.0 0 0 3 4.22c.49.0 1-.08 1.46-.15s1-.16 1.45-.25c1.93-.39 3.82-1 5.77-1.42 1-.23 2-.43 3-.57.51-.07 1-.1 1.54-.14h.39.39.77a32.35 32.35.0 0 1 6.08.68c1 .2 2 .44 3 .68s1.94.51 2.9.78c1.92.54 3.8 1.1 5.69 1.58.95.24 1.89.47 2.83.65.47.11.94.18 1.41.26l.71.1h.35.35l.7.07h.7.35 1c.46.0.92.0 1.37-.08h.35.17.17l.67-.11a3.43 3.43.0 0 0 .34-.06l.33-.08.33-.07c.11.0.22-.06.33-.09l.65-.19.64-.23.32-.12.31-.13.63-.28c.42-.21.83-.43 1.25-.66.85-.45 1.71-1 2.61-1.45.45-.24.92-.48 1.4-.69l.67-.25.73-.29.36-.14.37-.13.75-.25.75-.22.76-.2.76-.17c.25-.06.51-.1.77-.15.51-.1 1-.16 1.54-.23a31 31 0 0 1 6.17-.1l.76.07h.38l.38.05.75.11.76.12c.5.08 1 .18 1.49.27l.74.16.74.17a59.24 59.24.0 0 1 5.78 1.73 95.41 95.41.0 0 1 11 4.77c-1-.31-1.89-.63-2.84-.93l-2.83-.91c-1.89-.59-3.79-1.15-5.69-1.64l-1.46-.32c-.48-.11-1-.23-1.44-.33l-.72-.16-.72-.14c-.42-.14-.96-.14-1.42-.26l-.72-.12-.72-.1c-.48-.06-1-.14-1.44-.18l-.73-.08h-.72-.36-.36-.72c-1 0-1.93.0-2.88.0h-.36-.35l-.71.06c-.24.0-.48.06-.71.09h-.35l-.36.05a24 24 0 0 0-5.42 1.51l-.65.28-.63.3c-.43.19-.84.42-1.25.65-.84.47-1.68 1-2.57 1.49-.45.25-.91.49-1.38.73l-.73.33-.39.11-.38.14-.76.28-.77.23-.39.11-.4.09-.39.15-.4.05-.8.12h-.2-.2-.4c-.53.06-1.06.06-1.59.08-.26.0-.53.0-.79.0h-.4-.39-.78l-.78-.09-.39-.05-.37-.11-.77-.12c-.5-.1-1-.19-1.51-.3-1-.21-2-.47-3-.74-1.9-.52-3.8-1.13-5.63-1.74s-3.8-1.2-5.68-1.67c-.47-.13-.94-.23-1.41-.34l-.71-.15-.71-.14c-.47-.07-.95-.16-1.42-.21h-.36-.36l-.71-.06c-.24.0-.48.0-.72.0h-.35-.36c-.48.0-1 0-1.43.0-1 0-1.93.17-2.9.31-1.94.16-3.88.55-5.88.73a20.28 20.28.0 0 1-3 .06 12.77 12.77.0 0 1-3-.53z" opacity=".27"/><path d="m114.76 25.65q1.06-.84 2.16-1.65c.73-.54 1.47-1.06 2.21-1.58s1.52-1 2.29-1.49 1.56-.93 2.36-1.37 1.63-.85 2.47-1.24 1.69-.73 2.57-1a24.33 24.33.0 0 1 2.68-.8l.69-.16.69-.13.35-.06.35-.05h.36.35.35.18.18.71 1.44.36.36.36.18.18l.71.09.71.13c.24.0.48.11.71.16s.47.11.7.18c.47.13.92.28 1.37.45.89.32 1.75.69 2.58 1.07s1.65.76 2.46 1.12 1.6.7 2.4 1a15 15 0 0 0 2.38.65 9.46 9.46.0 0 0 1.18.13 5.72 5.72.0 0 0 .59.0h.29.29a15.12 15.12.0 0 0 4.76-1.32c1.6-.66 3.22-1.49 5-2.17a20.49 20.49.0 0 1 2.75-.87l.36-.08.37-.06c.24-.05.49-.08.74-.11h.37.38.37.76.37l.74.08.73.12h.18.18l.36.09a19.54 19.54.0 0 1 2.71.89c.87.35 1.71.73 2.53 1.12l2.38 1.04c.8.38 1.61.71 2.42 1 .41.15.83.27 1.24.4s.85.23 1.27.32l.32.08.33.06.64.12.65.09.66.08h.33.33.66.66.67a23.63 23.63.0 0 0 2.66-.2 24.86 24.86.0 0 0 2.66-.5 19.61 19.61.0 0 1-2.57.91 22.11 22.11.0 0 1-2.69.55l-.69.08-.69.06c-.23.0-.46.0-.69.0h-.34-.35a21.61 21.61.0 0 1-2.78-.17 23.11 23.11.0 0 1-5.39-1.4c-.86-.32-1.7-.66-2.54-1s-1.65-.64-2.48-.92a17.54 17.54.0 0 0-2.45-.67l-.31-.06h-.15-.16l-.6-.08h-.61-.6a13.08 13.08.0 0 0-4.77 1.19c-.79.33-1.59.7-2.4 1.09s-1.63.78-2.49 1.16a24.31 24.31.0 0 1-2.68 1c-.47.14-.95.25-1.44.35-.25.05-.49.1-.74.13l-.38.05h-.38-.38-.38c-.26.0-.51.0-.77.0a12.29 12.29.0 0 1-1.5-.18c-.49-.09-1-.21-1.45-.34s-.93-.29-1.38-.46c-.9-.33-1.75-.72-2.58-1.11l-2.44-1.19c-.8-.39-1.59-.75-2.38-1.07-.4-.16-.8-.3-1.19-.43a6.13 6.13.0 0 0-.61-.18c-.2-.06-.4-.13-.6-.17a16.14 16.14.0 0 0-2.49-.4h-.32-.31-.64-1-.32a20.47 20.47.0 0 0-2.56.29c-.85.15-1.7.34-2.54.57s-1.68.5-2.52.79-1.65.63-2.47 1-1.63.72-2.44 1.11-1.61.79-2.41 1.21c-1.52.92-3.1 1.79-4.69 2.66z" opacity=".27"/><path d="m199 10.11c.81-.54 1.63-1.06 2.45-1.57s1.67-1 2.51-1.49 1.71-.94 2.58-1.38 1.76-.86 2.66-1.26a35.86 35.86.0 0 1 5.59-1.94l.73-.18.74-.15c.49-.09 1-.19 1.48-.25a21.83 21.83.0 0 1 3-.21 21 21 0 0 1 3.06.22 19.7 19.7.0 0 1 3 .73l.73.26.72.29c.47.2.93.42 1.38.65.91.45 1.77 1 2.61 1.44s1.66 1 2.48 1.45a24.31 24.31.0 0 0 2.46 1.21 12.74 12.74.0 0 0 2.51.77 12.55 12.55.0 0 0 2.61.23 21.52 21.52.0 0 0 5.38-.81c1.81-.46 3.62-1.08 5.47-1.68.92-.3 1.86-.59 2.81-.87l.71-.2.73-.19c.24-.07.48-.11.73-.17l.73-.16a38.11 38.11.0 0 1 5.91-.78c.5.0 1 0 1.49-.06h1.48 1.48l1.47.08q2.94.18 5.84.62c3.85.58 7.65 1.41 11.41 2.34l-1.44-.13-1.45-.14-2.89-.28c-1.93-.18-3.85-.34-5.77-.45l-1.39-.05c-.48.0-1 0-1.44-.05h-.72-2.15a56.6 56.6.0 0 0-5.69.33l-1.4.17-1.4.23h-.35l-.34.07-.69.15-.69.14-.68.17-.68.18-.68.18-1.35.43c-.9.29-1.8.6-2.71.92-1.82.64-3.67 1.3-5.6 1.83a23.75 23.75.0 0 1-6.06.94 16 16 0 0 1-3.16-.3c-.27.0-.52-.12-.78-.18l-.77-.22c-.26-.08-.5-.18-.75-.26l-.37-.14-.36-.16a24.77 24.77.0 0 1-2.72-1.43c-.87-.5-1.7-1-2.51-1.53a27.87 27.87.0 0 0-4.9-2.59 18.07 18.07.0 0 0-2.61-.74 18.76 18.76.0 0 0-2.71-.34 21.37 21.37.0 0 0-2.77.0 26.78 26.78.0 0 0-2.78.36 39.63 39.63.0 0 0-5.49 1.44c-1.82.61-3.6 1.32-5.38 2.07s-3.54 1.63-5.31 2.44z" opacity=".27"/><path d="m83.3 56.29a39.22 39.22.0 0 1 3.7-3.08 22.47 22.47.0 0 1 4.23-2.46 14 14 0 0 1 2.39-.75 10.93 10.93.0 0 1 2.56-.3 9.67 9.67.0 0 1 2.61.36c.21.07.43.13.63.21l.32.11.3.13c.4.17.79.37 1.16.57.75.41 1.44.86 2.1 1.28l1 .62c.32.19.65.36 1 .53l.5.25.26.11.25.11.51.21.53.19.26.1.26.08.53.16c.36.09.72.19 1.08.26a16.43 16.43.0 0 0 2.2.32h.55 1.66.55.27.27l.55-.07.47-.23a17 17 0 0 0 2.15-.55 44.14 44.14.0 0 0 4.3-1.71l2.22-1c.76-.3 1.53-.6 2.33-.86a22 22 0 0 1 2.45-.65 21.29 21.29.0 0 1 2.55-.23 23.25 23.25.0 0 1 2.5-.06c.83.0 1.66.07 2.48.16a75 75 0 0 1 9.47 1.9l2.32.55 1.17.26 1.16.25c1.55.32 3.12.58 4.71.75-.39.0-.8.06-1.2.07h-.6-.6c-.8.0-1.61.0-2.41-.08-1.61-.1-3.2-.3-4.79-.5-3.17-.41-6.31-.92-9.41-1.05a27.79 27.79.0 0 0-4.57.15c-.38.0-.75.1-1.12.17l-.28.05h-.27l-.55.12c-.72.18-1.44.39-2.15.64s-1.42.55-2.13.86-1.42.64-2.15 1a43.6 43.6.0 0 1-4.58 1.86 20.13 20.13.0 0 1-2.49.62l-.64.1-.64.08h-.32-.32l-.59.1a19.36 19.36.0 0 1-5.09-.52c-.42-.1-.83-.23-1.24-.35l-.6-.2-.31-.11-.29-.12-.6-.24-.58-.27-.29-.13-.28-.15c-.19-.11-.38-.2-.56-.31-.37-.22-.74-.43-1.09-.67s-.68-.46-1-.7c-.65-.47-1.28-.93-1.91-1.33-.31-.2-.63-.38-1-.55l-.23-.12-.25-.11c-.16-.08-.32-.13-.49-.2a8.13 8.13.0 0 0-2.09-.46 11.55 11.55.0 0 0-4.4.56 23.7 23.7.0 0 0-4.29 1.84c-.7.38-1.39.77-2.07 1.18s-1.34.82-2.04 1.25z" opacity=".27"/><path d="m218.77 55a4.43 4.43.0 0 1 .12-1.84 5.62 5.62.0 0 1 .84-1.7 8.19 8.19.0 0 1 2.93-2.46 9.58 9.58.0 0 1 1.83-.69c.61-.15 1.22-.29 1.83-.39l.47-.08.46-.06h.47.23.24l.94-.06h.94c.63.0 1.26.0 1.89.08h.47l.47.06.93.13.47.08.46.08.92.2.91.23c.3.07.6.16.9.25s.6.18.89.27l.45.15.43.15c.59.2 1.17.42 1.74.65l.86.35.8.32c.26.11.54.2.8.3l.41.14.41.13a26.54 26.54.0 0 0 3.32.87l.84.16.85.13.86.11.86.09c1.15.1 2.31.14 3.48.14h1.31.44.44.44c.29.0.59.0.88-.06 2.35-.16 4.71-.48 7.08-.84l3.56-.57c1.18-.19 2.38-.38 3.58-.55-1.12.46-2.26.89-3.4 1.29s-2.29.79-3.45 1.14a53 53 0 0 1-7.12 1.67l-.91.14-.46.06h-.46l-.42-.07h-.46c-.31.0-.62.06-.93.07a33.31 33.31.0 0 1-3.74.0 29.59 29.59.0 0 1-3.73-.43 28.93 28.93.0 0 1-3.67-.91l-.45-.15-.44-.16-.88-.34-.87-.36-.81-.35c-1.08-.45-2.17-.87-3.27-1.24a28.42 28.42.0 0 0-6.75-1.4l-.86-.06h-.86-1.28-.43c-.58.0-1.16.1-1.73.16a7.65 7.65.0 0 0-1.61.37 6.67 6.67.0 0 0-.78.31 5.34 5.34.0 0 0-.75.39 7 7 0 0 0-1.35 1 5.14 5.14.0 0 0-1 1.37 4.39 4.39.0 0 0-.58 1.73z" opacity=".27"/><path d="m46.9 32.1c.58-.34 1.17-.65 1.76-.93s1.21-.55 1.83-.8l.51-.17.47-.16a4.42 4.42.0 0 1 .48-.15c.17-.06.33-.1.49-.14l.5-.14.5-.11c.33-.07.68-.12 1-.17a12.43 12.43.0 0 1 4.25.11h.14.13l.26.08.53.14c.35.12.69.25 1 .38.64.27 1.24.56 1.8.82a13.69 13.69.0 0 0 1.62.65 11 11 0 0 0 1.67.37q.89.12 1.83.18l1.92.13 1.93.14 1 .07 1 .07c.65.0 1.3.1 2 .17s1.31.12 2 .22c-.63.21-1.27.38-1.91.54s-1.29.29-1.94.41l-1 .17-1 .14c-.65.1-1.31.17-2 .23s-1.31.1-2 .13a18 18 0 0 1-2.07.0 11.07 11.07.0 0 1-2.16-.36 10.57 10.57.0 0 1-1-.35c-.33-.13-.65-.27-1-.41l-.9-.42c-.28-.15-.56-.28-.84-.4s-.54-.25-.8-.35l-.41-.14-.2-.07h-.1-.1l-.42-.11-.42-.1-.43-.08-.43-.07h-.22-.22-.45-.45-.45-.92-.47-.47c-.63.0-1.26.1-1.9.16l-1 .11-1 .12c-.61-.01-1.27.04-1.94.09z" opacity=".27"/><path d="m167.84 55.27a9.49 9.49.0 0 1 1.2-1.79l.36-.41.39-.4c.26-.25.54-.5.83-.73a12.13 12.13.0 0 1 3.95-2.11 11.31 11.31.0 0 1 2.24-.48 13.32 13.32.0 0 1 2.27-.1 19.94 19.94.0 0 1 2.21.2c.73.1 1.44.23 2.14.38 1.39.28 2.74.62 4.06.9.66.14 1.33.27 2 .39l1 .17.5.08.51.08 1 .14 1 .13.51.06.52.06 1 .1c.69.07 1.39.12 2.09.17l2.12.16a21.15 21.15.0 0 1-2.06.61l-1 .22-.53.1-.53.08c-.71.11-1.42.19-2.14.24l-1.08.06h-1.08a31.13 31.13.0 0 1-4.31-.31c-1.44-.2-2.82-.51-4.17-.78-.67-.14-1.34-.28-2-.4s-1.31-.2-2-.27a3.88 3.88.0 0 0-.48.0h-.48c-.32.0-.65.0-1 0a12.32 12.32.0 0 0-1.91.17 14.11 14.11.0 0 0-1.9.44l-.47.15-.46.17-.46.19-.23.1-.23.11a13.54 13.54.0 0 0-1.79 1c-.43.27-1.03.68-1.59 1.12z" opacity=".27"/></g></svg>