<svg xmlns="http://www.w3.org/2000/svg" viewBox="0 -4 134.28 95"><defs><style>.cls-1{fill:#3787c5;stroke-width:1.65px}.cls-1,.cls-2,.cls-3,.cls-5{stroke:#4d3224}.cls-1,.cls-10,.cls-3{stroke-linecap:round;stroke-linejoin:round}.cls-2{fill:#80d8d6;stroke-width:1.97px}.cls-2,.cls-5{stroke-miterlimit:10}.cls-3{fill:#47532a;stroke-width:2.06px}.cls-4{fill:#4d3224}.cls-5{fill:#ffefba;stroke-width:1.26px}.cls-6{fill:#2f7ca6}.cls-7{fill:#f5e69a}.cls-8{fill:#4e342e}.cls-9{fill:#b3b3b3}.cls-10{fill:none;stroke:#e3e3e3;stroke-width:.88px}.Body{-webkit-animation:shock-An 2s linear infinite;animation:shock-An 2s linear infinite}@keyframes shock-An{0%{-webkit-transform:translateY(0px);transform:translateY(0px)}15%{-webkit-transform:translateY(-2px);transform:translateY(-2px)}30%{-webkit-transform:translateY(0px);transform:translateY(0px)}40%{-webkit-transform:translateY(0px);transform:translateY(0px)}55%{-webkit-transform:translateY(-2px);transform:translateY(-2px)}70%{-webkit-transform:translateY(0px);transform:translateY(0px)}85%{-webkit-transform:translateY(-2px);transform:translateY(-2px)}100%{-webkit-transform:translateY(0px);transform:translateY(0px)}}</style></defs><title>home-traffic-after-04</title><g class="Body"><path class="cls-1" d="M46.27 57.47V30c0-6.58.0-8.58-8.16-8.58H28.54a7.52 7.52.0 0 0-3.37.8l-15.89 8a8.54 8.54.0 0 0-4.52 6.64L1.05 66.58C0 74.21 2.78 76 8.94 76H133.4V57.47z"/><path class="cls-2" d="M31.33 28.32a1.29 1.29.0 0 0-1.87-1.15L11.9 34.65A5.47 5.47.0 0 0 9 38.87l-.77 6.29a1.29 1.29.0 0 0 1.28 1.45H30.05a1.29 1.29.0 0 0 1.29-1.29v-17z"/><path class="cls-3" d="M133.24 57.47H39.41V5.78A4.75 4.75.0 0 1 44.15 1H128.5a4.75 4.75.0 0 1 4.74 4.75z"/><path class="cls-4" d="M10.8 50c-.8.0-2.31-1.4-3.43-2.58a2.93 2.93.0 0 1-.13-3.91c1.14-1.3 2.72-2.55 3.55-2.55h0a2.53 2.53.0 0 1 2.52 2.52v4A2.53 2.53.0 0 1 10.8 50z"/><path class="cls-5" d="M2.26 60.58H6.62c3.88.0 4.87-1.1 5.67-3.1.0.0 1.92-3.61-2.91-3.61H4.16s-2-.06-2 2.52z"/><rect class="cls-6" x="39.73" y="61.74" width="89.68" height="1.55" rx=".73" ry=".73"/><rect class="cls-6" x="39.73" y="67.1" width="89.68" height="1.55" rx=".73" ry=".73"/><path class="cls-7" d="M91.61 46.57V51.7H90.2V46.57H89V45.35h3.74v1.22z"/><path class="cls-7" d="M98.14 47.34a2.36 2.36.0 0 1-.16.92 1.8 1.8.0 0 1-1 1 2 2 0 0 1-.69.12h-.62V51.7h-1.4V45.35h2a2.4 2.4.0 0 1 .69.1 1.77 1.77.0 0 1 .62.33 1.61 1.61.0 0 1 .46.61A2.27 2.27.0 0 1 98.14 47.34zm-1.34.0a.8.8.0 0 0-.21-.62.68.68.0 0 0-.5-.19h-.46v1.66h.46a.63.63.0 0 0 .5-.22A.89.89.0 0 0 96.8 47.37z"/><path class="cls-7" d="M99.8 51.7V45.35h3.07v1.27h-1.69v1.24h1.56v1.19h-1.56v1.36H103V51.7z"/><path class="cls-7" d="M104.41 49.75V48.69h1.72v1.06z"/><path class="cls-7" d="M111.72 48.53a7.44 7.44.0 0 1-.09 1.12 4 4 0 0 1-.31 1.07 2.11 2.11.0 0 1-.64.8 1.66 1.66.0 0 1-1.05.32 1.71 1.71.0 0 1-1.06-.32 2.08 2.08.0 0 1-.63-.8 3.4 3.4.0 0 1-.31-1.07 7.38 7.38.0 0 1-.08-1.12 7.2 7.2.0 0 1 .08-1.12 3.46 3.46.0 0 1 .31-1.08 2.16 2.16.0 0 1 .63-.8 1.71 1.71.0 0 1 1.06-.31 1.66 1.66.0 0 1 1.05.31 2.18 2.18.0 0 1 .64.8 4.1 4.1.0 0 1 .31 1.08A7.24 7.24.0 0 1 111.72 48.53zm-1.44.0c0-.21.0-.44.0-.68a5.86 5.86.0 0 0-.09-.66 2 2 0 0 0-.2-.51.4.4.0 0 0-.34-.2.38.38.0 0 0-.34.2 1.7 1.7.0 0 0-.2.51 4.17 4.17.0 0 0-.1.66c0 .24.0.47.0.68s0 .44.0.68a4.17 4.17.0 0 0 .1.66 1.54 1.54.0 0 0 .2.5.38.38.0 0 0 .34.2.4.4.0 0 0 .34-.2 1.8 1.8.0 0 0 .2-.5 5.86 5.86.0 0 0 .09-.66C110.27 49 110.28 48.74 110.28 48.53z"/><path class="cls-7" d="M117.19 49.85a2.08 2.08.0 0 1-.16.85 1.82 1.82.0 0 1-.43.62 1.68 1.68.0 0 1-.63.39 2.45 2.45.0 0 1-.78.13 2.28 2.28.0 0 1-1.34-.4 1.94 1.94.0 0 1-.73-1.22l1.26-.32a1.11 1.11.0 0 0 .25.51.69.69.0 0 0 .79.13 1 1 0 0 0 .21-.19.84.84.0 0 0 .13-.27 1.54 1.54.0 0 0 0-.3.75.75.0 0 0-.24-.61 1 1 0 0 0-.63-.19h-.33V47.92H115a.73.73.0 0 0 .56-.21.89.89.0 0 0 .19-.59.86.86.0 0 0-.14-.46.57.57.0 0 0-.85.0 1 1 0 0 0-.21.43l-1.23-.31a2 2 0 0 1 .31-.7 1.84 1.84.0 0 1 .45-.47 1.93 1.93.0 0 1 .56-.27 2.4 2.4.0 0 1 1.3.0 1.8 1.8.0 0 1 .59.33 1.7 1.7.0 0 1 .42.53 1.81 1.81.0 0 1 .15.76 1.84 1.84.0 0 1-.23.94 1.13 1.13.0 0 1-.64.5v0a1.25 1.25.0 0 1 .73.52A1.58 1.58.0 0 1 117.19 49.85z"/><path class="cls-7" d="M120.49 51.7V47l-.95.72-.64-1.12 1.74-1.27h1.26V51.7z"/><path class="cls-7" d="M128.37 49.59a2.93 2.93.0 0 1-.16 1 2.23 2.23.0 0 1-.43.7 2 2 0 0 1-.64.42 2.29 2.29.0 0 1-.78.14 2.05 2.05.0 0 1-1.27-.41 2 2 0 0 1-.71-1.22l1.23-.38a1.35 1.35.0 0 0 .25.54.59.59.0 0 0 1 0 1.32 1.32.0 0 0 .16-.68.92.92.0 0 0-.27-.73 1 1 0 0 0-.66-.23 3.28 3.28.0 0 0-.64.08 3.48 3.48.0 0 0-.62.2l.13-3.61h3.22V46.6h-2v1.09l.24-.07h.24a1.86 1.86.0 0 1 .77.15 1.51 1.51.0 0 1 .56.4 1.61 1.61.0 0 1 .35.63A2.35 2.35.0 0 1 128.37 49.59z"/></g><g class="Tires"><animateTransform attributeName="transform" dur="260ms" from="0 32.22 75.49" to="-360 32.22 75.49" type="rotate" attributeType="auto" repeatCount="indefinite" /><circle class="cls-8" cx="32.22" cy="75.49" r="12.35"/><circle class="cls-9" cx="32.22" cy="75.49" r="7.48"/><path class="cls-10" d="M38.1 75.43A5.87 5.87.0 0 0 34.46 70"/><path class="cls-10" d="M28.06 79.59a5.86 5.86.0 0 1-1.72-4.16"/></g><g class="Tires"><animateTransform attributeName="transform" dur="260ms" from="0 111.96 75.49" to="-360 111.96 75.49" type="rotate" attributeType="auto" repeatCount="indefinite" /><circle class="cls-8" cx="111.96" cy="75.49" r="12.35"/><circle class="cls-9" cx="111.96" cy="75.49" r="7.48"/><path class="cls-10" d="M117.84 75.43A5.87 5.87.0 0 0 114.2 70"/><path class="cls-10" d="M107.81 79.59a5.83 5.83.0 0 1-1.73-4.16"/></g></svg>