<svg xmlns="http://www.w3.org/2000/svg" viewBox="0 0 1918.18 234.25"><defs><style>.cls-1{isolation:isolate}.cls-2{fill:#a4aaab}.cls-20,.cls-3,.cls-32,.cls-45{fill:none}.cls-10,.cls-11,.cls-12,.cls-13,.cls-14,.cls-15,.cls-16,.cls-22,.cls-23,.cls-25,.cls-26,.cls-27,.cls-29,.cls-3,.cls-32,.cls-34,.cls-35,.cls-36,.cls-37,.cls-4,.cls-41,.cls-42,.cls-6,.cls-8{stroke:#4d3224}.cls-10,.cls-11,.cls-12,.cls-13,.cls-14,.cls-15,.cls-16,.cls-20,.cls-22,.cls-23,.cls-25,.cls-26,.cls-27,.cls-29,.cls-3,.cls-32,.cls-34,.cls-35,.cls-36,.cls-37,.cls-4,.cls-41,.cls-42,.cls-45,.cls-6,.cls-8,.cls-9{stroke-linecap:round;stroke-linejoin:round}.cls-3{stroke-width:1.5px}.cls-4{fill:#f1d4c2}.cls-10,.cls-11,.cls-12,.cls-13,.cls-14,.cls-15,.cls-16,.cls-20,.cls-22,.cls-23,.cls-25,.cls-26,.cls-27,.cls-29,.cls-32,.cls-34,.cls-35,.cls-36,.cls-37,.cls-4,.cls-41,.cls-42,.cls-45,.cls-6,.cls-8,.cls-9{stroke-width:1.31px}.cls-5{fill:#e0bfa9}.cls-6{fill:#e0ab8b}.cls-25,.cls-7{fill:#9a8e80}.cls-8{fill:#e4967d}.cls-11,.cls-9{fill:#da8571}.cls-9{stroke:#da8571}.cls-10{fill:#da7962}.cls-12{fill:#805c54}.cls-13,.cls-44{fill:#80d8d6}.cls-14{fill:#e6ffff}.cls-15{fill:#9fc2c4}.cls-16{fill:#c9e2ff}.cls-17{fill:#4d3224}.cls-18{opacity:.4}.cls-19{fill:#d0ebea}.cls-20{stroke:#426e75}.cls-21{fill:#4e98a0}.cls-22{fill:#7bb52d}.cls-23,.cls-38{fill:#ff9563}.cls-24{fill:#de744c}.cls-26{fill:#426e75}.cls-27{fill:#f27e52}.cls-28,.cls-36{fill:#ffb563}.cls-29{fill:#659225}.cls-30{fill:#50a33f}.cls-31{fill:#479137}.cls-33{fill:#5ab747}.cls-34{fill:#d75968}.cls-35{fill:#c46048}.cls-37{fill:#a14f3b}.cls-39{fill:#72a72a}.cls-40{fill:#8acc2b}.cls-41{fill:#77c4ce}.cls-42{fill:#5aabb9}.cls-43{opacity:.23;mix-blend-mode:color-dodge}.cls-45{stroke:#80d8d6}</style></defs><title>home-city03</title><g class="cls-1"><g id="圖層_2" data-name="圖層 2"><g id="首頁"><path class="cls-2" d="M642.91 213.5h1274.51v20H642.91z"/><path class="cls-3" d="M1917.43 213.5H642.91v20"/><path class="cls-2" d="M.75 213.5h150v20H.75z"/><path class="cls-3" d="M.75 213.5h150v20"/><path class="cls-4" d="M1727.35 112.79V106.71H1700.59V112.79H1689.15V221.06H1738.79V112.79H1727.35z"/><path class="cls-5" d="M1725.29 113.39h6.73v106.53H1725.29z"/><path class="cls-5" d="M1712.96 113.39h6.73v106.53H1712.96z"/><path class="cls-5" d="M1700.43 113.39h6.73v106.53H1700.43z"/><path class="cls-6" d="M1687.87 106.71h53.35v6.69H1687.87z"/><path class="cls-7" d="M1702.5 129.37h2.57v2.61H1702.5z"/><path class="cls-7" d="M1706.99 127.75H1700.59V133.62H1706.99V127.75v0z"/><path class="cls-7" d="M1715.04 129.37h2.57v2.61H1715.04z"/><path class="cls-7" d="M1719.53 127.75H1713.12V133.62H1719.53V127.75v0z"/><path class="cls-7" d="M1727.57 129.37h2.57v2.61H1727.57z"/><path class="cls-7" d="M1732.06 127.75H1725.65V133.62H1732.06V127.75v0z"/><path class="cls-7" d="M1702.5 140.13h2.57v2.61H1702.5z"/><path class="cls-7" d="M1706.99 138.5H1700.59V144.37H1706.99V138.5v0z"/><path class="cls-7" d="M1715.04 140.13h2.57v2.61H1715.04z"/><path class="cls-7" d="M1719.53 138.5H1713.12V144.37H1719.53V138.5v0z"/><path class="cls-7" d="M1727.57 140.13h2.57v2.61H1727.57z"/><path class="cls-7" d="M1732.06 138.5H1725.65V144.37H1732.06V138.5v0z"/><path class="cls-7" d="M1702.5 150.89h2.57v2.61H1702.5z"/><path class="cls-7" d="M1706.99 149.26H1700.59V155.13H1706.99V149.26v0z"/><path class="cls-7" d="M1715.04 150.89h2.57v2.61H1715.04z"/><path class="cls-7" d="M1719.53 149.26H1713.12V155.13H1719.53V149.26v0z"/><path class="cls-7" d="M1727.57 150.89h2.57v2.61H1727.57z"/><path class="cls-7" d="M1732.06 149.26H1725.65V155.13H1732.06V149.26v0z"/><path class="cls-7" d="M1702.5 161.65h2.57v2.61H1702.5z"/><path class="cls-7" d="M1706.99 160.02H1700.59V165.89H1706.99V160.02v0z"/><path class="cls-7" d="M1715.04 161.65h2.57v2.61H1715.04z"/><path class="cls-7" d="M1719.53 160.02H1713.12V165.89H1719.53V160.02v0z"/><path class="cls-7" d="M1727.57 161.65h2.57v2.61H1727.57z"/><path class="cls-7" d="M1732.06 160.02H1725.65V165.89H1732.06V160.02v0z"/><path class="cls-7" d="M1702.5 172.41h2.57v2.61H1702.5z"/><path class="cls-7" d="M1706.99 170.78H1700.59V176.65H1706.99V170.78v0z"/><path class="cls-7" d="M1715.04 172.41h2.57v2.61H1715.04z"/><path class="cls-7" d="M1719.53 170.78H1713.12V176.65H1719.53V170.78v0z"/><path class="cls-7" d="M1727.57 172.41h2.57v2.61H1727.57z"/><path class="cls-7" d="M1732.06 170.78H1725.65V176.65H1732.06V170.78v0z"/><path class="cls-7" d="M1702.5 183.17h2.57v2.61H1702.5z"/><path class="cls-7" d="M1706.99 181.54H1700.59V187.41H1706.99V181.54v0z"/><path class="cls-7" d="M1715.04 183.17h2.57v2.61H1715.04z"/><path class="cls-7" d="M1719.53 181.54H1713.12V187.41H1719.53V181.54v0z"/><path class="cls-7" d="M1727.57 183.17h2.57v2.61H1727.57z"/><path class="cls-7" d="M1732.06 181.54H1725.65V187.41H1732.06V181.54v0z"/><path class="cls-8" d="M1692.7 77.24V64.99H1684.97V53.72H1679.27V44.26H1675.6V34.12H1667.38V12.74H1664.86V34.12H1656.63V44.26H1652.96v9.46H1647.26V64.99H1639.53V77.24H1631.51V221.06H1700.72V77.24H1692.7z"/><path class="cls-9" d="M1648.46 92.93h4.04v106.05H1648.46z"/><path class="cls-9" d="M1658.85 92.93h4.04v106.05H1658.85z"/><path class="cls-9" d="M1669.23 92.93h4.04v106.05H1669.23z"/><path class="cls-9" d="M1679.62 92.93h4.04v106.05H1679.62z"/><path class="cls-10" d="M1656.63 34.12h18.96v10.14H1656.63z"/><path class="cls-10" d="M1647.15 53.72h37.81v11.27H1647.15z"/><path class="cls-11" d="M1653.1 44.26h26.17v9.46H1653.1z"/><path class="cls-11" d="M1640.01 64.55h52.69v12.69H1640.01z"/><path class="cls-12" d="M1649.61 89.01h1.13V192.4H1649.61z"/><path class="cls-12" d="M1652.19 87.68H1648.15V193.73H1652.19V87.68v0z"/><path class="cls-12" d="M1659.99 89.01h1.13V192.4H1659.99z"/><path class="cls-12" d="M1662.58 87.68H1658.54V193.73H1662.58V87.68v0z"/><path class="cls-12" d="M1670.38 89.01h1.13V192.4H1670.38z"/><path class="cls-12" d="M1672.97 87.68H1668.93V193.73H1672.97V87.68v0z"/><path class="cls-12" d="M1680.77 89.01h1.13V192.4H1680.77z"/><path class="cls-12" d="M1683.35 87.68H1679.31V193.73H1683.35V87.68v0z"/><path class="cls-13" d="M1702.5 126.93h2.57v2.61H1702.5z"/><path class="cls-13" d="M1706.99 125.3H1700.59V131.17H1706.99V125.3v0z"/><path class="cls-13" d="M1715.04 126.93h2.57v2.61H1715.04z"/><path class="cls-13" d="M1719.53 125.3H1713.12V131.17H1719.53V125.3v0z"/><path class="cls-13" d="M1727.57 126.93h2.57v2.61H1727.57z"/><path class="cls-13" d="M1732.06 125.3H1725.65V131.17H1732.06V125.3v0z"/><path class="cls-13" d="M1702.5 137.69h2.57v2.61H1702.5z"/><path class="cls-13" d="M1706.99 136.06H1700.59V141.93H1706.99V136.06v0z"/><path class="cls-13" d="M1715.04 137.69h2.57v2.61H1715.04z"/><path class="cls-13" d="M1719.53 136.06H1713.12V141.93H1719.53V136.06v0z"/><path class="cls-13" d="M1727.57 137.69h2.57v2.61H1727.57z"/><path class="cls-13" d="M1732.06 136.06H1725.65V141.93H1732.06V136.06v0z"/><path class="cls-13" d="M1702.5 148.45h2.57v2.61H1702.5z"/><path class="cls-13" d="M1706.99 146.82H1700.59V152.69H1706.99V146.82v0z"/><path class="cls-13" d="M1715.04 148.45h2.57v2.61H1715.04z"/><path class="cls-13" d="M1719.53 146.82H1713.12V152.69H1719.53V146.82v0z"/><path class="cls-13" d="M1727.57 148.45h2.57v2.61H1727.57z"/><path class="cls-13" d="M1732.06 146.82H1725.65V152.69H1732.06V146.82v0z"/><path class="cls-13" d="M1702.5 159.21h2.57v2.61H1702.5z"/><path class="cls-13" d="M1706.99 157.58H1700.59V163.44H1706.99V157.58v0z"/><path class="cls-13" d="M1715.04 159.21h2.57v2.61H1715.04z"/><path class="cls-13" d="M1719.53 157.58H1713.12V163.44H1719.53V157.58v0z"/><path class="cls-13" d="M1727.57 159.21h2.57v2.61H1727.57z"/><path class="cls-13" d="M1732.06 157.58H1725.65V163.44H1732.06V157.58v0z"/><path class="cls-13" d="M1702.5 169.96h2.57v2.61H1702.5z"/><path class="cls-13" d="M1706.99 168.33H1700.59V174.2H1706.99V168.33v0z"/><path class="cls-13" d="M1715.04 169.96h2.57v2.61H1715.04z"/><path class="cls-13" d="M1719.53 168.33H1713.12V174.2H1719.53V168.33v0z"/><path class="cls-13" d="M1727.57 169.96h2.57v2.61H1727.57z"/><path class="cls-13" d="M1732.06 168.33H1725.65V174.2H1732.06V168.33v0z"/><path class="cls-13" d="M1702.5 180.72h2.57v2.61H1702.5z"/><path class="cls-13" d="M1706.99 179.09H1700.59V184.96H1706.99V179.09v0z"/><path class="cls-13" d="M1715.04 180.72h2.57v2.61H1715.04z"/><path class="cls-13" d="M1719.53 179.09H1713.12V184.96H1719.53V179.09v0z"/><path class="cls-13" d="M1727.57 180.72h2.57v2.61H1727.57z"/><path class="cls-13" d="M1732.06 179.09H1725.65V184.96H1732.06V179.09v0z"/><path class="cls-14" d="M1374.44 61.32h20.24V78H1374.44z"/><path class="cls-15" d="M1373.75 59.64h21.62v1.68H1373.75z"/><path class="cls-16" d="M1365.53 71.41h38.05V88.1H1365.53z"/><path class="cls-15" d="M1364.39 69.32h40.34v2.09H1364.39z"/><path class="cls-14" d="M1351.01 84.16h67.09v136.9H1351.01z"/><path class="cls-15" d="M1349.81 81.53h69.5v2.63h-69.5z"/><path class="cls-13" d="M1397.71 72.84a3 3 0 0 1 3 3v5.66h-5.9V75.87A3 3 0 0 1 1397.71 72.84z"/><path class="cls-13" d="M1388.94 72.84a3 3 0 0 1 3 3v5.66H1386V75.87A3 3 0 0 1 1388.94 72.84z"/><path class="cls-13" d="M1380.18 72.84a3 3 0 0 1 3 3v5.66h-5.9V75.87A3 3 0 0 1 1380.18 72.84z"/><path class="cls-13" d="M1371.42 72.84a3 3 0 0 1 2.94 3v5.66h-5.89V75.87A3 3 0 0 1 1371.42 72.84z"/><path class="cls-17" d="M1391.89 60.92h1v8.74h-1z"/><path class="cls-17" d="M1386.76 60.92h1v8.74h-1z"/><path class="cls-17" d="M1381.62 60.92h1v8.74h-1z"/><path class="cls-17" d="M1376.48 60.92h1v8.74h-1z"/><path class="cls-13" d="M1369.46 197.95h30.66v23.1H1369.46z" transform="translate(2769.58 419.01) rotate(180)"/><g class="cls-18"><path class="cls-19" d="M1375.74 199.21V198.69H1377.96L1398.39 220.32H1395.67L1375.74 199.21z"/><path class="cls-19" d="M1399.55 212.26V218.47L1380.87 198.69H1386.73L1399.55 212.26z"/></g><path class="cls-20" d="M1384.56 198.7V220.44z"/><path class="cls-21" d="M1411.57 103.13H1410.5V103.17H1403.34V103.13 90.42 89.72H1411.57V103.13z"/><path class="cls-21" d="M1400.12 103.07H1399.05V103.1H1391.89V103.07 90.35 89.65H1400.12V103.07z"/><path class="cls-21" d="M1377.23 103.07H1376.16V103.1H1369V103.07 90.35 89.65H1377.23V103.07z"/><path class="cls-21" d="M1365.78 89.72V103.13H1364.71V103.17H1357.56V103.13 90.42 89.72H1365.78z"/><path class="cls-21" d="M1387.6 103.17H1380.45V103.13 90.42 89.72H1388.67V103.13H1387.6V103.17z"/><path class="cls-21" d="M1411.57 121.61H1410.5V121.65H1403.34V121.61 108.9 108.19H1411.57V121.61z"/><path class="cls-21" d="M1400.12 121.55H1399.05V121.58H1391.89V121.55 108.83 108.13H1400.12V121.55z"/><path class="cls-21" d="M1377.23 121.55H1376.16V121.58H1369V121.55 108.83 108.13H1377.23V121.55z"/><path class="cls-21" d="M1365.78 108.19V121.61H1364.71V121.65H1357.56V121.61 108.9 108.19H1365.78z"/><path class="cls-21" d="M1387.6 121.65H1380.45V121.61 108.9 108.19H1388.67V121.61H1387.6V121.65z"/><path class="cls-21" d="M1411.57 140.09H1410.5V140.13H1403.34V140.09 127.37 126.67H1411.57V140.09z"/><path class="cls-21" d="M1400.12 140.02H1399.05V140.06H1391.89V140.02 127.31 126.61H1400.12V140.02z"/><path class="cls-21" d="M1377.23 140.02H1376.16V140.06H1369V140.02 127.31 126.61H1377.23V140.02z"/><path class="cls-21" d="M1365.78 126.67V140.09H1364.71V140.13H1357.56V140.09 127.37 126.67H1365.78z"/><path class="cls-21" d="M1387.6 140.13H1380.45V140.09 127.37 126.67H1388.67V140.09H1387.6V140.13z"/><path class="cls-21" d="M1411.57 158.57H1410.5V158.61H1403.34V158.57 145.85 145.15H1411.57V158.57z"/><path class="cls-21" d="M1400.12 158.5H1399.05V158.54H1391.89V158.5 145.79 145.09H1400.12V158.5z"/><path class="cls-21" d="M1377.23 158.5H1376.16V158.54H1369V158.5 145.79 145.09H1377.23V158.5z"/><path class="cls-21" d="M1365.78 145.15V158.57H1364.71V158.61H1357.56V158.57 145.85 145.15H1365.78z"/><path class="cls-21" d="M1387.6 158.61H1380.45V158.57 145.85 145.15H1388.67V158.57H1387.6V158.61z"/><path class="cls-21" d="M1411.57 177.05H1410.5V177.09H1403.34V177.05 164.33 163.63H1411.57V177.05z"/><path class="cls-21" d="M1400.12 176.98H1399.05V177.02H1391.89V176.98 164.27 163.56H1400.12V176.98z"/><path class="cls-21" d="M1377.23 176.98H1376.16V177.02H1369V176.98 164.27 163.56H1377.23V176.98z"/><path class="cls-21" d="M1365.78 163.63V177.05H1364.71V177.09H1357.56V177.05 164.33 163.63H1365.78z"/><path class="cls-21" d="M1387.6 177.09H1380.45V177.05 164.33 163.63H1388.67V177.05H1387.6V177.09z"/><path class="cls-21" d="M1411.57 195.53H1410.5V195.57H1403.34V195.53 182.81 182.11H1411.57V195.53z"/><path class="cls-21" d="M1400.12 195.46H1399.05V195.5H1391.89V195.46 182.75 182.04H1400.12V195.46z"/><path class="cls-21" d="M1377.23 195.46H1376.16V195.5H1369V195.46 182.75 182.04H1377.23V195.46z"/><path class="cls-21" d="M1365.78 182.11V195.53H1364.71V195.57H1357.56V195.53 182.81 182.11H1365.78z"/><path class="cls-21" d="M1387.6 195.57H1380.45V195.53 182.81 182.11H1388.67V195.53H1387.6V195.57z"/><path class="cls-13" d="M1411.57 101.29H1410.5V101.32H1403.34V101.29 88.57 87.87H1411.57V101.29z"/><path class="cls-13" d="M1400.12 101.22H1399.05V101.25H1391.89V101.22 88.51 87.8H1400.12V101.22z"/><path class="cls-13" d="M1377.23 101.22H1376.16V101.25H1369V101.22 88.51 87.8H1377.23V101.22z"/><path class="cls-13" d="M1365.78 87.87V101.29H1364.71V101.32H1357.56V101.29 88.57 87.87H1365.78z"/><path class="cls-13" d="M1387.6 101.32H1380.45V101.29 88.57 87.87H1388.67V101.29H1387.6V101.32z"/><path class="cls-13" d="M1411.57 119.77H1410.5V119.8H1403.34V119.77 107.05 106.35H1411.57V119.77z"/><path class="cls-13" d="M1400.12 119.7H1399.05V119.73H1391.89V119.7 106.98 106.28H1400.12V119.7z"/><path class="cls-13" d="M1377.23 119.7H1376.16V119.73H1369V119.7 106.98 106.28H1377.23V119.7z"/><path class="cls-13" d="M1365.78 106.35V119.77H1364.71V119.8H1357.56V119.77 107.05 106.35H1365.78z"/><path class="cls-13" d="M1387.6 119.8H1380.45V119.77 107.05 106.35H1388.67V119.77H1387.6V119.8z"/><path class="cls-13" d="M1411.57 138.24H1410.5V138.28H1403.34V138.24 125.53 124.83H1411.57V138.24z"/><path class="cls-13" d="M1400.12 138.18H1399.05V138.21H1391.89V138.18 125.46 124.76H1400.12V138.18z"/><path class="cls-13" d="M1377.23 138.18H1376.16V138.21H1369V138.18 125.46 124.76H1377.23V138.18z"/><path class="cls-13" d="M1365.78 124.83V138.24H1364.71V138.28H1357.56V138.24 125.53 124.83H1365.78z"/><path class="cls-13" d="M1387.6 138.28H1380.45V138.24 125.53 124.83H1388.67V138.24H1387.6V138.28z"/><path class="cls-13" d="M1411.57 156.72H1410.5V156.76H1403.34V156.72 144 143.3H1411.57V156.72z"/><path class="cls-13" d="M1400.12 156.66H1399.05V156.69H1391.89V156.66 143.94 143.24H1400.12V156.66z"/><path class="cls-13" d="M1377.23 156.66H1376.16V156.69H1369V156.66 143.94 143.24H1377.23V156.66z"/><path class="cls-13" d="M1365.78 143.3V156.72H1364.71V156.76H1357.56V156.72 144 143.3H1365.78z"/><path class="cls-13" d="M1387.6 156.76H1380.45V156.72 144 143.3H1388.67V156.72H1387.6V156.76z"/><path class="cls-13" d="M1411.57 175.2H1410.5V175.24H1403.34V175.2 162.48 161.78H1411.57V175.2z"/><path class="cls-13" d="M1400.12 175.13H1399.05V175.17H1391.89V175.13 162.42 161.72H1400.12V175.13z"/><path class="cls-13" d="M1377.23 175.13H1376.16V175.17H1369V175.13 162.42 161.72H1377.23V175.13z"/><path class="cls-13" d="M1365.78 161.78V175.2H1364.71V175.24H1357.56V175.2 162.48 161.78H1365.78z"/><path class="cls-13" d="M1387.6 175.24H1380.45V175.2 162.48 161.78H1388.67V175.2H1387.6V175.24z"/><path class="cls-13" d="M1411.57 193.68H1410.5V193.72H1403.34V193.68 180.96 180.26H1411.57V193.68z"/><path class="cls-13" d="M1400.12 193.61H1399.05V193.65H1391.89V193.61 180.9 180.19H1400.12V193.61z"/><path class="cls-13" d="M1377.23 193.61H1376.16V193.65H1369V193.61 180.9 180.19H1377.23V193.61z"/><path class="cls-13" d="M1365.78 180.26V193.68H1364.71V193.72H1357.56V193.68 180.96 180.26H1365.78z"/><path class="cls-13" d="M1387.6 193.72H1380.45V193.68 180.96 180.26H1388.67V193.68H1387.6V193.72z"/><path class="cls-22" d="M121.38 220.8a2.16 2.16.0 0 0 .92-2.65c-.53-1.22-1.09-.59-1.84-.07.54-2.25.52-6.13-.9-7.93-1.21-1.53-3.59.26-4.4 1.79-.63-1-.93-2.28-2.25-2.13-.82.09-1.26 1-2 1.3.55-2.25-.64-6.31-2.59-7.08-2.38-.91-3.24 2.25-3.24 4.4-.79-3.57-3-.43-3.86 1.15-.53-.58-.78-1.6-1.69-1.32-.59.19-1.06 1.26-1.18 1.93-.33-2.48-3-6.11-5.25-5.31s-2.14 3.52-2.18 5.75c-.61-1.53-2.79-1.3-3.61-.22a5 5 0 0 0 0 4.59c-1.11-1.14-2.17-3.41-3.86-2.47-2.19 1.2-.55 3.93-.15 5.78-.25-1.11-3.44-.91-3.6.4-.14 1.13 1.63 2 2.5 2.09z"/><path class="cls-23" d="M79.59 71.05c12 0 21.77 10.7 21.77 23.91H57.82C57.82 81.75 67.57 71.05 79.59 71.05z"/><path class="cls-24" d="M77.64 91.4c0 9.16 1 16.59 2.17 16.59S82 100.56 82 91.4s-1-16.57-2.16-16.57S77.64 82.25 77.64 91.4z"/><path class="cls-24" d="M87.67 91.4c0 9.32-2.28 16.9-1.14 17.39s5.52-7 5.48-17.39S87.55 73.47 86.53 74 87.67 82.09 87.67 91.4z"/><path class="cls-24" d="M71.94 91.4c0 9.32 2.28 16.9 1.14 17.39s-5.52-7-5.48-17.39S72.06 73.47 73.08 74 71.94 82.09 71.94 91.4z"/><path class="cls-4" d="M58.18 104.88H51.89V221.06h54.25V104.88H99.86 58.18z"/><path class="cls-5" d="M88.31 105.52h6.26v65.1H88.31z" transform="translate(182.88 276.15) rotate(180)"/><path class="cls-5" d="M76.06 105.52h6.26v65.1H76.06z" transform="translate(158.37 276.15) rotate(180)"/><path class="cls-5" d="M63.8 105.52h6.26v65.1H63.8z" transform="translate(133.86 276.15) rotate(180)"/><path class="cls-25" d="M51.89 178.33h54.26v42.72H51.89z" transform="translate(158.03 399.39) rotate(180)"/><path class="cls-13" d="M69.24 134.94H63.8V134.88 116.42 115.41H70.06v19.47H69.24V134.94z"/><path class="cls-13" d="M69.24 161.28H63.8V161.23 142.77 141.75H70.06V161.23H69.24V161.28z"/><path class="cls-13" d="M81.5 134.94H76.06V134.88 116.42 115.41h6.25v19.47H81.5V134.94z"/><path class="cls-13" d="M81.49 161.28H76.05V161.23 142.77 141.75H82.31V161.23H81.49V161.28z"/><path class="cls-13" d="M93.75 134.94H88.31V134.88 116.42 115.41H94.57v19.47H93.75V134.94z"/><path class="cls-13" d="M93.75 161.28H88.31V161.23 142.77 141.75h6.25V161.23H93.75V161.28z"/><path class="cls-13" d="M56.96 185.4h44.08v35.66H56.96z" transform="translate(158.01 406.45) rotate(180)"/><path class="cls-26" d="M50.05 178.33h57.39v6.92H50.05z" transform="translate(157.48 363.58) rotate(180)"/><path class="cls-27" d="M50.49 97.96h57.39v6.92H50.49z" transform="translate(158.37 202.84) rotate(180)"/><path class="cls-23" d="M48.32 95.58h62.2v2.38H48.32z" transform="translate(158.83 193.54) rotate(180)"/><path class="cls-23" d="M51.89 171.27h54.26v7.06H51.89z" transform="translate(158.03 349.6) rotate(180)"/><path class="cls-28" d="M52.63 172.12h52.81v2.29H52.63z" transform="translate(158.06 346.53) rotate(180)"/><path class="cls-20" d="M100.4 197.46H57.18z"/><path class="cls-20" d="M92.01 185.4V220.8z"/><path class="cls-20" d="M79.03 185.4V220.8z"/><g class="cls-18"><path class="cls-19" d="M62.47 186.88V186.04H66.04L98.86 220.8H94.5L62.47 186.88z"/><path class="cls-19" d="M100.74 207.86V217.83L70.71 186.04H80.13L100.74 207.86z"/></g><path class="cls-29" d="M1118.37 220.76a1.59 1.59.0 0 1-.68-2c.39-.9.81-.44 1.36-.05-.4-1.67-.38-4.55.67-5.88.9-1.13 2.66.19 3.26 1.32.47-.74.69-1.68 1.67-1.58.61.07.94.77 1.51 1-.4-1.67.47-4.68 1.93-5.25 1.76-.68 2.4 1.67 2.4 3.26.58-2.64 2.23-.32 2.86.85.39-.43.57-1.18 1.25-1 .44.14.79.93.87 1.43.25-1.84 2.22-4.54 3.9-3.94s1.59 2.61 1.61 4.26c.46-1.13 2.08-1 2.69-.16a3.71 3.71.0 0 1 0 3.4c.82-.85 1.61-2.53 2.86-1.83 1.62.89.41 2.91.12 4.29.18-.83 2.54-.68 2.66.29s-1.2 1.48-1.85 1.55z"/><path class="cls-30" d="M1147.07 203.05c.53.2 1.23.79 1.13 2.42-.22 3.84-3 6.07-7.89 6.44a6.07 6.07.0 0 1-3.18-.95 7.21 7.21.0 0 1-5.11.78c-4.36-1-7.12-3.37-7.51-8a4.56 4.56.0 0 1 2-3.88s-2-2.14-1.45-4.68 4-6 8.13-5.09c5.11-5 19.5.68 15.46 11.14C1148.26 202.34 1146.91 203 1147.07 203.05z"/><path class="cls-31" d="M1147.07 203.05c.53.2 1.23.79 1.13 2.42-.22 3.84-3 6.07-7.89 6.44a6.07 6.07.0 0 1-3.18-.95 7.21 7.21.0 0 1-5.11.78c-3.91-.89-6.39-2.85-7.23-6.3 1.76 2.38 4.76 4 6 1.27.7 3.93 11 3.5 10.69-.24 2.13.87 4.81-1.82 2.76-3.54 2.66.0 4.38-3.76 4.91-7.19a9 9 0 0 1-.43 5.54C1148.26 202.34 1146.91 203 1147.07 203.05z"/><path class="cls-32" d="M1147.07 203.05c.53.2 1.23.79 1.13 2.42-.22 3.84-3 6.07-7.89 6.44a6.07 6.07.0 0 1-3.18-.95 7.21 7.21.0 0 1-5.11.78c-4.36-1-7.12-3.37-7.51-8a4.56 4.56.0 0 1 2-3.88s-2-2.14-1.45-4.68 4-6 8.13-5.09c5.11-5 19.5.68 15.46 11.14C1148.26 202.34 1146.91 203 1147.07 203.05z"/><path class="cls-17" d="M1133.16 208.37s3.44.67 3.44 5.91.19 5.37.19 5.37a2.58 2.58.0 0 1-1.36 1.22c-.6.22-.29.14 1.9.14 1.63.0 2.27.14 1.87-.07s-1.09-.66-1.12-1.22c-.12-2.3-.75-6.16.0-8.51s3.92-3.16 3.62-3.44-3.45 2-3.63 1.92a34.18 34.18.0 0 1 1.29-4.65c.27-.81-.44-.3-.67.28a42.13 42.13.0 0 1-1.46 4.24c-.27.16-1.14-5.19-1.56-5.36s-.38.12-.38.61 1.61 4.41 1.16 4.59-2.13-1.19-2.85-1.37S1133.16 208.37 1133.16 208.37z"/><path class="cls-33" d="M1137.59 193.27a1.35 1.35.0 0 1 .33.34 1.61 1.61.0 0 1 .32.87 2.22 2.22.0 0 1-.09.75.72.72.0 0 1-.3.44c-.15.08-.36.0-.54-.21a1.65 1.65.0 0 1-.3-1 1.57 1.57.0 0 1 .3-.88C1137.46 193.42 1137.59 193.27 1137.59 193.27z"/><path class="cls-33" d="M1139.49 193.44a1.62 1.62.0 0 1 .18 1.16c-.18.55-.54.92-.82.83s-.36-.61-.18-1.16A1.62 1.62.0 0 1 1139.49 193.44z"/><path class="cls-33" d="M1141.43 194.47a1.69 1.69.0 0 1 0 .42 1.36 1.36.0 0 1-.35.75c-.4.41-.83.59-1.1.43s-.12-.75.33-1.2a1.31 1.31.0 0 1 .72-.35A2.2 2.2.0 0 1 1141.43 194.47z"/><path class="cls-33" d="M1142.15 196.41a1.4 1.4.0 0 1-.68.68c-.43.18-.85.15-1-.07s.18-.56.65-.75A1.29 1.29.0 0 1 1142.15 196.41z"/><path class="cls-33" d="M1135.58 195.08a.94.94.0 0 1 .62.14c.24.16.37.4.3.54s-.36.1-.65-.09A.9.9.0 0 1 1135.58 195.08z"/><path class="cls-33" d="M1130.33 200.73a.85.85.0 0 1 .28.12 1 1 0 0 1 .4.43 1.48 1.48.0 0 1 .13.46.44.44.0 0 1-.07.33c-.07.09-.2.1-.37.0a1 1 0 0 1-.41-.48 1 1 0 0 1 0-.59A1.55 1.55.0 0 1 1130.33 200.73z"/><path class="cls-33" d="M1132.88 200.48a.86.86.0 0 1 .09.25.81.81.0 0 1 0 .53c-.13.34-.34.55-.54.52s-.26-.41-.1-.78a.88.88.0 0 1 .34-.39A1.83 1.83.0 0 1 1132.88 200.48z"/><path class="cls-33" d="M1133.79 201.44a.92.92.0 0 1-.24.57c-.2.21-.46.3-.58.2s0-.37.2-.6A.86.86.0 0 1 1133.79 201.44z"/><path class="cls-33" d="M1129.59 202.29a.56.56.0 0 1 .4-.07c.18.0.32.14.31.24s-.19.15-.4.11A.6.6.0 0 1 1129.59 202.29z"/><path class="cls-22" d="M1310.46 219.42a2.52 2.52.0 0 0 1.06-3.06c-.61-1.4-1.26-.67-2.13-.08.63-2.6.6-7.07-1-9.15-1.39-1.76-4.14.3-5.07 2.07-.73-1.17-1.07-2.63-2.6-2.46-1 .11-1.46 1.18-2.35 1.5.63-2.6-.74-7.28-3-8.17-2.74-1.06-3.74 2.6-3.73 5.08-.92-4.12-3.47-.5-4.46 1.32-.61-.66-.89-1.84-1.94-1.51-.69.21-1.23 1.45-1.36 2.22-.39-2.86-3.46-7.05-6.07-6.13s-2.47 4.07-2.51 6.63c-.71-1.76-3.22-1.49-4.17-.25s-.81 4 0 5.29c-1.29-1.31-2.51-3.93-4.46-2.84-2.52 1.39-.63 4.53-.18 6.66-.28-1.28-4-1-4.15.46-.16 1.31 1.88 2.31 2.89 2.42z"/><path class="cls-17" d="M1291.01 210.7h2.68v8.8H1291.01z"/><path class="cls-17" d="M1285.53 210.7h2.68v8.8H1285.53z"/><path class="cls-17" d="M1279.45 210.7h2.69v8.8H1279.45z"/><path class="cls-17" d="M1273.99 210.71h2.68v8.8H1273.99z"/><path class="cls-17" d="M1268.48 210.71h2.68v8.8H1268.48z"/><path class="cls-17" d="M1262.36 210.71h2.69v8.8H1262.36z"/><path class="cls-17" d="M1262.36 212.61h31.33v.83H1262.36z"/><path class="cls-17" d="M1290.69 209.05a1.66 1.66.0 1 0 1.66-1.67A1.66 1.66.0 0 0 1290.69 209.05z"/><path class="cls-17" d="M1285.21 209.05a1.66 1.66.0 1 0 1.66-1.67A1.66 1.66.0 0 0 1285.21 209.05z"/><path class="cls-17" d="M1279.13 209.05a1.67 1.67.0 0 0 3.33.0 1.67 1.67.0 1 0-3.33.0z"/><path class="cls-17" d="M1273.67 209.05a1.67 1.67.0 0 0 3.33.0 1.67 1.67.0 1 0-3.33.0z"/><path class="cls-17" d="M1268.15 209.05a1.67 1.67.0 1 0 1.67-1.67A1.66 1.66.0 0 0 1268.15 209.05z"/><path class="cls-17" d="M1262 209.05a1.67 1.67.0 0 0 3.33.0 1.67 1.67.0 1 0-3.33.0z"/><path class="cls-4" d="M1219.54 157.08V148.56H1205.17V134.75H1203.35V148.56H1189.32V157.08H1143.55V167.92H1147.16V220.5H1261.86V167.92H1265.31V157.08H1219.54z"/><path class="cls-34" d="M1203.35 134.75h12.73v8.6H1203.35z"/><path class="cls-35" d="M1192.78 188.92h23.42v31.57H1192.78z"/><path class="cls-27" d="M1143.55 157.08h121.76v10.84H1143.55z"/><path class="cls-36" d="M1189.32 148.56h30.86v8.52H1189.32z"/><path class="cls-35" d="M1192.78 188.93 1198.42 195.04H1211.19L1216.08 188.93"/><path class="cls-35" d="M1198.45 195.04V220.5z"/><path class="cls-37" d="M1198.42 195.04h12.76v25.46H1198.42z"/><path class="cls-5" d="M1160.14 178.09h6.98v6.98H1160.14z"/><path class="cls-5" d="M1160.14 190.88h6.98v6.98H1160.14z"/><path class="cls-5" d="M1160.14 203.67h6.98v6.98H1160.14z"/><path class="cls-5" d="M1176.46 178.09h6.98v6.98H1176.46z"/><path class="cls-5" d="M1176.46 190.88h6.98v6.98H1176.46z"/><path class="cls-5" d="M1176.46 203.67h6.98v6.98H1176.46z"/><path class="cls-5" d="M1225.42 178.09h6.98v6.98H1225.42z"/><path class="cls-5" d="M1225.42 190.88h6.98v6.98H1225.42z"/><path class="cls-5" d="M1225.42 203.67h6.98v6.98H1225.42z"/><path class="cls-5" d="M1192.78 178.09h6.98v6.98H1192.78z"/><path class="cls-5" d="M1209.1 178.09h6.98v6.98H1209.1z"/><path class="cls-5" d="M1241.74 178.09h6.98v6.98H1241.74z"/><path class="cls-5" d="M1241.74 190.88h6.98v6.98H1241.74z"/><path class="cls-5" d="M1241.74 203.67h6.98v6.98H1241.74z"/><path class="cls-13" d="M1160.14 176.13h6.98v6.98H1160.14z"/><path class="cls-13" d="M1160.14 188.92h6.98v6.98H1160.14z"/><path class="cls-13" d="M1160.14 201.72h6.98v6.98H1160.14z"/><path class="cls-13" d="M1176.46 176.13h6.98v6.98H1176.46z"/><path class="cls-13" d="M1176.46 188.92h6.98v6.98H1176.46z"/><path class="cls-13" d="M1176.46 201.72h6.98v6.98H1176.46z"/><path class="cls-13" d="M1225.42 176.13h6.98v6.98H1225.42z"/><path class="cls-13" d="M1225.42 188.92h6.98v6.98H1225.42z"/><path class="cls-13" d="M1225.42 201.72h6.98v6.98H1225.42z"/><path class="cls-13" d="M1192.78 176.13h6.98v6.98H1192.78z"/><path class="cls-13" d="M1209.1 176.13h6.98v6.98H1209.1z"/><path class="cls-13" d="M1241.74 176.13h6.98v6.98H1241.74z"/><path class="cls-13" d="M1241.74 188.92h6.98v6.98H1241.74z"/><path class="cls-13" d="M1241.74 201.72h6.98v6.98H1241.74z"/><path class="cls-38" d="M1144.34 158.02h120.13v4.48H1144.34z"/><path class="cls-17" d="M1203.35 134.75h1.82v13.81H1203.35z"/><path class="cls-22" d="M1298.33 202.27c-8.37 3.22-10.51.48-13.73-2.5a8.78 8.78.0 0 1-6.21 4.17c-7.66 1-18.32-18-4.57-24.35-2.23-11.46 16.78-13.28 21.76-8.83.91.81 3.82 3.68 3.23 4.9-.35.69 4-1.17 6.92 9.57C1307.92 194.57 1300.85 201.3 1298.33 202.27z"/><path class="cls-39" d="M1298.33 202.27c-8.37 3.22-10.51.48-13.73-2.5a8.78 8.78.0 0 1-6.21 4.17c-5.86.75-13.48-10.19-10.58-18.22.13 9.22 15.1 15.44 17 7.6 1.33 7 16 4.92 14.33-1.89 3.21.0 5.49-2.86 6.59-6.2.08.3.16.61.23.93C1307.77 193.58 1301.44 201.07 1298.33 202.27z"/><path class="cls-32" d="M1298.33 202.27c-8.37 3.22-10.51.48-13.73-2.5a8.78 8.78.0 0 1-6.21 4.17c-7.66 1-18.32-18-4.57-24.35-2.23-11.46 16.78-13.28 21.76-8.83.91.81 3.82 3.68 3.23 4.9-.35.69 4-1.17 6.92 9.57C1307.92 194.57 1300.85 201.3 1298.33 202.27z"/><path class="cls-40" d="M1285 175.18a2.35 2.35.0 0 0-.54.56 2.72 2.72.0 0 0-.53 1.42 3.81 3.81.0 0 0 .15 1.23 1.15 1.15.0 0 0 .5.71c.24.13.58.0.88-.34a2.75 2.75.0 0 0 .49-1.56 2.47 2.47.0 0 0-.49-1.43C1285.22 175.43 1285 175.18 1285 175.18z"/><path class="cls-40" d="M1281.89 175.45a2.68 2.68.0 0 0-.3 1.9c.29.9.89 1.52 1.34 1.37s.59-1 .3-1.91A2.64 2.64.0 0 0 1281.89 175.45z"/><path class="cls-40" d="M1278.72 177.14a2.6 2.6.0 0 0 0 .68 2.24 2.24.0 0 0 .57 1.23c.67.67 1.38 1 1.81.7s.2-1.23-.53-2a2.3 2.3.0 0 0-1.19-.57A3.67 3.67.0 0 0 1278.72 177.14z"/><path class="cls-40" d="M1277.53 180.31a2.3 2.3.0 0 0 1.12 1.12c.7.29 1.4.25 1.57-.12s-.29-.91-1.06-1.23A2.19 2.19.0 0 0 1277.53 180.31z"/><path class="cls-40" d="M1288.29 178.14a1.49 1.49.0 0 0-1 .22c-.4.27-.61.67-.49.89s.59.17 1.06-.14A1.44 1.44.0 0 0 1288.29 178.14z"/><path class="cls-40" d="M1296.89 187.38a1.56 1.56.0 0 0-.46.2 1.77 1.77.0 0 0-.65.7 2.37 2.37.0 0 0-.22.76.77.77.0 0 0 .11.55c.11.13.34.16.61.0a1.72 1.72.0 0 0 .67-.79 1.63 1.63.0 0 0 .07-1C1297 187.59 1296.89 187.38 1296.89 187.38z"/><path class="cls-40" d="M1292.71 187a1.74 1.74.0 0 0-.15.41 1.41 1.41.0 0 0 0 .86c.23.56.57.91.89.86s.42-.67.17-1.28a1.54 1.54.0 0 0-.56-.64A3.07 3.07.0 0 0 1292.71 187z"/><path class="cls-40" d="M1291.23 188.55a1.47 1.47.0 0 0 .38.94c.34.34.76.49 1 .32s.06-.61-.32-1A1.43 1.43.0 0 0 1291.23 188.55z"/><path class="cls-40" d="M1298.1 189.94a1 1 0 0 0-.65-.12c-.3.06-.53.24-.51.4s.3.25.66.18A.94.94.0 0 0 1298.1 189.94z"/><path class="cls-17" d="M1280 199.43s5.47 1.06 5.47 9.39.29 8.53.29 8.53a4.06 4.06.0 0 1-2.15 1.94c-1 .34-.46.22 3 .22 2.58.0 3.59.23 3-.11-.81-.43-1.73-1-1.78-1.94-.19-3.66-1.19-9.79.0-13.53s6.22-5 5.74-5.46-5.47 3.17-5.75 3.06 1.61-6.09 2-7.39-.7-.48-1.08.44-1.89 6.46-2.32 6.73-1.81-8.24-2.48-8.51-.6.2-.59 1 2.56 7 1.84 7.29-3.39-1.89-4.53-2.17S1280 199.43 1280 199.43z"/><path class="cls-30" d="M1819.74 183c1.11.43 2.58 1.64 2.37 5-.47 8-6.33 12.63-16.45 13.42-3.17.24-6.62-2-6.62-2a15.12 15.12.0 0 1-10.65 1.63c-9.08-2.07-14.82-7-15.63-16.58-.45-5.07 4.21-8.08 4.21-8.08s-4.29-4.45-3-9.75 8.35-12.53 16.94-10.59c10.64-10.41 40.63 1.41 32.2 23.19C1822.23 181.52 1819.41 182.86 1819.74 183z"/><path class="cls-31" d="M1819.74 183c1.11.43 2.58 1.64 2.37 5-.47 8-6.33 12.63-16.45 13.42-3.17.24-6.62-2-6.62-2a15.12 15.12.0 0 1-10.65 1.63c-8.15-1.86-13.3-5.94-15.05-13.14 3.67 4.95 9.91 8.29 12.39 2.64 1.46 8.19 23 7.3 22.26-.49 4.45 1.81 10-3.79 5.75-7.38 5.55.0 9.13-7.83 10.24-15a18.78 18.78.0 0 1-.9 11.53C1822.23 181.52 1819.41 182.86 1819.74 183z"/><path class="cls-32" d="M1819.74 183c1.11.43 2.58 1.64 2.37 5-.47 8-6.33 12.63-16.45 13.42-3.17.24-6.62-2-6.62-2a15.12 15.12.0 0 1-10.65 1.63c-9.08-2.07-14.82-7-15.63-16.58-.45-5.07 4.21-8.08 4.21-8.08s-4.29-4.45-3-9.75 8.35-12.53 16.94-10.59c10.64-10.41 40.63 1.41 32.2 23.19C1822.23 181.52 1819.41 182.86 1819.74 183z"/><path class="cls-17" d="M1790.77 194.07s7.17 1.39 7.17 12.32.39 11.18.39 11.18a5.38 5.38.0 0 1-2.82 2.55c-1.26.44-.61.28 4 .28 3.39.0 4.72.3 3.89-.14-1.06-.57-2.27-1.37-2.33-2.55-.25-4.79-1.57-12.83-.06-17.73s8.15-6.57 7.53-7.16-7.18 4.15-7.54 4 2.12-8 2.68-9.68-.92-.64-1.41.56-2.47 8.48-3 8.83-2.37-10.81-3.25-11.16-.79.26-.78 1.27 3.36 9.19 2.41 9.56-4.43-2.47-5.94-2.85S1790.77 194.07 1790.77 194.07z"/><path class="cls-33" d="M18e2 162.63a2.93 2.93.0 0 1 .69.71 3.42 3.42.0 0 1 .67 1.8 4.91 4.91.0 0 1-.19 1.57 1.5 1.5.0 0 1-.63.91c-.31.16-.74.0-1.12-.44a3.31 3.31.0 0 1-.62-2 3.05 3.05.0 0 1 .62-1.82A7.75 7.75.0 0 1 18e2 162.63z"/><path class="cls-33" d="M1804 163a3.49 3.49.0 0 1 .38 2.43c-.37 1.14-1.13 1.93-1.71 1.74s-.75-1.27-.38-2.43A3.43 3.43.0 0 1 1804 163z"/><path class="cls-33" d="M1808 165.12a3.29 3.29.0 0 1 0 .87 2.83 2.83.0 0 1-.72 1.56c-.86.85-1.75 1.23-2.3.89s-.26-1.56.68-2.5a3 3 0 0 1 1.51-.73A5.19 5.19.0 0 1 1808 165.12z"/><path class="cls-33" d="M1809.51 169.15a2.9 2.9.0 0 1-1.43 1.43c-.88.37-1.78.32-2-.15s.38-1.16 1.35-1.57A2.83 2.83.0 0 1 1809.51 169.15z"/><path class="cls-33" d="M1795.81 166.39a2 2 0 0 1 1.29.28c.51.34.78.85.63 1.14s-.76.21-1.35-.19A1.82 1.82.0 0 1 1795.81 166.39z"/><path class="cls-33" d="M1784.87 178.15a2.26 2.26.0 0 1 .58.25 2.16 2.16.0 0 1 .84.9 3.25 3.25.0 0 1 .28 1 1 1 0 0 1-.15.69c-.14.17-.43.2-.77.0a2.16 2.16.0 0 1-.85-1 2 2 0 0 1-.09-1.23A5.5 5.5.0 0 1 1784.87 178.15z"/><path class="cls-33" d="M1790.18 177.64a1.86 1.86.0 0 1 .2.52 1.81 1.81.0 0 1 0 1.1c-.29.71-.72 1.16-1.13 1.1s-.54-.86-.22-1.64a1.9 1.9.0 0 1 .71-.81A4 4 0 0 1 1790.18 177.64z"/><path class="cls-33" d="M1792.07 179.64a1.86 1.86.0 0 1-.48 1.2c-.43.43-1 .62-1.21.4s-.07-.77.4-1.26A1.8 1.8.0 0 1 1792.07 179.64z"/><path class="cls-33" d="M1783.34 181.41a1.2 1.2.0 0 1 .82-.16c.39.08.67.31.65.52s-.39.31-.84.22A1.15 1.15.0 0 1 1783.34 181.41z"/><path class="cls-22" d="M1840 205c-7.77 3-9.76.44-12.75-2.32a8.16 8.16.0 0 1-5.77 3.87c-7.12.91-17-16.75-4.25-22.62-2.07-10.65 15.6-12.34 20.22-8.21.84.76 3.55 3.42 3 4.55-.33.65 3.75-1.08 6.43 8.9C1848.93 197.81 1842.37 204.07 1840 205z"/><path class="cls-39" d="M1840 205c-7.77 3-9.76.44-12.75-2.32a8.16 8.16.0 0 1-5.77 3.87c-5.44.7-12.52-9.47-9.83-16.93.12 8.57 14 14.34 15.79 7.06 1.24 6.47 14.83 4.57 13.31-1.75 3 0 5.11-2.66 6.13-5.76.07.28.14.57.22.86C1848.79 196.89 1842.91 203.86 1840 205z"/><path class="cls-32" d="M1840 205c-7.77 3-9.76.44-12.75-2.32a8.16 8.16.0 0 1-5.77 3.87c-7.12.91-17-16.75-4.25-22.62-2.07-10.65 15.6-12.34 20.22-8.21.84.76 3.55 3.42 3 4.55-.33.65 3.75-1.08 6.43 8.9C1848.93 197.81 1842.37 204.07 1840 205z"/><path class="cls-40" d="M1827.64 179.8a2.25 2.25.0 0 0-.5.52 2.46 2.46.0 0 0-.49 1.32 3.3 3.3.0 0 0 .14 1.14 1.11 1.11.0 0 0 .46.67c.22.11.54.0.82-.32a2.52 2.52.0 0 0 .45-1.45 2.3 2.3.0 0 0-.45-1.33A5.65 5.65.0 0 0 1827.64 179.8z"/><path class="cls-40" d="M1824.75 180.05a2.51 2.51.0 0 0-.27 1.77c.27.84.82 1.41 1.24 1.27s.55-.93.28-1.77A2.47 2.47.0 0 0 1824.75 180.05z"/><path class="cls-40" d="M1821.81 181.62a2.24 2.24.0 0 0 0 .63 2.06 2.06.0 0 0 .53 1.15c.62.62 1.27.9 1.68.65s.18-1.14-.5-1.83a2.2 2.2.0 0 0-1.1-.53A3.57 3.57.0 0 0 1821.81 181.62z"/><path class="cls-40" d="M1820.7 184.57a2.12 2.12.0 0 0 1 1c.65.27 1.3.23 1.46-.11s-.27-.85-1-1.14A2 2 0 0 0 1820.7 184.57z"/><path class="cls-40" d="M1830.7 182.55a1.39 1.39.0 0 0-.94.21c-.37.25-.57.61-.46.83s.55.15 1-.14A1.33 1.33.0 0 0 1830.7 182.55z"/><path class="cls-40" d="M1838.69 191.14a1.63 1.63.0 0 0-1 .83 2.5 2.5.0 0 0-.2.71.67.67.0 0 0 .11.51c.1.12.31.15.56.0a1.59 1.59.0 0 0 .62-.74 1.39 1.39.0 0 0 .06-.89C1838.75 191.33 1838.69 191.14 1838.69 191.14z"/><path class="cls-40" d="M1834.81 190.76a1.85 1.85.0 0 0-.15.38 1.33 1.33.0 0 0 0 .81c.21.52.53.84.83.8s.39-.63.16-1.2a1.44 1.44.0 0 0-.52-.59C1835 190.84 1834.81 190.76 1834.81 190.76z"/><path class="cls-40" d="M1833.43 192.22a1.4 1.4.0 0 0 .35.88c.32.32.71.45.89.29s0-.56-.3-.91A1.27 1.27.0 0 0 1833.43 192.22z"/><path class="cls-40" d="M1839.81 193.51a.89.89.0 0 0-.6-.11c-.28.06-.49.22-.48.38s.29.23.61.16A.87.87.0 0 0 1839.81 193.51z"/><path class="cls-17" d="M1823 202.33s5.08 1 5.08 8.73.28 7.92.28 7.92a3.79 3.79.0 0 1-2 1.8c-.89.32-.43.2 2.8.2 2.4.0 3.34.22 2.75-.1-.75-.4-1.61-1-1.65-1.8-.17-3.4-1.11-9.09.0-12.56s5.78-4.66 5.34-5.08-5.09 2.94-5.35 2.84 1.5-5.66 1.9-6.86-.65-.45-1 .4-1.75 6-2.15 6.26-1.68-7.66-2.3-7.91-.56.18-.55.9 2.37 6.51 1.7 6.78-3.14-1.76-4.21-2S1823 202.33 1823 202.33z"/><path class="cls-22" d="M839 203.05c-8.69 3.34-10.92.5-14.27-2.6a9.14 9.14.0 0 1-6.46 4.34c-8 1-19-18.75-4.76-25.33-2.32-11.91 17.46-13.81 22.64-9.18.94.85 4 3.83 3.35 5.1-.36.72 4.21-1.22 7.2 10C849 195 841.62 202 839 203.05z"/><path class="cls-39" d="M839 203.05c-8.69 3.34-10.92.5-14.27-2.6a9.14 9.14.0 0 1-6.46 4.34c-6.09.78-14-10.6-11-18.95.14 9.59 15.71 16 17.67 7.9 1.39 7.24 16.6 5.12 14.9-2 3.35.05 5.72-3 6.86-6.45.08.31.16.64.24 1C848.81 194 842.22 201.81 839 203.05z"/><path class="cls-32" d="M839 203.05c-8.69 3.34-10.92.5-14.27-2.6a9.14 9.14.0 0 1-6.46 4.34c-8 1-19-18.75-4.76-25.33-2.32-11.91 17.46-13.81 22.64-9.18.94.85 4 3.83 3.35 5.1-.36.72 4.21-1.22 7.2 10C849 195 841.62 202 839 203.05z"/><path class="cls-40" d="M825.13 174.88a2.53 2.53.0 0 0-.56.58 2.83 2.83.0 0 0-.55 1.47 4.14 4.14.0 0 0 .16 1.29 1.2 1.2.0 0 0 .52.74c.25.13.6.0.91-.36a2.8 2.8.0 0 0 .51-1.61 2.55 2.55.0 0 0-.51-1.49A7.45 7.45.0 0 0 825.13 174.88z"/><path class="cls-40" d="M821.9 175.16a2.8 2.8.0 0 0-.31 2c.3.94.92 1.57 1.4 1.42s.61-1 .3-2A2.71 2.71.0 0 0 821.9 175.16z"/><path class="cls-40" d="M818.6 176.92a2.61 2.61.0 0 0 0 .71 2.31 2.31.0 0 0 .59 1.28c.7.69 1.43 1 1.88.73s.21-1.28-.55-2a2.4 2.4.0 0 0-1.24-.59A3.94 3.94.0 0 0 818.6 176.92z"/><path class="cls-40" d="M817.37 180.21a2.37 2.37.0 0 0 1.16 1.17c.72.31 1.46.26 1.64-.12s-.31-.95-1.11-1.28A2.29 2.29.0 0 0 817.37 180.21z"/><path class="cls-40" d="M828.56 178a1.51 1.51.0 0 0-1 .23c-.42.28-.64.69-.52.93s.62.17 1.1-.16A1.5 1.5.0 0 0 828.56 178z"/><path class="cls-40" d="M837.5 187.57a1.66 1.66.0 0 0-.48.2 1.81 1.81.0 0 0-.68.74 2.49 2.49.0 0 0-.23.79.8.8.0 0 0 .12.56c.12.14.35.17.63.0a1.83 1.83.0 0 0 .7-.83 1.6 1.6.0 0 0 .07-1C837.57 187.78 837.5 187.57 837.5 187.57z"/><path class="cls-40" d="M833.16 187.15a1.91 1.91.0 0 0-.17.43 1.47 1.47.0 0 0 0 .9c.23.58.59.94.92.89s.44-.7.18-1.34a1.58 1.58.0 0 0-.58-.66A2.93 2.93.0 0 0 833.16 187.15z"/><path class="cls-40" d="M831.61 188.79a1.49 1.49.0 0 0 .4 1c.35.36.79.51 1 .33s0-.63-.33-1A1.47 1.47.0 0 0 831.61 188.79z"/><path class="cls-40" d="M838.75 190.23a1 1 0 0 0-.67-.13c-.32.07-.55.25-.53.42s.32.26.68.19A.94.94.0 0 0 838.75 190.23z"/><path class="cls-17" d="M820 200.09s5.69 1.11 5.69 9.77.31 8.87.31 8.87a4.23 4.23.0 0 1-2.24 2c-1 .36-.48.23 3.14.23 2.69.0 3.74.23 3.08-.12-.84-.44-1.8-1.08-1.85-2-.2-3.81-1.24-10.18-.05-14.07s6.47-5.21 6-5.68-5.7 3.29-6 3.18 1.68-6.33 2.13-7.68-.73-.5-1.12.45-2 6.72-2.41 7-1.88-8.58-2.58-8.86-.62.21-.61 1 2.66 7.28 1.91 7.58-3.52-2-4.71-2.26S820 200.09 820 200.09z"/><path class="cls-41" d="M877.54 221.06H842.38V6.54L877.54 28.8V221.06z"/><path class="cls-13" d="M845.13 40.95H875v1.35H845.13z"/><path class="cls-13" d="M877.74 39.12H842.38V44.13H877.74V39.12v0z"/><path class="cls-13" d="M845.13 53.39H875v1.35H845.13z"/><path class="cls-13" d="M877.74 51.56H842.38V56.57H877.74V51.56v0z"/><path class="cls-13" d="M845.13 65.83H875v1.35H845.13z"/><path class="cls-13" d="M877.74 64H842.38V69.01H877.74V64v0z"/><path class="cls-13" d="M845.13 78.27H875v1.35H845.13z"/><path class="cls-13" d="M877.74 76.44H842.38V81.45H877.74V76.44v0z"/><path class="cls-13" d="M845.13 90.71H875v1.35H845.13z"/><path class="cls-13" d="M877.74 88.88H842.38V93.89H877.74V88.88v0z"/><path class="cls-13" d="M845.13 103.14H875v1.35H845.13z"/><path class="cls-13" d="M877.74 101.32H842.38V106.33H877.74V101.32v0z"/><path class="cls-13" d="M845.13 114.75H875v1.35H845.13z"/><path class="cls-13" d="M877.74 112.92H842.38V117.93H877.74V112.92v0z"/><path class="cls-13" d="M845.13 127.19H875v1.35H845.13z"/><path class="cls-13" d="M877.74 125.36H842.38V130.37H877.74V125.36v0z"/><path class="cls-13" d="M845.13 139.63H875v1.35H845.13z"/><path class="cls-13" d="M877.74 137.8H842.38V142.81H877.74V137.8v0z"/><path class="cls-13" d="M845.13 152.07H875v1.35H845.13z"/><path class="cls-13" d="M877.74 150.24H842.38V155.25H877.74V150.24v0z"/><path class="cls-13" d="M845.13 164.51H875v1.35H845.13z"/><path class="cls-13" d="M877.74 162.68H842.38V167.69H877.74V162.68v0z"/><path class="cls-13" d="M845.13 176.95H875v1.35H845.13z"/><path class="cls-13" d="M877.74 175.12H842.38V180.13H877.74V175.12v0z"/><path class="cls-42" d="M842.38 6.54 854.8.65 887.08 22.21 877.54 28.8 842.38 6.54z"/><path class="cls-42" d="M887.08 22.21V54.74L877.54 60.6V28.8L887.08 22.21z"/><path class="cls-32" d="M882.31 32.47V57.22z"/><g class="cls-43"><path class="cls-44" d="M842.46 87.16V72.76L877.47 109.62V124.02L842.46 87.16z"/><path class="cls-44" d="M877.47 78.79V103.25L842.46 66.39V41.25L877.47 78.79z"/></g><path class="cls-41" d="M867.46 221.06H899.78V47.76L867.46 67.05V221.06z"/><path class="cls-42" d="M890.5 53.3V221.06H899.78V47.38L890.5 53.3z"/><path class="cls-45" d="M870.9 66.99V219.58z"/><path class="cls-45" d="M874.63 64.58v155z"/><path class="cls-45" d="M878.52 62.09V219.58z"/><path class="cls-45" d="M882.8 60.02V219.58z"/><path class="cls-45" d="M887.08 57.22V219.71z"/><path class="cls-45" d="M868.62 70.77H889.02z"/><path class="cls-45" d="M868.91 74.86H889.3z"/><path class="cls-45" d="M868.91 79.52H889.3z"/><path class="cls-45" d="M868.91 84.19H889.3z"/><path class="cls-45" d="M868.91 88.85H889.3z"/><path class="cls-45" d="M868.91 93.52H889.3z"/><path class="cls-45" d="M868.91 98.19H889.3z"/><path class="cls-45" d="M868.91 102.85H889.3z"/><path class="cls-45" d="M868.91 107.52H889.3z"/><path class="cls-45" d="M868.91 112.18H889.3z"/><path class="cls-45" d="M868.91 116.85H889.3z"/><path class="cls-45" d="M868.91 121.52H889.3z"/><path class="cls-45" d="M868.91 126.18H889.3z"/><path class="cls-45" d="M868.91 130.85H889.3z"/><path class="cls-45" d="M868.91 135.51H889.3z"/><path class="cls-45" d="M868.91 140.18H889.3z"/><path class="cls-45" d="M868.91 144.85H889.3z"/><path class="cls-45" d="M868.91 149.51H889.3z"/><path class="cls-45" d="M868.91 154.18H889.3z"/><path class="cls-45" d="M868.91 158.84H889.3z"/><path class="cls-45" d="M868.91 163.51H889.3z"/><path class="cls-45" d="M868.91 168.17H889.3z"/><path class="cls-45" d="M868.91 172.84H889.3z"/><path class="cls-45" d="M868.91 177.51H889.3z"/><path class="cls-45" d="M868.91 182.17H889.3z"/><path class="cls-45" d="M868.91 186.84H889.3z"/><path class="cls-45" d="M868.91 191.5H889.3z"/><path class="cls-45" d="M868.91 196.17H889.3z"/><path class="cls-45" d="M868.91 200.84H889.3z"/><path class="cls-45" d="M868.91 205.5H889.3z"/><path class="cls-45" d="M868.91 210.17H889.3z"/><g class="cls-43"><path class="cls-44" d="M890.5 129.04V119.67L867.71 143.67V153.04L890.5 129.04z"/><path class="cls-44" d="M867.71 123.6V139.52L890.5 115.52V99.15L867.71 123.6z"/></g></g></g></g></svg>