<svg xmlns="http://www.w3.org/2000/svg" xmlns:xlink="http://www.w3.org/1999/xlink" viewBox="0 -2 114.49 70"><defs><style>.cls-1{fill:#ffe13b}.cls-1,.cls-10,.cls-2,.cls-3,.cls-8{stroke:#4d3224}.cls-1,.cls-10,.cls-2,.cls-3{stroke-miterlimit:10}.cls-1,.cls-10,.cls-2{stroke-width:1.42px}.cls-2{fill:url(#linear-gradient)}.cls-3{fill:#80d8d6;stroke-width:1.44px}.cls-10,.cls-4{fill:#ffefba}.cls-5{opacity:.8}.cls-6{fill:#d0ebea}.cls-7{fill:#d00f19}.cls-8,.cls-9{fill:#b3b3b3}.cls-12,.cls-8{stroke-linecap:round;stroke-linejoin:round}.cls-8{stroke-width:1.51px}.cls-11{fill:#4e342e}.cls-12{fill:none;stroke:#e3e3e3;stroke-width:.71px}.Body{-webkit-animation:shock-An 2s linear infinite;animation:shock-An 2s linear infinite}@keyframes shock-An{0%{-webkit-transform:translateY(0px);transform:translateY(0px)}15%{-webkit-transform:translateY(-2px);transform:translateY(-2px)}30%{-webkit-transform:translateY(0px);transform:translateY(0px)}40%{-webkit-transform:translateY(0px);transform:translateY(0px)}55%{-webkit-transform:translateY(-2px);transform:translateY(-2px)}70%{-webkit-transform:translateY(0px);transform:translateY(0px)}85%{-webkit-transform:translateY(-2px);transform:translateY(-2px)}100%{-webkit-transform:translateY(0px);transform:translateY(0px)}}</style><linearGradient id="linear-gradient" x1="12229.7" y1="54.58" x2="12229.7" y2="9.17" gradientTransform="translate(-12172.45)" gradientUnits="userSpaceOnUse"><stop offset="0" stop-color="#ffe458"/><stop offset=".35" stop-color="#ffdf50"/><stop offset=".89" stop-color="#f3d13a"/><stop offset="1" stop-color="#f3ce35"/></linearGradient></defs><title>home-traffic-after-01</title><g class="Body"><path class="cls-1" d="M68.56 12.89a4.65 4.65.0 0 1-4.64-4.64V5.35a4.64 4.64.0 1 1 9.28.0v2.9A4.65 4.65.0 0 1 68.56 12.89z"/><path class="cls-2" d="M113.78 31.42V50.91c0 2.68-1 5-3.78 5L9.71 56.16c-3.3.0-8.88-1-8.65-7.41.0.0-.47-8.46-.32-10.76C1 34.41 4.08 32.45 7 31a45.65 45.65.0 0 1 9.73-3.65c3.17-.79 6.54-1.1 9.46-2.66 2.53-1.34 4.31-3.49 6.58-5.18 8.36-6.24 13-10.79 35.17-10.79 16.35.0 28.74 5.49 36.62 15 .36.43 2.79 1.66 6.66 3.16C112.57 27.41 113.78 28.46 113.78 31.42z"/><path class="cls-3" d="M65.64 12.45c-16 0-28.62 7.41-33.12 15.72a1.6 1.6.0 0 0 1.6 2.27H65.91a1.66 1.66.0 0 0 1.75-1.57V14C67.66 13 66.72 12.45 65.64 12.45z"/><path class="cls-3" d="M75 12.45c14.63.0 25.39 10.31 27 15.72a1.58 1.58.0 0 1-1.45 2.27H74.8a1.59 1.59.0 0 1-1.61-1.57V17.14C73.19 13.8 73.36 12.45 75 12.45z"/><ellipse class="cls-4" cx="66.95" cy="3.58" rx="1.16" ry=".79" transform="translate(30.37 59.77) rotate(-60)"/><g class="cls-5"><path class="cls-6" d="M66.78 18.04 55.84 29.63H52.43L66.82 14.29 66.78 18.04z"/><path class="cls-6" d="M40.49 29.69l15.06-15.4a49.38 49.38.0 0 1 8.6-1.13L48.54 29.69"/></g><path class="cls-6" d="M91.88 18.25 82.63 29.63l3.32.12L94 19.8A17.48 17.48.0 0 0 91.88 18.25z"/><path class="cls-7" d="M76.78 35.71v3.12h-.86V35.71h-.71V35h2.28v.74z"/><path class="cls-7" d="M80.75 36.18a1.32 1.32.0 0 1-.1.55 1 1 0 0 1-.26.39 1.1 1.1.0 0 1-.37.23 1.23 1.23.0 0 1-.42.07h-.38v1.41h-.85V35h1.2A1.52 1.52.0 0 1 80 35a1 1 0 0 1 .38.2 1 1 0 0 1 .27.37A1.28 1.28.0 0 1 80.75 36.18zm-.82.0a.5.5.0 0 0-.12-.37.45.45.0 0 0-.31-.12h-.28v1h.28a.42.42.0 0 0 .31-.13A.57.57.0 0 0 79.93 36.19z"/><path class="cls-7" d="M81.76 38.83V35h1.86v.77h-1v.75h1v.72h-1V38h1.1v.79z"/><path class="cls-7" d="M84.55 37.64V37h1v.64z"/><path class="cls-7" d="M89 36.9a4.08 4.08.0 0 1-.06.68 2 2 0 0 1-.19.65 1.32 1.32.0 0 1-.38.49 1.08 1.08.0 0 1-.64.19 1 1 0 0 1-.64-.19 1.25 1.25.0 0 1-.39-.49 2.33 2.33.0 0 1-.19-.65 5.45 5.45.0 0 1-.05-.68 5.31 5.31.0 0 1 .05-.68 2.15 2.15.0 0 1 .19-.65 1.18 1.18.0 0 1 .39-.49 1 1 0 0 1 .64-.19 1 1 0 0 1 .64.19 1.25 1.25.0 0 1 .38.49 1.9 1.9.0 0 1 .19.65A4 4 0 0 1 89 36.9zm-.88.0c0-.13.0-.27.0-.41a2.25 2.25.0 0 0-.06-.4 1 1 0 0 0-.12-.31.24.24.0 0 0-.2-.13.24.24.0 0 0-.21.13 1 1 0 0 0-.12.31 2.25 2.25.0 0 0-.06.4c0 .14.0.28.0.41s0 .27.0.41a2.25 2.25.0 0 0 .06.4 1.11 1.11.0 0 0 .12.31.24.24.0 0 0 .21.12.23.23.0 0 0 .2-.12 1.11 1.11.0 0 0 .12-.31 2.25 2.25.0 0 0 .06-.4C88.12 37.17 88.12 37 88.12 36.9z"/><path class="cls-7" d="M92.32 37.7a1.24 1.24.0 0 1-.1.52 1.25 1.25.0 0 1-.25.38 1.09 1.09.0 0 1-.39.23 1.46 1.46.0 0 1-.48.08 1.38 1.38.0 0 1-.81-.24 1.21 1.21.0 0 1-.44-.74l.76-.2a.61.61.0 0 0 .16.31.38.38.0 0 0 .3.12.32.32.0 0 0 .3-.16.4.4.0 0 0 .08-.16.57.57.0 0 0 0-.18.44.44.0 0 0-.15-.37.58.58.0 0 0-.38-.12h-.2v-.64H91a.44.44.0 0 0 .33-.13.52.52.0 0 0 .12-.36.57.57.0 0 0-.08-.28.32.32.0 0 0-.27-.13.31.31.0 0 0-.25.11.64.64.0 0 0-.13.26l-.75-.19a1.48 1.48.0 0 1 .19-.42 1.29 1.29.0 0 1 .28-.29 1.06 1.06.0 0 1 .34-.16 1.2 1.2.0 0 1 .38.0 1.4 1.4.0 0 1 .41.06 1.1 1.1.0 0 1 .35.2 1 1 0 0 1 .26.33 1.06 1.06.0 0 1 .09.45 1 1 0 0 1-.14.57.67.67.0 0 1-.38.31v0a.77.77.0 0 1 .44.31A1 1 0 0 1 92.32 37.7z"/><path class="cls-7" d="M94.33 38.83V36l-.58.44-.39-.68L94.42 35h.76v3.86z"/><path class="cls-7" d="M99.11 37.55a1.74 1.74.0 0 1-.09.59 1.43 1.43.0 0 1-.27.43 1 1 0 0 1-.39.25 1.19 1.19.0 0 1-.47.09 1.23 1.23.0 0 1-.77-.25 1.17 1.17.0 0 1-.43-.74l.75-.23a.86.86.0 0 0 .15.32.31.31.0 0 0 .28.14.33.33.0 0 0 .3-.16.79.79.0 0 0 .1-.42.53.53.0 0 0-.17-.44.61.61.0 0 0-.4-.14 2.08 2.08.0 0 0-.39.0l-.37.12L97 35h2v.76H97.75v.66h.15.14a1.16 1.16.0 0 1 .47.09 1 1 0 0 1 .34.24A1.11 1.11.0 0 1 99 37 1.61 1.61.0 0 1 99.11 37.55z"/><path class="cls-8" d="M33.83 34.54c-.85.0-2.44-1.48-3.63-2.73a3.08 3.08.0 0 1-.13-4.14c1.2-1.37 2.87-2.7 3.75-2.7h0a2.68 2.68.0 0 1 2.67 2.67v4.23A2.68 2.68.0 0 1 33.83 34.54z"/><path class="cls-9" d="M19.84 45.38l16.33 7.16a11.89 11.89.0 0 0 5.17 1.17l58.5-1.17a13.61 13.61.0 0 0 6.5-1.83s3.17-1.83 5-1.5l1.7-.14s1.47 6.81-4.87 6.31H16.34L9 55.42s-5.77.43-7.11-4.8L1.34 37.38z"/><path class="cls-10" d="M.84 42.71h4.9c4.38.0 5.49-1.24 6.39-3.49.0.0 2.16-4.07-3.28-4.07H3S.76 35.09.74 38z"/></g><g class="Tires"><animateTransform attributeName="transform" dur="260ms" from="0 95.84 54.82" to="-360 95.84 54.82" type="rotate" attributeType="auto" repeatCount="indefinite" /><circle class="cls-11" cx="95.84" cy="54.82" r="10"/><circle class="cls-9" cx="95.84" cy="54.82" r="6.05"/><path class="cls-12" d="M100.6 54.78a4.78 4.78.0 0 0-2.95-4.41"/><path class="cls-12" d="M92.47 58.14a4.74 4.74.0 0 1-1.39-3.36"/></g><g class="Tires"><animateTransform attributeName="transform" dur="260ms" from="0 24.34 54.82" to="-360 24.34 54.82" type="rotate" attributeType="auto" repeatCount="indefinite" /><circle class="cls-11" cx="24.34" cy="54.82" r="10"/><circle class="cls-9" cx="24.34" cy="54.82" r="6.05"/><path class="cls-12" d="M29.1 54.78a4.78 4.78.0 0 0-3-4.41"/><path class="cls-12" d="M21 58.14a4.74 4.74.0 0 1-1.39-3.36"/></g></svg>