<svg xmlns="http://www.w3.org/2000/svg" viewBox="0 -2 48.58 60"><defs><style>.cls-1{fill:#4e342e}.cls-2,.cls-9{fill:#b3b3b3}.cls-17,.cls-3,.cls-4{fill:none}.cls-3{stroke:#e3e3e3;stroke-width:.49px}.cls-10,.cls-12,.cls-13,.cls-19,.cls-20,.cls-22,.cls-3,.cls-4,.cls-5,.cls-7,.cls-8,.cls-9{stroke-linecap:round;stroke-linejoin:round}.cls-10,.cls-12,.cls-13,.cls-16,.cls-18,.cls-19,.cls-20,.cls-21,.cls-22,.cls-4,.cls-5,.cls-6,.cls-7,.cls-8,.cls-9{stroke:#4d3224}.cls-4{stroke-width:1.1px}.cls-5{fill:#e9e9e7}.cls-10,.cls-12,.cls-13,.cls-16,.cls-17,.cls-18,.cls-19,.cls-20,.cls-21,.cls-22,.cls-5,.cls-6,.cls-7,.cls-8,.cls-9{stroke-width:.62px}.cls-11,.cls-6{fill:#424242}.cls-16,.cls-17,.cls-18,.cls-21,.cls-6{stroke-miterlimit:10}.cls-7{fill:#f1ad80}.cls-8{fill:#75544c}.cls-10{fill:#f2f2f3}.cls-12{fill:#9e6036}.cls-13,.cls-14{fill:#4d3224}.cls-15{fill:#9c9c9c}.cls-16{fill:#ea4336}.cls-17{stroke:#9c9c9c}.cls-18{fill:#ffefba}.cls-19{fill:#2b7299}.cls-20{fill:#f2c09f}.cls-21{fill:#80d8d6}.cls-22{fill:#805c54}.Body{-webkit-animation:shock-An 2s linear infinite;animation:shock-An 2s linear infinite}@keyframes shock-An{0%{-webkit-transform:translateY(0px);transform:translateY(0px)}15%{-webkit-transform:translateY(-2px);transform:translateY(-2px)}30%{-webkit-transform:translateY(0px);transform:translateY(0px)}40%{-webkit-transform:translateY(0px);transform:translateY(0px)}55%{-webkit-transform:translateY(-2px);transform:translateY(-2px)}70%{-webkit-transform:translateY(0px);transform:translateY(0px)}85%{-webkit-transform:translateY(-2px);transform:translateY(-2px)}100%{-webkit-transform:translateY(0px);transform:translateY(0px)}}</style></defs><title>home-traffic-after-02</title><g class="Tires"><animateTransform attributeName="transform" dur="260ms" from="0 40.78 46.31" to="-360 40.78 46.31" type="rotate" attributeType="auto" repeatCount="indefinite" /><circle class="cls-1" cx="40.78" cy="46.31" r="6.84"/><circle class="cls-2" cx="40.78" cy="46.31" r="4.14"/><path class="cls-3" d="M44 46.28a3.26 3.26.0 0 0-2-3"/><path class="cls-3" d="M38.48 48.58a3.23 3.23.0 0 1-.95-2.3"/></g><g class="Tires"><animateTransform attributeName="transform" dur="260ms" from="0 7.51 46.31" to="-360 7.51 46.31" type="rotate" attributeType="auto" repeatCount="indefinite" /><circle class="cls-1" cx="7.51" cy="46.31" r="6.84"/><circle class="cls-2" cx="7.51" cy="46.31" r="4.14"/><path class="cls-3" d="M10.76 46.28a3.26 3.26.0 0 0-2-3"/><path class="cls-3" d="M5.2 48.58a3.23 3.23.0 0 1-1-2.3"/></g><g class="Body"><path class="cls-4" d="M46.76 28.39s2.74 4.12.18 4.94"/><path class="cls-5" d="M19.37 42.37v2.37H14.69s.51-2.17 2.17-2.4z"/><path class="cls-6" d="M17.09 22.19H13.48a.89.89.0 0 1-.88-.88v0a.89.89.0 0 1 .88-.88h3.61a.88.88.0 0 1 .88.88v0A.88.88.0 0 1 17.09 22.19z"/><path class="cls-7" d="M18.1 20.91 17.56 21.72 15.67 22.07 15.38 20.27 17.68 19.83 18.1 20.91z"/><path class="cls-8" d="M29.61 11.34 32.54 14.84 18.1 21.09 17.57 19.68 26.64 12.98 29.61 11.34z"/><path class="cls-9" d="M6.89 47.41a.92.92.0 0 1-.52-.17A.89.89.0 0 1 6.18 46l3.43-4.7a.88.88.0 0 1 1.43 1L7.6 47A.87.87.0 0 1 6.89 47.41z"/><path class="cls-10" d="M11.73 42.71H1.09A.87.87.0 0 1 .4 41.43a5.09 5.09.0 0 1 4-2.67H8.55z"/><path class="cls-11" d="M10.81 37.17c.57 2 .88 4.08 1.93 5.86s3 1.55 5.28 1.55c1.66.0 3.67.14 4-1.94.13-1 .07-2 .16-3 .12-1.51.26-3 .41-4.52.07-.7.48-4.58 1.89-3.6l1.64 6s1.56 7.68-2.74 9.14L14 46.41s-4.48-1.74-5.95-9.33z"/><path class="cls-12" d="M44.54 31.72H24.63v-3.6a1.76 1.76.0 0 1 1.9-1.77c1.66.16 4.92 1.44 8.53 1.44 2.81.0 4.87-.11 6.29-.24a2.92 2.92.0 0 1 3.1 2.34z"/><path class="cls-9" d="M30.59 47.72a.81.81.0 0 1-.88-.78.9.9.0 0 1 .88-.9L40.66 46h0a.93.93.0 0 1 .88.94.83.83.0 0 1-.88.82z"/><path class="cls-10" d="M25.86 36.37a15.74 15.74.0 0 1 .53 4.42c-.09 2.09-.85 5.64-3.54 5.64H14.29c-1.47.0-3.5-3-4.2-4.07a12 12 0 0 1 2.27-15.66 2.7 2.7.0 0 0-2.23.22 6.9 6.9.0 0 0-1.81 1.41C6.36 30.37 3.88 33 3.92 36c0 .1.0.2.0.3C4.1 39 6 41.41 7.44 43.54a51.6 51.6.0 0 0 3.09 4.24 3.65 3.65.0 0 0 2 1l17.32-.1A2.22 2.22.0 0 0 31.9 47c1.47-4.93 8.15-4.93 12.06-6.57.72-.3 3-.94 3.2-1.86.83-3.17-.75-8.06-2.92-8.06-1.23.0-19.79 1-19.8 1a38.76 38.76.0 0 1 1.28 4.31C25.76 36 25.81 36.19 25.86 36.37z"/><path class="cls-13" d="M10.16 26.82a6.63 6.63.0 0 0 1.47-2c.43-1.44-1.88-2.82.0-3.82.71-.38 1.25-.79 2-.44a2 2 0 0 1 .76 2.27q-.63 1.05-1.17 2c-.32.6-.62 1.19-.89 1.76z"/><path class="cls-14" d="M12.2 27s-2.47 5.12-2 10.15L8 37.26S6.72 29.94 12.2 27z"/><rect class="cls-15" x="28.65" y="40.92" width="5.21" height="1.28" rx=".54" ry=".54" transform="translate(62.5 83.12) rotate(-180)"/><rect class="cls-16" x="44.01" y="35.52" width="3.57" height="2.47" rx="1.04" ry="1.04" transform="translate(91.59 73.52) rotate(-180)"/><path class="cls-17" d="M7.7 36.9H4.5z"/><path class="cls-18" d="M4.64 33.78A7.62 7.62.0 0 1 5 39.16S2.25 35.54 4.64 33.78z"/><path class="cls-6" d="M17.37 23.56H13.76a.88.88.0 0 1-.88-.88v0a.88.88.0 0 1 .88-.88h3.61a.89.89.0 0 1 .88.88v0A.89.89.0 0 1 17.37 23.56z"/><path class="cls-19" d="M25.9 29.24 21.1 30.44 17.63 42.43 14.71 42.46 17.89 28.74 26.87 23.69 27.45 29.18 25.9 29.24z"/><path class="cls-20" d="M28.76 7.46 30.04 10.22 27.07 11.86 25.81 9.5 28.76 7.46z"/><path class="cls-20" d="M18.41 22.39 17.87 23.21 15.98 23.55 15.7 21.75 18 21.31 18.41 22.39z"/><path class="cls-10" d="M29.54 7.29l-4.3 2.59a4.2 4.2.0 0 1-3.93-3.24A5.24 5.24.0 0 1 25.88.35c3-.42 5 2.21 4.65 3.62S29.54 7.29 29.54 7.29z"/><path class="cls-21" d="M25.26 9.18s.55-5-3.11-5.76c-.37-.08-.77 1.57-.8 1.75a3.63 3.63.0 0 0 .93 3.27C22.92 9.08 24.57 10.37 25.26 9.18z"/><path class="cls-5" d="M21 42.71v2.37H16.36s.51-2.17 2.17-2.4z"/><path class="cls-19" d="M33 24.55a6.42 6.42.0 0 1 .54 2.92c-.08.62-5 7-9.88 8.44-.54.16-2.07 7-2.07 7H17.27l2.59-12.46 6.24-5.86z"/><path class="cls-22" d="M32.21 10.18a.77.77.0 0 1 .22.22 2 2 0 0 1 .29 1c.06.47.69 5.33.75 5.33.1.74.87 8.48 1.12 8.5l-8.5-.56v-13.18c1.1-.52 2.2-1 3.32-1.52A3.43 3.43.0 0 1 32.21 10.18z"/><path class="cls-14" d="M30.38 5.25c-.71 1.25.73 2.82 1.52 3.64.45.46 1 .83 1.44 1.32.19.21 1.28 2.07.7 2.26l-1.1.37s.64-3-3-3.2l-1-1.83z"/><path class="cls-22" d="M31.52 16.47 18.53 22.72 18 21.31 27.07 14.61 28.59 12.97"/><path class="cls-9" d="M14.61 17.58 12.89 22a.37.37.0 0 1-.48.21.36.36.0 0 1-.2-.47L14 17.14a.38.38.0 0 1 .25-.23"/><path class="cls-14" d="M13.83 17c-.22-1.21-.06-2.27.37-2.34s1 .84 1.17 2.06S15.43 19 15 19 14.06 18.19 13.83 17z"/></g></svg>