<svg xmlns="http://www.w3.org/2000/svg" xmlns:xlink="http://www.w3.org/1999/xlink" viewBox="0 0 195.9 523.48"><defs><style>.cls-1,.cls-30,.cls-32,.cls-33,.cls-38,.cls-48{fill:#888686}.cls-2,.cls-25{fill:#4d3224}.cls-3,.cls-34{fill:#636262}.cls-3{opacity:.45}.cls-4,.cls-6{fill:#babab9}.cls-10,.cls-12,.cls-17,.cls-19,.cls-20,.cls-21,.cls-22,.cls-23,.cls-24,.cls-29,.cls-30,.cls-31,.cls-32,.cls-33,.cls-38,.cls-4,.cls-40,.cls-41,.cls-42,.cls-48,.cls-5,.cls-6,.cls-7,.cls-8,.cls-9{stroke:#4d3224}.cls-17,.cls-19,.cls-28,.cls-4,.cls-5,.cls-6,.cls-7,.cls-8,.cls-9{stroke-miterlimit:10}.cls-4,.cls-5{stroke-width:1.76px}.cls-40,.cls-41,.cls-42,.cls-5,.cls-7{fill:#e7e7e5}.cls-40,.cls-6,.cls-7{stroke-width:1.54px}.cls-13,.cls-17,.cls-19,.cls-8,.cls-9{fill:#f2d4be}.cls-8{stroke-width:1.77px}.cls-9{stroke-width:1.78px}.cls-10,.cls-46{fill:#e9e9e7}.cls-10,.cls-12,.cls-18,.cls-20,.cls-21,.cls-22,.cls-23,.cls-24,.cls-26,.cls-27,.cls-29,.cls-30,.cls-31,.cls-32,.cls-33,.cls-38,.cls-40,.cls-41,.cls-42,.cls-48{stroke-linecap:round;stroke-linejoin:round}.cls-10,.cls-38,.cls-41{stroke-width:1.65px}.cls-11{fill:#9e9e9d;opacity:.33}.cls-12,.cls-18,.cls-20,.cls-21,.cls-26,.cls-29,.cls-31{fill:none}.cls-12{stroke-width:1.88px}.cls-14{fill:#b19080}.cls-15{fill:#876d5d;opacity:.41}.cls-16{fill:#d99d7d;opacity:.27}.cls-17,.cls-20,.cls-22,.cls-26{stroke-width:1.58px}.cls-18{stroke:#221714;stroke-width:.69px}.cls-19,.cls-29{stroke-width:1.56px}.cls-21{stroke-width:1.39px}.cls-22,.cls-23,.cls-24{fill:#664331}.cls-23{stroke-width:1.38px}.cls-24,.cls-28{stroke-width:1.44px}.cls-25{opacity:.54}.cls-26,.cls-27,.cls-28{stroke:#9c7b68}.cls-27{fill:#fff;stroke-width:2.11px}.cls-28{fill:#fff0ed}.cls-30{stroke-width:1.38px}.cls-31{stroke-width:1.26px}.cls-32{stroke-width:1.39px}.cls-33{stroke-width:1.1px}.cls-34,.cls-39{opacity:.23}.cls-35{fill:#009f7c}.cls-36{fill:#9c8079}.cls-37{fill:#857668;opacity:.35}.cls-39{fill:#a3a1a1}.cls-42{stroke-width:.95px}.cls-43{fill:url(#未命名漸層_32)}.cls-44{fill:url(#未命名漸層_32-2)}.cls-45{fill:url(#未命名漸層_32-3)}.cls-47{fill:#8e8d87}.cls-48{stroke-width:1.33px}.cls-49{fill:#c5c5c2}.cls-50{fill:url(#未命名漸層_32-4)}.cls-51{fill:url(#未命名漸層_32-5)}.cls-52{fill:url(#未命名漸層_32-6)}</style><linearGradient id="未命名漸層_32" x1="14281.22" y1="85.61" x2="14264.65" y2="108" gradientTransform="matrix(-1, 0, 0, 1, 14451.08, 0)" gradientUnits="userSpaceOnUse"><stop offset="0" stop-color="#fff" stop-opacity="0"/><stop offset=".89" stop-color="#fff"/></linearGradient><linearGradient id="未命名漸層_32-2" x1="14297.1" y1="106.4" x2="14270.71" y2="122.8" xlink:href="#未命名漸層_32"/><linearGradient id="未命名漸層_32-3" x1="14286.22" y1="128.46" x2="14283.52" y2="127.18" gradientTransform="matrix(-1, 0, 0, 1, 14450.96, 0)" xlink:href="#未命名漸層_32"/><linearGradient id="未命名漸層_32-4" x1="14285.46" y1="125.89" x2="14282.38" y2="124.43" gradientTransform="matrix(-1, 0, 0, 1, 14450.96, 0)" xlink:href="#未命名漸層_32"/><linearGradient id="未命名漸層_32-5" x1="14272.3" y1="116.33" x2="14254.65" y2="107.96" xlink:href="#未命名漸層_32"/><linearGradient id="未命名漸層_32-6" x1="14269.29" y1="119.88" x2="14257.03" y2="114.06" gradientTransform="matrix(-1, 0, 0, 1, 14450.96, 0)" xlink:href="#未命名漸層_32"/></defs><title>home-my</title><g id="圖層_2" data-name="圖層 2"><g id="首頁"><path class="cls-1" d="M146 172.94a28.47 28.47.0 0 1 .82 4.13c1.18 9 2.73 21.41 11.42 26.61a29.69 29.69.0 0 0 8.85 3.06c2.33.52 4.29 1 6.37-.2 1.8-1.07 3.93-2.63 4-4.95a85 85 0 0 0-.81-9.79c-1.42-15.76-6-15-11.8-29.42-.38-1-.78-1.93-1.19-2.9-3.2-7.67-4-27.51-15.82-28.62a55.37 55.37.0 0 0-1.58 9.47" transform="translate(-0.12)"/><path class="cls-2" d="M145.38 173.1c2.48 9.55 1.67 20.46 8.9 28.19 3.69 4 9.13 5.55 14.32 6.42 4 .68 9-1.65 9.48-6.12.33-3.17-.48-6.65-.8-9.79a52.67 52.67.0 0 0-1.37-8.38 37.37 37.37.0 0 0-4.65-9.93A88 88 0 0 1 164.13 159a94.11 94.11.0 0 1-2.85-10.6c-1.84-7.26-4.68-17.11-13.45-18.15a.65.65.0 0 0-.62.47 53.45 53.45.0 0 0-1.6 9.64c-.06.82 1.21.82 1.27.0a53.08 53.08.0 0 1 1.25-8 3.73 3.73.0 0 1 .25-1.06c.38-.31-.11.29.26.36a9.48 9.48.0 0 1 2.91 1.09c3.3 1.93 5.16 5.69 6.44 9.15 2.53 6.79 3.49 14 6.24 20.7a82.27 82.27.0 0 0 6.2 12A34.62 34.62.0 0 1 175 185a76.79 76.79.0 0 1 1.2 8.55c.3 2.74 1.51 7.06.16 9.62-1.82 3.43-5.8 3.7-9.1 3s-6.48-1.53-9.26-3.35c-9.92-6.49-8.77-20-11.38-30a.64.64.0 0 0-1.23.33z" transform="translate(-0.12)"/><path class="cls-3" d="M158.9 188.86s-6.11 4.39-11-10.36c0 0 0 25.63 16.11 28.87C164 207.37 156.81 207.77 158.9 188.86z" transform="translate(-0.12)"/><path class="cls-1" d="M158.89 191a15.76 15.76.0 0 0-3.74 3.32" transform="translate(-0.12)"/><path class="cls-2" d="M158.57 190.45a18 18 0 0 0-3.87 3.42c-.54.61.36 1.52.9.9a17 17 0 0 1 3.61-3.22c.69-.44.0-1.54-.64-1.1z" transform="translate(-0.12)"/><path class="cls-4" d="M84.13 481.68c.79 1.14 1 9.19-1.78 11-6.58 4.3-12.34 1.87-16.6-1.74s-7.13-9-9.51-14C55.32 475 54.48 473 53.71 471c-.44-1.12-.7-3-1.09-4.14-.23-.67-1.43-3.07-1.17-3.7L53.18 459S83.08 480.16 84.13 481.68z" transform="translate(-0.12)"/><path class="cls-5" d="M59.15 448.55 57 455s-.41 14.16 5.94 11.26 6-3.86 6-3.86L68.1 448z" transform="translate(-0.12)"/><path class="cls-5" d="M72.15 492.15C65.83 490.05 62 483.66 58.7 478a35.61 35.61.0 0 1-3.44-7.88c-.39-1.34-2.78-7.78-2.62-8.53l1.28-6.13c1.64-4.92 4-4.66 4-4.66-.66 3.26-1.07 6.09 1.36 8.5 1.25 1.24 3.44 3.2 4.79.88.0-7.44 6.27-6.31 6.27-6.31 7.47 1 4.48 8.16 4.48 8.16l-.22 1.06c-.89 4.38 3.36 10.07 6.3 12.86 3.28 3.11 5.17 6.08 3.9 10.76C83.16 492.79 77.78 494 72.15 492.15z" transform="translate(-0.12)"/><path class="cls-4" d="M57.75 456.8c-1-2-.28 3.6.66 5.77 1 2.37 3.67 3.78 4.81 1.44a10.54 10.54.0 0 0 .87-3.84S61.76 464.72 57.75 456.8z" transform="translate(-0.12)"/><path class="cls-6" d="M159.81 502.19c1.37 1.31 3.82 12 .62 15.2-7.64 7.56-16 5.88-22.69 2.21s-12-10.09-16.54-16.14q-2.64-3.51-5-7.22c-.89-1.39-1.75-3.82-2.58-5.25-.49-.83-2.75-3.72-2.58-4.63l1.17-6.08S158 500.44 159.81 502.19z" transform="translate(-0.12)"/><path class="cls-7" d="M117.35 464.67l-1.08 9.17s3.32 19.06 11 13.46 6.92-6.8 6.92-6.8l-5-19z" transform="translate(-0.12)"/><path class="cls-8" d="M130.18 367.56l2.53 54.33 1.5 46.07s-7.09 10.91-16.86-3.29c0 0-3.61-79.29-13.21-93.85z" transform="translate(-0.12)"/><path class="cls-9" d="M79.59 384l-5.12 35.11s-2.92 16.4-5.85 34.16c0 0-5.77 3.08-9.58-3.17.0.0 4.46-60.25 3-66.1z" transform="translate(-0.12)"/><path class="cls-7" d="M146.63 519.47c-9-1.09-15.9-8.59-21.86-15.29a47.15 47.15.0 0 1-6.74-9.6c-.9-1.69-5.86-9.66-5.85-10.71v-8.54c.86-7 4.11-7.34 4.11-7.34.0 4.54.23 8.44 4.13 11 2 1.32 5.48 3.35 6.65-.12.2-10.88 6.68-10.16 6.68-10.16 10.26-.72 8.21 9.7 8.21 9.7v1.48c0 6.1 7.24 12.56 11.94 15.49 5.25 3.27 8.58 6.72 8.15 13.34C161.55 517.33 154.69 520.45 146.63 519.47z" transform="translate(-0.12)"/><path class="cls-6" d="M117.71 476.09c-1.92-2.43.61 4.9 2.46 7.53 2 2.9 6 4.07 6.84.63a14.11 14.11.0 0 0 .11-5.38S125.25 485.59 117.71 476.09z" transform="translate(-0.12)"/><path class="cls-10" d="M135 126.36l-47.5-1.1s-26.41 22.43-23.91 79.42l46.87 15.52L147 206.33S149.19 144.29 135 126.36z" transform="translate(-0.12)"/><path class="cls-11" d="M128.77 134.34s-17.31 9.81-35.48-.61C93.29 133.73 107.46 149.41 128.77 134.34z" transform="translate(-0.12)"/><path class="cls-12" d="M95.17 134.82c14.3 5.21 26.49 2 33.41-.48" transform="translate(-0.12)"/><path class="cls-11" d="M128.77 202.42s-19.37 3.19-30.46-1.4l1.06 7.33h29.38z" transform="translate(-0.12)"/><path class="cls-12" d="M103.6 201.32a51.81 51.81.0 0 0 23.54.0s7.45-1.94-11.35-1.94" transform="translate(-0.12)"/><path class="cls-13" d="M127.24 95.62c-4.92 8.76-5.44 15.61-3 23.34.27.86 4 1.92 5.68 3.08 5.12 3.51 9.73 8-10.81 11.08s-31.58-7.86-31.58-7.86c.22-1.45 6.54-2.41 7.71-3 4.5-2.38 6.45-.41 6.73-5.79.32-5.93-.9-21.52.77-27.37C109.65 88.52 109.35 94 127.24 95.62z" transform="translate(-0.12)"/><path class="cls-2" d="M126.47 95.17c-3.11 5.65-5.14 11.77-4.36 18.29.23 1.94.39 5.18 1.88 6.58s4.08 1.83 5.83 3c1.17.79 4.1 2.63 3.45 4.41-.44 1.23-2.49 1.93-3.56 2.33a46.67 46.67.0 0 1-8.56 2.08c-10.55 1.81-21.8.81-30.78-5.47-.42-.3-1.51-1.52-2-1.59-.07.0-.11-.15-.18-.16s-3.53-.6.1.39l.11.42.36-.25c.91.0 2.36-.89 3.3-1.14 2-.53 3.71-1.27 5.62-1.92 1.35-.46 3-.58 4-1.69 1.33-1.44 1.19-3.88 1.22-5.7.0-2.68-.06-5.37-.11-8-.11-5.65-.67-11.89.79-17.42l-.86.66c3.21-.21 5.56 1.34 8.35 2.66 5.08 2.4 10.6 3.36 16.16 3.89 1.15.11 1.14-1.68.0-1.79-5.76-.55-11.35-1.65-16.53-4.28-2.62-1.33-5-2.47-8-2.27a.92.92.0 0 0-.86.66c-1.05 3.92-1 8.19-.94 12.22.0 4.57.25 9.15.19 13.72.0 1.69.24 4.08-1.49 5-1.45.73-3.32 1.15-4.85 1.74-2.24.87-7.17.89-8.12 3.56a.88.88.0 0 0 .23.88c7.79 7.76 21 9.58 31.34 8.23a53.37 53.37.0 0 0 12.18-2.69c1.57-.6 3.51-1.41 4.36-3 1.51-2.76-1.62-5.18-3.57-6.61a25.69 25.69.0 0 0-4.5-2.36c-2.44-1.14-2.64-4.27-2.88-6.75-.57-6 1.36-11.51 4.19-16.67C128.57 95.06 127 94.16 126.47 95.17z" transform="translate(-0.12)"/><path class="cls-14" d="M141.76 205.46s-21 2.35-23.08 2.33c-13.38-.14-33.28.14-48.19-4.41-.19-.06.0.0.0.0L70 216.66s-5.18 2.64-33.76 83.23c-24.48 69-30.71 80.93-35.46 90 3.38 4.54 9.41 20.24 15.5 20.88 10.38 1.11 12.22-1.06 19.72 5.6 6.64 5.9 12 14 21.49 13.7 15.41-.43 5.44 2.36 21.71 1.37s19.48 3.86 35.7 1 22.13 1.06 34.76-2.65 9.09-8.1 19.66-13.06c8.63-4 12.23-8 12.23-8S163 224 142.12 218.4z" transform="translate(-0.12)"/><path class="cls-2" d="M141.76 204.78c-7.6.84-15.32 2.11-23 2.32S103.53 207 96 206.6c-4.61-.26-9.21-.66-13.77-1.35-3.8-.58-8-1.11-11.61-2.56-.82-.33-1.17 1-.36 1.32h.07l-.5-.66-.33 9.3a36 36 0 0 0-.13 3.88c0 .32.54-.78.24-.42a15.63 15.63.0 0 0-1.23 1.56c-4 6.13-6.62 13.32-9.41 20-9 21.6-16.82 43.67-24.66 65.7-7.41 20.83-14.85 41.69-23.16 62.18C8.06 373.19 4.82 380.71 1 388c-.27.53-.55 1.06-.83 1.59a.71.71.0 0 0 0 .69c4.52 6.24 6.57 15 12.9 19.82 3.17 2.41 7.83 1.69 11.59 1.88 4.68.25 7.94 2.28 11.37 5.39 3.81 3.47 7.13 7.55 11.47 10.41s8.73 2.91 13.89 3a27.41 27.41.0 0 1 7.18 1.15c3.39.93 7.18.44 10.62.26a81.09 81.09.0 0 1 16.83 1.05 56.16 56.16.0 0 0 13.64.68c6.15-.55 12.11-1.84 18.31-1.83 4.56.0 9.12.42 13.66.0a37.6 37.6.0 0 0 14.14-3.88c3.29-1.76 5.27-4.63 8-7.06 4.1-3.67 9.65-5.31 14.14-8.47 1.18-.84 3.95-2.35 4.33-3.92.25-1-.28-2.69-.38-3.7q-.52-4.87-1.06-9.73Q179 379 176.92 362.63c-3.7-29.13-7.83-58.25-13.53-87.06A340.25 340.25.0 0 0 154.51 239a95.61 95.61.0 0 0-4.74-12.46c-1.25-2.6-2.72-5.38-4.94-7.3a6.54 6.54.0 0 0-2.53-1.45l.5.66-.36-12.94a.69.69.0 0 0-1.37.0q.18 6.47.37 12.94a.69.69.0 0 0 .5.66c3.73 1.05 5.89 6.37 7.29 9.52a137.23 137.23.0 0 1 7 21.31c5.31 20.35 8.88 41.16 12.15 61.92 3.31 20.93 6.14 41.93 8.69 63q1.33 11.07 2.57 22.15.41 3.61.78 7.23a29.2 29.2.0 0 0 .42 4 2.18 2.18.0 0 1 .06.62c.07-.66.18-.35-.36.09-.94.77-1.83 1.59-2.82 2.31-3.59 2.61-7.64 4.22-11.42 6.48a28 28 0 0 0-6.18 5.36c-10.64 11.58-28.65 6.51-42.42 8.4-4.59.62-9.06 1.46-13.72 1.31a94.46 94.46.0 0 1-10.46-1.26 67.74 67.74.0 0 0-11.11-.77c-3.8.06-7.64.59-11.45.25a20.93 20.93.0 0 1-3.84-1 25.27 25.27.0 0 0-6.72-.59c-4.53.0-8.27-.22-12.16-2.79-3.44-2.28-6.23-5.38-9.15-8.25-4.43-4.35-8.55-7.48-14.88-7.76-3.13-.13-7.38.47-10-1.41s-4.42-5-6-7.69-3.12-5.74-4.71-8.6a16.83 16.83.0 0 1-1.82-3c0 .14-.09.43.06-.09a4.21 4.21.0 0 1 .33-.63c.82-1.58 1.63-3.16 2.41-4.76 7.61-15.59 13.52-32.06 19.53-48.31 11.63-31.45 22.19-63.32 34.86-94.38 2.59-6.36 5.23-12.74 8.32-18.88a40.5 40.5.0 0 1 3.1-5.36c.13-.17.37-.3.16-.19a.7.7.0 0 0 .34-.59q.24-6.65.46-13.28a.7.7.0 0 0-.5-.66h-.07c-.82-.33-1.17 1-.36 1.32 3.58 1.44 7.81 2 11.6 2.56 4.14.62 8.31 1 12.49 1.3 8.07.52 16.27.79 24.35.6 7.68-.18 15.44-1.47 23.08-2.33C142.62 206.05 142.63 204.68 141.76 204.78z" transform="translate(-0.12)"/><path class="cls-2" d="M133.21 222.24c0 2.88 1.18 6.07 1.71 8.88q2.33 12.34 4.31 24.76 7 43.23 10.78 86.91 2.79 31.84 3.83 63.8c0 .91 1.45.92 1.42.0-1.14-35.77-4-71.49-8.4-107-2.73-22.07-6-44.09-10-66q-.78-4.23-1.61-8.45l-.45-2.25c0-.17-.15-1.08-.15-.68a.71.71.0 0 0-1.41.0z" transform="translate(-0.12)"/><path class="cls-2" d="M141.77 219c-2.62 1.35-6 1.66-8.88 2.09a142 142 0 0 1-17.23 1.37A148.84 148.84.0 0 1 70.23 217a.71.71.0 0 0-.38 1.37c15 4.41 30.9 5.94 46.54 5.49a144.26 144.26.0 0 0 16.87-1.4c3-.45 6.47-.82 9.23-2.23.81-.42.1-1.65-.72-1.23z" transform="translate(-0.12)"/><path class="cls-15" d="M119.94 223s-17.57 2-24.34-.53l-.41 1.82s16.93 2.75 25.12-.24z" transform="translate(-0.12)"/><path class="cls-15" d="M108 248.69s-.22 2.51-3 33.22c0 0-7.83 89.48-2.17 112.32z" transform="translate(-0.12)"/><path class="cls-2" d="M103.13 394.21q1.65-56.58 4.15-113.13.69-16.2 1.45-32.39c0-.91-1.37-.91-1.41.0q-2.64 56.55-4.59 113.12-.54 16.2-1 32.4c0 .91 1.39.91 1.42.0z" transform="translate(-0.12)"/><path class="cls-2" d="M50 347.32c5.26-33.85 12-67.62 21.84-100.44 2.7-8.94 5.65-17.79 9-26.52.33-.86-1-1.23-1.36-.38-12.09 32-19.88 65.56-26.08 99.14Q50.8 333 48.64 346.94c-.14.89 1.23 1.28 1.37.38z" transform="translate(-0.12)"/><path class="cls-3" d="M153.28 191.42s-7.25 3.54-11-12.21c0 0-2.8 26.08 14.68 31.82C156.94 211 148.89 210.34 153.28 191.42z" transform="translate(-0.12)"/><path class="cls-16" d="M123.07 110.39c-.39.0-2 1.37-2.57 1.59C116 113.77 110 110.05 107 115.17c-1.84 3.13-2 6.61-7.12 6.44 5.15.17 2.43-14.89 2.06-16.79C102 104.82 108.81 111.49 123.07 110.39z" transform="translate(-0.12)"/><path class="cls-17" d="M142.56 70.57c15.13-13.22 11.21 16.37-1.33 12.93" transform="translate(-0.12)"/><path class="cls-18" d="M1e2 71a15.53 15.53.0 0 0 5.5 1.29" transform="translate(-0.12)"/><path class="cls-19" d="M104.26 106.48c-13.06-7-22.34-23.75-23.89-37.63.0.0-9.61 1.36-8.51-13.38.0.0 2.43-5.58 7.66.58L90 11l37.36 8.47 25.12 9.73c-.32 10.62-3.39 21-4 31.64-.54 9-.28 21.25-4.92 29.52C135.41 104.78 121 115.51 104.26 106.48z" transform="translate(-0.12)"/><path class="cls-20" d="M101.08 57c7.87-1.12 17.15 4.77 17.15 4.77" transform="translate(-0.12)"/><path class="cls-21" d="M145.55 62.75c-5.93-2.8-14.94.38-14.94.38" transform="translate(-0.12)"/><path class="cls-22" d="M59.85 20l1.29-1.61c4.15-6.54 9.49-8.41 13.69-8.69C70.4 9 65.34 9.7 62 12.34a1.23 1.23.0 0 1-1.74-.21 1.24 1.24.0 0 1 .21-1.74C66.07 6 75.33 6.14 81 8.85a1.24 1.24.0 0 1 .59 1.65c-5.14 6-10.69 52-10.69 52a35.82 35.82.0 0 1 1.14 11 .53.53.0 0 1 .13.0 1.05 1.05.0 0 1 .87 1.2 31.39 31.39.0 0 1-5.2 12.45 18.39 18.39.0 0 1-2.28 3c-4.46 6.15-6.54 6-7.44 5.12A2.36 2.36.0 0 0 56 94.75a3.49 3.49.0 0 1-4.5-2.5 11.4 11.4.0 0 0 3.83-6.08 1.48 1.48.0 0 1-.1-1.06c1-3.53.44-6.5-.29-10.27-.37-1.91-.79-3.82-1.22-5.72-.19-.87-.37-1.75-.56-2.63v0s0-.09.0-.14c-.42-2-.83-3.93-1.14-5.9l-.28-1.67A66.37 66.37.0 0 1 50.55 48.4C50.5 38.49 54.23 27.06 59.85 20z" transform="translate(-0.12)"/><path class="cls-23" d="M143.33 49.31s6 23.63-2.14 43.29c-1.57 3.82-2.45 9.82-1.23 13.77.86 2.81 3.51 5.31 6.44 5 2.74-.32-.41-2.34-.8-3.12a9 9 0 0 1-.48-6.84 50.26 50.26.0 0 1 3.72-9.93c14.57-26 12.4-73.95-12.17-79.36.0.0-26-23.13-53.86-3.46C81.31 9.68 79.52 9.91 77.9 11a37.58 37.58.0 0 0-10 10.54C37.54 72.34 81.33 85 81.33 85L79.79 71.49 90 51.47 149 50" transform="translate(-0.12)"/><path class="cls-23" d="M145.34 33.69c10.66 23.17.5 24.27.5 24.27a1.51 1.51.0 0 1-1.91-.56 1.49 1.49.0 0 0-2-.52c-2.46 1.27-7.39 3.7-8.25.0a1.44 1.44.0 0 0-1.88-1c-2.08.67-8.17 3.21-10.44-1a1.52 1.52.0 0 0-1.88-.78c-3 1.14-8.92 2.78-10.74-2 0 0-7.42 4.08-18.72-.7" transform="translate(-0.12)"/><path class="cls-17" d="M81.72 60.18C71.9 46.24 64.91 73.49 80 73.06" transform="translate(-0.12)"/><path class="cls-24" d="M97 36.06S84 53 86.61 82.51a70.76 70.76.0 0 1-.52 12.26c-.38 3-3 15.53-6.88 15.3-3.15-.19 1.5-10.63 1.8-12.59C82.9 85 76.37 73.8 76.49 61.43c.14-13.56 3.26-31.23 26-39.58" transform="translate(-0.12)"/><path class="cls-23" d="M143.62 46.63s1.16 5.62-1.67 10.25" transform="translate(-0.12)"/><path class="cls-23" d="M128 57.08s10.45-.65 7.71-15.31" transform="translate(-0.12)"/><path class="cls-23" d="M116.61 54.77s7 .74 6.54-8.11" transform="translate(-0.12)"/><path class="cls-23" d="M105 53.08c8.32-.34 4.89-14.41 4.89-14.41" transform="translate(-0.12)"/><path class="cls-23" d="M77.36 11.94S65.21 17 74.69 43.35" transform="translate(-0.12)"/><path class="cls-23" d="M81 8.85s-9.17 6.09-4.47 21" transform="translate(-0.12)"/><path class="cls-23" d="M68.05 33.64c-1.94 16.14 5 24.35 5 24.35" transform="translate(-0.12)"/><path class="cls-25" d="M62.34 71.07s1 17.76-6.74 20.46c0 0-4 3.2 6.15 3.46L72.41 80.7S65.11 76.17 62.34 71.07z" transform="translate(-0.12)"/><path class="cls-25" d="M97 36.06S99 51.24 90 51.47C90 51.47 93.37 41 97 36.06z" transform="translate(-0.12)"/><path class="cls-25" d="M148.89 55.86s4 12.83-4.85 27.33A232.25 232.25.0 0 0 145.84 58z" transform="translate(-0.12)"/><path class="cls-26" d="M124.56 73.33s-3.06-3.5-8.17-1" transform="translate(-0.12)"/><path class="cls-27" d="M92.68 67.16s-.84-2.07-5.22-4" transform="translate(-0.12)"/><path class="cls-28" d="M115.46 65.39C112 60.81 101.82 60.54 97 62.32c0 0-5 1-4.09 9.57.6 5.5 6.91 9.07 12.65 8.94a11.48 11.48.0 0 0 11.11-11.9A5.85 5.85.0 0 0 115.46 65.39z" transform="translate(-0.12)"/><path class="cls-28" d="M146.91 69c-3.43-4.49-13.41-4.76-18.16-3 0 0-4.92 1-4 9.41.58 5.4 6.79 8.91 12.43 8.78a11.28 11.28.0 0 0 10.92-11.7A5.77 5.77.0 0 0 146.91 69z" transform="translate(-0.12)"/><path class="cls-25" d="M75.35 71.23S63.89 72.65 60 66.92c0 0 3 8.93 21.33 18.06.0.0-1.68-2.16-3.17-10.93z" transform="translate(-0.12)"/><path class="cls-25" d="M123.21 46.22s4 8.2-2.78 8.62C120.43 54.84 123 55.19 123.21 46.22z" transform="translate(-0.12)"/><path class="cls-25" d="M136.82 41.07s3.71 14.84-2.12 17.63L131.82 56S135.68 56 136.82 41.07z" transform="translate(-0.12)"/><path class="cls-25" d="M110 37.85s6.18 14.23.54 16.68l-1.81-2.36S111.39 47.31 110 37.85z" transform="translate(-0.12)"/><path class="cls-16" d="M123.73 74.74s-4.8 4 .58 10.78c2.57 3.26-6.6 6.89-6.6 2.17.0-1.36 1.65-2 1.94-3.26s-.42-3.3-.35-4.67C119.53 75.3 121.32 76.73 123.73 74.74z" transform="translate(-0.12)"/><path class="cls-16" d="M144 83.19s-13.64 8.13-18.57-4.86C125.47 78.33 129.18 86.48 144 83.19z" transform="translate(-0.12)"/><path class="cls-16" d="M112 80.39S98.3 88.53 93.38 75.54C93.38 75.54 97.08 83.68 112 80.39z" transform="translate(-0.12)"/><ellipse class="cls-16" cx="113.46" cy="100.97" rx="2.23" ry="5.12" transform="translate(-0.44 201.57) rotate(-83.15)"/><path class="cls-13" d="M110.27 91.11c3 3.46 7.07 6.52 14.84 2.92" transform="translate(-0.12)"/><path class="cls-2" d="M109.71 91.66c4.47 5 9.68 5.73 15.8 3 .91-.4.12-1.74-.79-1.34-5.45 2.39-10 1.62-13.9-2.81-.67-.75-1.77.36-1.11 1.11z" transform="translate(-0.12)"/><path class="cls-29" d="M122.54 75.53c-2.3 3.56-.64 7.62 1.66 10.23a2 2 0 0 1-.17 2.83s-1.42 1.64-2.7 1.28" transform="translate(-0.12)"/><path class="cls-2" d="M110.53 69.14a1.28 1.28.0 0 1 .44.48 1.16 1.16.0 0 1-.52 1.55c-1.11.56-2.17-.19-2.79-.64a3.88 3.88.0 0 0-.44-.3c-3.24-1.35-4.68-1-5.24-.66a1.18 1.18.0 0 1-1.59-.42 1.16 1.16.0 0 1 .42-1.58c1.66-1 4.12-.79 7.29.53a5.24 5.24.0 0 1 .91.55 4.41 4.41.0 0 0 .58.38A1.18 1.18.0 0 1 110.53 69.14zm-1.12.0h0z" transform="translate(-0.12)"/><path class="cls-2" d="M105.58 72.21a2.59 2.59.0 0 0 5 .39 2.59 2.59.0 0 0-5-.39z" transform="translate(-0.12)"/><path class="cls-2" d="M140.11 71.75a1 1 0 0 1 .46.36 1 1 0 0 1-.24 1.46 2.45 2.45.0 0 1-2.58-.18 4.63 4.63.0 0 0-.44-.2c-3.08-.75-4.32-.24-4.77.14a1.07 1.07.0 0 1-1.48-.15 1 1 0 0 1 .15-1.47c1.35-1.1 3.57-1.29 6.59-.55a4.88 4.88.0 0 1 .89.36 4.06 4.06.0 0 0 .57.26A1.05 1.05.0 0 1 140.11 71.75zm-1 .12h0z" transform="translate(-0.12)"/><path class="cls-2" d="M135 74.87A2.32 2.32.0 1 0 137.37 73 2.13 2.13.0 0 0 135 74.87z" transform="translate(-0.12)"/><path class="cls-1" d="M171.66 315.75a22.11 22.11.0 0 0-2.81.5 40.44 40.44.0 0 0-11.87 5s-14.69 5.1-20.5 3.24C134.8 284.29 128 261.25 128 204.65c1.76-13.75-.1-28.74 2.59-39.86 3.33-13.74 2.37-28.57 4.33-41.7 1.33.6 8.36 3.92 9.29 4.44 3.47 1.94 6 2.06 7.06 3.56.62.89.42 4 .47 5.11.16 4-.54 14.61-.47 18.61.27 15.12-.32 19.22.3 34.32.3 7.34.94 14.46 1.8 21.51 1.38 11.24 4 26.68 5.95 38.05 4.19 25.11 9.91 41.41 14.11 66.52.0.0 1 3-4 5.64" transform="translate(-0.12)"/><path class="cls-2" d="M171.66 315.06a31.59 31.59.0 0 0-8.89 2.46c-2.66 1.11-5 2.8-7.74 3.66s-5.5 1.6-8.31 2.18c-3.18.66-6.85 1.39-10.05.48l.5.66c-.92-21.55-3.92-42.88-5.93-64.33q-1.81-19.35-2.32-38.8-.15-5.69-.19-11.39c0-4.09.36-8.06.59-12.13.43-7.6.15-15.22.61-22.82.51-8.38 2.88-16.48 3.6-24.85.77-9 .8-18 2.08-26.91l-1 .41c4 1.81 7.79 4 11.79 5.64 1.22.51 3.25.86 4.13 1.91s.54 3.44.55 4.78c0 2.48.0 5-.11 7.45-.47 12.49-.52 25-.29 37.53a335.72 335.72.0 0 0 4.51 46.72c2.45 15.42 5 30.81 8.57 46 1.94 8.35 4 16.67 5.84 25q1.49 6.86 2.71 13.75a13.13 13.13.0 0 1 .54 3.56c-.23 2-2.14 3.26-3.75 4.16a.69.69.0 0 0 .69 1.19c1.92-1.08 4.05-2.61 4.39-5s-.64-4.89-1-7.09c-1.54-8.33-3.43-16.59-5.4-24.83-3.8-15.94-7-31.88-9.73-48.06-2.82-16.94-5.31-33.87-5.85-51.06-.42-13.26-.42-26.67.11-39.93.12-3.16.23-6.32.19-9.49.0-2.34.43-5-1.86-6.43-1.58-1-3.51-1.37-5.16-2.19-1-.49-1.94-1-2.92-1.49-2.4-1.15-4.8-2.3-7.22-3.4-.35-.16-.94-.07-1 .41-1.08 7.51-1.29 15.09-1.78 22.65-.28 4.25-.64 8.5-1.29 12.71-.55 3.53-1.52 7-2 10.49-1 7.19-.84 14.51-1 21.76-.07 4-.21 7.93-.61 11.88a108.76 108.76.0 0 0-.18 12.25c.35 24.4 2.7 48.55 5.36 72.78 1.36 12.33 2.5 24.68 3 37.07a.71.71.0 0 0 .51.66c5.63 1.61 12.6-.7 18-2.32 6-1.78 11-5.78 17.37-6.4.87-.08.88-1.46.0-1.38z" transform="translate(-0.12)"/><path class="cls-30" d="M148.55 208.01 152.77 208.04z"/><path class="cls-30" d="M149.3 212.39 153.48 211.54z"/><path class="cls-31" d="M157.91 240.54s-9.71 3.37-14 2.63a86.38 86.38.0 0 0 1.92 10.37s2.72 3 13.67-3" transform="translate(-0.12)"/><path class="cls-1" d="M33.74 298.08c6.79-24.93 8.8-29 15.41-54 3-11.3 8.28-26.64 10.51-37.83a186.9 186.9.0 0 0 3.07-21.44c1.13-14 2.15-28 1.08-42.07-.79-10.52 11.52-16.31 19.71-19.27 1.35-.49 4.14-1.48 6.08-2 2.55 13.19 3.12 25.2 7.64 39 3.66 11.2 4 26.12 6.25 39.92 1.48 9.12-.26 19.59.0 28.89.31 11.43 1.08 22.86 1.29 34.3.37 20 .21 46.58-.87 66.51.0.0-3.81 1-12 .92-4.23.0-8.52.0-12.74-.35-12-1-21-3.8-29.6-12.3C55.13 323.8 47.94 317.43 33.74 298.08z" transform="translate(-0.12)"/><path class="cls-2" d="M34.54 298.3c3-10.84 6.19-21.58 9.37-32.36 3.55-12 6.63-24.13 10.24-36.12 3.9-13 7.28-25.83 8.85-39.31a265 265 0 0 0 1.71-46.78c-.83-13.16 14.83-18.41 25.11-21.49l-1-.58c1.3 6.83 2.16 13.73 3.3 20.58A183.1 183.1.0 0 0 97 162.52c1.87 6.52 2.66 13.31 3.42 20s1.9 13.63 2.58 20.45c.69 7-.09 14-.31 20.95-.23 7.32.29 14.68.62 22 .61 13.49.84 27 .81 40.47.0 14.56-.27 29.14-1 43.68l.6-.8a36.61 36.61.0 0 1-8.16.87 137.88 137.88.0 0 1-18.29-.51c-10.35-1.07-19.48-4.56-27-11.87-.76-.74-1.93.42-1.17 1.17s1.23 1.26 1.86 1.86a.84.84.0 0 0 1.39-.81c-.07-.44-.81-1-1.07-1.31q-1.7-1.92-3.35-3.88c-4.67-5.55-9.09-11.31-13.39-17.16-.63-.84-2.06.0-1.43.84 4.13 5.62 8.38 11.16 12.84 16.52 1.21 1.45 2.42 2.88 3.67 4.29a6.88 6.88.0 0 0 1 1.1c.39.29.23.63.15.0l1.38-.8c-.63-.6-1.23-1.25-1.86-1.86L49 319c7.47 7.23 16.43 10.93 26.67 12.18a131.36 131.36.0 0 0 19.83.68 38.79 38.79.0 0 0 8.6-.92.86.86.0 0 0 .61-.8c1.41-26.34 1.57-52.9.45-79.25-.33-7.77-.87-15.55-.9-23.32.0-7 .84-14 .6-21-.24-6.83-1.65-13.65-2.4-20.44-.71-6.37-1.37-12.76-2.67-19-1.55-7.49-4.2-14.66-5.58-22.21-1.44-7.85-2.34-15.79-3.83-23.64a.83.83.0 0 0-1-.57c-8.78 2.62-20.62 6.45-25 15.29a13.32 13.32.0 0 0-1.4 6.17c.06 4.13.46 8.26.48 12.4.0 8.16-.45 16.31-1.07 24.44a208 208 0 0 1-7.63 43.12C51 235 47.38 248 43.65 261c-3.55 12.31-7.34 24.54-10.7 36.9A.83.83.0 0 0 34.54 298.3z" transform="translate(-0.12)"/><circle class="cls-3" cx="97.54" cy="263.51" r="3.21"/><path class="cls-32" d="M95.91 162.45c3 11 4.77 24.88 6.57 38.63.0-13.59-.1-27.2-.68-40.77-.34-8-2-15.9-2.81-23.81-.13-1.24-.6-4.38-.77-7.61-.24-4.83.2-9.9 3.48-9.27a18.88 18.88.0 0 0-8.19.37c-2.59.2-5.27 1.14-6 2.42C87.56 122.41 86.49 127.68 95.91 162.45z" transform="translate(-0.12)"/><circle class="cls-33" cx="97.54" cy="262.27" r="2.6"/><circle class="cls-3" cx="97.54" cy="248.31" r="3.21"/><circle class="cls-33" cx="97.54" cy="247.06" r="2.6"/><path class="cls-34" d="M66.57 140.44c8.74-7.62 16.08 31.47 16.18 35.66.82 37.12-10.9 73.5-17.82 109.64-3.05 15.94-7.71 30.43 6.73 42.63.0.0-16.67-1.43-37.92-30.29.0.0 25.31-75.62 29.87-108.19 1.51-10.76 1.52-21.63 1.77-32.47.08-3.4-1.35-13.77.67-16.43a3.37 3.37.0 0 1 .48-.52z" transform="translate(-0.12)"/><path class="cls-34" d="M131.82 274.67S144.4 315.55 144 324.91l-7.56-.41S135.94 283.43 131.82 274.67z" transform="translate(-0.12)"/><path class="cls-30" d="M131.36 128.68h0c.13-1.27.27-2.49.42-3.63-.62-2.81-3.75-3.39-3.75-3.39a17.89 17.89.0 0 1 8 .37c2.53.19 5.14 1.14 5.8 2.42.06.12.0.12.0.09-1.95 13.1-4 26.24-7.37 40-2.7 11.11-4.66 24.88-6.42 38.62.0-24.37.48-44.67 1.67-56.1C130.23 142 130.72 134.75 131.36 128.68z" transform="translate(-0.12)"/><path class="cls-14" d="M89.46 209.27c-5.7-8-35.09-32.43-40.51-34C43.49 188.19 28 241.37 26.19 253.13c-.51 3.25 2.63 4.34 4.59 7.47 1.79 2.85 30.86 30.18 34.7 27.33C70.42 284.28 83.05 232.19 89.46 209.27z" transform="translate(-0.12)"/><path class="cls-2" d="M90.1 208.89a64.54 64.54.0 0 0-8.18-8.68c-4-3.82-8.25-7.48-12.52-11.05-4-3.31-8-6.55-12.17-9.61-2.44-1.78-5.14-4.07-8.09-5a.76.76.0 0 0-.91.52c-2.54 6.06-4.48 12.39-6.46 18.65C39 202.45 36.39 211.22 33.88 220c-2.27 7.93-4.48 15.88-6.45 23.9-.64 2.6-1.28 5.21-1.76 7.85a6.33 6.33.0 0 0 .14 3.92c.92 2 3 3.62 4.38 5.37 3.15 4.12 7.37 7.61 11.19 11.07 5.55 5 11.27 10.14 17.58 14.21 1.55 1 3.65 2.53 5.6 2.55 1.42.0 2.13-1 2.79-2.16 3.05-5.2 4.62-11.53 6.37-17.24 6.08-19.84 10.88-40 16.46-60a.75.75.0 0 0-1.44-.4c-4.74 17-9 34.1-13.81 51.05-2.06 7.18-4.11 14.42-6.83 21.38-.63 1.6-1.33 4.23-2.66 5.43-1.13 1-2.76-.14-3.92-.78-6-3.35-11.28-8.17-16.4-12.68a154.29 154.29.0 0 1-12.9-12.28c-.5-.57-.89-1.15-1.35-1.76-1.61-2.15-4.32-3.62-3.87-6.66.34-2.3.93-4.58 1.47-6.84 1.77-7.4 3.79-14.73 5.86-22.05q4-14.15 8.37-28.17c2.14-6.79 4.21-13.67 7-20.24l-.91.52c2.79.88 5.41 3.15 7.73 4.85 4.23 3.1 8.31 6.39 12.32 9.75s8.16 7 12.07 10.67a63.72 63.72.0 0 1 7.95 8.39C89.38 210.41 90.67 209.67 90.1 208.89z" transform="translate(-0.12)"/><path class="cls-35" d="M82.85 221.1c-3.55 12.6-7 25.22-10.7 37.78-1.55 5.31-3.73 10.57-4.75 16" transform="translate(-0.12)"/><path class="cls-2" d="M82.13 220.91c-2.57 9.13-5.1 18.27-7.7 27.4-1.24 4.35-2.43 8.72-3.82 13a121.7 121.7.0 0 0-3.93 13.36c-.19.93 1.25 1.33 1.44.39a122.18 122.18.0 0 1 3.93-13.35c1.39-4.31 2.58-8.68 3.81-13 2.6-9.12 5.14-18.27 7.71-27.4a.75.75.0 0 0-1.44-.39z" transform="translate(-0.12)"/><path class="cls-35" d="M64.77 281.08c0 .08.0.15.0.23" transform="translate(-0.12)"/><path class="cls-2" d="M64.05 280.88c0 .08.0.16.0.23-.22.94 1.22 1.33 1.44.4a1.55 1.55.0 0 1 0-.23c.22-.94-1.22-1.33-1.44-.4z" transform="translate(-0.12)"/><path class="cls-36" d="M76.49 125.26c17.11.0 10.79 32.89 10.5 39.41l-4.62 35.17c0 .73-.06 1.46-.07 2.19-1.81-1.39-5-4.29-6.56-5.77s8.7-48.41 6.1-55.4" transform="translate(-0.12)"/><path class="cls-2" d="M76.49 125.9C90.79 126.15 88 149 87 158.22c-1 9.5-2.28 19-3.53 28.43-.67 5.08-1.69 10.24-1.8 15.38l1.09-.46c-1.25-1-2.46-2-3.65-3.08-.58-.51-1.16-1-1.73-1.56a9.89 9.89.0 0 0-1.1-1 6.75 6.75.0 0 1 .09-2.49c.38-3.91 1.07-7.81 1.7-11.69 1.63-10.12 3.46-20.24 4.45-30.45.32-3.27 1-7.38-.05-10.58-.27-.78-1.51-.45-1.24.34 1 2.89.34 6.63.07 9.59-.49 5.31-1.27 10.59-2.08 15.86-1.39 9-3.34 18.07-4.16 27.18a6.26 6.26.0 0 0 0 2.69c.39.93 1.63 1.7 2.35 2.36 1.44 1.3 2.9 2.58 4.43 3.77a.65.65.0 0 0 1.09-.45c.11-4.74 1-9.5 1.65-14.19l2.58-19.64c1.33-10.13 3-20.9 1.12-31-1.16-6.44-4.57-12.42-11.8-12.55a.64.64.0 0 0 0 1.28z" transform="translate(-0.12)"/><path class="cls-34" d="M71.07 139.45s-10.79 4-13.88 23.76c0 0-3.53 14.77-.41 16.93.0.0-18.5 15.41-24 27.16.0.0-4.74-4 13.39-36.45.0.0 3.86-2.59 10.65-30.84.0.0 6-8.16 11.45-9.7z" transform="translate(-0.12)"/><path class="cls-37" d="M64.77 213.33C62.33 217 59.69 220.48 57 223.9s-6.71 5.95-10 8.8-9.55 3-11.62 6.3c-3.17 5 .92 18.92 4.35 23.27.0.0 16.08 20.39 27.52 23.13.0.0-1.93 10.53-33.47-23.13l-6.21-5.39s-2.73-6.51 6-26.94z" transform="translate(-0.12)"/><path class="cls-1" d="M71.9 142.71c-.06-6-3.67-12.4-3.67-12.4C54 131 53.46 151 50 161.39c-5.81 17.49-18.73 30.73-19.09 50.05-.06 3 2.61 5.17 4.88 6.67 2.62 1.73 5.2 1.18 8.25.65 4-.69 8.13-1.53 11.68-3.43 11.59-6.2 11.07-13.37 13.16-25A38.12 38.12.0 0 1 70.21 185" transform="translate(-0.12)"/><path class="cls-2" d="M72.73 142.71A29.25 29.25.0 0 0 69 129.9a.82.82.0 0 0-.72-.41c-9.19.6-13.1 8.9-15.29 16.79-1.2 4.34-1.95 8.8-3.18 13.14-1.69 6-4.54 11.61-7.43 17.11-5.62 10.68-11.92 21.67-12.21 34.08-.11 4.82 4.5 9.23 9.28 9.49 3 .16 6.29-.71 9.19-1.38a31 31 0 0 0 9.53-3.8 20.4 20.4.0 0 0 9.08-11.31c1.89-6 1.93-12.37 3.81-18.37.32-1-1.28-1.45-1.6-.44-3 9.52-1.47 21-10.41 27.54a27.8 27.8.0 0 1-9.15 4.37c-3.2.87-7.11 2-10.45 1.73-2.92-.19-6.79-2.95-7.52-5.89-.77-3.11.33-7.28 1-10.35 2.78-11.93 10-22.09 14.95-33.12a72.66 72.66.0 0 0 4.59-13.66A113.45 113.45.0 0 1 55.71 143c1.55-4.41 4-9.15 8.6-11a12.26 12.26.0 0 1 1.45-.47c.27-.07 2.58-.29 1.78-.73.3.17.63 1.24.78 1.56a27 27 0 0 1 2.75 10.38c0 1.06 1.7 1.06 1.66.0z" transform="translate(-0.12)"/><path class="cls-37" d="M79.89 2e2s3.88 4.35 8.29 8.8c0 0-3.65.49-10.45-6.77z" transform="translate(-0.12)"/><path class="cls-37" d="M76.25 209.09 75 211.54 65.12 203.35 67.87 200.7 76.25 209.09z"/><path class="cls-2" d="M87.07 208.19c-2.2-.57-4.43-2.71-6.2-4-3.85-2.84-7.58-5.84-11.29-8.86-6.5-5.33-13.33-10.67-19-16.87-.65-.71-1.7.35-1.06 1.05 6 6.48 13.14 12.06 20 17.6 3.56 2.9 7.16 5.77 10.86 8.5 1.86 1.37 4.08 3.44 6.38 4a.75.75.0 0 0 .4-1.44z" transform="translate(-0.12)"/><path class="cls-14" d="M68.68 202s5.89 5.73 7.69 7.11c.9-4.41 4.26-22.14 5.38-31.92.78-6.88 1.56-13.76 2.24-20.65.66-6.69 2.53-14 .14-20.57-.95-2.63-5.88-11.5-9.92-9.53.0.0-5.58 2.72-7.6 4.51 1.22-1.08 5.38.81 6.36 1.47a11.59 11.59.0 0 1 4.42 6.22S79.3 149.25 68.68 202z" transform="translate(-0.12)"/><path class="cls-2" d="M68.23 202.43a103.53 103.53.0 0 0 7.69 7.12.65.65.0 0 0 1.07-.29c2.59-12.74 4.67-25.56 6.12-38.48.57-5 1-10.07 1.61-15.1.5-4.46 1.39-8.91 1.21-13.41-.22-5.56-2.67-11.59-7.05-15.23-1.58-1.32-3.22-1.92-5.16-1.09a31.16 31.16.0 0 0-7.56 4.53c-.56.47.16 1.38.78 1 1.37-.84 4.07.5 5.28 1.22a10.24 10.24.0 0 1 4.43 5.75c.2.69.07.05.15.61a25.17 25.17.0 0 1 .06 4c-.25 9.23-1.67 18.46-3.11 27.56-1.65 10.45-3.61 20.84-5.69 31.2-.16.81 1.08 1.16 1.24.35 3.3-16.43 6.46-33 8.16-49.65.44-4.31 1.38-9.4.59-13.75a11.32 11.32.0 0 0-3-5.44c-1.77-1.84-6.22-4.5-8.76-2.93l.78 1a33.82 33.82.0 0 1 6.64-4c2.4-1.2 4.19.23 5.8 2.09 4.46 5.16 5.58 11.32 4.94 18-1.43 15-3.11 30.18-5.67 45.09-.94 5.46-1.92 10.91-3 16.34l1.08-.28a103.52 103.52.0 0 1-7.7-7.12C68.54 201 67.63 201.85 68.23 202.43z" transform="translate(-0.12)"/><path class="cls-37" d="M69.41 129.19a1.88 1.88.0 0 1 .47-.13 7.27 7.27.0 0 1 2.86.64c3.78 1.45 6 5 6.82 8.8a97.4 97.4.0 0 1-.73 22.5L71.5 203.11 69.78 202l7.28-42.36a93.1 93.1.0 0 0 1.36-13.1 34.8 34.8.0 0 0-.72-9.5c-1.1-4.24-5.8-5.25-9.17-7C69.21 129.81 68.73 129.45 69.41 129.19z" transform="translate(-0.12)"/><path class="cls-13" d="M61.55 214.52l15.77-31.84a6.77 6.77.0 0 0 2.56-2.84 22.22 22.22.0 0 0 1.25-4.62c.4-1.73-.19-2.6-.47-4.2.31 1.78 3 1.88 4.35 1.67a6.92 6.92.0 0 0 3.65-1.84c1.39-1.83-.21-2.55-1.73-3.6.67.17.79 1.16 1.95.37a2.16 2.16.0 0 0 1-1.84 3.84 3.84.0 0 0-2.2-2.44c2.1.57 3.2-2.89.52-4.19-.34-.17-.76-.18-1-.47a.37.37.0 0 1-.07-.14c0-.1 2 .21 2.94-.23a2.83 2.83.0 0 0 .71-.42c.2-.23.3-.31.32-.61a3.27 3.27.0 0 0-2-3 19.17 19.17.0 0 0-2.26-1.24 16 16 0 0 0-5.81-.93 7.23 7.23.0 0 0-1.23.13c-6.65 1.27-8.84 7.67-9.72 11.82-1 4.53-1.11 8-2.62 12.42-.6 1.73-2.53 6.89-5.13 10.16" transform="translate(-0.12)"/><path class="cls-2" d="M62.06 214.82q3.72-7.53 7.45-15L74.85 189c.92-1.86 1.68-4.17 2.89-5.85.17-.23-.06.09.5-.38a8.14 8.14.0 0 0 2.18-2.69 13.51 13.51.0 0 0 .81-9.21l-1.14.32C81 174 84.8 173.64 87 172.69c1.19-.52 2.71-1.47 2.79-2.95s-1.49-2.29-2.54-3l-.6 1c1.4.72 2.53 1.11 3.52-.67s-.72-3.4-2.17-4.26l-.46 1.07A2.29 2.29.0 0 0 90.31 162a2.93 2.93.0 0 0-.37-2.1c-.47-.78-2-1.11-2.33-1.68l-.35.87c1.38-.26 3.45.39 4.26-1.27.92-1.9-1.34-3.55-2.67-4.34-4.53-2.69-10.62-2.78-14.63.92-3.81 3.52-4.71 8.92-5.51 13.78-1.06 6.44-2.91 12.89-6.92 18.17-.45.61.57 1.2 1 .6A36.68 36.68.0 0 0 68 176.67c1.62-4.74 1.74-9.79 3.16-14.57 1.25-4.2 3.85-8.22 8.42-9.18a12.34 12.34.0 0 1 8.68 1.6c1 .63 1.46.79 1.68 2s-.11 1.3-1.45 1.39A13.19 13.19.0 0 0 87 158a.6.6.0 0 0-.36.87c.19.37.42.35.77.63a4.48 4.48.0 0 1 1.56 1.05c.6 1 .24 1.78-1.09 2.25a.59.59.0 0 0-.45 1.08c1.06.62 2.87 2.42 1 2.9-1 .26-.5.34-1.18.0a.59.59.0 0 0-.6 1c1.17.79 2.69 1.34.9 3.31a4.39 4.39.0 0 1-1.89.85c-1.28.37-3.85.64-4.41-1.06a.59.59.0 0 0-1.14.32 13 13 0 0 1-.23 7c-.62 2-1.76 2.66-3 4.07a7.86 7.86.0 0 0-.84 1.63l-5.14 10.37-9.88 20c-.34.68.68 1.28 1 .6z" transform="translate(-0.12)"/><path class="cls-13" d="M86.9 167.29a13.05 13.05.0 0 0-6.32-.56" transform="translate(-0.12)"/><path class="cls-2" d="M87.06 166.72a14.34 14.34.0 0 0-6.63-.56c-.75.12-.43 1.25.31 1.14a12.92 12.92.0 0 1 6 .56c.72.22 1-.92.31-1.14z" transform="translate(-0.12)"/><path class="cls-13" d="M87.42 163.21a9.4 9.4.0 0 0-6.5-1.25" transform="translate(-0.12)"/><path class="cls-2" d="M87.72 162.7a9.47 9.47.0 0 0-7-1.31c-.75.15-.43 1.29.31 1.14a8.27 8.27.0 0 1 6 1.19c.63.44 1.22-.59.6-1z" transform="translate(-0.12)"/><path class="cls-13" d="M84.22 170.78c-1 .32-2.91-.55-3.91-.75" transform="translate(-0.12)"/><path class="cls-2" d="M84.06 170.21c-1.12.3-2.5-.51-3.59-.75-.74-.16-1.06 1-.32 1.14 1.35.29 2.82 1.13 4.23.75a.59.59.0 0 0-.32-1.14z" transform="translate(-0.12)"/><path class="cls-13" d="M81.18 157.8c2.16.0 5.19-.14 7 1.36" transform="translate(-0.12)"/><path class="cls-2" d="M81.18 158.39c2.28.0 4.81-.15 6.73 1.28.61.46 1.2-.57.6-1-2.1-1.56-4.85-1.41-7.33-1.44a.59.59.0 0 0 0 1.18z" transform="translate(-0.12)"/><path class="cls-1" d="M65.74 172.41c-3.7 4.36-18.91 16-23.43 21.91-5.35 7.07-12 13.68-13.24 23.21a15.3 15.3.0 0 0 2 9.49c5.37 8.67 13.27 3.26 20-1 7.68-4.85 15.67-16.85 20.29-25.34 1.14-2.1 6.39-11.07 9.35-15.89.0.0-5.43-4.13-8.48-6.83z" transform="translate(-0.12)"/><path class="cls-2" d="M65.15 171.82c-5.56 6.42-12.9 11.34-19 17.2A96.54 96.54.0 0 0 37 199.76c-3.25 4.16-6.3 8.54-7.86 13.64s-1.32 10.95 2.13 15.35A9.09 9.09.0 0 0 41.34 232c4.39-1.2 8.82-4.08 12.36-6.88a58.34 58.34.0 0 0 10.75-11.92c6.35-8.84 11.25-18.72 16.93-28a.86.86.0 0 0-.3-1.14c-5.1-3.88-9.91-8.08-14.76-12.27-.8-.69-2 .48-1.17 1.17 4.95 4.29 9.88 8.56 15.09 12.53L80 184.39c-9.36 15.3-16.83 33.51-32.78 43.09-3.81 2.28-9.09 5.12-13.16 1.79-4.77-3.9-4.87-10.82-3-16.18s5.22-9.69 8.63-14a85.14 85.14.0 0 1 7.71-8.93c6.12-5.86 13.46-10.78 19-17.2C67 172.19 65.85 171 65.15 171.82z" transform="translate(-0.12)"/><path class="cls-38" d="M75.66 181.5 73.43 184.59z"/><path class="cls-38" d="M72.48 178.6 70.25 181.69z"/><path class="cls-38" d="M69.32 175.71 67.08 178.8z"/><path class="cls-34" d="M56.78 182.92S36 201.08 36.24 214.52c.07 4.06 6.47 4 8.48 6.44 2.65 3.18.5 7.32-2.82 9 0 0-11.59 5.76-12.23-15.42C29.67 214.52 38.6 193.08 56.78 182.92z" transform="translate(-0.12)"/><path class="cls-34" d="M89.46 139.45c2.19 6.57 2.34 15.16 3.44 22.19 1.22 7.84 2.46 10.65 3.63 18.5 2.3 15.47 4 15 6 51.57.0.0.44-17.54 1.12-30.39.0.0-2.84 6.18-3.7-15.74z" transform="translate(-0.12)"/><path class="cls-31" d="M80.66 242.15l7.52 1.16s-.52 6.24-1.31 11c0 0-4.89 2-8.75-.56" transform="translate(-0.12)"/><path class="cls-15" d="M24.62 411.28S10.75 414.67 5.42 398L.81 389.92s13.89-29.47 34.84-87.35c0 0 12.13 18.22 25.08 23.72L73.12 330s-15.55.65-25 22.74c-2.45 11.85-18.51 47.92-16 60.73" transform="translate(-0.12)"/><path class="cls-15" d="M168.85 316.25s10.56 80.81 12.73 92.5c0 0-10.53 8.17-16.49 10.48.0.0-7.14 4.76-8.57 7.76.0.0-5.4-95.52-7.65-103.4C148.87 323.59 160.2 321.21 168.85 316.25z" transform="translate(-0.12)"/><path class="cls-39" d="M161.94 510.2c0-1.92-2.35-2.9-3.87-2.89-4.74.0-6.76 6.26-11.24 7-5.59 1-10.38-7.58-12.91-11.41.0.0-8.83-11.19-8.67-16.58.0.0-5.24 3.31-9-12.52l.07-5.85s-5.08 2.33-4.16 15.88c0 0 16.25 34.82 36.69 35.76C148.87 519.63 161.71 521.31 161.94 510.2z" transform="translate(-0.12)"/><path class="cls-39" d="M85.3 485c.17-1.33-1.4-2.2-2.44-2.32-3.29-.36-5.19 3.8-8.35 4-4 .23-6.58-6.07-8-8.93.0.0-5.21-8.46-4.67-12.18.0.0-3.9 1.87-5.22-9.38l.52-4s-3.7 1.21-4.15 10.67c0 0 8.46 27.61 22.55 29.9C75.5 492.67 84.25 492.65 85.3 485z" transform="translate(-0.12)"/><path class="cls-40" d="M142.3 482.07s-5.37-1-9.08 1.58" transform="translate(-0.12)"/><path class="cls-41" d="M73.86 464.94s-3.45-.68-5.83 1.1" transform="translate(-0.12)"/><path class="cls-40" d="M125.09 471.77 123.84 475.55z"/><path class="cls-40" d="M121.23 470.06 119.98 473.84z"/><path class="cls-42" d="M63.5 454.03 62.73 456.36z"/><path class="cls-42" d="M61.13 452.98 60.35 455.31z"/><path class="cls-16" d="M133.22 432.38c0-.05-7.57 1.15-8.23 1.36-3.49 1.06-4 2.33-4.34 5.87a137.81 137.81.0 0 0 .08 27l-3.38-2-2.17-32.22s15.83-2.14 18 0z" transform="translate(-0.12)"/><path class="cls-16" d="M70.94 432.38l-4.84-.88s-4-.77-4.85-.77L59.9 450 63 436.79S63.38 432 70.94 432.38z" transform="translate(-0.12)"/><path class="cls-16" d="M73.8 159.16a14.23 14.23.0 0 1 2 7.4s.28 7.87-2.24 11l-4.2-3.74S70.1 162.21 73.8 159.16z" transform="translate(-0.12)"/><g class="phone-light"><path class="cls-43" d="M194.27 105.77 178.93 84.18s-11.86-5-18.2 2.78l14.94 13.91z" transform="translate(-0.12)"/><path class="cls-44" d="M175.67 100.87 160.73 87s-20 16.75-21.62 32.37l23.25 15.91z" transform="translate(-0.12)"/><animate attributeType="auto" attributeName="opacity" dur="1.5s" values="0.4;1;0.4" repeatCount="indefinite" begin="0"/></g><path class="cls-45" d="M166.94 126.85 165.16 127.86 164.77 128.88 166.43 128.21 166.94 126.85z"/><path class="cls-13" d="M184.59 148.43c-1.2-3.14 3.13-5.67 4.26-8.87a52 52 0 0 0 2.7-8.51 8.77 8.77.0 0 0-3.25-7.84c-3.12-2.2-2.21 3.59-1.53 5 .83 1.73.67 1.8-.49 3.18s-1.21 2.8-1.54 4.39a53.25 53.25.0 0 0-1.55 7.46c-.18 2.32-.3 5.46 1 7.54C184.87 152 182.16 153.32 184.59 148.43z" transform="translate(-0.12)"/><path class="cls-2" d="M185.15 148.28c-.84-3 2.86-5.5 4-8 1.42-3 3.13-7.12 3-10.52a9.16 9.16.0 0 0-3.49-7c-1-.66-2.09-1-2.84.09s-.35 3.32.0 4.59c.43 1.52 1.07 2 0 3.48a9 9 0 0 0-1.54 3.87c-.74 3.48-1.78 6.85-1.83 10.44a13.5 13.5.0 0 0 .53 4.43c.08.23.43 1.3.62 1.37.8.3 1.25-1.89 1.46-2.33.32-.68-.7-1.28-1-.6s-2 3.56-.64 4.25c.83.42 1.38-.51 1.44-1.2.09-1.14-1-2.52-1.11-3.74a21.67 21.67.0 0 1 .21-5.8c.32-1.94.92-3.81 1.34-5.72a22.35 22.35.0 0 1 .48-2.3c.38-1.2 1.24-1.83 1.75-2.88.82-1.67-.61-3.35-.79-5.09s.48-2.89 2.12-1.16a8.35 8.35.0 0 1 2.16 5.93 23.14 23.14.0 0 1-1.83 6.48 18.91 18.91.0 0 1-2.78 5.44c-1.46 1.87-3.12 3.72-2.4 6.25A.59.59.0 0 0 185.15 148.28z" transform="translate(-0.12)"/><path class="cls-46" d="M178.41 101.56c-2.83-.79-3.78.22-5.13 2.8-1.75 3.32-10.92 28.16-10.92 30.88.0 1.9 2.42 2.53 4.46 2.83.76.11 15.08 3.61 16.75 3C185 140.57 194.7 111 195 109.26c.26-1.41.63-2.63-.75-3.49S190.47 104.29 178.41 101.56z" transform="translate(-0.12)"/><path class="cls-2" d="M178.63 100.76c-4.48-1.07-5.95 2.68-7.38 6.18-1.91 4.67-3.65 9.41-5.35 14.17a113.52 113.52.0 0 0-4.11 12.59c-.92 4.06 2.68 4.69 5.92 5.41 4.45 1 8.91 2.13 13.44 2.7 3 .38 3.46-.42 4.56-3 3.53-8.33 6.27-17 9-25.66.89-2.79 2.72-6.69-.67-8.42A19.42 19.42.0 0 0 190 103.4c-3.76-1-7.56-1.78-11.34-2.64-1-.23-1.48 1.36-.44 1.59 4.59 1 9.34 1.87 13.82 3.34 1.69.55 2.51 1.19 2.21 3.38a14.41 14.41.0 0 1-.62 2.13q-3.47 11.16-7.53 22.13c-.58 1.59-1.18 3.17-1.83 4.73-.23.55-.65 2.05-1.16 2.37.3-.19-.86-.15-1.11-.17-1-.09-1.91-.26-2.86-.43-2.12-.37-4.22-.82-6.33-1.28-1.89-.41-9.46-1.25-9.58-3.49a11.41 11.41.0 0 1 .87-3.36c.57-1.88 1.2-3.74 1.83-5.6q2.47-7.23 5.22-14.36c.69-1.8 1.39-3.6 2.14-5.37 1-2.28 2-4.72 4.93-4C179.22 102.6 179.66 101 178.63 100.76z" transform="translate(-0.12)"/><path class="cls-2" d="M166.92 136c-.93-1.64.51-4.55 1.06-6.22q1.53-4.56 3.12-9.08c1.89-5.41 3.66-10.93 5.92-16.19.47-1.1-1.14-2.06-1.62-1-2.48 5.76-4.42 11.79-6.48 17.7-1.08 3.09-2.15 6.17-3.16 9.28-.72 2.18-1.68 4.26-.46 6.41a.94.94.0 0 0 1.62-.95z" transform="translate(-0.12)"/><path class="cls-47" d="M178.78 105.52c-.55 1-.49 2.43.77 2.64 2 .33 3-3.17.9-3.61A1.59 1.59.0 0 0 178.78 105.52z" transform="translate(-0.12)"/><path class="cls-2" d="M178.34 105.26c-.54 1.07-.65 2.64.61 3.25a2.19 2.19.0 0 0 2.79-1 2.52 2.52.0 0 0-.1-2.84c-1-1.16-2.59-.57-3.3.6-.35.57.54 1.08.88.52s1.34-1.11 1.78-.26a1.64 1.64.0 0 1-.14 1.46 1.2 1.2.0 0 1-1.26.67c-.88-.19-.68-1.28-.38-1.87S178.63 104.67 178.34 105.26z" transform="translate(-0.12)"/><path class="cls-1" d="M176.76 146.52c-1.91 6.51-6.19 12.62-9.22 18.65-2.82 5.6-4.86 13.77-6.41 19.84s-3.39 11.45-1.59 17.55a12.29 12.29.0 0 0 5 6.66c7.51 4.62 12-1.8 16-7.91 4.54-7 7.88-24.17 8.61-32.77.46-5.52 1.27-11 1.94-16.51a27.63 27.63.0 0 1-8-1.72C182.38 150.06 176.51 147.38 176.76 146.52z" transform="translate(-0.12)"/><path class="cls-2" d="M176.12 146.35c-1.71 5.53-4.79 10.42-7.56 15.46A67.75 67.75.0 0 0 163 175.54c-1.5 5.08-2.91 10.25-4 15.42-1 4.62-1.39 9.81.94 14.11 1.83 3.39 5.49 6.36 9.5 6.39 3.75.0 6.6-2.72 8.76-5.49 5-6.4 7.35-13.83 9.13-21.66 2.4-10.61 3.19-21.51 4.51-32.28.0-.38-.35-.65-.67-.67a26 26 0 0 1-9-2.21c-.64-.3-4.62-1.85-4.66-2.63s-1.38-.86-1.34.0c.09 1.74 3.45 2.89 4.71 3.5a28.5 28.5.0 0 0 10.3 2.68l-.67-.67c-1.08 8.79-1.74 17.7-3.34 26.42-1.31 7.12-2.85 14.85-6.37 21.26-1.8 3.28-4.23 7.11-7.43 9.17-4.56 2.93-9.92-.14-12.26-4.49-2.61-4.82-1.46-10.65-.18-15.68 1.17-4.55 2.29-9.12 3.65-13.62A69.7 69.7.0 0 1 170.57 161c2.59-4.61 5.27-9.19 6.84-14.27A.67.67.0 0 0 176.12 146.35z" transform="translate(-0.12)"/><path class="cls-48" d="M185.85 151.95 184.81 155.22z"/><path class="cls-48" d="M182.33 150.62 181.28 153.89z"/><path class="cls-48" d="M178.81 149.29 177.76 152.56z"/><path class="cls-49" d="M175.67 102.72l-.6 1.8L165.82 130s-2.36 3.56-1.66 6.45c0 0-2.11-.49.73-7.59.0.0 5.91-16.77 7.48-20.7C172.37 108.18 174.77 102.53 175.67 102.72z" transform="translate(-0.12)"/><path class="cls-50" d="M167.96 123.92 166.17 124.94 165.6 126.53 167.26 125.85 167.96 123.92z"/><path class="cls-49" d="M179.08 118a2.7 2.7.0 0 0 1.79 2.93 2.93 2.93.0 0 0 3.12-1.47 1.84 1.84.0 0 0 .14-1.73c-.48-1-1.27-.4-2.1-.65s-1.6-1.53-2.48-.3A2.55 2.55.0 0 0 179.08 118z" transform="translate(-0.12)"/><path class="cls-49" d="M181.48 115a1.23 1.23.0 0 0 1.27 1.5 1.54 1.54.0 0 0-.26-1.07A1.49 1.49.0 0 0 181.48 115z" transform="translate(-0.12)"/><path class="cls-13" d="M177.88 140.45A35.67 35.67.0 0 1 180.3 145l-.27 3.85a18.18 18.18.0 0 0 7.9 2.76c3.82-7.7 2.75-11.63 2.75-11.63.3-1.62.81-3.27.48-4.88a27.08 27.08.0 0 0-2.46-6.91 25.63 25.63.0 0 0-7.1-7.6c-.87-.66-2.11-1.86-3.2-2.11.0.0-1.5.37-1.2 2.59l-1.9-.74a2.3 2.3.0 0 0-.25 1.93c-1.23-1.12-1.26 1.79-1.2 2.53a27.73 27.73.0 0 0 .64 4.08c-.68-.33-1.27-.94-1.87-.3s-.14 1.85.0 2.45a19.14 19.14.0 0 0 4.61 8.6" transform="translate(-0.12)"/><path class="cls-2" d="M177.37 140.74a13.14 13.14.0 0 1 2.39 4.54c.07.41-.25 2.61-.32 3.61a.61.61.0 0 0 .3.51 17.86 17.86.0 0 0 8.19 2.84.56.56.0 0 0 .51-.29c1.62-3.36 3.24-7.25 2.95-11.08a15.56 15.56.0 0 1 .36-3.29 15.13 15.13.0 0 0-1.44-7.26c-1.87-4.76-5.56-8.06-9.54-11.1-.79-.61-1.81-1.54-2.86-1.14s-1.36 2-1.3 3l.75-.57-1.9-.74a.59.59.0 0 0-.67.27 3.57 3.57.0 0 0-.31 2.39l.87-.67c-3.22-2.14-1.59 6.52-1.43 7.28l.87-.67c-2.07-1.17-3.23-.2-2.9 2.11a19.47 19.47.0 0 0 4.89 9.57c.5.57 1.33-.26.84-.84a21.57 21.57.0 0 1-3.48-5.33c-.23-.51-2.24-5.79.05-4.49a.6.6.0 0 0 .87-.66 21.65 21.65.0 0 1-.62-4.07c0-.22.07-2 .31-1.88.48.32.94-.2.87-.66-.27-1.73-.62-1.11.47-.84a7.79 7.79.0 0 1 .95.37.6.6.0 0 0 .75-.57c-.17-3.13 1.52-1.53 2.93-.43a43.71 43.71.0 0 1 3.55 2.95 20.74 20.74.0 0 1 5.57 8.87 11.34 11.34.0 0 1 .6 5.74 12.7 12.7.0 0 0-.31 2 22.88 22.88.0 0 1-.19 4 24.11 24.11.0 0 1-1.14 3.92c-.23.6-.89 2.83-.92 2.84-.24.1-.72-.12-1-.14a13.3 13.3.0 0 1-3.45-.9A7.05 7.05.0 0 1 181 148.8c-.28-.35-.11.17-.29-.51-.31-1.1.38-2.44.12-3.58a14.06 14.06.0 0 0-2.4-4.56c-.45-.6-1.47.0-1 .59z" transform="translate(-0.12)"/><path class="cls-13" d="M175.07 122.55c.52 2.1 4 6.9 5.47 8.49" transform="translate(-0.12)"/><path class="cls-2" d="M174.5 122.7c.9 3.19 3.45 6.32 5.63 8.76.5.56 1.34-.27.83-.84-2-2.26-4.48-5.26-5.32-8.23a.59.59.0 0 0-1.14.31z" transform="translate(-0.12)"/><path class="cls-13" d="M174.41 128.88a32.15 32.15.0 0 0 3.39 5.17" transform="translate(-0.12)"/><path class="cls-2" d="M173.85 129a20 20 0 0 0 3.54 5.43c.49.57 1.33-.26.83-.84a24 24 0 0 1-1.74-2.4 14.16 14.16.0 0 1-1.5-2.5c-.27-.7-1.41-.4-1.13.31z" transform="translate(-0.12)"/><path class="cls-13" d="M177.63 119.94c.51 2.1 4 6.9 5.47 8.49" transform="translate(-0.12)"/><path class="cls-2" d="M177.06 120.1c.9 3.19 3.44 6.31 5.62 8.75.51.57 1.34-.27.84-.84-2-2.26-4.48-5.25-5.32-8.23a.59.59.0 0 0-1.14.32z" transform="translate(-0.12)"/><path class="cls-51" d="M194.21 107.9l-17.24 7 1.48 3.11 15-6.33S194.66 109.18 194.21 107.9z" transform="translate(-0.12)"/><path class="cls-52" d="M192.49 114.23 180.42 118.9 182.07 120.24 191.51 116.79 192.49 114.23z"/></g></g></svg>