<svg xmlns="http://www.w3.org/2000/svg" xmlns:xlink="http://www.w3.org/1999/xlink" viewBox="0 -2 141.39 70"><defs><style>.cls-1{fill:url(#未命名漸層_82)}.cls-2{fill:#e1dcdd;stroke-width:1.85px}.cls-2,.cls-3,.cls-6,.cls-8{stroke:#4d3224}.cls-11,.cls-2,.cls-6{stroke-linecap:round;stroke-linejoin:round}.cls-3{fill:#80d8d6;stroke-width:1.41px}.cls-3,.cls-8{stroke-miterlimit:10}.cls-4,.cls-7{opacity:.8}.cls-5,.cls-7{fill:#d0ebea}.cls-6{fill:#4d3224;stroke-width:1.48px}.cls-8{fill:#ffefba;stroke-width:1.39px}.cls-9{fill:#4e342e}.cls-10{fill:#b3b3b3}.cls-11{fill:none;stroke:#e3e3e3;stroke-width:.71px}.Body{-webkit-animation:shock-An 2s linear infinite;animation:shock-An 2s linear infinite}@keyframes shock-An{0%{-webkit-transform:translateY(0px);transform:translateY(0px)}15%{-webkit-transform:translateY(-2px);transform:translateY(-2px)}30%{-webkit-transform:translateY(0px);transform:translateY(0px)}40%{-webkit-transform:translateY(0px);transform:translateY(0px)}55%{-webkit-transform:translateY(-2px);transform:translateY(-2px)}70%{-webkit-transform:translateY(0px);transform:translateY(0px)}85%{-webkit-transform:translateY(-2px);transform:translateY(-2px)}100%{-webkit-transform:translateY(0px);transform:translateY(0px)}}</style><linearGradient id="未命名漸層_82" x1="-504.3" y1="79.68" x2="-549.25" y2="80.98" gradientTransform="matrix(-0.99, 0.13, 0.13, 0.99, -508.18, 33.6)" gradientUnits="userSpaceOnUse"><stop offset="0" stop-color="#fff" stop-opacity="0"/><stop offset=".68" stop-color="#f8eeb9" stop-opacity=".7"/><stop offset="1" stop-color="#f5e69a"/></linearGradient></defs><title>n-home-traffic-after-03</title><g class="Body"><g class="light"><path class="cls-1" d="M46.18 36 1.46 32.73S-4.32 49.21 7.11 62.34L46.24 43.88 46.18 36"/><animate attributeType="auto" attributeName="opacity" dur=".4s" values="0.4;1;0.4" repeatCount="indefinite" begin="0"/></g><path class="cls-2" d="M140.46 53.37l-4.37-48A4.42 4.42.0 0 0 131.68.92H88.91C86 .92 83.94 3 82 5.29 76.81 11.52 65.37 24 64.47 25.17c-.06.08-9.75 1.38-15.26 2.13a4.76 4.76.0 0 0-4.11 4.22l-.39 20.32c-.65 4.21 1.75 6 5.53 6h84.88S140.27 57 140.46 53.37z"/><path class="cls-3" d="M105.42 25.7H76.78A1.64 1.64.0 0 1 75.52 23L90.33 5.29a1.66 1.66.0 0 1 1.26-.59h13.83a2.14 2.14.0 0 1 2.13 2.13V23.56A2.14 2.14.0 0 1 105.42 25.7z"/><path class="cls-3" d="M130.61 25.7H114.34a2.24 2.24.0 0 1-2.24-2.25V6.94a2.24 2.24.0 0 1 2.24-2.25h14.52a2.25 2.25.0 0 1 2.25 2.25l1.74 16.51A2.25 2.25.0 0 1 130.61 25.7z"/><g class="cls-4"><path class="cls-5" d="M105.58 5.48l-4.07.06L85.17 25.11l8-.28L106.65 7.72S107.61 5.61 105.58 5.48z"/></g><path class="cls-6" d="M83 29.74c-.83.0-2.39-1.45-3.56-2.68A3 3 0 0 1 79.35 23c1.18-1.34 2.82-2.64 3.68-2.64h0A2.63 2.63.0 0 1 85.66 23v4.14A2.64 2.64.0 0 1 83 29.74z"/><path class="cls-7" d="M106.79 13.95 98.28 24.84 95.69 24.93 106.9 10.62 106.79 13.95z"/><path class="cls-7" d="M120.55 25.02 130.88 11.82 130.53 9.06 118.13 24.91 120.55 25.02z"/><path class="cls-8" d="M44.8 43.65h4.8c4.29.0 5.38-1.21 6.26-3.42.0.0 2.12-4-3.21-4H46.89S44.72 36.18 44.7 39z"/></g><g class="Tires"><animateTransform attributeName="transform" dur="260ms" from="0 124.46 57.01" to="-360 124.46 57.01" type="rotate" attributeType="auto" repeatCount="indefinite" /><circle class="cls-9" cx="124.46" cy="57.01" r="10"/><circle class="cls-10" cx="124.46" cy="57.01" r="6.05"/><path class="cls-11" d="M129.23 57a4.78 4.78.0 0 0-2.95-4.41"/><path class="cls-11" d="M121.1 60.33A4.75 4.75.0 0 1 119.7 57"/></g><g class="Tires"><animateTransform attributeName="transform" dur="260ms" from="0 69.96 57.01" to="-360 69.96 57.01" type="rotate" attributeType="auto" repeatCount="indefinite" /><circle class="cls-9" cx="69.96" cy="57.01" r="10"/><circle class="cls-10" cx="69.96" cy="57.01" r="6.05"/><path class="cls-11" d="M74.73 57a4.78 4.78.0 0 0-3-4.41"/><path class="cls-11" d="M66.6 60.33A4.75 4.75.0 0 1 65.2 57"/></g></svg>