<svg xmlns="http://www.w3.org/2000/svg" viewBox="0 0 336.15 195.53"><defs><style>.cls-1,.cls-3{fill:#5596ca}.cls-1,.cls-2{opacity:.4}</style></defs><title>m-works-b-tree</title><g id="圖層_2" data-name="圖層 2"><g id="作品"><path class="cls-1" d="M218.9 81.07c.24-.62.46-1.23.67-1.84.12-.35.22-.69.33-1s.13-.39.19-.59C233.54 33.71 172.66 10.47 150.7 32c-9.39-2.12-17.93.93-24.37 5.92C116.42 15.69 103.27-1.25 91.23.07 61.93 3.26 31.4 83.73 46.11 121.68c.89 2.62 4.21 5 8.29 6.9l.53.24.74.34a61.64 61.64.0 0 0 6.41 2.34l.15.05.79.23 1 .3.42.12c.91.24 1.79.46 2.63.65h.09l1.23.26h.15l1.12.21c9.05 1.48 14.3-1.29 17.71-3.62a52.42 52.42.0 0 1 1.39 12.38c0 27.64-.19 38.35.0 43.85s-14 8.2-14 8.2-4.44 1.54 8.24 1.33c13.33-.23 28.23.57 29.8-1.33s-13.88-2.83-14.06-8.42c-.35-11.17-3.21-40.79-.42-55.1 10 3.75 31 5.2 37.84-3.35a19.11 19.11.0 0 0 1.55-2.29c.4.15.82.29 1.23.43l.67.22c.82.27 1.65.52 2.51.76l.43.11c.94.26 1.89.5 2.87.72a31.71 31.71.0 0 0 18.32-1.43 38.29 38.29.0 0 1 1.91 12.63c0 23.14.83 49.92.83 49.92a11.31 11.31.0 0 1-6 5.39c-2.65.94-1.27.59 8.39.59 7.18.0 10 .64 8.23-.3-2.25-1.19-4.81-2.89-4.94-5.39-.51-9.86-3.15-52.42-.37-62.86 2.73 1.21 6.55 2.48 10.21 2.19 21.43-1.66 33.83-11.48 34.84-28.42.43-7.21-2.67-9.78-5-10.7C211.13 88.62 217.11 85.78 218.9 81.07z"/><g class="cls-2"><path class="cls-3" d="M299.65 112.84c-1.31.0.0 10.24-8.16 15.23-7.43 4.52-19.08 1.59-21.89-1.75-2-2.35-7.34 3.15-18 1.44-8-1.28-16.08-7.4-19.6-14 0 0 0 0 0-.06-3.3-6.24-2.6-12.91 5.9-16.45-10.15-6.82-7.28-21.59 5.2-24.77-9.18-10.33 4.71-26.66 18.1-17.27 8.59-9.51 29.2-3.86 22.47 8.19 17.52-2 20.12 13.88 13 25.47 4.29-2.26 7.8-1.38 10.25 1.07v0C313.23 96.27 312.4 112.84 299.65 112.84z"/><path class="cls-3" d="M299.65 112.84c-1.31.0.0 10.24-8.16 15.23-7.43 4.52-19.08 1.59-21.89-1.75-2-2.35-7.34 3.15-18 1.44-8-1.28-16.08-7.4-19.6-14 6.94 7.7 20 10.91 20.76-1.9 5.35 9.18 23.79 8.53 29.93-.46 13 5.57 22.48-9.08 24.25-21.43C313.23 96.27 312.4 112.84 299.65 112.84z"/><path class="cls-3" d="M255.6 102.35a24.17 24.17.0 0 1 2.27 2.58c.09.12-2.46.27-4.57.86-2.94.83-5.67 2.15-5.06 2.2 1 .1 10.32-2.58 12.18-1 3.52 3 7 8.78 7 18 0 17-.33 60.15-.33 60.15l-4.35 2.08s-3.69 1.92 4 2.08c7.92.17 9.76.53 10.74-.64s-4.31-1.5-4.49-4.33c-.47-7.48-3-61.69-.35-69.3a13.44 13.44.0 0 1 5.85-6.83c.29-.19 6.29 1.36 6.58 1.19.63-.36-4.36-2.28-3.83-2.71 2.68-2.16 4.77-1.91 5.17-2.45.92-1.21-3.32.07-5.72 1s-9 5.68-9 5.68 2-6.12 3.83-11.81c.12-.35 6.22-4.1 6.33-4.45.22-.65-5.56 2.11-5.35 1.5 1-3 2.36-6.77 2.68-7.62 1-2.63-1.85 2.53-3.54 6.6-2.77 6.69-3.21 11.82-5.25 12.51S266 100.46 264.48 96c-.52-1.59-1.05-3-1.58-4.32-.17-.4 2-8.29 1.87-8.67-.27-.62-2.91 6.3-3.17 5.77-2.22-4.54-4-6-3.33-4.34 1.44 3.92 10.17 24.23 8.53 24.82s-10.06-9.15-15.22-10C248.94 98.76 255.6 102.35 255.6 102.35z"/><path class="cls-3" d="M255.6 102.35a24.17 24.17.0 0 1 2.27 2.58c.09.12-2.46.27-4.57.86-2.94.83-5.67 2.15-5.06 2.2 1 .1 10.32-2.58 12.18-1 3.52 3 7 8.78 7 18 0 17-.33 60.15-.33 60.15l-4.35 2.08s-3.69 1.92 4 2.08c7.92.17 9.76.53 10.74-.64s-4.31-1.5-4.49-4.33c-.47-7.48-3-61.69-.35-69.3a13.44 13.44.0 0 1 5.85-6.83c.29-.19 6.29 1.36 6.58 1.19.63-.36-4.36-2.28-3.83-2.71 2.68-2.16 4.77-1.91 5.17-2.45.92-1.21-3.32.07-5.72 1s-9 5.68-9 5.68 2-6.12 3.83-11.81c.12-.35 6.22-4.1 6.33-4.45.22-.65-5.56 2.11-5.35 1.5 1-3 2.36-6.77 2.68-7.62 1-2.63-1.85 2.53-3.54 6.6-2.77 6.69-3.21 11.82-5.25 12.51S266 100.46 264.48 96c-.52-1.59-1.05-3-1.58-4.32-.17-.4 2-8.29 1.87-8.67-.27-.62-2.91 6.3-3.17 5.77-2.22-4.54-4-6-3.33-4.34 1.44 3.92 10.17 24.23 8.53 24.82s-10.06-9.15-15.22-10C248.94 98.76 255.6 102.35 255.6 102.35z"/></g><path class="cls-3" d="M86.3 106.46c-1.63.0.0 12.71-10.13 18.91-9.23 5.61-23.7 2-27.19-2.17-2.43-2.92-9.11 3.91-22.33 1.79-9.95-1.6-20-9.19-24.34-17.43.0.0.0.0.0-.08-4.11-7.75-3.23-16 7.33-20.43C-3 78.58.57 60.24 16.06 56.3 4.67 43.46 21.91 23.18 38.54 34.84 49.21 23 74.8 30.06 66.45 45c21.75-2.51 25 17.24 16.21 31.63C88 73.84 92.34 74.94 95.38 78v0C103.16 85.87 102.14 106.46 86.3 106.46z"/><path class="cls-3" d="M86.3 106.46c-1.63.0.0 12.71-10.13 18.91-9.23 5.61-23.7 2-27.19-2.17-2.43-2.92-9.11 3.91-22.33 1.79-9.95-1.6-20-9.19-24.34-17.43 8.62 9.57 24.83 13.55 25.78-2.36 6.65 11.39 29.55 10.6 37.18-.57C81.37 111.54 93.18 93.36 95.38 78 103.16 85.87 102.14 106.46 86.3 106.46z"/><path class="cls-3" d="M31.6 107.3a31.54 31.54.0 0 1 2.82 3.2c.1.15-3.06.34-5.67 1.07-3.66 1-7 2.66-6.29 2.73 1.3.12 12.81-3.2 15.12-1.24 4.38 3.71 8.74 10.9 8.74 22.39.0 21.08-.4 52.07-.4 52.07l-5.4 2.58s-4.58 2.39 5 2.58c9.84.21 12.12.66 13.33-.79s-5.34-1.86-5.57-5.38c-.59-9.29-3.69-54-.44-63.42a16.72 16.72.0 0 1 7.27-8.49c.36-.23 7.81 1.69 8.17 1.48.78-.45-5.42-2.84-4.76-3.37 3.34-2.68 5.92-2.38 6.42-3 1.14-1.5-4.12.09-7.1 1.28s-11.22 7-11.22 7 2.45-7.6 4.77-14.66c.14-.44 7.71-5.1 7.86-5.53.26-.8-6.91 2.62-6.66 1.86 1.21-3.68 3-8.41 3.33-9.46 1.22-3.27-2.29 3.14-4.39 8.19-3.44 8.31-4 14.69-6.52 15.55s-5.53-9-7.36-14.6c-.65-2-1.31-3.76-2-5.36-.2-.51 2.53-10.31 2.33-10.78-.34-.76-3.62 7.83-4 7.17-2.75-5.63-4.9-7.52-4.12-5.39 1.78 4.87 12.62 30.1 10.59 30.83S33 104.45 26.61 103.38C23.33 102.84 31.6 107.3 31.6 107.3z"/><path class="cls-3" d="M31.6 107.3a31.54 31.54.0 0 1 2.82 3.2c.1.15-3.06.34-5.67 1.07-3.66 1-7 2.66-6.29 2.73 1.3.12 12.81-3.2 15.12-1.24 4.38 3.71 8.74 10.9 8.74 22.39.0 21.08-.4 52.07-.4 52.07l-5.4 2.58s-4.58 2.39 5 2.58c9.84.21 12.12.66 13.33-.79s-5.34-1.86-5.57-5.38c-.59-9.29-3.69-54-.44-63.42a16.72 16.72.0 0 1 7.27-8.49c.36-.23 7.81 1.69 8.17 1.48.78-.45-5.42-2.84-4.76-3.37 3.34-2.68 5.92-2.38 6.42-3 1.14-1.5-4.12.09-7.1 1.28s-11.22 7-11.22 7 2.45-7.6 4.77-14.66c.14-.44 7.71-5.1 7.86-5.53.26-.8-6.91 2.62-6.66 1.86 1.21-3.68 3-8.41 3.33-9.46 1.22-3.27-2.29 3.14-4.39 8.19-3.44 8.31-4 14.69-6.52 15.55s-5.53-9-7.36-14.6c-.65-2-1.31-3.76-2-5.36-.2-.51 2.53-10.31 2.33-10.78-.34-.76-3.62 7.83-4 7.17-2.75-5.63-4.9-7.52-4.12-5.39 1.78 4.87 12.62 30.1 10.59 30.83S33 104.45 26.61 103.38C23.33 102.84 31.6 107.3 31.6 107.3z"/><path class="cls-3" d="M181.49 136.49c-6.08 7.64-27.78 4.28-31 .34-2.28-2.77-4.89 6.07-17.23 4.06-5.51-1-15.7-4.26-17.14-8.49-10.69-27.57 11.49-86 32.77-88.34S196.23 118.05 181.49 136.49z"/><path class="cls-3" d="M185.17 127.26a20.47 20.47.0 0 1-3.68 9.23c-6.08 7.64-27.78 4.28-31 .34-2.28-2.77-4.89 6.07-17.23 4.06-4.43-.77-13.18-3.32-16.26-7.07 11.15 3.63 20.77-5 10.25-17.13 4 3.78 16 2.89 14.26-6.28-.28-1.47 12.84 4.83 17.42-8-.6.06 6.05 18 15 14.16C168.66 121.85 183.27 129.08 185.17 127.26z"/><path class="cls-3" d="M134.18 122.63s12.92 4.55 12.92 24.62-.14 27.86.0 31.86-10.21 5.95-10.21 5.95-3.23 1.12 6 1c9.68-.16 20.51.42 21.65-1S154.44 183 154.31 179c-.28-8.82-2.71-33.48.32-42.48s15.14-13.15 15.14-13.15 1.8-3.18-1.13-1.73-15.15 10-15.15 10 3.69-13.12 4.56-16.31c1.19-4.34-.13-6.51-.13-6.51l-7.08 20.39s-3.61-11.1-4.93-14.72-1.06.36-1.06.36 4.86 14 3 14.71-9.08-6.92-12.11-7.62S134.18 122.63 134.18 122.63z"/><path class="cls-3" d="M181.49 136.49c-6.08 7.64-27.78 4.28-31 .34-2.28-2.77-4.89 6.07-17.23 4.06-5.51-1-15.7-4.26-17.14-8.49-10.69-27.57 11.49-86 32.77-88.34S196.23 118.05 181.49 136.49z"/><path class="cls-3" d="M327 134.23c-2.07 2.22-4.32 4.75-8.94 1.2-2.66-2.08-4.81-6-6.39-11.09-2.89-9.42-3.9-23-2.85-36.85 1.2-15.84 16-30.45 23.7-9.09.36 1 .72 2.13 1 3.31C338.29 98.68 336.84 123.63 327 134.23z"/><path class="cls-3" d="M327 134.23c-2.07 2.22-4.32 4.75-8.94 1.2-2.66-2.08-4.81-6-6.39-11.09 7.29 7.47 18 .83 13.05-15.13 6.69-1.56 7.74-17.89 7.8-30.81.36 1 .72 2.13 1 3.31C338.29 98.68 336.84 123.63 327 134.23z"/><path class="cls-3" d="M315.78 125.87c1.06.9 4.17 3.73 4.63 5.83a31.2 31.2.0 0 1 .66 6.71c0 11.53.45 36.05.45 36.05l-3.13 1.94s-3.43 2.06 1.34 1.27 7.31.72 7.91-.08-3.34-.75-3.44-3.88c-.15-5.07-1.53-36.89.06-42.07s5.34-5.39 5.54-6.74-.9-.67-.9-.67l-5.24 4.63s2.19-6.42 2.78-8.21-.33-1.86-1.11-.07c-1.13 2.53-3.06 6.89-3.06 6.89s-1.8-5.18-2.24-6.89c-.21-.8-.87-1.84-1.12-.6s2.76 7.29 1.77 7.69-3.26-2.1-4.83-3.14C314.49 123.62 314.36 124.68 315.78 125.87z"/><path class="cls-3" d="M327 134.23c-2.07 2.22-4.32 4.75-8.94 1.2-2.66-2.08-4.81-6-6.39-11.09-2.89-9.42-3.9-23-2.85-36.85 1.2-15.84 16-30.45 23.7-9.09.36 1 .72 2.13 1 3.31C338.29 98.68 336.84 123.63 327 134.23z"/><path class="cls-3" d="M241.25 125.2s13.54 4.85 13.54 22.45-.35 26.08-.35 26.08L248 179s-3.12 1.6 5.44.39 14.28 2.57 15.35 1.36-7-3.88-7.24-5.8c-1-7.73-3.92-29.73-1.07-37.61s15.44-12.23 15.44-12.23.34-2.89-3.37-1.29-13.14 9.27-13.14 9.27 7.66-16.65 8.73-19.38-2.31-2.46-2.31-2.46L256.93 131s-3.53-14-5.35-16.73-2.49.35-2.49.35 6.78 16.08 5 16.69-11.05-9.7-13.9-10.3S241.25 125.2 241.25 125.2z"/><path class="cls-3" d="M286.85 128.11c-15.73 3.24-23.89-4.11-26-7-15.37 11.33-23.34 2.61-23.34 2.61-23 13.93-42.24-26.22-17.2-31.65-13.38-8-9-20.5.17-28.07 10.83-8.91 28.68-11.62 36.81-1.77 13.28-10.57 39.14 3.66 30 22.82 7.84-2.27 16.59 6.66 19.32 14.36C310.25 109.74 298.14 125.8 286.85 128.11z"/><path class="cls-3" d="M286.85 128.11c-15.73 3.24-23.89-4.11-26-7-15.37 11.33-23.34 2.61-23.34 2.61-18.73 11.33-35-13.15-26.82-25.58a10.22 10.22.0 0 0 2.7 8.74c6.3 7 19.59 4.74 21.74 1.76 4.54 11.1 25.46 1.47 23.14-10.5 4.41 10.83 12.3 14.46 24 12 11.23-2.39 17.16-10 18.76-19.65a25.64 25.64.0 0 1 5.62 8.91C310.25 109.74 298.14 125.8 286.85 128.11z"/></g></g></svg>