<svg xmlns="http://www.w3.org/2000/svg" viewBox="0 0 1200 300"><defs><style>.cls-1{fill:#5596ca}.cls-2{fill:none}</style></defs><title>works-b-tree-up</title><g id="圖層_2" data-name="圖層 2"><g id="作品"><path class="cls-1" d="M129.59 181.6c-1.78.0.0 13.81-11 20.54-10 6.1-25.73 2.14-29.53-2.35-2.64-3.18-9.89 4.25-24.25 1.94C54 2e2 43.1 191.75 38.35 182.8c0-.05.0-.05.0-.09-4.45-8.41-3.5-17.4 8-22.19-13.7-9.2-9.82-29.12 7-33.41-12.38-13.94 6.35-36 24.41-23.3C89.29 91 117.09 98.62 108 114.87c23.63-2.73 27.14 18.72 17.61 34.35 5.77-3.05 10.51-1.86 13.82 1.45v0C147.9 159.24 146.78 181.6 129.59 181.6z"/><path class="cls-1" d="M129.59 181.6c-1.78.0.0 13.81-11 20.54-10 6.1-25.73 2.14-29.53-2.35-2.64-3.18-9.89 4.25-24.25 1.94C54 2e2 43.1 191.75 38.35 182.8c9.37 10.39 27 14.72 28-2.56 7.22 12.37 32.09 11.51 40.37-.62 17.49 7.51 30.32-12.25 32.72-28.91C147.9 159.24 146.78 181.6 129.59 181.6z"/><path class="cls-1" d="M70.16 182.52A34 34 0 0 1 73.23 186c.11.17-3.33.37-6.16 1.17-4 1.11-7.66 2.89-6.83 3 1.41.13 13.91-3.48 16.43-1.35 4.75 4 9.49 11.85 9.49 24.32.0 22.9-.44 56.56-.44 56.56l-5.87 2.8s-5 2.6 5.41 2.81c10.69.23 13.17.72 14.49-.86s-5.81-2-6.06-5.84c-.64-10.1-4-58.63-.48-68.9 1.44-4.19 4.59-7.11 7.9-9.21.39-.26 8.48 1.84 8.88 1.61.85-.49-5.89-3.09-5.18-3.66 3.63-2.92 6.44-2.59 7-3.31 1.24-1.63-4.47.1-7.72 1.39s-12.18 7.66-12.18 7.66 2.66-8.26 5.18-15.93c.15-.47 8.38-5.53 8.53-6 .29-.88-7.5 2.85-7.22 2 1.31-4 3.19-9.13 3.61-10.27 1.33-3.55-2.49 3.41-4.77 8.89-3.73 9-4.32 16-7.08 16.89s-6-9.78-8-15.86c-.71-2.14-1.43-4.09-2.14-5.82-.22-.55 2.75-11.2 2.52-11.71-.36-.83-3.92 8.51-4.28 7.78-3-6.11-5.33-8.16-4.48-5.84 1.93 5.28 13.71 32.69 11.51 33.48S71.7 179.42 64.75 178.26C61.18 177.67 70.16 182.52 70.16 182.52z"/><path class="cls-1" d="M70.16 182.52A34 34 0 0 1 73.23 186c.11.17-3.33.37-6.16 1.17-4 1.11-7.66 2.89-6.83 3 1.41.13 13.91-3.48 16.43-1.35 4.75 4 9.49 11.85 9.49 24.32.0 22.9-.44 56.56-.44 56.56l-5.87 2.8s-5 2.6 5.41 2.81c10.69.23 13.17.72 14.49-.86s-5.81-2-6.06-5.84c-.64-10.1-4-58.63-.48-68.9 1.44-4.19 4.59-7.11 7.9-9.21.39-.26 8.48 1.84 8.88 1.61.85-.49-5.89-3.09-5.18-3.66 3.63-2.92 6.44-2.59 7-3.31 1.24-1.63-4.47.1-7.72 1.39s-12.18 7.66-12.18 7.66 2.66-8.26 5.18-15.93c.15-.47 8.38-5.53 8.53-6 .29-.88-7.5 2.85-7.22 2 1.31-4 3.19-9.13 3.61-10.27 1.33-3.55-2.49 3.41-4.77 8.89-3.73 9-4.32 16-7.08 16.89s-6-9.78-8-15.86c-.71-2.14-1.43-4.09-2.14-5.82-.22-.55 2.75-11.2 2.52-11.71-.36-.83-3.92 8.51-4.28 7.78-3-6.11-5.33-8.16-4.48-5.84 1.93 5.28 13.71 32.69 11.51 33.48S71.7 179.42 64.75 178.26C61.18 177.67 70.16 182.52 70.16 182.52z"/><path class="cls-1" d="M184.63 203.49c-5.2 6.54-23.74 3.67-26.52.3-2-2.37-4.19 5.18-14.73 3.47-4.71-.83-13.42-3.65-14.65-7.26-9.13-23.56 9.82-73.51 28-75.49S197.22 187.74 184.63 203.49z"/><path class="cls-1" d="M187.77 195.61a17.45 17.45.0 0 1-3.14 7.88c-5.2 6.54-23.74 3.67-26.52.3-2-2.37-4.19 5.18-14.73 3.47-3.78-.67-11.26-2.84-13.89-6 9.53 3.1 17.75-4.25 8.76-14.65 3.43 3.24 13.68 2.48 12.18-5.36-.24-1.25 11 4.13 14.88-6.87-.51.0 5.17 15.4 12.79 12.1C173.66 191 186.15 197.16 187.77 195.61z"/><path class="cls-1" d="M144.21 191.65s11 3.89 11 21-.12 23.81.0 27.22-8.72 5.09-8.72 5.09-2.76.95 5.11.82c8.27-.14 17.52.36 18.5-.82s-8.62-1.76-8.73-5.23c-.23-7.53-2.31-28.6.27-36.29s12.94-11.24 12.94-11.24 1.54-2.72-1-1.48-12.94 8.58-12.94 8.58 3.15-11.21 3.9-13.93c1-3.71-.12-5.57-.12-5.57l-6 17.43s-3.09-9.49-4.22-12.58-.9.3-.9.3 4.15 12 2.53 12.57-7.76-5.91-10.35-6.5S144.21 191.65 144.21 191.65z"/><path class="cls-1" d="M184.63 203.49c-5.2 6.54-23.74 3.67-26.52.3-2-2.37-4.19 5.18-14.73 3.47-4.71-.83-13.42-3.65-14.65-7.26-9.13-23.56 9.82-73.51 28-75.49S197.22 187.74 184.63 203.49z"/><path class="cls-1" d="M308.93 201.56c-1.77 1.9-3.69 4.07-7.64 1-2.27-1.78-4.11-5.11-5.46-9.48-2.47-8-3.33-19.62-2.43-31.48 1-13.54 13.66-26 20.25-7.77.31.88.61 1.82.89 2.83C318.6 171.18 317.37 192.51 308.93 201.56z"/><path class="cls-1" d="M308.93 201.56c-1.77 1.9-3.69 4.07-7.64 1-2.27-1.78-4.11-5.11-5.46-9.48 6.23 6.39 15.41.72 11.15-12.92 5.72-1.33 6.62-15.29 6.67-26.33.31.88.61 1.82.89 2.83C318.6 171.18 317.37 192.51 308.93 201.56z"/><path class="cls-1" d="M299.37 194.42c.91.77 3.57 3.19 4 5a26.59 26.59.0 0 1 .56 5.73c0 9.86.39 30.81.39 30.81l-2.68 1.66s-2.93 1.76 1.15 1.08 6.24.61 6.75-.06-2.85-.65-2.93-3.32c-.13-4.33-1.32-31.53.0-36s4.57-4.61 4.74-5.76-.77-.57-.77-.57L306.1 197s1.87-5.48 2.38-7-.28-1.59-1-.06l-2.62 5.89s-1.53-4.43-1.91-5.89c-.18-.69-.74-1.57-1-.51s2.37 6.23 1.51 6.56-2.78-1.78-4.12-2.67C298.26 192.5 298.16 193.4 299.37 194.42z"/><path class="cls-1" d="M308.93 201.56c-1.77 1.9-3.69 4.07-7.64 1-2.27-1.78-4.11-5.11-5.46-9.48-2.47-8-3.33-19.62-2.43-31.48 1-13.54 13.66-26 20.25-7.77.31.88.61 1.82.89 2.83C318.6 171.18 317.37 192.51 308.93 201.56z"/><path class="cls-1" d="M235.68 193.85S247.26 198 247.26 213s-.3 22.29-.3 22.29l-5.49 4.5s-2.66 1.37 4.65.33 12.2 2.2 13.12 1.16-6-3.32-6.19-4.95c-.85-6.61-3.35-25.4-.91-32.14s13.18-10.45 13.18-10.45.3-2.47-2.87-1.1-11.23 7.92-11.23 7.92 6.55-14.22 7.46-16.56-2-2.1-2-2.1l-7.62 16.84s-3-11.93-4.57-14.29-2.13.3-2.13.3 5.79 13.74 4.26 14.25-9.44-8.28-11.88-8.8S235.68 193.85 235.68 193.85z"/><path class="cls-1" d="M274.65 196.34c-13.44 2.76-20.41-3.51-22.2-5.94-13.13 9.68-19.94 2.23-19.94 2.23-19.68 11.9-36.09-22.41-14.69-27-11.44-6.83-7.7-17.52.13-24 9.26-7.62 24.52-9.93 31.46-1.51 11.35-9 33.44 3.12 25.63 19.49 6.7-1.94 14.18 5.7 16.51 12.27C294.65 180.64 284.3 194.36 274.65 196.34z"/><path class="cls-1" d="M274.65 196.34c-13.44 2.76-20.41-3.51-22.2-5.94-13.13 9.68-19.94 2.23-19.94 2.23-16 9.68-29.89-11.24-22.92-21.86a8.76 8.76.0 0 0 2.31 7.47c5.38 6 16.74 4 18.58 1.5 3.87 9.49 21.75 1.26 19.77-9C254 180 260.76 183.12 270.72 181c9.59-2 14.67-8.53 16-16.79a21.94 21.94.0 0 1 4.8 7.61C294.65 180.64 284.3 194.36 274.65 196.34z"/><path class="cls-1" d="M902.06 217.08c-9 .2-12.22-4.86-13-11-1.72-12.94 7.92-45.72 11.45-45.86 2.89-.11 11.94 24.52 13.74 35.91C915.52 204.36 914.63 216.8 902.06 217.08z"/><path class="cls-1" d="M902.06 217.08c-9 .2-12.22-4.86-13-11a8.37 8.37.0 0 0 7.63 4.35c9.08-.16 14.06-11.11 16.08-21.06.65 2.48 1.17 4.8 1.48 6.76C915.52 204.36 914.63 216.8 902.06 217.08z"/><path class="cls-1" d="M895.19 211c-.31.67 5.4 2.48 5.4 11s.42 13.43.42 13.43-3.75 1.14-3.68 1.58a11.24 11.24.0 0 0 2.74-.06c3.4-.31 5.25.31 5.62-.31s-2.74-.54-2.87-1.3c-.52-3.2-1.06-14.52.11-18.33s5.49-6.13 4.8-6.44-5.24 4.38-5.24 4.38 3-9.88 2.65-10.06-3.67 9-3.67 9-2.72-8.29-3.23-7.92 2.79 7.78 2 8.07S895.5 210.36 895.19 211z"/><path class="cls-1" d="M1078.39 183.46c-1.29.0.0 10-8 14.87-7.25 4.42-18.63 1.55-21.38-1.7-1.91-2.3-7.16 3.08-17.56 1.4-7.82-1.25-15.7-7.22-19.14-13.7.0.0.0.0.0-.06-3.22-6.1-2.53-12.61 5.77-16.07-9.92-6.66-7.11-21.08 5.07-24.19-9-10.09 4.6-26 17.68-16.87 8.39-9.29 28.52-3.76 22 8 17.11-2 19.65 13.56 12.75 24.88 4.18-2.21 7.62-1.35 10 1v0C1091.65 167.27 1090.84 183.46 1078.39 183.46z"/><path class="cls-1" d="M1078.39 183.46c-1.29.0.0 10-8 14.87-7.25 4.42-18.63 1.55-21.38-1.7-1.91-2.3-7.16 3.08-17.56 1.4-7.82-1.25-15.7-7.22-19.14-13.7 6.78 7.52 19.53 10.66 20.28-1.86 5.22 9 23.23 8.34 29.23-.44 12.66 5.43 22-8.87 23.69-20.94C1091.65 167.27 1090.84 183.46 1078.39 183.46z"/><path class="cls-1" d="M1035.36 184.13a24.54 24.54.0 0 1 2.22 2.51c.08.12-2.41.27-4.46.85-2.87.8-5.54 2.09-4.94 2.14 1 .1 10.07-2.52 11.89-1 3.44 2.92 6.87 8.58 6.87 17.61.0 16.58-.31 41-.31 41l-4.25 2s-3.6 1.88 3.92 2c7.73.16 9.53.51 10.48-.63s-4.2-1.46-4.38-4.23c-.47-7.31-2.91-42.45-.35-49.88a13.14 13.14.0 0 1 5.72-6.67c.28-.19 6.14 1.33 6.43 1.16.61-.35-4.26-2.23-3.75-2.65 2.63-2.11 4.66-1.87 5-2.39.9-1.18-3.24.07-5.58 1s-8.83 5.54-8.83 5.54 1.93-6 3.75-11.53c.12-.35 6.07-4 6.18-4.35.21-.63-5.43 2.06-5.23 1.47 1-2.9 2.32-6.62 2.62-7.44 1-2.57-1.81 2.47-3.45 6.44-2.71 6.53-3.14 11.55-5.13 12.22s-4.35-7.07-5.79-11.48c-.51-1.55-1-3-1.55-4.21-.16-.4 2-8.11 1.83-8.48-.27-.6-2.84 6.16-3.1 5.64-2.16-4.43-3.86-5.91-3.25-4.24 1.4 3.83 9.93 23.67 8.34 24.24s-9.83-8.93-14.87-9.77C1028.86 180.62 1035.36 184.13 1035.36 184.13z"/><path class="cls-1" d="M1035.36 184.13a24.54 24.54.0 0 1 2.22 2.51c.08.12-2.41.27-4.46.85-2.87.8-5.54 2.09-4.94 2.14 1 .1 10.07-2.52 11.89-1 3.44 2.92 6.87 8.58 6.87 17.61.0 16.58-.31 41-.31 41l-4.25 2s-3.6 1.88 3.92 2c7.73.16 9.53.51 10.48-.63s-4.2-1.46-4.38-4.23c-.47-7.31-2.91-42.45-.35-49.88a13.14 13.14.0 0 1 5.72-6.67c.28-.19 6.14 1.33 6.43 1.16.61-.35-4.26-2.23-3.75-2.65 2.63-2.11 4.66-1.87 5-2.39.9-1.18-3.24.07-5.58 1s-8.83 5.54-8.83 5.54 1.93-6 3.75-11.53c.12-.35 6.07-4 6.18-4.35.21-.63-5.43 2.06-5.23 1.47 1-2.9 2.32-6.62 2.62-7.44 1-2.57-1.81 2.47-3.45 6.44-2.71 6.53-3.14 11.55-5.13 12.22s-4.35-7.07-5.79-11.48c-.51-1.55-1-3-1.55-4.21-.16-.4 2-8.11 1.83-8.48-.27-.6-2.84 6.16-3.1 5.64-2.16-4.43-3.86-5.91-3.25-4.24 1.4 3.83 9.93 23.67 8.34 24.24s-9.83-8.93-14.87-9.77C1028.86 180.62 1035.36 184.13 1035.36 184.13z"/><path class="cls-1" d="M1134.06 203.45c-6 7.55-27.45 4.23-30.67.34-2.25-2.74-4.84 6-17 4-5.44-1-15.52-4.21-16.94-8.39-10.56-27.24 11.35-85 32.38-87.29S1148.62 185.23 1134.06 203.45z"/><path class="cls-1" d="M1137.69 194.33a20.14 20.14.0 0 1-3.63 9.12c-6 7.55-27.45 4.23-30.67.34-2.25-2.74-4.84 6-17 4-4.38-.76-13-3.28-16.06-7 11 3.58 20.52-4.92 10.13-16.94 4 3.74 15.81 2.87 14.08-6.19-.28-1.46 12.69 4.76 17.21-7.95-.59.06 6 17.8 14.79 14C1121.38 189 1135.82 196.13 1137.69 194.33z"/><path class="cls-1" d="M1087.31 189.75s12.76 4.5 12.76 24.34-.14 27.53.0 31.47-10.09 5.88-10.09 5.88-3.18 1.11 5.92 1c9.56-.16 20.26.41 21.39-1s-10-2-10.09-6c-.27-8.71-2.68-33.07.31-42s15-13 15-13 1.77-3.15-1.12-1.71-15 9.92-15 9.92 3.64-13 4.5-16.12c1.18-4.29-.13-6.43-.13-6.43l-7 20.15s-3.57-11-4.87-14.55-1.05.36-1.05.36 4.8 13.85 2.93 14.53-9-6.84-12-7.52S1087.31 189.75 1087.31 189.75z"/><path class="cls-1" d="M1134.06 203.45c-6 7.55-27.45 4.23-30.67.34-2.25-2.74-4.84 6-17 4-5.44-1-15.52-4.21-16.94-8.39-10.56-27.24 11.35-85 32.38-87.29S1148.62 185.23 1134.06 203.45z"/><path class="cls-1" d="M931.18 198.35s10.54 3.77 10.54 17.45-.28 20.28-.28 20.28l-5 4.1s-2.43 1.24 4.23.3 11.1 2 11.93 1.06-5.44-3-5.63-4.51c-.77-6-3.05-23.12-.83-29.25s12-9.5 12-9.5.27-2.25-2.62-1-10.21 7.21-10.21 7.21 6-12.94 6.79-15.07-1.8-1.91-1.8-1.91l-6.93 15.33s-2.75-10.86-4.16-13-1.94.27-1.94.27 5.27 12.5 3.88 13-8.59-7.53-10.81-8S931.18 198.35 931.18 198.35z"/><path class="cls-1" d="M966.64 200.61c-12.23 2.52-18.58-3.19-20.2-5.4-12 8.8-18.14 2-18.14 2-17.92 10.83-32.85-20.4-13.38-24.62-10.4-6.21-7-15.93.13-21.82 8.42-6.93 22.3-9 28.62-1.37 10.33-8.22 30.43 2.84 23.32 17.74 6.1-1.77 12.91 5.18 15 11.16C984.83 186.33 975.42 198.81 966.64 200.61z"/><path class="cls-1" d="M966.64 200.61c-12.23 2.52-18.58-3.19-20.2-5.4-12 8.8-18.14 2-18.14 2-14.57 8.8-27.21-10.23-20.86-19.9a8 8 0 0 0 2.1 6.8c4.9 5.48 15.23 3.68 16.9 1.37 3.53 8.63 19.8 1.15 18-8.17 3.43 8.43 9.57 11.25 18.63 9.34 8.73-1.85 13.35-7.76 14.59-15.27a20 20 0 0 1 4.37 6.92C984.83 186.33 975.42 198.81 966.64 200.61z"/><path class="cls-2" d="M0 0h12e2v3e2H0z"/></g></g></svg>