<svg xmlns="http://www.w3.org/2000/svg" viewBox="0 0 1400 325.27"><defs><style>.cls-1{fill:#c6e9ff;opacity:.44}.cls-2{fill:#fff}.cls-3{fill:#d1e7ff}.cls-4{fill:none}</style></defs><title>home-cloud01</title><g id="圖層_2" data-name="圖層 2"><g id="首頁"><path class="cls-1" d="M1037.54 194.31a3.86 3.86.0 0 0-3.65-2.58 4.4 4.4.0 0 0-.51.05 4.47 4.47.0 0 0-4.36-3.53 4.61 4.61.0 0 0-.91.1 6.72 6.72.0 0 0-12.19-2.75 8.59 8.59.0 0 0-11.73 2.83 4.76 4.76.0 0 0-.91.27 5.25 5.25.0 0 0-4.3-2.24 4.87 4.87.0 0 0-1.27.18 10.57 10.57.0 0 0-20.58-.68 5.5 5.5.0 0 0-1.58-.25 5.58 5.58.0 0 0-5.58 5.57 8.59 8.59.0 0 0 2.35 16.87h63a7.17 7.17.0 0 0 2.19-13.83z"/><path class="cls-2" d="M1036.22 196.06a2.06 2.06.0 0 0-.21.59A1.55 1.55.0 0 0 1036.22 196.06z"/><path class="cls-3" d="M1037.54 194.31a3.86 3.86.0 0 0-3.65-2.58 4.4 4.4.0 0 0-.51.05 4.47 4.47.0 0 0-4.36-3.53 4.61 4.61.0 0 0-.91.1 6.72 6.72.0 0 0-12.19-2.75 8.58 8.58.0 0 0-11.72 2.83 4.65 4.65.0 0 0-.92.27 5.25 5.25.0 0 0-4.3-2.24 4.87 4.87.0 0 0-1.27.18 10.57 10.57.0 0 0-20.58-.68 5.5 5.5.0 0 0-1.58-.25 5.58 5.58.0 0 0-5.58 5.57 8.6 8.6.0 0 0-6.12 6.61c.08-.15.15-.29.24-.44a10 10 0 0 1 5.12-4.42 6.14 6.14.0 0 1 3.59-.13c.31-2.74 4.09-4.74 6.28-3.07-1.29-4.6 5.23-7.94 9-7.73 3.32.18 6.24 1.94 7.26 5a5.82 5.82.0 0 0-8.08 3.35s-5.9-1.43-7.71 4.5c0 0 3.52-4.11 7.94-1.79.0.0 2.52-4.27 7.91-.9l.06-.22c1.23-3.75 7.45-2.81 7 1.3.89-2.52 5.83-1.2 5.47 1.77 1.13-1.91 6.1-.77 7.22.87a8.3 8.3.0 0 0-6-4.36 4.23 4.23.0 0 0-.83-1.67c3-1.64 7.1-1.4 8.39.08.62-2.1 6.89-3.62 9.25.0 1.53-1.29 6.29-.19 5.51 3.83 2.1-2.23 5 .37 4.77 2.21a2.33 2.33.0 0 1 3-.8A7 7 0 0 0 1037.54 194.31z"/><path class="cls-1" d="M64.3 170.16a6.34 6.34.0 0 0-1.81.26 4.85 4.85.0 0 0-4.7-3.67 4.94 4.94.0 0 0-2 .44 9.58 9.58.0 0 0-17.17-1.1 5.91 5.91.0 0 0-8.53 5.29v.11a6.25 6.25.0 0 0-1.16-.11 5.9 5.9.0 0 0 0 11.8H64.3a6.51 6.51.0 0 0 0-13z"/><path class="cls-3" d="M70.8 176.67a6.5 6.5.0 0 0-6.5-6.51 6.34 6.34.0 0 0-1.81.26 4.85 4.85.0 0 0-4.7-3.67 4.94 4.94.0 0 0-2 .44 9.58 9.58.0 0 0-17.17-1.1 5.91 5.91.0 0 0-8.53 5.29v.11a6.25 6.25.0 0 0-1.16-.11 5.9 5.9.0 0 0-5.9 5.9c0 .11 2.88-5.8 9.06-2.85A6.71 6.71.0 0 1 39 171.66a7.77 7.77.0 0 0-6-1.22 5.12 5.12.0 0 1 7-1.29c1.8-5.94 11.58-5.58 14.28 1 1.68-2.46 7.75-.24 6.91 3.26 2.64-2.23 9.69.41 8.68 6.72A6.47 6.47.0 0 0 70.8 176.67z"/><path class="cls-3" d="M70.15 195.77h.32c0-.17-.08-.3-.1-.37S70.26 195.61 70.15 195.77z"/><path class="cls-3" d="M57.17 195.77h.07l-.06-.09S57.17 195.74 57.17 195.77z"/><path class="cls-3" d="M154 193.92a3.25 3.25.0 0 0 .47-1.7c-.09-2.08-2.65-3.68-4.43-4.3-4.3-1.47-8.19 1.41-8.46 1.6a3.32 3.32.0 0 0-.68-3.86 4.16 4.16.0 0 0-3.52-1 11.24 11.24.0 0 0 1.39-8.3 12.48 12.48.0 0 0-5.07-7.09c-4.55-3-11.26-2.76-16.9.57a10.57 10.57.0 0 0-10.92-5.44 9.82 9.82.0 0 0-8.3 10.43 13.07 13.07.0 0 0-6.68.61 9 9 0 0 0-4.71 3.37 6.48 6.48.0 0 0-1 2.91 7.69 7.69.0 0 0-2.32.83c-.07-1.51-.48-5.28-3.47-7.64-4.36-3.46-12.83-2.8-19.34 3a8.44 8.44.0 0 0-7.77-3.24c-2.25.32-5.36 1.73-6.11 4.72a6.17 6.17.0 0 0 2.49 6.31 10.4 10.4.0 0 0-8-1.34c-3.57 1-6.74 4.36-6.37 8.54.64 7.34 4.69 9.22 5.43 10h3.33c-4.21-3-4.07-9.18-3.72-10.24 1.13-3.4 4.78-4.7 5-4.75a9 9 0 0 1 8.47 1.58 4.9 4.9.0 0 1 2.82-6.5 5.21 5.21.0 0 1 4.57.93 6.59 6.59.0 0 0-3.94 4.35 8.78 8.78.0 0 1 6.12-2.39 8.66 8.66.0 0 1 5.93 2.52 6.8 6.8.0 0 0-3.9-4.28 6.56 6.56.0 0 0-2.45-.49c4.81-3.43 10.5-3.66 13.56-1.2a7.74 7.74.0 0 1 2.65 5.58c3.23-2.51 7.2-2.52 9.55-1.15a7.52 7.52.0 0 1 2.71-7.59A8.66 8.66.0 0 1 96.17 178a8.93 8.93.0 0 1 3.79 1.31h-.1a6.41 6.41.0 0 0-4.2 4.44 8.64 8.64.0 0 1 6.1-2.39 6.08 6.08.0 0 1 .61.0 3.35 3.35.0 0 1 .25.34l-.15-.33a8.64 8.64.0 0 1 5.22 2.48 6.76 6.76.0 0 0-3.88-4.29 7.27 7.27.0 0 0-2.07-.47 6.64 6.64.0 0 1 1.57-5.7 7.31 7.31.0 0 1 4.31-2.14c4-.48 6.65 2.57 7 2.94a7.83 7.83.0 0 1 1.69 6.38 6.83 6.83.0 0 0 2.24-4.09 6.38 6.38.0 0 0-.59-3.63c.85-.14 6.63-1 10.81 2.52 3.13 2.64 3.82 6.4 4.11 8a16.19 16.19.0 0 1 .21 3.6 5.22 5.22.0 0 1 5.88.52 4.31 4.31.0 0 1 .83 5.69c4.7-3.7 9.94-4.42 12.5-2.44a4.9 4.9.0 0 1 1.77 3.1"/><path class="cls-3" d="M153.81 194.27a6 6 0 0 1-.89 1A4.93 4.93.0 0 0 153.81 194.27z"/><path class="cls-1" d="M153.75 193a4.56 4.56.0 0 0-1.49-2.13c-2.56-2-7.8-1.26-12.5 2.44a4.31 4.31.0 0 0-.83-5.69 5.22 5.22.0 0 0-5.88-.52 16.19 16.19.0 0 0-.21-3.6c-.29-1.61-1-5.37-4.11-8-4.18-3.51-10-2.66-10.81-2.52a6.38 6.38.0 0 1 .59 3.63 6.83 6.83.0 0 1-2.24 4.09 7.83 7.83.0 0 0-1.69-6.38c-.31-.37-3-3.42-7-2.94a7.31 7.31.0 0 0-4.31 2.14 6.64 6.64.0 0 0-1.57 5.7 7.27 7.27.0 0 1 2.07.47 6.76 6.76.0 0 1 3.88 4.29 8.64 8.64.0 0 0-5.22-2.48l.15.33a3.35 3.35.0 0 0-.25-.34 6.08 6.08.0 0 0-.61.0 8.64 8.64.0 0 0-6.1 2.39 6.41 6.41.0 0 1 4.2-4.44h.1A8.93 8.93.0 0 0 96.17 178a8.66 8.66.0 0 0-5.74 1.32 7.52 7.52.0 0 0-2.71 7.59c-2.35-1.37-6.32-1.36-9.56 1.15a7.68 7.68.0 0 0-2.64-5.58c-3.06-2.46-8.75-2.23-13.56 1.2a6.56 6.56.0 0 1 2.45.49 6.8 6.8.0 0 1 3.9 4.28 8.62 8.62.0 0 0-12.05-.13A6.59 6.59.0 0 1 60.2 184a5.21 5.21.0 0 0-4.57-.93 4.9 4.9.0 0 0-2.82 6.5A9 9 0 0 0 44.34 188c-.17.05-3.82 1.35-5 4.75.0.0-2.6 7.54 3.72 10.24H150.18S157.62 199.79 153.75 193z"/><path class="cls-4" d="M0 0h14e2v325.27H0z"/></g></g></svg>