<svg xmlns="http://www.w3.org/2000/svg" viewBox="0 0 1920 423.04"><defs><style>.cls-1{fill:#86b2d4}.cls-2{fill:#fff;opacity:.3}.cls-3{fill:#5596ca;opacity:.4}.cls-4{fill:none}</style></defs><title>資產 213</title><g id="圖層_2" data-name="圖層 2"><g id="首頁"><path class="cls-1" d="M1350.45 374.17h1.94v2.82H1350.45z"/><path class="cls-1" d="M1350.45 367.92h1.94v2.82H1350.45z"/><path class="cls-2" d="M1191 272.12a3.45 3.45.0 0 1-.46-.12c-.6-.23-7.41-3-9.82-3.92v0c-1-1-2.67-1.12-4-1.6a45.18 45.18.0 0 0-5.62-1.75 5.85 5.85.0 0 0-3.21.0c-2.42.3-3.54 1.76-5 3-1.47.54-2.9 1.32-4.32 1.84-2.78 1-5.6 1.95-8.37 3-2.45.89-4.71 2-7.06 3.14-1.12.53-2.23 1-3.36 1.51-.29.12-.88.7-1.22.74a0 0 0 1 0 0 0c.66.07 1.1-.42 1.73-.6 1.06-.3 2.07-.69 3.11-1.07 2.61-1 5.11-2.17 7.75-3.07 1.94-.66 3.9-1.28 5.84-1.94a5.42 5.42.0 0 1 1.33.34c.4.39-1.18 1.58-2 2.37 3.47 1.16 6.2-1.46 9.64-1.2l-.35.36a19.65 19.65.0 0 1-2.48 2.68 25.12 25.12.0 0 1-2.84 1.85c-.53.3-1 .5-1.18 1.1.0.14.09.24.22.22a14.43 14.43.0 0 0 5.14-1.9v0c.81-.21 1.6-.57 2.09-.33.79 1.19-.79 2.77-.79 4.35 4-.4 7.11-6.71 10.27-3.95 2.37 2 5.54 2.37 7.91 3.55-2.22-2.95-5.47-4.87-7.17-8.33.42.21.87.42 1.33.63a50.64 50.64.0 0 0 5.78 2.46c.23.07.32-.23.15-.35-1.48-1.13-3-2.41-4.67-3.55a7.39 7.39.0 0 0-1.35-1.91 50.71 50.71.0 0 1 10.43 2 11.73 11.73.0 0 0 1.76.91l.6.2c1.81.17 4 1.31 5.65 1.62A37 37 0 0 0 1191 272.12z"/><path class="cls-3" d="M1777 421.94V320.31h-.49V294.22l-36.37.4-2.45-7.5v-.09a58.39 58.39.0 0 0 8-3.72l1.16 1.41 1.61 1.94-.88-2.36-.64-1.71a58.35 58.35.0 0 0 7.19-5l1.4 1.19 1.92 1.64-1.28-2.18-.93-1.58a58.73 58.73.0 0 0 6.21-6.21l1.58.93 2.18 1.28-1.64-1.92-1.19-1.4a59.12 59.12.0 0 0 5.05-7.19l1.71.64.93.34a2.13 2.13.0 1 0 .26-.44l-.77-.63-1.41-1.16a58.39 58.39.0 0 0 3.72-8l1.79.33 1 .18a2.1 2.1.0 1 0 .17-.47l-.87-.5-1.58-.89a57.67 57.67.0 0 0 2.27-8.49h2.82a2.12 2.12.0 1 0 .09-.5l-.94-.34-1.72-.61a58.57 58.57.0 0 0 .76-8.75l1.81-.3 1-.17a2.11 2.11.0 1 0 0-.51l-1-.16-1.81-.31a58.68 58.68.0 0 0-.76-8.75l1.72-.61.94-.34a2.09 2.09.0 1 0-.09-.5h-1-1.83a57 57 0 0 0-2.27-8.49l1.58-.9.87-.49a2.12 2.12.0 0 0 2.6 1 2.11 2.11.0 1 0-2.77-1.5l-1 .18-1.79.33a57.72 57.72.0 0 0-3.72-8l1.41-1.17.77-.63a2.08 2.08.0 1 0-.26-.44l-.93.35-1.71.63a59.12 59.12.0 0 0-5.05-7.19l1.19-1.39.65-.76a2.11 2.11.0 0 0 3-2.9 2.11 2.11.0 0 0-3.38 2.51l-.86.5-1.58.93a58.73 58.73.0 0 0-6.21-6.21l.93-1.58.5-.86a2.08 2.08.0 1 0-.39-.32l-.75.64-1.4 1.19a59 59 0 0 0-7.19-5l.64-1.71.34-.94a2.09 2.09.0 1 0-.44-.25l-.63.77-1.16 1.4a59.61 59.61.0 0 0-8-3.72l.33-1.78.18-1a2.1 2.1.0 1 0-.47-.17l-.5.87-.89 1.58a58.94 58.94.0 0 0-8.49-2.27v-2.82a2.12 2.12.0 1 0-.5-.09l-.34.94-.61 1.72a59.92 59.92.0 0 0-8.75-.76l-.3-1.81-.17-1a2.11 2.11.0 1 0-.51.0l-.16 1-.31 1.81a60 60 0 0 0-8.75.76l-.61-1.72-.33-.94a2.1 2.1.0 1 0-.5.09v1 1.82a58.25 58.25.0 0 0-8.49 2.27l-.9-1.58-.49-.87a2.13 2.13.0 1 0-.48.17l.18 1 .33 1.79a58.91 58.91.0 0 0-8 3.72l-1.17-1.4-.63-.77a2.12 2.12.0 1 0-.44.25l.35.94.64 1.71a58.39 58.39.0 0 0-7.2 5l-1.39-1.19-.76-.64a2.13 2.13.0 1 0-.39.32l.5.86.93 1.58a58.73 58.73.0 0 0-6.21 6.21l-1.58-.93-.86-.5a2.08 2.08.0 1 0-.32.39l.64.76 1.19 1.39a59 59 0 0 0-5 7.19l-1.71-.63-.94-.35a2.09 2.09.0 1 0-.25.44l.77.63 1.4 1.17a58.91 58.91.0 0 0-3.72 8l-1.78-.33-1-.18a2.08 2.08.0 1 0-.17.48l.87.49 1.58.9a58.25 58.25.0 0 0-2.27 8.49h-1.82-1a2.12 2.12.0 1 0-.09.5l.94.34 1.72.61a58.68 58.68.0 0 0-.75 8.75l-1.82.31-1 .16a2.12 2.12.0 1 0 0 .51l1 .17 1.82.3a58.57 58.57.0 0 0 .75 8.75l-1.72.61-.94.34a2.1 2.1.0 1 0 .09.5h2.82a58.94 58.94.0 0 0 2.27 8.49l-1.58.89-.87.5a2.11 2.11.0 1 0 .17.47l1-.18 1.78-.33a59.61 59.61.0 0 0 3.72 8l-1.4 1.16-.77.63a2.13 2.13.0 1 0 .25.44l.94-.34 1.71-.64a59 59 0 0 0 5 7.19l-1.19 1.4-.64.75a2.13 2.13.0 1 0 .32.39l.86-.5 1.58-.93a58.73 58.73.0 0 0 6.21 6.21l-.93 1.58-1.28 2.18 1.93-1.64 1.39-1.19a59.12 59.12.0 0 0 7.19 5l-.63 1.71-.89 2.36 1.61-1.94 1.17-1.41a58.91 58.91.0 0 0 8 3.72v.09l-2.62 8-24.44.26v24.8h-16.29v7.3h-12.23V281.72h-23.73v8.41h-1.56V261.42h-5.65V241.9h-8.73V174.56h-3.88V241.9h-3.8V152.53h-9.93V136H1565V112.5h-2.63V136h-19.08v16.54h-9.93V285.78h-.47V305.3h-8.64V301h-.51V285.34h-1.84V301h-9.26V247.75H1515v-10h-44.14v10h-2.32V231.81h-1.79v15.95h-4.21V258l-43.4-.75H1414V231H1399.1v-43.3h-3.88V298.15H1385.1v19.52h-5.64V342h-2.66V320.18h-39.86V342h-5.89v19.53h-8.65v-4.3h-.51V341.59h-1.84v15.66h-9.53v-22.5H13e2V394h-2.84v-52.5h2.56v-10h-18.57c-5.63-3.67-12.31-12.76-20.51-17l-.89-.46-.14-.07c-1-.51-2.08-1.1-3.3-1.77h0l-2.49-1.37-.29-.17-1-.55-.77-.43-.6-.34-1-.54h-.07l-4.31-2.47h0c-11-6.33-23.51-13.89-26.54-16.43-4.68-3.92-18.91-14.09-26.13-16.71s-18.49-7.84-23.58-8.4-5.74 2.8-8.93 4.29a142.57 142.57.0 0 1-15.3 6c-4.88 1.49-19.12 10.08-31.23 16.66-1 .56-2.23 1.17-3.53 1.81l-.72.34-.67.33-.77.36-.7.33-.81.38-.7.32-.89.4-.64.29-1 .44-.51.22c-1.35.6-2.74 1.21-4.16 1.82l-.16.06-2.49-.58L1010.1 196.7c-.82-1.95-1.66-3.91-2.51-5.9l-1.41.28v-3.85h-.66v4l-.8.16v-3.31h-.66v3.44l-1 .21-1.76 4.08.55 3.33-131 87.18c-25 1.58-51 3.81-78.08 6.54V224.49h-3.33v-2.12h-3.86v-14H782.9v-8.85h-.78v-1.43H764.27v1.43h-.79v8.85h-3.42v14H756.2v2.12h-3.33V231l-.47-7.68-6.86-.08v-.33h3.91v-3.12h-3.91V209.7h3.91v-3.1h-3.91v-7.8h3.91v-3.15h-3.91v-8.54h3.91V184h-3.91v-7h3.91v-3.14h-3.91v-11h3.91v-3.14h-3.91v-4.25h.39a3.12 3.12.0 1 0 0-6.23h-.39v-7.07H744v-9.49H712.62a8.45 8.45.0 0 0-3.3-1.26V128.8h-5.06v-2.33h-3.11V110.9h-1.57v15.57h-3.11v2.33h-5.06v2.67a8.47 8.47.0 0 0-3.33 1.26h-9.54v9.49H677v7.07h-.35a3.12 3.12.0 1 0 0 6.23H677v4.25h-3.88v3.14H677v11h-3.88V177H677v7h-3.88v3.12H677v8.54h-3.88v3.15H677v7.8h-3.88v3.1H677v10.09h-3.88v2.7l-31.35-.33V195.4H637.9V230l-2.07 2.4V164.86h-6.09V154.73H605.19v10.13H599.1V274h-.8v-2.79l-9.43-54.5H572l-8.84 53.54H547.26v13.46h-5.08V245.32h-3V183.91h-7V172.27H519.27V155.72h-1.85v16.55H504v11.64h-7V307.22h-.3v-6.29h-7.87V278.84h2.28V273.7H460V260.39h-3.71v-8h-1.82v8H454v2.21h-18.1v-9.17h-7V237.58H400.52v12.2h-2.91v-9.73H392V230h-8v32.32h-8.3v30.47h-21V199.6H348v-9.32H320.86v9.32h-6.73v68.81h-1.22V245.1H307.4V229.26h-8.53V174.58h-3.79v54.68h-9.89V245.1h-5.51v19.78H253.19v-6.17h-5.1V248.63h-2.5v10.08h-.69v2.76H233.16V248.91h-21.6V225.85h-4.65v23.06H195.6v26h-5.9v16.28h-6.58v21.18h-4V253.43h-7V237.58H143.8v12.28h-7V422.39zM335.91 204.6H342v4.7h-6.1zM323.22 291h-4.94v-4.7h4.94zm0-9.08h-4.94v-4.7h4.94zm0-9.07h-4.94v-4.43h-1.15v-.28h6.09zm0-9.08h-6.09v-4.7h6.09zm0-9.08h-6.09V250h6.09zm0-9.07h-6.09v-4.7h6.09zm0-9.08h-6.09v-4.7h6.09zm0-9.08h-6.09v-4.7h6.09zm0-9.07h-6.09v-4.7h6.09zm0-9.08h-6.09v-4.7h6.09zm9.4 81.69h-6.1v-4.7h6.1zm0-9.08h-6.1v-4.7h6.1zm0-9.07h-6.1v-4.71h6.1zm0-9.08h-6.1v-4.7h6.1zm0-9.08h-6.1V250h6.1zm0-9.07h-6.1v-4.7h6.1zm0-9.08h-6.1v-4.7h6.1zm0-9.08h-6.1v-4.7h6.1zm0-9.07h-6.1v-4.7h6.1zm0-9.08h-6.1v-4.7h6.1zM342 291h-6.1v-4.7H342zm0-9.08h-6.1v-4.7H342zm.27-8.73h-6.63v-5.39h6.63zM342 231.83v4.7h-6.1v-4.7zm-6.1-4.38v-4.7H342v4.7zm6.1 13.46v4.7h-6.1v-4.7zm0 9.07v4.7h-6.1V250zm0 9.08v4.7h-6.1v-4.7zm.27-40.34h-6.63v-5.39h6.63zM351.41 291h-6.1v-4.7h6.1zm0-9.08h-6.1v-4.7h6.1zm0-9.07h-6.1v-4.71h6.1zm0-9.08h-6.1v-4.7h6.1zm0-9.08h-6.1V250h6.1zm0-9.07h-6.1v-4.7h6.1zm0-9.08h-6.1v-4.7h6.1zm0-9.08h-6.1v-4.7h6.1zm0-9.07h-6.1v-4.7h6.1zm0-9.08h-6.1v-4.7h6.1zM446 363.47h-3.9v-1.32H446zm41.33-46.24h-1.43v-.74h1.43zm0-2.78h-1.43v-3.68h1.43zm19.09-73.07H500.1v-5.87h6.33zm0-11.34H500.1v-5.87h6.34zm0-11.34H500.1v-5.87h6.34zm0-11.33H500.1v-5.88h6.34zm0-11.34H500.1v-5.87h6.34zm9.75 34h-6.33v-5.87h6.33zm0-11.34h-6.33v-5.87h6.33zm0-11.33h-6.33v-5.88h6.33zm0-11.34h-6.33v-5.87h6.33zm3.42-5.87H526V196h-6.34zM526 230h-6.34v-5.87H526zm0-11.34h-6.34v-5.87H526zm.27-10.9h-6.88v-6.74h6.88zm9.48 33.58h-.63v-5.87h.63zm0-11.34h-6.33v-5.87h6.33zm0-11.34h-6.33v-5.87h6.33zm0-11.33h-6.33v-5.88h6.33zm0-11.34h-6.33v-5.87h6.33zm83.1-25.73h5.51v5.11H618.8zm-11.47 93.9h-5.51v-5.11h5.51zm0-9.86h-5.51v-5.11h5.51zm0-9.87h-5.51v-5.11h5.51zm0-9.87h-5.51v-5.11h5.51zm0-9.86h-5.51v-5.11h5.51zm0-9.87h-5.51v-5.11h5.51zm0-9.87h-5.51v-5.11h5.51zm0-9.86h-5.51V190h5.51zm0-9.87h-5.51v-5.11h5.51zm0-9.86h-5.51V170.3h5.51zm8.49 88.79h-5.51v-5.11h5.51zm0-9.86h-5.51v-5.11h5.51zm0-9.87h-5.51v-5.11h5.51zm0-9.87h-5.51v-5.11h5.51zm0-9.86h-5.51v-5.11h5.51zm0-9.87h-5.51v-5.11h5.51zm0-9.87h-5.51v-5.11h5.51zm0-9.86h-5.51V190h5.51zm0-9.87h-5.51v-5.11h5.51zm0-9.86h-5.51V170.3h5.51zm7.88 78.93h-4.9v-5.11h4.9zm.85-14.29h-.85v4.79h-5.14V239h6zm-.24-40.16V205H618.8v-5.11zm-5.51-4.75V190h5.51v5.11zm5.51 14.62v5.11H618.8v-5.11zm0 9.87v5.11H618.8v-5.11zm0 9.86v5.11H618.8v-5.11zm.24-43.84h-6v-5.86h6zm4.72 54.4h-2v-.69h2.58zm3.53-5.45h-5.51v-5.11h5.51zm0-9.86h-5.51v-5.11h5.51zm0-9.87h-5.51v-5.11h5.51zm0-9.87h-5.51v-5.11h5.51zm0-9.86h-5.51V190h5.51zm0-9.87h-5.51v-5.11h5.51zm0-9.86h-5.51V170.3h5.51zm445.85 119.12-48.12-65 63.78 68.27Q1086.54 296 1078.65 294.53zm5.2 2.51v2.15l-3.49-.69v-2.15C1081.52 296.57 1082.69 296.8 1083.85 297zm-10.48-3.48-46.22-54q-4.07-11.07-9-23.36l6.57 7 52.52 71zm1.53 1.76v2.16l-3.49-.62v-2.17C1072.57 294.89 1073.74 295.1 1074.9 295.32zm-57.75-81.58-.63-1.57 3.15 4.27zm58.73 81.76c1.17.21 2.33.43 3.49.66v2.15l-3.49-.65zM1006.52 228l-32 56q-4.79-.13-9.61-.21L1005.4 221Q1006 224.49 1006.52 228zm-30.07 57.49v2.22l-3.49-.1v-2.22zm-4.47-.12v2.22l-3.5-.08v-2.22zm-4.48-.1v2.22l-3.49-.06v-2.22zm37.66-65.72-41.44 64.2q-5-.08-10-.1H953l52-65.46zM963 285.17v2.22h-3.5v-2.22zm-4.48-.05v2.22h-3.49v-2.22zm-4.47.0v2.22h-3.5v-2.22h3.5zm50.12-71.36.52 3.15-53 66.74c-3 0-6.08.0-9.14.0zm-54.6 71.35v2.22h-3.49v-2.23zm-4.47.0v2.22h-3.5v-2.22zm58.87-72.6-62.73 71.16q-6.46.06-13 .19l75.56-72.5zm-63.35 72.63v2.22h-3.49v-2.22zm-4.47.0v2.23l-3.5.05v-2.22zm-4.48.07v2.22l-3.49.07V285.3zm71.92-75.05L926.8 283.87c-3.4.07-6.83.16-10.27.26l86.74-76.08zm-76.39 75.14v2.22l-3.5.08V285.4zm-4.48.1v2.22l-3.49.09v-2.22zm-4.47.12v2.22l-3.5.11v-2.22zm84.8-78.61L915 284.18q-6.66.21-13.41.5l101.13-79.93zM913.8 285.68v2.22l-3.49.12V285.8zm-4.47.15v2.22l-3.5.13V286zm-4.48.17v2.22l-3.49.14v-2.21zm97.69-82.34-102.6 81.09q-4.59.19-9.22.43l111.6-82.88zM900.38 286.19v2.22l-3.5.15v-2.22zm-4.48.2v2.22l-3.49.16v-2.21zm-4.47.21v2.22l-3.5.18v-2.22zM1002 200.18l.17 1L889 285.27q-8.06.41-16.25.92zM887 286.83v2.22l-3.49.19V287zm-4.47.25v2.21l-3.5.2v-2.21zm-4.48.25v2.22c-1.16.07-2.33.13-3.49.21v-2.22zm-8 .49 3.5-.22v2.22L870 290zm-4.47.29 3.49-.22v2.21l-3.49.23zm-4.48.31 3.5-.24v2.21l-3.5.24zm-4.47.31 3.49-.24v2.21l-3.49.24zm-4.48.33 3.5-.26V291l-3.5.26zm-4.47.34 3.49-.27v2.21l-3.49.27zm-4.48.34 3.5-.27v2.21l-3.5.27zm-4.47.36 3.49-.28V292l-3.49.28zm-4.48.37 3.5-.29v2.21l-3.5.29zm-4.47.38 3.49-.3v2.21l-3.49.29zm-4.48.39 3.5-.31v2.21l-3.5.3zm-4.47.39 3.49-.31v2.21l-3.49.3zm-4.48.41 3.5-.32v2.2l-3.5.32zm-4.47.41 3.49-.32v2.2l-3.49.32zm-4.48.42 3.5-.33v2.2l-3.5.33zm-4.47.43 3.49-.34v2.21l-3.49.33zm-4.48.43 3.5-.34v2.21l-3.5.34zm-4.47.45 3.49-.35V296l-3.49.35zm-1.26.12h.28v2.2h-.28zm217.4 14.58c-7.63-3.78-15.7-4-26.53-6.06C968.35 3e2 953.75 306.52 939 309c-21.94 3.62-37.82-6-60-6.9-11.68-.47-23.37 3.84-34.54 6.73-10.18 2.63-20.24 4-30.56 1.54-5.81-1.39-15.14-5.54-21.18-2.35v-6.59c58.51-5.88 111.74-9.45 161-9.23 19.89.08 39.13.79 57.83 2.21A144.32 144.32.0 0 1 1010.1 308.88zm-32.67-21.16V285.5l3.5.11v2.22zm4.48.15v-2.22l3.49.13V288zm4.47.17v-2.22l3.5.16v2.22zm4.48.2V286l3.49.18v2.21zm4.47.23v-2.22l3.5.19v2.22zm4.48.25V286.5l3.49.22v2.21zm4.47.28v-2.22l3.5.24v2.21zm7.38.51-2.9-.21v-2.21l2.94.22C1011.69 288.05 1011.68 288.78 1011.66 289.51zM975.57 284l31.18-54.47c3.13 20.56 5 39.63 5 56.33Q994 284.5 975.57 284zm35.79-84.31 73.94 87-59.83-64L1015 208.54Q1013.26 204.19 1011.36 199.68zm4.12 33.94c6.39 19.82 11.87 38 15.07 53.92q-3.84-.41-7.71-.76C1021.49 271.26 1018.93 253.21 1015.48 233.62zm16.62 62.63c.09.6.17 1.19.26 1.78h-2.2v-2zm-1.34-5V289h.08q.23 1.14.42 2.25zm-4.1-.42v-2.2l3.12.31v2.2zm2.29 5.11V298h-2.5v-2.36zm-6-7.66 2.72.25v2.21l-2.54-.24zm.51 7.12 1.77.17V298h-1.62C1023.58 297.16 1023.53 296.28 1023.47 295.38zm8 13.56-.69 8.88c-.17.11-.34.21-.5.33l-2.62-.55-1.22-8.66h-2.49c0-1.72.0-3.49-.07-5.33H1033c.18 1.82.32 3.6.41 5.33zm-3.33-66.74 43.76 51.09q-14.29-2.52-29-4.35C1039.39 275.46 1034.57 260 1028.1 242.2zm42.32 52.32v2.17c-1.16-.21-2.32-.4-3.49-.6v-2.17C1068.1 294.12 1069.26 294.31 1070.42 294.52zm-4.47-.76v2.17l-3.49-.57v-2.17C1063.62 293.37 1064.79 293.56 1066 293.76zm-4.47-.73v2.18l-3.5-.54v-2.18zm-4.48-.68v2.18l-3.78-.55V291.8zm-4.76-.69v2.18l-3.39-.46v-2.19zm-8.66.11-.33-1.31h.33zm1-1.14 3.31.43v2.19l-3.31-.43zm40.46 13.9-1.16.47-.36.14-5.24 2.08-.21.08-1 .37-.34.14-.77.3-.48.19-.63.24-.47.18-.63.25a3.24 3.24.0 0 0-.33.13l-.58.22-.33.13-.23.08c-6.85-2.24-14.37-2.62-21.14.12l-.1-.71h-3.75q-1-5.32-2.31-11.17 20.54 2.64 40.24 6.67zm3.36-4.42-3.55-.73v-2.15l3.55.74zm4.49 1-3.51-.75v-2.15l3.51.76zm2.92-1-.57.24-1.15.48-.22.09v-1.77l2.75.62zM1465.53 287h-3v-.07h3zm0-5.34h-3v-5.67h3zm0-10.94h-3V265h3zm7.6 16.28h-4.3v-.07h4.3zm0-4.93h-4.56v-6.49h4.56zm0-11.35h-4.3V265h4.3zm65.65 11.73h-1v-8.33h1zm2.43-18.47h-2.43v2.38h-1V258H1543zm5.55-18.49-1.43 4.77h-7.56v-8.34h9zm0-11.32h-9v-8.34h9zm0-16.1h-9v-8.34h9zm0-16.1h-9v-8.33h9zm0-16.09h-9v-8.34h9zm0-16.1h-9v-8.34h9zm4.86 59.52v-3.47h1zM1555 218h-3.37v-8.34h5.87zm5.62-8-.09-.32h.09zm0-8.08h-9v-8.33h9zm0-16.09h-9v-8.34h9zm0-16.1h-9v-8.34h9zm4.86-8.34h9v8.34h-9zm9 88.82h-1.78l-2.5-8.34h4.28zm0-16.09h-6.61l-2.38-7.92v-.42h9zm0-16.1h-9v-8.34h9zm0-16.1h-9v-8.33h9zm.39-15.48h-9.77v-9.56h9.77zm6.44 96h-2v-8.33h2zm5.64-21h-5.64v4.89h-2V258h7.61zm1.39-19.52h-1.39v8.31h-7.61v-8.34h9zm0-7.78h-9v-8.34h9zm0-16.1h-9v-8.34h9zm0-16.1h-9v-8.33h9zm0-16.09h-9v-8.34h9zm0-16.1h-9v-8.34h9zm110.93 25.89.69 1.47a39 39 0 0 0-4.82 2.79l-.94-1.34-2.59-6.95c1-.6 1.93-1.17 2.93-1.7zm-4-6.13c1-.49 1.93-.94 2.92-1.37l1.17 6.31zm39.38 6.13 4.72-5.73c1 .53 2 1.1 2.93 1.7l-2.59 6.95-.93 1.34a39.86 39.86.0 0 0-4.83-2.79zm-.13-1.19 1.16-6.31c1 .43 2 .88 2.92 1.37zM1757.33 228l-1.63.15a38.31 38.31.0 0 0-1-5.5l1.58-.41 7.42-.06c.23 1.1.43 2.21.58 3.33zm7.11-1.62c.12 1 .22 2.12.27 3.2l-6.31-1.06zm-32.89 41.89 1.32-.56.68 1.48 1.35 7.3-.58.23zm.8 10.48-.18-.3h.07zm-7.4-30.66-.47-1.43a12.88 12.88.0 0 0 1.44-.84l6 8.7a25.92 25.92.0 0 1-3.11 1.8zm2.89 8.7h0l-.11-.35zm-6.73 15.73-.15-1.63a38.17 38.17.0 0 0 5.49-1l.42 1.58.05 7.42c-1.09.23-2.21.43-3.33.58zm1.62 7.11c-1.06.12-2.13.22-3.21.27l1.06-6.31zm-1.84-9.45-1-10.75a27.56 27.56.0 0 0 3.63-.64l2.74 10.44A38.3 38.3.0 0 1 1720.89 270.17zm-7.56 3.41 1.07 6.31c-1.08-.05-2.15-.15-3.21-.27zm-3 5.92c-1.12-.15-2.23-.35-3.33-.58l.06-7.42.41-1.58a38.31 38.31.0 0 0 5.5 1l-.15 1.63zm2.7-9.33a38.3 38.3.0 0 1-5.38-.95l2.75-10.44a27.12 27.12.0 0 0 3.62.64zm-7.94-13.86a25.29 25.29.0 0 1-3.12-1.8l6-8.7a15 15 0 0 0 1.44.84l-.47 1.43zm1.15.13-.12.35h0zm-6.63 20.27-.58-.23 1.34-7.3.68-1.48 1.32.56zm2.14 1.73-.17.3.1-.33zm19.94-40.36-.28-.86 6.18 6.24c-.42.39-.85.76-1.31 1.11zm3.77 7.06a13.47 13.47.0 0 1-1.22.72l-1.55-4.73zm-17.8-.57q-.69-.52-1.32-1.11l6.19-6.24-.29.86zm3.59-3.44-1.55 4.73q-.63-.33-1.23-.72zm1.24-11.57-9.38-4.43a13.72 13.72.0 0 1 .86-1.49l8.52 5.91v0zm-.38.8h0v0l-10-2.73a15.68 15.68.0 0 1 .59-1.62zm-.23.87h0l-10.33-1a15.71 15.71.0 0 1 .3-1.69zm-.08.9h0l-10.34.86c0-.29.0-.58.0-.86s0-.58.0-.86zm.08.9h0l-10 2.63a15.28 15.28.0 0 1-.3-1.69zm.23.87v0h0l-9.42 4.34a14.88 14.88.0 0 1-.59-1.62zm.38.82v0 0l-8.52 5.91a14.6 14.6.0 0 1-.86-1.48zm.51.74v0 0l-7.37 7.3c-.39-.42-.76-.85-1.11-1.31zm0-6.68v0l-8.46-6a15.38 15.38.0 0 1 1.1-1.32l7.37 7.3zm-9.11-6.43-8.64-6.11a26.56 26.56.0 0 1 2.32-2.75l7.52 7.44A18 18 0 0 0 1703.85 222.35zm-.57.82a16 16 0 0 0-.93 1.61l-9.57-4.52a25.29 25.29.0 0 1 1.8-3.12zm-1.35 2.51a18.07 18.07.0 0 0-.63 1.74l-10.21-2.79a24.78 24.78.0 0 1 1.23-3.38zm-.89 2.71a15.73 15.73.0 0 0-.32 1.82l-10.54-1a27.26 27.26.0 0 1 .62-3.54zm-.41 2.82q0 .47.0.93c0 .31.0.62.0.92l-10.54.87c0-.59-.07-1.19-.07-1.79s0-1.21.07-1.8zm.09 2.85a15.37 15.37.0 0 0 .32 1.82l-10.24 2.7a27.71 27.71.0 0 1-.62-3.55zm.58 2.79a16.31 16.31.0 0 0 .63 1.74l-9.61 4.43a24.78 24.78.0 0 1-1.23-3.38zm1 2.65a15.88 15.88.0 0 0 .93 1.6l-8.7 6a25.92 25.92.0 0 1-1.8-3.11zm1.5 2.42a14.77 14.77.0 0 0 1.2 1.42l-7.52 7.45a27.77 27.77.0 0 1-2.32-2.76zm1.91 2.12a14.65 14.65.0 0 0 1.41 1.2l-6.11 8.64a26.56 26.56.0 0 1-2.75-2.32zm9.27-6.45-2.57 9.41-.46-.14zm1-.36v0l-1 10.33a15.71 15.71.0 0 1-1.69-.3zm1.8-10.18 1-10.33c.58.07 1.14.17 1.69.29l-2.63 10v0zm0-11.24c-.3.0-.61.0-.92.0s-.62.0-.93.0l-.87-10.54c.59.0 1.19-.07 1.8-.07s1.2.0 1.8.07zM1717 227v0l-.85-10.34c.28.0.57.0.86.0s.57.0.86.0zm.86 20.67c-.29.0-.57.0-.86.0s-.58.0-.86.0l.85-10.33v0zm-1.76-20.59v0l-2.64-10c.55-.12 1.12-.22 1.69-.29zm0 21.41h.93c.31.0.62.0.92.0l.88 10.55q-.9.06-1.8.06t-1.8-.06zm1.82-11.23v0l2.64 10a15.89 15.89.0 0 1-1.7.3zm1 .37 3 9.26-.46.14zm13.73-10.18a15.79 15.79.0 0 0-.64-1.74l9.62-4.43a27.76 27.76.0 0 1 1.23 3.38zm10.49-1.72a25.68 25.68.0 0 1 .63 3.54l-10.55 1a15.73 15.73.0 0 0-.32-1.82zm-21.06 5.53 10-2.63a15.71 15.71.0 0 1 .3 1.69l-10.33 1h0zm-.24-.86v0h0l9.43-4.34a15.62 15.62.0 0 1 .58 1.62zm-.37-.81v0 0l8.53-5.91a15.6 15.6.0 0 1 .86 1.49zm0 5.19v0l9.38 4.43a15.43 15.43.0 0 1-.86 1.48l-8.53-5.91zm.33-.84h0v0l10 2.73a14.83 14.83.0 0 1-.58 1.62zm.24-.87h0l10.33.95a15.28 15.28.0 0 1-.3 1.69zm.08-.9h0l10.33-.85c0 .28.0.57.0.86s0 .57.0.86zm9.43-7.36a16 16 0 0 0-.93-1.61l8.7-6a25.92 25.92.0 0 1 1.8 3.11zm-1.5-2.43a17.89 17.89.0 0 0-1.19-1.42l7.51-7.44a26.56 26.56.0 0 1 2.32 2.75zm-.67.48-8.47 6v0 0l7.37-7.3Q1728.87 222.14 1729.39 222.83zM1721 235.49v0l8.47 6c-.35.46-.72.89-1.11 1.31l-7.37-7.3zm7.21 8.56 7.45 7.51a27.77 27.77.0 0 1-2.76 2.32l-6.11-8.64A16.26 16.26.0 0 0 1728.16 244.05zm.71-.71a16.26 16.26.0 0 0 1.19-1.42l8.64 6.11a26.48 26.48.0 0 1-2.32 2.76zm1.76-2.24a15.88 15.88.0 0 0 .93-1.6l9.57 4.52a25.92 25.92.0 0 1-1.8 3.11zm1.35-2.51a14.43 14.43.0 0 0 .64-1.74l10.21 2.79a27.76 27.76.0 0 1-1.23 3.38zm.89-2.71a15.37 15.37.0 0 0 .32-1.82l10.55 1a26.09 26.09.0 0 1-.63 3.55zm.41-2.82c0-.3.0-.61.0-.92s0-.62.0-.93l10.55-.87q.06.89.06 1.8c0 .6.0 1.2-.06 1.79zm10.32-7.49 10.44-2.75a38.3 38.3.0 0 1 1 5.38l-10.75 1A27.12 27.12.0 0 0 1743.6 225.57zm-.28-1.07a29.09 29.09.0 0 0-1.26-3.46l9.8-4.51a37.33 37.33.0 0 1 1.87 5.13zm-1.73-4.46a27.22 27.22.0 0 0-1.84-3.19l8.87-6.15a39 39 0 0 1 2.73 4.73zm-2.48-4.09a26.59 26.59.0 0 0-2.37-2.82l7.67-7.59a37 37 0 0 1 3.51 4.18zm-3.15-3.6a27.72 27.72.0 0 0-2.81-2.37l6.23-8.81a40 40 0 0 1 4.18 3.51zm-.35.36-7.45 7.52a14.77 14.77.0 0 0-1.42-1.2l6.11-8.64A27.77 27.77.0 0 1 1735.61 212.71zm-8 8.1-7.3 7.37v0 0l6-8.47C1726.73 220.05 1727.16 220.42 1727.58 220.81zm-8 6.85v0 0l4.43-9.38a13.58 13.58.0 0 1 1.48.86zm-.81-.38v-.05.05l2.73-10a14.88 14.88.0 0 1 1.62.59zm2-11.06a15.37 15.37.0 0 0-1.82-.32l1-10.54a26.07 26.07.0 0 1 3.55.62zm-1.9-11.46c-.61.0-1.22-.07-1.84-.07s-1.23.0-1.84.07l-.89-10.76q1.35-.09 2.73-.09c.92.0 1.82.0 2.73.09zM1715 215.9a15.73 15.73.0 0 0-1.82.32L1710.52 206a27.26 27.26.0 0 1 3.54-.62zm.16 11.38v-.05.05l-4.34-9.42a14.72 14.72.0 0 1 1.61-.59zm-.82.37v0 0l-5.91-8.52a13.72 13.72.0 0 1 1.49-.86zm-.73.52v0 0l-7.3-7.37q.63-.59 1.32-1.11zm-7.88-7.94-7.45-7.52a26.56 26.56.0 0 1 2.75-2.32l6.11 8.64A16 16 0 0 0 1705.76 220.23zm-7.81-7.88-7.59-7.67a38.06 38.06.0 0 1 4.18-3.51l6.23 8.81A29 29 0 0 0 1698 212.35zm-.78.78a27.84 27.84.0 0 0-2.37 2.82l-8.81-6.23a38.06 38.06.0 0 1 3.51-4.18zm-3 3.72a28.72 28.72.0 0 0-1.84 3.19l-9.76-4.61a39 39 0 0 1 2.74-4.73zm-2.3 4.19a26 26 0 0 0-1.26 3.46l-10.42-2.84a37.33 37.33.0 0 1 1.87-5.13zm-1.55 4.53a27.12 27.12.0 0 0-.64 3.62l-10.74-1a36.89 36.89.0 0 1 .94-5.38zm-.73 4.73c0 .6-.07 1.22-.07 1.84s0 1.23.07 1.84l-10.75.89c-.07-.91-.1-1.82-.1-2.73s0-1.83.1-2.73zm.09 4.78a27.12 27.12.0 0 0 .64 3.62l-10.44 2.75a36.89 36.89.0 0 1-.94-5.38zm.93 4.69a25.47 25.47.0 0 0 1.26 3.46l-9.81 4.52a38.31 38.31.0 0 1-1.87-5.13zm1.72 4.46a27.84 27.84.0 0 0 1.84 3.19l-8.86 6.15a37.56 37.56.0 0 1-2.74-4.73zm2.48 4.1a27.72 27.72.0 0 0 2.37 2.81l-7.67 7.6a40 40 0 0 1-3.51-4.18zm3.15 3.59a27.63 27.63.0 0 0 2.82 2.37l-6.23 8.81a37 37 0 0 1-4.18-3.51zm3.72 3a27.22 27.22.0 0 0 3.19 1.84l-4.61 9.76a39 39 0 0 1-4.73-2.73zm-.32 12.11 4.51-9.8h.09l-3.36 10.29C1702.17 267.4 1701.76 267.23 1701.35 267zm10.39-19.4.5.16L1709.45 258l-1-.31zm-1.22 10.65 2.69-10.24a15.73 15.73.0 0 0 1.82.32l-1 10.55A25.68 25.68.0 0 1 1710.52 258.29zm4.6 1.22c.61.0 1.22.07 1.84.07s1.23.0 1.84-.07l.89 10.76c-.91.06-1.81.1-2.73.1s-1.83.0-2.73-.1zm3.76-11.14a15.37 15.37.0 0 0 1.82-.32l2.7 10.24a26.09 26.09.0 0 1-3.55.63zm2.79-.57.5-.16 3.29 10.06-1 .31zm6.38 9.44 4.52 9.8c-.41.19-.83.36-1.24.53L1728 257.28zm1-.47a26.43 26.43.0 0 0 3.19-1.84l6.15 8.87a37.49 37.49.0 0 1-4.73 2.73zm4.1-2.48a26.48 26.48.0 0 0 2.81-2.37l7.6 7.67a38.83 38.83.0 0 1-4.18 3.51zm3.59-3.15a26.48 26.48.0 0 0 2.37-2.81l8.81 6.23a38.83 38.83.0 0 1-3.51 4.18zm3-3.72a26.43 26.43.0 0 0 1.84-3.19l9.76 4.61a37.49 37.49.0 0 1-2.73 4.73zm2.31-4.19a28.47 28.47.0 0 0 1.26-3.46l10.41 2.85a38.31 38.31.0 0 1-1.87 5.13zm1.54-4.53a27.12 27.12.0 0 0 .64-3.62l10.75 1a38.3 38.3.0 0 1-1 5.38zm.73-4.72c0-.61.07-1.22.07-1.84s0-1.24-.07-1.84l10.76-.89c.06.9.1 1.81.1 2.73s0 1.82-.1 2.73zm12.81-12.61 5.58-3.17c.31 1 .59 2.07.83 3.12zM1756 221l-1.57.43a40.5 40.5.0 0 0-1.91-5.25l1.48-.68 7.3-1.34c.42 1 .81 2.1 1.16 3.17zm-1.34-6.48 4.94-4.09c.49 1 1 1.93 1.37 2.92zm-1.18-.13-1.48.69a39.86 39.86.0 0 0-2.79-4.83l1.34-.93 7-2.59c.59 1 1.16 1.93 1.69 2.93zm-2.45-6.15 4.16-4.88c.64.86 1.26 1.74 1.85 2.64zm-1.18.07-1.34 1a37.56 37.56.0 0 0-3.59-4.27l1.17-1.15 6.39-3.76c.76.84 1.48 1.7 2.18 2.59zm-3.48-5.63 3.25-5.52c.78.73 1.54 1.49 2.27 2.28zm-1.15.29-1.16 1.16a39.75 39.75.0 0 0-4.27-3.59l1-1.33 5.64-4.82c.89.7 1.76 1.43 2.59 2.18zm-4.4-4.95 2.23-6c.91.58 1.79 1.2 2.64 1.84zm-2.43 2.42-6.15 8.86a26.43 26.43.0 0 0-3.19-1.84l4.61-9.76A37.56 37.56.0 0 1 1738.39 200.48zm-6.44 9.28-6 8.7a15.88 15.88.0 0 0-1.6-.93l4.52-9.57A25.92 25.92.0 0 1 1732 209.76zm-8.54 7.35a14.38 14.38.0 0 0-1.74-.63l2.79-10.21a24.78 24.78.0 0 1 3.38 1.23zm.11-11.62a27.12 27.12.0 0 0-3.62-.64l1-10.74a36.89 36.89.0 0 1 5.38.94zm-2.56-12.1.15-1.63 2.48-7c1.12.16 2.24.35 3.33.58l-.05 7.43-.42 1.58A38.43 38.43.0 0 0 1721 193.39zm-.38-2.7-1.06-6.31c1.08.06 2.15.15 3.21.28zm-.7 1-.13 1.64c-.93-.07-1.85-.1-2.79-.1s-1.87.0-2.79.1l-.14-1.64 1.23-7.31c.57.0 1.13.0 1.7.0s1.13.0 1.69.0zm-6.55-1-2.14-6c1.06-.13 2.13-.22 3.21-.28zm-.52 1.06.15 1.63a38.32 38.32.0 0 0-5.5 1l-.41-1.58-.06-7.43c1.1-.23 2.21-.42 3.33-.58zm.21 2.35 1 10.74a27 27 0 0 0-3.63.64l-2.74-10.44A36.52 36.52.0 0 1 1713 194.11zm-.78 22.37a15.73 15.73.0 0 0-1.74.63l-4.43-9.61a24.91 24.91.0 0 1 3.39-1.23zm-2.64 1.05a16 16 0 0 0-1.61.93l-6-8.7a25.29 25.29.0 0 1 3.12-1.8zm-7.93-8.19-6.15-8.86a39 39 0 0 1 4.73-2.74l4.61 9.76A27.22 27.22.0 0 0 1701.67 209.34zm-8.57-11.28-4.88-4.16c.86-.64 1.74-1.26 2.64-1.84zm.08 1.19.94 1.33a40.76 40.76.0 0 0-4.27 3.59L1688.7 203l-3.76-6.39c.84-.75 1.7-1.48 2.59-2.18zm-5.64 3.47-5.52-3.24c.74-.79 1.49-1.55 2.28-2.28zm.29 1.16L1689 205a39.75 39.75.0 0 0-3.59 4.27l-1.33-1-4.82-5.64c.7-.89 1.43-1.75 2.18-2.59zm-4.95 4.4-6-2.24c.58-.9 1.2-1.78 1.85-2.64zm.48 1.08 1.34.94a39 39 0 0 0-2.79 4.82l-1.47-.69-5.73-4.73c.53-1 1.1-2 1.7-2.93zm-4.11 5.2-6.31-1.17c.43-1 .88-2 1.37-2.92zm.67 1 1.48.69a37.16 37.16.0 0 0-1.91 5.24l-1.57-.43-6.46-3.67c.35-1.07.73-2.13 1.15-3.17zm-3.15 5.83-6.41-.05c.24-1 .52-2.09.83-3.12zm.83.86 1.58.41a38.32 38.32.0 0 0-1 5.5l-1.63-.15-7-2.49c.16-1.12.35-2.23.58-3.33zm-2.08 6.28-6.32 1.06c.06-1.08.15-2.14.28-3.2zm1 .7 1.64.14c-.07.92-.1 1.85-.1 2.79s0 1.86.1 2.79l-1.64.13-7.31-1.23c0-.56.0-1.13.0-1.69s0-1.13.0-1.7zm-1 6.55-6 2.15c-.13-1.06-.22-2.13-.28-3.21zm1.06.53 1.63-.15a38.43 38.43.0 0 0 1 5.49l-1.58.42h-7.43c-.23-1.09-.42-2.21-.58-3.33zm.19 6.61-5.58 3.17c-.31-1-.59-2.07-.83-3.12zm1.15.33 1.57-.42a38.09 38.09.0 0 0 1.91 5.24l-1.48.68-7.31 1.35c-.42-1.05-.81-2.11-1.15-3.18zm1.33 6.49-4.94 4.08c-.49-1-.94-1.93-1.37-2.92zm1.19.12 1.47-.69a39.86 39.86.0 0 0 2.79 4.83l-1.34.93-6.95 2.59c-.6-.95-1.17-1.93-1.7-2.93zm2.44 6.16-4.16 4.87c-.64-.85-1.26-1.74-1.84-2.64zm1.19-.08 1.33-.95a39.75 39.75.0 0 0 3.59 4.27l-1.17 1.16-6.39 3.75c-.75-.83-1.48-1.7-2.18-2.59zm3.47 5.63-3.24 5.52q-1.18-1.1-2.28-2.28zm1.16-.28 1.15-1.17a38.45 38.45.0 0 0 4.27 3.59l-.94 1.34-5.65 4.81c-.89-.7-1.75-1.42-2.59-2.18zm4.4 4.94-2.24 6c-.9-.59-1.78-1.21-2.64-1.85zm1.08-.48.93-1.34a39.86 39.86.0 0 0 4.83 2.79l-.69 1.48-4.73 5.72c-1-.53-2-1.1-2.93-1.69zm5.2 4.11-1.17 6.31c-1-.42-2-.88-2.92-1.37zm-.53 7.55.47.18-1.15 3.49zm1.38 5.43 2.34-4.12c1.17.36 2.36.68 3.56.95l-.07 9.33a58.06 58.06.0 0 1-7.23-1.87zm2.79-4.92 3.17-5.58v6.41C1705.09 278.49 1704.05 278.21 1703 277.9zm2.84-6.72-3.67 6.46-.24-.08 2.77-8.44c.51.17 1 .34 1.57.49zm-.92-2.74 3.35-10.26 1 .32-2.84 10.41C1706 268.76 1705.45 268.61 1704.94 268.44zm2 11.4c1 .21 2 .38 3 .53l-3.1 8.73zm3.9.65c1.21.15 2.43.25 3.67.31l1.55 9.2a58.77 58.77.0 0 1-8.35-.72zm3.15-7.87.14-1.63c.92.06 1.85.1 2.79.1s1.86.0 2.79-.1l.13 1.63-1.23 7.31c-.56.0-1.13.0-1.69.0s-1.13.0-1.7.0zm5.34 8.18c1.23-.06 2.46-.16 3.67-.31l3.12 8.79a58.76 58.76.0 0 1-8.34.72zm4.53-.43c1-.15 2-.32 3-.53l.07 9.26zm.69-21.87 1-.32 3.35 10.26c-.5.17-1 .33-1.53.47zm4.61 10.62 2.76 8.44-.24.08-3.67-6.46-.42-1.57C1728.16 269.46 1728.68 269.29 1729.2 269.12zm1.69 8.78c-1 .31-2.06.59-3.12.83v-6.41zm.45.8 2.34 4.12 1.4 4.29a55.94 55.94.0 0 1-7.23 1.87l-.07-9.33C1729 279.38 1730.17 279.06 1731.34 278.7zm3.26-1.13.46-.18.68 3.67zm1.1-1.42-1.16-6.31 4.08 4.94C1737.67 275.27 1736.69 275.73 1735.7 276.15zm-1-7.49-.7-1.48a39.86 39.86.0 0 0 4.83-2.79l.93 1.34 2.59 7c-1 .59-1.93 1.16-2.93 1.69zm6.15-2.45 4.87 4.16c-.85.64-1.73 1.26-2.64 1.85zm-.08-1.18-1-1.34a37.56 37.56.0 0 0 4.27-3.59l1.16 1.17 3.76 6.39c-.84.76-1.71 1.48-2.6 2.18zm5.63-3.48 5.52 3.25c-.73.78-1.49 1.54-2.27 2.27zm-.28-1.15-1.17-1.16a37.56 37.56.0 0 0 3.59-4.27l1.34.95 4.81 5.64c-.7.89-1.42 1.76-2.18 2.59zM1751 256l6 2.23c-.59.91-1.21 1.79-1.85 2.64zm-.48-1.09-1.34-.93a38.58 38.58.0 0 0 2.79-4.83l1.48.69 5.72 4.73c-.53 1-1.1 2-1.69 2.93zm4.11-5.19 6.31 1.16c-.42 1-.88 2-1.37 2.92zm-.66-1-1.48-.68a40.91 40.91.0 0 0 1.91-5.24l1.57.42 6.46 3.67c-.35 1.07-.74 2.13-1.16 3.18zm3.14-5.83h6.41c-.24 1.05-.52 2.09-.83 3.12zm-.82-.85-1.58-.42a38.41 38.41.0 0 0 1-5.49l1.63.15 7 2.48c-.15 1.12-.35 2.24-.58 3.33zm2.08-6.29 6.31-1.06c0 1.08-.15 2.15-.27 3.21zm-1-.7-1.63-.13c.06-.93.1-1.86.1-2.79s0-1.87-.1-2.79l1.63-.14 7.31 1.23c0 .57.0 1.13.0 1.7s0 1.13.0 1.69zm7.22-12.9 9.26-.07-8.73 3.1C1765 224.17 1764.87 223.16 1764.66 222.16zm9.14-.92-9.32.07c-.28-1.2-.6-2.39-1-3.56l8.12-4.61A57.8 57.8.0 0 1 1773.8 221.24zm-10.54-4.32c-.32-1-.67-1.94-1-2.89l9.1-1.68zm4.25-13a58.4 58.4.0 0 1 3.54 7.6l-9.17 1.69c-.48-1.14-1-2.26-1.57-3.35zm-7.6 5.17c-.49-.9-1-1.79-1.54-2.66l8.68-3.23zm1.93-13.51a57.77 57.77.0 0 1 4.81 6.86l-8.75 3.26c-.67-1-1.37-2-2.11-3zm-6.59 6.41c-.63-.81-1.29-1.59-2-2.36l8-4.69zm5.48-7.73-8 4.73c-.84-.9-1.71-1.77-2.61-2.6l4.73-8A57 57 0 0 1 1760.73 194.28zm-6.59-6.45-4.7 8c-.76-.68-1.55-1.35-2.36-2zm-.65-.57-7.1 6.05c-1-.74-2-1.45-3-2.12l3.26-8.74A56.19 56.19.0 0 1 1753.49 187.26zm-7.61-5.21-3.24 8.68c-.87-.55-1.76-1.06-2.66-1.55zm-8.32-4a57 57 0 0 1 7.59 3.55l-5.94 7.19c-1.09-.56-2.21-1.08-3.34-1.56zm-.82-.26-1.68 9.11c-1-.38-1.91-.73-2.89-1zm-8.89-2.49a57.8 57.8.0 0 1 8.1 2.16l-4.61 8.12c-1.17-.36-2.35-.68-3.56-.95zm-.08 10.25c1.06.24 2.09.52 3.12.83l-3.17 5.58zm.28 7.56 3.67-6.46c1.07.34 2.13.73 3.18 1.15l-1.35 7.31-.68 1.48a38.09 38.09.0 0 0-5.24-1.91zm-.61 2.26a37.81 37.81.0 0 1 5.13 1.87l-4.52 9.81a25.47 25.47.0 0 0-3.46-1.26zm-.44-20.18-.07 9.25c-1-.2-2-.38-3-.53zm-.84-.19-3.12 8.8c-1.21-.15-2.44-.26-3.67-.32l-1.55-9.2A58.76 58.76.0 0 1 1726.16 175zm-9.2-.69 1.54 9.14c-.51.0-1 0-1.54.0s-1 0-1.54.0zm-.86.0-1.55 9.2c-1.24.06-2.46.17-3.67.32l-3.13-8.8A58.9 58.9.0 0 1 1716.1 174.27zM1710 183.9c-1 .15-2 .33-3 .53l-.07-9.25zm-.69 21.88a26 26 0 0 0-3.46 1.26l-4.51-9.81a37.33 37.33.0 0 1 5.13-1.87zm-8.27-9.2-.69-1.48-1.34-7.31c1-.42 2.1-.81 3.17-1.15l3.67 6.46.43 1.57A37.16 37.16.0 0 0 1701.05 196.58zm5.14-4.63-3.16-5.58c1-.31 2.06-.59 3.11-.83zm-.13-16.66.07 9.33c-1.2.27-2.39.59-3.56.95l-4.6-8.12A57.3 57.3.0 0 1 1706.06 175.29zm-4.32 10.55c-1 .32-1.94.67-2.89 1l-1.68-9.11zm-5.38-7.8 1.69 9.18c-1.14.48-2.26 1-3.35 1.56l-5.94-7.19A57.17 57.17.0 0 1 1696.36 178zm-2.43 11.14c-.9.49-1.79 1-2.66 1.55l-3.23-8.68zm-6.65-6.73 3.26 8.74c-1 .67-2 1.38-3 2.12l-7.1-6.05A55.54 55.54.0 0 1 1687.28 182.45zm-.45 11.39c-.81.63-1.59 1.3-2.36 2l-4.69-8zm-7.73-5.48 4.73 8c-.9.83-1.77 1.7-2.6 2.6l-8-4.73A59.08 59.08.0 0 1 1679.1 188.36zm1.54 11.29c-.68.77-1.35 1.55-2 2.36l-6-7zm-8.56-4.05 6.05 7.1c-.74 1-1.45 2-2.12 3l-8.74-3.26A56.63 56.63.0 0 1 1672.08 195.6zm3.47 10.85c-.54.87-1.06 1.76-1.55 2.66l-7.13-5.89zm-9.14-2.51 7.19 5.94c-.56 1.09-1.08 2.21-1.56 3.35l-9.18-1.69A57.17 57.17.0 0 1 1666.41 203.94zm5.3 10.09c-.38.95-.73 1.91-1 2.89l-8.06-4.57zm-9.44-.89 8.12 4.61c-.36 1.17-.68 2.36-1 3.56l-9.33-.07A59.2 59.2.0 0 1 1662.27 213.14zm7 9c-.2 1-.38 2-.53 3l-8.73-3.1zm-9.44.77 8.8 3.13c-.15 1.21-.26 2.43-.32 3.67l-9.2 1.55A58.77 58.77.0 0 1 1659.81 222.93zm8.45 10.75-9.14-1.54 9.14-1.54c0 .51.0 1 0 1.54S1668.24 233.16 1668.26 233.68zm-9.17-.68 9.2 1.54c.06 1.24.17 2.47.32 3.68l-8.8 3.12A58.76 58.76.0 0 1 1659.09 233zm9.63 6.08c.15 1 .33 2 .53 3l-9.26.07zm-8.61 3.95 9.33-.07c.27 1.2.59 2.39 1 3.56l-8.12 4.61A59.2 59.2.0 0 1 1660.11 243zm10.55 4.32c.32 1 .67 1.94 1 2.89l-9.11 1.68zm-4.25 13a57 57 0 0 1-3.55-7.59l9.18-1.69c.48 1.13 1 2.25 1.56 3.34zm7.59-5.17c.49.9 1 1.79 1.55 2.66l-8.68 3.24zm-1.92 13.51a57.32 57.32.0 0 1-4.81-6.85l8.74-3.26c.67 1 1.38 2 2.12 3zm6.58-6.41c.63.81 1.3 1.59 2 2.36l-8 4.7zm-5.48 7.73 8-4.73c.83.9 1.7 1.77 2.6 2.61l-4.73 8A59.08 59.08.0 0 1 1673.18 270zm6.6 6.45 4.69-8c.77.69 1.55 1.35 2.36 2zm.64.58 7.1-6.06c1 .75 2 1.45 3 2.12l-3.26 8.75A57.77 57.77.0 0 1 1680.42 277zm7.62 5.21 3.23-8.68c.87.54 1.76 1.05 2.66 1.54zm.72.46 5.94-7.2c1.09.57 2.21 1.09 3.35 1.57l-1.69 9.17A58.4 58.4.0 0 1 1688.76 282.69zm26.66 27.61h-39.87v-7.94h39.87zm-19.2-15.21 2.36-7.22a58.14 58.14.0 0 0 7.48 1.92v1.83 2.52l.85-2.38.61-1.72a58.68 58.68.0 0 0 8.75.76l.31 1.81.38 2.26zm19.2-14.25h1.54 1.54L1717 290zm1.58 14 .38-2.26.3-1.81a58.57 58.57.0 0 0 8.75-.76l.61 1.72.85 2.38v-2.52-1.83a58 58 0 0 0 7.47-1.92l2.22 6.78zm20.56-8.64-1.69-9.17c1.13-.48 2.25-1 3.34-1.57l5.94 7.2A58.27 58.27.0 0 1 1737.56 286.23zm2.42-11.14c.9-.49 1.79-1 2.66-1.54l3.24 8.68zm6.66 6.74-3.26-8.75c1-.67 2-1.37 3-2.11l7.11 6A59.45 59.45.0 0 1 1746.64 281.83zm.44-11.4c.81-.63 1.6-1.29 2.36-2l4.7 8zm7.73 5.48-4.73-8q1.35-1.26 2.61-2.61l8 4.73A56.18 56.18.0 0 1 1754.81 275.91zm-1.54-11.29c.69-.77 1.35-1.55 2-2.36l6 7.06zm8.57 4.05-6-7.1c.74-1 1.44-2 2.11-3l8.75 3.26A58.49 58.49.0 0 1 1761.84 268.67zm-3.47-10.85c.54-.87 1.05-1.76 1.54-2.66l7.14 5.9zm9.14 2.51-7.2-5.94c.57-1.09 1.09-2.21 1.57-3.34l9.17 1.69A58.27 58.27.0 0 1 1767.51 260.33zm-5.3-10.09c.38-1 .73-1.91 1-2.89l8 4.57zm9.43.89-8.12-4.61c.36-1.17.68-2.36 1-3.56l9.32.07A57.8 57.8.0 0 1 1771.64 251.13zm-7-9c.21-1 .38-2 .53-3l8.73 3.1zm9.44-.77-8.79-3.12c.15-1.21.25-2.44.31-3.68l9.2-1.54A58.76 58.76.0 0 1 1774.1 241.34zm-8.44-10.74 9.14 1.54-9.14 1.54c0-.52.0-1 0-1.54S1765.67 231.11 1765.66 230.6zm0-.87c-.06-1.24-.16-2.46-.31-3.67l8.79-3.13a58.77 58.77.0 0 1 .72 8.35z"/><path class="cls-4" d="M0 0H1920V423.04"/></g></g></svg>