<svg xmlns="http://www.w3.org/2000/svg" viewBox="0 0 1400 325.27"><defs><style>.cls-1{opacity:.8}.cls-2{fill:#c6e9ff;opacity:.44}.cls-3{fill:#d1e7ff}.cls-4{fill:none}</style></defs><title>home-cloud02</title><g id="圖層_2" data-name="圖層 2"><g id="首頁"><g class="cls-1"><path class="cls-2" d="M1377.77 207.28a3.83 3.83.0 0 0-3.72-2.93 3.89 3.89.0 0 0-1.49.3 4.69 4.69.0 0 0-3.83-2 4.75 4.75.0 0 0-1.14.15 9.42 9.42.0 0 0-18.33-.6 5.07 5.07.0 0 0-1.41-.23 5 5 0 0 0-5 5 7.66 7.66.0 0 0 2.09 15h31.62a7.38 7.38.0 0 0 1.19-14.67z"/><path class="cls-3" d="M1377.77 207.28a3.83 3.83.0 0 0-3.72-2.93 3.89 3.89.0 0 0-1.49.3 4.69 4.69.0 0 0-3.83-2 4.75 4.75.0 0 0-1.14.15 9.42 9.42.0 0 0-18.33-.6 5.07 5.07.0 0 0-1.41-.23 5 5 0 0 0-5 5 7.67 7.67.0 0 0-5.45 5.89l.21-.39a8.88 8.88.0 0 1 4.56-3.94 5.53 5.53.0 0 1 3.21-.12c.27-2.44 3.64-4.22 5.59-2.74-1.15-4.09 4.66-7.07 8.06-6.88a6.86 6.86.0 0 1 6.47 4.48 5.19 5.19.0 0 0-7.2 3s-5.26-1.27-6.88 4c0 0 3.14-3.67 7.09-1.6.0.0 2.24-3.8 7-.8l.06-.19c1.1-3.35 6.64-2.51 6.2 1.15.79-2.25 5.19-1.07 4.87 1.58 1-1.7 5.44-.68 6.44.77A7.41 7.41.0 0 0 1377.77 207.28z"/></g><g class="cls-1"><path class="cls-2" d="M533 114.33a8.24 8.24.0 0 0-2.24.31 6 6 0 0 0-5.85-4.56 5.93 5.93.0 0 0-2.53.56A11.92 11.92.0 0 0 501 109.27a7.34 7.34.0 0 0-10.61 6.57s0 .1.0.14a7.75 7.75.0 0 0-1.45-.14 7.34 7.34.0 0 0 0 14.68h44a8.1 8.1.0 1 0 0-16.19z"/><path class="cls-3" d="M541.06 122.42a8.1 8.1.0 0 0-8.1-8.09 8.24 8.24.0 0 0-2.24.31 6 6 0 0 0-5.85-4.56 5.93 5.93.0 0 0-2.53.56A11.92 11.92.0 0 0 501 109.27a7.34 7.34.0 0 0-10.61 6.57s0 .1.0.14a7.75 7.75.0 0 0-1.45-.14 7.34 7.34.0 0 0-7.34 7.34c0 .14 3.59-7.21 11.26-3.55a8.37 8.37.0 0 1 8.6-3.44 9.66 9.66.0 0 0-7.45-1.52 6.35 6.35.0 0 1 8.64-1.59c2.24-7.39 14.41-7 17.77 1.27 2.09-3.07 9.63-.3 8.59 4.05 3.28-2.79 12.06.5 10.8 8.35A8 8 0 0 0 541.06 122.42z"/></g><path class="cls-4" d="M0 0h14e2v325.27H0z"/></g></g></svg>