<svg xmlns="http://www.w3.org/2000/svg" viewBox="0 0 1920.89 426"><defs><style>.cls-1{fill:#5596ca}.cls-2{fill:#d1e7ff}</style></defs><title>資產 211</title><g id="圖層_2" data-name="圖層 2"><g id="首頁"><path class="cls-1" d="M1835.78 399.37h-35.93v-47.7H1791v-12.5h-9.65V328.26h.08c.37.0.67-.44.67-1s-.3-1-.67-1h-.08L1766 305.61h.15V294.15h-2.94l-.81-25.84h-.18l-.82 25.83h-2.94v11.46l-15.38 20.69H1743c-.37.0-.67.44-.67 1s.3 1 .67 1h.09v10.91h-8.6v56.88h-.07V351.67h-8.83v53.64h-7.19l-1.38-3.73h-.44v-.28h-11v-.09a.36.36.0 0 0 0-.1h0a.38.38.0 0 0 .28-.36.32.32.0 0 0-.08-.21h11.1V4e2h-11.32v-1.15a.15.15.0 0 0-.15-.15H1705a.15.15.0 0 0-.15.15V4e2h-5v-1.15a.15.15.0 0 0-.15-.15h-.43a.15.15.0 0 0-.15.15V4e2h-1.51l-6.45-32.66h-1.11v-.72h1.09l1-4.6h-3.91l-.69.78v.74h-3.37v-.17l1.79-.88 4.83-5.41 1.71-.17.52-.43-.33-.34h-.85l-.26-.16s.58-.44.44-.81a.75.75.0 0 0-.48-.46h-.24l.17-.69-.23-.14s.33-.14.27-.35a.26.26.0 0 0-.3-.17l-.08-.2h-.11v.29l-.2.14.07.29-.17.17h-.28v-.2l.34-.58-.14-.16-.68.63v.26h-.39v-.19l.35-.58-.15-.16-.68.62v.26h-.39v-.18l.34-.58-.14-.16-.69.62v.25h-.39v-.17l.34-.58-.14-.16-.69.62v.24h-.39v-.16l.34-.58-.14-.16-.68.62v.23h-.39v-.15l.35-.58-.15-.16-.68.62v.22h-.39v-.14l.34-.59-.15-.15-.68.62v.21h-.39v-.13l.34-.59-.14-.15-.69.62v.2h-.39v-.12l.34-.59-.14-.15-.69.62v.19l-3.93-.39V352l2.57-1.26 4.84-5.41 1.7-.17.52-.43-.33-.34h-.84l-.27-.16s.58-.44.45-.81a.75.75.0 0 0-.49-.46h-.23l.17-.69-.24-.14s.33-.14.27-.35-.3-.17-.3-.17l-.08-.2h-.1v.29l-.21.14.08.29-.17.17h-.28V342l.34-.58-.14-.16-.69.63v.26h-.39v-.19l.34-.58-.14-.16-.69.63v.25h-.39v-.18l.34-.58-.14-.16-.68.62v.25h-.39v-.17l.34-.58-.14-.16-.68.62v.24h-.4v-.16l.35-.58-.15-.16-.68.62v.23h-.39v-.15l.34-.58-.14-.16-.69.62v.22h-.39v-.14l.34-.59-.14-.15-.69.62v.21h-.39v-.13l.34-.59-.14-.15-.68.62v.2h-.4v-.12l.34-.59-.14-.15-.68.62v.15c-1-.38-2.11-.79-3.17-1.24l.15-.44.34-.21v-.26l-.27.07s.07-.41.0-.42a1 1 0 0 1-.25-.16v.52h-.22l-.25-.49-.33.32.31.31-.48.33c-7.43-3.32-15.07-8.47-23-16.61h-5.66c-8 8.14-15.58 13.29-23 16.61l-.47-.33.31-.31-.33-.32-.25.49h-.22v-.52a1 1 0 0 1-.25.16c-.07.0.0.42.0.42l-.28-.07v.26l.35.21.14.44c-1.06.45-2.12.86-3.17 1.24v-.15l-.69-.62-.14.15.34.59v.12h-.39v-.2l-.68-.62-.15.15.34.59v.13h-.39v-.21l-.68-.62-.15.15.35.59v.14h-.4v-.22l-.68-.62-.14.16.34.58v.15h-.39v-.23l-.69-.62-.14.16.34.58v.16h-.39v-.24L1613 341l-.14.16.34.58v.17h-.39v-.25l-.68-.62-.15.16.34.58V342h-.39v-.25l-.68-.63-.15.16.35.58v.19h-.39v-.26l-.68-.63-.14.16.34.58v.2h-.28l-.17-.17.08-.29-.21-.14v-.29h-.11l-.08.2a.26.26.0 0 0-.3.17c0 .21.27.35.27.35l-.23.14.17.69h-.24a.75.75.0 0 0-.48.46c-.13.37.44.81.44.81l-.26.16h-.85l-.33.34.52.43 1.71.17 4.83 5.41 2.57 1.26v.85l-3.92.39v-.19l-.68-.62-.15.15.35.59v.12h-.4v-.2l-.68-.62-.14.15.34.59v.13h-.4v-.21l-.68-.62-.14.15.34.59v.14h-.39v-.22l-.69-.62-.14.16.34.58v.15h-.39v-.23l-.68-.62-.15.16.34.58v.16h-.39v-.24l-.68-.62-.15.16.35.58v.17h-.39v-.25l-.68-.62-.14.16.34.58v.18h-.39v-.26l-.68-.62-.14.16.34.58v.19h-.39v-.26l-.69-.63-.14.16.34.58v.2h-.28l-.17-.17.08-.29-.21-.14v-.29h-.1l-.09.2s-.24.0-.29.17.27.35.27.35l-.24.14.17.69h-.24a.75.75.0 0 0-.48.46c-.13.37.45.81.45.81l-.27.16h-.84l-.34.34.53.43 1.7.17 4.84 5.41 1.79.88v.17h-3.37v-.74l-.69-.78h-3.91l1 4.6h1.1v.72h-1.12L1598.83 4e2h-1.52v-1.15a.15.15.0 0 0-.14-.15h-.44a.15.15.0 0 0-.14.15V4e2h-17v.5h13.94a.37.37.0 0 0 .21.57h0a.42.42.0 0 0 .06.19h-13.86v.28h-.43l-1.15 3.09h-5.28V327.8H1567v-8.42h-4.34V313h-9v6.35h-18.22v8.47h-6.08v47L1504.1 362h-.66L1471.7 378.2v-2.49h-2V372.4h2v-4h-2v-3.31h2v-4h-2v-3.31h2v-4h-2v-3.31h2v-4h-2v-3.31h2v-4h-2V335.8h2v-4h-2v-3.31h2v-4h-2v-3.31h2v-4h-2v-3.31h2v-4h-2v-3.31h2v-4h-2V296.7h-7.64V278.19h-3v-19l-3.47.88v-4.45h-17.49v8.93l-3.47.88v12.72h-3V296.7h-6.83v5.81h-2.57v4h2.57v3.31h-2.57v4h2.57v3.31h-2.57v4h2.57v3.31h-2.57v4h2.57v3.31h-2.57v4h2.57v3.31h-2.57v4h2.57v3.31h-2.57v4h2.57v3.31h-2.57v4h2.57v3.31h-2.57v4h2.57v3.31h-2.57v4h2.57v3.31h-2.27v-2.86H1419v17.73h-41.77V330.8h-8.46V294.05h-.13l-13.79-23.77h-3.38V251.42h-.08L1350.13 234h0l-1.28 17.45h-.08v18.86h-3.38l-13.78 23.77h-.13V330.8H1323v31.92h-39.13V258.11h-6.24c-.24-4.15-2.57-7.42-5.46-7.42h-3.05V230.46h-1.23v20.23h-3c-2.89.0-5.22 3.27-5.46 7.42h-6.24v68.3l-16.35 30.3V403.1l-28.39-.13v-60.8h-9.13v-10.4h.12c.35.0.64-.42.64-.94s-.29-.93-.64-.93h-38.54c-.35.0-.64.42-.64.93s.29.94.64.94h.12v10.4h-9.13v60.55l-49.13-.22V360h-27V270.15l-39.78-46V360h-27l-24 .56V339.85h-4.81V162.73H975.8l-1.26-.71-.33.1V156h.61V127.45H934.94v-.26H907.28v.26h-.58V156h.58v11.24h-5.87V339.85h-4.82v5.8h-5.5V329.83h3.56v-2.48h-3.56V314.24h3.56v-2.49h-3.56V298.64h3.56v-2.5h-3.56V283h3.56v-2.49h-3.56v-13.1h3.56V265H882v-13.1h3.57v-2.49H882V236.24h3.57v-2.49H882v-13.1h3.57v-2.5H882V205.07h3.57v-2.51H866V198h-5.11v4.58H854v-5.92h-3.64v-2.17h-1.46v-2.91H838.78v11h-6.62V390.91h-34.93H764.06V297.24h-9.13V286.83h.12c.35.0.64-.41.64-.93s-.29-.93-.64-.93h-4.59V262h-5l-5.79-7.67h-2.94l-.82-24.63h-.18l-.81 24.64h-3L726.15 262h-5v23h-4.6c-.35.0-.64.41-.64.93s.29.93.64.93h.12v10.41H707.5v61H679.12V311.78l-16.36-30.3v-68.3h-6.24c-.24-4.15-2.57-7.42-5.46-7.42h-3V185.52h-1.23v20.24h-3c-2.89.0-5.22 3.27-5.46 7.42H632V317.79H592.9V285.87h-8.46V249.11h-.13l-13.79-23.76h-3.38V206.48h-.08L565.78 189h0l-1.28 17.45h-.08v18.87H561l-13.78 23.76h-.13v36.76h-8.47v59.77H5e2v-3.12h.79v-4.19H5e2v-3.78h.79V330.3H5e2v-3.77h.79v-4.21H5e2v-3.78h.79v-4.21H5e2v-3.78h.79v-4.2H5e2v-3.81h.79v-4.21H5e2v-3.78h.79v-4.23H5e2v-3.77h.79v-4.2H5e2v-3.78h.79v-4.2H5e2v-3.79h.79v-4.24H5e2v-3.76h.79v-4.22H5e2v-3.79h.79v-4.21H5e2v-5h.79v-4.21h-3.24v-7.43h-2V229.9h-1.1V222h-1.32l-8.56-21.69v-9.05h-1.44l-.68 1.5v1.12H463.17v-1.12l-.68-1.5h-1.43v9.05L452.51 222h-1.35v7.94h-1.1v3.85h-2v7.43h-3.23v4.21h.78v5h-.78v4.21h.78v3h-1.44v4h.66v1h.78v2.31h-1.44v4h.66v1.67h.78v1.63h-1.44v4h.66v2.34h.78v1h-1.44v4h.66v3h.78v.3h-1.44v4h.66v3.3h-.66v4h1.44v.14h-.78v3.16h-.66v4h1.44v.84h-.78v2.46h-.66v4h1.44v1.5h-.78v1.8h-.66v4h1.44v2.17h-.78v1.13h-.66v4h1.44v2.83h-.78v.47h-.66v2.5L412.44 317h-.66l-25.25 12.93v-47h-6.08v-8.47H362.23v-6.35h-9v6.35H348.9v8.42h-6.08V399.07L316.46 399V374.71h-4.68V272.55h-4.95v-2.81h-40v2.81h-4.94V374.71h-4.66v24h-5.31V328.9h-2.24v-5.27l-1.7-1.32v-5.7h-1.7v-4.82h-1.67v-4.4l-2.25-1.67H212.5l-2.26 1.68v4.42H208.6v4.82h-1.69v5.7l-1.7 1.32v5.27H203v69.57H190.32l-5-.07-.25-5.15.5-.51v-3h-7.22l3.61-24.81.58-2.22a27.3 27.3.0 0 0-5.17-1.1l4.59-32.75.58-2.22a26.8 26.8.0 0 0-5.2-1.1l4.62-32.93.58-2.22a28.17 28.17.0 0 0-5.17-1.1l4.59-32.75.58-2.22a27.64 27.64.0 0 0-5.2-1.1l4.62-32.93.58-2.21a28.17 28.17.0 0 0-5.17-1.1l4.59-32.76.58-2.21a27.32 27.32.0 0 0-5.2-1.11L181.94 148l.58-2.21a27.84 27.84.0 0 0-5.17-1.11l4.59-32.75.58-2.22s-3.18-1.51-15.6-1.51l.19-3.51.39-.39v-3.56h-5.39l3.47-37.93a51.42 51.42.0 0 0-6.55.67L158.36 51h-1.74c2.22-2.79 1.45-4.14 2.12-7.8a7.53 7.53.0 0 0-3.56.77l-.39-1.44-.67-.1L153.35.0h-3.12l-.77 42.45-.68.1L148.4 44a7.53 7.53.0 0 0-3.56-.77c.67 3.66-.1 5 2.11 7.8h-1.73l-.67 12.41a51.42 51.42.0 0 0-6.55-.67l3.47 37.93h-5.4v3.56l.4.39.19 3.51c-12.42.0-15.6 1.51-15.6 1.51l.58 2.22 4.59 32.75a27.84 27.84.0 0 0-5.17 1.11l.58 2.21 4.62 32.92a27.32 27.32.0 0 0-5.2 1.11l.58 2.21L126.23 217a28.17 28.17.0 0 0-5.17 1.1l.58 2.21 4.62 32.93a27.64 27.64.0 0 0-5.2 1.1l.58 2.22 4.59 32.75a28 28 0 0 0-5.17 1.1l.58 2.22 4.62 32.93a26.8 26.8.0 0 0-5.2 1.1l.58 2.22 4.59 32.75a27.3 27.3.0 0 0-5.17 1.1l.58 2.22 3.6 24.81H118v3l.51.51-.21 4.23h-2.28H80.1V329H72.3v-7.24H48.9v-5.43h-2V293.23H0V426H1920.89V338.17H1869v23.06h-2v5.43h-23.39v7.24h-7.81zM263.58 274.55h-1.44v-.81h1.44zm0-1h-1.44v-.72h1.44zm1.63 1H263.8v-.81h1.41zm0-1H263.8v-.72h1.41zm1.65 1h-1.38v-.81h1.38zm0-1h-1.38v-.72h1.38zm1.67 1h-1.44v-.81h1.44zm0-1h-1.44v-.72h1.44zm0-1h-1.44v-.7h1.44zm0-.93h-1.44v-.72h1.44zm0-.94h-1.44V270h1.44zm1.65 3.87h-1.42v-.81h1.42zm0-1h-1.42v-.72h1.42zm0-1h-1.42v-.7h1.42zm0-.93h-1.42v-.72h1.42zm0-.94h-1.42V270h1.42zm1.66 3.87h-1.42v-.81h1.42zm0-1h-1.42v-.72h1.42zm0-1h-1.42v-.7h1.42zm0-.93h-1.42v-.72h1.42zm0-.94h-1.42V270h1.42zm1.68 3.87h-1.44v-.81h1.44zm0-1h-1.44v-.72h1.44zm0-1h-1.44v-.7h1.44zm0-.93h-1.44v-.72h1.44zm0-.94h-1.44V270h1.44zm1.63 3.87h-1.41v-.81h1.41zm0-1h-1.41v-.72h1.41zm0-1h-1.41v-.7h1.41zm0-.93h-1.41v-.72h1.41zm0-.94h-1.41V270h1.41zm1.65 3.87h-1.45v-.81h1.45zm0-1h-1.45v-.72h1.45zm0-1h-1.45v-.7h1.45zm0-.93h-1.45v-.72h1.45zm0-.94h-1.45V270h1.45zm1.67 3.87H277v-.81h1.44zm0-1H277v-.72h1.44zm0-1H277v-.7h1.44zm0-.93H277v-.72h1.44zm0-.94H277V270h1.44zm1.65 3.87H278.7v-.81h1.42zm0-1H278.7v-.72h1.42zm0-1H278.7v-.7h1.42zm0-.93H278.7v-.72h1.42zm0-.94H278.7V270h1.42zm1.66 3.87h-1.42v-.81h1.42zm0-1h-1.42v-.72h1.42zm0-1h-1.42v-.7h1.42zm0-.93h-1.42v-.72h1.42zm0-.94h-1.42V270h1.42zm1.64 3.87H282v-.81h1.41zm0-1H282v-.72h1.41zm0-1H282v-.7h1.41zm0-.93H282v-.72h1.41zm0-.94H282V270h1.41zm1.66 3.87h-1.44v-.81h1.44zm0-1h-1.44v-.72h1.44zm0-1h-1.44v-.7h1.44zm0-.93h-1.44v-.72h1.44zm0-.94h-1.44V270h1.44zm1.65 3.87h-1.41v-.81h1.41zm0-1h-1.41v-.72h1.41zm0-1h-1.41v-.7h1.41zm0-.93h-1.41v-.72h1.41zm0-.94h-1.41V270h1.41zm1.67 3.87H287v-.81h1.44zm0-1H287v-.72h1.44zm0-1H287v-.7h1.44zm0-.93H287v-.72h1.44zm0-.94H287V270h1.44zm1.65 3.87h-1.43v-.81h1.43zm0-1h-1.43v-.72h1.43zm0-1h-1.43v-.7h1.43zm0-.93h-1.43v-.72h1.43zm0-.94h-1.43V270h1.43zm1.67 3.87h-1.44v-.81h1.44zm0-1h-1.44v-.72h1.44zm0-1h-1.44v-.7h1.44zm0-.93h-1.44v-.72h1.44zm0-.94h-1.44V270h1.44zm1.66 3.87h-1.45v-.81h1.45zm0-1h-1.45v-.72h1.45zm0-1h-1.45v-.7h1.45zm0-.93h-1.45v-.72h1.45zm0-.94h-1.45V270h1.45zm1.65 3.87h-1.42v-.81H295zm0-1h-1.42v-.72H295zm0-1h-1.42v-.7H295zm0-.93h-1.42v-.72H295zm0-.94h-1.42V270H295zm1.65.0h-1.44V270h1.44zm1.65.0H296.9V270h1.43zm1.67.0h-1.44V270H3e2zm1.64.0h-1.43V270h1.43zm1.65.0h-1.42V270h1.42zm1.66 3.87h-1.42v-.81H305zm0-1h-1.42v-.72H305zm0-1h-1.42v-.7H305zm0-.93h-1.42v-.72H305zm0-.94h-1.42V270H305zm1.67 3.87h-1.44v-.81h1.44zm0-1h-1.44v-.72h1.44zm0-1h-1.44v-.7h1.44zm0-.93h-1.44v-.72h1.44zm0-.94h-1.44V270h1.44zm1.64 3.87h-1.43v-.81h1.43zm0-1h-1.43v-.72h1.43zm1.65 1h-1.4v-.81h1.4zm0-1h-1.4v-.72h1.4zm1.67 1h-1.42v-.81h1.42zm0-1h-1.42v-.72h1.42zM915.69 162.57l-3.51 3.53-3.49-3.53zm-7-.83 3.48-3.46 3.48 3.46zm7.52 1.43v4.05h-2.91l-.54-.58zm8.42-.6-3.49 3.53-3.52-3.53zm-7-.83 3.49-3.46 3.48 3.46zm7.53 1.43v4.05h-2.91l-.56-.58zm8.39-.6-3.5 3.53-3.53-3.53zm-7-.83 3.49-3.46 3.49 3.46zm7.56 1.39v4.09h-2.93l-.58-.58zm32.75.51-1.49-1.47 3.91-3.89 3.91 3.89-.17.15zm6.5-7.66v5.21l-3.49-3.49 1.71-1.72zm-2.93.0-1.15 1.14L968.18 156zm-5.21.0H967l1.73 1.72-3.48 3.53zm0 7.15.68.71-.68.14zM934.94 156h29.49v9.09h-3.26v.85h-12.5l-2 1.3H934.94zm-.79.0v5.21l-3.48-3.49L932.4 156zm-2.91.0-1.16 1.14L928.93 156zM926 156h1.79l1.71 1.72-3.5 3.49zm0 7.19 3.5 3.47-.54.58h-3zm-.81-7.19v5.2l-3.47-3.48 1.73-1.72zm-2.91.0-1.13 1.14L920 156zm-5.22.0h1.76l1.76 1.72-3.52 3.49zm0 7.15 3.52 3.51-.58.58h-2.94zm-.84-7.15v5.2l-3.45-3.48 1.71-1.72zm-2.89.0-1.15 1.14L911 156zm-5.21.0h1.76l1.71 1.72-3.47 3.49zm0 7.19 3.47 3.47-.53.58h-2.94zm-26.43 41.9v.21l-.22-.21zm-1.11 44.29-.69-.7 1.8-1.77v2.47zm1.11 2.49v2.69l-1.8-1.76.93-.93zm-1.6-2.49h-.86l.43-.46zm1.34-15.61-1.54-1.5 1.8-1.78v3.28zm.26 2.49v1.87l-1.8-1.76.1-.11zm0-15.59v1.06l-1-1.06zm-1.8-4.83 1.8-1.76v3.54zm1.8-10v3.56l-1.8-1.8zm-2.48-.76H881l.5.49-1.81 1.81-.45-.46zm0 2.33.21.22-.21.2zm0 .9.45-.45 1.81 1.81-1.81 1.8-.45-.44zm2.48 1.63v3.56l-1.8-1.78zm-2.48 1.57.21.21-.21.21zm0 .9.45-.44 1.81 1.81-1.81 1.81-.45-.45zm0 3.21.21.21-.21.2zm0 .91.45-.45 1.81 1.8-.27.28h-2zm0 4.13h.95l1.31 1.33-1.81 1.81-.45-.46zm2.48 1.6v3.56l-1.8-1.8zm-2.48 1.57.21.19-.21.23zm0 .92.45-.47 1.81 1.82-1.81 1.79-.45-.44zm2.48 1.63v3.55l-1.8-1.78zm-2.48 1.56.21.21-.21.21zm0 .9.45-.44 1.81 1.8L879.66 232l-.45-.46zm0 3.21.21.21-.21.21zm0 .9.45-.46 1.27 1.27h-1.72zm0 3.3h.11l.1.11-.21.21zm0 .81.45-.46 1.81 1.81-1.81 1.81-.45-.45zm2.48 1.63v3.54l-1.8-1.76zm-2.48 1.57.21.21-.21.21zm0 .9.45-.46 1.81 1.82-1.81 1.8-.45-.45zm2.48 1.64v3.55l-1.8-1.79zm-2.48 1.55.21.21-.21.23zm0 .91.45-.44 1.81 1.8-1.81 1.81-.45-.45zm0 3.2.21.21-.21.22zm0 3.4h1.14l-.69.68-.45-.45zm0 .72.21.21-.21.2zm0 .9.45-.46 1.81 1.81-1.81 1.82-.45-.46zm2.48 1.63v3.55l-1.8-1.77zm-2.48 1.57.21.21-.21.21zm0 .9.45-.45 1.81 1.8-1.81 1.82-.45-.45zm2.48 1.63v3.56l-1.8-1.77zm-2.48 1.58.21.21-.21.19zm0 .9.45-.45 1.81 1.8-1.81 1.82-.45-.46zm2.48 1.63V265h-1.64zm-2.48 1.57.07.07h-.07zm-.34-59.81v1.49l-1-1 .49-.49zm-1 0-.24.24-.27-.24zm-1.49.0h.49l.49.49-1 1zm0 2 1.25-1.23 1.24 1.27v1.1l-1.24 1.26-1.25-1.23zm2.49 1.64v2l-1-1zm-2.49.0 1 1-1 1zm0 2.42 1.25-1.21 1.24 1.27v1.1l-1.24 1.27-1.25-1.25zm2.49 1.64v2l-1-1zm-2.49.05 1 1-1 1zm0 2.43 1.25-1.22 1.24 1.26v1.12l-1.24 1.24-1.25-1.21zm2.31 5.42-1.06 1.08-1.09-1.08zm-1.12-2.5h.06v0zm1.3 2.82v2l-1-1zm-.72-2.82-.29-.28 1-1v1.28zm-1.77-1.24 1 1-.27.28h-.71zm0 4.09 1 1-1 1zm0 2.45 1.25-1.23 1.24 1.25v1.11l-1.24 1.27-1.25-1.24zm2.49 1.63v2l-1-1zm-2.49.0 1 1-1 1zm0 2.46 1.25-1.23 1.24 1.26v1.1L877.63 230l-1.25-1.21zm2.49 1.63v2l-1-1zm-2.49.0 1 1-1 1zm0 2.43 1.25-1.22 1.24 1.25v1.11l-.94 1h-.61l-.94-.92zm2.49 1.64v.46h-.48zm-2.49.0.45.43h-.45zm0 2.92h2.49v.66l-1.24 1.25-1.25-1.21zm2.49 1.16v2l-1-1zm-2.49.0 1 1-1 1zm0 2.45 1.25-1.21 1.24 1.24V241l-1.24 1.27-1.25-1.22zm2.49 1.62v2l-1-1zm-2.49.0 1 1-1 1zm0 2.43 1.25-1.21 1.24 1.25v1.11l-1.24 1.25-1.25-1.23zm2.49 1.63v2l-1-1zm-2.49.0 1 1-1 1zm0 2.44 1.25-1.21 1.24 1.26v1.1l-.13.14h-2.27l-.09-.11zm0 4.12.33-.34h1.79l.37.36v1.11l-1.24 1.25-1.25-1.22zm2.49 1.63v2l-1-1zm-2.49.0 1 1-1 1zm0 2.45 1.25-1.23 1.24 1.26v1.1l-1.24 1.26-1.25-1.21zm2.49 1.63v2l-1-1zm-2.49.0 1 1-1 1zm0 2.44 1.25-1.21 1.24 1.25v1.09l-1.24 1.28-1.25-1.23zm2.49 1.64v2l-1-1zm-2.49.0 1 1-1 1zm0 2.44 1.25-1.23 1.24 1.26V265h-2.49zm-.33-59.43v1.81l-.5.49-1.8-1.81.5-.49zm-.5 59.78-1.48-1.51v-.62l1.48-1.49.5.49v2.64zm.5.0v.1H876zm-.88.1h-1.1v-1.12zm-1.1-2.72v-2.5l1.24 1.26zM875.8 261l.25-.25v.49zm-.25-.25-1.48-1.5v-.62l1.48-1.5.5.5v2.63zm.25-3.86.25-.24v.48zm-.25-.24-1.8-1.82 1.8-1.81.5.5v2.64zm.25-3.86.25-.25V253zm-.25-.25-.67-.68h1.17V252zm-.43-3.17.43-.46.45.46zm.68-.7.25-.24v.48zm-.25-.24-1.8-1.81 1.8-1.8.5.48v2.64zm.25-3.87.25-.24v.5zm-.25-.24-1.8-1.8 1.8-1.82.5.49v2.64zm.25-3.85.25-.25v.48zm-.25-.25-1.8-1.81 1.8-1.81.5.48v2.65zm.25-3.86.11-.11h.14v.35zm-1.51-2.6 1.26-1.27.5.5v.77zm1.51-1.5.25-.25v.48zm-.25-.25-1.8-1.81 1.8-1.8.5.5v2.61zm.25-3.86.25-.26v.5zm-.25-.26-1.8-1.79 1.8-1.82.5.49v2.63zm.25-3.87.25-.22v.48zm-.25-.22-1.8-1.81 1.32-1.33h1v2.65zM874 218.15l-.29-.28 1.8-1.8.5.49v1.59zm1.76-2.33.25-.24v.49zm-.25-.24-1.8-1.81 1.8-1.81.5.48v2.64zm.25-3.87.25-.25v.5zm-.25-.25-1.8-1.8 1.8-1.81.5.49V211zm.25-3.84.25-.25v.48zm-2.23-2.55h.2l-.2.16zm0 .8 1.74 1.72-1.74 1.75zm0 4.1 1.74 1.74-1.74 1.75zm0 4.11 1.74 1.74-1.74 1.74zm0 6.57h1l-1 1zm0 1.64 1.74 1.72-1.74 1.77zm0 4.1 1.74 1.75-1.74 1.74zm0 4.12 1.74 1.74-1.49 1.5h-.25zm0 5.73h1.66l.08.11-1.74 1.75zm0 2.48 1.74 1.74-1.74 1.74zm0 4.09 1.74 1.74-1.74 1.74zm0 4.12 1.74 1.73-.68.7h-1.06zm0 4.92h.82l.92.93-1.74 1.72zm0 3.28.5.48 1.24 1.27-1.24 1.25v-2.52h-.5zm-.86-50.06h.51v13.08h-.51zm0 15.58h.51v13.1h-.51zm0 15.59h.51v13.12h-.51zm0 15.61h.51v3.76h-.51zm723.88 149.42h-2.17a.42.42.0 0 0 .06-.19h0a.37.37.0 0 0 .21-.57h1.67a.37.37.0 0 0 .21.57h0a.44.44.0 0 0 0 .1zm2 0h-1.27v-.09a.44.44.0 0 0 0-.1h0a.37.37.0 0 0 .21-.57h1.19zm40.88.0h-2v-.77h1.79a.39.39.0 0 0-.08.21.37.37.0 0 0 .29.36h0a.44.44.0 0 0 0 .1zm.72.0v-.09a.44.44.0 0 0 0-.1h0a.38.38.0 0 0 .28-.36.32.32.0 0 0-.08-.21h1.68a.39.39.0 0 0-.08.21.37.37.0 0 0 .29.36h0a.33.33.0 0 0 .06.19zm5 0H1643a.34.34.0 0 0 .07-.19h0a.38.38.0 0 0 .28-.36.32.32.0 0 0-.08-.21h1.68a.39.39.0 0 0-.08.21.37.37.0 0 0 .29.36h0a.44.44.0 0 0 0 .1zm.72.0v-.09a.44.44.0 0 0 0-.1h0a.38.38.0 0 0 .28-.36.32.32.0 0 0-.08-.21h1.5a.37.37.0 0 0 .21.57h0a.33.33.0 0 0 .06.19zm5 0h-2.35a.42.42.0 0 0 .06-.19h0a.38.38.0 0 0 .28-.36.32.32.0 0 0-.08-.21h1.86a.39.39.0 0 0-.08.21.37.37.0 0 0 .29.36h0a.44.44.0 0 0 0 .1zm.72.0v-.09a.44.44.0 0 0 0-.1h0a.38.38.0 0 0 .28-.36.32.32.0 0 0-.08-.21h1.68a.39.39.0 0 0-.08.21.37.37.0 0 0 .29.36h0a.33.33.0 0 0 .06.19zm5 0h-2.18a.34.34.0 0 0 .07-.19h0a.38.38.0 0 0 .28-.36.32.32.0 0 0-.08-.21h1.68a.39.39.0 0 0-.08.21.37.37.0 0 0 .29.36h0a.44.44.0 0 0 0 .1zm2.47.0h-1.75v-.1a.29.29.0 0 0 0-.09h0a.38.38.0 0 0 .28-.36.32.32.0 0 0-.08-.21H1659zm0-4.61h-.88v.91l.53.26v.6l.35.17V4e2h-1.75v-1.15a.15.15.0 0 0-.15-.15h-.43a.15.15.0 0 0-.14.15V4e2h-5v-1.15a.15.15.0 0 0-.15-.15H1651a.15.15.0 0 0-.14.15V4e2h-5v-1.15a.15.15.0 0 0-.15-.15h-.43a.15.15.0 0 0-.14.15V4e2h-5v-1.15a.15.15.0 0 0-.15-.15h-.43a.15.15.0 0 0-.14.15V4e2h-2v-1.4l.35-.17v-.6l.54-.26v-.91h-.89V385.54a10.8 10.8.0 1 1 21.59.0zm40.13 4.61h-1.26l-.16-.77h1.2a.32.32.0 0 0-.08.21.38.38.0 0 0 .28.36h0a.36.36.0 0 0 0 .1zm.73.0v-.09a.44.44.0 0 0 0-.1h0a.38.38.0 0 0 .28-.36.32.32.0 0 0-.08-.21h1.68a.32.32.0 0 0-.08.21.38.38.0 0 0 .28.36h0a.34.34.0 0 0 .07.19zm5 0h-2.17a.34.34.0 0 0 .07-.19h0a.38.38.0 0 0 .28-.36.32.32.0 0 0-.08-.21h1.68a.32.32.0 0 0-.08.21.38.38.0 0 0 .28.36h0s0 .07.0.1z"/><path class="cls-2" d="M1272.59 264.81h5.42v7.95H1272.59z"/><path class="cls-2" d="M1272.59 275.87h5.42v7.95H1272.59z"/><path class="cls-2" d="M1272.59 286.92h5.42v7.95H1272.59z"/><path class="cls-2" d="M1272.59 297.98h5.42v7.95H1272.59z"/><path class="cls-2" d="M1272.59 309.03h5.42v7.95H1272.59z"/><path class="cls-2" d="M1272.59 320.09h5.42v7.95H1272.59z"/><path class="cls-2" d="M1272.59 331.14h5.42v7.95H1272.59z"/><path class="cls-2" d="M1272.59 342.2h5.42v7.95H1272.59z"/><path class="cls-2" d="M1272.59 353.25h5.42v7.95H1272.59z"/><path class="cls-2" d="M481 251.34h6.69v7.09H481z"/><path class="cls-2" d="M481 261.2h6.69v7.09H481z"/><path class="cls-2" d="M481 271.06h6.69v7.09H481z"/><path class="cls-2" d="M481 280.93h6.69v7.09H481z"/><path class="cls-2" d="M481 290.79h6.69v7.09H481z"/><path class="cls-2" d="M481 300.65h6.69v7.09H481z"/><path class="cls-2" d="M481 310.52h6.69v7.09H481z"/><path class="cls-2" d="M481 320.38h6.69v7.09H481z"/><path class="cls-2" d="M481 330.25h6.69v7.09H481z"/><path class="cls-2" d="M472.4 251.34h6.69v7.09H472.4z"/><path class="cls-2" d="M472.4 261.2h6.69v7.09H472.4z"/><path class="cls-2" d="M472.4 271.06h6.69v7.09H472.4z"/><path class="cls-2" d="M472.4 280.93h6.69v7.09H472.4z"/><path class="cls-2" d="M472.4 290.79h6.69v7.09H472.4z"/><path class="cls-2" d="M472.4 300.65h6.69v7.09H472.4z"/><path class="cls-2" d="M472.4 310.52h6.69v7.09H472.4z"/><path class="cls-2" d="M472.4 320.38h6.69v7.09H472.4z"/><path class="cls-2" d="M472.4 330.25h6.69v7.09H472.4z"/><path class="cls-2" d="M463.8 251.34h6.69v7.09H463.8z"/><path class="cls-2" d="M463.8 261.2h6.69v7.09H463.8z"/><path class="cls-2" d="M463.8 271.06h6.69v7.09H463.8z"/><path class="cls-2" d="M463.8 280.93h6.69v7.09H463.8z"/><path class="cls-2" d="M463.8 290.79h6.69v7.09H463.8z"/><path class="cls-2" d="M463.8 300.65h6.69v7.09H463.8z"/><path class="cls-2" d="M463.8 310.52h6.69v7.09H463.8z"/><path class="cls-2" d="M463.8 320.38h6.69v7.09H463.8z"/><path class="cls-2" d="M463.8 330.25h6.69v7.09H463.8z"/><path class="cls-2" d="M455.21 251.34h6.69v7.09H455.21z"/><path class="cls-2" d="M455.21 261.2h6.69v7.09H455.21z"/><path class="cls-2" d="M455.21 271.06h6.69v7.09H455.21z"/><path class="cls-2" d="M455.21 280.93h6.69v7.09H455.21z"/><path class="cls-2" d="M455.21 290.79h6.69v7.09H455.21z"/><path class="cls-2" d="M455.21 300.65h6.69v7.09H455.21z"/><path class="cls-2" d="M455.21 310.52h6.69v7.09H455.21z"/><path class="cls-2" d="M455.21 320.38h6.69v7.09H455.21z"/><path class="cls-2" d="M455.21 330.25h6.69v7.09H455.21z"/><path class="cls-2" d="M716.02 310.13h39.45v5.97H716.02z"/><path class="cls-2" d="M716.02 318.43h39.45v5.97H716.02z"/><path class="cls-2" d="M716.02 326.74h39.45v5.97H716.02z"/><path class="cls-2" d="M716.02 335.05h39.45v5.97H716.02z"/><path class="cls-2" d="M716.02 343.36h39.45v5.97H716.02z"/><path class="cls-2" d="M716.02 351.66h39.45v5.97H716.02z"/><path class="cls-2" d="M716.02 359.97h39.45v5.97H716.02z"/><path class="cls-2" d="M716.02 368.28h39.45v5.97H716.02z"/><path class="cls-2" d="M716.02 376.59h39.45v5.97H716.02z"/><path class="cls-2" d="M1559.03 335.27h5.49v7.39H1559.03z"/><path class="cls-2" d="M1559.03 345.55h5.49v7.39H1559.03z"/><path class="cls-2" d="M1559.03 355.83h5.49v7.39H1559.03z"/><path class="cls-2" d="M1559.03 366.11h5.49v7.39H1559.03z"/><path class="cls-2" d="M1559.03 376.39h5.49v7.39H1559.03z"/><path class="cls-2" d="M1559.03 386.67h5.49v7.39H1559.03z"/><path class="cls-2" d="M1559.03 396.94h5.49v7.39H1559.03z"/><path class="cls-2" d="M1551.98 335.27h5.49v7.39H1551.98z"/><path class="cls-2" d="M1551.98 345.55h5.49v7.39H1551.98z"/><path class="cls-2" d="M1551.98 355.83h5.49v7.39H1551.98z"/><path class="cls-2" d="M1551.98 366.11h5.49v7.39H1551.98z"/><path class="cls-2" d="M1551.98 376.39h5.49v7.39H1551.98z"/><path class="cls-2" d="M1551.98 386.67h5.49v7.39H1551.98z"/><path class="cls-2" d="M1551.98 396.94h5.49v7.39H1551.98z"/><path class="cls-2" d="M1544.92 335.27h5.49v7.39H1544.92z"/><path class="cls-2" d="M1544.92 345.55h5.49v7.39H1544.92z"/><path class="cls-2" d="M1544.92 355.83h5.49v7.39H1544.92z"/><path class="cls-2" d="M1544.92 366.11h5.49v7.39H1544.92z"/><path class="cls-2" d="M1544.92 376.39h5.49v7.39H1544.92z"/><path class="cls-2" d="M1544.92 386.67h5.49v7.39H1544.92z"/><path class="cls-2" d="M1544.92 396.94h5.49v7.39H1544.92z"/><path class="cls-2" d="M1537.86 335.27h5.49v7.39H1537.86z"/><path class="cls-2" d="M1537.86 345.55h5.49v7.39H1537.86z"/><path class="cls-2" d="M1537.86 355.83h5.49v7.39H1537.86z"/><path class="cls-2" d="M1537.86 366.11h5.49v7.39H1537.86z"/><path class="cls-2" d="M1537.86 376.39h5.49v7.39H1537.86z"/><path class="cls-2" d="M1537.86 386.67h5.49v7.39H1537.86z"/><path class="cls-2" d="M1537.86 396.94h5.49v7.39H1537.86z"/><path class="cls-2" d="M908.7 129.57h63.38v24.06H908.7z"/><path class="cls-2" d="M955.65 194.24h10.74v9.31H955.65z"/><path class="cls-2" d="M955.65 207.2h10.74v9.31H955.65z"/><path class="cls-2" d="M955.65 220.15h10.74v9.31H955.65z"/><path class="cls-2" d="M955.65 233.1h10.74v9.31H955.65z"/><path class="cls-2" d="M955.65 246.06h10.74v9.31H955.65z"/><path class="cls-2" d="M955.65 259.01h10.74v9.31H955.65z"/><path class="cls-2" d="M955.65 271.96h10.74v9.31H955.65z"/><path class="cls-2" d="M955.65 284.92h10.74v9.31H955.65z"/><path class="cls-2" d="M955.65 297.87h10.74v9.31H955.65z"/><path class="cls-2" d="M941.85 194.24h10.74v9.31H941.85z"/><path class="cls-2" d="M941.85 207.2h10.74v9.31H941.85z"/><path class="cls-2" d="M941.85 220.15h10.74v9.31H941.85z"/><path class="cls-2" d="M941.85 233.1h10.74v9.31H941.85z"/><path class="cls-2" d="M941.85 246.06h10.74v9.31H941.85z"/><path class="cls-2" d="M941.85 259.01h10.74v9.31H941.85z"/><path class="cls-2" d="M941.85 271.96h10.74v9.31H941.85z"/><path class="cls-2" d="M941.85 284.92h10.74v9.31H941.85z"/><path class="cls-2" d="M941.85 297.87h10.74v9.31H941.85z"/><path class="cls-2" d="M928.06 194.24h10.74v9.31H928.06z"/><path class="cls-2" d="M928.06 207.2h10.74v9.31H928.06z"/><path class="cls-2" d="M928.06 220.15h10.74v9.31H928.06z"/><path class="cls-2" d="M928.06 233.1h10.74v9.31H928.06z"/><path class="cls-2" d="M928.06 246.06h10.74v9.31H928.06z"/><path class="cls-2" d="M928.06 259.01h10.74v9.31H928.06z"/><path class="cls-2" d="M928.06 271.96h10.74v9.31H928.06z"/><path class="cls-2" d="M928.06 284.92h10.74v9.31H928.06z"/><path class="cls-2" d="M928.06 297.87h10.74v9.31H928.06z"/><path class="cls-2" d="M914.26 194.24H925v9.31H914.26z"/><path class="cls-2" d="M914.26 207.2H925v9.31H914.26z"/><path class="cls-2" d="M914.26 220.15H925v9.31H914.26z"/><path class="cls-2" d="M914.26 233.1H925v9.31H914.26z"/><path class="cls-2" d="M914.26 246.06H925v9.31H914.26z"/><path class="cls-2" d="M914.26 259.01H925v9.31H914.26z"/><path class="cls-2" d="M914.26 271.96H925v9.31H914.26z"/><path class="cls-2" d="M914.26 284.92H925v9.31H914.26z"/><path class="cls-2" d="M914.26 297.87H925v9.31H914.26z"/></g></g></svg>