<svg xmlns="http://www.w3.org/2000/svg" viewBox="0 0 1401.04 325.27"><defs><style>.cls-1{fill:#f5e69a}.cls-2{fill:none}</style></defs><title>home-star-y</title><g class="star-y"><path class="cls-1" d="M14 125c-.2-10.72-3.27-13.68-14-13.48 10.72-.2 13.68-3.27 13.48-14 .2 10.72 3.27 13.68 14 13.48C16.75 111.21 13.79 114.28 14 125z"/><path class="cls-1" d="M122.93 222c-.15-8.34-2.54-10.64-10.88-10.49 8.34-.15 10.64-2.54 10.49-10.87.15 8.33 2.54 10.63 10.88 10.48C125.08 211.22 122.78 213.61 122.93 222z"/><path class="cls-1" d="M306.9 228.06c-.13-6.86-2.1-8.76-9-8.63 6.86-.13 8.76-2.09 8.63-9 .13 6.86 2.09 8.75 8.95 8.63C308.66 219.23 306.77 221.2 306.9 228.06z"/><path class="cls-1" d="M373.38 143.36c-.15-8.28-2.52-10.57-10.8-10.42 8.28-.15 10.56-2.52 10.41-10.8.15 8.28 2.53 10.56 10.81 10.41C375.52 132.7 373.23 135.08 373.38 143.36z"/><path class="cls-1" d="M1390.9 218.53c-.13-7.23-2.2-9.23-9.43-9.09 7.23-.14 9.23-2.21 9.09-9.43.14 7.22 2.21 9.22 9.44 9.09C1392.77 209.23 1390.77 211.3 1390.9 218.53z"/><path class="cls-1" d="M1095.65 140.07c-.19-10.51-3.21-13.42-13.72-13.22 10.51-.2 13.42-3.21 13.22-13.72.2 10.51 3.21 13.42 13.72 13.22C1098.36 126.55 1095.46 129.56 1095.65 140.07z"/><path class="cls-1" d="M1006.85 211.69c-.09-5-1.53-6.4-6.54-6.3 5-.1 6.4-1.53 6.31-6.54.09 5 1.52 6.39 6.54 6.3C1008.14 205.24 1006.76 206.68 1006.85 211.69z"/><path class="cls-2" d="M1.04.0h14e2v325.27H1.04z"/><animate attributeType="auto" attributeName="opacity" dur="1.2s" values="0.2;1;0.2" repeatCount="indefinite" begin="0"/></g></svg>