<svg xmlns="http://www.w3.org/2000/svg" xmlns:xlink="http://www.w3.org/1999/xlink" viewBox="0 0 43.8 55.85"><defs><style>.cls-1{fill:none}.cls-2{fill:#f3f3f1}.cls-3{fill:#ededeb;opacity:.8}.cls-4{clip-path:url(#clip-path)}.cls-5{fill:#e8e8dc}</style><clipPath id="clip-path"><path class="cls-1" d="M40 38A26.53 26.53.0 0 1 3.87 48.12c-12.77-7.19 9.55-8.25 16.74-21S17.14-5.3 29.91 1.89A26.53 26.53.0 0 1 40 38z"/></clipPath></defs><title>home-moon</title><g id="圖層_2" data-name="圖層 2"><g id="首頁-n"><path class="cls-2" d="M40 38A26.53 26.53.0 0 1 3.87 48.12c-12.77-7.19 9.55-8.25 16.74-21S17.14-5.3 29.91 1.89A26.53 26.53.0 0 1 40 38z"/><path class="cls-3" d="M40 38A26.53 26.53.0 0 1 3.87 48.12c-12.77-7.19 25.2 2.33 34.5-19.83C46.47 9 17.14-5.3 29.91 1.89A26.53 26.53.0 0 1 40 38z"/><g class="cls-4"><circle class="cls-5" cx="34.92" cy="38.38" r="8.88"/><circle class="cls-5" cx="17.69" cy="49.93" r="5.91"/><circle class="cls-5" cx="30.94" cy="21.89" r="4.18"/></g></g></g></svg>