<svg xmlns="http://www.w3.org/2000/svg" viewBox="0 0 1400 325.27"><defs><style>.cls-1{fill:#f2f2f3}.cls-2{fill:none}</style></defs><title>home-star-w</title><g class="star-w"><path class="cls-1" d="M458.68 196.5c0-5.64-1.54-7.23-7-7.23 5.45.0 7-1.59 7-7.24.0 5.65 1.53 7.24 7 7.24C460.21 189.27 458.68 190.86 458.68 196.5z"/><path class="cls-1" d="M221.69 131.7c0-8.14-2.21-10.43-10.07-10.43 7.86.0 10.07-2.29 10.07-10.44.0 8.15 2.21 10.44 10.07 10.44C223.9 121.27 221.69 123.56 221.69 131.7z"/><path class="cls-1" d="M97.69 202.83c0-4.34-1.18-5.56-5.37-5.56 4.19.0 5.37-1.22 5.37-5.57.0 4.35 1.18 5.57 5.37 5.57C98.87 197.27 97.69 198.49 97.69 202.83z"/><path class="cls-1" d="M1287.69 119.28c0-4.69-1.32-6-6-6 4.69.0 6-1.32 6-6 0 4.69 1.32 6 6 6C1289 113.27 1287.69 114.59 1287.69 119.28z"/><path class="cls-1" d="M1209.69 201.27c0-7.15-2-9.16-9.16-9.16 7.15.0 9.16-2 9.16-9.16.0 7.15 2 9.16 9.16 9.16C1211.7 192.11 1209.69 194.12 1209.69 201.27z"/><path class="cls-1" d="M951.45 190.43c0-8.52-2.4-10.92-10.92-10.92 8.52.0 10.92-2.39 10.92-10.91.0 8.52 2.39 10.91 10.91 10.91C953.84 179.51 951.45 181.91 951.45 190.43z"/><path class="cls-2" d="M0 0h14e2v325.27H0z"/><animate attributeType="auto" attributeName="opacity" dur="1.2s" values="0.2;1;0.2" repeatCount="indefinite" begin=".6s"/></g></svg>