<svg xmlns="http://www.w3.org/2000/svg" viewBox="0 -2 97.71 70"><defs><style>.cls-1{fill:#e1dcdd;stroke-width:1.85px}.cls-1,.cls-2,.cls-5,.cls-7{stroke:#4d3224}.cls-1,.cls-10,.cls-5{stroke-linecap:round;stroke-linejoin:round}.cls-2{fill:#80d8d6;stroke-width:1.41px}.cls-2,.cls-7{stroke-miterlimit:10}.cls-3,.cls-6{opacity:.8}.cls-4,.cls-6{fill:#d0ebea}.cls-5{fill:#4d3224;stroke-width:1.48px}.cls-7{fill:#ffefba;stroke-width:1.39px}.cls-8{fill:#4e342e}.cls-9{fill:#b3b3b3}.cls-10{fill:none;stroke:#e3e3e3;stroke-width:.71px}.Body{-webkit-animation:shock-An 2s linear infinite;animation:shock-An 2s linear infinite}@keyframes shock-An{0%{-webkit-transform:translateY(0px);transform:translateY(0px)}15%{-webkit-transform:translateY(-2px);transform:translateY(-2px)}30%{-webkit-transform:translateY(0px);transform:translateY(0px)}40%{-webkit-transform:translateY(0px);transform:translateY(0px)}55%{-webkit-transform:translateY(-2px);transform:translateY(-2px)}70%{-webkit-transform:translateY(0px);transform:translateY(0px)}85%{-webkit-transform:translateY(-2px);transform:translateY(-2px)}100%{-webkit-transform:translateY(0px);transform:translateY(0px)}}</style></defs><title>home-traffic-after-03</title><g class="Body"><path class="cls-1" d="M96.78 53.37l-4.37-48A4.42 4.42.0 0 0 88 .92H45.23c-2.94.0-5 2.11-6.86 4.37C33.13 11.52 21.69 24 20.79 25.17c-.06.08-9.75 1.38-15.26 2.13a4.76 4.76.0 0 0-4.11 4.22L1 51.84c-.65 4.21 1.75 6 5.53 6H91.44S96.59 57 96.78 53.37z"/><path class="cls-2" d="M61.74 25.7H33.1A1.64 1.64.0 0 1 31.84 23L46.65 5.29a1.68 1.68.0 0 1 1.26-.59H61.74a2.14 2.14.0 0 1 2.13 2.13V23.56A2.14 2.14.0 0 1 61.74 25.7z"/><path class="cls-2" d="M86.93 25.7H70.66a2.24 2.24.0 0 1-2.24-2.25V6.94a2.24 2.24.0 0 1 2.24-2.25H85.18a2.25 2.25.0 0 1 2.25 2.25l1.74 16.51A2.25 2.25.0 0 1 86.93 25.7z"/><g class="cls-3"><path class="cls-4" d="M61.9 5.48l-4.07.06L41.49 25.11l8-.28L63 7.72S63.93 5.61 61.9 5.48z"/></g><path class="cls-5" d="M39.36 29.74c-.83.0-2.39-1.45-3.56-2.68A3 3 0 0 1 35.67 23c1.18-1.34 2.82-2.64 3.68-2.64h0A2.63 2.63.0 0 1 42 23v4.14A2.64 2.64.0 0 1 39.36 29.74z"/><path class="cls-6" d="M63.11 13.95 54.6 24.84 52.01 24.93 63.22 10.62 63.11 13.95z"/><path class="cls-6" d="M76.87 25.02 87.2 11.82 86.85 9.06 74.45 24.91 76.87 25.02z"/><path class="cls-7" d="M1.12 43.65h4.8c4.29.0 5.38-1.21 6.26-3.42.0.0 2.12-4-3.21-4H3.21S1 36.18 1 39z"/></g><g class="Tires"><animateTransform attributeName="transform" dur="260ms" from="0 80.78 57.01" to="-360 80.78 57.01" type="rotate" attributeType="auto" repeatCount="indefinite" /><circle class="cls-8" cx="80.78" cy="57.01" r="10"/><circle class="cls-9" cx="80.78" cy="57.01" r="6.05"/><path class="cls-10" d="M85.55 57a4.78 4.78.0 0 0-3-4.41"/><path class="cls-10" d="M77.42 60.33A4.75 4.75.0 0 1 76 57"/></g><g class="Tires"><animateTransform attributeName="transform" dur="260ms" from="0 26.28 57.01" to="-360 26.28 57.01" type="rotate" attributeType="auto" repeatCount="indefinite" /><circle class="cls-8" cx="26.28" cy="57.01" r="10"/><circle class="cls-9" cx="26.28" cy="57.01" r="6.05"/><path class="cls-10" d="M31.05 57a4.78 4.78.0 0 0-2.95-4.41"/><path class="cls-10" d="M22.92 60.33A4.75 4.75.0 0 1 21.52 57"/></g></svg>