<svg xmlns="http://www.w3.org/2000/svg" viewBox="0 -2 126.45 68"><defs><style>.cls-1{fill:#f2f2f3}.cls-1,.cls-2,.cls-3,.cls-7{stroke:#4d3224}.cls-1,.cls-10,.cls-7{stroke-linecap:round;stroke-linejoin:round}.cls-1,.cls-7{stroke-width:1.66px}.cls-2{fill:#80d8d6;stroke-width:1.59px}.cls-2,.cls-3{stroke-miterlimit:10}.cls-3{fill:#ffefba;stroke-width:1.57px}.cls-4{opacity:.8}.cls-5{fill:#d0ebea}.cls-6{fill:#dfe0e0}.cls-7,.cls-9{fill:#b3b3b3}.cls-8{fill:#4e342e}.cls-10{fill:none;stroke:#e3e3e3;stroke-width:.71px}.Body{-webkit-animation:shock-An 2s linear infinite;animation:shock-An 2s linear infinite}@keyframes shock-An{0%{-webkit-transform:translateY(0px);transform:translateY(0px)}15%{-webkit-transform:translateY(-2px);transform:translateY(-2px)}30%{-webkit-transform:translateY(0px);transform:translateY(0px)}40%{-webkit-transform:translateY(0px);transform:translateY(0px)}55%{-webkit-transform:translateY(-2px);transform:translateY(-2px)}70%{-webkit-transform:translateY(0px);transform:translateY(0px)}85%{-webkit-transform:translateY(-2px);transform:translateY(-2px)}100%{-webkit-transform:translateY(0px);transform:translateY(0px)}}</style></defs><title>home-traffic-before-01</title><g class="Body"><path class="cls-1" d="M.83 25.92V47.43c0 3 1.13 5.49 4.17 5.49l110.68.3c3.66.0 9.81-1 9.55-8.18.0.0.52-9.33.36-11.87-.26-4-3.69-6.11-6.87-7.74a50.12 50.12.0 0 0-10.73-4c-3.5-.88-7.22-1.21-10.45-2.94-2.79-1.48-4.76-3.85-7.25-5.71C81.05 5.86 75.94.83 51.47.83c-18 0-31.73 6.06-40.41 16.58-.4.48-3.08 1.83-7.36 3.49C2.17 21.5.83 22.66.83 25.92z"/><path class="cls-2" d="M54 5c17.71.0 31.59 8.18 36.55 17.36a1.77 1.77.0 0 1-1.76 2.5H53.67a1.84 1.84.0 0 1-1.94-1.74V6.71C51.73 5.64 52.78 5 54 5z"/><path class="cls-2" d="M43.61 5c-16.14.0-28 11.38-29.8 17.36a1.74 1.74.0 0 0 1.6 2.5H43.86a1.75 1.75.0 0 0 1.77-1.74V10.16C45.63 6.47 45.45 5 43.61 5z"/><path class="cls-3" d="M125.48 38.38h-5.41c-4.83.0-6.06-1.37-7-3.85.0.0-2.38-4.49 3.62-4.49h6.48s2.45-.08 2.47 3.13z"/><g class="cls-4"><path class="cls-5" d="M52.71 11.16 64.78 23.94H68.54L52.66 7.02 52.71 11.16z"/><path class="cls-5" d="M81.71 24 65.1 7s-6.36-1.36-9.49-1.24L72.83 24"/></g><path class="cls-5" d="M25 11.39 35.21 24l-3.66.13-8.9-11A19.5 19.5.0 0 1 25 11.39z"/><path class="cls-6" d="M124 47.34H2.14s-1.87 4.79 4.37 5l111.05-.2S123 52.13 124 47.34z"/><path class="cls-7" d="M87.77 27.28c.94.0 2.7-1.63 4-3a3.42 3.42.0 0 0 .15-4.57c-1.33-1.51-3.18-3-4.15-3h0a3 3 0 0 0-3 2.94v4.67A3 3 0 0 0 87.77 27.28z"/></g><g class="Tires"><animateTransform attributeName="transform" dur="260ms" from="0 96.62 50.44" to="360 96.62 50.44" type="rotate" attributeType="auto" repeatCount="indefinite" /><circle class="cls-8" cx="96.62" cy="50.44" r="10"/><circle class="cls-9" cx="96.62" cy="50.44" r="6.05"/><path class="cls-10" d="M101.38 50.4A4.78 4.78.0 0 0 98.43 46"/><path class="cls-10" d="M93.25 53.76a4.74 4.74.0 0 1-1.39-3.36"/></g><g class="Tires"><animateTransform attributeName="transform" dur="260ms" from="0 23.12 50.44" to="360 23.12 50.44" type="rotate" attributeType="auto" repeatCount="indefinite" /><circle class="cls-8" cx="23.12" cy="50.44" r="10"/><circle class="cls-9" cx="23.12" cy="50.44" r="6.05"/><path class="cls-10" d="M27.88 50.4A4.78 4.78.0 0 0 24.93 46"/><path class="cls-10" d="M19.75 53.76a4.74 4.74.0 0 1-1.39-3.36"/></g></svg>