<svg xmlns="http://www.w3.org/2000/svg" viewBox="0 0 1400 325.27"><defs><style>.cls-1{opacity:.5}.cls-2{fill:#c6e9ff;opacity:.44}.cls-3{fill:#d1e7ff}.cls-4{fill:none}</style></defs><title>home-cloud03</title><g id="圖層_2" data-name="圖層 2"><g id="首頁"><g class="cls-1"><path class="cls-2" d="M1211.12 115.35h-.07a6.31 6.31.0 0 0 .07-.76 6 6 0 0 0-9.14-5.15 10.07 10.07.0 0 0-18.13 4.4h-.12a6 6 0 0 0 0 12.07h27.39a5.28 5.28.0 0 0 0-10.55z"/><path class="cls-3" d="M1211.12 115.35h-.07a6.31 6.31.0 0 0 .07-.76 6 6 0 0 0-9.14-5.15 10.07 10.07.0 0 0-18.13 4.4h-.12a6 6 0 0 0-3.2.92c1.33-.12 4.15-.1 5.71 1.49.0-7.91 8.59-7.87 10.88-5.75-3.7.79-5.54 4.65-5.54 4.65 2.45-3.22 8.28-2.12 9.22-1.06 1.67-3.18 8.85-1.89 8.78 3.63 2-1.93 4.84-.72 6.14.34A5.26 5.26.0 0 0 1211.12 115.35z"/></g><g class="cls-1"><path class="cls-2" d="M341.46 233.58a2.16 2.16.0 0 1 2-1.52h.28a2.52 2.52.0 0 1 2.42-2.08 2.07 2.07.0 0 1 .5.06 3.81 3.81.0 0 1 3.68-3.35 3.71 3.71.0 0 1 3.09 1.73 4.48 4.48.0 0 1 2.45-.72 4.92 4.92.0 0 1 4.77 5.06c0 .1.0.21.0.31a2.3 2.3.0 0 1 1.36.63 3.82 3.82.0 0 1 1.78-.45c2.58.0 4 1.62 4 4.23v.15a4.11 4.11.0 0 1-3.73 4.07H342.68a3.91 3.91.0 0 1-2.8-1.49 4.41 4.41.0 0 1-.93-2.73A4.24 4.24.0 0 1 341.46 233.58z"/><path class="cls-3" d="M362 235.73c-.22-1.24-1.67-1.91-2.43-1 .29-4.48-5.32-5.07-6.52-3.6-.34-1.24-3.83-2.13-5.13.0a2.07 2.07.0 0 0-3.06 2.26c-1.3-1.46-3.17.6-2.53 1.65a1.23 1.23.0 0 0-1.79-.82 3.9 3.9.0 0 1 .94-.56 2.16 2.16.0 0 1 2-1.52h.28a2.52 2.52.0 0 1 2.42-2.08 2.07 2.07.0 0 1 .5.06 3.81 3.81.0 0 1 3.68-3.35 3.71 3.71.0 0 1 3.09 1.73 4.48 4.48.0 0 1 2.45-.72 4.92 4.92.0 0 1 4.77 5.06c0 .1.0.21.0.31a2.3 2.3.0 0 1 1.36.63 3.82 3.82.0 0 1 1.78-.45 3.75 3.75.0 0 1 1.73.42A3.23 3.23.0 0 0 362 235.73z"/></g><path class="cls-4" d="M0 0h14e2v325.27H0z"/></g></g></svg>