<svg xmlns="http://www.w3.org/2000/svg" xmlns:xlink="http://www.w3.org/1999/xlink" viewBox="0 -2 216.22 115"><defs><style>.cls-1{fill:url(#未命名漸層_82)}.cls-11,.cls-2{fill:#b3b3b3}.cls-2,.cls-3,.cls-4,.cls-5{stroke:#4d3224}.cls-12,.cls-2,.cls-3{stroke-linecap:round;stroke-linejoin:round}.cls-2,.cls-3{stroke-width:2.01px}.cls-3,.cls-7{fill:#81cc32}.cls-4{fill:#80d8d6;stroke-width:1.92px}.cls-4,.cls-5{stroke-miterlimit:10}.cls-5{fill:#ffefba;stroke-width:1.9px}.cls-6{fill:#fff}.cls-8{fill:#d75968}.cls-9{fill:#d0ebea;opacity:.8}.cls-10{fill:#4e342e}.cls-12{fill:none;stroke:#e3e3e3;stroke-width:.99px}.Body{-webkit-animation:shock-An 2s linear infinite;animation:shock-An 2s linear infinite}@keyframes shock-An{0%{-webkit-transform:translateY(0px);transform:translateY(0px)}15%{-webkit-transform:translateY(-2px);transform:translateY(-2px)}30%{-webkit-transform:translateY(0px);transform:translateY(0px)}40%{-webkit-transform:translateY(0px);transform:translateY(0px)}55%{-webkit-transform:translateY(-2px);transform:translateY(-2px)}70%{-webkit-transform:translateY(0px);transform:translateY(0px)}85%{-webkit-transform:translateY(-2px);transform:translateY(-2px)}100%{-webkit-transform:translateY(0px);transform:translateY(0px)}}</style><linearGradient id="未命名漸層_82" x1="-751.49" y1="167.98" x2="-796.45" y2="169.29" gradientTransform="translate(980.9 15.23) rotate(7.39)" gradientUnits="userSpaceOnUse"><stop offset="0" stop-color="#fff" stop-opacity="0"/><stop offset=".68" stop-color="#f8eeb9" stop-opacity=".7"/><stop offset="1" stop-color="#f5e69a"/></linearGradient></defs><title>n-home-traffic-before-02</title><g class="Body"><g class="light"><path class="cls-1" d="M170 73.35l44.72-3.23s5.78 16.48-5.65 29.62L170 81.28l.06-7.93"/><animate attributeType="auto" attributeName="opacity" dur=".4s" values="0.4;1;0.4" repeatCount="indefinite" begin="0"/></g><rect class="cls-2" x="167.95" y="9.75" width="7.54" height="26.13" rx="3.75" ry="3.75"/><path class="cls-3" d="M9.56 97.6h154A8.58 8.58.0 0 0 172.09 89V9.56A8.58 8.58.0 0 0 163.53 1H9.56A8.58 8.58.0 0 0 1 9.56V89A8.58 8.58.0 0 0 9.56 97.6z"/><path class="cls-4" d="M160.68 63.92H171.9V12.71H160.68a5.72 5.72.0 0 0-5.7 5.7V58.22A5.72 5.72.0 0 0 160.68 63.92z"/><path class="cls-4" d="M102 41.57h37.55a5.72 5.72.0 0 0 5.7-5.7V18.41a5.72 5.72.0 0 0-5.7-5.7H102a5.72 5.72.0 0 0-5.7 5.7V35.87A5.7 5.7.0 0 0 102 41.57z"/><path class="cls-4" d="M18.11 41.57H80.84a5.73 5.73.0 0 0 5.71-5.7V18.41a5.73 5.73.0 0 0-5.71-5.7H18.11a5.7 5.7.0 0 0-5.7 5.7V35.87A5.7 5.7.0 0 0 18.11 41.57z"/><path class="cls-5" d="M171.83 81.22h-6.54c-5.83.0-7.32-1.65-8.52-4.65.0.0-2.87-5.42 4.37-5.42H169s3-.09 3 3.79z"/><path class="cls-6" d="M170.88 11.5 2.56 11.66S-.29 4 9.76 1.61L162.34 2s8.21-.17 8.54 6.7z"/><path class="cls-7" d="M162.34 1.95 170.88 11.33H165.52L157.65 2.12 162.34 1.95z"/><path class="cls-7" d="M12.77 1.61 4.23 12H9.59L17.46 1.78 12.77 1.61z"/><path class="cls-8" d="M126.1 71.49a5.18 5.18.0 0 1 2-4.08 5.36 5.36.0 0 1 0-.7 5.2 5.2.0 0 1 8.74-3.82 5.14 5.14.0 0 1 3.15-1.07 5.2 5.2.0 0 1 4.48 7.86 5.15 5.15.0 0 1 1.37 3.51 5.21 5.21.0 0 1-5.16 5.2 5.2 5.2.0 0 1-9.51-1.71A5.2 5.2.0 0 1 126.1 71.49z"/><circle class="cls-6" cx="135.01" cy="69.31" r=".81"/><circle class="cls-6" cx="138.36" cy="69.29" r=".81"/><circle class="cls-6" cx="136.6" cy="72.21" r=".81"/><path class="cls-8" d="M96.25 79.82a4.17 4.17.0 0 1-.64-3.58 3.9 3.9.0 0 1-.36-.43 4.17 4.17.0 0 1 3.88-6.58A4.17 4.17.0 0 1 106.5 68a4.08 4.08.0 0 1 .77 2.07 4.16 4.16.0 0 1 1.63 7.43 4.17 4.17.0 0 1-7 3.36A4.17 4.17.0 0 1 96.25 79.82z"/><circle class="cls-6" cx="101.01" cy="74.22" r=".65"/><circle class="cls-6" cx="103.18" cy="72.64" r=".65"/><circle class="cls-6" cx="103.4" cy="75.36" r=".65"/><path class="cls-8" d="M41.05 77.88a3.64 3.64.0 0 1 1.63-2.74 4.17 4.17.0 0 1 0-.5 3.67 3.67.0 0 1 6.37-2.15 3.72 3.72.0 0 1 2.28-.56A3.67 3.67.0 0 1 54 77.72a3.61 3.61.0 0 1 .74 2.55 3.66 3.66.0 0 1-3.93 3.34 3.66 3.66.0 0 1-6.57-1.78A3.66 3.66.0 0 1 41.05 77.88z"/><circle class="cls-6" cx="47.44" cy="76.89" r=".57"/><circle class="cls-6" cx="49.79" cy="77.08" r=".57"/><circle class="cls-6" cx="48.37" cy="79.03" r=".57"/><path class="cls-8" d="M8.11 72.88A4.76 4.76.0 0 1 9.29 69a6.23 6.23.0 0 1-.15-.62 4.72 4.72.0 0 1 7.27-4.68 4.71 4.71.0 0 1 7.81 5A4.72 4.72.0 0 1 22.09 77a4.72 4.72.0 0 1-8.76-.16A4.72 4.72.0 0 1 8.11 72.88z"/><circle class="cls-6" cx="15.78" cy="69.65" r=".73"/><circle class="cls-6" cx="18.77" cy="69.15" r=".73"/><circle class="cls-6" cx="17.61" cy="72.01" r=".73"/><path class="cls-9" d="M114.69 13.59H123.06L138.97 40.39 129.93 40.22 114.69 13.59z"/><path class="cls-9" d="M110.33 13.59H105.14L120.88 40.39H126.41l-16.08-26.8z"/><path class="cls-9" d="M28.76 13.76H37.14L53.05 40.55 44.01 40.39 28.76 13.76z"/><path class="cls-9" d="M24.41 13.76H19.22L34.96 40.55H40.49L24.41 13.76z"/></g><g class="Tires"><animateTransform attributeName="transform" dur="260ms" from="0 31.28 94.91" to="360 31.28 94.91" type="rotate" attributeType="auto" repeatCount="indefinite" /><circle class="cls-10" cx="31.28" cy="94.91" r="13.81"/><circle class="cls-11" cx="31.28" cy="94.91" r="8.36"/><path class="cls-12" d="M37.86 94.84a6.58 6.58.0 0 0-4.07-6.08"/><path class="cls-12" d="M26.63 99.49a6.54 6.54.0 0 1-1.92-4.65"/></g><g class="Tires"><animateTransform attributeName="transform" dur="260ms" from="0 120.45 94.91" to="360 120.45 94.91" type="rotate" attributeType="auto" repeatCount="indefinite" /><circle class="cls-10" cx="120.45" cy="94.91" r="13.81"/><circle class="cls-11" cx="120.45" cy="94.91" r="8.36"/><path class="cls-12" d="M127 94.84A6.58 6.58.0 0 0 123 88.76"/><path class="cls-12" d="M115.8 99.49a6.55 6.55.0 0 1-1.93-4.65"/></g></svg>