<svg xmlns="http://www.w3.org/2000/svg" xmlns:xlink="http://www.w3.org/1999/xlink" viewBox="0 -2 72.73 60"><defs><style>.cls-1{fill:url(#未命名漸層_107)}.cls-2{fill:#4e342e}.cls-10,.cls-3{fill:#b3b3b3}.cls-18,.cls-4,.cls-5{fill:none}.cls-4{stroke:#e3e3e3;stroke-width:.49px}.cls-10,.cls-11,.cls-13,.cls-14,.cls-20,.cls-21,.cls-23,.cls-4,.cls-5,.cls-6,.cls-8,.cls-9{stroke-linecap:round;stroke-linejoin:round}.cls-10,.cls-11,.cls-13,.cls-14,.cls-17,.cls-19,.cls-20,.cls-21,.cls-22,.cls-23,.cls-5,.cls-6,.cls-7,.cls-8,.cls-9{stroke:#4d3224}.cls-5{stroke-width:1.1px}.cls-6{fill:#e9e9e7}.cls-10,.cls-11,.cls-13,.cls-14,.cls-17,.cls-18,.cls-19,.cls-20,.cls-21,.cls-22,.cls-23,.cls-6,.cls-7,.cls-8,.cls-9{stroke-width:.62px}.cls-12,.cls-7{fill:#424242}.cls-17,.cls-18,.cls-19,.cls-22,.cls-7{stroke-miterlimit:10}.cls-8{fill:#f1ad80}.cls-9{fill:#75544c}.cls-11{fill:#f2f2f3}.cls-13{fill:#9e6036}.cls-14,.cls-15{fill:#4d3224}.cls-16{fill:#9c9c9c}.cls-17{fill:#ea4336}.cls-18{stroke:#9c9c9c}.cls-19{fill:#ffefba}.cls-20{fill:#2b7299}.cls-21{fill:#f2c09f}.cls-22{fill:#80d8d6}.cls-23{fill:#805c54}.Body{-webkit-animation:shock-An 2s linear infinite;animation:shock-An 2s linear infinite}@keyframes shock-An{0%{-webkit-transform:translateY(0px);transform:translateY(0px)}15%{-webkit-transform:translateY(-2px);transform:translateY(-2px)}30%{-webkit-transform:translateY(0px);transform:translateY(0px)}40%{-webkit-transform:translateY(0px);transform:translateY(0px)}55%{-webkit-transform:translateY(-2px);transform:translateY(-2px)}70%{-webkit-transform:translateY(0px);transform:translateY(0px)}85%{-webkit-transform:translateY(-2px);transform:translateY(-2px)}100%{-webkit-transform:translateY(0px);transform:translateY(0px)}}</style><linearGradient id="未命名漸層_107" x1="851.77" y1="1129.8" x2="829.6" y2="1130.45" gradientTransform="matrix(-1.24, 0.26, 0.2, 0.98, 830.39, -1282.56)" gradientUnits="userSpaceOnUse"><stop offset="0" stop-color="#fff" stop-opacity="0"/><stop offset=".61" stop-color="#f9f0c2" stop-opacity=".6"/><stop offset="1" stop-color="#f5e69a"/></linearGradient></defs><title>n-home-traffic-after-02</title><g class="Tires"><animateTransform attributeName="transform" dur="260ms" from="0 64.93 46.31" to="-360 64.93 46.31" type="rotate" attributeType="auto" repeatCount="indefinite" /><circle class="cls-2" cx="64.93" cy="46.31" r="6.84"/><circle class="cls-3" cx="64.93" cy="46.31" r="4.14"/><path class="cls-4" d="M68.19 46.28a3.25 3.25.0 0 0-2-3"/><path class="cls-4" d="M62.63 48.58a3.23 3.23.0 0 1-1-2.3"/></g><g class="Tires"><animateTransform attributeName="transform" dur="260ms" from="0 31.66 46.31" to="-360 31.66 46.31" type="rotate" attributeType="auto" repeatCount="indefinite" /><circle class="cls-2" cx="31.66" cy="46.31" r="6.84"/><circle class="cls-3" cx="31.66" cy="46.31" r="4.14"/><path class="cls-4" d="M34.91 46.28a3.26 3.26.0 0 0-2-3"/><path class="cls-4" d="M29.35 48.58a3.28 3.28.0 0 1-1-2.3"/></g><g class="Body"><g class="light"><path class="cls-1" d="M29.29 35.25l-28.23-2s-4.41 9.47 4.78 16.66L27.61 38.3l1.68-3" style="transform:translateX(1px);-webkit-transform:translateX(1px)"/><animate attributeType="auto" attributeName="opacity" dur=".4s" values="0.4;1;0.4" repeatCount="indefinite" begin="0"/></g><path class="cls-5" d="M70.91 28.39s2.74 4.12.18 4.94"/><path class="cls-6" d="M43.53 42.37v2.37H38.84s.51-2.17 2.17-2.4z"/><path class="cls-7" d="M41.24 22.19h-3.6a.89.89.0 0 1-.89-.88v0a.89.89.0 0 1 .89-.88h3.6a.88.88.0 0 1 .88.88v0A.88.88.0 0 1 41.24 22.19z"/><path class="cls-8" d="M42.25 20.91 41.71 21.72 39.82 22.07 39.54 20.27 41.83 19.83 42.25 20.91z"/><path class="cls-9" d="M53.76 11.34 56.69 14.84 42.25 21.09 41.72 19.68 50.79 12.98 53.76 11.34z"/><path class="cls-10" d="M31 47.41a.92.92.0 0 1-.52-.17A.89.89.0 0 1 30.33 46l3.43-4.7A.89.89.0 0 1 35 41.11a.88.88.0 0 1 .19 1.23L31.75 47A.87.87.0 0 1 31 47.41z"/><path class="cls-11" d="M35.88 42.71H25.24a.87.87.0 0 1-.69-1.28 5.09 5.09.0 0 1 4-2.67H32.7z"/><path class="cls-12" d="M35 37.17c.57 2 .88 4.08 1.94 5.86s3 1.55 5.28 1.55c1.65.0 3.66.14 4-1.94.13-1 .08-2 .16-3 .12-1.51.26-3 .41-4.52.07-.7.48-4.58 1.89-3.6l1.64 6s1.56 7.68-2.74 9.14l-9.33-.27s-4.48-1.74-5.94-9.33z"/><path class="cls-13" d="M68.69 31.72H48.78v-3.6a1.76 1.76.0 0 1 1.9-1.77c1.66.16 4.92 1.44 8.53 1.44 2.81.0 4.88-.11 6.29-.24a2.92 2.92.0 0 1 3.1 2.34z"/><path class="cls-10" d="M54.75 47.72a.81.81.0 0 1-.89-.78.9.9.0 0 1 .88-.9L64.81 46h0a.93.93.0 0 1 .88.94.83.83.0 0 1-.87.82z"/><path class="cls-11" d="M50 36.37a15.38 15.38.0 0 1 .53 4.42c-.09 2.09-.85 5.64-3.54 5.64H38.44c-1.47.0-3.5-3-4.2-4.07a12 12 0 0 1 2.27-15.66 2.7 2.7.0 0 0-2.23.22 7.07 7.07.0 0 0-1.81 1.41C30.51 30.37 28 33 28.07 36c0 .1.0.2.0.3.17 2.72 2.08 5.1 3.51 7.23a51.71 51.71.0 0 0 3.1 4.24 3.61 3.61.0 0 0 2 1L54 48.67A2.22 2.22.0 0 0 56.05 47c1.47-4.93 8.15-4.93 12.06-6.57.72-.3 3-.94 3.2-1.86.83-3.17-.75-8.06-2.92-8.06-1.23.0-19.79 1-19.8 1a38.76 38.76.0 0 1 1.28 4.31C49.92 36 50 36.19 50 36.37z"/><path class="cls-14" d="M34.31 26.82a6.63 6.63.0 0 0 1.47-2c.43-1.44-1.88-2.82.0-3.82.71-.38 1.25-.79 2-.44a2 2 0 0 1 .77 2.27c-.43.7-.82 1.38-1.18 2s-.62 1.19-.89 1.76z"/><path class="cls-15" d="M36.36 27s-2.47 5.12-2 10.15l-2.19.09S30.87 29.94 36.36 27z"/><rect class="cls-16" x="52.8" y="40.92" width="5.21" height="1.28" rx=".54" ry=".54" transform="translate(110.81 83.12) rotate(-180)"/><rect class="cls-17" x="68.16" y="35.52" width="3.57" height="2.47" rx="1.04" ry="1.04" transform="translate(139.89 73.52) rotate(-180)"/><path class="cls-18" d="M31.85 36.9H28.65z"/><path class="cls-19" d="M28.79 33.78a7.65 7.65.0 0 1 .36 5.38S26.4 35.54 28.79 33.78z"/><path class="cls-7" d="M41.52 23.56H37.91a.89.89.0 0 1-.88-.88v0a.89.89.0 0 1 .88-.88h3.61a.89.89.0 0 1 .88.88v0A.89.89.0 0 1 41.52 23.56z"/><path class="cls-20" d="M50.05 29.24 45.25 30.44 41.78 42.43 38.86 42.46 42.04 28.74 51.02 23.69 51.6 29.18 50.05 29.24z"/><path class="cls-21" d="M52.91 7.46 54.19 10.22 51.22 11.86 49.96 9.5 52.91 7.46z"/><path class="cls-21" d="M42.56 22.39 42.02 23.21 40.14 23.55 39.85 21.75 42.15 21.31 42.56 22.39z"/><path class="cls-11" d="M53.69 7.29l-4.3 2.59a4.2 4.2.0 0 1-3.93-3.24A5.25 5.25.0 0 1 50 .35c3-.42 5 2.21 4.65 3.62S53.69 7.29 53.69 7.29z"/><path class="cls-22" d="M49.41 9.18s.55-5-3.11-5.76c-.36-.08-.77 1.57-.8 1.75a3.63 3.63.0 0 0 .93 3.27C47.07 9.08 48.72 10.37 49.41 9.18z"/><path class="cls-6" d="M45.19 42.71v2.37H40.51s.51-2.17 2.17-2.4z"/><path class="cls-20" d="M57.1 24.55a6.42 6.42.0 0 1 .54 2.92c-.08.62-5 7-9.88 8.44-.54.16-2.07 7-2.07 7H41.42L44 30.41l6.24-5.86z"/><path class="cls-23" d="M56.36 10.18a.66.66.0 0 1 .22.22 2 2 0 0 1 .29 1c.06.47.69 5.33.75 5.33.1.74.87 8.48 1.13 8.5l-8.51-.56v-13.18c1.1-.52 2.2-1 3.32-1.52A3.43 3.43.0 0 1 56.36 10.18z"/><path class="cls-15" d="M54.53 5.25c-.71 1.25.73 2.82 1.53 3.64.44.46 1 .83 1.43 1.32.19.21 1.28 2.07.7 2.26l-1.09.37s.64-3-3-3.2l-1-1.83z"/><path class="cls-23" d="M55.67 16.47 42.68 22.72 42.15 21.31 51.22 14.61 52.74 12.97"/><path class="cls-10" d="M38.76 17.58 37 22a.37.37.0 0 1-.47.21.35.35.0 0 1-.21-.47l1.79-4.64a.38.38.0 0 1 .25-.23"/><path class="cls-15" d="M38 17c-.22-1.21.0-2.27.37-2.34s.95.84 1.17 2.06S39.58 19 39.16 19 38.21 18.19 38 17z"/></g></svg>