<svg xmlns="http://www.w3.org/2000/svg" xmlns:xlink="http://www.w3.org/1999/xlink" viewBox="0 -2 158.45 70"><defs><style>.cls-1{fill:url(#未命名漸層_82)}.cls-2{fill:#ffe13b}.cls-11,.cls-2,.cls-3,.cls-4,.cls-9{stroke:#4d3224}.cls-11,.cls-2,.cls-3,.cls-4{stroke-miterlimit:10}.cls-11,.cls-2,.cls-3{stroke-width:1.42px}.cls-3{fill:url(#linear-gradient)}.cls-4{fill:#80d8d6;stroke-width:1.44px}.cls-11,.cls-5{fill:#ffefba}.cls-6{opacity:.8}.cls-7{fill:#d0ebea}.cls-8{fill:#d00f19}.cls-10,.cls-9{fill:#b3b3b3}.cls-13,.cls-9{stroke-linecap:round;stroke-linejoin:round}.cls-9{stroke-width:1.51px}.cls-12{fill:#4e342e}.cls-13{fill:none;stroke:#e3e3e3;stroke-width:.71px}.Body{-webkit-animation:shock-An 2s linear infinite;animation:shock-An 2s linear infinite}@keyframes shock-An{0%{-webkit-transform:translateY(0px);transform:translateY(0px)}15%{-webkit-transform:translateY(-2px);transform:translateY(-2px)}30%{-webkit-transform:translateY(0px);transform:translateY(0px)}40%{-webkit-transform:translateY(0px);transform:translateY(0px)}55%{-webkit-transform:translateY(-2px);transform:translateY(-2px)}70%{-webkit-transform:translateY(0px);transform:translateY(0px)}85%{-webkit-transform:translateY(-2px);transform:translateY(-2px)}100%{-webkit-transform:translateY(0px);transform:translateY(0px)}}</style><linearGradient id="未命名漸層_82" x1="41.17" y1="43.65" x2="-3.79" y2="44.95" gradientTransform="matrix(-0.99, 0.13, 0.13, 0.99, 37.39, -1.64)" gradientUnits="userSpaceOnUse"><stop offset="0" stop-color="#fff" stop-opacity="0"/><stop offset=".68" stop-color="#f8eeb9" stop-opacity=".7"/><stop offset="1" stop-color="#f5e69a"/></linearGradient><linearGradient id="linear-gradient" x1="12273.66" y1="54.58" x2="12273.66" y2="9.17" gradientTransform="translate(-12172.45)" gradientUnits="userSpaceOnUse"><stop offset="0" stop-color="#ffe458"/><stop offset=".35" stop-color="#ffdf50"/><stop offset=".89" stop-color="#f3d13a"/><stop offset="1" stop-color="#f3ce35"/></linearGradient></defs><title>n-home-traffic-after-01</title><g class="Body"><g class="light"><path class="cls-1" d="M46.18 35.16 1.46 31.93S-4.32 48.41 7.11 61.54L46.24 43.08l-.06-7.92"/><animate attributeType="auto" attributeName="opacity" dur=".4s" values="0.4;1;0.4" repeatCount="indefinite" begin="0"/></g><path class="cls-2" d="M112.52 12.89a4.65 4.65.0 0 1-4.64-4.64V5.35a4.64 4.64.0 0 1 9.28.0v2.9A4.66 4.66.0 0 1 112.52 12.89z"/><path class="cls-3" d="M157.74 31.42V50.91c0 2.68-1 5-3.78 5l-100.29.28c-3.31.0-8.88-1-8.65-7.41.0.0-.47-8.46-.32-10.76.23-3.58 3.34-5.54 6.22-7a45.77 45.77.0 0 1 9.72-3.65c3.18-.79 6.54-1.1 9.47-2.66 2.53-1.34 4.31-3.49 6.58-5.18 8.36-6.24 13-10.79 35.17-10.79 16.35.0 28.74 5.49 36.62 15 .36.43 2.79 1.66 6.66 3.16C156.53 27.41 157.74 28.46 157.74 31.42z"/><path class="cls-4" d="M109.6 12.45c-16 0-28.62 7.41-33.12 15.72a1.6 1.6.0 0 0 1.6 2.27h31.78a1.67 1.67.0 0 0 1.76-1.57V14C111.62 13 110.67 12.45 109.6 12.45z"/><path class="cls-4" d="M119 12.45c14.62.0 25.39 10.31 27 15.72a1.58 1.58.0 0 1-1.45 2.27H118.75a1.59 1.59.0 0 1-1.61-1.57V17.14C117.14 13.8 117.32 12.45 119 12.45z"/><ellipse class="cls-5" cx="110.91" cy="3.58" rx="1.16" ry=".79" transform="translate(52.35 97.84) rotate(-60)"/><g class="cls-6"><path class="cls-7" d="M110.73 18.04 99.79 29.63H96.39l14.39-15.34L110.73 18.04z"/><path class="cls-7" d="M84.45 29.69l15.06-15.4a49.38 49.38.0 0 1 8.6-1.13L92.5 29.69"/></g><path class="cls-7" d="M135.84 18.25l-9.25 11.38 3.32.12L138 19.8A17.48 17.48.0 0 0 135.84 18.25z"/><path class="cls-8" d="M120.74 35.71v3.12h-.86V35.71h-.71V35h2.27v.74z"/><path class="cls-8" d="M124.71 36.18a1.32 1.32.0 0 1-.1.55 1 1 0 0 1-.26.39 1.1 1.1.0 0 1-.37.23 1.23 1.23.0 0 1-.42.07h-.38v1.41h-.85V35h1.2a1.51 1.51.0 0 1 .41.06 1 1 0 0 1 .39.2 1 1 0 0 1 .27.37A1.43 1.43.0 0 1 124.71 36.18zm-.82.0a.5.5.0 0 0-.12-.37.45.45.0 0 0-.31-.12h-.28v1h.28a.42.42.0 0 0 .31-.13A.57.57.0 0 0 123.89 36.19z"/><path class="cls-8" d="M125.72 38.83V35h1.86v.77h-1v.75h1v.72h-1V38h1.1v.79z"/><path class="cls-8" d="M128.51 37.64V37h1.05v.64z"/><path class="cls-8" d="M133 36.9a4 4 0 0 1 0 .68 2.33 2.33.0 0 1-.19.65 1.25 1.25.0 0 1-.39.49 1 1 0 0 1-.64.19 1.08 1.08.0 0 1-.64-.19 1.32 1.32.0 0 1-.38-.49 2 2 0 0 1-.19-.65 5.45 5.45.0 0 1-.05-.68 5.31 5.31.0 0 1 .05-.68 1.9 1.9.0 0 1 .19-.65 1.25 1.25.0 0 1 .38-.49 1 1 0 0 1 .64-.19 1 1 0 0 1 .64.19 1.18 1.18.0 0 1 .39.49 2.15 2.15.0 0 1 .19.65A4 4 0 0 1 133 36.9zm-.87.0c0-.13.0-.27.0-.41a2.25 2.25.0 0 0-.06-.4 1 1 0 0 0-.12-.31.24.24.0 0 0-.21-.13.24.24.0 0 0-.2.13 1 1 0 0 0-.12.31 2.25 2.25.0 0 0-.06.4c0 .14.0.28.0.41s0 .27.0.41a2.25 2.25.0 0 0 .06.4 1.11 1.11.0 0 0 .12.31.23.23.0 0 0 .2.12.24.24.0 0 0 .21-.12 1.11 1.11.0 0 0 .12-.31 2.25 2.25.0 0 0 .06-.4C132.08 37.17 132.08 37 132.08 36.9z"/><path class="cls-8" d="M136.28 37.7a1.24 1.24.0 0 1-.1.52 1.12 1.12.0 0 1-.26.38 1 1 0 0 1-.38.23 1.51 1.51.0 0 1-.48.08 1.38 1.38.0 0 1-.81-.24 1.27 1.27.0 0 1-.45-.74l.77-.2a.61.61.0 0 0 .16.31.37.37.0 0 0 .29.12.34.34.0 0 0 .18.0.3.3.0 0 0 .13-.12.4.4.0 0 0 .08-.16.55.55.0 0 0 0-.18.44.44.0 0 0-.14-.37.6.6.0 0 0-.38-.12h-.2v-.64h.22a.45.45.0 0 0 .33-.13.52.52.0 0 0 .12-.36.49.49.0 0 0-.09-.28.3.3.0 0 0-.27-.13.3.3.0 0 0-.24.11.64.64.0 0 0-.13.26l-.75-.19a1.48 1.48.0 0 1 .19-.42 1.11 1.11.0 0 1 .28-.29 1.06 1.06.0 0 1 .34-.16 1.2 1.2.0 0 1 .38.0 1.45 1.45.0 0 1 .41.06 1.1 1.1.0 0 1 .35.2 1 1 0 0 1 .26.33 1.06 1.06.0 0 1 .09.45 1.09 1.09.0 0 1-.14.57.69.69.0 0 1-.39.31v0a.76.76.0 0 1 .45.31A1 1 0 0 1 136.28 37.7z"/><path class="cls-8" d="M138.28 38.83V36l-.57.44-.39-.68 1.06-.77h.76v3.86z"/><path class="cls-8" d="M143.07 37.55a1.52 1.52.0 0 1-.1.59 1.24 1.24.0 0 1-.26.43 1 1 0 0 1-.39.25 1.23 1.23.0 0 1-.47.09 1.21 1.21.0 0 1-.77-.25 1.17 1.17.0 0 1-.43-.74l.75-.23a.63.63.0 0 0 .15.32.31.31.0 0 0 .28.14.33.33.0 0 0 .3-.16.79.79.0 0 0 .1-.42.56.56.0 0 0-.17-.44.61.61.0 0 0-.4-.14 2.08 2.08.0 0 0-.39.0l-.38.12L141 35h2v.76h-1.22v.66h.15.14a1.16 1.16.0 0 1 .47.09 1 1 0 0 1 .34.24A1.11 1.11.0 0 1 143 37 2 2 0 0 1 143.07 37.55z"/><path class="cls-9" d="M77.79 34.54c-.85.0-2.44-1.48-3.64-2.73A3.11 3.11.0 0 1 74 27.67c1.2-1.37 2.88-2.7 3.76-2.7h0a2.68 2.68.0 0 1 2.67 2.67v4.23A2.68 2.68.0 0 1 77.79 34.54z"/><path class="cls-10" d="M63.8 45.38l16.33 7.16a11.89 11.89.0 0 0 5.17 1.17l58.5-1.17a13.64 13.64.0 0 0 6.5-1.83s3.16-1.83 5-1.5l1.7-.14s1.46 6.81-4.87 6.31H60.3h-7.38s-5.77.43-7.11-4.8L45.3 37.38z"/><path class="cls-11" d="M44.8 42.71h4.9c4.38.0 5.49-1.24 6.39-3.49.0.0 2.15-4.07-3.28-4.07H46.93S44.72 35.09 44.7 38z"/></g><g class="Tires"><animateTransform attributeName="transform" dur="260ms" from="0 139.8 54.82" to="-360 139.8 54.82" type="rotate" attributeType="auto" repeatCount="indefinite" /><circle class="cls-12" cx="139.8" cy="54.82" r="10"/><circle class="cls-10" cx="139.8" cy="54.82" r="6.05"/><path class="cls-13" d="M144.56 54.78a4.78 4.78.0 0 0-2.95-4.41"/><path class="cls-13" d="M136.43 58.14A4.74 4.74.0 0 1 135 54.78"/></g><g class="Tires"><animateTransform attributeName="transform" dur="260ms" from="0 68.3 54.82" to="-360 68.3 54.82" type="rotate" attributeType="auto" repeatCount="indefinite" /><circle class="cls-12" cx="68.3" cy="54.82" r="10"/><circle class="cls-10" cx="68.3" cy="54.82" r="6.05"/><path class="cls-13" d="M73.06 54.78a4.78 4.78.0 0 0-3-4.41"/><path class="cls-13" d="M64.93 58.14a4.74 4.74.0 0 1-1.39-3.36"/></g></svg>