<svg xmlns="http://www.w3.org/2000/svg" xmlns:xlink="http://www.w3.org/1999/xlink" viewBox="0 -2 83.06 60"><defs><style>.cls-1{fill:url(#未命名漸層_107)}.cls-2{fill:#4e342e}.cls-12,.cls-3{fill:#b3b3b3}.cls-15,.cls-16,.cls-25,.cls-4{fill:none}.cls-4{stroke:#e3e3e3;stroke-width:.49px}.cls-11,.cls-12,.cls-13,.cls-14,.cls-15,.cls-16,.cls-18,.cls-21,.cls-22,.cls-24,.cls-4,.cls-6,.cls-7,.cls-8,.cls-9{stroke-linecap:round;stroke-linejoin:round}.cls-11,.cls-20,.cls-5{fill:#424242}.cls-11,.cls-12,.cls-13,.cls-14,.cls-16,.cls-17,.cls-18,.cls-19,.cls-20,.cls-21,.cls-22,.cls-23,.cls-24,.cls-25,.cls-5,.cls-6,.cls-7,.cls-8,.cls-9{stroke:#4d3224}.cls-17,.cls-19,.cls-20,.cls-23,.cls-25,.cls-5{stroke-miterlimit:10}.cls-12,.cls-13,.cls-14,.cls-15,.cls-16,.cls-5,.cls-9{stroke-width:.53px}.cls-6{fill:#f1ad80}.cls-21,.cls-22,.cls-23,.cls-24,.cls-6,.cls-7{stroke-width:.51px}.cls-7{fill:#ca9900}.cls-8,.cls-9{fill:#666}.cls-8{stroke-width:.45px}.cls-10{fill:#4d3224}.cls-11{stroke-width:.5px}.cls-13{fill:#f2f2f3}.cls-14,.cls-18{fill:#3787c5}.cls-15{stroke:#525252}.cls-17,.cls-19,.cls-23{fill:#80d8d6}.cls-17{stroke-width:.51px}.cls-18{stroke-width:.61px}.cls-19{stroke-width:.58px}.cls-20{stroke-width:.48px}.cls-21{fill:#173b54}.cls-22{fill:#f2c09f}.cls-24{fill:#d8a400}.cls-25{stroke-width:1.33px}.Body{-webkit-animation:shock-An 2s linear infinite;animation:shock-An 2s linear infinite}@keyframes shock-An{0%{-webkit-transform:translateY(0px);transform:translateY(0px)}15%{-webkit-transform:translateY(-2px);transform:translateY(-2px)}30%{-webkit-transform:translateY(0px);transform:translateY(0px)}40%{-webkit-transform:translateY(0px);transform:translateY(0px)}55%{-webkit-transform:translateY(-2px);transform:translateY(-2px)}70%{-webkit-transform:translateY(0px);transform:translateY(0px)}85%{-webkit-transform:translateY(-2px);transform:translateY(-2px)}100%{-webkit-transform:translateY(0px);transform:translateY(0px)}}</style><linearGradient id="未命名漸層_107" x1="951.91" y1="1165.28" x2="922.82" y2="1166.13" gradientTransform="matrix(1.25, 0.22, -0.18, 0.98, -900.81, -1335.17)" gradientUnits="userSpaceOnUse"><stop offset="0" stop-color="#fff" stop-opacity="0"/><stop offset=".61" stop-color="#f9f0c2" stop-opacity=".6"/><stop offset="1" stop-color="#f5e69a"/></linearGradient></defs><title>n-home-traffic-before-03</title><g class="Tires"><animateTransform attributeName="transform" dur="260ms" from="0 49.13 47" to="360 49.13 47" type="rotate" attributeType="auto" repeatCount="indefinite" /><circle class="cls-2" cx="49.13" cy="47" r="6.84"/><circle class="cls-3" cx="49.13" cy="47" r="4.14"/><path class="cls-4" d="M52.39 47a3.25 3.25.0 0 0-2-3"/><path class="cls-4" d="M46.83 49.27a3.22 3.22.0 0 1-.95-2.3"/></g><g class="Tires"><animateTransform attributeName="transform" dur="260ms" from="0 11.86 47" to="360 11.86 47" type="rotate" attributeType="auto" repeatCount="indefinite" /><circle class="cls-2" cx="11.86" cy="47" r="6.84"/><circle class="cls-3" cx="11.86" cy="47" r="4.14"/><path class="cls-4" d="M15.11 47a3.26 3.26.0 0 0-2-3"/><path class="cls-4" d="M9.56 49.27a3.22 3.22.0 0 1-1-2.3"/></g><g class="Body"><g class="light"><path class="cls-1" d="M44.6 16.67l1.76 3 29.93 15S88 26.39 80.61 12.93l-36 3.74"/><animate attributeType="auto" attributeName="opacity" dur=".4s" values="0.4;1;0.4" repeatCount="indefinite" begin="0"/></g><path class="cls-5" d="M38.09 18.47h4.13a1 1 0 0 0 1-1v0a1 1 0 0 0-1-1H38.09a1 1 0 0 0-1 1v0a1 1 0 0 0 1 1z"/><path class="cls-6" d="M37.25 17.09 37.89 17.73 39.66 17.71 39.6 16.02 37.44 16.03 37.25 17.09z"/><path class="cls-7" d="M25.13 10.46 23.1 14.15 37.29 17.26 37.52 15.88 28.12 11.41 25.13 10.46z"/><path class="cls-8" d="M41.59 25.19l-1-3.4c-.38-1.32.89-2.47 1.5-3.55l1.52-2.67c.44-.16 1.84 2.2 1.88 2.62.0.0.53 2.82.54 3 0 .64-.53.44-.78.69a3.27 3.27.0 0 0-.88 1.78"/><path class="cls-9" d="M19.04 46.85 24.17 45.79 23.19 41.72 16.83 43.05 19.04 46.85z"/><circle class="cls-9" cx="16.03" cy="44.82" r="3.45"/><circle class="cls-10" cx="16.07" cy="44.86" r="1.64"/><path class="cls-9" d="M17.07 42.58a17.8 17.8.0 0 0-6.52-1.32c-1.81.0-3.62.79-5.42.79-.58-.54-.72-1-.63-1.18a4.66 4.66.0 0 1 3.7-2.46H12z"/><path class="cls-11" d="M23.65 27.44c2.38-.23 2.64 2.33 3 4H5.28L6 28.32A3.14 3.14.0 0 1 9.3 25.81l9.47 1.39h.14z"/><path class="cls-12" d="M49.08 48.15a1 1 0 0 0 .6-.2 1 1 0 0 0 .22-1.41L46 41.17a1 1 0 1 0-1.63 1.18l3.93 5.38A1 1 0 0 0 49.08 48.15z"/><path class="cls-13" d="M28.71 42.64c-1.69.26-3.54-2.28-3.54-2.28l-6.14-7a4 4 0 0 1-.87-2.56c-4.87-.58-7.9-1-12.8-1.34a1.86 1.86.0 0 0-.78.06 1.53 1.53.0 0 0-.74 1.55c.1 2.43 2.31 4.16 4.32 5.54 2.79 1.92 5.58 3 8.37 5a41.75 41.75.0 0 1 4.29 3.91A87.47 87.47.0 0 1 31 46.57 25.31 25.31.0 0 1 41 50.39l4.85-2.3c-.14-1.26-.62-2.71-.2-3.93l3.83-6.1c1-.3 2.33.42 3.19 1a12.59 12.59.0 0 0 2.62 1.69.65.65.0 0 0 .45.05c.32-.12.31-.57.24-.9-.77-3.32-3.11-6.33-5.35-8.9a45.54 45.54.0 0 0-7.1-6.78l-1.65.83a34.35 34.35.0 0 1 4.42 7 5.45 5.45.0 0 1 .68 2.53 5.63 5.63.0 0 1-1.37 2.89c-.89 1.2-1.82 2.37-2.77 3.51a4.55 4.55.0 0 1-1.63 1.4 4.57 4.57.0 0 1-1.77.23H28.7"/><path class="cls-5" d="M37.56 19.89h4.13a1 1 0 0 0 1-1v0a1 1 0 0 0-1-1H37.56a1 1 0 0 0-1 1v0a1 1 0 0 0 1 1z"/><path class="cls-10" d="M42 18.74a.37.37.0 0 0 .21-.47l-.64-1.57a.39.39.0 0 0-.24-.23l-3.89-3.74A.35.35.0 0 0 37 13a.37.37.0 0 0 .25.45L41 17.13l.58 1.39A.36.36.0 0 0 42 18.74z"/><rect class="cls-9" x="28.71" y="41.25" width="12.57" height="1.37" rx=".68" ry=".68"/><path class="cls-9" d="M41 42.62V42l2.62-6.4a2 2 0 0 0 .07-1l-1-4.28s-.2-.4.33-.83l1.46-.8a24.36 24.36.0 0 1 2.32 4.58 3.78 3.78.0 0 1-.3 3S42.77 41.92 41 42.62z"/><path class="cls-9" d="M42 25.34l-.56.3a1.11 1.11.0 0 0 0 .66l1.66 3 1.26-.67z"/><path class="cls-14" d="M50.79 33.88c1.34 1.5 4.5 4.42 4 6.65-1.26-.66-2.46-1.5-3.68-2.26a1.68 1.68.0 0 0-1.94.36L46 43.4c-1.15 1.77-.2 4.69-.2 4.69L41 50.39C35.82 46 20.82 45.46 20.82 45.46a16.74 16.74.0 0 0-2.31-1.88L6.13 36.51A2.18 2.18.0 0 1 5 35.31c-.08-.22-.05-1.3-.18-1.37C14.62 39.42 29 42.62 29 42.62H41l1.59-1.07 3.89-5.36c1.07-1.65.09-3.93.09-3.93L43.8 27.4S50.26 33.28 50.79 33.88z"/><path class="cls-12" d="M43.49 24.23l1.37-.55a16.46 16.46.0 0 1 2.57 3.8z"/><path class="cls-9" d="M4.58 29.5c-.23-1.07 13.58 1.28 13.58 1.28a12.43 12.43.0 0 1-4.5.88 30.88 30.88.0 0 1-4.82-1l-4.57-1"/><path class="cls-9" d="M15.15 30.4a2.64 2.64.0 0 0 .88 2L26.29 42a4.6 4.6.0 0 0 2.41.65V41.57c-.58-1.15-1.18-2.29-1.77-3.44-.49-1-1.53-2.12-1.23-3.3s1.73-1.67 1.73-2.83c0 0 .26-1.15-1.42-1z"/><path class="cls-15" d="M16 31.64c2.55.44 4.88 1.17 6.66 3.2.58.65 2.65 5.2 3.72 3.29"/><path class="cls-16" d="M26.38 34s1.06 1.86 2-.27"/><path class="cls-16" d="M40.88 26.87s.62 1.59 1.42 1.06"/><path class="cls-17" d="M4.09 30s-.26 1 2.12 1.68l2.3.62L5.42 34.12S1.53 31.73 4.09 30z"/><path class="cls-9" d="M5.86 36.68 2.41 43.4s-.09.89.71.53l4.51-6.19z"/><path class="cls-9" d="M24.43 45.79c-.47.0-1.24 2.92-1.24 2.92s5.22 1.06 17.51 1.41C40.7 50.12 36.11 46.32 24.43 45.79z"/><path class="cls-18" d="M44.15 14.93l-2 2.52s.91 3.43 3.64 4.64C45.77 22.09 47.78 17.85 44.15 14.93z"/><path class="cls-19" d="M45.87 17H44s-.3.11.71 1.42L46.07 20S46.77 19.47 45.87 17z"/><rect class="cls-20" x="36.11" y="10.86" width="1.42" height="4.32" rx=".71" ry=".71" transform="translate(4.38 -8.72) rotate(14.35)"/><path class="cls-10" d="M35 39.09v2.19h4.33s-.47-2-2-2.22z"/><path class="cls-21" d="M28.97 26.97 33.4 28.08 36.61 39.14 39.3 39.17 36.37 26.51 28.07 21.85 27.54 26.92 28.97 26.97z"/><path class="cls-22" d="M26.33 6.87 25.15 9.42 27.89 10.93 29.06 8.75 26.33 6.87z"/><path class="cls-22" d="M36.96 19.39 37.56 20.07 39.33 20.15 39.37 18.47 37.22 18.35 36.96 19.39z"/><path class="cls-14" d="M25.61 6.71l4 2.39a3.88 3.88.0 0 0 3.63-3A4.84 4.84.0 0 0 29 .31c-2.78-.39-4.61 2-4.3 3.34S25.61 6.71 25.61 6.71z"/><path class="cls-23" d="M29.56 8.46s-.51-4.65 2.87-5.32c.34-.07.71 1.44.74 1.61a3.37 3.37.0 0 1-.86 3C31.72 8.36 30.2 9.56 29.56 8.46z"/><path class="cls-10" d="M33.45 39.67v2.19h4.33s-.48-2-2-2.21z"/><path class="cls-21" d="M22.46 22.64A6 6 0 0 0 22 25.33c.07.58 4.62 6.49 9.11 7.8.51.15 1.92 6.43 1.92 6.43h3.94l-2.39-11.5-5.77-5.41z"/><path class="cls-24" d="M23.14 9.38a.76.76.0 0 0-.2.2 2 2 0 0 0-.27.9c-.05.43-.63 4.91-.69 4.91-.09.69-.8 7.84-1 7.85l7.86-.52v-12.16c-1-.48-2-1-3.06-1.4A3.17 3.17.0 0 0 23.14 9.38z"/><path class="cls-24" d="M26.03 16.35 36.9 19.7 37.22 18.35 28.11 13.3 25.19 12.16"/><path class="cls-10" d="M24.7 4.58V7.94l1 .35.71-1.06z"/><path class="cls-9" d="M10.24 49l-7-1.31C1.59 47.33-.12 46.5.34 44.58c.43-1.75 2.93-1.39 4.08-1l6.66 2A1.8 1.8.0 0 1 10.24 49z"/><path class="cls-25" d="M12.16 47.66l3.91 1.23a26.67 26.67.0 0 0 2.92-.8l4.78-1.46"/></g></svg>