<svg xmlns="http://www.w3.org/2000/svg" xmlns:xlink="http://www.w3.org/1999/xlink" viewBox="0 -2 176.65 90"><defs><style>.cls-1{fill:url(#未命名漸層_82)}.cls-2{fill:#3787c5;stroke-width:1.65px}.cls-2,.cls-3,.cls-4,.cls-6{stroke:#4d3224}.cls-11,.cls-2,.cls-4{stroke-linecap:round;stroke-linejoin:round}.cls-3{fill:#80d8d6;stroke-width:1.97px}.cls-3,.cls-6{stroke-miterlimit:10}.cls-4{fill:#47532a;stroke-width:2.06px}.cls-5{fill:#4d3224}.cls-6{fill:#ffefba;stroke-width:1.26px}.cls-7{fill:#2f7ca6}.cls-8{fill:#f5e69a}.cls-9{fill:#4e342e}.cls-10{fill:#b3b3b3}.cls-11{fill:none;stroke:#e3e3e3;stroke-width:.88px}.Body{-webkit-animation:shock-An 2s linear infinite;animation:shock-An 2s linear infinite}@keyframes shock-An{0%{-webkit-transform:translateY(0px);transform:translateY(0px)}15%{-webkit-transform:translateY(-2px);transform:translateY(-2px)}30%{-webkit-transform:translateY(0px);transform:translateY(0px)}40%{-webkit-transform:translateY(0px);transform:translateY(0px)}55%{-webkit-transform:translateY(-2px);transform:translateY(-2px)}70%{-webkit-transform:translateY(0px);transform:translateY(0px)}85%{-webkit-transform:translateY(-2px);transform:translateY(-2px)}100%{-webkit-transform:translateY(0px);transform:translateY(0px)}}</style><linearGradient id="未命名漸層_82" x1="-857.21" y1="120.3" x2="-902.17" y2="121.61" gradientTransform="matrix(-0.99, 0.13, 0.13, 0.99, -863.39, 56.54)" gradientUnits="userSpaceOnUse"><stop offset="0" stop-color="#fff" stop-opacity="0"/><stop offset=".68" stop-color="#f8eeb9" stop-opacity=".7"/><stop offset="1" stop-color="#f5e69a"/></linearGradient></defs><title>n-home-traffic-after-04</title><g class="Body"><g class="light"><path class="cls-1" d="M46.18 53.79 1.46 50.56S-4.32 67 7.11 80.17L46.24 61.71l-.06-7.92"/><animate attributeType="auto" attributeName="opacity" dur=".4s" values="0.4;1;0.4" repeatCount="indefinite" begin="0"/></g><path class="cls-2" d="M88.64 57.47V30c0-6.58.0-8.58-8.15-8.58H70.91a7.52 7.52.0 0 0-3.37.8l-15.89 8a8.56 8.56.0 0 0-4.52 6.64L43.42 66.58C42.36 74.21 45.15 76 51.31 76H175.77V57.47z"/><path class="cls-3" d="M73.7 28.32a1.29 1.29.0 0 0-1.86-1.15L54.28 34.65a5.46 5.46.0 0 0-2.89 4.22l-.77 6.29a1.3 1.3.0 0 0 1.28 1.45H72.42a1.29 1.29.0 0 0 1.29-1.29v-17z"/><path class="cls-4" d="M175.62 57.47H81.78V5.78A4.75 4.75.0 0 1 86.53 1h84.34a4.75 4.75.0 0 1 4.75 4.75z"/><path class="cls-5" d="M53.17 50c-.8.0-2.3-1.4-3.43-2.58a2.93 2.93.0 0 1-.12-3.91c1.13-1.3 2.72-2.55 3.55-2.55h0a2.54 2.54.0 0 1 2.53 2.52v4A2.54 2.54.0 0 1 53.17 50z"/><path class="cls-6" d="M44.63 60.58H49c3.89.0 4.88-1.1 5.68-3.1.0.0 1.91-3.61-2.92-3.61H46.53s-2-.06-2 2.52z"/><rect class="cls-7" x="82.11" y="61.74" width="89.68" height="1.55" rx=".73" ry=".73"/><rect class="cls-7" x="82.11" y="67.1" width="89.68" height="1.55" rx=".73" ry=".73"/><path class="cls-8" d="M134 46.57V51.7h-1.41V46.57H131.4V45.35h3.75v1.22z"/><path class="cls-8" d="M140.52 47.34a2.36 2.36.0 0 1-.16.92 1.8 1.8.0 0 1-.43.63 1.78 1.78.0 0 1-.61.38 2.09 2.09.0 0 1-.69.12H138V51.7H136.6V45.35h2a2.35 2.35.0 0 1 .69.1 1.73 1.73.0 0 1 .63.33 1.5 1.5.0 0 1 .45.61A2.27 2.27.0 0 1 140.52 47.34zm-1.35.0a.84.84.0 0 0-.2-.62.72.72.0 0 0-.51-.19H138v1.66h.45A.67.67.0 0 0 139 48 .93.93.0 0 0 139.17 47.37z"/><path class="cls-8" d="M142.18 51.7V45.35h3.07v1.27h-1.7v1.24h1.56v1.19h-1.56v1.36h1.8V51.7z"/><path class="cls-8" d="M146.78 49.75V48.69h1.72v1.06z"/><path class="cls-8" d="M154.09 48.53a8.94 8.94.0 0 1-.08 1.12 4 4 0 0 1-.32 1.07 2 2 0 0 1-.64.8 1.88 1.88.0 0 1-2.1.0 2 2 0 0 1-.64-.8 3.69 3.69.0 0 1-.31-1.07 8.94 8.94.0 0 1-.08-1.12 8.68 8.68.0 0 1 .08-1.12 3.75 3.75.0 0 1 .31-1.08 2.09 2.09.0 0 1 .64-.8 1.93 1.93.0 0 1 2.1.0 2.09 2.09.0 0 1 .64.8 4.11 4.11.0 0 1 .32 1.08A8.68 8.68.0 0 1 154.09 48.53zm-1.43.0c0-.21.0-.44.0-.68a3.29 3.29.0 0 0-.09-.66 1.7 1.7.0 0 0-.2-.51.39.39.0 0 0-.68.0 2 2 0 0 0-.2.51 3.29 3.29.0 0 0-.09.66c0 .24.0.47.0.68s0 .44.0.68a3.29 3.29.0 0 0 .09.66 1.8 1.8.0 0 0 .2.5.39.39.0 0 0 .68.0 1.54 1.54.0 0 0 .2-.5 3.29 3.29.0 0 0 .09-.66C152.65 49 152.66 48.74 152.66 48.53z"/><path class="cls-8" d="M159.56 49.85a2.26 2.26.0 0 1-.15.85 2 2 0 0 1-.43.62 1.86 1.86.0 0 1-.63.39 2.56 2.56.0 0 1-.79.13 2.25 2.25.0 0 1-1.33-.4 1.91 1.91.0 0 1-.74-1.22l1.26-.32a1.12 1.12.0 0 0 .26.51.63.63.0 0 0 .49.2.73.73.0 0 0 .3-.07 1 1 0 0 0 .21-.19 1.11 1.11.0 0 0 .12-.27 1 1 0 0 0 0-.3.75.75.0 0 0-.24-.61 1 1 0 0 0-.63-.19H157V47.92h.36a.71.71.0 0 0 .55-.21.84.84.0 0 0 .19-.59.78.78.0 0 0-.14-.46.49.49.0 0 0-.44-.21.47.47.0 0 0-.4.17 1 1 0 0 0-.22.43l-1.23-.31A2.25 2.25.0 0 1 156 46a2.06 2.06.0 0 1 .46-.47 1.93 1.93.0 0 1 .56-.27 2.15 2.15.0 0 1 .62-.08 2.24 2.24.0 0 1 .68.1 1.86 1.86.0 0 1 .58.33 1.57 1.57.0 0 1 .42.53 1.81 1.81.0 0 1 .16.76 1.75 1.75.0 0 1-.24.94 1.14 1.14.0 0 1-.63.5v0a1.26 1.26.0 0 1 .72.52A1.58 1.58.0 0 1 159.56 49.85z"/><path class="cls-8" d="M162.86 51.7V47l-1 .72-.63-1.12L163 45.35h1.25V51.7z"/><path class="cls-8" d="M170.74 49.59a2.71 2.71.0 0 1-.16 1 2.06 2.06.0 0 1-.43.7 1.87 1.87.0 0 1-.64.42 2.21 2.21.0 0 1-.78.14 2 2 0 0 1-1.26-.41 1.92 1.92.0 0 1-.71-1.22l1.23-.38a1.33 1.33.0 0 0 .24.54.55.55.0 0 0 .46.22.54.54.0 0 0 .5-.27 1.32 1.32.0 0 0 .17-.68.89.89.0 0 0-.28-.73 1 1 0 0 0-.65-.23 3.37 3.37.0 0 0-.65.08 3.48 3.48.0 0 0-.62.2l.13-3.61h3.22V46.6h-2l-.05 1.09a1.49 1.49.0 0 1 .25-.07h.24a1.84 1.84.0 0 1 .76.15 1.47 1.47.0 0 1 .57.4 1.75 1.75.0 0 1 .35.63A2.62 2.62.0 0 1 170.74 49.59z"/></g><g class="Tires"><animateTransform attributeName="transform" dur="260ms" from="0 74.59 75.49" to="-360 74.59 75.49" type="rotate" attributeType="auto" repeatCount="indefinite" /><circle class="cls-9" cx="74.59" cy="75.49" r="12.35"/><circle class="cls-10" cx="74.59" cy="75.49" r="7.48"/><path class="cls-11" d="M80.47 75.43A5.87 5.87.0 0 0 76.83 70"/><path class="cls-11" d="M70.44 79.59a5.83 5.83.0 0 1-1.73-4.16"/></g><g class="Tires"><animateTransform attributeName="transform" dur="260ms" from="0 154.34 75.49" to="-360 154.34 75.49" type="rotate" attributeType="auto" repeatCount="indefinite" /><circle class="cls-9" cx="154.34" cy="75.49" r="12.35"/><circle class="cls-10" cx="154.34" cy="75.49" r="7.48"/><path class="cls-11" d="M160.22 75.43A5.88 5.88.0 0 0 156.58 70"/><path class="cls-11" d="M150.18 79.59a5.86 5.86.0 0 1-1.72-4.16"/></g></svg>